<?xml version="1.0" encoding="UTF - 8"?>
<!DOCTYPE xmeml>

<xmeml version="5">
  <sequence id="SynthLipSequence">
    <updatebehavior>add</updatebehavior>
    <name>Something New_AllEleanor (Convert with s5ptosvp)序列(SynthLip)</name>
    <duration>125</duration>
    <rate>
      <ntsc>FALSE</ntsc>
      <timebase>25</timebase>
    </rate>
    <timecode>
      <rate>
        <ntsc>FALSE</ntsc>
        <timebase>25</timebase>
      </rate>
      <string>01:00:00:00</string>
      <frame>90000</frame>
      <source>source</source>
      <displayformat>NDF</displayformat>
    </timecode>
    <in>0</in>
    <out>125</out>
    <width>1920</width>
    <height>1080</height>
    <media>
      <video>
        <format>
          <samplecharacteristics>
            <rate>
              <ntsc>FALSE</ntsc>
              <timebase>25</timebase>
            </rate>
            <width>1920</width>
            <height>1080</height>
            <pixelaspectratio>Square</pixelaspectratio>
            <anamorphic>FALSE</anamorphic>
          </samplecharacteristics>
        </format>
        <track>
          <enabled>TRUE</enabled>
          <locked>FALSE</locked>
        </track>
        <track>
          <clipitem id="F.png669">
            <name>F.png</name>
            <duration>25</duration>
            <rate>
              <ntsc>FALSE</ntsc>
              <timebase>25</timebase>
            </rate>
            <in>92251.88</in>
            <out>92276.88</out>
            <start>2251.88</start>
            <end>2276.88</end>
            <pixelaspectratio>Square</pixelaspectratio>
            <stillframe>TRUE</stillframe>
            <anamorphic>FALSE</anamorphic>
            <alphatype>straight</alphatype>
            <masterclipid>F.png669</masterclipid>
            <file id="F">
              <name>F.png</name>
              <pathurl>D:/Codes/SynthLip/SynthLipN/bin/Release/net6.0-windows8.0/publish/Skin/template/F.png</pathurl>
              <rate>
                <ntsc>FALSE</ntsc>
                <timebase>25</timebase>
              </rate>
              <duration>2</duration>
              <width>1920</width>
              <height>1080</height>
              <media>
                <video>
                  <duration>2</duration>
                  <stillframe>TRUE</stillframe>
                  <samplecharacteristics>
                    <rate>
                      <ntsc>FALSE</ntsc>
                      <timebase>25</timebase>
                    </rate>
                    <width>1920</width>
                    <height>1080</height>
                    <pixelaspectratio>Square</pixelaspectratio>
                    <anamorphic>FALSE</anamorphic>
                  </samplecharacteristics>
                </video>
              </media>
            </file>
            <sourcetrack>
              <mediatype>video</mediatype>
            </sourcetrack>
            <fielddominance>none</fielddominance>
          </clipitem>
          <clipitem id="F.png668">
            <name>F.png</name>
            <duration>2.03</duration>
            <rate>
              <ntsc>FALSE</ntsc>
              <timebase>25</timebase>
            </rate>
            <in>92249.84</in>
            <out>92251.875</out>
            <start>2249.84</start>
            <end>2251.87</end>
            <pixelaspectratio>Square</pixelaspectratio>
            <stillframe>TRUE</stillframe>
            <anamorphic>FALSE</anamorphic>
            <alphatype>straight</alphatype>
            <masterclipid>F.png668</masterclipid>
            <file id="F">
              <name>F.png</name>
              <pathurl>D:/Codes/SynthLip/SynthLipN/bin/Release/net6.0-windows8.0/publish/Skin/template/F.png</pathurl>
              <rate>
                <ntsc>FALSE</ntsc>
                <timebase>25</timebase>
              </rate>
              <duration>2</duration>
              <width>1920</width>
              <height>1080</height>
              <media>
                <video>
                  <duration>2</duration>
                  <stillframe>TRUE</stillframe>
                  <samplecharacteristics>
                    <rate>
                      <ntsc>FALSE</ntsc>
                      <timebase>25</timebase>
                    </rate>
                    <width>1920</width>
                    <height>1080</height>
                    <pixelaspectratio>Square</pixelaspectratio>
                    <anamorphic>FALSE</anamorphic>
                  </samplecharacteristics>
                </video>
              </media>
            </file>
            <sourcetrack>
              <mediatype>video</mediatype>
            </sourcetrack>
            <fielddominance>none</fielddominance>
          </clipitem>
          <clipitem id="B.png667">
            <name>B.png</name>
            <duration>1.09</duration>
            <rate>
              <ntsc>FALSE</ntsc>
              <timebase>25</timebase>
            </rate>
            <in>92248.75</in>
            <out>92249.84</out>
            <start>2248.75</start>
            <end>2249.84</end>
            <pixelaspectratio>Square</pixelaspectratio>
            <stillframe>TRUE</stillframe>
            <anamorphic>FALSE</anamorphic>
            <alphatype>straight</alphatype>
            <masterclipid>B.png667</masterclipid>
            <file id="B">
              <name>B.png</name>
              <pathurl>D:/Codes/SynthLip/SynthLipN/bin/Release/net6.0-windows8.0/publish/Skin/template/B.png</pathurl>
              <rate>
                <ntsc>FALSE</ntsc>
                <timebase>25</timebase>
              </rate>
              <duration>2</duration>
              <width>1920</width>
              <height>1080</height>
              <media>
                <video>
                  <duration>2</duration>
                  <stillframe>TRUE</stillframe>
                  <samplecharacteristics>
                    <rate>
                      <ntsc>FALSE</ntsc>
                      <timebase>25</timebase>
                    </rate>
                    <width>1920</width>
                    <height>1080</height>
                    <pixelaspectratio>Square</pixelaspectratio>
                    <anamorphic>FALSE</anamorphic>
                  </samplecharacteristics>
                </video>
              </media>
            </file>
            <sourcetrack>
              <mediatype>video</mediatype>
            </sourcetrack>
            <fielddominance>none</fielddominance>
          </clipitem>
          <clipitem id="B.png666">
            <name>B.png</name>
            <duration>1.25</duration>
            <rate>
              <ntsc>FALSE</ntsc>
              <timebase>25</timebase>
            </rate>
            <in>92247.5</in>
            <out>92248.75</out>
            <start>2247.5</start>
            <end>2248.75</end>
            <pixelaspectratio>Square</pixelaspectratio>
            <stillframe>TRUE</stillframe>
            <anamorphic>FALSE</anamorphic>
            <alphatype>straight</alphatype>
            <masterclipid>B.png666</masterclipid>
            <file id="B">
              <name>B.png</name>
              <pathurl>D:/Codes/SynthLip/SynthLipN/bin/Release/net6.0-windows8.0/publish/Skin/template/B.png</pathurl>
              <rate>
                <ntsc>FALSE</ntsc>
                <timebase>25</timebase>
              </rate>
              <duration>2</duration>
              <width>1920</width>
              <height>1080</height>
              <media>
                <video>
                  <duration>2</duration>
                  <stillframe>TRUE</stillframe>
                  <samplecharacteristics>
                    <rate>
                      <ntsc>FALSE</ntsc>
                      <timebase>25</timebase>
                    </rate>
                    <width>1920</width>
                    <height>1080</height>
                    <pixelaspectratio>Square</pixelaspectratio>
                    <anamorphic>FALSE</anamorphic>
                  </samplecharacteristics>
                </video>
              </media>
            </file>
            <sourcetrack>
              <mediatype>video</mediatype>
            </sourcetrack>
            <fielddominance>none</fielddominance>
          </clipitem>
          <clipitem id="C.png665">
            <name>C.png</name>
            <duration>3.75</duration>
            <rate>
              <ntsc>FALSE</ntsc>
              <timebase>25</timebase>
            </rate>
            <in>92243.75</in>
            <out>92247.5</out>
            <start>2243.75</start>
            <end>2247.5</end>
            <pixelaspectratio>Square</pixelaspectratio>
            <stillframe>TRUE</stillframe>
            <anamorphic>FALSE</anamorphic>
            <alphatype>straight</alphatype>
            <masterclipid>C.png665</masterclipid>
            <file id="C">
              <name>C.png</name>
              <pathurl>D:/Codes/SynthLip/SynthLipN/bin/Release/net6.0-windows8.0/publish/Skin/template/C.png</pathurl>
              <rate>
                <ntsc>FALSE</ntsc>
                <timebase>25</timebase>
              </rate>
              <duration>2</duration>
              <width>1920</width>
              <height>1080</height>
              <media>
                <video>
                  <duration>2</duration>
                  <stillframe>TRUE</stillframe>
                  <samplecharacteristics>
                    <rate>
                      <ntsc>FALSE</ntsc>
                      <timebase>25</timebase>
                    </rate>
                    <width>1920</width>
                    <height>1080</height>
                    <pixelaspectratio>Square</pixelaspectratio>
                    <anamorphic>FALSE</anamorphic>
                  </samplecharacteristics>
                </video>
              </media>
            </file>
            <sourcetrack>
              <mediatype>video</mediatype>
            </sourcetrack>
            <fielddominance>none</fielddominance>
          </clipitem>
          <clipitem id="G.png664">
            <name>G.png</name>
            <duration>1.25</duration>
            <rate>
              <ntsc>FALSE</ntsc>
              <timebase>25</timebase>
            </rate>
            <in>92242.5</in>
            <out>92243.75</out>
            <start>2242.5</start>
            <end>2243.75</end>
            <pixelaspectratio>Square</pixelaspectratio>
            <stillframe>TRUE</stillframe>
            <anamorphic>FALSE</anamorphic>
            <alphatype>straight</alphatype>
            <masterclipid>G.png664</masterclipid>
            <file id="G">
              <name>G.png</name>
              <pathurl>D:/Codes/SynthLip/SynthLipN/bin/Release/net6.0-windows8.0/publish/Skin/template/G.png</pathurl>
              <rate>
                <ntsc>FALSE</ntsc>
                <timebase>25</timebase>
              </rate>
              <duration>2</duration>
              <width>1920</width>
              <height>1080</height>
              <media>
                <video>
                  <duration>2</duration>
                  <stillframe>TRUE</stillframe>
                  <samplecharacteristics>
                    <rate>
                      <ntsc>FALSE</ntsc>
                      <timebase>25</timebase>
                    </rate>
                    <width>1920</width>
                    <height>1080</height>
                    <pixelaspectratio>Square</pixelaspectratio>
                    <anamorphic>FALSE</anamorphic>
                  </samplecharacteristics>
                </video>
              </media>
            </file>
            <sourcetrack>
              <mediatype>video</mediatype>
            </sourcetrack>
            <fielddominance>none</fielddominance>
          </clipitem>
          <clipitem id="A.png663">
            <name>A.png</name>
            <duration>3.75</duration>
            <rate>
              <ntsc>FALSE</ntsc>
              <timebase>25</timebase>
            </rate>
            <in>92238.75</in>
            <out>92242.5</out>
            <start>2238.75</start>
            <end>2242.5</end>
            <pixelaspectratio>Square</pixelaspectratio>
            <stillframe>TRUE</stillframe>
            <anamorphic>FALSE</anamorphic>
            <alphatype>straight</alphatype>
            <masterclipid>A.png663</masterclipid>
            <file id="A">
              <name>A.png</name>
              <pathurl>D:/Codes/SynthLip/SynthLipN/bin/Release/net6.0-windows8.0/publish/Skin/template/A.png</pathurl>
              <rate>
                <ntsc>FALSE</ntsc>
                <timebase>25</timebase>
              </rate>
              <duration>2</duration>
              <width>1920</width>
              <height>1080</height>
              <media>
                <video>
                  <duration>2</duration>
                  <stillframe>TRUE</stillframe>
                  <samplecharacteristics>
                    <rate>
                      <ntsc>FALSE</ntsc>
                      <timebase>25</timebase>
                    </rate>
                    <width>1920</width>
                    <height>1080</height>
                    <pixelaspectratio>Square</pixelaspectratio>
                    <anamorphic>FALSE</anamorphic>
                  </samplecharacteristics>
                </video>
              </media>
            </file>
            <sourcetrack>
              <mediatype>video</mediatype>
            </sourcetrack>
            <fielddominance>none</fielddominance>
          </clipitem>
          <clipitem id="A.png662">
            <name>A.png</name>
            <duration>2.19</duration>
            <rate>
              <ntsc>FALSE</ntsc>
              <timebase>25</timebase>
            </rate>
            <in>92236.56</in>
            <out>92238.75</out>
            <start>2236.56</start>
            <end>2238.75</end>
            <pixelaspectratio>Square</pixelaspectratio>
            <stillframe>TRUE</stillframe>
            <anamorphic>FALSE</anamorphic>
            <alphatype>straight</alphatype>
            <masterclipid>A.png662</masterclipid>
            <file id="A">
              <name>A.png</name>
              <pathurl>D:/Codes/SynthLip/SynthLipN/bin/Release/net6.0-windows8.0/publish/Skin/template/A.png</pathurl>
              <rate>
                <ntsc>FALSE</ntsc>
                <timebase>25</timebase>
              </rate>
              <duration>2</duration>
              <width>1920</width>
              <height>1080</height>
              <media>
                <video>
                  <duration>2</duration>
                  <stillframe>TRUE</stillframe>
                  <samplecharacteristics>
                    <rate>
                      <ntsc>FALSE</ntsc>
                      <timebase>25</timebase>
                    </rate>
                    <width>1920</width>
                    <height>1080</height>
                    <pixelaspectratio>Square</pixelaspectratio>
                    <anamorphic>FALSE</anamorphic>
                  </samplecharacteristics>
                </video>
              </media>
            </file>
            <sourcetrack>
              <mediatype>video</mediatype>
            </sourcetrack>
            <fielddominance>none</fielddominance>
          </clipitem>
          <clipitem id="A.png661">
            <name>A.png</name>
            <duration>0.31</duration>
            <rate>
              <ntsc>FALSE</ntsc>
              <timebase>25</timebase>
            </rate>
            <in>92236.25</in>
            <out>92236.56</out>
            <start>2236.25</start>
            <end>2236.56</end>
            <pixelaspectratio>Square</pixelaspectratio>
            <stillframe>TRUE</stillframe>
            <anamorphic>FALSE</anamorphic>
            <alphatype>straight</alphatype>
            <masterclipid>A.png661</masterclipid>
            <file id="A">
              <name>A.png</name>
              <pathurl>D:/Codes/SynthLip/SynthLipN/bin/Release/net6.0-windows8.0/publish/Skin/template/A.png</pathurl>
              <rate>
                <ntsc>FALSE</ntsc>
                <timebase>25</timebase>
              </rate>
              <duration>2</duration>
              <width>1920</width>
              <height>1080</height>
              <media>
                <video>
                  <duration>2</duration>
                  <stillframe>TRUE</stillframe>
                  <samplecharacteristics>
                    <rate>
                      <ntsc>FALSE</ntsc>
                      <timebase>25</timebase>
                    </rate>
                    <width>1920</width>
                    <height>1080</height>
                    <pixelaspectratio>Square</pixelaspectratio>
                    <anamorphic>FALSE</anamorphic>
                  </samplecharacteristics>
                </video>
              </media>
            </file>
            <sourcetrack>
              <mediatype>video</mediatype>
            </sourcetrack>
            <fielddominance>none</fielddominance>
          </clipitem>
          <clipitem id="D.png660">
            <name>D.png</name>
            <duration>0.94</duration>
            <rate>
              <ntsc>FALSE</ntsc>
              <timebase>25</timebase>
            </rate>
            <in>92235.31</in>
            <out>92236.25</out>
            <start>2235.31</start>
            <end>2236.25</end>
            <pixelaspectratio>Square</pixelaspectratio>
            <stillframe>TRUE</stillframe>
            <anamorphic>FALSE</anamorphic>
            <alphatype>straight</alphatype>
            <masterclipid>D.png660</masterclipid>
            <file id="D">
              <name>D.png</name>
              <pathurl>D:/Codes/SynthLip/SynthLipN/bin/Release/net6.0-windows8.0/publish/Skin/template/D.png</pathurl>
              <rate>
                <ntsc>FALSE</ntsc>
                <timebase>25</timebase>
              </rate>
              <duration>2</duration>
              <width>1920</width>
              <height>1080</height>
              <media>
                <video>
                  <duration>2</duration>
                  <stillframe>TRUE</stillframe>
                  <samplecharacteristics>
                    <rate>
                      <ntsc>FALSE</ntsc>
                      <timebase>25</timebase>
                    </rate>
                    <width>1920</width>
                    <height>1080</height>
                    <pixelaspectratio>Square</pixelaspectratio>
                    <anamorphic>FALSE</anamorphic>
                  </samplecharacteristics>
                </video>
              </media>
            </file>
            <sourcetrack>
              <mediatype>video</mediatype>
            </sourcetrack>
            <fielddominance>none</fielddominance>
          </clipitem>
          <clipitem id="B.png659">
            <name>B.png</name>
            <duration>0.31</duration>
            <rate>
              <ntsc>FALSE</ntsc>
              <timebase>25</timebase>
            </rate>
            <in>92235</in>
            <out>92235.31</out>
            <start>2235</start>
            <end>2235.31</end>
            <pixelaspectratio>Square</pixelaspectratio>
            <stillframe>TRUE</stillframe>
            <anamorphic>FALSE</anamorphic>
            <alphatype>straight</alphatype>
            <masterclipid>B.png659</masterclipid>
            <file id="B">
              <name>B.png</name>
              <pathurl>D:/Codes/SynthLip/SynthLipN/bin/Release/net6.0-windows8.0/publish/Skin/template/B.png</pathurl>
              <rate>
                <ntsc>FALSE</ntsc>
                <timebase>25</timebase>
              </rate>
              <duration>2</duration>
              <width>1920</width>
              <height>1080</height>
              <media>
                <video>
                  <duration>2</duration>
                  <stillframe>TRUE</stillframe>
                  <samplecharacteristics>
                    <rate>
                      <ntsc>FALSE</ntsc>
                      <timebase>25</timebase>
                    </rate>
                    <width>1920</width>
                    <height>1080</height>
                    <pixelaspectratio>Square</pixelaspectratio>
                    <anamorphic>FALSE</anamorphic>
                  </samplecharacteristics>
                </video>
              </media>
            </file>
            <sourcetrack>
              <mediatype>video</mediatype>
            </sourcetrack>
            <fielddominance>none</fielddominance>
          </clipitem>
          <clipitem id="C.png658">
            <name>C.png</name>
            <duration>6.09</duration>
            <rate>
              <ntsc>FALSE</ntsc>
              <timebase>25</timebase>
            </rate>
            <in>92228.91</in>
            <out>92235</out>
            <start>2228.91</start>
            <end>2235</end>
            <pixelaspectratio>Square</pixelaspectratio>
            <stillframe>TRUE</stillframe>
            <anamorphic>FALSE</anamorphic>
            <alphatype>straight</alphatype>
            <masterclipid>C.png658</masterclipid>
            <file id="C">
              <name>C.png</name>
              <pathurl>D:/Codes/SynthLip/SynthLipN/bin/Release/net6.0-windows8.0/publish/Skin/template/C.png</pathurl>
              <rate>
                <ntsc>FALSE</ntsc>
                <timebase>25</timebase>
              </rate>
              <duration>2</duration>
              <width>1920</width>
              <height>1080</height>
              <media>
                <video>
                  <duration>2</duration>
                  <stillframe>TRUE</stillframe>
                  <samplecharacteristics>
                    <rate>
                      <ntsc>FALSE</ntsc>
                      <timebase>25</timebase>
                    </rate>
                    <width>1920</width>
                    <height>1080</height>
                    <pixelaspectratio>Square</pixelaspectratio>
                    <anamorphic>FALSE</anamorphic>
                  </samplecharacteristics>
                </video>
              </media>
            </file>
            <sourcetrack>
              <mediatype>video</mediatype>
            </sourcetrack>
            <fielddominance>none</fielddominance>
          </clipitem>
          <clipitem id="C.png657">
            <name>C.png</name>
            <duration>0.47</duration>
            <rate>
              <ntsc>FALSE</ntsc>
              <timebase>25</timebase>
            </rate>
            <in>92228.44</in>
            <out>92228.91</out>
            <start>2228.44</start>
            <end>2228.91</end>
            <pixelaspectratio>Square</pixelaspectratio>
            <stillframe>TRUE</stillframe>
            <anamorphic>FALSE</anamorphic>
            <alphatype>straight</alphatype>
            <masterclipid>C.png657</masterclipid>
            <file id="C">
              <name>C.png</name>
              <pathurl>D:/Codes/SynthLip/SynthLipN/bin/Release/net6.0-windows8.0/publish/Skin/template/C.png</pathurl>
              <rate>
                <ntsc>FALSE</ntsc>
                <timebase>25</timebase>
              </rate>
              <duration>2</duration>
              <width>1920</width>
              <height>1080</height>
              <media>
                <video>
                  <duration>2</duration>
                  <stillframe>TRUE</stillframe>
                  <samplecharacteristics>
                    <rate>
                      <ntsc>FALSE</ntsc>
                      <timebase>25</timebase>
                    </rate>
                    <width>1920</width>
                    <height>1080</height>
                    <pixelaspectratio>Square</pixelaspectratio>
                    <anamorphic>FALSE</anamorphic>
                  </samplecharacteristics>
                </video>
              </media>
            </file>
            <sourcetrack>
              <mediatype>video</mediatype>
            </sourcetrack>
            <fielddominance>none</fielddominance>
          </clipitem>
          <clipitem id="C.png656">
            <name>C.png</name>
            <duration>0.94</duration>
            <rate>
              <ntsc>FALSE</ntsc>
              <timebase>25</timebase>
            </rate>
            <in>92227.5</in>
            <out>92228.44</out>
            <start>2227.5</start>
            <end>2228.44</end>
            <pixelaspectratio>Square</pixelaspectratio>
            <stillframe>TRUE</stillframe>
            <anamorphic>FALSE</anamorphic>
            <alphatype>straight</alphatype>
            <masterclipid>C.png656</masterclipid>
            <file id="C">
              <name>C.png</name>
              <pathurl>D:/Codes/SynthLip/SynthLipN/bin/Release/net6.0-windows8.0/publish/Skin/template/C.png</pathurl>
              <rate>
                <ntsc>FALSE</ntsc>
                <timebase>25</timebase>
              </rate>
              <duration>2</duration>
              <width>1920</width>
              <height>1080</height>
              <media>
                <video>
                  <duration>2</duration>
                  <stillframe>TRUE</stillframe>
                  <samplecharacteristics>
                    <rate>
                      <ntsc>FALSE</ntsc>
                      <timebase>25</timebase>
                    </rate>
                    <width>1920</width>
                    <height>1080</height>
                    <pixelaspectratio>Square</pixelaspectratio>
                    <anamorphic>FALSE</anamorphic>
                  </samplecharacteristics>
                </video>
              </media>
            </file>
            <sourcetrack>
              <mediatype>video</mediatype>
            </sourcetrack>
            <fielddominance>none</fielddominance>
          </clipitem>
          <clipitem id="A.png655">
            <name>A.png</name>
            <duration>7.5</duration>
            <rate>
              <ntsc>FALSE</ntsc>
              <timebase>25</timebase>
            </rate>
            <in>92220</in>
            <out>92227.5</out>
            <start>2220</start>
            <end>2227.5</end>
            <pixelaspectratio>Square</pixelaspectratio>
            <stillframe>TRUE</stillframe>
            <anamorphic>FALSE</anamorphic>
            <alphatype>straight</alphatype>
            <masterclipid>A.png655</masterclipid>
            <file id="A">
              <name>A.png</name>
              <pathurl>D:/Codes/SynthLip/SynthLipN/bin/Release/net6.0-windows8.0/publish/Skin/template/A.png</pathurl>
              <rate>
                <ntsc>FALSE</ntsc>
                <timebase>25</timebase>
              </rate>
              <duration>2</duration>
              <width>1920</width>
              <height>1080</height>
              <media>
                <video>
                  <duration>2</duration>
                  <stillframe>TRUE</stillframe>
                  <samplecharacteristics>
                    <rate>
                      <ntsc>FALSE</ntsc>
                      <timebase>25</timebase>
                    </rate>
                    <width>1920</width>
                    <height>1080</height>
                    <pixelaspectratio>Square</pixelaspectratio>
                    <anamorphic>FALSE</anamorphic>
                  </samplecharacteristics>
                </video>
              </media>
            </file>
            <sourcetrack>
              <mediatype>video</mediatype>
            </sourcetrack>
            <fielddominance>none</fielddominance>
          </clipitem>
          <clipitem id="F.png654">
            <name>F.png</name>
            <duration>30</duration>
            <rate>
              <ntsc>FALSE</ntsc>
              <timebase>25</timebase>
            </rate>
            <in>92190</in>
            <out>92220</out>
            <start>2190</start>
            <end>2220</end>
            <pixelaspectratio>Square</pixelaspectratio>
            <stillframe>TRUE</stillframe>
            <anamorphic>FALSE</anamorphic>
            <alphatype>straight</alphatype>
            <masterclipid>F.png654</masterclipid>
            <file id="F">
              <name>F.png</name>
              <pathurl>D:/Codes/SynthLip/SynthLipN/bin/Release/net6.0-windows8.0/publish/Skin/template/F.png</pathurl>
              <rate>
                <ntsc>FALSE</ntsc>
                <timebase>25</timebase>
              </rate>
              <duration>2</duration>
              <width>1920</width>
              <height>1080</height>
              <media>
                <video>
                  <duration>2</duration>
                  <stillframe>TRUE</stillframe>
                  <samplecharacteristics>
                    <rate>
                      <ntsc>FALSE</ntsc>
                      <timebase>25</timebase>
                    </rate>
                    <width>1920</width>
                    <height>1080</height>
                    <pixelaspectratio>Square</pixelaspectratio>
                    <anamorphic>FALSE</anamorphic>
                  </samplecharacteristics>
                </video>
              </media>
            </file>
            <sourcetrack>
              <mediatype>video</mediatype>
            </sourcetrack>
            <fielddominance>none</fielddominance>
          </clipitem>
          <clipitem id="F.png653">
            <name>F.png</name>
            <duration>30</duration>
            <rate>
              <ntsc>FALSE</ntsc>
              <timebase>25</timebase>
            </rate>
            <in>92160</in>
            <out>92190</out>
            <start>2160</start>
            <end>2190</end>
            <pixelaspectratio>Square</pixelaspectratio>
            <stillframe>TRUE</stillframe>
            <anamorphic>FALSE</anamorphic>
            <alphatype>straight</alphatype>
            <masterclipid>F.png653</masterclipid>
            <file id="F">
              <name>F.png</name>
              <pathurl>D:/Codes/SynthLip/SynthLipN/bin/Release/net6.0-windows8.0/publish/Skin/template/F.png</pathurl>
              <rate>
                <ntsc>FALSE</ntsc>
                <timebase>25</timebase>
              </rate>
              <duration>2</duration>
              <width>1920</width>
              <height>1080</height>
              <media>
                <video>
                  <duration>2</duration>
                  <stillframe>TRUE</stillframe>
                  <samplecharacteristics>
                    <rate>
                      <ntsc>FALSE</ntsc>
                      <timebase>25</timebase>
                    </rate>
                    <width>1920</width>
                    <height>1080</height>
                    <pixelaspectratio>Square</pixelaspectratio>
                    <anamorphic>FALSE</anamorphic>
                  </samplecharacteristics>
                </video>
              </media>
            </file>
            <sourcetrack>
              <mediatype>video</mediatype>
            </sourcetrack>
            <fielddominance>none</fielddominance>
          </clipitem>
          <clipitem id="F.png652">
            <name>F.png</name>
            <duration>28.13</duration>
            <rate>
              <ntsc>FALSE</ntsc>
              <timebase>25</timebase>
            </rate>
            <in>92131.88</in>
            <out>92160.016</out>
            <start>2131.88</start>
            <end>2160.0098</end>
            <pixelaspectratio>Square</pixelaspectratio>
            <stillframe>TRUE</stillframe>
            <anamorphic>FALSE</anamorphic>
            <alphatype>straight</alphatype>
            <masterclipid>F.png652</masterclipid>
            <file id="F">
              <name>F.png</name>
              <pathurl>D:/Codes/SynthLip/SynthLipN/bin/Release/net6.0-windows8.0/publish/Skin/template/F.png</pathurl>
              <rate>
                <ntsc>FALSE</ntsc>
                <timebase>25</timebase>
              </rate>
              <duration>2</duration>
              <width>1920</width>
              <height>1080</height>
              <media>
                <video>
                  <duration>2</duration>
                  <stillframe>TRUE</stillframe>
                  <samplecharacteristics>
                    <rate>
                      <ntsc>FALSE</ntsc>
                      <timebase>25</timebase>
                    </rate>
                    <width>1920</width>
                    <height>1080</height>
                    <pixelaspectratio>Square</pixelaspectratio>
                    <anamorphic>FALSE</anamorphic>
                  </samplecharacteristics>
                </video>
              </media>
            </file>
            <sourcetrack>
              <mediatype>video</mediatype>
            </sourcetrack>
            <fielddominance>none</fielddominance>
          </clipitem>
          <clipitem id="F.png651">
            <name>F.png</name>
            <duration>2.03</duration>
            <rate>
              <ntsc>FALSE</ntsc>
              <timebase>25</timebase>
            </rate>
            <in>92129.84</in>
            <out>92131.875</out>
            <start>2129.84</start>
            <end>2131.87</end>
            <pixelaspectratio>Square</pixelaspectratio>
            <stillframe>TRUE</stillframe>
            <anamorphic>FALSE</anamorphic>
            <alphatype>straight</alphatype>
            <masterclipid>F.png651</masterclipid>
            <file id="F">
              <name>F.png</name>
              <pathurl>D:/Codes/SynthLip/SynthLipN/bin/Release/net6.0-windows8.0/publish/Skin/template/F.png</pathurl>
              <rate>
                <ntsc>FALSE</ntsc>
                <timebase>25</timebase>
              </rate>
              <duration>2</duration>
              <width>1920</width>
              <height>1080</height>
              <media>
                <video>
                  <duration>2</duration>
                  <stillframe>TRUE</stillframe>
                  <samplecharacteristics>
                    <rate>
                      <ntsc>FALSE</ntsc>
                      <timebase>25</timebase>
                    </rate>
                    <width>1920</width>
                    <height>1080</height>
                    <pixelaspectratio>Square</pixelaspectratio>
                    <anamorphic>FALSE</anamorphic>
                  </samplecharacteristics>
                </video>
              </media>
            </file>
            <sourcetrack>
              <mediatype>video</mediatype>
            </sourcetrack>
            <fielddominance>none</fielddominance>
          </clipitem>
          <clipitem id="B.png650">
            <name>B.png</name>
            <duration>1.09</duration>
            <rate>
              <ntsc>FALSE</ntsc>
              <timebase>25</timebase>
            </rate>
            <in>92128.75</in>
            <out>92129.84</out>
            <start>2128.75</start>
            <end>2129.84</end>
            <pixelaspectratio>Square</pixelaspectratio>
            <stillframe>TRUE</stillframe>
            <anamorphic>FALSE</anamorphic>
            <alphatype>straight</alphatype>
            <masterclipid>B.png650</masterclipid>
            <file id="B">
              <name>B.png</name>
              <pathurl>D:/Codes/SynthLip/SynthLipN/bin/Release/net6.0-windows8.0/publish/Skin/template/B.png</pathurl>
              <rate>
                <ntsc>FALSE</ntsc>
                <timebase>25</timebase>
              </rate>
              <duration>2</duration>
              <width>1920</width>
              <height>1080</height>
              <media>
                <video>
                  <duration>2</duration>
                  <stillframe>TRUE</stillframe>
                  <samplecharacteristics>
                    <rate>
                      <ntsc>FALSE</ntsc>
                      <timebase>25</timebase>
                    </rate>
                    <width>1920</width>
                    <height>1080</height>
                    <pixelaspectratio>Square</pixelaspectratio>
                    <anamorphic>FALSE</anamorphic>
                  </samplecharacteristics>
                </video>
              </media>
            </file>
            <sourcetrack>
              <mediatype>video</mediatype>
            </sourcetrack>
            <fielddominance>none</fielddominance>
          </clipitem>
          <clipitem id="B.png649">
            <name>B.png</name>
            <duration>1.25</duration>
            <rate>
              <ntsc>FALSE</ntsc>
              <timebase>25</timebase>
            </rate>
            <in>92127.5</in>
            <out>92128.75</out>
            <start>2127.5</start>
            <end>2128.75</end>
            <pixelaspectratio>Square</pixelaspectratio>
            <stillframe>TRUE</stillframe>
            <anamorphic>FALSE</anamorphic>
            <alphatype>straight</alphatype>
            <masterclipid>B.png649</masterclipid>
            <file id="B">
              <name>B.png</name>
              <pathurl>D:/Codes/SynthLip/SynthLipN/bin/Release/net6.0-windows8.0/publish/Skin/template/B.png</pathurl>
              <rate>
                <ntsc>FALSE</ntsc>
                <timebase>25</timebase>
              </rate>
              <duration>2</duration>
              <width>1920</width>
              <height>1080</height>
              <media>
                <video>
                  <duration>2</duration>
                  <stillframe>TRUE</stillframe>
                  <samplecharacteristics>
                    <rate>
                      <ntsc>FALSE</ntsc>
                      <timebase>25</timebase>
                    </rate>
                    <width>1920</width>
                    <height>1080</height>
                    <pixelaspectratio>Square</pixelaspectratio>
                    <anamorphic>FALSE</anamorphic>
                  </samplecharacteristics>
                </video>
              </media>
            </file>
            <sourcetrack>
              <mediatype>video</mediatype>
            </sourcetrack>
            <fielddominance>none</fielddominance>
          </clipitem>
          <clipitem id="C.png648">
            <name>C.png</name>
            <duration>3.75</duration>
            <rate>
              <ntsc>FALSE</ntsc>
              <timebase>25</timebase>
            </rate>
            <in>92123.75</in>
            <out>92127.5</out>
            <start>2123.75</start>
            <end>2127.5</end>
            <pixelaspectratio>Square</pixelaspectratio>
            <stillframe>TRUE</stillframe>
            <anamorphic>FALSE</anamorphic>
            <alphatype>straight</alphatype>
            <masterclipid>C.png648</masterclipid>
            <file id="C">
              <name>C.png</name>
              <pathurl>D:/Codes/SynthLip/SynthLipN/bin/Release/net6.0-windows8.0/publish/Skin/template/C.png</pathurl>
              <rate>
                <ntsc>FALSE</ntsc>
                <timebase>25</timebase>
              </rate>
              <duration>2</duration>
              <width>1920</width>
              <height>1080</height>
              <media>
                <video>
                  <duration>2</duration>
                  <stillframe>TRUE</stillframe>
                  <samplecharacteristics>
                    <rate>
                      <ntsc>FALSE</ntsc>
                      <timebase>25</timebase>
                    </rate>
                    <width>1920</width>
                    <height>1080</height>
                    <pixelaspectratio>Square</pixelaspectratio>
                    <anamorphic>FALSE</anamorphic>
                  </samplecharacteristics>
                </video>
              </media>
            </file>
            <sourcetrack>
              <mediatype>video</mediatype>
            </sourcetrack>
            <fielddominance>none</fielddominance>
          </clipitem>
          <clipitem id="G.png647">
            <name>G.png</name>
            <duration>1.25</duration>
            <rate>
              <ntsc>FALSE</ntsc>
              <timebase>25</timebase>
            </rate>
            <in>92122.5</in>
            <out>92123.75</out>
            <start>2122.5</start>
            <end>2123.75</end>
            <pixelaspectratio>Square</pixelaspectratio>
            <stillframe>TRUE</stillframe>
            <anamorphic>FALSE</anamorphic>
            <alphatype>straight</alphatype>
            <masterclipid>G.png647</masterclipid>
            <file id="G">
              <name>G.png</name>
              <pathurl>D:/Codes/SynthLip/SynthLipN/bin/Release/net6.0-windows8.0/publish/Skin/template/G.png</pathurl>
              <rate>
                <ntsc>FALSE</ntsc>
                <timebase>25</timebase>
              </rate>
              <duration>2</duration>
              <width>1920</width>
              <height>1080</height>
              <media>
                <video>
                  <duration>2</duration>
                  <stillframe>TRUE</stillframe>
                  <samplecharacteristics>
                    <rate>
                      <ntsc>FALSE</ntsc>
                      <timebase>25</timebase>
                    </rate>
                    <width>1920</width>
                    <height>1080</height>
                    <pixelaspectratio>Square</pixelaspectratio>
                    <anamorphic>FALSE</anamorphic>
                  </samplecharacteristics>
                </video>
              </media>
            </file>
            <sourcetrack>
              <mediatype>video</mediatype>
            </sourcetrack>
            <fielddominance>none</fielddominance>
          </clipitem>
          <clipitem id="A.png646">
            <name>A.png</name>
            <duration>5.94</duration>
            <rate>
              <ntsc>FALSE</ntsc>
              <timebase>25</timebase>
            </rate>
            <in>92116.56</in>
            <out>92122.5</out>
            <start>2116.56</start>
            <end>2122.5</end>
            <pixelaspectratio>Square</pixelaspectratio>
            <stillframe>TRUE</stillframe>
            <anamorphic>FALSE</anamorphic>
            <alphatype>straight</alphatype>
            <masterclipid>A.png646</masterclipid>
            <file id="A">
              <name>A.png</name>
              <pathurl>D:/Codes/SynthLip/SynthLipN/bin/Release/net6.0-windows8.0/publish/Skin/template/A.png</pathurl>
              <rate>
                <ntsc>FALSE</ntsc>
                <timebase>25</timebase>
              </rate>
              <duration>2</duration>
              <width>1920</width>
              <height>1080</height>
              <media>
                <video>
                  <duration>2</duration>
                  <stillframe>TRUE</stillframe>
                  <samplecharacteristics>
                    <rate>
                      <ntsc>FALSE</ntsc>
                      <timebase>25</timebase>
                    </rate>
                    <width>1920</width>
                    <height>1080</height>
                    <pixelaspectratio>Square</pixelaspectratio>
                    <anamorphic>FALSE</anamorphic>
                  </samplecharacteristics>
                </video>
              </media>
            </file>
            <sourcetrack>
              <mediatype>video</mediatype>
            </sourcetrack>
            <fielddominance>none</fielddominance>
          </clipitem>
          <clipitem id="A.png645">
            <name>A.png</name>
            <duration>0.31</duration>
            <rate>
              <ntsc>FALSE</ntsc>
              <timebase>25</timebase>
            </rate>
            <in>92116.25</in>
            <out>92116.56</out>
            <start>2116.25</start>
            <end>2116.56</end>
            <pixelaspectratio>Square</pixelaspectratio>
            <stillframe>TRUE</stillframe>
            <anamorphic>FALSE</anamorphic>
            <alphatype>straight</alphatype>
            <masterclipid>A.png645</masterclipid>
            <file id="A">
              <name>A.png</name>
              <pathurl>D:/Codes/SynthLip/SynthLipN/bin/Release/net6.0-windows8.0/publish/Skin/template/A.png</pathurl>
              <rate>
                <ntsc>FALSE</ntsc>
                <timebase>25</timebase>
              </rate>
              <duration>2</duration>
              <width>1920</width>
              <height>1080</height>
              <media>
                <video>
                  <duration>2</duration>
                  <stillframe>TRUE</stillframe>
                  <samplecharacteristics>
                    <rate>
                      <ntsc>FALSE</ntsc>
                      <timebase>25</timebase>
                    </rate>
                    <width>1920</width>
                    <height>1080</height>
                    <pixelaspectratio>Square</pixelaspectratio>
                    <anamorphic>FALSE</anamorphic>
                  </samplecharacteristics>
                </video>
              </media>
            </file>
            <sourcetrack>
              <mediatype>video</mediatype>
            </sourcetrack>
            <fielddominance>none</fielddominance>
          </clipitem>
          <clipitem id="D.png644">
            <name>D.png</name>
            <duration>1.88</duration>
            <rate>
              <ntsc>FALSE</ntsc>
              <timebase>25</timebase>
            </rate>
            <in>92114.38</in>
            <out>92116.266</out>
            <start>2114.38</start>
            <end>2116.2598</end>
            <pixelaspectratio>Square</pixelaspectratio>
            <stillframe>TRUE</stillframe>
            <anamorphic>FALSE</anamorphic>
            <alphatype>straight</alphatype>
            <masterclipid>D.png644</masterclipid>
            <file id="D">
              <name>D.png</name>
              <pathurl>D:/Codes/SynthLip/SynthLipN/bin/Release/net6.0-windows8.0/publish/Skin/template/D.png</pathurl>
              <rate>
                <ntsc>FALSE</ntsc>
                <timebase>25</timebase>
              </rate>
              <duration>2</duration>
              <width>1920</width>
              <height>1080</height>
              <media>
                <video>
                  <duration>2</duration>
                  <stillframe>TRUE</stillframe>
                  <samplecharacteristics>
                    <rate>
                      <ntsc>FALSE</ntsc>
                      <timebase>25</timebase>
                    </rate>
                    <width>1920</width>
                    <height>1080</height>
                    <pixelaspectratio>Square</pixelaspectratio>
                    <anamorphic>FALSE</anamorphic>
                  </samplecharacteristics>
                </video>
              </media>
            </file>
            <sourcetrack>
              <mediatype>video</mediatype>
            </sourcetrack>
            <fielddominance>none</fielddominance>
          </clipitem>
          <clipitem id="B.png643">
            <name>B.png</name>
            <duration>1.25</duration>
            <rate>
              <ntsc>FALSE</ntsc>
              <timebase>25</timebase>
            </rate>
            <in>92113.13</in>
            <out>92114.38</out>
            <start>2113.13</start>
            <end>2114.38</end>
            <pixelaspectratio>Square</pixelaspectratio>
            <stillframe>TRUE</stillframe>
            <anamorphic>FALSE</anamorphic>
            <alphatype>straight</alphatype>
            <masterclipid>B.png643</masterclipid>
            <file id="B">
              <name>B.png</name>
              <pathurl>D:/Codes/SynthLip/SynthLipN/bin/Release/net6.0-windows8.0/publish/Skin/template/B.png</pathurl>
              <rate>
                <ntsc>FALSE</ntsc>
                <timebase>25</timebase>
              </rate>
              <duration>2</duration>
              <width>1920</width>
              <height>1080</height>
              <media>
                <video>
                  <duration>2</duration>
                  <stillframe>TRUE</stillframe>
                  <samplecharacteristics>
                    <rate>
                      <ntsc>FALSE</ntsc>
                      <timebase>25</timebase>
                    </rate>
                    <width>1920</width>
                    <height>1080</height>
                    <pixelaspectratio>Square</pixelaspectratio>
                    <anamorphic>FALSE</anamorphic>
                  </samplecharacteristics>
                </video>
              </media>
            </file>
            <sourcetrack>
              <mediatype>video</mediatype>
            </sourcetrack>
            <fielddominance>none</fielddominance>
          </clipitem>
          <clipitem id="C.png642">
            <name>C.png</name>
            <duration>1.87</duration>
            <rate>
              <ntsc>FALSE</ntsc>
              <timebase>25</timebase>
            </rate>
            <in>92111.25</in>
            <out>92113.12</out>
            <start>2111.25</start>
            <end>2113.12</end>
            <pixelaspectratio>Square</pixelaspectratio>
            <stillframe>TRUE</stillframe>
            <anamorphic>FALSE</anamorphic>
            <alphatype>straight</alphatype>
            <masterclipid>C.png642</masterclipid>
            <file id="C">
              <name>C.png</name>
              <pathurl>D:/Codes/SynthLip/SynthLipN/bin/Release/net6.0-windows8.0/publish/Skin/template/C.png</pathurl>
              <rate>
                <ntsc>FALSE</ntsc>
                <timebase>25</timebase>
              </rate>
              <duration>2</duration>
              <width>1920</width>
              <height>1080</height>
              <media>
                <video>
                  <duration>2</duration>
                  <stillframe>TRUE</stillframe>
                  <samplecharacteristics>
                    <rate>
                      <ntsc>FALSE</ntsc>
                      <timebase>25</timebase>
                    </rate>
                    <width>1920</width>
                    <height>1080</height>
                    <pixelaspectratio>Square</pixelaspectratio>
                    <anamorphic>FALSE</anamorphic>
                  </samplecharacteristics>
                </video>
              </media>
            </file>
            <sourcetrack>
              <mediatype>video</mediatype>
            </sourcetrack>
            <fielddominance>none</fielddominance>
          </clipitem>
          <clipitem id="C.png641">
            <name>C.png</name>
            <duration>3.75</duration>
            <rate>
              <ntsc>FALSE</ntsc>
              <timebase>25</timebase>
            </rate>
            <in>92107.5</in>
            <out>92111.25</out>
            <start>2107.5</start>
            <end>2111.25</end>
            <pixelaspectratio>Square</pixelaspectratio>
            <stillframe>TRUE</stillframe>
            <anamorphic>FALSE</anamorphic>
            <alphatype>straight</alphatype>
            <masterclipid>C.png641</masterclipid>
            <file id="C">
              <name>C.png</name>
              <pathurl>D:/Codes/SynthLip/SynthLipN/bin/Release/net6.0-windows8.0/publish/Skin/template/C.png</pathurl>
              <rate>
                <ntsc>FALSE</ntsc>
                <timebase>25</timebase>
              </rate>
              <duration>2</duration>
              <width>1920</width>
              <height>1080</height>
              <media>
                <video>
                  <duration>2</duration>
                  <stillframe>TRUE</stillframe>
                  <samplecharacteristics>
                    <rate>
                      <ntsc>FALSE</ntsc>
                      <timebase>25</timebase>
                    </rate>
                    <width>1920</width>
                    <height>1080</height>
                    <pixelaspectratio>Square</pixelaspectratio>
                    <anamorphic>FALSE</anamorphic>
                  </samplecharacteristics>
                </video>
              </media>
            </file>
            <sourcetrack>
              <mediatype>video</mediatype>
            </sourcetrack>
            <fielddominance>none</fielddominance>
          </clipitem>
          <clipitem id="A.png640">
            <name>A.png</name>
            <duration>7.5</duration>
            <rate>
              <ntsc>FALSE</ntsc>
              <timebase>25</timebase>
            </rate>
            <in>92100</in>
            <out>92107.5</out>
            <start>2100</start>
            <end>2107.5</end>
            <pixelaspectratio>Square</pixelaspectratio>
            <stillframe>TRUE</stillframe>
            <anamorphic>FALSE</anamorphic>
            <alphatype>straight</alphatype>
            <masterclipid>A.png640</masterclipid>
            <file id="A">
              <name>A.png</name>
              <pathurl>D:/Codes/SynthLip/SynthLipN/bin/Release/net6.0-windows8.0/publish/Skin/template/A.png</pathurl>
              <rate>
                <ntsc>FALSE</ntsc>
                <timebase>25</timebase>
              </rate>
              <duration>2</duration>
              <width>1920</width>
              <height>1080</height>
              <media>
                <video>
                  <duration>2</duration>
                  <stillframe>TRUE</stillframe>
                  <samplecharacteristics>
                    <rate>
                      <ntsc>FALSE</ntsc>
                      <timebase>25</timebase>
                    </rate>
                    <width>1920</width>
                    <height>1080</height>
                    <pixelaspectratio>Square</pixelaspectratio>
                    <anamorphic>FALSE</anamorphic>
                  </samplecharacteristics>
                </video>
              </media>
            </file>
            <sourcetrack>
              <mediatype>video</mediatype>
            </sourcetrack>
            <fielddominance>none</fielddominance>
          </clipitem>
          <clipitem id="F.png639">
            <name>F.png</name>
            <duration>30</duration>
            <rate>
              <ntsc>FALSE</ntsc>
              <timebase>25</timebase>
            </rate>
            <in>92070</in>
            <out>92100</out>
            <start>2070</start>
            <end>2100</end>
            <pixelaspectratio>Square</pixelaspectratio>
            <stillframe>TRUE</stillframe>
            <anamorphic>FALSE</anamorphic>
            <alphatype>straight</alphatype>
            <masterclipid>F.png639</masterclipid>
            <file id="F">
              <name>F.png</name>
              <pathurl>D:/Codes/SynthLip/SynthLipN/bin/Release/net6.0-windows8.0/publish/Skin/template/F.png</pathurl>
              <rate>
                <ntsc>FALSE</ntsc>
                <timebase>25</timebase>
              </rate>
              <duration>2</duration>
              <width>1920</width>
              <height>1080</height>
              <media>
                <video>
                  <duration>2</duration>
                  <stillframe>TRUE</stillframe>
                  <samplecharacteristics>
                    <rate>
                      <ntsc>FALSE</ntsc>
                      <timebase>25</timebase>
                    </rate>
                    <width>1920</width>
                    <height>1080</height>
                    <pixelaspectratio>Square</pixelaspectratio>
                    <anamorphic>FALSE</anamorphic>
                  </samplecharacteristics>
                </video>
              </media>
            </file>
            <sourcetrack>
              <mediatype>video</mediatype>
            </sourcetrack>
            <fielddominance>none</fielddominance>
          </clipitem>
          <clipitem id="F.png638">
            <name>F.png</name>
            <duration>3.75</duration>
            <rate>
              <ntsc>FALSE</ntsc>
              <timebase>25</timebase>
            </rate>
            <in>92066.25</in>
            <out>92070</out>
            <start>2066.25</start>
            <end>2070</end>
            <pixelaspectratio>Square</pixelaspectratio>
            <stillframe>TRUE</stillframe>
            <anamorphic>FALSE</anamorphic>
            <alphatype>straight</alphatype>
            <masterclipid>F.png638</masterclipid>
            <file id="F">
              <name>F.png</name>
              <pathurl>D:/Codes/SynthLip/SynthLipN/bin/Release/net6.0-windows8.0/publish/Skin/template/F.png</pathurl>
              <rate>
                <ntsc>FALSE</ntsc>
                <timebase>25</timebase>
              </rate>
              <duration>2</duration>
              <width>1920</width>
              <height>1080</height>
              <media>
                <video>
                  <duration>2</duration>
                  <stillframe>TRUE</stillframe>
                  <samplecharacteristics>
                    <rate>
                      <ntsc>FALSE</ntsc>
                      <timebase>25</timebase>
                    </rate>
                    <width>1920</width>
                    <height>1080</height>
                    <pixelaspectratio>Square</pixelaspectratio>
                    <anamorphic>FALSE</anamorphic>
                  </samplecharacteristics>
                </video>
              </media>
            </file>
            <sourcetrack>
              <mediatype>video</mediatype>
            </sourcetrack>
            <fielddominance>none</fielddominance>
          </clipitem>
          <clipitem id="F.png637">
            <name>F.png</name>
            <duration>3.75</duration>
            <rate>
              <ntsc>FALSE</ntsc>
              <timebase>25</timebase>
            </rate>
            <in>92062.5</in>
            <out>92066.25</out>
            <start>2062.5</start>
            <end>2066.25</end>
            <pixelaspectratio>Square</pixelaspectratio>
            <stillframe>TRUE</stillframe>
            <anamorphic>FALSE</anamorphic>
            <alphatype>straight</alphatype>
            <masterclipid>F.png637</masterclipid>
            <file id="F">
              <name>F.png</name>
              <pathurl>D:/Codes/SynthLip/SynthLipN/bin/Release/net6.0-windows8.0/publish/Skin/template/F.png</pathurl>
              <rate>
                <ntsc>FALSE</ntsc>
                <timebase>25</timebase>
              </rate>
              <duration>2</duration>
              <width>1920</width>
              <height>1080</height>
              <media>
                <video>
                  <duration>2</duration>
                  <stillframe>TRUE</stillframe>
                  <samplecharacteristics>
                    <rate>
                      <ntsc>FALSE</ntsc>
                      <timebase>25</timebase>
                    </rate>
                    <width>1920</width>
                    <height>1080</height>
                    <pixelaspectratio>Square</pixelaspectratio>
                    <anamorphic>FALSE</anamorphic>
                  </samplecharacteristics>
                </video>
              </media>
            </file>
            <sourcetrack>
              <mediatype>video</mediatype>
            </sourcetrack>
            <fielddominance>none</fielddominance>
          </clipitem>
          <clipitem id="F.png636">
            <name>F.png</name>
            <duration>22.5</duration>
            <rate>
              <ntsc>FALSE</ntsc>
              <timebase>25</timebase>
            </rate>
            <in>92040</in>
            <out>92062.5</out>
            <start>2040</start>
            <end>2062.5</end>
            <pixelaspectratio>Square</pixelaspectratio>
            <stillframe>TRUE</stillframe>
            <anamorphic>FALSE</anamorphic>
            <alphatype>straight</alphatype>
            <masterclipid>F.png636</masterclipid>
            <file id="F">
              <name>F.png</name>
              <pathurl>D:/Codes/SynthLip/SynthLipN/bin/Release/net6.0-windows8.0/publish/Skin/template/F.png</pathurl>
              <rate>
                <ntsc>FALSE</ntsc>
                <timebase>25</timebase>
              </rate>
              <duration>2</duration>
              <width>1920</width>
              <height>1080</height>
              <media>
                <video>
                  <duration>2</duration>
                  <stillframe>TRUE</stillframe>
                  <samplecharacteristics>
                    <rate>
                      <ntsc>FALSE</ntsc>
                      <timebase>25</timebase>
                    </rate>
                    <width>1920</width>
                    <height>1080</height>
                    <pixelaspectratio>Square</pixelaspectratio>
                    <anamorphic>FALSE</anamorphic>
                  </samplecharacteristics>
                </video>
              </media>
            </file>
            <sourcetrack>
              <mediatype>video</mediatype>
            </sourcetrack>
            <fielddominance>none</fielddominance>
          </clipitem>
          <clipitem id="F.png635">
            <name>F.png</name>
            <duration>28.13</duration>
            <rate>
              <ntsc>FALSE</ntsc>
              <timebase>25</timebase>
            </rate>
            <in>92011.88</in>
            <out>92040.016</out>
            <start>2011.88</start>
            <end>2040.01</end>
            <pixelaspectratio>Square</pixelaspectratio>
            <stillframe>TRUE</stillframe>
            <anamorphic>FALSE</anamorphic>
            <alphatype>straight</alphatype>
            <masterclipid>F.png635</masterclipid>
            <file id="F">
              <name>F.png</name>
              <pathurl>D:/Codes/SynthLip/SynthLipN/bin/Release/net6.0-windows8.0/publish/Skin/template/F.png</pathurl>
              <rate>
                <ntsc>FALSE</ntsc>
                <timebase>25</timebase>
              </rate>
              <duration>2</duration>
              <width>1920</width>
              <height>1080</height>
              <media>
                <video>
                  <duration>2</duration>
                  <stillframe>TRUE</stillframe>
                  <samplecharacteristics>
                    <rate>
                      <ntsc>FALSE</ntsc>
                      <timebase>25</timebase>
                    </rate>
                    <width>1920</width>
                    <height>1080</height>
                    <pixelaspectratio>Square</pixelaspectratio>
                    <anamorphic>FALSE</anamorphic>
                  </samplecharacteristics>
                </video>
              </media>
            </file>
            <sourcetrack>
              <mediatype>video</mediatype>
            </sourcetrack>
            <fielddominance>none</fielddominance>
          </clipitem>
          <clipitem id="F.png634">
            <name>F.png</name>
            <duration>2.03</duration>
            <rate>
              <ntsc>FALSE</ntsc>
              <timebase>25</timebase>
            </rate>
            <in>92009.84</in>
            <out>92011.875</out>
            <start>2009.84</start>
            <end>2011.87</end>
            <pixelaspectratio>Square</pixelaspectratio>
            <stillframe>TRUE</stillframe>
            <anamorphic>FALSE</anamorphic>
            <alphatype>straight</alphatype>
            <masterclipid>F.png634</masterclipid>
            <file id="F">
              <name>F.png</name>
              <pathurl>D:/Codes/SynthLip/SynthLipN/bin/Release/net6.0-windows8.0/publish/Skin/template/F.png</pathurl>
              <rate>
                <ntsc>FALSE</ntsc>
                <timebase>25</timebase>
              </rate>
              <duration>2</duration>
              <width>1920</width>
              <height>1080</height>
              <media>
                <video>
                  <duration>2</duration>
                  <stillframe>TRUE</stillframe>
                  <samplecharacteristics>
                    <rate>
                      <ntsc>FALSE</ntsc>
                      <timebase>25</timebase>
                    </rate>
                    <width>1920</width>
                    <height>1080</height>
                    <pixelaspectratio>Square</pixelaspectratio>
                    <anamorphic>FALSE</anamorphic>
                  </samplecharacteristics>
                </video>
              </media>
            </file>
            <sourcetrack>
              <mediatype>video</mediatype>
            </sourcetrack>
            <fielddominance>none</fielddominance>
          </clipitem>
          <clipitem id="B.png633">
            <name>B.png</name>
            <duration>1.09</duration>
            <rate>
              <ntsc>FALSE</ntsc>
              <timebase>25</timebase>
            </rate>
            <in>92008.75</in>
            <out>92009.84</out>
            <start>2008.75</start>
            <end>2009.84</end>
            <pixelaspectratio>Square</pixelaspectratio>
            <stillframe>TRUE</stillframe>
            <anamorphic>FALSE</anamorphic>
            <alphatype>straight</alphatype>
            <masterclipid>B.png633</masterclipid>
            <file id="B">
              <name>B.png</name>
              <pathurl>D:/Codes/SynthLip/SynthLipN/bin/Release/net6.0-windows8.0/publish/Skin/template/B.png</pathurl>
              <rate>
                <ntsc>FALSE</ntsc>
                <timebase>25</timebase>
              </rate>
              <duration>2</duration>
              <width>1920</width>
              <height>1080</height>
              <media>
                <video>
                  <duration>2</duration>
                  <stillframe>TRUE</stillframe>
                  <samplecharacteristics>
                    <rate>
                      <ntsc>FALSE</ntsc>
                      <timebase>25</timebase>
                    </rate>
                    <width>1920</width>
                    <height>1080</height>
                    <pixelaspectratio>Square</pixelaspectratio>
                    <anamorphic>FALSE</anamorphic>
                  </samplecharacteristics>
                </video>
              </media>
            </file>
            <sourcetrack>
              <mediatype>video</mediatype>
            </sourcetrack>
            <fielddominance>none</fielddominance>
          </clipitem>
          <clipitem id="B.png632">
            <name>B.png</name>
            <duration>1.25</duration>
            <rate>
              <ntsc>FALSE</ntsc>
              <timebase>25</timebase>
            </rate>
            <in>92007.5</in>
            <out>92008.75</out>
            <start>2007.5</start>
            <end>2008.75</end>
            <pixelaspectratio>Square</pixelaspectratio>
            <stillframe>TRUE</stillframe>
            <anamorphic>FALSE</anamorphic>
            <alphatype>straight</alphatype>
            <masterclipid>B.png632</masterclipid>
            <file id="B">
              <name>B.png</name>
              <pathurl>D:/Codes/SynthLip/SynthLipN/bin/Release/net6.0-windows8.0/publish/Skin/template/B.png</pathurl>
              <rate>
                <ntsc>FALSE</ntsc>
                <timebase>25</timebase>
              </rate>
              <duration>2</duration>
              <width>1920</width>
              <height>1080</height>
              <media>
                <video>
                  <duration>2</duration>
                  <stillframe>TRUE</stillframe>
                  <samplecharacteristics>
                    <rate>
                      <ntsc>FALSE</ntsc>
                      <timebase>25</timebase>
                    </rate>
                    <width>1920</width>
                    <height>1080</height>
                    <pixelaspectratio>Square</pixelaspectratio>
                    <anamorphic>FALSE</anamorphic>
                  </samplecharacteristics>
                </video>
              </media>
            </file>
            <sourcetrack>
              <mediatype>video</mediatype>
            </sourcetrack>
            <fielddominance>none</fielddominance>
          </clipitem>
          <clipitem id="C.png631">
            <name>C.png</name>
            <duration>3.75</duration>
            <rate>
              <ntsc>FALSE</ntsc>
              <timebase>25</timebase>
            </rate>
            <in>92003.75</in>
            <out>92007.5</out>
            <start>2003.75</start>
            <end>2007.5</end>
            <pixelaspectratio>Square</pixelaspectratio>
            <stillframe>TRUE</stillframe>
            <anamorphic>FALSE</anamorphic>
            <alphatype>straight</alphatype>
            <masterclipid>C.png631</masterclipid>
            <file id="C">
              <name>C.png</name>
              <pathurl>D:/Codes/SynthLip/SynthLipN/bin/Release/net6.0-windows8.0/publish/Skin/template/C.png</pathurl>
              <rate>
                <ntsc>FALSE</ntsc>
                <timebase>25</timebase>
              </rate>
              <duration>2</duration>
              <width>1920</width>
              <height>1080</height>
              <media>
                <video>
                  <duration>2</duration>
                  <stillframe>TRUE</stillframe>
                  <samplecharacteristics>
                    <rate>
                      <ntsc>FALSE</ntsc>
                      <timebase>25</timebase>
                    </rate>
                    <width>1920</width>
                    <height>1080</height>
                    <pixelaspectratio>Square</pixelaspectratio>
                    <anamorphic>FALSE</anamorphic>
                  </samplecharacteristics>
                </video>
              </media>
            </file>
            <sourcetrack>
              <mediatype>video</mediatype>
            </sourcetrack>
            <fielddominance>none</fielddominance>
          </clipitem>
          <clipitem id="G.png630">
            <name>G.png</name>
            <duration>1.25</duration>
            <rate>
              <ntsc>FALSE</ntsc>
              <timebase>25</timebase>
            </rate>
            <in>92002.5</in>
            <out>92003.75</out>
            <start>2002.5</start>
            <end>2003.75</end>
            <pixelaspectratio>Square</pixelaspectratio>
            <stillframe>TRUE</stillframe>
            <anamorphic>FALSE</anamorphic>
            <alphatype>straight</alphatype>
            <masterclipid>G.png630</masterclipid>
            <file id="G">
              <name>G.png</name>
              <pathurl>D:/Codes/SynthLip/SynthLipN/bin/Release/net6.0-windows8.0/publish/Skin/template/G.png</pathurl>
              <rate>
                <ntsc>FALSE</ntsc>
                <timebase>25</timebase>
              </rate>
              <duration>2</duration>
              <width>1920</width>
              <height>1080</height>
              <media>
                <video>
                  <duration>2</duration>
                  <stillframe>TRUE</stillframe>
                  <samplecharacteristics>
                    <rate>
                      <ntsc>FALSE</ntsc>
                      <timebase>25</timebase>
                    </rate>
                    <width>1920</width>
                    <height>1080</height>
                    <pixelaspectratio>Square</pixelaspectratio>
                    <anamorphic>FALSE</anamorphic>
                  </samplecharacteristics>
                </video>
              </media>
            </file>
            <sourcetrack>
              <mediatype>video</mediatype>
            </sourcetrack>
            <fielddominance>none</fielddominance>
          </clipitem>
          <clipitem id="A.png629">
            <name>A.png</name>
            <duration>5.94</duration>
            <rate>
              <ntsc>FALSE</ntsc>
              <timebase>25</timebase>
            </rate>
            <in>91996.56</in>
            <out>92002.5</out>
            <start>1996.56</start>
            <end>2002.5</end>
            <pixelaspectratio>Square</pixelaspectratio>
            <stillframe>TRUE</stillframe>
            <anamorphic>FALSE</anamorphic>
            <alphatype>straight</alphatype>
            <masterclipid>A.png629</masterclipid>
            <file id="A">
              <name>A.png</name>
              <pathurl>D:/Codes/SynthLip/SynthLipN/bin/Release/net6.0-windows8.0/publish/Skin/template/A.png</pathurl>
              <rate>
                <ntsc>FALSE</ntsc>
                <timebase>25</timebase>
              </rate>
              <duration>2</duration>
              <width>1920</width>
              <height>1080</height>
              <media>
                <video>
                  <duration>2</duration>
                  <stillframe>TRUE</stillframe>
                  <samplecharacteristics>
                    <rate>
                      <ntsc>FALSE</ntsc>
                      <timebase>25</timebase>
                    </rate>
                    <width>1920</width>
                    <height>1080</height>
                    <pixelaspectratio>Square</pixelaspectratio>
                    <anamorphic>FALSE</anamorphic>
                  </samplecharacteristics>
                </video>
              </media>
            </file>
            <sourcetrack>
              <mediatype>video</mediatype>
            </sourcetrack>
            <fielddominance>none</fielddominance>
          </clipitem>
          <clipitem id="A.png628">
            <name>A.png</name>
            <duration>0.31</duration>
            <rate>
              <ntsc>FALSE</ntsc>
              <timebase>25</timebase>
            </rate>
            <in>91996.25</in>
            <out>91996.56</out>
            <start>1996.25</start>
            <end>1996.56</end>
            <pixelaspectratio>Square</pixelaspectratio>
            <stillframe>TRUE</stillframe>
            <anamorphic>FALSE</anamorphic>
            <alphatype>straight</alphatype>
            <masterclipid>A.png628</masterclipid>
            <file id="A">
              <name>A.png</name>
              <pathurl>D:/Codes/SynthLip/SynthLipN/bin/Release/net6.0-windows8.0/publish/Skin/template/A.png</pathurl>
              <rate>
                <ntsc>FALSE</ntsc>
                <timebase>25</timebase>
              </rate>
              <duration>2</duration>
              <width>1920</width>
              <height>1080</height>
              <media>
                <video>
                  <duration>2</duration>
                  <stillframe>TRUE</stillframe>
                  <samplecharacteristics>
                    <rate>
                      <ntsc>FALSE</ntsc>
                      <timebase>25</timebase>
                    </rate>
                    <width>1920</width>
                    <height>1080</height>
                    <pixelaspectratio>Square</pixelaspectratio>
                    <anamorphic>FALSE</anamorphic>
                  </samplecharacteristics>
                </video>
              </media>
            </file>
            <sourcetrack>
              <mediatype>video</mediatype>
            </sourcetrack>
            <fielddominance>none</fielddominance>
          </clipitem>
          <clipitem id="D.png627">
            <name>D.png</name>
            <duration>1.87</duration>
            <rate>
              <ntsc>FALSE</ntsc>
              <timebase>25</timebase>
            </rate>
            <in>91994.38</in>
            <out>91996.25</out>
            <start>1994.38</start>
            <end>1996.25</end>
            <pixelaspectratio>Square</pixelaspectratio>
            <stillframe>TRUE</stillframe>
            <anamorphic>FALSE</anamorphic>
            <alphatype>straight</alphatype>
            <masterclipid>D.png627</masterclipid>
            <file id="D">
              <name>D.png</name>
              <pathurl>D:/Codes/SynthLip/SynthLipN/bin/Release/net6.0-windows8.0/publish/Skin/template/D.png</pathurl>
              <rate>
                <ntsc>FALSE</ntsc>
                <timebase>25</timebase>
              </rate>
              <duration>2</duration>
              <width>1920</width>
              <height>1080</height>
              <media>
                <video>
                  <duration>2</duration>
                  <stillframe>TRUE</stillframe>
                  <samplecharacteristics>
                    <rate>
                      <ntsc>FALSE</ntsc>
                      <timebase>25</timebase>
                    </rate>
                    <width>1920</width>
                    <height>1080</height>
                    <pixelaspectratio>Square</pixelaspectratio>
                    <anamorphic>FALSE</anamorphic>
                  </samplecharacteristics>
                </video>
              </media>
            </file>
            <sourcetrack>
              <mediatype>video</mediatype>
            </sourcetrack>
            <fielddominance>none</fielddominance>
          </clipitem>
          <clipitem id="B.png626">
            <name>B.png</name>
            <duration>1.25</duration>
            <rate>
              <ntsc>FALSE</ntsc>
              <timebase>25</timebase>
            </rate>
            <in>91993.13</in>
            <out>91994.38</out>
            <start>1993.13</start>
            <end>1994.38</end>
            <pixelaspectratio>Square</pixelaspectratio>
            <stillframe>TRUE</stillframe>
            <anamorphic>FALSE</anamorphic>
            <alphatype>straight</alphatype>
            <masterclipid>B.png626</masterclipid>
            <file id="B">
              <name>B.png</name>
              <pathurl>D:/Codes/SynthLip/SynthLipN/bin/Release/net6.0-windows8.0/publish/Skin/template/B.png</pathurl>
              <rate>
                <ntsc>FALSE</ntsc>
                <timebase>25</timebase>
              </rate>
              <duration>2</duration>
              <width>1920</width>
              <height>1080</height>
              <media>
                <video>
                  <duration>2</duration>
                  <stillframe>TRUE</stillframe>
                  <samplecharacteristics>
                    <rate>
                      <ntsc>FALSE</ntsc>
                      <timebase>25</timebase>
                    </rate>
                    <width>1920</width>
                    <height>1080</height>
                    <pixelaspectratio>Square</pixelaspectratio>
                    <anamorphic>FALSE</anamorphic>
                  </samplecharacteristics>
                </video>
              </media>
            </file>
            <sourcetrack>
              <mediatype>video</mediatype>
            </sourcetrack>
            <fielddominance>none</fielddominance>
          </clipitem>
          <clipitem id="C.png625">
            <name>C.png</name>
            <duration>1.88</duration>
            <rate>
              <ntsc>FALSE</ntsc>
              <timebase>25</timebase>
            </rate>
            <in>91991.25</in>
            <out>91993.13</out>
            <start>1991.25</start>
            <end>1993.13</end>
            <pixelaspectratio>Square</pixelaspectratio>
            <stillframe>TRUE</stillframe>
            <anamorphic>FALSE</anamorphic>
            <alphatype>straight</alphatype>
            <masterclipid>C.png625</masterclipid>
            <file id="C">
              <name>C.png</name>
              <pathurl>D:/Codes/SynthLip/SynthLipN/bin/Release/net6.0-windows8.0/publish/Skin/template/C.png</pathurl>
              <rate>
                <ntsc>FALSE</ntsc>
                <timebase>25</timebase>
              </rate>
              <duration>2</duration>
              <width>1920</width>
              <height>1080</height>
              <media>
                <video>
                  <duration>2</duration>
                  <stillframe>TRUE</stillframe>
                  <samplecharacteristics>
                    <rate>
                      <ntsc>FALSE</ntsc>
                      <timebase>25</timebase>
                    </rate>
                    <width>1920</width>
                    <height>1080</height>
                    <pixelaspectratio>Square</pixelaspectratio>
                    <anamorphic>FALSE</anamorphic>
                  </samplecharacteristics>
                </video>
              </media>
            </file>
            <sourcetrack>
              <mediatype>video</mediatype>
            </sourcetrack>
            <fielddominance>none</fielddominance>
          </clipitem>
          <clipitem id="C.png624">
            <name>C.png</name>
            <duration>5</duration>
            <rate>
              <ntsc>FALSE</ntsc>
              <timebase>25</timebase>
            </rate>
            <in>91986.25</in>
            <out>91991.25</out>
            <start>1986.25</start>
            <end>1991.25</end>
            <pixelaspectratio>Square</pixelaspectratio>
            <stillframe>TRUE</stillframe>
            <anamorphic>FALSE</anamorphic>
            <alphatype>straight</alphatype>
            <masterclipid>C.png624</masterclipid>
            <file id="C">
              <name>C.png</name>
              <pathurl>D:/Codes/SynthLip/SynthLipN/bin/Release/net6.0-windows8.0/publish/Skin/template/C.png</pathurl>
              <rate>
                <ntsc>FALSE</ntsc>
                <timebase>25</timebase>
              </rate>
              <duration>2</duration>
              <width>1920</width>
              <height>1080</height>
              <media>
                <video>
                  <duration>2</duration>
                  <stillframe>TRUE</stillframe>
                  <samplecharacteristics>
                    <rate>
                      <ntsc>FALSE</ntsc>
                      <timebase>25</timebase>
                    </rate>
                    <width>1920</width>
                    <height>1080</height>
                    <pixelaspectratio>Square</pixelaspectratio>
                    <anamorphic>FALSE</anamorphic>
                  </samplecharacteristics>
                </video>
              </media>
            </file>
            <sourcetrack>
              <mediatype>video</mediatype>
            </sourcetrack>
            <fielddominance>none</fielddominance>
          </clipitem>
          <clipitem id="B.png623">
            <name>B.png</name>
            <duration>1.25</duration>
            <rate>
              <ntsc>FALSE</ntsc>
              <timebase>25</timebase>
            </rate>
            <in>91985</in>
            <out>91986.25</out>
            <start>1985</start>
            <end>1986.25</end>
            <pixelaspectratio>Square</pixelaspectratio>
            <stillframe>TRUE</stillframe>
            <anamorphic>FALSE</anamorphic>
            <alphatype>straight</alphatype>
            <masterclipid>B.png623</masterclipid>
            <file id="B">
              <name>B.png</name>
              <pathurl>D:/Codes/SynthLip/SynthLipN/bin/Release/net6.0-windows8.0/publish/Skin/template/B.png</pathurl>
              <rate>
                <ntsc>FALSE</ntsc>
                <timebase>25</timebase>
              </rate>
              <duration>2</duration>
              <width>1920</width>
              <height>1080</height>
              <media>
                <video>
                  <duration>2</duration>
                  <stillframe>TRUE</stillframe>
                  <samplecharacteristics>
                    <rate>
                      <ntsc>FALSE</ntsc>
                      <timebase>25</timebase>
                    </rate>
                    <width>1920</width>
                    <height>1080</height>
                    <pixelaspectratio>Square</pixelaspectratio>
                    <anamorphic>FALSE</anamorphic>
                  </samplecharacteristics>
                </video>
              </media>
            </file>
            <sourcetrack>
              <mediatype>video</mediatype>
            </sourcetrack>
            <fielddominance>none</fielddominance>
          </clipitem>
          <clipitem id="C.png622">
            <name>C.png</name>
            <duration>4.38</duration>
            <rate>
              <ntsc>FALSE</ntsc>
              <timebase>25</timebase>
            </rate>
            <in>91980.62</in>
            <out>91985</out>
            <start>1980.62</start>
            <end>1985</end>
            <pixelaspectratio>Square</pixelaspectratio>
            <stillframe>TRUE</stillframe>
            <anamorphic>FALSE</anamorphic>
            <alphatype>straight</alphatype>
            <masterclipid>C.png622</masterclipid>
            <file id="C">
              <name>C.png</name>
              <pathurl>D:/Codes/SynthLip/SynthLipN/bin/Release/net6.0-windows8.0/publish/Skin/template/C.png</pathurl>
              <rate>
                <ntsc>FALSE</ntsc>
                <timebase>25</timebase>
              </rate>
              <duration>2</duration>
              <width>1920</width>
              <height>1080</height>
              <media>
                <video>
                  <duration>2</duration>
                  <stillframe>TRUE</stillframe>
                  <samplecharacteristics>
                    <rate>
                      <ntsc>FALSE</ntsc>
                      <timebase>25</timebase>
                    </rate>
                    <width>1920</width>
                    <height>1080</height>
                    <pixelaspectratio>Square</pixelaspectratio>
                    <anamorphic>FALSE</anamorphic>
                  </samplecharacteristics>
                </video>
              </media>
            </file>
            <sourcetrack>
              <mediatype>video</mediatype>
            </sourcetrack>
            <fielddominance>none</fielddominance>
          </clipitem>
          <clipitem id="B.png621">
            <name>B.png</name>
            <duration>1.88</duration>
            <rate>
              <ntsc>FALSE</ntsc>
              <timebase>25</timebase>
            </rate>
            <in>91978.75</in>
            <out>91980.63</out>
            <start>1978.75</start>
            <end>1980.63</end>
            <pixelaspectratio>Square</pixelaspectratio>
            <stillframe>TRUE</stillframe>
            <anamorphic>FALSE</anamorphic>
            <alphatype>straight</alphatype>
            <masterclipid>B.png621</masterclipid>
            <file id="B">
              <name>B.png</name>
              <pathurl>D:/Codes/SynthLip/SynthLipN/bin/Release/net6.0-windows8.0/publish/Skin/template/B.png</pathurl>
              <rate>
                <ntsc>FALSE</ntsc>
                <timebase>25</timebase>
              </rate>
              <duration>2</duration>
              <width>1920</width>
              <height>1080</height>
              <media>
                <video>
                  <duration>2</duration>
                  <stillframe>TRUE</stillframe>
                  <samplecharacteristics>
                    <rate>
                      <ntsc>FALSE</ntsc>
                      <timebase>25</timebase>
                    </rate>
                    <width>1920</width>
                    <height>1080</height>
                    <pixelaspectratio>Square</pixelaspectratio>
                    <anamorphic>FALSE</anamorphic>
                  </samplecharacteristics>
                </video>
              </media>
            </file>
            <sourcetrack>
              <mediatype>video</mediatype>
            </sourcetrack>
            <fielddominance>none</fielddominance>
          </clipitem>
          <clipitem id="D.png620">
            <name>D.png</name>
            <duration>1.25</duration>
            <rate>
              <ntsc>FALSE</ntsc>
              <timebase>25</timebase>
            </rate>
            <in>91977.5</in>
            <out>91978.75</out>
            <start>1977.5</start>
            <end>1978.75</end>
            <pixelaspectratio>Square</pixelaspectratio>
            <stillframe>TRUE</stillframe>
            <anamorphic>FALSE</anamorphic>
            <alphatype>straight</alphatype>
            <masterclipid>D.png620</masterclipid>
            <file id="D">
              <name>D.png</name>
              <pathurl>D:/Codes/SynthLip/SynthLipN/bin/Release/net6.0-windows8.0/publish/Skin/template/D.png</pathurl>
              <rate>
                <ntsc>FALSE</ntsc>
                <timebase>25</timebase>
              </rate>
              <duration>2</duration>
              <width>1920</width>
              <height>1080</height>
              <media>
                <video>
                  <duration>2</duration>
                  <stillframe>TRUE</stillframe>
                  <samplecharacteristics>
                    <rate>
                      <ntsc>FALSE</ntsc>
                      <timebase>25</timebase>
                    </rate>
                    <width>1920</width>
                    <height>1080</height>
                    <pixelaspectratio>Square</pixelaspectratio>
                    <anamorphic>FALSE</anamorphic>
                  </samplecharacteristics>
                </video>
              </media>
            </file>
            <sourcetrack>
              <mediatype>video</mediatype>
            </sourcetrack>
            <fielddominance>none</fielddominance>
          </clipitem>
          <clipitem id="D.png619">
            <name>D.png</name>
            <duration>4.37</duration>
            <rate>
              <ntsc>FALSE</ntsc>
              <timebase>25</timebase>
            </rate>
            <in>91973.13</in>
            <out>91977.5</out>
            <start>1973.13</start>
            <end>1977.5</end>
            <pixelaspectratio>Square</pixelaspectratio>
            <stillframe>TRUE</stillframe>
            <anamorphic>FALSE</anamorphic>
            <alphatype>straight</alphatype>
            <masterclipid>D.png619</masterclipid>
            <file id="D">
              <name>D.png</name>
              <pathurl>D:/Codes/SynthLip/SynthLipN/bin/Release/net6.0-windows8.0/publish/Skin/template/D.png</pathurl>
              <rate>
                <ntsc>FALSE</ntsc>
                <timebase>25</timebase>
              </rate>
              <duration>2</duration>
              <width>1920</width>
              <height>1080</height>
              <media>
                <video>
                  <duration>2</duration>
                  <stillframe>TRUE</stillframe>
                  <samplecharacteristics>
                    <rate>
                      <ntsc>FALSE</ntsc>
                      <timebase>25</timebase>
                    </rate>
                    <width>1920</width>
                    <height>1080</height>
                    <pixelaspectratio>Square</pixelaspectratio>
                    <anamorphic>FALSE</anamorphic>
                  </samplecharacteristics>
                </video>
              </media>
            </file>
            <sourcetrack>
              <mediatype>video</mediatype>
            </sourcetrack>
            <fielddominance>none</fielddominance>
          </clipitem>
          <clipitem id="A.png618">
            <name>A.png</name>
            <duration>1.88</duration>
            <rate>
              <ntsc>FALSE</ntsc>
              <timebase>25</timebase>
            </rate>
            <in>91971.25</in>
            <out>91973.13</out>
            <start>1971.25</start>
            <end>1973.13</end>
            <pixelaspectratio>Square</pixelaspectratio>
            <stillframe>TRUE</stillframe>
            <anamorphic>FALSE</anamorphic>
            <alphatype>straight</alphatype>
            <masterclipid>A.png618</masterclipid>
            <file id="A">
              <name>A.png</name>
              <pathurl>D:/Codes/SynthLip/SynthLipN/bin/Release/net6.0-windows8.0/publish/Skin/template/A.png</pathurl>
              <rate>
                <ntsc>FALSE</ntsc>
                <timebase>25</timebase>
              </rate>
              <duration>2</duration>
              <width>1920</width>
              <height>1080</height>
              <media>
                <video>
                  <duration>2</duration>
                  <stillframe>TRUE</stillframe>
                  <samplecharacteristics>
                    <rate>
                      <ntsc>FALSE</ntsc>
                      <timebase>25</timebase>
                    </rate>
                    <width>1920</width>
                    <height>1080</height>
                    <pixelaspectratio>Square</pixelaspectratio>
                    <anamorphic>FALSE</anamorphic>
                  </samplecharacteristics>
                </video>
              </media>
            </file>
            <sourcetrack>
              <mediatype>video</mediatype>
            </sourcetrack>
            <fielddominance>none</fielddominance>
          </clipitem>
          <clipitem id="B.png617">
            <name>B.png</name>
            <duration>1.25</duration>
            <rate>
              <ntsc>FALSE</ntsc>
              <timebase>25</timebase>
            </rate>
            <in>91970</in>
            <out>91971.25</out>
            <start>1970</start>
            <end>1971.25</end>
            <pixelaspectratio>Square</pixelaspectratio>
            <stillframe>TRUE</stillframe>
            <anamorphic>FALSE</anamorphic>
            <alphatype>straight</alphatype>
            <masterclipid>B.png617</masterclipid>
            <file id="B">
              <name>B.png</name>
              <pathurl>D:/Codes/SynthLip/SynthLipN/bin/Release/net6.0-windows8.0/publish/Skin/template/B.png</pathurl>
              <rate>
                <ntsc>FALSE</ntsc>
                <timebase>25</timebase>
              </rate>
              <duration>2</duration>
              <width>1920</width>
              <height>1080</height>
              <media>
                <video>
                  <duration>2</duration>
                  <stillframe>TRUE</stillframe>
                  <samplecharacteristics>
                    <rate>
                      <ntsc>FALSE</ntsc>
                      <timebase>25</timebase>
                    </rate>
                    <width>1920</width>
                    <height>1080</height>
                    <pixelaspectratio>Square</pixelaspectratio>
                    <anamorphic>FALSE</anamorphic>
                  </samplecharacteristics>
                </video>
              </media>
            </file>
            <sourcetrack>
              <mediatype>video</mediatype>
            </sourcetrack>
            <fielddominance>none</fielddominance>
          </clipitem>
          <clipitem id="F.png616">
            <name>F.png</name>
            <duration>3.75</duration>
            <rate>
              <ntsc>FALSE</ntsc>
              <timebase>25</timebase>
            </rate>
            <in>91966.25</in>
            <out>91970</out>
            <start>1966.25</start>
            <end>1970</end>
            <pixelaspectratio>Square</pixelaspectratio>
            <stillframe>TRUE</stillframe>
            <anamorphic>FALSE</anamorphic>
            <alphatype>straight</alphatype>
            <masterclipid>F.png616</masterclipid>
            <file id="F">
              <name>F.png</name>
              <pathurl>D:/Codes/SynthLip/SynthLipN/bin/Release/net6.0-windows8.0/publish/Skin/template/F.png</pathurl>
              <rate>
                <ntsc>FALSE</ntsc>
                <timebase>25</timebase>
              </rate>
              <duration>2</duration>
              <width>1920</width>
              <height>1080</height>
              <media>
                <video>
                  <duration>2</duration>
                  <stillframe>TRUE</stillframe>
                  <samplecharacteristics>
                    <rate>
                      <ntsc>FALSE</ntsc>
                      <timebase>25</timebase>
                    </rate>
                    <width>1920</width>
                    <height>1080</height>
                    <pixelaspectratio>Square</pixelaspectratio>
                    <anamorphic>FALSE</anamorphic>
                  </samplecharacteristics>
                </video>
              </media>
            </file>
            <sourcetrack>
              <mediatype>video</mediatype>
            </sourcetrack>
            <fielddominance>none</fielddominance>
          </clipitem>
          <clipitem id="B.png615">
            <name>B.png</name>
            <duration>1.25</duration>
            <rate>
              <ntsc>FALSE</ntsc>
              <timebase>25</timebase>
            </rate>
            <in>91965</in>
            <out>91966.25</out>
            <start>1965</start>
            <end>1966.25</end>
            <pixelaspectratio>Square</pixelaspectratio>
            <stillframe>TRUE</stillframe>
            <anamorphic>FALSE</anamorphic>
            <alphatype>straight</alphatype>
            <masterclipid>B.png615</masterclipid>
            <file id="B">
              <name>B.png</name>
              <pathurl>D:/Codes/SynthLip/SynthLipN/bin/Release/net6.0-windows8.0/publish/Skin/template/B.png</pathurl>
              <rate>
                <ntsc>FALSE</ntsc>
                <timebase>25</timebase>
              </rate>
              <duration>2</duration>
              <width>1920</width>
              <height>1080</height>
              <media>
                <video>
                  <duration>2</duration>
                  <stillframe>TRUE</stillframe>
                  <samplecharacteristics>
                    <rate>
                      <ntsc>FALSE</ntsc>
                      <timebase>25</timebase>
                    </rate>
                    <width>1920</width>
                    <height>1080</height>
                    <pixelaspectratio>Square</pixelaspectratio>
                    <anamorphic>FALSE</anamorphic>
                  </samplecharacteristics>
                </video>
              </media>
            </file>
            <sourcetrack>
              <mediatype>video</mediatype>
            </sourcetrack>
            <fielddominance>none</fielddominance>
          </clipitem>
          <clipitem id="F.png614">
            <name>F.png</name>
            <duration>5.62</duration>
            <rate>
              <ntsc>FALSE</ntsc>
              <timebase>25</timebase>
            </rate>
            <in>91959.38</in>
            <out>91965</out>
            <start>1959.38</start>
            <end>1965</end>
            <pixelaspectratio>Square</pixelaspectratio>
            <stillframe>TRUE</stillframe>
            <anamorphic>FALSE</anamorphic>
            <alphatype>straight</alphatype>
            <masterclipid>F.png614</masterclipid>
            <file id="F">
              <name>F.png</name>
              <pathurl>D:/Codes/SynthLip/SynthLipN/bin/Release/net6.0-windows8.0/publish/Skin/template/F.png</pathurl>
              <rate>
                <ntsc>FALSE</ntsc>
                <timebase>25</timebase>
              </rate>
              <duration>2</duration>
              <width>1920</width>
              <height>1080</height>
              <media>
                <video>
                  <duration>2</duration>
                  <stillframe>TRUE</stillframe>
                  <samplecharacteristics>
                    <rate>
                      <ntsc>FALSE</ntsc>
                      <timebase>25</timebase>
                    </rate>
                    <width>1920</width>
                    <height>1080</height>
                    <pixelaspectratio>Square</pixelaspectratio>
                    <anamorphic>FALSE</anamorphic>
                  </samplecharacteristics>
                </video>
              </media>
            </file>
            <sourcetrack>
              <mediatype>video</mediatype>
            </sourcetrack>
            <fielddominance>none</fielddominance>
          </clipitem>
          <clipitem id="F.png613">
            <name>F.png</name>
            <duration>2.34</duration>
            <rate>
              <ntsc>FALSE</ntsc>
              <timebase>25</timebase>
            </rate>
            <in>91957.03</in>
            <out>91959.375</out>
            <start>1957.03</start>
            <end>1959.37</end>
            <pixelaspectratio>Square</pixelaspectratio>
            <stillframe>TRUE</stillframe>
            <anamorphic>FALSE</anamorphic>
            <alphatype>straight</alphatype>
            <masterclipid>F.png613</masterclipid>
            <file id="F">
              <name>F.png</name>
              <pathurl>D:/Codes/SynthLip/SynthLipN/bin/Release/net6.0-windows8.0/publish/Skin/template/F.png</pathurl>
              <rate>
                <ntsc>FALSE</ntsc>
                <timebase>25</timebase>
              </rate>
              <duration>2</duration>
              <width>1920</width>
              <height>1080</height>
              <media>
                <video>
                  <duration>2</duration>
                  <stillframe>TRUE</stillframe>
                  <samplecharacteristics>
                    <rate>
                      <ntsc>FALSE</ntsc>
                      <timebase>25</timebase>
                    </rate>
                    <width>1920</width>
                    <height>1080</height>
                    <pixelaspectratio>Square</pixelaspectratio>
                    <anamorphic>FALSE</anamorphic>
                  </samplecharacteristics>
                </video>
              </media>
            </file>
            <sourcetrack>
              <mediatype>video</mediatype>
            </sourcetrack>
            <fielddominance>none</fielddominance>
          </clipitem>
          <clipitem id="B.png612">
            <name>B.png</name>
            <duration>1.41</duration>
            <rate>
              <ntsc>FALSE</ntsc>
              <timebase>25</timebase>
            </rate>
            <in>91955.63</in>
            <out>91957.04</out>
            <start>1955.63</start>
            <end>1957.04</end>
            <pixelaspectratio>Square</pixelaspectratio>
            <stillframe>TRUE</stillframe>
            <anamorphic>FALSE</anamorphic>
            <alphatype>straight</alphatype>
            <masterclipid>B.png612</masterclipid>
            <file id="B">
              <name>B.png</name>
              <pathurl>D:/Codes/SynthLip/SynthLipN/bin/Release/net6.0-windows8.0/publish/Skin/template/B.png</pathurl>
              <rate>
                <ntsc>FALSE</ntsc>
                <timebase>25</timebase>
              </rate>
              <duration>2</duration>
              <width>1920</width>
              <height>1080</height>
              <media>
                <video>
                  <duration>2</duration>
                  <stillframe>TRUE</stillframe>
                  <samplecharacteristics>
                    <rate>
                      <ntsc>FALSE</ntsc>
                      <timebase>25</timebase>
                    </rate>
                    <width>1920</width>
                    <height>1080</height>
                    <pixelaspectratio>Square</pixelaspectratio>
                    <anamorphic>FALSE</anamorphic>
                  </samplecharacteristics>
                </video>
              </media>
            </file>
            <sourcetrack>
              <mediatype>video</mediatype>
            </sourcetrack>
            <fielddominance>none</fielddominance>
          </clipitem>
          <clipitem id="C.png611">
            <name>C.png</name>
            <duration>1.88</duration>
            <rate>
              <ntsc>FALSE</ntsc>
              <timebase>25</timebase>
            </rate>
            <in>91953.75</in>
            <out>91955.63</out>
            <start>1953.75</start>
            <end>1955.63</end>
            <pixelaspectratio>Square</pixelaspectratio>
            <stillframe>TRUE</stillframe>
            <anamorphic>FALSE</anamorphic>
            <alphatype>straight</alphatype>
            <masterclipid>C.png611</masterclipid>
            <file id="C">
              <name>C.png</name>
              <pathurl>D:/Codes/SynthLip/SynthLipN/bin/Release/net6.0-windows8.0/publish/Skin/template/C.png</pathurl>
              <rate>
                <ntsc>FALSE</ntsc>
                <timebase>25</timebase>
              </rate>
              <duration>2</duration>
              <width>1920</width>
              <height>1080</height>
              <media>
                <video>
                  <duration>2</duration>
                  <stillframe>TRUE</stillframe>
                  <samplecharacteristics>
                    <rate>
                      <ntsc>FALSE</ntsc>
                      <timebase>25</timebase>
                    </rate>
                    <width>1920</width>
                    <height>1080</height>
                    <pixelaspectratio>Square</pixelaspectratio>
                    <anamorphic>FALSE</anamorphic>
                  </samplecharacteristics>
                </video>
              </media>
            </file>
            <sourcetrack>
              <mediatype>video</mediatype>
            </sourcetrack>
            <fielddominance>none</fielddominance>
          </clipitem>
          <clipitem id="C.png610">
            <name>C.png</name>
            <duration>2.81</duration>
            <rate>
              <ntsc>FALSE</ntsc>
              <timebase>25</timebase>
            </rate>
            <in>91950.94</in>
            <out>91953.75</out>
            <start>1950.94</start>
            <end>1953.75</end>
            <pixelaspectratio>Square</pixelaspectratio>
            <stillframe>TRUE</stillframe>
            <anamorphic>FALSE</anamorphic>
            <alphatype>straight</alphatype>
            <masterclipid>C.png610</masterclipid>
            <file id="C">
              <name>C.png</name>
              <pathurl>D:/Codes/SynthLip/SynthLipN/bin/Release/net6.0-windows8.0/publish/Skin/template/C.png</pathurl>
              <rate>
                <ntsc>FALSE</ntsc>
                <timebase>25</timebase>
              </rate>
              <duration>2</duration>
              <width>1920</width>
              <height>1080</height>
              <media>
                <video>
                  <duration>2</duration>
                  <stillframe>TRUE</stillframe>
                  <samplecharacteristics>
                    <rate>
                      <ntsc>FALSE</ntsc>
                      <timebase>25</timebase>
                    </rate>
                    <width>1920</width>
                    <height>1080</height>
                    <pixelaspectratio>Square</pixelaspectratio>
                    <anamorphic>FALSE</anamorphic>
                  </samplecharacteristics>
                </video>
              </media>
            </file>
            <sourcetrack>
              <mediatype>video</mediatype>
            </sourcetrack>
            <fielddominance>none</fielddominance>
          </clipitem>
          <clipitem id="B.png609">
            <name>B.png</name>
            <duration>0.94</duration>
            <rate>
              <ntsc>FALSE</ntsc>
              <timebase>25</timebase>
            </rate>
            <in>91950</in>
            <out>91950.94</out>
            <start>1950</start>
            <end>1950.94</end>
            <pixelaspectratio>Square</pixelaspectratio>
            <stillframe>TRUE</stillframe>
            <anamorphic>FALSE</anamorphic>
            <alphatype>straight</alphatype>
            <masterclipid>B.png609</masterclipid>
            <file id="B">
              <name>B.png</name>
              <pathurl>D:/Codes/SynthLip/SynthLipN/bin/Release/net6.0-windows8.0/publish/Skin/template/B.png</pathurl>
              <rate>
                <ntsc>FALSE</ntsc>
                <timebase>25</timebase>
              </rate>
              <duration>2</duration>
              <width>1920</width>
              <height>1080</height>
              <media>
                <video>
                  <duration>2</duration>
                  <stillframe>TRUE</stillframe>
                  <samplecharacteristics>
                    <rate>
                      <ntsc>FALSE</ntsc>
                      <timebase>25</timebase>
                    </rate>
                    <width>1920</width>
                    <height>1080</height>
                    <pixelaspectratio>Square</pixelaspectratio>
                    <anamorphic>FALSE</anamorphic>
                  </samplecharacteristics>
                </video>
              </media>
            </file>
            <sourcetrack>
              <mediatype>video</mediatype>
            </sourcetrack>
            <fielddominance>none</fielddominance>
          </clipitem>
          <clipitem id="A.png608">
            <name>A.png</name>
            <duration>7.5</duration>
            <rate>
              <ntsc>FALSE</ntsc>
              <timebase>25</timebase>
            </rate>
            <in>91942.5</in>
            <out>91950</out>
            <start>1942.5</start>
            <end>1950</end>
            <pixelaspectratio>Square</pixelaspectratio>
            <stillframe>TRUE</stillframe>
            <anamorphic>FALSE</anamorphic>
            <alphatype>straight</alphatype>
            <masterclipid>A.png608</masterclipid>
            <file id="A">
              <name>A.png</name>
              <pathurl>D:/Codes/SynthLip/SynthLipN/bin/Release/net6.0-windows8.0/publish/Skin/template/A.png</pathurl>
              <rate>
                <ntsc>FALSE</ntsc>
                <timebase>25</timebase>
              </rate>
              <duration>2</duration>
              <width>1920</width>
              <height>1080</height>
              <media>
                <video>
                  <duration>2</duration>
                  <stillframe>TRUE</stillframe>
                  <samplecharacteristics>
                    <rate>
                      <ntsc>FALSE</ntsc>
                      <timebase>25</timebase>
                    </rate>
                    <width>1920</width>
                    <height>1080</height>
                    <pixelaspectratio>Square</pixelaspectratio>
                    <anamorphic>FALSE</anamorphic>
                  </samplecharacteristics>
                </video>
              </media>
            </file>
            <sourcetrack>
              <mediatype>video</mediatype>
            </sourcetrack>
            <fielddominance>none</fielddominance>
          </clipitem>
          <clipitem id="F.png607">
            <name>F.png</name>
            <duration>5.62</duration>
            <rate>
              <ntsc>FALSE</ntsc>
              <timebase>25</timebase>
            </rate>
            <in>91936.88</in>
            <out>91942.5</out>
            <start>1936.88</start>
            <end>1942.5</end>
            <pixelaspectratio>Square</pixelaspectratio>
            <stillframe>TRUE</stillframe>
            <anamorphic>FALSE</anamorphic>
            <alphatype>straight</alphatype>
            <masterclipid>F.png607</masterclipid>
            <file id="F">
              <name>F.png</name>
              <pathurl>D:/Codes/SynthLip/SynthLipN/bin/Release/net6.0-windows8.0/publish/Skin/template/F.png</pathurl>
              <rate>
                <ntsc>FALSE</ntsc>
                <timebase>25</timebase>
              </rate>
              <duration>2</duration>
              <width>1920</width>
              <height>1080</height>
              <media>
                <video>
                  <duration>2</duration>
                  <stillframe>TRUE</stillframe>
                  <samplecharacteristics>
                    <rate>
                      <ntsc>FALSE</ntsc>
                      <timebase>25</timebase>
                    </rate>
                    <width>1920</width>
                    <height>1080</height>
                    <pixelaspectratio>Square</pixelaspectratio>
                    <anamorphic>FALSE</anamorphic>
                  </samplecharacteristics>
                </video>
              </media>
            </file>
            <sourcetrack>
              <mediatype>video</mediatype>
            </sourcetrack>
            <fielddominance>none</fielddominance>
          </clipitem>
          <clipitem id="B.png606">
            <name>B.png</name>
            <duration>1.88</duration>
            <rate>
              <ntsc>FALSE</ntsc>
              <timebase>25</timebase>
            </rate>
            <in>91935</in>
            <out>91936.88</out>
            <start>1935</start>
            <end>1936.88</end>
            <pixelaspectratio>Square</pixelaspectratio>
            <stillframe>TRUE</stillframe>
            <anamorphic>FALSE</anamorphic>
            <alphatype>straight</alphatype>
            <masterclipid>B.png606</masterclipid>
            <file id="B">
              <name>B.png</name>
              <pathurl>D:/Codes/SynthLip/SynthLipN/bin/Release/net6.0-windows8.0/publish/Skin/template/B.png</pathurl>
              <rate>
                <ntsc>FALSE</ntsc>
                <timebase>25</timebase>
              </rate>
              <duration>2</duration>
              <width>1920</width>
              <height>1080</height>
              <media>
                <video>
                  <duration>2</duration>
                  <stillframe>TRUE</stillframe>
                  <samplecharacteristics>
                    <rate>
                      <ntsc>FALSE</ntsc>
                      <timebase>25</timebase>
                    </rate>
                    <width>1920</width>
                    <height>1080</height>
                    <pixelaspectratio>Square</pixelaspectratio>
                    <anamorphic>FALSE</anamorphic>
                  </samplecharacteristics>
                </video>
              </media>
            </file>
            <sourcetrack>
              <mediatype>video</mediatype>
            </sourcetrack>
            <fielddominance>none</fielddominance>
          </clipitem>
          <clipitem id="F.png605">
            <name>F.png</name>
            <duration>3.75</duration>
            <rate>
              <ntsc>FALSE</ntsc>
              <timebase>25</timebase>
            </rate>
            <in>91931.25</in>
            <out>91935</out>
            <start>1931.25</start>
            <end>1935</end>
            <pixelaspectratio>Square</pixelaspectratio>
            <stillframe>TRUE</stillframe>
            <anamorphic>FALSE</anamorphic>
            <alphatype>straight</alphatype>
            <masterclipid>F.png605</masterclipid>
            <file id="F">
              <name>F.png</name>
              <pathurl>D:/Codes/SynthLip/SynthLipN/bin/Release/net6.0-windows8.0/publish/Skin/template/F.png</pathurl>
              <rate>
                <ntsc>FALSE</ntsc>
                <timebase>25</timebase>
              </rate>
              <duration>2</duration>
              <width>1920</width>
              <height>1080</height>
              <media>
                <video>
                  <duration>2</duration>
                  <stillframe>TRUE</stillframe>
                  <samplecharacteristics>
                    <rate>
                      <ntsc>FALSE</ntsc>
                      <timebase>25</timebase>
                    </rate>
                    <width>1920</width>
                    <height>1080</height>
                    <pixelaspectratio>Square</pixelaspectratio>
                    <anamorphic>FALSE</anamorphic>
                  </samplecharacteristics>
                </video>
              </media>
            </file>
            <sourcetrack>
              <mediatype>video</mediatype>
            </sourcetrack>
            <fielddominance>none</fielddominance>
          </clipitem>
          <clipitem id="F.png604">
            <name>F.png</name>
            <duration>1.87</duration>
            <rate>
              <ntsc>FALSE</ntsc>
              <timebase>25</timebase>
            </rate>
            <in>91929.38</in>
            <out>91931.25</out>
            <start>1929.38</start>
            <end>1931.25</end>
            <pixelaspectratio>Square</pixelaspectratio>
            <stillframe>TRUE</stillframe>
            <anamorphic>FALSE</anamorphic>
            <alphatype>straight</alphatype>
            <masterclipid>F.png604</masterclipid>
            <file id="F">
              <name>F.png</name>
              <pathurl>D:/Codes/SynthLip/SynthLipN/bin/Release/net6.0-windows8.0/publish/Skin/template/F.png</pathurl>
              <rate>
                <ntsc>FALSE</ntsc>
                <timebase>25</timebase>
              </rate>
              <duration>2</duration>
              <width>1920</width>
              <height>1080</height>
              <media>
                <video>
                  <duration>2</duration>
                  <stillframe>TRUE</stillframe>
                  <samplecharacteristics>
                    <rate>
                      <ntsc>FALSE</ntsc>
                      <timebase>25</timebase>
                    </rate>
                    <width>1920</width>
                    <height>1080</height>
                    <pixelaspectratio>Square</pixelaspectratio>
                    <anamorphic>FALSE</anamorphic>
                  </samplecharacteristics>
                </video>
              </media>
            </file>
            <sourcetrack>
              <mediatype>video</mediatype>
            </sourcetrack>
            <fielddominance>none</fielddominance>
          </clipitem>
          <clipitem id="F.png603">
            <name>F.png</name>
            <duration>1.41</duration>
            <rate>
              <ntsc>FALSE</ntsc>
              <timebase>25</timebase>
            </rate>
            <in>91927.97</in>
            <out>91929.375</out>
            <start>1927.97</start>
            <end>1929.38</end>
            <pixelaspectratio>Square</pixelaspectratio>
            <stillframe>TRUE</stillframe>
            <anamorphic>FALSE</anamorphic>
            <alphatype>straight</alphatype>
            <masterclipid>F.png603</masterclipid>
            <file id="F">
              <name>F.png</name>
              <pathurl>D:/Codes/SynthLip/SynthLipN/bin/Release/net6.0-windows8.0/publish/Skin/template/F.png</pathurl>
              <rate>
                <ntsc>FALSE</ntsc>
                <timebase>25</timebase>
              </rate>
              <duration>2</duration>
              <width>1920</width>
              <height>1080</height>
              <media>
                <video>
                  <duration>2</duration>
                  <stillframe>TRUE</stillframe>
                  <samplecharacteristics>
                    <rate>
                      <ntsc>FALSE</ntsc>
                      <timebase>25</timebase>
                    </rate>
                    <width>1920</width>
                    <height>1080</height>
                    <pixelaspectratio>Square</pixelaspectratio>
                    <anamorphic>FALSE</anamorphic>
                  </samplecharacteristics>
                </video>
              </media>
            </file>
            <sourcetrack>
              <mediatype>video</mediatype>
            </sourcetrack>
            <fielddominance>none</fielddominance>
          </clipitem>
          <clipitem id="B.png602">
            <name>B.png</name>
            <duration>0.47</duration>
            <rate>
              <ntsc>FALSE</ntsc>
              <timebase>25</timebase>
            </rate>
            <in>91927.5</in>
            <out>91927.97</out>
            <start>1927.5</start>
            <end>1927.97</end>
            <pixelaspectratio>Square</pixelaspectratio>
            <stillframe>TRUE</stillframe>
            <anamorphic>FALSE</anamorphic>
            <alphatype>straight</alphatype>
            <masterclipid>B.png602</masterclipid>
            <file id="B">
              <name>B.png</name>
              <pathurl>D:/Codes/SynthLip/SynthLipN/bin/Release/net6.0-windows8.0/publish/Skin/template/B.png</pathurl>
              <rate>
                <ntsc>FALSE</ntsc>
                <timebase>25</timebase>
              </rate>
              <duration>2</duration>
              <width>1920</width>
              <height>1080</height>
              <media>
                <video>
                  <duration>2</duration>
                  <stillframe>TRUE</stillframe>
                  <samplecharacteristics>
                    <rate>
                      <ntsc>FALSE</ntsc>
                      <timebase>25</timebase>
                    </rate>
                    <width>1920</width>
                    <height>1080</height>
                    <pixelaspectratio>Square</pixelaspectratio>
                    <anamorphic>FALSE</anamorphic>
                  </samplecharacteristics>
                </video>
              </media>
            </file>
            <sourcetrack>
              <mediatype>video</mediatype>
            </sourcetrack>
            <fielddominance>none</fielddominance>
          </clipitem>
          <clipitem id="C.png601">
            <name>C.png</name>
            <duration>5.62</duration>
            <rate>
              <ntsc>FALSE</ntsc>
              <timebase>25</timebase>
            </rate>
            <in>91921.88</in>
            <out>91927.5</out>
            <start>1921.88</start>
            <end>1927.5</end>
            <pixelaspectratio>Square</pixelaspectratio>
            <stillframe>TRUE</stillframe>
            <anamorphic>FALSE</anamorphic>
            <alphatype>straight</alphatype>
            <masterclipid>C.png601</masterclipid>
            <file id="C">
              <name>C.png</name>
              <pathurl>D:/Codes/SynthLip/SynthLipN/bin/Release/net6.0-windows8.0/publish/Skin/template/C.png</pathurl>
              <rate>
                <ntsc>FALSE</ntsc>
                <timebase>25</timebase>
              </rate>
              <duration>2</duration>
              <width>1920</width>
              <height>1080</height>
              <media>
                <video>
                  <duration>2</duration>
                  <stillframe>TRUE</stillframe>
                  <samplecharacteristics>
                    <rate>
                      <ntsc>FALSE</ntsc>
                      <timebase>25</timebase>
                    </rate>
                    <width>1920</width>
                    <height>1080</height>
                    <pixelaspectratio>Square</pixelaspectratio>
                    <anamorphic>FALSE</anamorphic>
                  </samplecharacteristics>
                </video>
              </media>
            </file>
            <sourcetrack>
              <mediatype>video</mediatype>
            </sourcetrack>
            <fielddominance>none</fielddominance>
          </clipitem>
          <clipitem id="A.png600">
            <name>A.png</name>
            <duration>1.88</duration>
            <rate>
              <ntsc>FALSE</ntsc>
              <timebase>25</timebase>
            </rate>
            <in>91920</in>
            <out>91921.88</out>
            <start>1920</start>
            <end>1921.88</end>
            <pixelaspectratio>Square</pixelaspectratio>
            <stillframe>TRUE</stillframe>
            <anamorphic>FALSE</anamorphic>
            <alphatype>straight</alphatype>
            <masterclipid>A.png600</masterclipid>
            <file id="A">
              <name>A.png</name>
              <pathurl>D:/Codes/SynthLip/SynthLipN/bin/Release/net6.0-windows8.0/publish/Skin/template/A.png</pathurl>
              <rate>
                <ntsc>FALSE</ntsc>
                <timebase>25</timebase>
              </rate>
              <duration>2</duration>
              <width>1920</width>
              <height>1080</height>
              <media>
                <video>
                  <duration>2</duration>
                  <stillframe>TRUE</stillframe>
                  <samplecharacteristics>
                    <rate>
                      <ntsc>FALSE</ntsc>
                      <timebase>25</timebase>
                    </rate>
                    <width>1920</width>
                    <height>1080</height>
                    <pixelaspectratio>Square</pixelaspectratio>
                    <anamorphic>FALSE</anamorphic>
                  </samplecharacteristics>
                </video>
              </media>
            </file>
            <sourcetrack>
              <mediatype>video</mediatype>
            </sourcetrack>
            <fielddominance>none</fielddominance>
          </clipitem>
          <clipitem id="B.png599">
            <name>B.png</name>
            <duration>4.38</duration>
            <rate>
              <ntsc>FALSE</ntsc>
              <timebase>25</timebase>
            </rate>
            <in>91915.63</in>
            <out>91920.016</out>
            <start>1915.63</start>
            <end>1920.01</end>
            <pixelaspectratio>Square</pixelaspectratio>
            <stillframe>TRUE</stillframe>
            <anamorphic>FALSE</anamorphic>
            <alphatype>straight</alphatype>
            <masterclipid>B.png599</masterclipid>
            <file id="B">
              <name>B.png</name>
              <pathurl>D:/Codes/SynthLip/SynthLipN/bin/Release/net6.0-windows8.0/publish/Skin/template/B.png</pathurl>
              <rate>
                <ntsc>FALSE</ntsc>
                <timebase>25</timebase>
              </rate>
              <duration>2</duration>
              <width>1920</width>
              <height>1080</height>
              <media>
                <video>
                  <duration>2</duration>
                  <stillframe>TRUE</stillframe>
                  <samplecharacteristics>
                    <rate>
                      <ntsc>FALSE</ntsc>
                      <timebase>25</timebase>
                    </rate>
                    <width>1920</width>
                    <height>1080</height>
                    <pixelaspectratio>Square</pixelaspectratio>
                    <anamorphic>FALSE</anamorphic>
                  </samplecharacteristics>
                </video>
              </media>
            </file>
            <sourcetrack>
              <mediatype>video</mediatype>
            </sourcetrack>
            <fielddominance>none</fielddominance>
          </clipitem>
          <clipitem id="B.png598">
            <name>B.png</name>
            <duration>0.63</duration>
            <rate>
              <ntsc>FALSE</ntsc>
              <timebase>25</timebase>
            </rate>
            <in>91915</in>
            <out>91915.63</out>
            <start>1915</start>
            <end>1915.63</end>
            <pixelaspectratio>Square</pixelaspectratio>
            <stillframe>TRUE</stillframe>
            <anamorphic>FALSE</anamorphic>
            <alphatype>straight</alphatype>
            <masterclipid>B.png598</masterclipid>
            <file id="B">
              <name>B.png</name>
              <pathurl>D:/Codes/SynthLip/SynthLipN/bin/Release/net6.0-windows8.0/publish/Skin/template/B.png</pathurl>
              <rate>
                <ntsc>FALSE</ntsc>
                <timebase>25</timebase>
              </rate>
              <duration>2</duration>
              <width>1920</width>
              <height>1080</height>
              <media>
                <video>
                  <duration>2</duration>
                  <stillframe>TRUE</stillframe>
                  <samplecharacteristics>
                    <rate>
                      <ntsc>FALSE</ntsc>
                      <timebase>25</timebase>
                    </rate>
                    <width>1920</width>
                    <height>1080</height>
                    <pixelaspectratio>Square</pixelaspectratio>
                    <anamorphic>FALSE</anamorphic>
                  </samplecharacteristics>
                </video>
              </media>
            </file>
            <sourcetrack>
              <mediatype>video</mediatype>
            </sourcetrack>
            <fielddominance>none</fielddominance>
          </clipitem>
          <clipitem id="C.png597">
            <name>C.png</name>
            <duration>2.5</duration>
            <rate>
              <ntsc>FALSE</ntsc>
              <timebase>25</timebase>
            </rate>
            <in>91912.5</in>
            <out>91915</out>
            <start>1912.5</start>
            <end>1915</end>
            <pixelaspectratio>Square</pixelaspectratio>
            <stillframe>TRUE</stillframe>
            <anamorphic>FALSE</anamorphic>
            <alphatype>straight</alphatype>
            <masterclipid>C.png597</masterclipid>
            <file id="C">
              <name>C.png</name>
              <pathurl>D:/Codes/SynthLip/SynthLipN/bin/Release/net6.0-windows8.0/publish/Skin/template/C.png</pathurl>
              <rate>
                <ntsc>FALSE</ntsc>
                <timebase>25</timebase>
              </rate>
              <duration>2</duration>
              <width>1920</width>
              <height>1080</height>
              <media>
                <video>
                  <duration>2</duration>
                  <stillframe>TRUE</stillframe>
                  <samplecharacteristics>
                    <rate>
                      <ntsc>FALSE</ntsc>
                      <timebase>25</timebase>
                    </rate>
                    <width>1920</width>
                    <height>1080</height>
                    <pixelaspectratio>Square</pixelaspectratio>
                    <anamorphic>FALSE</anamorphic>
                  </samplecharacteristics>
                </video>
              </media>
            </file>
            <sourcetrack>
              <mediatype>video</mediatype>
            </sourcetrack>
            <fielddominance>none</fielddominance>
          </clipitem>
          <clipitem id="G.png596">
            <name>G.png</name>
            <duration>1.25</duration>
            <rate>
              <ntsc>FALSE</ntsc>
              <timebase>25</timebase>
            </rate>
            <in>91911.25</in>
            <out>91912.5</out>
            <start>1911.25</start>
            <end>1912.5</end>
            <pixelaspectratio>Square</pixelaspectratio>
            <stillframe>TRUE</stillframe>
            <anamorphic>FALSE</anamorphic>
            <alphatype>straight</alphatype>
            <masterclipid>G.png596</masterclipid>
            <file id="G">
              <name>G.png</name>
              <pathurl>D:/Codes/SynthLip/SynthLipN/bin/Release/net6.0-windows8.0/publish/Skin/template/G.png</pathurl>
              <rate>
                <ntsc>FALSE</ntsc>
                <timebase>25</timebase>
              </rate>
              <duration>2</duration>
              <width>1920</width>
              <height>1080</height>
              <media>
                <video>
                  <duration>2</duration>
                  <stillframe>TRUE</stillframe>
                  <samplecharacteristics>
                    <rate>
                      <ntsc>FALSE</ntsc>
                      <timebase>25</timebase>
                    </rate>
                    <width>1920</width>
                    <height>1080</height>
                    <pixelaspectratio>Square</pixelaspectratio>
                    <anamorphic>FALSE</anamorphic>
                  </samplecharacteristics>
                </video>
              </media>
            </file>
            <sourcetrack>
              <mediatype>video</mediatype>
            </sourcetrack>
            <fielddominance>none</fielddominance>
          </clipitem>
          <clipitem id="A.png595">
            <name>A.png</name>
            <duration>1.25</duration>
            <rate>
              <ntsc>FALSE</ntsc>
              <timebase>25</timebase>
            </rate>
            <in>91910</in>
            <out>91911.25</out>
            <start>1910</start>
            <end>1911.25</end>
            <pixelaspectratio>Square</pixelaspectratio>
            <stillframe>TRUE</stillframe>
            <anamorphic>FALSE</anamorphic>
            <alphatype>straight</alphatype>
            <masterclipid>A.png595</masterclipid>
            <file id="A">
              <name>A.png</name>
              <pathurl>D:/Codes/SynthLip/SynthLipN/bin/Release/net6.0-windows8.0/publish/Skin/template/A.png</pathurl>
              <rate>
                <ntsc>FALSE</ntsc>
                <timebase>25</timebase>
              </rate>
              <duration>2</duration>
              <width>1920</width>
              <height>1080</height>
              <media>
                <video>
                  <duration>2</duration>
                  <stillframe>TRUE</stillframe>
                  <samplecharacteristics>
                    <rate>
                      <ntsc>FALSE</ntsc>
                      <timebase>25</timebase>
                    </rate>
                    <width>1920</width>
                    <height>1080</height>
                    <pixelaspectratio>Square</pixelaspectratio>
                    <anamorphic>FALSE</anamorphic>
                  </samplecharacteristics>
                </video>
              </media>
            </file>
            <sourcetrack>
              <mediatype>video</mediatype>
            </sourcetrack>
            <fielddominance>none</fielddominance>
          </clipitem>
          <clipitem id="D.png594">
            <name>D.png</name>
            <duration>4.38</duration>
            <rate>
              <ntsc>FALSE</ntsc>
              <timebase>25</timebase>
            </rate>
            <in>91905.62</in>
            <out>91910</out>
            <start>1905.62</start>
            <end>1910</end>
            <pixelaspectratio>Square</pixelaspectratio>
            <stillframe>TRUE</stillframe>
            <anamorphic>FALSE</anamorphic>
            <alphatype>straight</alphatype>
            <masterclipid>D.png594</masterclipid>
            <file id="D">
              <name>D.png</name>
              <pathurl>D:/Codes/SynthLip/SynthLipN/bin/Release/net6.0-windows8.0/publish/Skin/template/D.png</pathurl>
              <rate>
                <ntsc>FALSE</ntsc>
                <timebase>25</timebase>
              </rate>
              <duration>2</duration>
              <width>1920</width>
              <height>1080</height>
              <media>
                <video>
                  <duration>2</duration>
                  <stillframe>TRUE</stillframe>
                  <samplecharacteristics>
                    <rate>
                      <ntsc>FALSE</ntsc>
                      <timebase>25</timebase>
                    </rate>
                    <width>1920</width>
                    <height>1080</height>
                    <pixelaspectratio>Square</pixelaspectratio>
                    <anamorphic>FALSE</anamorphic>
                  </samplecharacteristics>
                </video>
              </media>
            </file>
            <sourcetrack>
              <mediatype>video</mediatype>
            </sourcetrack>
            <fielddominance>none</fielddominance>
          </clipitem>
          <clipitem id="B.png593">
            <name>B.png</name>
            <duration>1.88</duration>
            <rate>
              <ntsc>FALSE</ntsc>
              <timebase>25</timebase>
            </rate>
            <in>91903.75</in>
            <out>91905.63</out>
            <start>1903.75</start>
            <end>1905.63</end>
            <pixelaspectratio>Square</pixelaspectratio>
            <stillframe>TRUE</stillframe>
            <anamorphic>FALSE</anamorphic>
            <alphatype>straight</alphatype>
            <masterclipid>B.png593</masterclipid>
            <file id="B">
              <name>B.png</name>
              <pathurl>D:/Codes/SynthLip/SynthLipN/bin/Release/net6.0-windows8.0/publish/Skin/template/B.png</pathurl>
              <rate>
                <ntsc>FALSE</ntsc>
                <timebase>25</timebase>
              </rate>
              <duration>2</duration>
              <width>1920</width>
              <height>1080</height>
              <media>
                <video>
                  <duration>2</duration>
                  <stillframe>TRUE</stillframe>
                  <samplecharacteristics>
                    <rate>
                      <ntsc>FALSE</ntsc>
                      <timebase>25</timebase>
                    </rate>
                    <width>1920</width>
                    <height>1080</height>
                    <pixelaspectratio>Square</pixelaspectratio>
                    <anamorphic>FALSE</anamorphic>
                  </samplecharacteristics>
                </video>
              </media>
            </file>
            <sourcetrack>
              <mediatype>video</mediatype>
            </sourcetrack>
            <fielddominance>none</fielddominance>
          </clipitem>
          <clipitem id="B.png592">
            <name>B.png</name>
            <duration>1.25</duration>
            <rate>
              <ntsc>FALSE</ntsc>
              <timebase>25</timebase>
            </rate>
            <in>91902.5</in>
            <out>91903.75</out>
            <start>1902.5</start>
            <end>1903.75</end>
            <pixelaspectratio>Square</pixelaspectratio>
            <stillframe>TRUE</stillframe>
            <anamorphic>FALSE</anamorphic>
            <alphatype>straight</alphatype>
            <masterclipid>B.png592</masterclipid>
            <file id="B">
              <name>B.png</name>
              <pathurl>D:/Codes/SynthLip/SynthLipN/bin/Release/net6.0-windows8.0/publish/Skin/template/B.png</pathurl>
              <rate>
                <ntsc>FALSE</ntsc>
                <timebase>25</timebase>
              </rate>
              <duration>2</duration>
              <width>1920</width>
              <height>1080</height>
              <media>
                <video>
                  <duration>2</duration>
                  <stillframe>TRUE</stillframe>
                  <samplecharacteristics>
                    <rate>
                      <ntsc>FALSE</ntsc>
                      <timebase>25</timebase>
                    </rate>
                    <width>1920</width>
                    <height>1080</height>
                    <pixelaspectratio>Square</pixelaspectratio>
                    <anamorphic>FALSE</anamorphic>
                  </samplecharacteristics>
                </video>
              </media>
            </file>
            <sourcetrack>
              <mediatype>video</mediatype>
            </sourcetrack>
            <fielddominance>none</fielddominance>
          </clipitem>
          <clipitem id="D.png591">
            <name>D.png</name>
            <duration>3.75</duration>
            <rate>
              <ntsc>FALSE</ntsc>
              <timebase>25</timebase>
            </rate>
            <in>91898.75</in>
            <out>91902.5</out>
            <start>1898.75</start>
            <end>1902.5</end>
            <pixelaspectratio>Square</pixelaspectratio>
            <stillframe>TRUE</stillframe>
            <anamorphic>FALSE</anamorphic>
            <alphatype>straight</alphatype>
            <masterclipid>D.png591</masterclipid>
            <file id="D">
              <name>D.png</name>
              <pathurl>D:/Codes/SynthLip/SynthLipN/bin/Release/net6.0-windows8.0/publish/Skin/template/D.png</pathurl>
              <rate>
                <ntsc>FALSE</ntsc>
                <timebase>25</timebase>
              </rate>
              <duration>2</duration>
              <width>1920</width>
              <height>1080</height>
              <media>
                <video>
                  <duration>2</duration>
                  <stillframe>TRUE</stillframe>
                  <samplecharacteristics>
                    <rate>
                      <ntsc>FALSE</ntsc>
                      <timebase>25</timebase>
                    </rate>
                    <width>1920</width>
                    <height>1080</height>
                    <pixelaspectratio>Square</pixelaspectratio>
                    <anamorphic>FALSE</anamorphic>
                  </samplecharacteristics>
                </video>
              </media>
            </file>
            <sourcetrack>
              <mediatype>video</mediatype>
            </sourcetrack>
            <fielddominance>none</fielddominance>
          </clipitem>
          <clipitem id="B.png590">
            <name>B.png</name>
            <duration>1.25</duration>
            <rate>
              <ntsc>FALSE</ntsc>
              <timebase>25</timebase>
            </rate>
            <in>91897.5</in>
            <out>91898.75</out>
            <start>1897.5</start>
            <end>1898.75</end>
            <pixelaspectratio>Square</pixelaspectratio>
            <stillframe>TRUE</stillframe>
            <anamorphic>FALSE</anamorphic>
            <alphatype>straight</alphatype>
            <masterclipid>B.png590</masterclipid>
            <file id="B">
              <name>B.png</name>
              <pathurl>D:/Codes/SynthLip/SynthLipN/bin/Release/net6.0-windows8.0/publish/Skin/template/B.png</pathurl>
              <rate>
                <ntsc>FALSE</ntsc>
                <timebase>25</timebase>
              </rate>
              <duration>2</duration>
              <width>1920</width>
              <height>1080</height>
              <media>
                <video>
                  <duration>2</duration>
                  <stillframe>TRUE</stillframe>
                  <samplecharacteristics>
                    <rate>
                      <ntsc>FALSE</ntsc>
                      <timebase>25</timebase>
                    </rate>
                    <width>1920</width>
                    <height>1080</height>
                    <pixelaspectratio>Square</pixelaspectratio>
                    <anamorphic>FALSE</anamorphic>
                  </samplecharacteristics>
                </video>
              </media>
            </file>
            <sourcetrack>
              <mediatype>video</mediatype>
            </sourcetrack>
            <fielddominance>none</fielddominance>
          </clipitem>
          <clipitem id="F.png589">
            <name>F.png</name>
            <duration>3.75</duration>
            <rate>
              <ntsc>FALSE</ntsc>
              <timebase>25</timebase>
            </rate>
            <in>91893.75</in>
            <out>91897.5</out>
            <start>1893.75</start>
            <end>1897.5</end>
            <pixelaspectratio>Square</pixelaspectratio>
            <stillframe>TRUE</stillframe>
            <anamorphic>FALSE</anamorphic>
            <alphatype>straight</alphatype>
            <masterclipid>F.png589</masterclipid>
            <file id="F">
              <name>F.png</name>
              <pathurl>D:/Codes/SynthLip/SynthLipN/bin/Release/net6.0-windows8.0/publish/Skin/template/F.png</pathurl>
              <rate>
                <ntsc>FALSE</ntsc>
                <timebase>25</timebase>
              </rate>
              <duration>2</duration>
              <width>1920</width>
              <height>1080</height>
              <media>
                <video>
                  <duration>2</duration>
                  <stillframe>TRUE</stillframe>
                  <samplecharacteristics>
                    <rate>
                      <ntsc>FALSE</ntsc>
                      <timebase>25</timebase>
                    </rate>
                    <width>1920</width>
                    <height>1080</height>
                    <pixelaspectratio>Square</pixelaspectratio>
                    <anamorphic>FALSE</anamorphic>
                  </samplecharacteristics>
                </video>
              </media>
            </file>
            <sourcetrack>
              <mediatype>video</mediatype>
            </sourcetrack>
            <fielddominance>none</fielddominance>
          </clipitem>
          <clipitem id="D.png588">
            <name>D.png</name>
            <duration>1.87</duration>
            <rate>
              <ntsc>FALSE</ntsc>
              <timebase>25</timebase>
            </rate>
            <in>91891.88</in>
            <out>91893.75</out>
            <start>1891.88</start>
            <end>1893.75</end>
            <pixelaspectratio>Square</pixelaspectratio>
            <stillframe>TRUE</stillframe>
            <anamorphic>FALSE</anamorphic>
            <alphatype>straight</alphatype>
            <masterclipid>D.png588</masterclipid>
            <file id="D">
              <name>D.png</name>
              <pathurl>D:/Codes/SynthLip/SynthLipN/bin/Release/net6.0-windows8.0/publish/Skin/template/D.png</pathurl>
              <rate>
                <ntsc>FALSE</ntsc>
                <timebase>25</timebase>
              </rate>
              <duration>2</duration>
              <width>1920</width>
              <height>1080</height>
              <media>
                <video>
                  <duration>2</duration>
                  <stillframe>TRUE</stillframe>
                  <samplecharacteristics>
                    <rate>
                      <ntsc>FALSE</ntsc>
                      <timebase>25</timebase>
                    </rate>
                    <width>1920</width>
                    <height>1080</height>
                    <pixelaspectratio>Square</pixelaspectratio>
                    <anamorphic>FALSE</anamorphic>
                  </samplecharacteristics>
                </video>
              </media>
            </file>
            <sourcetrack>
              <mediatype>video</mediatype>
            </sourcetrack>
            <fielddominance>none</fielddominance>
          </clipitem>
          <clipitem id="D.png587">
            <name>D.png</name>
            <duration>1.41</duration>
            <rate>
              <ntsc>FALSE</ntsc>
              <timebase>25</timebase>
            </rate>
            <in>91890.47</in>
            <out>91891.875</out>
            <start>1890.47</start>
            <end>1891.88</end>
            <pixelaspectratio>Square</pixelaspectratio>
            <stillframe>TRUE</stillframe>
            <anamorphic>FALSE</anamorphic>
            <alphatype>straight</alphatype>
            <masterclipid>D.png587</masterclipid>
            <file id="D">
              <name>D.png</name>
              <pathurl>D:/Codes/SynthLip/SynthLipN/bin/Release/net6.0-windows8.0/publish/Skin/template/D.png</pathurl>
              <rate>
                <ntsc>FALSE</ntsc>
                <timebase>25</timebase>
              </rate>
              <duration>2</duration>
              <width>1920</width>
              <height>1080</height>
              <media>
                <video>
                  <duration>2</duration>
                  <stillframe>TRUE</stillframe>
                  <samplecharacteristics>
                    <rate>
                      <ntsc>FALSE</ntsc>
                      <timebase>25</timebase>
                    </rate>
                    <width>1920</width>
                    <height>1080</height>
                    <pixelaspectratio>Square</pixelaspectratio>
                    <anamorphic>FALSE</anamorphic>
                  </samplecharacteristics>
                </video>
              </media>
            </file>
            <sourcetrack>
              <mediatype>video</mediatype>
            </sourcetrack>
            <fielddominance>none</fielddominance>
          </clipitem>
          <clipitem id="C.png586">
            <name>C.png</name>
            <duration>0.47</duration>
            <rate>
              <ntsc>FALSE</ntsc>
              <timebase>25</timebase>
            </rate>
            <in>91890</in>
            <out>91890.47</out>
            <start>1890</start>
            <end>1890.47</end>
            <pixelaspectratio>Square</pixelaspectratio>
            <stillframe>TRUE</stillframe>
            <anamorphic>FALSE</anamorphic>
            <alphatype>straight</alphatype>
            <masterclipid>C.png586</masterclipid>
            <file id="C">
              <name>C.png</name>
              <pathurl>D:/Codes/SynthLip/SynthLipN/bin/Release/net6.0-windows8.0/publish/Skin/template/C.png</pathurl>
              <rate>
                <ntsc>FALSE</ntsc>
                <timebase>25</timebase>
              </rate>
              <duration>2</duration>
              <width>1920</width>
              <height>1080</height>
              <media>
                <video>
                  <duration>2</duration>
                  <stillframe>TRUE</stillframe>
                  <samplecharacteristics>
                    <rate>
                      <ntsc>FALSE</ntsc>
                      <timebase>25</timebase>
                    </rate>
                    <width>1920</width>
                    <height>1080</height>
                    <pixelaspectratio>Square</pixelaspectratio>
                    <anamorphic>FALSE</anamorphic>
                  </samplecharacteristics>
                </video>
              </media>
            </file>
            <sourcetrack>
              <mediatype>video</mediatype>
            </sourcetrack>
            <fielddominance>none</fielddominance>
          </clipitem>
          <clipitem id="A.png585">
            <name>A.png</name>
            <duration>8.75</duration>
            <rate>
              <ntsc>FALSE</ntsc>
              <timebase>25</timebase>
            </rate>
            <in>91881.25</in>
            <out>91890</out>
            <start>1881.25</start>
            <end>1890</end>
            <pixelaspectratio>Square</pixelaspectratio>
            <stillframe>TRUE</stillframe>
            <anamorphic>FALSE</anamorphic>
            <alphatype>straight</alphatype>
            <masterclipid>A.png585</masterclipid>
            <file id="A">
              <name>A.png</name>
              <pathurl>D:/Codes/SynthLip/SynthLipN/bin/Release/net6.0-windows8.0/publish/Skin/template/A.png</pathurl>
              <rate>
                <ntsc>FALSE</ntsc>
                <timebase>25</timebase>
              </rate>
              <duration>2</duration>
              <width>1920</width>
              <height>1080</height>
              <media>
                <video>
                  <duration>2</duration>
                  <stillframe>TRUE</stillframe>
                  <samplecharacteristics>
                    <rate>
                      <ntsc>FALSE</ntsc>
                      <timebase>25</timebase>
                    </rate>
                    <width>1920</width>
                    <height>1080</height>
                    <pixelaspectratio>Square</pixelaspectratio>
                    <anamorphic>FALSE</anamorphic>
                  </samplecharacteristics>
                </video>
              </media>
            </file>
            <sourcetrack>
              <mediatype>video</mediatype>
            </sourcetrack>
            <fielddominance>none</fielddominance>
          </clipitem>
          <clipitem id="B.png584">
            <name>B.png</name>
            <duration>1.25</duration>
            <rate>
              <ntsc>FALSE</ntsc>
              <timebase>25</timebase>
            </rate>
            <in>91880</in>
            <out>91881.25</out>
            <start>1880</start>
            <end>1881.25</end>
            <pixelaspectratio>Square</pixelaspectratio>
            <stillframe>TRUE</stillframe>
            <anamorphic>FALSE</anamorphic>
            <alphatype>straight</alphatype>
            <masterclipid>B.png584</masterclipid>
            <file id="B">
              <name>B.png</name>
              <pathurl>D:/Codes/SynthLip/SynthLipN/bin/Release/net6.0-windows8.0/publish/Skin/template/B.png</pathurl>
              <rate>
                <ntsc>FALSE</ntsc>
                <timebase>25</timebase>
              </rate>
              <duration>2</duration>
              <width>1920</width>
              <height>1080</height>
              <media>
                <video>
                  <duration>2</duration>
                  <stillframe>TRUE</stillframe>
                  <samplecharacteristics>
                    <rate>
                      <ntsc>FALSE</ntsc>
                      <timebase>25</timebase>
                    </rate>
                    <width>1920</width>
                    <height>1080</height>
                    <pixelaspectratio>Square</pixelaspectratio>
                    <anamorphic>FALSE</anamorphic>
                  </samplecharacteristics>
                </video>
              </media>
            </file>
            <sourcetrack>
              <mediatype>video</mediatype>
            </sourcetrack>
            <fielddominance>none</fielddominance>
          </clipitem>
          <clipitem id="D.png583">
            <name>D.png</name>
            <duration>3.75</duration>
            <rate>
              <ntsc>FALSE</ntsc>
              <timebase>25</timebase>
            </rate>
            <in>91876.25</in>
            <out>91880</out>
            <start>1876.25</start>
            <end>1880</end>
            <pixelaspectratio>Square</pixelaspectratio>
            <stillframe>TRUE</stillframe>
            <anamorphic>FALSE</anamorphic>
            <alphatype>straight</alphatype>
            <masterclipid>D.png583</masterclipid>
            <file id="D">
              <name>D.png</name>
              <pathurl>D:/Codes/SynthLip/SynthLipN/bin/Release/net6.0-windows8.0/publish/Skin/template/D.png</pathurl>
              <rate>
                <ntsc>FALSE</ntsc>
                <timebase>25</timebase>
              </rate>
              <duration>2</duration>
              <width>1920</width>
              <height>1080</height>
              <media>
                <video>
                  <duration>2</duration>
                  <stillframe>TRUE</stillframe>
                  <samplecharacteristics>
                    <rate>
                      <ntsc>FALSE</ntsc>
                      <timebase>25</timebase>
                    </rate>
                    <width>1920</width>
                    <height>1080</height>
                    <pixelaspectratio>Square</pixelaspectratio>
                    <anamorphic>FALSE</anamorphic>
                  </samplecharacteristics>
                </video>
              </media>
            </file>
            <sourcetrack>
              <mediatype>video</mediatype>
            </sourcetrack>
            <fielddominance>none</fielddominance>
          </clipitem>
          <clipitem id="B.png582">
            <name>B.png</name>
            <duration>1.25</duration>
            <rate>
              <ntsc>FALSE</ntsc>
              <timebase>25</timebase>
            </rate>
            <in>91875</in>
            <out>91876.25</out>
            <start>1875</start>
            <end>1876.25</end>
            <pixelaspectratio>Square</pixelaspectratio>
            <stillframe>TRUE</stillframe>
            <anamorphic>FALSE</anamorphic>
            <alphatype>straight</alphatype>
            <masterclipid>B.png582</masterclipid>
            <file id="B">
              <name>B.png</name>
              <pathurl>D:/Codes/SynthLip/SynthLipN/bin/Release/net6.0-windows8.0/publish/Skin/template/B.png</pathurl>
              <rate>
                <ntsc>FALSE</ntsc>
                <timebase>25</timebase>
              </rate>
              <duration>2</duration>
              <width>1920</width>
              <height>1080</height>
              <media>
                <video>
                  <duration>2</duration>
                  <stillframe>TRUE</stillframe>
                  <samplecharacteristics>
                    <rate>
                      <ntsc>FALSE</ntsc>
                      <timebase>25</timebase>
                    </rate>
                    <width>1920</width>
                    <height>1080</height>
                    <pixelaspectratio>Square</pixelaspectratio>
                    <anamorphic>FALSE</anamorphic>
                  </samplecharacteristics>
                </video>
              </media>
            </file>
            <sourcetrack>
              <mediatype>video</mediatype>
            </sourcetrack>
            <fielddominance>none</fielddominance>
          </clipitem>
          <clipitem id="F.png581">
            <name>F.png</name>
            <duration>3.75</duration>
            <rate>
              <ntsc>FALSE</ntsc>
              <timebase>25</timebase>
            </rate>
            <in>91871.25</in>
            <out>91875</out>
            <start>1871.25</start>
            <end>1875</end>
            <pixelaspectratio>Square</pixelaspectratio>
            <stillframe>TRUE</stillframe>
            <anamorphic>FALSE</anamorphic>
            <alphatype>straight</alphatype>
            <masterclipid>F.png581</masterclipid>
            <file id="F">
              <name>F.png</name>
              <pathurl>D:/Codes/SynthLip/SynthLipN/bin/Release/net6.0-windows8.0/publish/Skin/template/F.png</pathurl>
              <rate>
                <ntsc>FALSE</ntsc>
                <timebase>25</timebase>
              </rate>
              <duration>2</duration>
              <width>1920</width>
              <height>1080</height>
              <media>
                <video>
                  <duration>2</duration>
                  <stillframe>TRUE</stillframe>
                  <samplecharacteristics>
                    <rate>
                      <ntsc>FALSE</ntsc>
                      <timebase>25</timebase>
                    </rate>
                    <width>1920</width>
                    <height>1080</height>
                    <pixelaspectratio>Square</pixelaspectratio>
                    <anamorphic>FALSE</anamorphic>
                  </samplecharacteristics>
                </video>
              </media>
            </file>
            <sourcetrack>
              <mediatype>video</mediatype>
            </sourcetrack>
            <fielddominance>none</fielddominance>
          </clipitem>
          <clipitem id="F.png580">
            <name>F.png</name>
            <duration>1.87</duration>
            <rate>
              <ntsc>FALSE</ntsc>
              <timebase>25</timebase>
            </rate>
            <in>91869.38</in>
            <out>91871.25</out>
            <start>1869.38</start>
            <end>1871.25</end>
            <pixelaspectratio>Square</pixelaspectratio>
            <stillframe>TRUE</stillframe>
            <anamorphic>FALSE</anamorphic>
            <alphatype>straight</alphatype>
            <masterclipid>F.png580</masterclipid>
            <file id="F">
              <name>F.png</name>
              <pathurl>D:/Codes/SynthLip/SynthLipN/bin/Release/net6.0-windows8.0/publish/Skin/template/F.png</pathurl>
              <rate>
                <ntsc>FALSE</ntsc>
                <timebase>25</timebase>
              </rate>
              <duration>2</duration>
              <width>1920</width>
              <height>1080</height>
              <media>
                <video>
                  <duration>2</duration>
                  <stillframe>TRUE</stillframe>
                  <samplecharacteristics>
                    <rate>
                      <ntsc>FALSE</ntsc>
                      <timebase>25</timebase>
                    </rate>
                    <width>1920</width>
                    <height>1080</height>
                    <pixelaspectratio>Square</pixelaspectratio>
                    <anamorphic>FALSE</anamorphic>
                  </samplecharacteristics>
                </video>
              </media>
            </file>
            <sourcetrack>
              <mediatype>video</mediatype>
            </sourcetrack>
            <fielddominance>none</fielddominance>
          </clipitem>
          <clipitem id="F.png579">
            <name>F.png</name>
            <duration>2.03</duration>
            <rate>
              <ntsc>FALSE</ntsc>
              <timebase>25</timebase>
            </rate>
            <in>91867.34</in>
            <out>91869.375</out>
            <start>1867.34</start>
            <end>1869.37</end>
            <pixelaspectratio>Square</pixelaspectratio>
            <stillframe>TRUE</stillframe>
            <anamorphic>FALSE</anamorphic>
            <alphatype>straight</alphatype>
            <masterclipid>F.png579</masterclipid>
            <file id="F">
              <name>F.png</name>
              <pathurl>D:/Codes/SynthLip/SynthLipN/bin/Release/net6.0-windows8.0/publish/Skin/template/F.png</pathurl>
              <rate>
                <ntsc>FALSE</ntsc>
                <timebase>25</timebase>
              </rate>
              <duration>2</duration>
              <width>1920</width>
              <height>1080</height>
              <media>
                <video>
                  <duration>2</duration>
                  <stillframe>TRUE</stillframe>
                  <samplecharacteristics>
                    <rate>
                      <ntsc>FALSE</ntsc>
                      <timebase>25</timebase>
                    </rate>
                    <width>1920</width>
                    <height>1080</height>
                    <pixelaspectratio>Square</pixelaspectratio>
                    <anamorphic>FALSE</anamorphic>
                  </samplecharacteristics>
                </video>
              </media>
            </file>
            <sourcetrack>
              <mediatype>video</mediatype>
            </sourcetrack>
            <fielddominance>none</fielddominance>
          </clipitem>
          <clipitem id="B.png578">
            <name>B.png</name>
            <duration>1.09</duration>
            <rate>
              <ntsc>FALSE</ntsc>
              <timebase>25</timebase>
            </rate>
            <in>91866.25</in>
            <out>91867.34</out>
            <start>1866.25</start>
            <end>1867.34</end>
            <pixelaspectratio>Square</pixelaspectratio>
            <stillframe>TRUE</stillframe>
            <anamorphic>FALSE</anamorphic>
            <alphatype>straight</alphatype>
            <masterclipid>B.png578</masterclipid>
            <file id="B">
              <name>B.png</name>
              <pathurl>D:/Codes/SynthLip/SynthLipN/bin/Release/net6.0-windows8.0/publish/Skin/template/B.png</pathurl>
              <rate>
                <ntsc>FALSE</ntsc>
                <timebase>25</timebase>
              </rate>
              <duration>2</duration>
              <width>1920</width>
              <height>1080</height>
              <media>
                <video>
                  <duration>2</duration>
                  <stillframe>TRUE</stillframe>
                  <samplecharacteristics>
                    <rate>
                      <ntsc>FALSE</ntsc>
                      <timebase>25</timebase>
                    </rate>
                    <width>1920</width>
                    <height>1080</height>
                    <pixelaspectratio>Square</pixelaspectratio>
                    <anamorphic>FALSE</anamorphic>
                  </samplecharacteristics>
                </video>
              </media>
            </file>
            <sourcetrack>
              <mediatype>video</mediatype>
            </sourcetrack>
            <fielddominance>none</fielddominance>
          </clipitem>
          <clipitem id="C.png577">
            <name>C.png</name>
            <duration>1.25</duration>
            <rate>
              <ntsc>FALSE</ntsc>
              <timebase>25</timebase>
            </rate>
            <in>91865</in>
            <out>91866.25</out>
            <start>1865</start>
            <end>1866.25</end>
            <pixelaspectratio>Square</pixelaspectratio>
            <stillframe>TRUE</stillframe>
            <anamorphic>FALSE</anamorphic>
            <alphatype>straight</alphatype>
            <masterclipid>C.png577</masterclipid>
            <file id="C">
              <name>C.png</name>
              <pathurl>D:/Codes/SynthLip/SynthLipN/bin/Release/net6.0-windows8.0/publish/Skin/template/C.png</pathurl>
              <rate>
                <ntsc>FALSE</ntsc>
                <timebase>25</timebase>
              </rate>
              <duration>2</duration>
              <width>1920</width>
              <height>1080</height>
              <media>
                <video>
                  <duration>2</duration>
                  <stillframe>TRUE</stillframe>
                  <samplecharacteristics>
                    <rate>
                      <ntsc>FALSE</ntsc>
                      <timebase>25</timebase>
                    </rate>
                    <width>1920</width>
                    <height>1080</height>
                    <pixelaspectratio>Square</pixelaspectratio>
                    <anamorphic>FALSE</anamorphic>
                  </samplecharacteristics>
                </video>
              </media>
            </file>
            <sourcetrack>
              <mediatype>video</mediatype>
            </sourcetrack>
            <fielddominance>none</fielddominance>
          </clipitem>
          <clipitem id="C.png576">
            <name>C.png</name>
            <duration>3.75</duration>
            <rate>
              <ntsc>FALSE</ntsc>
              <timebase>25</timebase>
            </rate>
            <in>91861.25</in>
            <out>91865</out>
            <start>1861.25</start>
            <end>1865</end>
            <pixelaspectratio>Square</pixelaspectratio>
            <stillframe>TRUE</stillframe>
            <anamorphic>FALSE</anamorphic>
            <alphatype>straight</alphatype>
            <masterclipid>C.png576</masterclipid>
            <file id="C">
              <name>C.png</name>
              <pathurl>D:/Codes/SynthLip/SynthLipN/bin/Release/net6.0-windows8.0/publish/Skin/template/C.png</pathurl>
              <rate>
                <ntsc>FALSE</ntsc>
                <timebase>25</timebase>
              </rate>
              <duration>2</duration>
              <width>1920</width>
              <height>1080</height>
              <media>
                <video>
                  <duration>2</duration>
                  <stillframe>TRUE</stillframe>
                  <samplecharacteristics>
                    <rate>
                      <ntsc>FALSE</ntsc>
                      <timebase>25</timebase>
                    </rate>
                    <width>1920</width>
                    <height>1080</height>
                    <pixelaspectratio>Square</pixelaspectratio>
                    <anamorphic>FALSE</anamorphic>
                  </samplecharacteristics>
                </video>
              </media>
            </file>
            <sourcetrack>
              <mediatype>video</mediatype>
            </sourcetrack>
            <fielddominance>none</fielddominance>
          </clipitem>
          <clipitem id="B.png575">
            <name>B.png</name>
            <duration>1.25</duration>
            <rate>
              <ntsc>FALSE</ntsc>
              <timebase>25</timebase>
            </rate>
            <in>91860</in>
            <out>91861.25</out>
            <start>1860</start>
            <end>1861.25</end>
            <pixelaspectratio>Square</pixelaspectratio>
            <stillframe>TRUE</stillframe>
            <anamorphic>FALSE</anamorphic>
            <alphatype>straight</alphatype>
            <masterclipid>B.png575</masterclipid>
            <file id="B">
              <name>B.png</name>
              <pathurl>D:/Codes/SynthLip/SynthLipN/bin/Release/net6.0-windows8.0/publish/Skin/template/B.png</pathurl>
              <rate>
                <ntsc>FALSE</ntsc>
                <timebase>25</timebase>
              </rate>
              <duration>2</duration>
              <width>1920</width>
              <height>1080</height>
              <media>
                <video>
                  <duration>2</duration>
                  <stillframe>TRUE</stillframe>
                  <samplecharacteristics>
                    <rate>
                      <ntsc>FALSE</ntsc>
                      <timebase>25</timebase>
                    </rate>
                    <width>1920</width>
                    <height>1080</height>
                    <pixelaspectratio>Square</pixelaspectratio>
                    <anamorphic>FALSE</anamorphic>
                  </samplecharacteristics>
                </video>
              </media>
            </file>
            <sourcetrack>
              <mediatype>video</mediatype>
            </sourcetrack>
            <fielddominance>none</fielddominance>
          </clipitem>
          <clipitem id="B.png574">
            <name>B.png</name>
            <duration>4.38</duration>
            <rate>
              <ntsc>FALSE</ntsc>
              <timebase>25</timebase>
            </rate>
            <in>91855.63</in>
            <out>91860.016</out>
            <start>1855.63</start>
            <end>1860.01</end>
            <pixelaspectratio>Square</pixelaspectratio>
            <stillframe>TRUE</stillframe>
            <anamorphic>FALSE</anamorphic>
            <alphatype>straight</alphatype>
            <masterclipid>B.png574</masterclipid>
            <file id="B">
              <name>B.png</name>
              <pathurl>D:/Codes/SynthLip/SynthLipN/bin/Release/net6.0-windows8.0/publish/Skin/template/B.png</pathurl>
              <rate>
                <ntsc>FALSE</ntsc>
                <timebase>25</timebase>
              </rate>
              <duration>2</duration>
              <width>1920</width>
              <height>1080</height>
              <media>
                <video>
                  <duration>2</duration>
                  <stillframe>TRUE</stillframe>
                  <samplecharacteristics>
                    <rate>
                      <ntsc>FALSE</ntsc>
                      <timebase>25</timebase>
                    </rate>
                    <width>1920</width>
                    <height>1080</height>
                    <pixelaspectratio>Square</pixelaspectratio>
                    <anamorphic>FALSE</anamorphic>
                  </samplecharacteristics>
                </video>
              </media>
            </file>
            <sourcetrack>
              <mediatype>video</mediatype>
            </sourcetrack>
            <fielddominance>none</fielddominance>
          </clipitem>
          <clipitem id="B.png573">
            <name>B.png</name>
            <duration>0.63</duration>
            <rate>
              <ntsc>FALSE</ntsc>
              <timebase>25</timebase>
            </rate>
            <in>91855</in>
            <out>91855.63</out>
            <start>1855</start>
            <end>1855.63</end>
            <pixelaspectratio>Square</pixelaspectratio>
            <stillframe>TRUE</stillframe>
            <anamorphic>FALSE</anamorphic>
            <alphatype>straight</alphatype>
            <masterclipid>B.png573</masterclipid>
            <file id="B">
              <name>B.png</name>
              <pathurl>D:/Codes/SynthLip/SynthLipN/bin/Release/net6.0-windows8.0/publish/Skin/template/B.png</pathurl>
              <rate>
                <ntsc>FALSE</ntsc>
                <timebase>25</timebase>
              </rate>
              <duration>2</duration>
              <width>1920</width>
              <height>1080</height>
              <media>
                <video>
                  <duration>2</duration>
                  <stillframe>TRUE</stillframe>
                  <samplecharacteristics>
                    <rate>
                      <ntsc>FALSE</ntsc>
                      <timebase>25</timebase>
                    </rate>
                    <width>1920</width>
                    <height>1080</height>
                    <pixelaspectratio>Square</pixelaspectratio>
                    <anamorphic>FALSE</anamorphic>
                  </samplecharacteristics>
                </video>
              </media>
            </file>
            <sourcetrack>
              <mediatype>video</mediatype>
            </sourcetrack>
            <fielddominance>none</fielddominance>
          </clipitem>
          <clipitem id="C.png572">
            <name>C.png</name>
            <duration>1.87</duration>
            <rate>
              <ntsc>FALSE</ntsc>
              <timebase>25</timebase>
            </rate>
            <in>91853.13</in>
            <out>91855</out>
            <start>1853.13</start>
            <end>1855</end>
            <pixelaspectratio>Square</pixelaspectratio>
            <stillframe>TRUE</stillframe>
            <anamorphic>FALSE</anamorphic>
            <alphatype>straight</alphatype>
            <masterclipid>C.png572</masterclipid>
            <file id="C">
              <name>C.png</name>
              <pathurl>D:/Codes/SynthLip/SynthLipN/bin/Release/net6.0-windows8.0/publish/Skin/template/C.png</pathurl>
              <rate>
                <ntsc>FALSE</ntsc>
                <timebase>25</timebase>
              </rate>
              <duration>2</duration>
              <width>1920</width>
              <height>1080</height>
              <media>
                <video>
                  <duration>2</duration>
                  <stillframe>TRUE</stillframe>
                  <samplecharacteristics>
                    <rate>
                      <ntsc>FALSE</ntsc>
                      <timebase>25</timebase>
                    </rate>
                    <width>1920</width>
                    <height>1080</height>
                    <pixelaspectratio>Square</pixelaspectratio>
                    <anamorphic>FALSE</anamorphic>
                  </samplecharacteristics>
                </video>
              </media>
            </file>
            <sourcetrack>
              <mediatype>video</mediatype>
            </sourcetrack>
            <fielddominance>none</fielddominance>
          </clipitem>
          <clipitem id="B.png571">
            <name>B.png</name>
            <duration>0.63</duration>
            <rate>
              <ntsc>FALSE</ntsc>
              <timebase>25</timebase>
            </rate>
            <in>91852.5</in>
            <out>91853.13</out>
            <start>1852.5</start>
            <end>1853.13</end>
            <pixelaspectratio>Square</pixelaspectratio>
            <stillframe>TRUE</stillframe>
            <anamorphic>FALSE</anamorphic>
            <alphatype>straight</alphatype>
            <masterclipid>B.png571</masterclipid>
            <file id="B">
              <name>B.png</name>
              <pathurl>D:/Codes/SynthLip/SynthLipN/bin/Release/net6.0-windows8.0/publish/Skin/template/B.png</pathurl>
              <rate>
                <ntsc>FALSE</ntsc>
                <timebase>25</timebase>
              </rate>
              <duration>2</duration>
              <width>1920</width>
              <height>1080</height>
              <media>
                <video>
                  <duration>2</duration>
                  <stillframe>TRUE</stillframe>
                  <samplecharacteristics>
                    <rate>
                      <ntsc>FALSE</ntsc>
                      <timebase>25</timebase>
                    </rate>
                    <width>1920</width>
                    <height>1080</height>
                    <pixelaspectratio>Square</pixelaspectratio>
                    <anamorphic>FALSE</anamorphic>
                  </samplecharacteristics>
                </video>
              </media>
            </file>
            <sourcetrack>
              <mediatype>video</mediatype>
            </sourcetrack>
            <fielddominance>none</fielddominance>
          </clipitem>
          <clipitem id="C.png570">
            <name>C.png</name>
            <duration>5.62</duration>
            <rate>
              <ntsc>FALSE</ntsc>
              <timebase>25</timebase>
            </rate>
            <in>91846.88</in>
            <out>91852.5</out>
            <start>1846.88</start>
            <end>1852.5</end>
            <pixelaspectratio>Square</pixelaspectratio>
            <stillframe>TRUE</stillframe>
            <anamorphic>FALSE</anamorphic>
            <alphatype>straight</alphatype>
            <masterclipid>C.png570</masterclipid>
            <file id="C">
              <name>C.png</name>
              <pathurl>D:/Codes/SynthLip/SynthLipN/bin/Release/net6.0-windows8.0/publish/Skin/template/C.png</pathurl>
              <rate>
                <ntsc>FALSE</ntsc>
                <timebase>25</timebase>
              </rate>
              <duration>2</duration>
              <width>1920</width>
              <height>1080</height>
              <media>
                <video>
                  <duration>2</duration>
                  <stillframe>TRUE</stillframe>
                  <samplecharacteristics>
                    <rate>
                      <ntsc>FALSE</ntsc>
                      <timebase>25</timebase>
                    </rate>
                    <width>1920</width>
                    <height>1080</height>
                    <pixelaspectratio>Square</pixelaspectratio>
                    <anamorphic>FALSE</anamorphic>
                  </samplecharacteristics>
                </video>
              </media>
            </file>
            <sourcetrack>
              <mediatype>video</mediatype>
            </sourcetrack>
            <fielddominance>none</fielddominance>
          </clipitem>
          <clipitem id="B.png569">
            <name>B.png</name>
            <duration>1.88</duration>
            <rate>
              <ntsc>FALSE</ntsc>
              <timebase>25</timebase>
            </rate>
            <in>91845</in>
            <out>91846.88</out>
            <start>1845</start>
            <end>1846.88</end>
            <pixelaspectratio>Square</pixelaspectratio>
            <stillframe>TRUE</stillframe>
            <anamorphic>FALSE</anamorphic>
            <alphatype>straight</alphatype>
            <masterclipid>B.png569</masterclipid>
            <file id="B">
              <name>B.png</name>
              <pathurl>D:/Codes/SynthLip/SynthLipN/bin/Release/net6.0-windows8.0/publish/Skin/template/B.png</pathurl>
              <rate>
                <ntsc>FALSE</ntsc>
                <timebase>25</timebase>
              </rate>
              <duration>2</duration>
              <width>1920</width>
              <height>1080</height>
              <media>
                <video>
                  <duration>2</duration>
                  <stillframe>TRUE</stillframe>
                  <samplecharacteristics>
                    <rate>
                      <ntsc>FALSE</ntsc>
                      <timebase>25</timebase>
                    </rate>
                    <width>1920</width>
                    <height>1080</height>
                    <pixelaspectratio>Square</pixelaspectratio>
                    <anamorphic>FALSE</anamorphic>
                  </samplecharacteristics>
                </video>
              </media>
            </file>
            <sourcetrack>
              <mediatype>video</mediatype>
            </sourcetrack>
            <fielddominance>none</fielddominance>
          </clipitem>
          <clipitem id="F.png568">
            <name>F.png</name>
            <duration>5.63</duration>
            <rate>
              <ntsc>FALSE</ntsc>
              <timebase>25</timebase>
            </rate>
            <in>91839.37</in>
            <out>91845</out>
            <start>1839.37</start>
            <end>1845</end>
            <pixelaspectratio>Square</pixelaspectratio>
            <stillframe>TRUE</stillframe>
            <anamorphic>FALSE</anamorphic>
            <alphatype>straight</alphatype>
            <masterclipid>F.png568</masterclipid>
            <file id="F">
              <name>F.png</name>
              <pathurl>D:/Codes/SynthLip/SynthLipN/bin/Release/net6.0-windows8.0/publish/Skin/template/F.png</pathurl>
              <rate>
                <ntsc>FALSE</ntsc>
                <timebase>25</timebase>
              </rate>
              <duration>2</duration>
              <width>1920</width>
              <height>1080</height>
              <media>
                <video>
                  <duration>2</duration>
                  <stillframe>TRUE</stillframe>
                  <samplecharacteristics>
                    <rate>
                      <ntsc>FALSE</ntsc>
                      <timebase>25</timebase>
                    </rate>
                    <width>1920</width>
                    <height>1080</height>
                    <pixelaspectratio>Square</pixelaspectratio>
                    <anamorphic>FALSE</anamorphic>
                  </samplecharacteristics>
                </video>
              </media>
            </file>
            <sourcetrack>
              <mediatype>video</mediatype>
            </sourcetrack>
            <fielddominance>none</fielddominance>
          </clipitem>
          <clipitem id="F.png567">
            <name>F.png</name>
            <duration>2.34</duration>
            <rate>
              <ntsc>FALSE</ntsc>
              <timebase>25</timebase>
            </rate>
            <in>91837.03</in>
            <out>91839.375</out>
            <start>1837.03</start>
            <end>1839.37</end>
            <pixelaspectratio>Square</pixelaspectratio>
            <stillframe>TRUE</stillframe>
            <anamorphic>FALSE</anamorphic>
            <alphatype>straight</alphatype>
            <masterclipid>F.png567</masterclipid>
            <file id="F">
              <name>F.png</name>
              <pathurl>D:/Codes/SynthLip/SynthLipN/bin/Release/net6.0-windows8.0/publish/Skin/template/F.png</pathurl>
              <rate>
                <ntsc>FALSE</ntsc>
                <timebase>25</timebase>
              </rate>
              <duration>2</duration>
              <width>1920</width>
              <height>1080</height>
              <media>
                <video>
                  <duration>2</duration>
                  <stillframe>TRUE</stillframe>
                  <samplecharacteristics>
                    <rate>
                      <ntsc>FALSE</ntsc>
                      <timebase>25</timebase>
                    </rate>
                    <width>1920</width>
                    <height>1080</height>
                    <pixelaspectratio>Square</pixelaspectratio>
                    <anamorphic>FALSE</anamorphic>
                  </samplecharacteristics>
                </video>
              </media>
            </file>
            <sourcetrack>
              <mediatype>video</mediatype>
            </sourcetrack>
            <fielddominance>none</fielddominance>
          </clipitem>
          <clipitem id="B.png566">
            <name>B.png</name>
            <duration>1.41</duration>
            <rate>
              <ntsc>FALSE</ntsc>
              <timebase>25</timebase>
            </rate>
            <in>91835.63</in>
            <out>91837.04</out>
            <start>1835.63</start>
            <end>1837.04</end>
            <pixelaspectratio>Square</pixelaspectratio>
            <stillframe>TRUE</stillframe>
            <anamorphic>FALSE</anamorphic>
            <alphatype>straight</alphatype>
            <masterclipid>B.png566</masterclipid>
            <file id="B">
              <name>B.png</name>
              <pathurl>D:/Codes/SynthLip/SynthLipN/bin/Release/net6.0-windows8.0/publish/Skin/template/B.png</pathurl>
              <rate>
                <ntsc>FALSE</ntsc>
                <timebase>25</timebase>
              </rate>
              <duration>2</duration>
              <width>1920</width>
              <height>1080</height>
              <media>
                <video>
                  <duration>2</duration>
                  <stillframe>TRUE</stillframe>
                  <samplecharacteristics>
                    <rate>
                      <ntsc>FALSE</ntsc>
                      <timebase>25</timebase>
                    </rate>
                    <width>1920</width>
                    <height>1080</height>
                    <pixelaspectratio>Square</pixelaspectratio>
                    <anamorphic>FALSE</anamorphic>
                  </samplecharacteristics>
                </video>
              </media>
            </file>
            <sourcetrack>
              <mediatype>video</mediatype>
            </sourcetrack>
            <fielddominance>none</fielddominance>
          </clipitem>
          <clipitem id="C.png565">
            <name>C.png</name>
            <duration>1.88</duration>
            <rate>
              <ntsc>FALSE</ntsc>
              <timebase>25</timebase>
            </rate>
            <in>91833.75</in>
            <out>91835.63</out>
            <start>1833.75</start>
            <end>1835.63</end>
            <pixelaspectratio>Square</pixelaspectratio>
            <stillframe>TRUE</stillframe>
            <anamorphic>FALSE</anamorphic>
            <alphatype>straight</alphatype>
            <masterclipid>C.png565</masterclipid>
            <file id="C">
              <name>C.png</name>
              <pathurl>D:/Codes/SynthLip/SynthLipN/bin/Release/net6.0-windows8.0/publish/Skin/template/C.png</pathurl>
              <rate>
                <ntsc>FALSE</ntsc>
                <timebase>25</timebase>
              </rate>
              <duration>2</duration>
              <width>1920</width>
              <height>1080</height>
              <media>
                <video>
                  <duration>2</duration>
                  <stillframe>TRUE</stillframe>
                  <samplecharacteristics>
                    <rate>
                      <ntsc>FALSE</ntsc>
                      <timebase>25</timebase>
                    </rate>
                    <width>1920</width>
                    <height>1080</height>
                    <pixelaspectratio>Square</pixelaspectratio>
                    <anamorphic>FALSE</anamorphic>
                  </samplecharacteristics>
                </video>
              </media>
            </file>
            <sourcetrack>
              <mediatype>video</mediatype>
            </sourcetrack>
            <fielddominance>none</fielddominance>
          </clipitem>
          <clipitem id="C.png564">
            <name>C.png</name>
            <duration>2.81</duration>
            <rate>
              <ntsc>FALSE</ntsc>
              <timebase>25</timebase>
            </rate>
            <in>91830.94</in>
            <out>91833.75</out>
            <start>1830.94</start>
            <end>1833.75</end>
            <pixelaspectratio>Square</pixelaspectratio>
            <stillframe>TRUE</stillframe>
            <anamorphic>FALSE</anamorphic>
            <alphatype>straight</alphatype>
            <masterclipid>C.png564</masterclipid>
            <file id="C">
              <name>C.png</name>
              <pathurl>D:/Codes/SynthLip/SynthLipN/bin/Release/net6.0-windows8.0/publish/Skin/template/C.png</pathurl>
              <rate>
                <ntsc>FALSE</ntsc>
                <timebase>25</timebase>
              </rate>
              <duration>2</duration>
              <width>1920</width>
              <height>1080</height>
              <media>
                <video>
                  <duration>2</duration>
                  <stillframe>TRUE</stillframe>
                  <samplecharacteristics>
                    <rate>
                      <ntsc>FALSE</ntsc>
                      <timebase>25</timebase>
                    </rate>
                    <width>1920</width>
                    <height>1080</height>
                    <pixelaspectratio>Square</pixelaspectratio>
                    <anamorphic>FALSE</anamorphic>
                  </samplecharacteristics>
                </video>
              </media>
            </file>
            <sourcetrack>
              <mediatype>video</mediatype>
            </sourcetrack>
            <fielddominance>none</fielddominance>
          </clipitem>
          <clipitem id="B.png563">
            <name>B.png</name>
            <duration>0.94</duration>
            <rate>
              <ntsc>FALSE</ntsc>
              <timebase>25</timebase>
            </rate>
            <in>91830</in>
            <out>91830.94</out>
            <start>1830</start>
            <end>1830.94</end>
            <pixelaspectratio>Square</pixelaspectratio>
            <stillframe>TRUE</stillframe>
            <anamorphic>FALSE</anamorphic>
            <alphatype>straight</alphatype>
            <masterclipid>B.png563</masterclipid>
            <file id="B">
              <name>B.png</name>
              <pathurl>D:/Codes/SynthLip/SynthLipN/bin/Release/net6.0-windows8.0/publish/Skin/template/B.png</pathurl>
              <rate>
                <ntsc>FALSE</ntsc>
                <timebase>25</timebase>
              </rate>
              <duration>2</duration>
              <width>1920</width>
              <height>1080</height>
              <media>
                <video>
                  <duration>2</duration>
                  <stillframe>TRUE</stillframe>
                  <samplecharacteristics>
                    <rate>
                      <ntsc>FALSE</ntsc>
                      <timebase>25</timebase>
                    </rate>
                    <width>1920</width>
                    <height>1080</height>
                    <pixelaspectratio>Square</pixelaspectratio>
                    <anamorphic>FALSE</anamorphic>
                  </samplecharacteristics>
                </video>
              </media>
            </file>
            <sourcetrack>
              <mediatype>video</mediatype>
            </sourcetrack>
            <fielddominance>none</fielddominance>
          </clipitem>
          <clipitem id="A.png562">
            <name>A.png</name>
            <duration>8.75</duration>
            <rate>
              <ntsc>FALSE</ntsc>
              <timebase>25</timebase>
            </rate>
            <in>91821.25</in>
            <out>91830</out>
            <start>1821.25</start>
            <end>1830</end>
            <pixelaspectratio>Square</pixelaspectratio>
            <stillframe>TRUE</stillframe>
            <anamorphic>FALSE</anamorphic>
            <alphatype>straight</alphatype>
            <masterclipid>A.png562</masterclipid>
            <file id="A">
              <name>A.png</name>
              <pathurl>D:/Codes/SynthLip/SynthLipN/bin/Release/net6.0-windows8.0/publish/Skin/template/A.png</pathurl>
              <rate>
                <ntsc>FALSE</ntsc>
                <timebase>25</timebase>
              </rate>
              <duration>2</duration>
              <width>1920</width>
              <height>1080</height>
              <media>
                <video>
                  <duration>2</duration>
                  <stillframe>TRUE</stillframe>
                  <samplecharacteristics>
                    <rate>
                      <ntsc>FALSE</ntsc>
                      <timebase>25</timebase>
                    </rate>
                    <width>1920</width>
                    <height>1080</height>
                    <pixelaspectratio>Square</pixelaspectratio>
                    <anamorphic>FALSE</anamorphic>
                  </samplecharacteristics>
                </video>
              </media>
            </file>
            <sourcetrack>
              <mediatype>video</mediatype>
            </sourcetrack>
            <fielddominance>none</fielddominance>
          </clipitem>
          <clipitem id="B.png561">
            <name>B.png</name>
            <duration>1.25</duration>
            <rate>
              <ntsc>FALSE</ntsc>
              <timebase>25</timebase>
            </rate>
            <in>91820</in>
            <out>91821.25</out>
            <start>1820</start>
            <end>1821.25</end>
            <pixelaspectratio>Square</pixelaspectratio>
            <stillframe>TRUE</stillframe>
            <anamorphic>FALSE</anamorphic>
            <alphatype>straight</alphatype>
            <masterclipid>B.png561</masterclipid>
            <file id="B">
              <name>B.png</name>
              <pathurl>D:/Codes/SynthLip/SynthLipN/bin/Release/net6.0-windows8.0/publish/Skin/template/B.png</pathurl>
              <rate>
                <ntsc>FALSE</ntsc>
                <timebase>25</timebase>
              </rate>
              <duration>2</duration>
              <width>1920</width>
              <height>1080</height>
              <media>
                <video>
                  <duration>2</duration>
                  <stillframe>TRUE</stillframe>
                  <samplecharacteristics>
                    <rate>
                      <ntsc>FALSE</ntsc>
                      <timebase>25</timebase>
                    </rate>
                    <width>1920</width>
                    <height>1080</height>
                    <pixelaspectratio>Square</pixelaspectratio>
                    <anamorphic>FALSE</anamorphic>
                  </samplecharacteristics>
                </video>
              </media>
            </file>
            <sourcetrack>
              <mediatype>video</mediatype>
            </sourcetrack>
            <fielddominance>none</fielddominance>
          </clipitem>
          <clipitem id="D.png560">
            <name>D.png</name>
            <duration>3.75</duration>
            <rate>
              <ntsc>FALSE</ntsc>
              <timebase>25</timebase>
            </rate>
            <in>91816.25</in>
            <out>91820</out>
            <start>1816.25</start>
            <end>1820</end>
            <pixelaspectratio>Square</pixelaspectratio>
            <stillframe>TRUE</stillframe>
            <anamorphic>FALSE</anamorphic>
            <alphatype>straight</alphatype>
            <masterclipid>D.png560</masterclipid>
            <file id="D">
              <name>D.png</name>
              <pathurl>D:/Codes/SynthLip/SynthLipN/bin/Release/net6.0-windows8.0/publish/Skin/template/D.png</pathurl>
              <rate>
                <ntsc>FALSE</ntsc>
                <timebase>25</timebase>
              </rate>
              <duration>2</duration>
              <width>1920</width>
              <height>1080</height>
              <media>
                <video>
                  <duration>2</duration>
                  <stillframe>TRUE</stillframe>
                  <samplecharacteristics>
                    <rate>
                      <ntsc>FALSE</ntsc>
                      <timebase>25</timebase>
                    </rate>
                    <width>1920</width>
                    <height>1080</height>
                    <pixelaspectratio>Square</pixelaspectratio>
                    <anamorphic>FALSE</anamorphic>
                  </samplecharacteristics>
                </video>
              </media>
            </file>
            <sourcetrack>
              <mediatype>video</mediatype>
            </sourcetrack>
            <fielddominance>none</fielddominance>
          </clipitem>
          <clipitem id="B.png559">
            <name>B.png</name>
            <duration>1.25</duration>
            <rate>
              <ntsc>FALSE</ntsc>
              <timebase>25</timebase>
            </rate>
            <in>91815</in>
            <out>91816.25</out>
            <start>1815</start>
            <end>1816.25</end>
            <pixelaspectratio>Square</pixelaspectratio>
            <stillframe>TRUE</stillframe>
            <anamorphic>FALSE</anamorphic>
            <alphatype>straight</alphatype>
            <masterclipid>B.png559</masterclipid>
            <file id="B">
              <name>B.png</name>
              <pathurl>D:/Codes/SynthLip/SynthLipN/bin/Release/net6.0-windows8.0/publish/Skin/template/B.png</pathurl>
              <rate>
                <ntsc>FALSE</ntsc>
                <timebase>25</timebase>
              </rate>
              <duration>2</duration>
              <width>1920</width>
              <height>1080</height>
              <media>
                <video>
                  <duration>2</duration>
                  <stillframe>TRUE</stillframe>
                  <samplecharacteristics>
                    <rate>
                      <ntsc>FALSE</ntsc>
                      <timebase>25</timebase>
                    </rate>
                    <width>1920</width>
                    <height>1080</height>
                    <pixelaspectratio>Square</pixelaspectratio>
                    <anamorphic>FALSE</anamorphic>
                  </samplecharacteristics>
                </video>
              </media>
            </file>
            <sourcetrack>
              <mediatype>video</mediatype>
            </sourcetrack>
            <fielddominance>none</fielddominance>
          </clipitem>
          <clipitem id="F.png558">
            <name>F.png</name>
            <duration>3.75</duration>
            <rate>
              <ntsc>FALSE</ntsc>
              <timebase>25</timebase>
            </rate>
            <in>91811.25</in>
            <out>91815</out>
            <start>1811.25</start>
            <end>1815</end>
            <pixelaspectratio>Square</pixelaspectratio>
            <stillframe>TRUE</stillframe>
            <anamorphic>FALSE</anamorphic>
            <alphatype>straight</alphatype>
            <masterclipid>F.png558</masterclipid>
            <file id="F">
              <name>F.png</name>
              <pathurl>D:/Codes/SynthLip/SynthLipN/bin/Release/net6.0-windows8.0/publish/Skin/template/F.png</pathurl>
              <rate>
                <ntsc>FALSE</ntsc>
                <timebase>25</timebase>
              </rate>
              <duration>2</duration>
              <width>1920</width>
              <height>1080</height>
              <media>
                <video>
                  <duration>2</duration>
                  <stillframe>TRUE</stillframe>
                  <samplecharacteristics>
                    <rate>
                      <ntsc>FALSE</ntsc>
                      <timebase>25</timebase>
                    </rate>
                    <width>1920</width>
                    <height>1080</height>
                    <pixelaspectratio>Square</pixelaspectratio>
                    <anamorphic>FALSE</anamorphic>
                  </samplecharacteristics>
                </video>
              </media>
            </file>
            <sourcetrack>
              <mediatype>video</mediatype>
            </sourcetrack>
            <fielddominance>none</fielddominance>
          </clipitem>
          <clipitem id="F.png557">
            <name>F.png</name>
            <duration>1.87</duration>
            <rate>
              <ntsc>FALSE</ntsc>
              <timebase>25</timebase>
            </rate>
            <in>91809.38</in>
            <out>91811.25</out>
            <start>1809.38</start>
            <end>1811.25</end>
            <pixelaspectratio>Square</pixelaspectratio>
            <stillframe>TRUE</stillframe>
            <anamorphic>FALSE</anamorphic>
            <alphatype>straight</alphatype>
            <masterclipid>F.png557</masterclipid>
            <file id="F">
              <name>F.png</name>
              <pathurl>D:/Codes/SynthLip/SynthLipN/bin/Release/net6.0-windows8.0/publish/Skin/template/F.png</pathurl>
              <rate>
                <ntsc>FALSE</ntsc>
                <timebase>25</timebase>
              </rate>
              <duration>2</duration>
              <width>1920</width>
              <height>1080</height>
              <media>
                <video>
                  <duration>2</duration>
                  <stillframe>TRUE</stillframe>
                  <samplecharacteristics>
                    <rate>
                      <ntsc>FALSE</ntsc>
                      <timebase>25</timebase>
                    </rate>
                    <width>1920</width>
                    <height>1080</height>
                    <pixelaspectratio>Square</pixelaspectratio>
                    <anamorphic>FALSE</anamorphic>
                  </samplecharacteristics>
                </video>
              </media>
            </file>
            <sourcetrack>
              <mediatype>video</mediatype>
            </sourcetrack>
            <fielddominance>none</fielddominance>
          </clipitem>
          <clipitem id="F.png556">
            <name>F.png</name>
            <duration>1.41</duration>
            <rate>
              <ntsc>FALSE</ntsc>
              <timebase>25</timebase>
            </rate>
            <in>91807.97</in>
            <out>91809.375</out>
            <start>1807.97</start>
            <end>1809.38</end>
            <pixelaspectratio>Square</pixelaspectratio>
            <stillframe>TRUE</stillframe>
            <anamorphic>FALSE</anamorphic>
            <alphatype>straight</alphatype>
            <masterclipid>F.png556</masterclipid>
            <file id="F">
              <name>F.png</name>
              <pathurl>D:/Codes/SynthLip/SynthLipN/bin/Release/net6.0-windows8.0/publish/Skin/template/F.png</pathurl>
              <rate>
                <ntsc>FALSE</ntsc>
                <timebase>25</timebase>
              </rate>
              <duration>2</duration>
              <width>1920</width>
              <height>1080</height>
              <media>
                <video>
                  <duration>2</duration>
                  <stillframe>TRUE</stillframe>
                  <samplecharacteristics>
                    <rate>
                      <ntsc>FALSE</ntsc>
                      <timebase>25</timebase>
                    </rate>
                    <width>1920</width>
                    <height>1080</height>
                    <pixelaspectratio>Square</pixelaspectratio>
                    <anamorphic>FALSE</anamorphic>
                  </samplecharacteristics>
                </video>
              </media>
            </file>
            <sourcetrack>
              <mediatype>video</mediatype>
            </sourcetrack>
            <fielddominance>none</fielddominance>
          </clipitem>
          <clipitem id="B.png555">
            <name>B.png</name>
            <duration>0.47</duration>
            <rate>
              <ntsc>FALSE</ntsc>
              <timebase>25</timebase>
            </rate>
            <in>91807.5</in>
            <out>91807.97</out>
            <start>1807.5</start>
            <end>1807.97</end>
            <pixelaspectratio>Square</pixelaspectratio>
            <stillframe>TRUE</stillframe>
            <anamorphic>FALSE</anamorphic>
            <alphatype>straight</alphatype>
            <masterclipid>B.png555</masterclipid>
            <file id="B">
              <name>B.png</name>
              <pathurl>D:/Codes/SynthLip/SynthLipN/bin/Release/net6.0-windows8.0/publish/Skin/template/B.png</pathurl>
              <rate>
                <ntsc>FALSE</ntsc>
                <timebase>25</timebase>
              </rate>
              <duration>2</duration>
              <width>1920</width>
              <height>1080</height>
              <media>
                <video>
                  <duration>2</duration>
                  <stillframe>TRUE</stillframe>
                  <samplecharacteristics>
                    <rate>
                      <ntsc>FALSE</ntsc>
                      <timebase>25</timebase>
                    </rate>
                    <width>1920</width>
                    <height>1080</height>
                    <pixelaspectratio>Square</pixelaspectratio>
                    <anamorphic>FALSE</anamorphic>
                  </samplecharacteristics>
                </video>
              </media>
            </file>
            <sourcetrack>
              <mediatype>video</mediatype>
            </sourcetrack>
            <fielddominance>none</fielddominance>
          </clipitem>
          <clipitem id="C.png554">
            <name>C.png</name>
            <duration>5.63</duration>
            <rate>
              <ntsc>FALSE</ntsc>
              <timebase>25</timebase>
            </rate>
            <in>91801.87</in>
            <out>91807.5</out>
            <start>1801.87</start>
            <end>1807.5</end>
            <pixelaspectratio>Square</pixelaspectratio>
            <stillframe>TRUE</stillframe>
            <anamorphic>FALSE</anamorphic>
            <alphatype>straight</alphatype>
            <masterclipid>C.png554</masterclipid>
            <file id="C">
              <name>C.png</name>
              <pathurl>D:/Codes/SynthLip/SynthLipN/bin/Release/net6.0-windows8.0/publish/Skin/template/C.png</pathurl>
              <rate>
                <ntsc>FALSE</ntsc>
                <timebase>25</timebase>
              </rate>
              <duration>2</duration>
              <width>1920</width>
              <height>1080</height>
              <media>
                <video>
                  <duration>2</duration>
                  <stillframe>TRUE</stillframe>
                  <samplecharacteristics>
                    <rate>
                      <ntsc>FALSE</ntsc>
                      <timebase>25</timebase>
                    </rate>
                    <width>1920</width>
                    <height>1080</height>
                    <pixelaspectratio>Square</pixelaspectratio>
                    <anamorphic>FALSE</anamorphic>
                  </samplecharacteristics>
                </video>
              </media>
            </file>
            <sourcetrack>
              <mediatype>video</mediatype>
            </sourcetrack>
            <fielddominance>none</fielddominance>
          </clipitem>
          <clipitem id="A.png553">
            <name>A.png</name>
            <duration>1.88</duration>
            <rate>
              <ntsc>FALSE</ntsc>
              <timebase>25</timebase>
            </rate>
            <in>91800</in>
            <out>91801.88</out>
            <start>1800</start>
            <end>1801.88</end>
            <pixelaspectratio>Square</pixelaspectratio>
            <stillframe>TRUE</stillframe>
            <anamorphic>FALSE</anamorphic>
            <alphatype>straight</alphatype>
            <masterclipid>A.png553</masterclipid>
            <file id="A">
              <name>A.png</name>
              <pathurl>D:/Codes/SynthLip/SynthLipN/bin/Release/net6.0-windows8.0/publish/Skin/template/A.png</pathurl>
              <rate>
                <ntsc>FALSE</ntsc>
                <timebase>25</timebase>
              </rate>
              <duration>2</duration>
              <width>1920</width>
              <height>1080</height>
              <media>
                <video>
                  <duration>2</duration>
                  <stillframe>TRUE</stillframe>
                  <samplecharacteristics>
                    <rate>
                      <ntsc>FALSE</ntsc>
                      <timebase>25</timebase>
                    </rate>
                    <width>1920</width>
                    <height>1080</height>
                    <pixelaspectratio>Square</pixelaspectratio>
                    <anamorphic>FALSE</anamorphic>
                  </samplecharacteristics>
                </video>
              </media>
            </file>
            <sourcetrack>
              <mediatype>video</mediatype>
            </sourcetrack>
            <fielddominance>none</fielddominance>
          </clipitem>
          <clipitem id="B.png552">
            <name>B.png</name>
            <duration>4.38</duration>
            <rate>
              <ntsc>FALSE</ntsc>
              <timebase>25</timebase>
            </rate>
            <in>91795.62</in>
            <out>91800</out>
            <start>1795.62</start>
            <end>1800</end>
            <pixelaspectratio>Square</pixelaspectratio>
            <stillframe>TRUE</stillframe>
            <anamorphic>FALSE</anamorphic>
            <alphatype>straight</alphatype>
            <masterclipid>B.png552</masterclipid>
            <file id="B">
              <name>B.png</name>
              <pathurl>D:/Codes/SynthLip/SynthLipN/bin/Release/net6.0-windows8.0/publish/Skin/template/B.png</pathurl>
              <rate>
                <ntsc>FALSE</ntsc>
                <timebase>25</timebase>
              </rate>
              <duration>2</duration>
              <width>1920</width>
              <height>1080</height>
              <media>
                <video>
                  <duration>2</duration>
                  <stillframe>TRUE</stillframe>
                  <samplecharacteristics>
                    <rate>
                      <ntsc>FALSE</ntsc>
                      <timebase>25</timebase>
                    </rate>
                    <width>1920</width>
                    <height>1080</height>
                    <pixelaspectratio>Square</pixelaspectratio>
                    <anamorphic>FALSE</anamorphic>
                  </samplecharacteristics>
                </video>
              </media>
            </file>
            <sourcetrack>
              <mediatype>video</mediatype>
            </sourcetrack>
            <fielddominance>none</fielddominance>
          </clipitem>
          <clipitem id="B.png551">
            <name>B.png</name>
            <duration>0.63</duration>
            <rate>
              <ntsc>FALSE</ntsc>
              <timebase>25</timebase>
            </rate>
            <in>91795</in>
            <out>91795.63</out>
            <start>1795</start>
            <end>1795.63</end>
            <pixelaspectratio>Square</pixelaspectratio>
            <stillframe>TRUE</stillframe>
            <anamorphic>FALSE</anamorphic>
            <alphatype>straight</alphatype>
            <masterclipid>B.png551</masterclipid>
            <file id="B">
              <name>B.png</name>
              <pathurl>D:/Codes/SynthLip/SynthLipN/bin/Release/net6.0-windows8.0/publish/Skin/template/B.png</pathurl>
              <rate>
                <ntsc>FALSE</ntsc>
                <timebase>25</timebase>
              </rate>
              <duration>2</duration>
              <width>1920</width>
              <height>1080</height>
              <media>
                <video>
                  <duration>2</duration>
                  <stillframe>TRUE</stillframe>
                  <samplecharacteristics>
                    <rate>
                      <ntsc>FALSE</ntsc>
                      <timebase>25</timebase>
                    </rate>
                    <width>1920</width>
                    <height>1080</height>
                    <pixelaspectratio>Square</pixelaspectratio>
                    <anamorphic>FALSE</anamorphic>
                  </samplecharacteristics>
                </video>
              </media>
            </file>
            <sourcetrack>
              <mediatype>video</mediatype>
            </sourcetrack>
            <fielddominance>none</fielddominance>
          </clipitem>
          <clipitem id="C.png550">
            <name>C.png</name>
            <duration>2.5</duration>
            <rate>
              <ntsc>FALSE</ntsc>
              <timebase>25</timebase>
            </rate>
            <in>91792.5</in>
            <out>91795</out>
            <start>1792.5</start>
            <end>1795</end>
            <pixelaspectratio>Square</pixelaspectratio>
            <stillframe>TRUE</stillframe>
            <anamorphic>FALSE</anamorphic>
            <alphatype>straight</alphatype>
            <masterclipid>C.png550</masterclipid>
            <file id="C">
              <name>C.png</name>
              <pathurl>D:/Codes/SynthLip/SynthLipN/bin/Release/net6.0-windows8.0/publish/Skin/template/C.png</pathurl>
              <rate>
                <ntsc>FALSE</ntsc>
                <timebase>25</timebase>
              </rate>
              <duration>2</duration>
              <width>1920</width>
              <height>1080</height>
              <media>
                <video>
                  <duration>2</duration>
                  <stillframe>TRUE</stillframe>
                  <samplecharacteristics>
                    <rate>
                      <ntsc>FALSE</ntsc>
                      <timebase>25</timebase>
                    </rate>
                    <width>1920</width>
                    <height>1080</height>
                    <pixelaspectratio>Square</pixelaspectratio>
                    <anamorphic>FALSE</anamorphic>
                  </samplecharacteristics>
                </video>
              </media>
            </file>
            <sourcetrack>
              <mediatype>video</mediatype>
            </sourcetrack>
            <fielddominance>none</fielddominance>
          </clipitem>
          <clipitem id="G.png549">
            <name>G.png</name>
            <duration>1.25</duration>
            <rate>
              <ntsc>FALSE</ntsc>
              <timebase>25</timebase>
            </rate>
            <in>91791.25</in>
            <out>91792.5</out>
            <start>1791.25</start>
            <end>1792.5</end>
            <pixelaspectratio>Square</pixelaspectratio>
            <stillframe>TRUE</stillframe>
            <anamorphic>FALSE</anamorphic>
            <alphatype>straight</alphatype>
            <masterclipid>G.png549</masterclipid>
            <file id="G">
              <name>G.png</name>
              <pathurl>D:/Codes/SynthLip/SynthLipN/bin/Release/net6.0-windows8.0/publish/Skin/template/G.png</pathurl>
              <rate>
                <ntsc>FALSE</ntsc>
                <timebase>25</timebase>
              </rate>
              <duration>2</duration>
              <width>1920</width>
              <height>1080</height>
              <media>
                <video>
                  <duration>2</duration>
                  <stillframe>TRUE</stillframe>
                  <samplecharacteristics>
                    <rate>
                      <ntsc>FALSE</ntsc>
                      <timebase>25</timebase>
                    </rate>
                    <width>1920</width>
                    <height>1080</height>
                    <pixelaspectratio>Square</pixelaspectratio>
                    <anamorphic>FALSE</anamorphic>
                  </samplecharacteristics>
                </video>
              </media>
            </file>
            <sourcetrack>
              <mediatype>video</mediatype>
            </sourcetrack>
            <fielddominance>none</fielddominance>
          </clipitem>
          <clipitem id="A.png548">
            <name>A.png</name>
            <duration>1.25</duration>
            <rate>
              <ntsc>FALSE</ntsc>
              <timebase>25</timebase>
            </rate>
            <in>91790</in>
            <out>91791.25</out>
            <start>1790</start>
            <end>1791.25</end>
            <pixelaspectratio>Square</pixelaspectratio>
            <stillframe>TRUE</stillframe>
            <anamorphic>FALSE</anamorphic>
            <alphatype>straight</alphatype>
            <masterclipid>A.png548</masterclipid>
            <file id="A">
              <name>A.png</name>
              <pathurl>D:/Codes/SynthLip/SynthLipN/bin/Release/net6.0-windows8.0/publish/Skin/template/A.png</pathurl>
              <rate>
                <ntsc>FALSE</ntsc>
                <timebase>25</timebase>
              </rate>
              <duration>2</duration>
              <width>1920</width>
              <height>1080</height>
              <media>
                <video>
                  <duration>2</duration>
                  <stillframe>TRUE</stillframe>
                  <samplecharacteristics>
                    <rate>
                      <ntsc>FALSE</ntsc>
                      <timebase>25</timebase>
                    </rate>
                    <width>1920</width>
                    <height>1080</height>
                    <pixelaspectratio>Square</pixelaspectratio>
                    <anamorphic>FALSE</anamorphic>
                  </samplecharacteristics>
                </video>
              </media>
            </file>
            <sourcetrack>
              <mediatype>video</mediatype>
            </sourcetrack>
            <fielddominance>none</fielddominance>
          </clipitem>
          <clipitem id="D.png547">
            <name>D.png</name>
            <duration>4.37</duration>
            <rate>
              <ntsc>FALSE</ntsc>
              <timebase>25</timebase>
            </rate>
            <in>91785.63</in>
            <out>91790</out>
            <start>1785.63</start>
            <end>1790</end>
            <pixelaspectratio>Square</pixelaspectratio>
            <stillframe>TRUE</stillframe>
            <anamorphic>FALSE</anamorphic>
            <alphatype>straight</alphatype>
            <masterclipid>D.png547</masterclipid>
            <file id="D">
              <name>D.png</name>
              <pathurl>D:/Codes/SynthLip/SynthLipN/bin/Release/net6.0-windows8.0/publish/Skin/template/D.png</pathurl>
              <rate>
                <ntsc>FALSE</ntsc>
                <timebase>25</timebase>
              </rate>
              <duration>2</duration>
              <width>1920</width>
              <height>1080</height>
              <media>
                <video>
                  <duration>2</duration>
                  <stillframe>TRUE</stillframe>
                  <samplecharacteristics>
                    <rate>
                      <ntsc>FALSE</ntsc>
                      <timebase>25</timebase>
                    </rate>
                    <width>1920</width>
                    <height>1080</height>
                    <pixelaspectratio>Square</pixelaspectratio>
                    <anamorphic>FALSE</anamorphic>
                  </samplecharacteristics>
                </video>
              </media>
            </file>
            <sourcetrack>
              <mediatype>video</mediatype>
            </sourcetrack>
            <fielddominance>none</fielddominance>
          </clipitem>
          <clipitem id="B.png546">
            <name>B.png</name>
            <duration>1.88</duration>
            <rate>
              <ntsc>FALSE</ntsc>
              <timebase>25</timebase>
            </rate>
            <in>91783.75</in>
            <out>91785.63</out>
            <start>1783.75</start>
            <end>1785.63</end>
            <pixelaspectratio>Square</pixelaspectratio>
            <stillframe>TRUE</stillframe>
            <anamorphic>FALSE</anamorphic>
            <alphatype>straight</alphatype>
            <masterclipid>B.png546</masterclipid>
            <file id="B">
              <name>B.png</name>
              <pathurl>D:/Codes/SynthLip/SynthLipN/bin/Release/net6.0-windows8.0/publish/Skin/template/B.png</pathurl>
              <rate>
                <ntsc>FALSE</ntsc>
                <timebase>25</timebase>
              </rate>
              <duration>2</duration>
              <width>1920</width>
              <height>1080</height>
              <media>
                <video>
                  <duration>2</duration>
                  <stillframe>TRUE</stillframe>
                  <samplecharacteristics>
                    <rate>
                      <ntsc>FALSE</ntsc>
                      <timebase>25</timebase>
                    </rate>
                    <width>1920</width>
                    <height>1080</height>
                    <pixelaspectratio>Square</pixelaspectratio>
                    <anamorphic>FALSE</anamorphic>
                  </samplecharacteristics>
                </video>
              </media>
            </file>
            <sourcetrack>
              <mediatype>video</mediatype>
            </sourcetrack>
            <fielddominance>none</fielddominance>
          </clipitem>
          <clipitem id="B.png545">
            <name>B.png</name>
            <duration>1.25</duration>
            <rate>
              <ntsc>FALSE</ntsc>
              <timebase>25</timebase>
            </rate>
            <in>91782.5</in>
            <out>91783.75</out>
            <start>1782.5</start>
            <end>1783.75</end>
            <pixelaspectratio>Square</pixelaspectratio>
            <stillframe>TRUE</stillframe>
            <anamorphic>FALSE</anamorphic>
            <alphatype>straight</alphatype>
            <masterclipid>B.png545</masterclipid>
            <file id="B">
              <name>B.png</name>
              <pathurl>D:/Codes/SynthLip/SynthLipN/bin/Release/net6.0-windows8.0/publish/Skin/template/B.png</pathurl>
              <rate>
                <ntsc>FALSE</ntsc>
                <timebase>25</timebase>
              </rate>
              <duration>2</duration>
              <width>1920</width>
              <height>1080</height>
              <media>
                <video>
                  <duration>2</duration>
                  <stillframe>TRUE</stillframe>
                  <samplecharacteristics>
                    <rate>
                      <ntsc>FALSE</ntsc>
                      <timebase>25</timebase>
                    </rate>
                    <width>1920</width>
                    <height>1080</height>
                    <pixelaspectratio>Square</pixelaspectratio>
                    <anamorphic>FALSE</anamorphic>
                  </samplecharacteristics>
                </video>
              </media>
            </file>
            <sourcetrack>
              <mediatype>video</mediatype>
            </sourcetrack>
            <fielddominance>none</fielddominance>
          </clipitem>
          <clipitem id="D.png544">
            <name>D.png</name>
            <duration>3.75</duration>
            <rate>
              <ntsc>FALSE</ntsc>
              <timebase>25</timebase>
            </rate>
            <in>91778.75</in>
            <out>91782.5</out>
            <start>1778.75</start>
            <end>1782.5</end>
            <pixelaspectratio>Square</pixelaspectratio>
            <stillframe>TRUE</stillframe>
            <anamorphic>FALSE</anamorphic>
            <alphatype>straight</alphatype>
            <masterclipid>D.png544</masterclipid>
            <file id="D">
              <name>D.png</name>
              <pathurl>D:/Codes/SynthLip/SynthLipN/bin/Release/net6.0-windows8.0/publish/Skin/template/D.png</pathurl>
              <rate>
                <ntsc>FALSE</ntsc>
                <timebase>25</timebase>
              </rate>
              <duration>2</duration>
              <width>1920</width>
              <height>1080</height>
              <media>
                <video>
                  <duration>2</duration>
                  <stillframe>TRUE</stillframe>
                  <samplecharacteristics>
                    <rate>
                      <ntsc>FALSE</ntsc>
                      <timebase>25</timebase>
                    </rate>
                    <width>1920</width>
                    <height>1080</height>
                    <pixelaspectratio>Square</pixelaspectratio>
                    <anamorphic>FALSE</anamorphic>
                  </samplecharacteristics>
                </video>
              </media>
            </file>
            <sourcetrack>
              <mediatype>video</mediatype>
            </sourcetrack>
            <fielddominance>none</fielddominance>
          </clipitem>
          <clipitem id="B.png543">
            <name>B.png</name>
            <duration>1.25</duration>
            <rate>
              <ntsc>FALSE</ntsc>
              <timebase>25</timebase>
            </rate>
            <in>91777.5</in>
            <out>91778.75</out>
            <start>1777.5</start>
            <end>1778.75</end>
            <pixelaspectratio>Square</pixelaspectratio>
            <stillframe>TRUE</stillframe>
            <anamorphic>FALSE</anamorphic>
            <alphatype>straight</alphatype>
            <masterclipid>B.png543</masterclipid>
            <file id="B">
              <name>B.png</name>
              <pathurl>D:/Codes/SynthLip/SynthLipN/bin/Release/net6.0-windows8.0/publish/Skin/template/B.png</pathurl>
              <rate>
                <ntsc>FALSE</ntsc>
                <timebase>25</timebase>
              </rate>
              <duration>2</duration>
              <width>1920</width>
              <height>1080</height>
              <media>
                <video>
                  <duration>2</duration>
                  <stillframe>TRUE</stillframe>
                  <samplecharacteristics>
                    <rate>
                      <ntsc>FALSE</ntsc>
                      <timebase>25</timebase>
                    </rate>
                    <width>1920</width>
                    <height>1080</height>
                    <pixelaspectratio>Square</pixelaspectratio>
                    <anamorphic>FALSE</anamorphic>
                  </samplecharacteristics>
                </video>
              </media>
            </file>
            <sourcetrack>
              <mediatype>video</mediatype>
            </sourcetrack>
            <fielddominance>none</fielddominance>
          </clipitem>
          <clipitem id="E.png542">
            <name>E.png</name>
            <duration>5.62</duration>
            <rate>
              <ntsc>FALSE</ntsc>
              <timebase>25</timebase>
            </rate>
            <in>91771.88</in>
            <out>91777.5</out>
            <start>1771.88</start>
            <end>1777.5</end>
            <pixelaspectratio>Square</pixelaspectratio>
            <stillframe>TRUE</stillframe>
            <anamorphic>FALSE</anamorphic>
            <alphatype>straight</alphatype>
            <masterclipid>E.png542</masterclipid>
            <file id="E">
              <name>E.png</name>
              <pathurl>D:/Codes/SynthLip/SynthLipN/bin/Release/net6.0-windows8.0/publish/Skin/template/E.png</pathurl>
              <rate>
                <ntsc>FALSE</ntsc>
                <timebase>25</timebase>
              </rate>
              <duration>2</duration>
              <width>1920</width>
              <height>1080</height>
              <media>
                <video>
                  <duration>2</duration>
                  <stillframe>TRUE</stillframe>
                  <samplecharacteristics>
                    <rate>
                      <ntsc>FALSE</ntsc>
                      <timebase>25</timebase>
                    </rate>
                    <width>1920</width>
                    <height>1080</height>
                    <pixelaspectratio>Square</pixelaspectratio>
                    <anamorphic>FALSE</anamorphic>
                  </samplecharacteristics>
                </video>
              </media>
            </file>
            <sourcetrack>
              <mediatype>video</mediatype>
            </sourcetrack>
            <fielddominance>none</fielddominance>
          </clipitem>
          <clipitem id="E.png541">
            <name>E.png</name>
            <duration>1.41</duration>
            <rate>
              <ntsc>FALSE</ntsc>
              <timebase>25</timebase>
            </rate>
            <in>91770.47</in>
            <out>91771.875</out>
            <start>1770.47</start>
            <end>1771.88</end>
            <pixelaspectratio>Square</pixelaspectratio>
            <stillframe>TRUE</stillframe>
            <anamorphic>FALSE</anamorphic>
            <alphatype>straight</alphatype>
            <masterclipid>E.png541</masterclipid>
            <file id="E">
              <name>E.png</name>
              <pathurl>D:/Codes/SynthLip/SynthLipN/bin/Release/net6.0-windows8.0/publish/Skin/template/E.png</pathurl>
              <rate>
                <ntsc>FALSE</ntsc>
                <timebase>25</timebase>
              </rate>
              <duration>2</duration>
              <width>1920</width>
              <height>1080</height>
              <media>
                <video>
                  <duration>2</duration>
                  <stillframe>TRUE</stillframe>
                  <samplecharacteristics>
                    <rate>
                      <ntsc>FALSE</ntsc>
                      <timebase>25</timebase>
                    </rate>
                    <width>1920</width>
                    <height>1080</height>
                    <pixelaspectratio>Square</pixelaspectratio>
                    <anamorphic>FALSE</anamorphic>
                  </samplecharacteristics>
                </video>
              </media>
            </file>
            <sourcetrack>
              <mediatype>video</mediatype>
            </sourcetrack>
            <fielddominance>none</fielddominance>
          </clipitem>
          <clipitem id="C.png540">
            <name>C.png</name>
            <duration>0.47</duration>
            <rate>
              <ntsc>FALSE</ntsc>
              <timebase>25</timebase>
            </rate>
            <in>91770</in>
            <out>91770.47</out>
            <start>1770</start>
            <end>1770.47</end>
            <pixelaspectratio>Square</pixelaspectratio>
            <stillframe>TRUE</stillframe>
            <anamorphic>FALSE</anamorphic>
            <alphatype>straight</alphatype>
            <masterclipid>C.png540</masterclipid>
            <file id="C">
              <name>C.png</name>
              <pathurl>D:/Codes/SynthLip/SynthLipN/bin/Release/net6.0-windows8.0/publish/Skin/template/C.png</pathurl>
              <rate>
                <ntsc>FALSE</ntsc>
                <timebase>25</timebase>
              </rate>
              <duration>2</duration>
              <width>1920</width>
              <height>1080</height>
              <media>
                <video>
                  <duration>2</duration>
                  <stillframe>TRUE</stillframe>
                  <samplecharacteristics>
                    <rate>
                      <ntsc>FALSE</ntsc>
                      <timebase>25</timebase>
                    </rate>
                    <width>1920</width>
                    <height>1080</height>
                    <pixelaspectratio>Square</pixelaspectratio>
                    <anamorphic>FALSE</anamorphic>
                  </samplecharacteristics>
                </video>
              </media>
            </file>
            <sourcetrack>
              <mediatype>video</mediatype>
            </sourcetrack>
            <fielddominance>none</fielddominance>
          </clipitem>
          <clipitem id="C.png539">
            <name>C.png</name>
            <duration>5.63</duration>
            <rate>
              <ntsc>FALSE</ntsc>
              <timebase>25</timebase>
            </rate>
            <in>91764.37</in>
            <out>91770</out>
            <start>1764.37</start>
            <end>1770</end>
            <pixelaspectratio>Square</pixelaspectratio>
            <stillframe>TRUE</stillframe>
            <anamorphic>FALSE</anamorphic>
            <alphatype>straight</alphatype>
            <masterclipid>C.png539</masterclipid>
            <file id="C">
              <name>C.png</name>
              <pathurl>D:/Codes/SynthLip/SynthLipN/bin/Release/net6.0-windows8.0/publish/Skin/template/C.png</pathurl>
              <rate>
                <ntsc>FALSE</ntsc>
                <timebase>25</timebase>
              </rate>
              <duration>2</duration>
              <width>1920</width>
              <height>1080</height>
              <media>
                <video>
                  <duration>2</duration>
                  <stillframe>TRUE</stillframe>
                  <samplecharacteristics>
                    <rate>
                      <ntsc>FALSE</ntsc>
                      <timebase>25</timebase>
                    </rate>
                    <width>1920</width>
                    <height>1080</height>
                    <pixelaspectratio>Square</pixelaspectratio>
                    <anamorphic>FALSE</anamorphic>
                  </samplecharacteristics>
                </video>
              </media>
            </file>
            <sourcetrack>
              <mediatype>video</mediatype>
            </sourcetrack>
            <fielddominance>none</fielddominance>
          </clipitem>
          <clipitem id="B.png538">
            <name>B.png</name>
            <duration>1.88</duration>
            <rate>
              <ntsc>FALSE</ntsc>
              <timebase>25</timebase>
            </rate>
            <in>91762.5</in>
            <out>91764.38</out>
            <start>1762.5</start>
            <end>1764.38</end>
            <pixelaspectratio>Square</pixelaspectratio>
            <stillframe>TRUE</stillframe>
            <anamorphic>FALSE</anamorphic>
            <alphatype>straight</alphatype>
            <masterclipid>B.png538</masterclipid>
            <file id="B">
              <name>B.png</name>
              <pathurl>D:/Codes/SynthLip/SynthLipN/bin/Release/net6.0-windows8.0/publish/Skin/template/B.png</pathurl>
              <rate>
                <ntsc>FALSE</ntsc>
                <timebase>25</timebase>
              </rate>
              <duration>2</duration>
              <width>1920</width>
              <height>1080</height>
              <media>
                <video>
                  <duration>2</duration>
                  <stillframe>TRUE</stillframe>
                  <samplecharacteristics>
                    <rate>
                      <ntsc>FALSE</ntsc>
                      <timebase>25</timebase>
                    </rate>
                    <width>1920</width>
                    <height>1080</height>
                    <pixelaspectratio>Square</pixelaspectratio>
                    <anamorphic>FALSE</anamorphic>
                  </samplecharacteristics>
                </video>
              </media>
            </file>
            <sourcetrack>
              <mediatype>video</mediatype>
            </sourcetrack>
            <fielddominance>none</fielddominance>
          </clipitem>
          <clipitem id="E.png537">
            <name>E.png</name>
            <duration>5.62</duration>
            <rate>
              <ntsc>FALSE</ntsc>
              <timebase>25</timebase>
            </rate>
            <in>91756.88</in>
            <out>91762.5</out>
            <start>1756.88</start>
            <end>1762.5</end>
            <pixelaspectratio>Square</pixelaspectratio>
            <stillframe>TRUE</stillframe>
            <anamorphic>FALSE</anamorphic>
            <alphatype>straight</alphatype>
            <masterclipid>E.png537</masterclipid>
            <file id="E">
              <name>E.png</name>
              <pathurl>D:/Codes/SynthLip/SynthLipN/bin/Release/net6.0-windows8.0/publish/Skin/template/E.png</pathurl>
              <rate>
                <ntsc>FALSE</ntsc>
                <timebase>25</timebase>
              </rate>
              <duration>2</duration>
              <width>1920</width>
              <height>1080</height>
              <media>
                <video>
                  <duration>2</duration>
                  <stillframe>TRUE</stillframe>
                  <samplecharacteristics>
                    <rate>
                      <ntsc>FALSE</ntsc>
                      <timebase>25</timebase>
                    </rate>
                    <width>1920</width>
                    <height>1080</height>
                    <pixelaspectratio>Square</pixelaspectratio>
                    <anamorphic>FALSE</anamorphic>
                  </samplecharacteristics>
                </video>
              </media>
            </file>
            <sourcetrack>
              <mediatype>video</mediatype>
            </sourcetrack>
            <fielddominance>none</fielddominance>
          </clipitem>
          <clipitem id="E.png536">
            <name>E.png</name>
            <duration>2.03</duration>
            <rate>
              <ntsc>FALSE</ntsc>
              <timebase>25</timebase>
            </rate>
            <in>91754.84</in>
            <out>91756.875</out>
            <start>1754.84</start>
            <end>1756.87</end>
            <pixelaspectratio>Square</pixelaspectratio>
            <stillframe>TRUE</stillframe>
            <anamorphic>FALSE</anamorphic>
            <alphatype>straight</alphatype>
            <masterclipid>E.png536</masterclipid>
            <file id="E">
              <name>E.png</name>
              <pathurl>D:/Codes/SynthLip/SynthLipN/bin/Release/net6.0-windows8.0/publish/Skin/template/E.png</pathurl>
              <rate>
                <ntsc>FALSE</ntsc>
                <timebase>25</timebase>
              </rate>
              <duration>2</duration>
              <width>1920</width>
              <height>1080</height>
              <media>
                <video>
                  <duration>2</duration>
                  <stillframe>TRUE</stillframe>
                  <samplecharacteristics>
                    <rate>
                      <ntsc>FALSE</ntsc>
                      <timebase>25</timebase>
                    </rate>
                    <width>1920</width>
                    <height>1080</height>
                    <pixelaspectratio>Square</pixelaspectratio>
                    <anamorphic>FALSE</anamorphic>
                  </samplecharacteristics>
                </video>
              </media>
            </file>
            <sourcetrack>
              <mediatype>video</mediatype>
            </sourcetrack>
            <fielddominance>none</fielddominance>
          </clipitem>
          <clipitem id="H.png535">
            <name>H.png</name>
            <duration>1.09</duration>
            <rate>
              <ntsc>FALSE</ntsc>
              <timebase>25</timebase>
            </rate>
            <in>91753.75</in>
            <out>91754.84</out>
            <start>1753.75</start>
            <end>1754.84</end>
            <pixelaspectratio>Square</pixelaspectratio>
            <stillframe>TRUE</stillframe>
            <anamorphic>FALSE</anamorphic>
            <alphatype>straight</alphatype>
            <masterclipid>H.png535</masterclipid>
            <file id="H">
              <name>H.png</name>
              <pathurl>D:/Codes/SynthLip/SynthLipN/bin/Release/net6.0-windows8.0/publish/Skin/template/H.png</pathurl>
              <rate>
                <ntsc>FALSE</ntsc>
                <timebase>25</timebase>
              </rate>
              <duration>2</duration>
              <width>1920</width>
              <height>1080</height>
              <media>
                <video>
                  <duration>2</duration>
                  <stillframe>TRUE</stillframe>
                  <samplecharacteristics>
                    <rate>
                      <ntsc>FALSE</ntsc>
                      <timebase>25</timebase>
                    </rate>
                    <width>1920</width>
                    <height>1080</height>
                    <pixelaspectratio>Square</pixelaspectratio>
                    <anamorphic>FALSE</anamorphic>
                  </samplecharacteristics>
                </video>
              </media>
            </file>
            <sourcetrack>
              <mediatype>video</mediatype>
            </sourcetrack>
            <fielddominance>none</fielddominance>
          </clipitem>
          <clipitem id="B.png534">
            <name>B.png</name>
            <duration>1.25</duration>
            <rate>
              <ntsc>FALSE</ntsc>
              <timebase>25</timebase>
            </rate>
            <in>91752.5</in>
            <out>91753.75</out>
            <start>1752.5</start>
            <end>1753.75</end>
            <pixelaspectratio>Square</pixelaspectratio>
            <stillframe>TRUE</stillframe>
            <anamorphic>FALSE</anamorphic>
            <alphatype>straight</alphatype>
            <masterclipid>B.png534</masterclipid>
            <file id="B">
              <name>B.png</name>
              <pathurl>D:/Codes/SynthLip/SynthLipN/bin/Release/net6.0-windows8.0/publish/Skin/template/B.png</pathurl>
              <rate>
                <ntsc>FALSE</ntsc>
                <timebase>25</timebase>
              </rate>
              <duration>2</duration>
              <width>1920</width>
              <height>1080</height>
              <media>
                <video>
                  <duration>2</duration>
                  <stillframe>TRUE</stillframe>
                  <samplecharacteristics>
                    <rate>
                      <ntsc>FALSE</ntsc>
                      <timebase>25</timebase>
                    </rate>
                    <width>1920</width>
                    <height>1080</height>
                    <pixelaspectratio>Square</pixelaspectratio>
                    <anamorphic>FALSE</anamorphic>
                  </samplecharacteristics>
                </video>
              </media>
            </file>
            <sourcetrack>
              <mediatype>video</mediatype>
            </sourcetrack>
            <fielddominance>none</fielddominance>
          </clipitem>
          <clipitem id="C.png533">
            <name>C.png</name>
            <duration>3.75</duration>
            <rate>
              <ntsc>FALSE</ntsc>
              <timebase>25</timebase>
            </rate>
            <in>91748.75</in>
            <out>91752.5</out>
            <start>1748.75</start>
            <end>1752.5</end>
            <pixelaspectratio>Square</pixelaspectratio>
            <stillframe>TRUE</stillframe>
            <anamorphic>FALSE</anamorphic>
            <alphatype>straight</alphatype>
            <masterclipid>C.png533</masterclipid>
            <file id="C">
              <name>C.png</name>
              <pathurl>D:/Codes/SynthLip/SynthLipN/bin/Release/net6.0-windows8.0/publish/Skin/template/C.png</pathurl>
              <rate>
                <ntsc>FALSE</ntsc>
                <timebase>25</timebase>
              </rate>
              <duration>2</duration>
              <width>1920</width>
              <height>1080</height>
              <media>
                <video>
                  <duration>2</duration>
                  <stillframe>TRUE</stillframe>
                  <samplecharacteristics>
                    <rate>
                      <ntsc>FALSE</ntsc>
                      <timebase>25</timebase>
                    </rate>
                    <width>1920</width>
                    <height>1080</height>
                    <pixelaspectratio>Square</pixelaspectratio>
                    <anamorphic>FALSE</anamorphic>
                  </samplecharacteristics>
                </video>
              </media>
            </file>
            <sourcetrack>
              <mediatype>video</mediatype>
            </sourcetrack>
            <fielddominance>none</fielddominance>
          </clipitem>
          <clipitem id="A.png532">
            <name>A.png</name>
            <duration>1.25</duration>
            <rate>
              <ntsc>FALSE</ntsc>
              <timebase>25</timebase>
            </rate>
            <in>91747.5</in>
            <out>91748.75</out>
            <start>1747.5</start>
            <end>1748.75</end>
            <pixelaspectratio>Square</pixelaspectratio>
            <stillframe>TRUE</stillframe>
            <anamorphic>FALSE</anamorphic>
            <alphatype>straight</alphatype>
            <masterclipid>A.png532</masterclipid>
            <file id="A">
              <name>A.png</name>
              <pathurl>D:/Codes/SynthLip/SynthLipN/bin/Release/net6.0-windows8.0/publish/Skin/template/A.png</pathurl>
              <rate>
                <ntsc>FALSE</ntsc>
                <timebase>25</timebase>
              </rate>
              <duration>2</duration>
              <width>1920</width>
              <height>1080</height>
              <media>
                <video>
                  <duration>2</duration>
                  <stillframe>TRUE</stillframe>
                  <samplecharacteristics>
                    <rate>
                      <ntsc>FALSE</ntsc>
                      <timebase>25</timebase>
                    </rate>
                    <width>1920</width>
                    <height>1080</height>
                    <pixelaspectratio>Square</pixelaspectratio>
                    <anamorphic>FALSE</anamorphic>
                  </samplecharacteristics>
                </video>
              </media>
            </file>
            <sourcetrack>
              <mediatype>video</mediatype>
            </sourcetrack>
            <fielddominance>none</fielddominance>
          </clipitem>
          <clipitem id="C.png531">
            <name>C.png</name>
            <duration>5.62</duration>
            <rate>
              <ntsc>FALSE</ntsc>
              <timebase>25</timebase>
            </rate>
            <in>91741.88</in>
            <out>91747.5</out>
            <start>1741.88</start>
            <end>1747.5</end>
            <pixelaspectratio>Square</pixelaspectratio>
            <stillframe>TRUE</stillframe>
            <anamorphic>FALSE</anamorphic>
            <alphatype>straight</alphatype>
            <masterclipid>C.png531</masterclipid>
            <file id="C">
              <name>C.png</name>
              <pathurl>D:/Codes/SynthLip/SynthLipN/bin/Release/net6.0-windows8.0/publish/Skin/template/C.png</pathurl>
              <rate>
                <ntsc>FALSE</ntsc>
                <timebase>25</timebase>
              </rate>
              <duration>2</duration>
              <width>1920</width>
              <height>1080</height>
              <media>
                <video>
                  <duration>2</duration>
                  <stillframe>TRUE</stillframe>
                  <samplecharacteristics>
                    <rate>
                      <ntsc>FALSE</ntsc>
                      <timebase>25</timebase>
                    </rate>
                    <width>1920</width>
                    <height>1080</height>
                    <pixelaspectratio>Square</pixelaspectratio>
                    <anamorphic>FALSE</anamorphic>
                  </samplecharacteristics>
                </video>
              </media>
            </file>
            <sourcetrack>
              <mediatype>video</mediatype>
            </sourcetrack>
            <fielddominance>none</fielddominance>
          </clipitem>
          <clipitem id="C.png530">
            <name>C.png</name>
            <duration>1.04</duration>
            <rate>
              <ntsc>FALSE</ntsc>
              <timebase>25</timebase>
            </rate>
            <in>91740.83</in>
            <out>91741.87</out>
            <start>1740.83</start>
            <end>1741.87</end>
            <pixelaspectratio>Square</pixelaspectratio>
            <stillframe>TRUE</stillframe>
            <anamorphic>FALSE</anamorphic>
            <alphatype>straight</alphatype>
            <masterclipid>C.png530</masterclipid>
            <file id="C">
              <name>C.png</name>
              <pathurl>D:/Codes/SynthLip/SynthLipN/bin/Release/net6.0-windows8.0/publish/Skin/template/C.png</pathurl>
              <rate>
                <ntsc>FALSE</ntsc>
                <timebase>25</timebase>
              </rate>
              <duration>2</duration>
              <width>1920</width>
              <height>1080</height>
              <media>
                <video>
                  <duration>2</duration>
                  <stillframe>TRUE</stillframe>
                  <samplecharacteristics>
                    <rate>
                      <ntsc>FALSE</ntsc>
                      <timebase>25</timebase>
                    </rate>
                    <width>1920</width>
                    <height>1080</height>
                    <pixelaspectratio>Square</pixelaspectratio>
                    <anamorphic>FALSE</anamorphic>
                  </samplecharacteristics>
                </video>
              </media>
            </file>
            <sourcetrack>
              <mediatype>video</mediatype>
            </sourcetrack>
            <fielddominance>none</fielddominance>
          </clipitem>
          <clipitem id="B.png529">
            <name>B.png</name>
            <duration>0.57</duration>
            <rate>
              <ntsc>FALSE</ntsc>
              <timebase>25</timebase>
            </rate>
            <in>91740.26</in>
            <out>91740.83</out>
            <start>1740.26</start>
            <end>1740.83</end>
            <pixelaspectratio>Square</pixelaspectratio>
            <stillframe>TRUE</stillframe>
            <anamorphic>FALSE</anamorphic>
            <alphatype>straight</alphatype>
            <masterclipid>B.png529</masterclipid>
            <file id="B">
              <name>B.png</name>
              <pathurl>D:/Codes/SynthLip/SynthLipN/bin/Release/net6.0-windows8.0/publish/Skin/template/B.png</pathurl>
              <rate>
                <ntsc>FALSE</ntsc>
                <timebase>25</timebase>
              </rate>
              <duration>2</duration>
              <width>1920</width>
              <height>1080</height>
              <media>
                <video>
                  <duration>2</duration>
                  <stillframe>TRUE</stillframe>
                  <samplecharacteristics>
                    <rate>
                      <ntsc>FALSE</ntsc>
                      <timebase>25</timebase>
                    </rate>
                    <width>1920</width>
                    <height>1080</height>
                    <pixelaspectratio>Square</pixelaspectratio>
                    <anamorphic>FALSE</anamorphic>
                  </samplecharacteristics>
                </video>
              </media>
            </file>
            <sourcetrack>
              <mediatype>video</mediatype>
            </sourcetrack>
            <fielddominance>none</fielddominance>
          </clipitem>
          <clipitem id="B.png528">
            <name>B.png</name>
            <duration>0.68</duration>
            <rate>
              <ntsc>FALSE</ntsc>
              <timebase>25</timebase>
            </rate>
            <in>91739.58</in>
            <out>91740.26</out>
            <start>1739.58</start>
            <end>1740.26</end>
            <pixelaspectratio>Square</pixelaspectratio>
            <stillframe>TRUE</stillframe>
            <anamorphic>FALSE</anamorphic>
            <alphatype>straight</alphatype>
            <masterclipid>B.png528</masterclipid>
            <file id="B">
              <name>B.png</name>
              <pathurl>D:/Codes/SynthLip/SynthLipN/bin/Release/net6.0-windows8.0/publish/Skin/template/B.png</pathurl>
              <rate>
                <ntsc>FALSE</ntsc>
                <timebase>25</timebase>
              </rate>
              <duration>2</duration>
              <width>1920</width>
              <height>1080</height>
              <media>
                <video>
                  <duration>2</duration>
                  <stillframe>TRUE</stillframe>
                  <samplecharacteristics>
                    <rate>
                      <ntsc>FALSE</ntsc>
                      <timebase>25</timebase>
                    </rate>
                    <width>1920</width>
                    <height>1080</height>
                    <pixelaspectratio>Square</pixelaspectratio>
                    <anamorphic>FALSE</anamorphic>
                  </samplecharacteristics>
                </video>
              </media>
            </file>
            <sourcetrack>
              <mediatype>video</mediatype>
            </sourcetrack>
            <fielddominance>none</fielddominance>
          </clipitem>
          <clipitem id="B.png527">
            <name>B.png</name>
            <duration>0.89</duration>
            <rate>
              <ntsc>FALSE</ntsc>
              <timebase>25</timebase>
            </rate>
            <in>91738.69</in>
            <out>91739.58</out>
            <start>1738.69</start>
            <end>1739.58</end>
            <pixelaspectratio>Square</pixelaspectratio>
            <stillframe>TRUE</stillframe>
            <anamorphic>FALSE</anamorphic>
            <alphatype>straight</alphatype>
            <masterclipid>B.png527</masterclipid>
            <file id="B">
              <name>B.png</name>
              <pathurl>D:/Codes/SynthLip/SynthLipN/bin/Release/net6.0-windows8.0/publish/Skin/template/B.png</pathurl>
              <rate>
                <ntsc>FALSE</ntsc>
                <timebase>25</timebase>
              </rate>
              <duration>2</duration>
              <width>1920</width>
              <height>1080</height>
              <media>
                <video>
                  <duration>2</duration>
                  <stillframe>TRUE</stillframe>
                  <samplecharacteristics>
                    <rate>
                      <ntsc>FALSE</ntsc>
                      <timebase>25</timebase>
                    </rate>
                    <width>1920</width>
                    <height>1080</height>
                    <pixelaspectratio>Square</pixelaspectratio>
                    <anamorphic>FALSE</anamorphic>
                  </samplecharacteristics>
                </video>
              </media>
            </file>
            <sourcetrack>
              <mediatype>video</mediatype>
            </sourcetrack>
            <fielddominance>none</fielddominance>
          </clipitem>
          <clipitem id="B.png526">
            <name>B.png</name>
            <duration>1.31</duration>
            <rate>
              <ntsc>FALSE</ntsc>
              <timebase>25</timebase>
            </rate>
            <in>91737.38</in>
            <out>91738.695</out>
            <start>1737.38</start>
            <end>1738.6901</end>
            <pixelaspectratio>Square</pixelaspectratio>
            <stillframe>TRUE</stillframe>
            <anamorphic>FALSE</anamorphic>
            <alphatype>straight</alphatype>
            <masterclipid>B.png526</masterclipid>
            <file id="B">
              <name>B.png</name>
              <pathurl>D:/Codes/SynthLip/SynthLipN/bin/Release/net6.0-windows8.0/publish/Skin/template/B.png</pathurl>
              <rate>
                <ntsc>FALSE</ntsc>
                <timebase>25</timebase>
              </rate>
              <duration>2</duration>
              <width>1920</width>
              <height>1080</height>
              <media>
                <video>
                  <duration>2</duration>
                  <stillframe>TRUE</stillframe>
                  <samplecharacteristics>
                    <rate>
                      <ntsc>FALSE</ntsc>
                      <timebase>25</timebase>
                    </rate>
                    <width>1920</width>
                    <height>1080</height>
                    <pixelaspectratio>Square</pixelaspectratio>
                    <anamorphic>FALSE</anamorphic>
                  </samplecharacteristics>
                </video>
              </media>
            </file>
            <sourcetrack>
              <mediatype>video</mediatype>
            </sourcetrack>
            <fielddominance>none</fielddominance>
          </clipitem>
          <clipitem id="B.png525">
            <name>B.png</name>
            <duration>1.12</duration>
            <rate>
              <ntsc>FALSE</ntsc>
              <timebase>25</timebase>
            </rate>
            <in>91736.25</in>
            <out>91737.37</out>
            <start>1736.25</start>
            <end>1737.37</end>
            <pixelaspectratio>Square</pixelaspectratio>
            <stillframe>TRUE</stillframe>
            <anamorphic>FALSE</anamorphic>
            <alphatype>straight</alphatype>
            <masterclipid>B.png525</masterclipid>
            <file id="B">
              <name>B.png</name>
              <pathurl>D:/Codes/SynthLip/SynthLipN/bin/Release/net6.0-windows8.0/publish/Skin/template/B.png</pathurl>
              <rate>
                <ntsc>FALSE</ntsc>
                <timebase>25</timebase>
              </rate>
              <duration>2</duration>
              <width>1920</width>
              <height>1080</height>
              <media>
                <video>
                  <duration>2</duration>
                  <stillframe>TRUE</stillframe>
                  <samplecharacteristics>
                    <rate>
                      <ntsc>FALSE</ntsc>
                      <timebase>25</timebase>
                    </rate>
                    <width>1920</width>
                    <height>1080</height>
                    <pixelaspectratio>Square</pixelaspectratio>
                    <anamorphic>FALSE</anamorphic>
                  </samplecharacteristics>
                </video>
              </media>
            </file>
            <sourcetrack>
              <mediatype>video</mediatype>
            </sourcetrack>
            <fielddominance>none</fielddominance>
          </clipitem>
          <clipitem id="B.png524">
            <name>B.png</name>
            <duration>0.75</duration>
            <rate>
              <ntsc>FALSE</ntsc>
              <timebase>25</timebase>
            </rate>
            <in>91735.5</in>
            <out>91736.25</out>
            <start>1735.5</start>
            <end>1736.25</end>
            <pixelaspectratio>Square</pixelaspectratio>
            <stillframe>TRUE</stillframe>
            <anamorphic>FALSE</anamorphic>
            <alphatype>straight</alphatype>
            <masterclipid>B.png524</masterclipid>
            <file id="B">
              <name>B.png</name>
              <pathurl>D:/Codes/SynthLip/SynthLipN/bin/Release/net6.0-windows8.0/publish/Skin/template/B.png</pathurl>
              <rate>
                <ntsc>FALSE</ntsc>
                <timebase>25</timebase>
              </rate>
              <duration>2</duration>
              <width>1920</width>
              <height>1080</height>
              <media>
                <video>
                  <duration>2</duration>
                  <stillframe>TRUE</stillframe>
                  <samplecharacteristics>
                    <rate>
                      <ntsc>FALSE</ntsc>
                      <timebase>25</timebase>
                    </rate>
                    <width>1920</width>
                    <height>1080</height>
                    <pixelaspectratio>Square</pixelaspectratio>
                    <anamorphic>FALSE</anamorphic>
                  </samplecharacteristics>
                </video>
              </media>
            </file>
            <sourcetrack>
              <mediatype>video</mediatype>
            </sourcetrack>
            <fielddominance>none</fielddominance>
          </clipitem>
          <clipitem id="C.png523">
            <name>C.png</name>
            <duration>2.25</duration>
            <rate>
              <ntsc>FALSE</ntsc>
              <timebase>25</timebase>
            </rate>
            <in>91733.25</in>
            <out>91735.5</out>
            <start>1733.25</start>
            <end>1735.5</end>
            <pixelaspectratio>Square</pixelaspectratio>
            <stillframe>TRUE</stillframe>
            <anamorphic>FALSE</anamorphic>
            <alphatype>straight</alphatype>
            <masterclipid>C.png523</masterclipid>
            <file id="C">
              <name>C.png</name>
              <pathurl>D:/Codes/SynthLip/SynthLipN/bin/Release/net6.0-windows8.0/publish/Skin/template/C.png</pathurl>
              <rate>
                <ntsc>FALSE</ntsc>
                <timebase>25</timebase>
              </rate>
              <duration>2</duration>
              <width>1920</width>
              <height>1080</height>
              <media>
                <video>
                  <duration>2</duration>
                  <stillframe>TRUE</stillframe>
                  <samplecharacteristics>
                    <rate>
                      <ntsc>FALSE</ntsc>
                      <timebase>25</timebase>
                    </rate>
                    <width>1920</width>
                    <height>1080</height>
                    <pixelaspectratio>Square</pixelaspectratio>
                    <anamorphic>FALSE</anamorphic>
                  </samplecharacteristics>
                </video>
              </media>
            </file>
            <sourcetrack>
              <mediatype>video</mediatype>
            </sourcetrack>
            <fielddominance>none</fielddominance>
          </clipitem>
          <clipitem id="A.png522">
            <name>A.png</name>
            <duration>0.75</duration>
            <rate>
              <ntsc>FALSE</ntsc>
              <timebase>25</timebase>
            </rate>
            <in>91732.5</in>
            <out>91733.25</out>
            <start>1732.5</start>
            <end>1733.25</end>
            <pixelaspectratio>Square</pixelaspectratio>
            <stillframe>TRUE</stillframe>
            <anamorphic>FALSE</anamorphic>
            <alphatype>straight</alphatype>
            <masterclipid>A.png522</masterclipid>
            <file id="A">
              <name>A.png</name>
              <pathurl>D:/Codes/SynthLip/SynthLipN/bin/Release/net6.0-windows8.0/publish/Skin/template/A.png</pathurl>
              <rate>
                <ntsc>FALSE</ntsc>
                <timebase>25</timebase>
              </rate>
              <duration>2</duration>
              <width>1920</width>
              <height>1080</height>
              <media>
                <video>
                  <duration>2</duration>
                  <stillframe>TRUE</stillframe>
                  <samplecharacteristics>
                    <rate>
                      <ntsc>FALSE</ntsc>
                      <timebase>25</timebase>
                    </rate>
                    <width>1920</width>
                    <height>1080</height>
                    <pixelaspectratio>Square</pixelaspectratio>
                    <anamorphic>FALSE</anamorphic>
                  </samplecharacteristics>
                </video>
              </media>
            </file>
            <sourcetrack>
              <mediatype>video</mediatype>
            </sourcetrack>
            <fielddominance>none</fielddominance>
          </clipitem>
          <clipitem id="C.png521">
            <name>C.png</name>
            <duration>5.86</duration>
            <rate>
              <ntsc>FALSE</ntsc>
              <timebase>25</timebase>
            </rate>
            <in>91726.64</in>
            <out>91732.5</out>
            <start>1726.64</start>
            <end>1732.5</end>
            <pixelaspectratio>Square</pixelaspectratio>
            <stillframe>TRUE</stillframe>
            <anamorphic>FALSE</anamorphic>
            <alphatype>straight</alphatype>
            <masterclipid>C.png521</masterclipid>
            <file id="C">
              <name>C.png</name>
              <pathurl>D:/Codes/SynthLip/SynthLipN/bin/Release/net6.0-windows8.0/publish/Skin/template/C.png</pathurl>
              <rate>
                <ntsc>FALSE</ntsc>
                <timebase>25</timebase>
              </rate>
              <duration>2</duration>
              <width>1920</width>
              <height>1080</height>
              <media>
                <video>
                  <duration>2</duration>
                  <stillframe>TRUE</stillframe>
                  <samplecharacteristics>
                    <rate>
                      <ntsc>FALSE</ntsc>
                      <timebase>25</timebase>
                    </rate>
                    <width>1920</width>
                    <height>1080</height>
                    <pixelaspectratio>Square</pixelaspectratio>
                    <anamorphic>FALSE</anamorphic>
                  </samplecharacteristics>
                </video>
              </media>
            </file>
            <sourcetrack>
              <mediatype>video</mediatype>
            </sourcetrack>
            <fielddominance>none</fielddominance>
          </clipitem>
          <clipitem id="C.png520">
            <name>C.png</name>
            <duration>0.23</duration>
            <rate>
              <ntsc>FALSE</ntsc>
              <timebase>25</timebase>
            </rate>
            <in>91726.41</in>
            <out>91726.63</out>
            <start>1726.41</start>
            <end>1726.64</end>
            <pixelaspectratio>Square</pixelaspectratio>
            <stillframe>TRUE</stillframe>
            <anamorphic>FALSE</anamorphic>
            <alphatype>straight</alphatype>
            <masterclipid>C.png520</masterclipid>
            <file id="C">
              <name>C.png</name>
              <pathurl>D:/Codes/SynthLip/SynthLipN/bin/Release/net6.0-windows8.0/publish/Skin/template/C.png</pathurl>
              <rate>
                <ntsc>FALSE</ntsc>
                <timebase>25</timebase>
              </rate>
              <duration>2</duration>
              <width>1920</width>
              <height>1080</height>
              <media>
                <video>
                  <duration>2</duration>
                  <stillframe>TRUE</stillframe>
                  <samplecharacteristics>
                    <rate>
                      <ntsc>FALSE</ntsc>
                      <timebase>25</timebase>
                    </rate>
                    <width>1920</width>
                    <height>1080</height>
                    <pixelaspectratio>Square</pixelaspectratio>
                    <anamorphic>FALSE</anamorphic>
                  </samplecharacteristics>
                </video>
              </media>
            </file>
            <sourcetrack>
              <mediatype>video</mediatype>
            </sourcetrack>
            <fielddominance>none</fielddominance>
          </clipitem>
          <clipitem id="C.png519">
            <name>C.png</name>
            <duration>1.29</duration>
            <rate>
              <ntsc>FALSE</ntsc>
              <timebase>25</timebase>
            </rate>
            <in>91725.12</in>
            <out>91726.41</out>
            <start>1725.12</start>
            <end>1726.41</end>
            <pixelaspectratio>Square</pixelaspectratio>
            <stillframe>TRUE</stillframe>
            <anamorphic>FALSE</anamorphic>
            <alphatype>straight</alphatype>
            <masterclipid>C.png519</masterclipid>
            <file id="C">
              <name>C.png</name>
              <pathurl>D:/Codes/SynthLip/SynthLipN/bin/Release/net6.0-windows8.0/publish/Skin/template/C.png</pathurl>
              <rate>
                <ntsc>FALSE</ntsc>
                <timebase>25</timebase>
              </rate>
              <duration>2</duration>
              <width>1920</width>
              <height>1080</height>
              <media>
                <video>
                  <duration>2</duration>
                  <stillframe>TRUE</stillframe>
                  <samplecharacteristics>
                    <rate>
                      <ntsc>FALSE</ntsc>
                      <timebase>25</timebase>
                    </rate>
                    <width>1920</width>
                    <height>1080</height>
                    <pixelaspectratio>Square</pixelaspectratio>
                    <anamorphic>FALSE</anamorphic>
                  </samplecharacteristics>
                </video>
              </media>
            </file>
            <sourcetrack>
              <mediatype>video</mediatype>
            </sourcetrack>
            <fielddominance>none</fielddominance>
          </clipitem>
          <clipitem id="B.png518">
            <name>B.png</name>
            <duration>0.82</duration>
            <rate>
              <ntsc>FALSE</ntsc>
              <timebase>25</timebase>
            </rate>
            <in>91724.3</in>
            <out>91725.12</out>
            <start>1724.3</start>
            <end>1725.12</end>
            <pixelaspectratio>Square</pixelaspectratio>
            <stillframe>TRUE</stillframe>
            <anamorphic>FALSE</anamorphic>
            <alphatype>straight</alphatype>
            <masterclipid>B.png518</masterclipid>
            <file id="B">
              <name>B.png</name>
              <pathurl>D:/Codes/SynthLip/SynthLipN/bin/Release/net6.0-windows8.0/publish/Skin/template/B.png</pathurl>
              <rate>
                <ntsc>FALSE</ntsc>
                <timebase>25</timebase>
              </rate>
              <duration>2</duration>
              <width>1920</width>
              <height>1080</height>
              <media>
                <video>
                  <duration>2</duration>
                  <stillframe>TRUE</stillframe>
                  <samplecharacteristics>
                    <rate>
                      <ntsc>FALSE</ntsc>
                      <timebase>25</timebase>
                    </rate>
                    <width>1920</width>
                    <height>1080</height>
                    <pixelaspectratio>Square</pixelaspectratio>
                    <anamorphic>FALSE</anamorphic>
                  </samplecharacteristics>
                </video>
              </media>
            </file>
            <sourcetrack>
              <mediatype>video</mediatype>
            </sourcetrack>
            <fielddominance>none</fielddominance>
          </clipitem>
          <clipitem id="B.png517">
            <name>B.png</name>
            <duration>1.17</duration>
            <rate>
              <ntsc>FALSE</ntsc>
              <timebase>25</timebase>
            </rate>
            <in>91723.13</in>
            <out>91724.305</out>
            <start>1723.13</start>
            <end>1724.3</end>
            <pixelaspectratio>Square</pixelaspectratio>
            <stillframe>TRUE</stillframe>
            <anamorphic>FALSE</anamorphic>
            <alphatype>straight</alphatype>
            <masterclipid>B.png517</masterclipid>
            <file id="B">
              <name>B.png</name>
              <pathurl>D:/Codes/SynthLip/SynthLipN/bin/Release/net6.0-windows8.0/publish/Skin/template/B.png</pathurl>
              <rate>
                <ntsc>FALSE</ntsc>
                <timebase>25</timebase>
              </rate>
              <duration>2</duration>
              <width>1920</width>
              <height>1080</height>
              <media>
                <video>
                  <duration>2</duration>
                  <stillframe>TRUE</stillframe>
                  <samplecharacteristics>
                    <rate>
                      <ntsc>FALSE</ntsc>
                      <timebase>25</timebase>
                    </rate>
                    <width>1920</width>
                    <height>1080</height>
                    <pixelaspectratio>Square</pixelaspectratio>
                    <anamorphic>FALSE</anamorphic>
                  </samplecharacteristics>
                </video>
              </media>
            </file>
            <sourcetrack>
              <mediatype>video</mediatype>
            </sourcetrack>
            <fielddominance>none</fielddominance>
          </clipitem>
          <clipitem id="B.png516">
            <name>B.png</name>
            <duration>1.88</duration>
            <rate>
              <ntsc>FALSE</ntsc>
              <timebase>25</timebase>
            </rate>
            <in>91721.25</in>
            <out>91723.13</out>
            <start>1721.25</start>
            <end>1723.13</end>
            <pixelaspectratio>Square</pixelaspectratio>
            <stillframe>TRUE</stillframe>
            <anamorphic>FALSE</anamorphic>
            <alphatype>straight</alphatype>
            <masterclipid>B.png516</masterclipid>
            <file id="B">
              <name>B.png</name>
              <pathurl>D:/Codes/SynthLip/SynthLipN/bin/Release/net6.0-windows8.0/publish/Skin/template/B.png</pathurl>
              <rate>
                <ntsc>FALSE</ntsc>
                <timebase>25</timebase>
              </rate>
              <duration>2</duration>
              <width>1920</width>
              <height>1080</height>
              <media>
                <video>
                  <duration>2</duration>
                  <stillframe>TRUE</stillframe>
                  <samplecharacteristics>
                    <rate>
                      <ntsc>FALSE</ntsc>
                      <timebase>25</timebase>
                    </rate>
                    <width>1920</width>
                    <height>1080</height>
                    <pixelaspectratio>Square</pixelaspectratio>
                    <anamorphic>FALSE</anamorphic>
                  </samplecharacteristics>
                </video>
              </media>
            </file>
            <sourcetrack>
              <mediatype>video</mediatype>
            </sourcetrack>
            <fielddominance>none</fielddominance>
          </clipitem>
          <clipitem id="C.png515">
            <name>C.png</name>
            <duration>3.75</duration>
            <rate>
              <ntsc>FALSE</ntsc>
              <timebase>25</timebase>
            </rate>
            <in>91717.5</in>
            <out>91721.25</out>
            <start>1717.5</start>
            <end>1721.25</end>
            <pixelaspectratio>Square</pixelaspectratio>
            <stillframe>TRUE</stillframe>
            <anamorphic>FALSE</anamorphic>
            <alphatype>straight</alphatype>
            <masterclipid>C.png515</masterclipid>
            <file id="C">
              <name>C.png</name>
              <pathurl>D:/Codes/SynthLip/SynthLipN/bin/Release/net6.0-windows8.0/publish/Skin/template/C.png</pathurl>
              <rate>
                <ntsc>FALSE</ntsc>
                <timebase>25</timebase>
              </rate>
              <duration>2</duration>
              <width>1920</width>
              <height>1080</height>
              <media>
                <video>
                  <duration>2</duration>
                  <stillframe>TRUE</stillframe>
                  <samplecharacteristics>
                    <rate>
                      <ntsc>FALSE</ntsc>
                      <timebase>25</timebase>
                    </rate>
                    <width>1920</width>
                    <height>1080</height>
                    <pixelaspectratio>Square</pixelaspectratio>
                    <anamorphic>FALSE</anamorphic>
                  </samplecharacteristics>
                </video>
              </media>
            </file>
            <sourcetrack>
              <mediatype>video</mediatype>
            </sourcetrack>
            <fielddominance>none</fielddominance>
          </clipitem>
          <clipitem id="A.png514">
            <name>A.png</name>
            <duration>5.86</duration>
            <rate>
              <ntsc>FALSE</ntsc>
              <timebase>25</timebase>
            </rate>
            <in>91711.64</in>
            <out>91717.5</out>
            <start>1711.64</start>
            <end>1717.5</end>
            <pixelaspectratio>Square</pixelaspectratio>
            <stillframe>TRUE</stillframe>
            <anamorphic>FALSE</anamorphic>
            <alphatype>straight</alphatype>
            <masterclipid>A.png514</masterclipid>
            <file id="A">
              <name>A.png</name>
              <pathurl>D:/Codes/SynthLip/SynthLipN/bin/Release/net6.0-windows8.0/publish/Skin/template/A.png</pathurl>
              <rate>
                <ntsc>FALSE</ntsc>
                <timebase>25</timebase>
              </rate>
              <duration>2</duration>
              <width>1920</width>
              <height>1080</height>
              <media>
                <video>
                  <duration>2</duration>
                  <stillframe>TRUE</stillframe>
                  <samplecharacteristics>
                    <rate>
                      <ntsc>FALSE</ntsc>
                      <timebase>25</timebase>
                    </rate>
                    <width>1920</width>
                    <height>1080</height>
                    <pixelaspectratio>Square</pixelaspectratio>
                    <anamorphic>FALSE</anamorphic>
                  </samplecharacteristics>
                </video>
              </media>
            </file>
            <sourcetrack>
              <mediatype>video</mediatype>
            </sourcetrack>
            <fielddominance>none</fielddominance>
          </clipitem>
          <clipitem id="A.png513">
            <name>A.png</name>
            <duration>0.23</duration>
            <rate>
              <ntsc>FALSE</ntsc>
              <timebase>25</timebase>
            </rate>
            <in>91711.41</in>
            <out>91711.63</out>
            <start>1711.41</start>
            <end>1711.64</end>
            <pixelaspectratio>Square</pixelaspectratio>
            <stillframe>TRUE</stillframe>
            <anamorphic>FALSE</anamorphic>
            <alphatype>straight</alphatype>
            <masterclipid>A.png513</masterclipid>
            <file id="A">
              <name>A.png</name>
              <pathurl>D:/Codes/SynthLip/SynthLipN/bin/Release/net6.0-windows8.0/publish/Skin/template/A.png</pathurl>
              <rate>
                <ntsc>FALSE</ntsc>
                <timebase>25</timebase>
              </rate>
              <duration>2</duration>
              <width>1920</width>
              <height>1080</height>
              <media>
                <video>
                  <duration>2</duration>
                  <stillframe>TRUE</stillframe>
                  <samplecharacteristics>
                    <rate>
                      <ntsc>FALSE</ntsc>
                      <timebase>25</timebase>
                    </rate>
                    <width>1920</width>
                    <height>1080</height>
                    <pixelaspectratio>Square</pixelaspectratio>
                    <anamorphic>FALSE</anamorphic>
                  </samplecharacteristics>
                </video>
              </media>
            </file>
            <sourcetrack>
              <mediatype>video</mediatype>
            </sourcetrack>
            <fielddominance>none</fielddominance>
          </clipitem>
          <clipitem id="D.png512">
            <name>D.png</name>
            <duration>1.13</duration>
            <rate>
              <ntsc>FALSE</ntsc>
              <timebase>25</timebase>
            </rate>
            <in>91710.27</in>
            <out>91711.41</out>
            <start>1710.27</start>
            <end>1711.4</end>
            <pixelaspectratio>Square</pixelaspectratio>
            <stillframe>TRUE</stillframe>
            <anamorphic>FALSE</anamorphic>
            <alphatype>straight</alphatype>
            <masterclipid>D.png512</masterclipid>
            <file id="D">
              <name>D.png</name>
              <pathurl>D:/Codes/SynthLip/SynthLipN/bin/Release/net6.0-windows8.0/publish/Skin/template/D.png</pathurl>
              <rate>
                <ntsc>FALSE</ntsc>
                <timebase>25</timebase>
              </rate>
              <duration>2</duration>
              <width>1920</width>
              <height>1080</height>
              <media>
                <video>
                  <duration>2</duration>
                  <stillframe>TRUE</stillframe>
                  <samplecharacteristics>
                    <rate>
                      <ntsc>FALSE</ntsc>
                      <timebase>25</timebase>
                    </rate>
                    <width>1920</width>
                    <height>1080</height>
                    <pixelaspectratio>Square</pixelaspectratio>
                    <anamorphic>FALSE</anamorphic>
                  </samplecharacteristics>
                </video>
              </media>
            </file>
            <sourcetrack>
              <mediatype>video</mediatype>
            </sourcetrack>
            <fielddominance>none</fielddominance>
          </clipitem>
          <clipitem id="B.png511">
            <name>B.png</name>
            <duration>0.66</duration>
            <rate>
              <ntsc>FALSE</ntsc>
              <timebase>25</timebase>
            </rate>
            <in>91709.61</in>
            <out>91710.266</out>
            <start>1709.61</start>
            <end>1710.27</end>
            <pixelaspectratio>Square</pixelaspectratio>
            <stillframe>TRUE</stillframe>
            <anamorphic>FALSE</anamorphic>
            <alphatype>straight</alphatype>
            <masterclipid>B.png511</masterclipid>
            <file id="B">
              <name>B.png</name>
              <pathurl>D:/Codes/SynthLip/SynthLipN/bin/Release/net6.0-windows8.0/publish/Skin/template/B.png</pathurl>
              <rate>
                <ntsc>FALSE</ntsc>
                <timebase>25</timebase>
              </rate>
              <duration>2</duration>
              <width>1920</width>
              <height>1080</height>
              <media>
                <video>
                  <duration>2</duration>
                  <stillframe>TRUE</stillframe>
                  <samplecharacteristics>
                    <rate>
                      <ntsc>FALSE</ntsc>
                      <timebase>25</timebase>
                    </rate>
                    <width>1920</width>
                    <height>1080</height>
                    <pixelaspectratio>Square</pixelaspectratio>
                    <anamorphic>FALSE</anamorphic>
                  </samplecharacteristics>
                </video>
              </media>
            </file>
            <sourcetrack>
              <mediatype>video</mediatype>
            </sourcetrack>
            <fielddominance>none</fielddominance>
          </clipitem>
          <clipitem id="B.png510">
            <name>B.png</name>
            <duration>0.86</duration>
            <rate>
              <ntsc>FALSE</ntsc>
              <timebase>25</timebase>
            </rate>
            <in>91708.75</in>
            <out>91709.61</out>
            <start>1708.75</start>
            <end>1709.61</end>
            <pixelaspectratio>Square</pixelaspectratio>
            <stillframe>TRUE</stillframe>
            <anamorphic>FALSE</anamorphic>
            <alphatype>straight</alphatype>
            <masterclipid>B.png510</masterclipid>
            <file id="B">
              <name>B.png</name>
              <pathurl>D:/Codes/SynthLip/SynthLipN/bin/Release/net6.0-windows8.0/publish/Skin/template/B.png</pathurl>
              <rate>
                <ntsc>FALSE</ntsc>
                <timebase>25</timebase>
              </rate>
              <duration>2</duration>
              <width>1920</width>
              <height>1080</height>
              <media>
                <video>
                  <duration>2</duration>
                  <stillframe>TRUE</stillframe>
                  <samplecharacteristics>
                    <rate>
                      <ntsc>FALSE</ntsc>
                      <timebase>25</timebase>
                    </rate>
                    <width>1920</width>
                    <height>1080</height>
                    <pixelaspectratio>Square</pixelaspectratio>
                    <anamorphic>FALSE</anamorphic>
                  </samplecharacteristics>
                </video>
              </media>
            </file>
            <sourcetrack>
              <mediatype>video</mediatype>
            </sourcetrack>
            <fielddominance>none</fielddominance>
          </clipitem>
          <clipitem id="B.png509">
            <name>B.png</name>
            <duration>1.25</duration>
            <rate>
              <ntsc>FALSE</ntsc>
              <timebase>25</timebase>
            </rate>
            <in>91707.5</in>
            <out>91708.75</out>
            <start>1707.5</start>
            <end>1708.75</end>
            <pixelaspectratio>Square</pixelaspectratio>
            <stillframe>TRUE</stillframe>
            <anamorphic>FALSE</anamorphic>
            <alphatype>straight</alphatype>
            <masterclipid>B.png509</masterclipid>
            <file id="B">
              <name>B.png</name>
              <pathurl>D:/Codes/SynthLip/SynthLipN/bin/Release/net6.0-windows8.0/publish/Skin/template/B.png</pathurl>
              <rate>
                <ntsc>FALSE</ntsc>
                <timebase>25</timebase>
              </rate>
              <duration>2</duration>
              <width>1920</width>
              <height>1080</height>
              <media>
                <video>
                  <duration>2</duration>
                  <stillframe>TRUE</stillframe>
                  <samplecharacteristics>
                    <rate>
                      <ntsc>FALSE</ntsc>
                      <timebase>25</timebase>
                    </rate>
                    <width>1920</width>
                    <height>1080</height>
                    <pixelaspectratio>Square</pixelaspectratio>
                    <anamorphic>FALSE</anamorphic>
                  </samplecharacteristics>
                </video>
              </media>
            </file>
            <sourcetrack>
              <mediatype>video</mediatype>
            </sourcetrack>
            <fielddominance>none</fielddominance>
          </clipitem>
          <clipitem id="C.png508">
            <name>C.png</name>
            <duration>3.75</duration>
            <rate>
              <ntsc>FALSE</ntsc>
              <timebase>25</timebase>
            </rate>
            <in>91703.75</in>
            <out>91707.5</out>
            <start>1703.75</start>
            <end>1707.5</end>
            <pixelaspectratio>Square</pixelaspectratio>
            <stillframe>TRUE</stillframe>
            <anamorphic>FALSE</anamorphic>
            <alphatype>straight</alphatype>
            <masterclipid>C.png508</masterclipid>
            <file id="C">
              <name>C.png</name>
              <pathurl>D:/Codes/SynthLip/SynthLipN/bin/Release/net6.0-windows8.0/publish/Skin/template/C.png</pathurl>
              <rate>
                <ntsc>FALSE</ntsc>
                <timebase>25</timebase>
              </rate>
              <duration>2</duration>
              <width>1920</width>
              <height>1080</height>
              <media>
                <video>
                  <duration>2</duration>
                  <stillframe>TRUE</stillframe>
                  <samplecharacteristics>
                    <rate>
                      <ntsc>FALSE</ntsc>
                      <timebase>25</timebase>
                    </rate>
                    <width>1920</width>
                    <height>1080</height>
                    <pixelaspectratio>Square</pixelaspectratio>
                    <anamorphic>FALSE</anamorphic>
                  </samplecharacteristics>
                </video>
              </media>
            </file>
            <sourcetrack>
              <mediatype>video</mediatype>
            </sourcetrack>
            <fielddominance>none</fielddominance>
          </clipitem>
          <clipitem id="A.png507">
            <name>A.png</name>
            <duration>1.25</duration>
            <rate>
              <ntsc>FALSE</ntsc>
              <timebase>25</timebase>
            </rate>
            <in>91702.5</in>
            <out>91703.75</out>
            <start>1702.5</start>
            <end>1703.75</end>
            <pixelaspectratio>Square</pixelaspectratio>
            <stillframe>TRUE</stillframe>
            <anamorphic>FALSE</anamorphic>
            <alphatype>straight</alphatype>
            <masterclipid>A.png507</masterclipid>
            <file id="A">
              <name>A.png</name>
              <pathurl>D:/Codes/SynthLip/SynthLipN/bin/Release/net6.0-windows8.0/publish/Skin/template/A.png</pathurl>
              <rate>
                <ntsc>FALSE</ntsc>
                <timebase>25</timebase>
              </rate>
              <duration>2</duration>
              <width>1920</width>
              <height>1080</height>
              <media>
                <video>
                  <duration>2</duration>
                  <stillframe>TRUE</stillframe>
                  <samplecharacteristics>
                    <rate>
                      <ntsc>FALSE</ntsc>
                      <timebase>25</timebase>
                    </rate>
                    <width>1920</width>
                    <height>1080</height>
                    <pixelaspectratio>Square</pixelaspectratio>
                    <anamorphic>FALSE</anamorphic>
                  </samplecharacteristics>
                </video>
              </media>
            </file>
            <sourcetrack>
              <mediatype>video</mediatype>
            </sourcetrack>
            <fielddominance>none</fielddominance>
          </clipitem>
          <clipitem id="D.png506">
            <name>D.png</name>
            <duration>6.56</duration>
            <rate>
              <ntsc>FALSE</ntsc>
              <timebase>25</timebase>
            </rate>
            <in>91695.94</in>
            <out>91702.5</out>
            <start>1695.94</start>
            <end>1702.5</end>
            <pixelaspectratio>Square</pixelaspectratio>
            <stillframe>TRUE</stillframe>
            <anamorphic>FALSE</anamorphic>
            <alphatype>straight</alphatype>
            <masterclipid>D.png506</masterclipid>
            <file id="D">
              <name>D.png</name>
              <pathurl>D:/Codes/SynthLip/SynthLipN/bin/Release/net6.0-windows8.0/publish/Skin/template/D.png</pathurl>
              <rate>
                <ntsc>FALSE</ntsc>
                <timebase>25</timebase>
              </rate>
              <duration>2</duration>
              <width>1920</width>
              <height>1080</height>
              <media>
                <video>
                  <duration>2</duration>
                  <stillframe>TRUE</stillframe>
                  <samplecharacteristics>
                    <rate>
                      <ntsc>FALSE</ntsc>
                      <timebase>25</timebase>
                    </rate>
                    <width>1920</width>
                    <height>1080</height>
                    <pixelaspectratio>Square</pixelaspectratio>
                    <anamorphic>FALSE</anamorphic>
                  </samplecharacteristics>
                </video>
              </media>
            </file>
            <sourcetrack>
              <mediatype>video</mediatype>
            </sourcetrack>
            <fielddominance>none</fielddominance>
          </clipitem>
          <clipitem id="C.png505">
            <name>C.png</name>
            <duration>2.81</duration>
            <rate>
              <ntsc>FALSE</ntsc>
              <timebase>25</timebase>
            </rate>
            <in>91693.13</in>
            <out>91695.945</out>
            <start>1693.13</start>
            <end>1695.9401</end>
            <pixelaspectratio>Square</pixelaspectratio>
            <stillframe>TRUE</stillframe>
            <anamorphic>FALSE</anamorphic>
            <alphatype>straight</alphatype>
            <masterclipid>C.png505</masterclipid>
            <file id="C">
              <name>C.png</name>
              <pathurl>D:/Codes/SynthLip/SynthLipN/bin/Release/net6.0-windows8.0/publish/Skin/template/C.png</pathurl>
              <rate>
                <ntsc>FALSE</ntsc>
                <timebase>25</timebase>
              </rate>
              <duration>2</duration>
              <width>1920</width>
              <height>1080</height>
              <media>
                <video>
                  <duration>2</duration>
                  <stillframe>TRUE</stillframe>
                  <samplecharacteristics>
                    <rate>
                      <ntsc>FALSE</ntsc>
                      <timebase>25</timebase>
                    </rate>
                    <width>1920</width>
                    <height>1080</height>
                    <pixelaspectratio>Square</pixelaspectratio>
                    <anamorphic>FALSE</anamorphic>
                  </samplecharacteristics>
                </video>
              </media>
            </file>
            <sourcetrack>
              <mediatype>video</mediatype>
            </sourcetrack>
            <fielddominance>none</fielddominance>
          </clipitem>
          <clipitem id="C.png504">
            <name>C.png</name>
            <duration>1.88</duration>
            <rate>
              <ntsc>FALSE</ntsc>
              <timebase>25</timebase>
            </rate>
            <in>91691.25</in>
            <out>91693.13</out>
            <start>1691.25</start>
            <end>1693.13</end>
            <pixelaspectratio>Square</pixelaspectratio>
            <stillframe>TRUE</stillframe>
            <anamorphic>FALSE</anamorphic>
            <alphatype>straight</alphatype>
            <masterclipid>C.png504</masterclipid>
            <file id="C">
              <name>C.png</name>
              <pathurl>D:/Codes/SynthLip/SynthLipN/bin/Release/net6.0-windows8.0/publish/Skin/template/C.png</pathurl>
              <rate>
                <ntsc>FALSE</ntsc>
                <timebase>25</timebase>
              </rate>
              <duration>2</duration>
              <width>1920</width>
              <height>1080</height>
              <media>
                <video>
                  <duration>2</duration>
                  <stillframe>TRUE</stillframe>
                  <samplecharacteristics>
                    <rate>
                      <ntsc>FALSE</ntsc>
                      <timebase>25</timebase>
                    </rate>
                    <width>1920</width>
                    <height>1080</height>
                    <pixelaspectratio>Square</pixelaspectratio>
                    <anamorphic>FALSE</anamorphic>
                  </samplecharacteristics>
                </video>
              </media>
            </file>
            <sourcetrack>
              <mediatype>video</mediatype>
            </sourcetrack>
            <fielddominance>none</fielddominance>
          </clipitem>
          <clipitem id="C.png503">
            <name>C.png</name>
            <duration>3.75</duration>
            <rate>
              <ntsc>FALSE</ntsc>
              <timebase>25</timebase>
            </rate>
            <in>91687.5</in>
            <out>91691.25</out>
            <start>1687.5</start>
            <end>1691.25</end>
            <pixelaspectratio>Square</pixelaspectratio>
            <stillframe>TRUE</stillframe>
            <anamorphic>FALSE</anamorphic>
            <alphatype>straight</alphatype>
            <masterclipid>C.png503</masterclipid>
            <file id="C">
              <name>C.png</name>
              <pathurl>D:/Codes/SynthLip/SynthLipN/bin/Release/net6.0-windows8.0/publish/Skin/template/C.png</pathurl>
              <rate>
                <ntsc>FALSE</ntsc>
                <timebase>25</timebase>
              </rate>
              <duration>2</duration>
              <width>1920</width>
              <height>1080</height>
              <media>
                <video>
                  <duration>2</duration>
                  <stillframe>TRUE</stillframe>
                  <samplecharacteristics>
                    <rate>
                      <ntsc>FALSE</ntsc>
                      <timebase>25</timebase>
                    </rate>
                    <width>1920</width>
                    <height>1080</height>
                    <pixelaspectratio>Square</pixelaspectratio>
                    <anamorphic>FALSE</anamorphic>
                  </samplecharacteristics>
                </video>
              </media>
            </file>
            <sourcetrack>
              <mediatype>video</mediatype>
            </sourcetrack>
            <fielddominance>none</fielddominance>
          </clipitem>
          <clipitem id="B.png502">
            <name>B.png</name>
            <duration>5.94</duration>
            <rate>
              <ntsc>FALSE</ntsc>
              <timebase>25</timebase>
            </rate>
            <in>91681.56</in>
            <out>91687.5</out>
            <start>1681.56</start>
            <end>1687.5</end>
            <pixelaspectratio>Square</pixelaspectratio>
            <stillframe>TRUE</stillframe>
            <anamorphic>FALSE</anamorphic>
            <alphatype>straight</alphatype>
            <masterclipid>B.png502</masterclipid>
            <file id="B">
              <name>B.png</name>
              <pathurl>D:/Codes/SynthLip/SynthLipN/bin/Release/net6.0-windows8.0/publish/Skin/template/B.png</pathurl>
              <rate>
                <ntsc>FALSE</ntsc>
                <timebase>25</timebase>
              </rate>
              <duration>2</duration>
              <width>1920</width>
              <height>1080</height>
              <media>
                <video>
                  <duration>2</duration>
                  <stillframe>TRUE</stillframe>
                  <samplecharacteristics>
                    <rate>
                      <ntsc>FALSE</ntsc>
                      <timebase>25</timebase>
                    </rate>
                    <width>1920</width>
                    <height>1080</height>
                    <pixelaspectratio>Square</pixelaspectratio>
                    <anamorphic>FALSE</anamorphic>
                  </samplecharacteristics>
                </video>
              </media>
            </file>
            <sourcetrack>
              <mediatype>video</mediatype>
            </sourcetrack>
            <fielddominance>none</fielddominance>
          </clipitem>
          <clipitem id="B.png501">
            <name>B.png</name>
            <duration>0.31</duration>
            <rate>
              <ntsc>FALSE</ntsc>
              <timebase>25</timebase>
            </rate>
            <in>91681.25</in>
            <out>91681.56</out>
            <start>1681.25</start>
            <end>1681.56</end>
            <pixelaspectratio>Square</pixelaspectratio>
            <stillframe>TRUE</stillframe>
            <anamorphic>FALSE</anamorphic>
            <alphatype>straight</alphatype>
            <masterclipid>B.png501</masterclipid>
            <file id="B">
              <name>B.png</name>
              <pathurl>D:/Codes/SynthLip/SynthLipN/bin/Release/net6.0-windows8.0/publish/Skin/template/B.png</pathurl>
              <rate>
                <ntsc>FALSE</ntsc>
                <timebase>25</timebase>
              </rate>
              <duration>2</duration>
              <width>1920</width>
              <height>1080</height>
              <media>
                <video>
                  <duration>2</duration>
                  <stillframe>TRUE</stillframe>
                  <samplecharacteristics>
                    <rate>
                      <ntsc>FALSE</ntsc>
                      <timebase>25</timebase>
                    </rate>
                    <width>1920</width>
                    <height>1080</height>
                    <pixelaspectratio>Square</pixelaspectratio>
                    <anamorphic>FALSE</anamorphic>
                  </samplecharacteristics>
                </video>
              </media>
            </file>
            <sourcetrack>
              <mediatype>video</mediatype>
            </sourcetrack>
            <fielddominance>none</fielddominance>
          </clipitem>
          <clipitem id="C.png500">
            <name>C.png</name>
            <duration>1.87</duration>
            <rate>
              <ntsc>FALSE</ntsc>
              <timebase>25</timebase>
            </rate>
            <in>91679.38</in>
            <out>91681.25</out>
            <start>1679.38</start>
            <end>1681.25</end>
            <pixelaspectratio>Square</pixelaspectratio>
            <stillframe>TRUE</stillframe>
            <anamorphic>FALSE</anamorphic>
            <alphatype>straight</alphatype>
            <masterclipid>C.png500</masterclipid>
            <file id="C">
              <name>C.png</name>
              <pathurl>D:/Codes/SynthLip/SynthLipN/bin/Release/net6.0-windows8.0/publish/Skin/template/C.png</pathurl>
              <rate>
                <ntsc>FALSE</ntsc>
                <timebase>25</timebase>
              </rate>
              <duration>2</duration>
              <width>1920</width>
              <height>1080</height>
              <media>
                <video>
                  <duration>2</duration>
                  <stillframe>TRUE</stillframe>
                  <samplecharacteristics>
                    <rate>
                      <ntsc>FALSE</ntsc>
                      <timebase>25</timebase>
                    </rate>
                    <width>1920</width>
                    <height>1080</height>
                    <pixelaspectratio>Square</pixelaspectratio>
                    <anamorphic>FALSE</anamorphic>
                  </samplecharacteristics>
                </video>
              </media>
            </file>
            <sourcetrack>
              <mediatype>video</mediatype>
            </sourcetrack>
            <fielddominance>none</fielddominance>
          </clipitem>
          <clipitem id="A.png499">
            <name>A.png</name>
            <duration>1.25</duration>
            <rate>
              <ntsc>FALSE</ntsc>
              <timebase>25</timebase>
            </rate>
            <in>91678.13</in>
            <out>91679.38</out>
            <start>1678.13</start>
            <end>1679.38</end>
            <pixelaspectratio>Square</pixelaspectratio>
            <stillframe>TRUE</stillframe>
            <anamorphic>FALSE</anamorphic>
            <alphatype>straight</alphatype>
            <masterclipid>A.png499</masterclipid>
            <file id="A">
              <name>A.png</name>
              <pathurl>D:/Codes/SynthLip/SynthLipN/bin/Release/net6.0-windows8.0/publish/Skin/template/A.png</pathurl>
              <rate>
                <ntsc>FALSE</ntsc>
                <timebase>25</timebase>
              </rate>
              <duration>2</duration>
              <width>1920</width>
              <height>1080</height>
              <media>
                <video>
                  <duration>2</duration>
                  <stillframe>TRUE</stillframe>
                  <samplecharacteristics>
                    <rate>
                      <ntsc>FALSE</ntsc>
                      <timebase>25</timebase>
                    </rate>
                    <width>1920</width>
                    <height>1080</height>
                    <pixelaspectratio>Square</pixelaspectratio>
                    <anamorphic>FALSE</anamorphic>
                  </samplecharacteristics>
                </video>
              </media>
            </file>
            <sourcetrack>
              <mediatype>video</mediatype>
            </sourcetrack>
            <fielddominance>none</fielddominance>
          </clipitem>
          <clipitem id="C.png498">
            <name>C.png</name>
            <duration>1.87</duration>
            <rate>
              <ntsc>FALSE</ntsc>
              <timebase>25</timebase>
            </rate>
            <in>91676.25</in>
            <out>91678.12</out>
            <start>1676.25</start>
            <end>1678.12</end>
            <pixelaspectratio>Square</pixelaspectratio>
            <stillframe>TRUE</stillframe>
            <anamorphic>FALSE</anamorphic>
            <alphatype>straight</alphatype>
            <masterclipid>C.png498</masterclipid>
            <file id="C">
              <name>C.png</name>
              <pathurl>D:/Codes/SynthLip/SynthLipN/bin/Release/net6.0-windows8.0/publish/Skin/template/C.png</pathurl>
              <rate>
                <ntsc>FALSE</ntsc>
                <timebase>25</timebase>
              </rate>
              <duration>2</duration>
              <width>1920</width>
              <height>1080</height>
              <media>
                <video>
                  <duration>2</duration>
                  <stillframe>TRUE</stillframe>
                  <samplecharacteristics>
                    <rate>
                      <ntsc>FALSE</ntsc>
                      <timebase>25</timebase>
                    </rate>
                    <width>1920</width>
                    <height>1080</height>
                    <pixelaspectratio>Square</pixelaspectratio>
                    <anamorphic>FALSE</anamorphic>
                  </samplecharacteristics>
                </video>
              </media>
            </file>
            <sourcetrack>
              <mediatype>video</mediatype>
            </sourcetrack>
            <fielddominance>none</fielddominance>
          </clipitem>
          <clipitem id="C.png497">
            <name>C.png</name>
            <duration>3.75</duration>
            <rate>
              <ntsc>FALSE</ntsc>
              <timebase>25</timebase>
            </rate>
            <in>91672.5</in>
            <out>91676.25</out>
            <start>1672.5</start>
            <end>1676.25</end>
            <pixelaspectratio>Square</pixelaspectratio>
            <stillframe>TRUE</stillframe>
            <anamorphic>FALSE</anamorphic>
            <alphatype>straight</alphatype>
            <masterclipid>C.png497</masterclipid>
            <file id="C">
              <name>C.png</name>
              <pathurl>D:/Codes/SynthLip/SynthLipN/bin/Release/net6.0-windows8.0/publish/Skin/template/C.png</pathurl>
              <rate>
                <ntsc>FALSE</ntsc>
                <timebase>25</timebase>
              </rate>
              <duration>2</duration>
              <width>1920</width>
              <height>1080</height>
              <media>
                <video>
                  <duration>2</duration>
                  <stillframe>TRUE</stillframe>
                  <samplecharacteristics>
                    <rate>
                      <ntsc>FALSE</ntsc>
                      <timebase>25</timebase>
                    </rate>
                    <width>1920</width>
                    <height>1080</height>
                    <pixelaspectratio>Square</pixelaspectratio>
                    <anamorphic>FALSE</anamorphic>
                  </samplecharacteristics>
                </video>
              </media>
            </file>
            <sourcetrack>
              <mediatype>video</mediatype>
            </sourcetrack>
            <fielddominance>none</fielddominance>
          </clipitem>
          <clipitem id="B.png496">
            <name>B.png</name>
            <duration>4.31</duration>
            <rate>
              <ntsc>FALSE</ntsc>
              <timebase>25</timebase>
            </rate>
            <in>91668.19</in>
            <out>91672.5</out>
            <start>1668.19</start>
            <end>1672.5</end>
            <pixelaspectratio>Square</pixelaspectratio>
            <stillframe>TRUE</stillframe>
            <anamorphic>FALSE</anamorphic>
            <alphatype>straight</alphatype>
            <masterclipid>B.png496</masterclipid>
            <file id="B">
              <name>B.png</name>
              <pathurl>D:/Codes/SynthLip/SynthLipN/bin/Release/net6.0-windows8.0/publish/Skin/template/B.png</pathurl>
              <rate>
                <ntsc>FALSE</ntsc>
                <timebase>25</timebase>
              </rate>
              <duration>2</duration>
              <width>1920</width>
              <height>1080</height>
              <media>
                <video>
                  <duration>2</duration>
                  <stillframe>TRUE</stillframe>
                  <samplecharacteristics>
                    <rate>
                      <ntsc>FALSE</ntsc>
                      <timebase>25</timebase>
                    </rate>
                    <width>1920</width>
                    <height>1080</height>
                    <pixelaspectratio>Square</pixelaspectratio>
                    <anamorphic>FALSE</anamorphic>
                  </samplecharacteristics>
                </video>
              </media>
            </file>
            <sourcetrack>
              <mediatype>video</mediatype>
            </sourcetrack>
            <fielddominance>none</fielddominance>
          </clipitem>
          <clipitem id="B.png495">
            <name>B.png</name>
            <duration>0.56</duration>
            <rate>
              <ntsc>FALSE</ntsc>
              <timebase>25</timebase>
            </rate>
            <in>91667.63</in>
            <out>91668.195</out>
            <start>1667.63</start>
            <end>1668.1901</end>
            <pixelaspectratio>Square</pixelaspectratio>
            <stillframe>TRUE</stillframe>
            <anamorphic>FALSE</anamorphic>
            <alphatype>straight</alphatype>
            <masterclipid>B.png495</masterclipid>
            <file id="B">
              <name>B.png</name>
              <pathurl>D:/Codes/SynthLip/SynthLipN/bin/Release/net6.0-windows8.0/publish/Skin/template/B.png</pathurl>
              <rate>
                <ntsc>FALSE</ntsc>
                <timebase>25</timebase>
              </rate>
              <duration>2</duration>
              <width>1920</width>
              <height>1080</height>
              <media>
                <video>
                  <duration>2</duration>
                  <stillframe>TRUE</stillframe>
                  <samplecharacteristics>
                    <rate>
                      <ntsc>FALSE</ntsc>
                      <timebase>25</timebase>
                    </rate>
                    <width>1920</width>
                    <height>1080</height>
                    <pixelaspectratio>Square</pixelaspectratio>
                    <anamorphic>FALSE</anamorphic>
                  </samplecharacteristics>
                </video>
              </media>
            </file>
            <sourcetrack>
              <mediatype>video</mediatype>
            </sourcetrack>
            <fielddominance>none</fielddominance>
          </clipitem>
          <clipitem id="C.png494">
            <name>C.png</name>
            <duration>0.38</duration>
            <rate>
              <ntsc>FALSE</ntsc>
              <timebase>25</timebase>
            </rate>
            <in>91667.25</in>
            <out>91667.63</out>
            <start>1667.25</start>
            <end>1667.63</end>
            <pixelaspectratio>Square</pixelaspectratio>
            <stillframe>TRUE</stillframe>
            <anamorphic>FALSE</anamorphic>
            <alphatype>straight</alphatype>
            <masterclipid>C.png494</masterclipid>
            <file id="C">
              <name>C.png</name>
              <pathurl>D:/Codes/SynthLip/SynthLipN/bin/Release/net6.0-windows8.0/publish/Skin/template/C.png</pathurl>
              <rate>
                <ntsc>FALSE</ntsc>
                <timebase>25</timebase>
              </rate>
              <duration>2</duration>
              <width>1920</width>
              <height>1080</height>
              <media>
                <video>
                  <duration>2</duration>
                  <stillframe>TRUE</stillframe>
                  <samplecharacteristics>
                    <rate>
                      <ntsc>FALSE</ntsc>
                      <timebase>25</timebase>
                    </rate>
                    <width>1920</width>
                    <height>1080</height>
                    <pixelaspectratio>Square</pixelaspectratio>
                    <anamorphic>FALSE</anamorphic>
                  </samplecharacteristics>
                </video>
              </media>
            </file>
            <sourcetrack>
              <mediatype>video</mediatype>
            </sourcetrack>
            <fielddominance>none</fielddominance>
          </clipitem>
          <clipitem id="C.png493">
            <name>C.png</name>
            <duration>1.78</duration>
            <rate>
              <ntsc>FALSE</ntsc>
              <timebase>25</timebase>
            </rate>
            <in>91665.47</in>
            <out>91667.25</out>
            <start>1665.47</start>
            <end>1667.25</end>
            <pixelaspectratio>Square</pixelaspectratio>
            <stillframe>TRUE</stillframe>
            <anamorphic>FALSE</anamorphic>
            <alphatype>straight</alphatype>
            <masterclipid>C.png493</masterclipid>
            <file id="C">
              <name>C.png</name>
              <pathurl>D:/Codes/SynthLip/SynthLipN/bin/Release/net6.0-windows8.0/publish/Skin/template/C.png</pathurl>
              <rate>
                <ntsc>FALSE</ntsc>
                <timebase>25</timebase>
              </rate>
              <duration>2</duration>
              <width>1920</width>
              <height>1080</height>
              <media>
                <video>
                  <duration>2</duration>
                  <stillframe>TRUE</stillframe>
                  <samplecharacteristics>
                    <rate>
                      <ntsc>FALSE</ntsc>
                      <timebase>25</timebase>
                    </rate>
                    <width>1920</width>
                    <height>1080</height>
                    <pixelaspectratio>Square</pixelaspectratio>
                    <anamorphic>FALSE</anamorphic>
                  </samplecharacteristics>
                </video>
              </media>
            </file>
            <sourcetrack>
              <mediatype>video</mediatype>
            </sourcetrack>
            <fielddominance>none</fielddominance>
          </clipitem>
          <clipitem id="B.png492">
            <name>B.png</name>
            <duration>1.03</duration>
            <rate>
              <ntsc>FALSE</ntsc>
              <timebase>25</timebase>
            </rate>
            <in>91664.44</in>
            <out>91665.47</out>
            <start>1664.44</start>
            <end>1665.47</end>
            <pixelaspectratio>Square</pixelaspectratio>
            <stillframe>TRUE</stillframe>
            <anamorphic>FALSE</anamorphic>
            <alphatype>straight</alphatype>
            <masterclipid>B.png492</masterclipid>
            <file id="B">
              <name>B.png</name>
              <pathurl>D:/Codes/SynthLip/SynthLipN/bin/Release/net6.0-windows8.0/publish/Skin/template/B.png</pathurl>
              <rate>
                <ntsc>FALSE</ntsc>
                <timebase>25</timebase>
              </rate>
              <duration>2</duration>
              <width>1920</width>
              <height>1080</height>
              <media>
                <video>
                  <duration>2</duration>
                  <stillframe>TRUE</stillframe>
                  <samplecharacteristics>
                    <rate>
                      <ntsc>FALSE</ntsc>
                      <timebase>25</timebase>
                    </rate>
                    <width>1920</width>
                    <height>1080</height>
                    <pixelaspectratio>Square</pixelaspectratio>
                    <anamorphic>FALSE</anamorphic>
                  </samplecharacteristics>
                </video>
              </media>
            </file>
            <sourcetrack>
              <mediatype>video</mediatype>
            </sourcetrack>
            <fielddominance>none</fielddominance>
          </clipitem>
          <clipitem id="B.png491">
            <name>B.png</name>
            <duration>1.31</duration>
            <rate>
              <ntsc>FALSE</ntsc>
              <timebase>25</timebase>
            </rate>
            <in>91663.13</in>
            <out>91664.445</out>
            <start>1663.13</start>
            <end>1664.4401</end>
            <pixelaspectratio>Square</pixelaspectratio>
            <stillframe>TRUE</stillframe>
            <anamorphic>FALSE</anamorphic>
            <alphatype>straight</alphatype>
            <masterclipid>B.png491</masterclipid>
            <file id="B">
              <name>B.png</name>
              <pathurl>D:/Codes/SynthLip/SynthLipN/bin/Release/net6.0-windows8.0/publish/Skin/template/B.png</pathurl>
              <rate>
                <ntsc>FALSE</ntsc>
                <timebase>25</timebase>
              </rate>
              <duration>2</duration>
              <width>1920</width>
              <height>1080</height>
              <media>
                <video>
                  <duration>2</duration>
                  <stillframe>TRUE</stillframe>
                  <samplecharacteristics>
                    <rate>
                      <ntsc>FALSE</ntsc>
                      <timebase>25</timebase>
                    </rate>
                    <width>1920</width>
                    <height>1080</height>
                    <pixelaspectratio>Square</pixelaspectratio>
                    <anamorphic>FALSE</anamorphic>
                  </samplecharacteristics>
                </video>
              </media>
            </file>
            <sourcetrack>
              <mediatype>video</mediatype>
            </sourcetrack>
            <fielddominance>none</fielddominance>
          </clipitem>
          <clipitem id="C.png490">
            <name>C.png</name>
            <duration>1.87</duration>
            <rate>
              <ntsc>FALSE</ntsc>
              <timebase>25</timebase>
            </rate>
            <in>91661.25</in>
            <out>91663.12</out>
            <start>1661.25</start>
            <end>1663.12</end>
            <pixelaspectratio>Square</pixelaspectratio>
            <stillframe>TRUE</stillframe>
            <anamorphic>FALSE</anamorphic>
            <alphatype>straight</alphatype>
            <masterclipid>C.png490</masterclipid>
            <file id="C">
              <name>C.png</name>
              <pathurl>D:/Codes/SynthLip/SynthLipN/bin/Release/net6.0-windows8.0/publish/Skin/template/C.png</pathurl>
              <rate>
                <ntsc>FALSE</ntsc>
                <timebase>25</timebase>
              </rate>
              <duration>2</duration>
              <width>1920</width>
              <height>1080</height>
              <media>
                <video>
                  <duration>2</duration>
                  <stillframe>TRUE</stillframe>
                  <samplecharacteristics>
                    <rate>
                      <ntsc>FALSE</ntsc>
                      <timebase>25</timebase>
                    </rate>
                    <width>1920</width>
                    <height>1080</height>
                    <pixelaspectratio>Square</pixelaspectratio>
                    <anamorphic>FALSE</anamorphic>
                  </samplecharacteristics>
                </video>
              </media>
            </file>
            <sourcetrack>
              <mediatype>video</mediatype>
            </sourcetrack>
            <fielddominance>none</fielddominance>
          </clipitem>
          <clipitem id="C.png489">
            <name>C.png</name>
            <duration>3.75</duration>
            <rate>
              <ntsc>FALSE</ntsc>
              <timebase>25</timebase>
            </rate>
            <in>91657.5</in>
            <out>91661.25</out>
            <start>1657.5</start>
            <end>1661.25</end>
            <pixelaspectratio>Square</pixelaspectratio>
            <stillframe>TRUE</stillframe>
            <anamorphic>FALSE</anamorphic>
            <alphatype>straight</alphatype>
            <masterclipid>C.png489</masterclipid>
            <file id="C">
              <name>C.png</name>
              <pathurl>D:/Codes/SynthLip/SynthLipN/bin/Release/net6.0-windows8.0/publish/Skin/template/C.png</pathurl>
              <rate>
                <ntsc>FALSE</ntsc>
                <timebase>25</timebase>
              </rate>
              <duration>2</duration>
              <width>1920</width>
              <height>1080</height>
              <media>
                <video>
                  <duration>2</duration>
                  <stillframe>TRUE</stillframe>
                  <samplecharacteristics>
                    <rate>
                      <ntsc>FALSE</ntsc>
                      <timebase>25</timebase>
                    </rate>
                    <width>1920</width>
                    <height>1080</height>
                    <pixelaspectratio>Square</pixelaspectratio>
                    <anamorphic>FALSE</anamorphic>
                  </samplecharacteristics>
                </video>
              </media>
            </file>
            <sourcetrack>
              <mediatype>video</mediatype>
            </sourcetrack>
            <fielddominance>none</fielddominance>
          </clipitem>
          <clipitem id="F.png488">
            <name>F.png</name>
            <duration>5.63</duration>
            <rate>
              <ntsc>FALSE</ntsc>
              <timebase>25</timebase>
            </rate>
            <in>91651.87</in>
            <out>91657.5</out>
            <start>1651.87</start>
            <end>1657.5</end>
            <pixelaspectratio>Square</pixelaspectratio>
            <stillframe>TRUE</stillframe>
            <anamorphic>FALSE</anamorphic>
            <alphatype>straight</alphatype>
            <masterclipid>F.png488</masterclipid>
            <file id="F">
              <name>F.png</name>
              <pathurl>D:/Codes/SynthLip/SynthLipN/bin/Release/net6.0-windows8.0/publish/Skin/template/F.png</pathurl>
              <rate>
                <ntsc>FALSE</ntsc>
                <timebase>25</timebase>
              </rate>
              <duration>2</duration>
              <width>1920</width>
              <height>1080</height>
              <media>
                <video>
                  <duration>2</duration>
                  <stillframe>TRUE</stillframe>
                  <samplecharacteristics>
                    <rate>
                      <ntsc>FALSE</ntsc>
                      <timebase>25</timebase>
                    </rate>
                    <width>1920</width>
                    <height>1080</height>
                    <pixelaspectratio>Square</pixelaspectratio>
                    <anamorphic>FALSE</anamorphic>
                  </samplecharacteristics>
                </video>
              </media>
            </file>
            <sourcetrack>
              <mediatype>video</mediatype>
            </sourcetrack>
            <fielddominance>none</fielddominance>
          </clipitem>
          <clipitem id="F.png487">
            <name>F.png</name>
            <duration>1.41</duration>
            <rate>
              <ntsc>FALSE</ntsc>
              <timebase>25</timebase>
            </rate>
            <in>91650.47</in>
            <out>91651.875</out>
            <start>1650.47</start>
            <end>1651.88</end>
            <pixelaspectratio>Square</pixelaspectratio>
            <stillframe>TRUE</stillframe>
            <anamorphic>FALSE</anamorphic>
            <alphatype>straight</alphatype>
            <masterclipid>F.png487</masterclipid>
            <file id="F">
              <name>F.png</name>
              <pathurl>D:/Codes/SynthLip/SynthLipN/bin/Release/net6.0-windows8.0/publish/Skin/template/F.png</pathurl>
              <rate>
                <ntsc>FALSE</ntsc>
                <timebase>25</timebase>
              </rate>
              <duration>2</duration>
              <width>1920</width>
              <height>1080</height>
              <media>
                <video>
                  <duration>2</duration>
                  <stillframe>TRUE</stillframe>
                  <samplecharacteristics>
                    <rate>
                      <ntsc>FALSE</ntsc>
                      <timebase>25</timebase>
                    </rate>
                    <width>1920</width>
                    <height>1080</height>
                    <pixelaspectratio>Square</pixelaspectratio>
                    <anamorphic>FALSE</anamorphic>
                  </samplecharacteristics>
                </video>
              </media>
            </file>
            <sourcetrack>
              <mediatype>video</mediatype>
            </sourcetrack>
            <fielddominance>none</fielddominance>
          </clipitem>
          <clipitem id="B.png486">
            <name>B.png</name>
            <duration>0.47</duration>
            <rate>
              <ntsc>FALSE</ntsc>
              <timebase>25</timebase>
            </rate>
            <in>91650</in>
            <out>91650.47</out>
            <start>1650</start>
            <end>1650.47</end>
            <pixelaspectratio>Square</pixelaspectratio>
            <stillframe>TRUE</stillframe>
            <anamorphic>FALSE</anamorphic>
            <alphatype>straight</alphatype>
            <masterclipid>B.png486</masterclipid>
            <file id="B">
              <name>B.png</name>
              <pathurl>D:/Codes/SynthLip/SynthLipN/bin/Release/net6.0-windows8.0/publish/Skin/template/B.png</pathurl>
              <rate>
                <ntsc>FALSE</ntsc>
                <timebase>25</timebase>
              </rate>
              <duration>2</duration>
              <width>1920</width>
              <height>1080</height>
              <media>
                <video>
                  <duration>2</duration>
                  <stillframe>TRUE</stillframe>
                  <samplecharacteristics>
                    <rate>
                      <ntsc>FALSE</ntsc>
                      <timebase>25</timebase>
                    </rate>
                    <width>1920</width>
                    <height>1080</height>
                    <pixelaspectratio>Square</pixelaspectratio>
                    <anamorphic>FALSE</anamorphic>
                  </samplecharacteristics>
                </video>
              </media>
            </file>
            <sourcetrack>
              <mediatype>video</mediatype>
            </sourcetrack>
            <fielddominance>none</fielddominance>
          </clipitem>
          <clipitem id="C.png485">
            <name>C.png</name>
            <duration>6.09</duration>
            <rate>
              <ntsc>FALSE</ntsc>
              <timebase>25</timebase>
            </rate>
            <in>91643.91</in>
            <out>91650</out>
            <start>1643.91</start>
            <end>1650</end>
            <pixelaspectratio>Square</pixelaspectratio>
            <stillframe>TRUE</stillframe>
            <anamorphic>FALSE</anamorphic>
            <alphatype>straight</alphatype>
            <masterclipid>C.png485</masterclipid>
            <file id="C">
              <name>C.png</name>
              <pathurl>D:/Codes/SynthLip/SynthLipN/bin/Release/net6.0-windows8.0/publish/Skin/template/C.png</pathurl>
              <rate>
                <ntsc>FALSE</ntsc>
                <timebase>25</timebase>
              </rate>
              <duration>2</duration>
              <width>1920</width>
              <height>1080</height>
              <media>
                <video>
                  <duration>2</duration>
                  <stillframe>TRUE</stillframe>
                  <samplecharacteristics>
                    <rate>
                      <ntsc>FALSE</ntsc>
                      <timebase>25</timebase>
                    </rate>
                    <width>1920</width>
                    <height>1080</height>
                    <pixelaspectratio>Square</pixelaspectratio>
                    <anamorphic>FALSE</anamorphic>
                  </samplecharacteristics>
                </video>
              </media>
            </file>
            <sourcetrack>
              <mediatype>video</mediatype>
            </sourcetrack>
            <fielddominance>none</fielddominance>
          </clipitem>
          <clipitem id="C.png484">
            <name>C.png</name>
            <duration>1.41</duration>
            <rate>
              <ntsc>FALSE</ntsc>
              <timebase>25</timebase>
            </rate>
            <in>91642.5</in>
            <out>91643.91</out>
            <start>1642.5</start>
            <end>1643.91</end>
            <pixelaspectratio>Square</pixelaspectratio>
            <stillframe>TRUE</stillframe>
            <anamorphic>FALSE</anamorphic>
            <alphatype>straight</alphatype>
            <masterclipid>C.png484</masterclipid>
            <file id="C">
              <name>C.png</name>
              <pathurl>D:/Codes/SynthLip/SynthLipN/bin/Release/net6.0-windows8.0/publish/Skin/template/C.png</pathurl>
              <rate>
                <ntsc>FALSE</ntsc>
                <timebase>25</timebase>
              </rate>
              <duration>2</duration>
              <width>1920</width>
              <height>1080</height>
              <media>
                <video>
                  <duration>2</duration>
                  <stillframe>TRUE</stillframe>
                  <samplecharacteristics>
                    <rate>
                      <ntsc>FALSE</ntsc>
                      <timebase>25</timebase>
                    </rate>
                    <width>1920</width>
                    <height>1080</height>
                    <pixelaspectratio>Square</pixelaspectratio>
                    <anamorphic>FALSE</anamorphic>
                  </samplecharacteristics>
                </video>
              </media>
            </file>
            <sourcetrack>
              <mediatype>video</mediatype>
            </sourcetrack>
            <fielddominance>none</fielddominance>
          </clipitem>
          <clipitem id="C.png483">
            <name>C.png</name>
            <duration>5.86</duration>
            <rate>
              <ntsc>FALSE</ntsc>
              <timebase>25</timebase>
            </rate>
            <in>91636.64</in>
            <out>91642.5</out>
            <start>1636.64</start>
            <end>1642.5</end>
            <pixelaspectratio>Square</pixelaspectratio>
            <stillframe>TRUE</stillframe>
            <anamorphic>FALSE</anamorphic>
            <alphatype>straight</alphatype>
            <masterclipid>C.png483</masterclipid>
            <file id="C">
              <name>C.png</name>
              <pathurl>D:/Codes/SynthLip/SynthLipN/bin/Release/net6.0-windows8.0/publish/Skin/template/C.png</pathurl>
              <rate>
                <ntsc>FALSE</ntsc>
                <timebase>25</timebase>
              </rate>
              <duration>2</duration>
              <width>1920</width>
              <height>1080</height>
              <media>
                <video>
                  <duration>2</duration>
                  <stillframe>TRUE</stillframe>
                  <samplecharacteristics>
                    <rate>
                      <ntsc>FALSE</ntsc>
                      <timebase>25</timebase>
                    </rate>
                    <width>1920</width>
                    <height>1080</height>
                    <pixelaspectratio>Square</pixelaspectratio>
                    <anamorphic>FALSE</anamorphic>
                  </samplecharacteristics>
                </video>
              </media>
            </file>
            <sourcetrack>
              <mediatype>video</mediatype>
            </sourcetrack>
            <fielddominance>none</fielddominance>
          </clipitem>
          <clipitem id="C.png482">
            <name>C.png</name>
            <duration>0.23</duration>
            <rate>
              <ntsc>FALSE</ntsc>
              <timebase>25</timebase>
            </rate>
            <in>91636.41</in>
            <out>91636.63</out>
            <start>1636.41</start>
            <end>1636.64</end>
            <pixelaspectratio>Square</pixelaspectratio>
            <stillframe>TRUE</stillframe>
            <anamorphic>FALSE</anamorphic>
            <alphatype>straight</alphatype>
            <masterclipid>C.png482</masterclipid>
            <file id="C">
              <name>C.png</name>
              <pathurl>D:/Codes/SynthLip/SynthLipN/bin/Release/net6.0-windows8.0/publish/Skin/template/C.png</pathurl>
              <rate>
                <ntsc>FALSE</ntsc>
                <timebase>25</timebase>
              </rate>
              <duration>2</duration>
              <width>1920</width>
              <height>1080</height>
              <media>
                <video>
                  <duration>2</duration>
                  <stillframe>TRUE</stillframe>
                  <samplecharacteristics>
                    <rate>
                      <ntsc>FALSE</ntsc>
                      <timebase>25</timebase>
                    </rate>
                    <width>1920</width>
                    <height>1080</height>
                    <pixelaspectratio>Square</pixelaspectratio>
                    <anamorphic>FALSE</anamorphic>
                  </samplecharacteristics>
                </video>
              </media>
            </file>
            <sourcetrack>
              <mediatype>video</mediatype>
            </sourcetrack>
            <fielddominance>none</fielddominance>
          </clipitem>
          <clipitem id="C.png481">
            <name>C.png</name>
            <duration>1.13</duration>
            <rate>
              <ntsc>FALSE</ntsc>
              <timebase>25</timebase>
            </rate>
            <in>91635.27</in>
            <out>91636.41</out>
            <start>1635.27</start>
            <end>1636.4</end>
            <pixelaspectratio>Square</pixelaspectratio>
            <stillframe>TRUE</stillframe>
            <anamorphic>FALSE</anamorphic>
            <alphatype>straight</alphatype>
            <masterclipid>C.png481</masterclipid>
            <file id="C">
              <name>C.png</name>
              <pathurl>D:/Codes/SynthLip/SynthLipN/bin/Release/net6.0-windows8.0/publish/Skin/template/C.png</pathurl>
              <rate>
                <ntsc>FALSE</ntsc>
                <timebase>25</timebase>
              </rate>
              <duration>2</duration>
              <width>1920</width>
              <height>1080</height>
              <media>
                <video>
                  <duration>2</duration>
                  <stillframe>TRUE</stillframe>
                  <samplecharacteristics>
                    <rate>
                      <ntsc>FALSE</ntsc>
                      <timebase>25</timebase>
                    </rate>
                    <width>1920</width>
                    <height>1080</height>
                    <pixelaspectratio>Square</pixelaspectratio>
                    <anamorphic>FALSE</anamorphic>
                  </samplecharacteristics>
                </video>
              </media>
            </file>
            <sourcetrack>
              <mediatype>video</mediatype>
            </sourcetrack>
            <fielddominance>none</fielddominance>
          </clipitem>
          <clipitem id="A.png480">
            <name>A.png</name>
            <duration>0.66</duration>
            <rate>
              <ntsc>FALSE</ntsc>
              <timebase>25</timebase>
            </rate>
            <in>91634.61</in>
            <out>91635.266</out>
            <start>1634.61</start>
            <end>1635.27</end>
            <pixelaspectratio>Square</pixelaspectratio>
            <stillframe>TRUE</stillframe>
            <anamorphic>FALSE</anamorphic>
            <alphatype>straight</alphatype>
            <masterclipid>A.png480</masterclipid>
            <file id="A">
              <name>A.png</name>
              <pathurl>D:/Codes/SynthLip/SynthLipN/bin/Release/net6.0-windows8.0/publish/Skin/template/A.png</pathurl>
              <rate>
                <ntsc>FALSE</ntsc>
                <timebase>25</timebase>
              </rate>
              <duration>2</duration>
              <width>1920</width>
              <height>1080</height>
              <media>
                <video>
                  <duration>2</duration>
                  <stillframe>TRUE</stillframe>
                  <samplecharacteristics>
                    <rate>
                      <ntsc>FALSE</ntsc>
                      <timebase>25</timebase>
                    </rate>
                    <width>1920</width>
                    <height>1080</height>
                    <pixelaspectratio>Square</pixelaspectratio>
                    <anamorphic>FALSE</anamorphic>
                  </samplecharacteristics>
                </video>
              </media>
            </file>
            <sourcetrack>
              <mediatype>video</mediatype>
            </sourcetrack>
            <fielddominance>none</fielddominance>
          </clipitem>
          <clipitem id="B.png479">
            <name>B.png</name>
            <duration>0.86</duration>
            <rate>
              <ntsc>FALSE</ntsc>
              <timebase>25</timebase>
            </rate>
            <in>91633.75</in>
            <out>91634.61</out>
            <start>1633.75</start>
            <end>1634.61</end>
            <pixelaspectratio>Square</pixelaspectratio>
            <stillframe>TRUE</stillframe>
            <anamorphic>FALSE</anamorphic>
            <alphatype>straight</alphatype>
            <masterclipid>B.png479</masterclipid>
            <file id="B">
              <name>B.png</name>
              <pathurl>D:/Codes/SynthLip/SynthLipN/bin/Release/net6.0-windows8.0/publish/Skin/template/B.png</pathurl>
              <rate>
                <ntsc>FALSE</ntsc>
                <timebase>25</timebase>
              </rate>
              <duration>2</duration>
              <width>1920</width>
              <height>1080</height>
              <media>
                <video>
                  <duration>2</duration>
                  <stillframe>TRUE</stillframe>
                  <samplecharacteristics>
                    <rate>
                      <ntsc>FALSE</ntsc>
                      <timebase>25</timebase>
                    </rate>
                    <width>1920</width>
                    <height>1080</height>
                    <pixelaspectratio>Square</pixelaspectratio>
                    <anamorphic>FALSE</anamorphic>
                  </samplecharacteristics>
                </video>
              </media>
            </file>
            <sourcetrack>
              <mediatype>video</mediatype>
            </sourcetrack>
            <fielddominance>none</fielddominance>
          </clipitem>
          <clipitem id="B.png478">
            <name>B.png</name>
            <duration>1.25</duration>
            <rate>
              <ntsc>FALSE</ntsc>
              <timebase>25</timebase>
            </rate>
            <in>91632.5</in>
            <out>91633.75</out>
            <start>1632.5</start>
            <end>1633.75</end>
            <pixelaspectratio>Square</pixelaspectratio>
            <stillframe>TRUE</stillframe>
            <anamorphic>FALSE</anamorphic>
            <alphatype>straight</alphatype>
            <masterclipid>B.png478</masterclipid>
            <file id="B">
              <name>B.png</name>
              <pathurl>D:/Codes/SynthLip/SynthLipN/bin/Release/net6.0-windows8.0/publish/Skin/template/B.png</pathurl>
              <rate>
                <ntsc>FALSE</ntsc>
                <timebase>25</timebase>
              </rate>
              <duration>2</duration>
              <width>1920</width>
              <height>1080</height>
              <media>
                <video>
                  <duration>2</duration>
                  <stillframe>TRUE</stillframe>
                  <samplecharacteristics>
                    <rate>
                      <ntsc>FALSE</ntsc>
                      <timebase>25</timebase>
                    </rate>
                    <width>1920</width>
                    <height>1080</height>
                    <pixelaspectratio>Square</pixelaspectratio>
                    <anamorphic>FALSE</anamorphic>
                  </samplecharacteristics>
                </video>
              </media>
            </file>
            <sourcetrack>
              <mediatype>video</mediatype>
            </sourcetrack>
            <fielddominance>none</fielddominance>
          </clipitem>
          <clipitem id="C.png477">
            <name>C.png</name>
            <duration>3.75</duration>
            <rate>
              <ntsc>FALSE</ntsc>
              <timebase>25</timebase>
            </rate>
            <in>91628.75</in>
            <out>91632.5</out>
            <start>1628.75</start>
            <end>1632.5</end>
            <pixelaspectratio>Square</pixelaspectratio>
            <stillframe>TRUE</stillframe>
            <anamorphic>FALSE</anamorphic>
            <alphatype>straight</alphatype>
            <masterclipid>C.png477</masterclipid>
            <file id="C">
              <name>C.png</name>
              <pathurl>D:/Codes/SynthLip/SynthLipN/bin/Release/net6.0-windows8.0/publish/Skin/template/C.png</pathurl>
              <rate>
                <ntsc>FALSE</ntsc>
                <timebase>25</timebase>
              </rate>
              <duration>2</duration>
              <width>1920</width>
              <height>1080</height>
              <media>
                <video>
                  <duration>2</duration>
                  <stillframe>TRUE</stillframe>
                  <samplecharacteristics>
                    <rate>
                      <ntsc>FALSE</ntsc>
                      <timebase>25</timebase>
                    </rate>
                    <width>1920</width>
                    <height>1080</height>
                    <pixelaspectratio>Square</pixelaspectratio>
                    <anamorphic>FALSE</anamorphic>
                  </samplecharacteristics>
                </video>
              </media>
            </file>
            <sourcetrack>
              <mediatype>video</mediatype>
            </sourcetrack>
            <fielddominance>none</fielddominance>
          </clipitem>
          <clipitem id="G.png476">
            <name>G.png</name>
            <duration>1.25</duration>
            <rate>
              <ntsc>FALSE</ntsc>
              <timebase>25</timebase>
            </rate>
            <in>91627.5</in>
            <out>91628.75</out>
            <start>1627.5</start>
            <end>1628.75</end>
            <pixelaspectratio>Square</pixelaspectratio>
            <stillframe>TRUE</stillframe>
            <anamorphic>FALSE</anamorphic>
            <alphatype>straight</alphatype>
            <masterclipid>G.png476</masterclipid>
            <file id="G">
              <name>G.png</name>
              <pathurl>D:/Codes/SynthLip/SynthLipN/bin/Release/net6.0-windows8.0/publish/Skin/template/G.png</pathurl>
              <rate>
                <ntsc>FALSE</ntsc>
                <timebase>25</timebase>
              </rate>
              <duration>2</duration>
              <width>1920</width>
              <height>1080</height>
              <media>
                <video>
                  <duration>2</duration>
                  <stillframe>TRUE</stillframe>
                  <samplecharacteristics>
                    <rate>
                      <ntsc>FALSE</ntsc>
                      <timebase>25</timebase>
                    </rate>
                    <width>1920</width>
                    <height>1080</height>
                    <pixelaspectratio>Square</pixelaspectratio>
                    <anamorphic>FALSE</anamorphic>
                  </samplecharacteristics>
                </video>
              </media>
            </file>
            <sourcetrack>
              <mediatype>video</mediatype>
            </sourcetrack>
            <fielddominance>none</fielddominance>
          </clipitem>
          <clipitem id="C.png475">
            <name>C.png</name>
            <duration>5.62</duration>
            <rate>
              <ntsc>FALSE</ntsc>
              <timebase>25</timebase>
            </rate>
            <in>91621.88</in>
            <out>91627.5</out>
            <start>1621.88</start>
            <end>1627.5</end>
            <pixelaspectratio>Square</pixelaspectratio>
            <stillframe>TRUE</stillframe>
            <anamorphic>FALSE</anamorphic>
            <alphatype>straight</alphatype>
            <masterclipid>C.png475</masterclipid>
            <file id="C">
              <name>C.png</name>
              <pathurl>D:/Codes/SynthLip/SynthLipN/bin/Release/net6.0-windows8.0/publish/Skin/template/C.png</pathurl>
              <rate>
                <ntsc>FALSE</ntsc>
                <timebase>25</timebase>
              </rate>
              <duration>2</duration>
              <width>1920</width>
              <height>1080</height>
              <media>
                <video>
                  <duration>2</duration>
                  <stillframe>TRUE</stillframe>
                  <samplecharacteristics>
                    <rate>
                      <ntsc>FALSE</ntsc>
                      <timebase>25</timebase>
                    </rate>
                    <width>1920</width>
                    <height>1080</height>
                    <pixelaspectratio>Square</pixelaspectratio>
                    <anamorphic>FALSE</anamorphic>
                  </samplecharacteristics>
                </video>
              </media>
            </file>
            <sourcetrack>
              <mediatype>video</mediatype>
            </sourcetrack>
            <fielddominance>none</fielddominance>
          </clipitem>
          <clipitem id="C.png474">
            <name>C.png</name>
            <duration>3.13</duration>
            <rate>
              <ntsc>FALSE</ntsc>
              <timebase>25</timebase>
            </rate>
            <in>91618.75</in>
            <out>91621.88</out>
            <start>1618.75</start>
            <end>1621.88</end>
            <pixelaspectratio>Square</pixelaspectratio>
            <stillframe>TRUE</stillframe>
            <anamorphic>FALSE</anamorphic>
            <alphatype>straight</alphatype>
            <masterclipid>C.png474</masterclipid>
            <file id="C">
              <name>C.png</name>
              <pathurl>D:/Codes/SynthLip/SynthLipN/bin/Release/net6.0-windows8.0/publish/Skin/template/C.png</pathurl>
              <rate>
                <ntsc>FALSE</ntsc>
                <timebase>25</timebase>
              </rate>
              <duration>2</duration>
              <width>1920</width>
              <height>1080</height>
              <media>
                <video>
                  <duration>2</duration>
                  <stillframe>TRUE</stillframe>
                  <samplecharacteristics>
                    <rate>
                      <ntsc>FALSE</ntsc>
                      <timebase>25</timebase>
                    </rate>
                    <width>1920</width>
                    <height>1080</height>
                    <pixelaspectratio>Square</pixelaspectratio>
                    <anamorphic>FALSE</anamorphic>
                  </samplecharacteristics>
                </video>
              </media>
            </file>
            <sourcetrack>
              <mediatype>video</mediatype>
            </sourcetrack>
            <fielddominance>none</fielddominance>
          </clipitem>
          <clipitem id="B.png473">
            <name>B.png</name>
            <duration>1.25</duration>
            <rate>
              <ntsc>FALSE</ntsc>
              <timebase>25</timebase>
            </rate>
            <in>91617.5</in>
            <out>91618.75</out>
            <start>1617.5</start>
            <end>1618.75</end>
            <pixelaspectratio>Square</pixelaspectratio>
            <stillframe>TRUE</stillframe>
            <anamorphic>FALSE</anamorphic>
            <alphatype>straight</alphatype>
            <masterclipid>B.png473</masterclipid>
            <file id="B">
              <name>B.png</name>
              <pathurl>D:/Codes/SynthLip/SynthLipN/bin/Release/net6.0-windows8.0/publish/Skin/template/B.png</pathurl>
              <rate>
                <ntsc>FALSE</ntsc>
                <timebase>25</timebase>
              </rate>
              <duration>2</duration>
              <width>1920</width>
              <height>1080</height>
              <media>
                <video>
                  <duration>2</duration>
                  <stillframe>TRUE</stillframe>
                  <samplecharacteristics>
                    <rate>
                      <ntsc>FALSE</ntsc>
                      <timebase>25</timebase>
                    </rate>
                    <width>1920</width>
                    <height>1080</height>
                    <pixelaspectratio>Square</pixelaspectratio>
                    <anamorphic>FALSE</anamorphic>
                  </samplecharacteristics>
                </video>
              </media>
            </file>
            <sourcetrack>
              <mediatype>video</mediatype>
            </sourcetrack>
            <fielddominance>none</fielddominance>
          </clipitem>
          <clipitem id="C.png472">
            <name>C.png</name>
            <duration>3.75</duration>
            <rate>
              <ntsc>FALSE</ntsc>
              <timebase>25</timebase>
            </rate>
            <in>91613.75</in>
            <out>91617.5</out>
            <start>1613.75</start>
            <end>1617.5</end>
            <pixelaspectratio>Square</pixelaspectratio>
            <stillframe>TRUE</stillframe>
            <anamorphic>FALSE</anamorphic>
            <alphatype>straight</alphatype>
            <masterclipid>C.png472</masterclipid>
            <file id="C">
              <name>C.png</name>
              <pathurl>D:/Codes/SynthLip/SynthLipN/bin/Release/net6.0-windows8.0/publish/Skin/template/C.png</pathurl>
              <rate>
                <ntsc>FALSE</ntsc>
                <timebase>25</timebase>
              </rate>
              <duration>2</duration>
              <width>1920</width>
              <height>1080</height>
              <media>
                <video>
                  <duration>2</duration>
                  <stillframe>TRUE</stillframe>
                  <samplecharacteristics>
                    <rate>
                      <ntsc>FALSE</ntsc>
                      <timebase>25</timebase>
                    </rate>
                    <width>1920</width>
                    <height>1080</height>
                    <pixelaspectratio>Square</pixelaspectratio>
                    <anamorphic>FALSE</anamorphic>
                  </samplecharacteristics>
                </video>
              </media>
            </file>
            <sourcetrack>
              <mediatype>video</mediatype>
            </sourcetrack>
            <fielddominance>none</fielddominance>
          </clipitem>
          <clipitem id="G.png471">
            <name>G.png</name>
            <duration>1.25</duration>
            <rate>
              <ntsc>FALSE</ntsc>
              <timebase>25</timebase>
            </rate>
            <in>91612.5</in>
            <out>91613.75</out>
            <start>1612.5</start>
            <end>1613.75</end>
            <pixelaspectratio>Square</pixelaspectratio>
            <stillframe>TRUE</stillframe>
            <anamorphic>FALSE</anamorphic>
            <alphatype>straight</alphatype>
            <masterclipid>G.png471</masterclipid>
            <file id="G">
              <name>G.png</name>
              <pathurl>D:/Codes/SynthLip/SynthLipN/bin/Release/net6.0-windows8.0/publish/Skin/template/G.png</pathurl>
              <rate>
                <ntsc>FALSE</ntsc>
                <timebase>25</timebase>
              </rate>
              <duration>2</duration>
              <width>1920</width>
              <height>1080</height>
              <media>
                <video>
                  <duration>2</duration>
                  <stillframe>TRUE</stillframe>
                  <samplecharacteristics>
                    <rate>
                      <ntsc>FALSE</ntsc>
                      <timebase>25</timebase>
                    </rate>
                    <width>1920</width>
                    <height>1080</height>
                    <pixelaspectratio>Square</pixelaspectratio>
                    <anamorphic>FALSE</anamorphic>
                  </samplecharacteristics>
                </video>
              </media>
            </file>
            <sourcetrack>
              <mediatype>video</mediatype>
            </sourcetrack>
            <fielddominance>none</fielddominance>
          </clipitem>
          <clipitem id="A.png470">
            <name>A.png</name>
            <duration>4.38</duration>
            <rate>
              <ntsc>FALSE</ntsc>
              <timebase>25</timebase>
            </rate>
            <in>91608.12</in>
            <out>91612.5</out>
            <start>1608.12</start>
            <end>1612.5</end>
            <pixelaspectratio>Square</pixelaspectratio>
            <stillframe>TRUE</stillframe>
            <anamorphic>FALSE</anamorphic>
            <alphatype>straight</alphatype>
            <masterclipid>A.png470</masterclipid>
            <file id="A">
              <name>A.png</name>
              <pathurl>D:/Codes/SynthLip/SynthLipN/bin/Release/net6.0-windows8.0/publish/Skin/template/A.png</pathurl>
              <rate>
                <ntsc>FALSE</ntsc>
                <timebase>25</timebase>
              </rate>
              <duration>2</duration>
              <width>1920</width>
              <height>1080</height>
              <media>
                <video>
                  <duration>2</duration>
                  <stillframe>TRUE</stillframe>
                  <samplecharacteristics>
                    <rate>
                      <ntsc>FALSE</ntsc>
                      <timebase>25</timebase>
                    </rate>
                    <width>1920</width>
                    <height>1080</height>
                    <pixelaspectratio>Square</pixelaspectratio>
                    <anamorphic>FALSE</anamorphic>
                  </samplecharacteristics>
                </video>
              </media>
            </file>
            <sourcetrack>
              <mediatype>video</mediatype>
            </sourcetrack>
            <fielddominance>none</fielddominance>
          </clipitem>
          <clipitem id="A.png469">
            <name>A.png</name>
            <duration>0.63</duration>
            <rate>
              <ntsc>FALSE</ntsc>
              <timebase>25</timebase>
            </rate>
            <in>91607.5</in>
            <out>91608.13</out>
            <start>1607.5</start>
            <end>1608.13</end>
            <pixelaspectratio>Square</pixelaspectratio>
            <stillframe>TRUE</stillframe>
            <anamorphic>FALSE</anamorphic>
            <alphatype>straight</alphatype>
            <masterclipid>A.png469</masterclipid>
            <file id="A">
              <name>A.png</name>
              <pathurl>D:/Codes/SynthLip/SynthLipN/bin/Release/net6.0-windows8.0/publish/Skin/template/A.png</pathurl>
              <rate>
                <ntsc>FALSE</ntsc>
                <timebase>25</timebase>
              </rate>
              <duration>2</duration>
              <width>1920</width>
              <height>1080</height>
              <media>
                <video>
                  <duration>2</duration>
                  <stillframe>TRUE</stillframe>
                  <samplecharacteristics>
                    <rate>
                      <ntsc>FALSE</ntsc>
                      <timebase>25</timebase>
                    </rate>
                    <width>1920</width>
                    <height>1080</height>
                    <pixelaspectratio>Square</pixelaspectratio>
                    <anamorphic>FALSE</anamorphic>
                  </samplecharacteristics>
                </video>
              </media>
            </file>
            <sourcetrack>
              <mediatype>video</mediatype>
            </sourcetrack>
            <fielddominance>none</fielddominance>
          </clipitem>
          <clipitem id="D.png468">
            <name>D.png</name>
            <duration>2.5</duration>
            <rate>
              <ntsc>FALSE</ntsc>
              <timebase>25</timebase>
            </rate>
            <in>91605</in>
            <out>91607.5</out>
            <start>1605</start>
            <end>1607.5</end>
            <pixelaspectratio>Square</pixelaspectratio>
            <stillframe>TRUE</stillframe>
            <anamorphic>FALSE</anamorphic>
            <alphatype>straight</alphatype>
            <masterclipid>D.png468</masterclipid>
            <file id="D">
              <name>D.png</name>
              <pathurl>D:/Codes/SynthLip/SynthLipN/bin/Release/net6.0-windows8.0/publish/Skin/template/D.png</pathurl>
              <rate>
                <ntsc>FALSE</ntsc>
                <timebase>25</timebase>
              </rate>
              <duration>2</duration>
              <width>1920</width>
              <height>1080</height>
              <media>
                <video>
                  <duration>2</duration>
                  <stillframe>TRUE</stillframe>
                  <samplecharacteristics>
                    <rate>
                      <ntsc>FALSE</ntsc>
                      <timebase>25</timebase>
                    </rate>
                    <width>1920</width>
                    <height>1080</height>
                    <pixelaspectratio>Square</pixelaspectratio>
                    <anamorphic>FALSE</anamorphic>
                  </samplecharacteristics>
                </video>
              </media>
            </file>
            <sourcetrack>
              <mediatype>video</mediatype>
            </sourcetrack>
            <fielddominance>none</fielddominance>
          </clipitem>
          <clipitem id="B.png467">
            <name>B.png</name>
            <duration>1.25</duration>
            <rate>
              <ntsc>FALSE</ntsc>
              <timebase>25</timebase>
            </rate>
            <in>91603.75</in>
            <out>91605</out>
            <start>1603.75</start>
            <end>1605</end>
            <pixelaspectratio>Square</pixelaspectratio>
            <stillframe>TRUE</stillframe>
            <anamorphic>FALSE</anamorphic>
            <alphatype>straight</alphatype>
            <masterclipid>B.png467</masterclipid>
            <file id="B">
              <name>B.png</name>
              <pathurl>D:/Codes/SynthLip/SynthLipN/bin/Release/net6.0-windows8.0/publish/Skin/template/B.png</pathurl>
              <rate>
                <ntsc>FALSE</ntsc>
                <timebase>25</timebase>
              </rate>
              <duration>2</duration>
              <width>1920</width>
              <height>1080</height>
              <media>
                <video>
                  <duration>2</duration>
                  <stillframe>TRUE</stillframe>
                  <samplecharacteristics>
                    <rate>
                      <ntsc>FALSE</ntsc>
                      <timebase>25</timebase>
                    </rate>
                    <width>1920</width>
                    <height>1080</height>
                    <pixelaspectratio>Square</pixelaspectratio>
                    <anamorphic>FALSE</anamorphic>
                  </samplecharacteristics>
                </video>
              </media>
            </file>
            <sourcetrack>
              <mediatype>video</mediatype>
            </sourcetrack>
            <fielddominance>none</fielddominance>
          </clipitem>
          <clipitem id="B.png466">
            <name>B.png</name>
            <duration>1.25</duration>
            <rate>
              <ntsc>FALSE</ntsc>
              <timebase>25</timebase>
            </rate>
            <in>91602.5</in>
            <out>91603.75</out>
            <start>1602.5</start>
            <end>1603.75</end>
            <pixelaspectratio>Square</pixelaspectratio>
            <stillframe>TRUE</stillframe>
            <anamorphic>FALSE</anamorphic>
            <alphatype>straight</alphatype>
            <masterclipid>B.png466</masterclipid>
            <file id="B">
              <name>B.png</name>
              <pathurl>D:/Codes/SynthLip/SynthLipN/bin/Release/net6.0-windows8.0/publish/Skin/template/B.png</pathurl>
              <rate>
                <ntsc>FALSE</ntsc>
                <timebase>25</timebase>
              </rate>
              <duration>2</duration>
              <width>1920</width>
              <height>1080</height>
              <media>
                <video>
                  <duration>2</duration>
                  <stillframe>TRUE</stillframe>
                  <samplecharacteristics>
                    <rate>
                      <ntsc>FALSE</ntsc>
                      <timebase>25</timebase>
                    </rate>
                    <width>1920</width>
                    <height>1080</height>
                    <pixelaspectratio>Square</pixelaspectratio>
                    <anamorphic>FALSE</anamorphic>
                  </samplecharacteristics>
                </video>
              </media>
            </file>
            <sourcetrack>
              <mediatype>video</mediatype>
            </sourcetrack>
            <fielddominance>none</fielddominance>
          </clipitem>
          <clipitem id="C.png465">
            <name>C.png</name>
            <duration>3.75</duration>
            <rate>
              <ntsc>FALSE</ntsc>
              <timebase>25</timebase>
            </rate>
            <in>91598.75</in>
            <out>91602.5</out>
            <start>1598.75</start>
            <end>1602.5</end>
            <pixelaspectratio>Square</pixelaspectratio>
            <stillframe>TRUE</stillframe>
            <anamorphic>FALSE</anamorphic>
            <alphatype>straight</alphatype>
            <masterclipid>C.png465</masterclipid>
            <file id="C">
              <name>C.png</name>
              <pathurl>D:/Codes/SynthLip/SynthLipN/bin/Release/net6.0-windows8.0/publish/Skin/template/C.png</pathurl>
              <rate>
                <ntsc>FALSE</ntsc>
                <timebase>25</timebase>
              </rate>
              <duration>2</duration>
              <width>1920</width>
              <height>1080</height>
              <media>
                <video>
                  <duration>2</duration>
                  <stillframe>TRUE</stillframe>
                  <samplecharacteristics>
                    <rate>
                      <ntsc>FALSE</ntsc>
                      <timebase>25</timebase>
                    </rate>
                    <width>1920</width>
                    <height>1080</height>
                    <pixelaspectratio>Square</pixelaspectratio>
                    <anamorphic>FALSE</anamorphic>
                  </samplecharacteristics>
                </video>
              </media>
            </file>
            <sourcetrack>
              <mediatype>video</mediatype>
            </sourcetrack>
            <fielddominance>none</fielddominance>
          </clipitem>
          <clipitem id="B.png464">
            <name>B.png</name>
            <duration>1.25</duration>
            <rate>
              <ntsc>FALSE</ntsc>
              <timebase>25</timebase>
            </rate>
            <in>91597.5</in>
            <out>91598.75</out>
            <start>1597.5</start>
            <end>1598.75</end>
            <pixelaspectratio>Square</pixelaspectratio>
            <stillframe>TRUE</stillframe>
            <anamorphic>FALSE</anamorphic>
            <alphatype>straight</alphatype>
            <masterclipid>B.png464</masterclipid>
            <file id="B">
              <name>B.png</name>
              <pathurl>D:/Codes/SynthLip/SynthLipN/bin/Release/net6.0-windows8.0/publish/Skin/template/B.png</pathurl>
              <rate>
                <ntsc>FALSE</ntsc>
                <timebase>25</timebase>
              </rate>
              <duration>2</duration>
              <width>1920</width>
              <height>1080</height>
              <media>
                <video>
                  <duration>2</duration>
                  <stillframe>TRUE</stillframe>
                  <samplecharacteristics>
                    <rate>
                      <ntsc>FALSE</ntsc>
                      <timebase>25</timebase>
                    </rate>
                    <width>1920</width>
                    <height>1080</height>
                    <pixelaspectratio>Square</pixelaspectratio>
                    <anamorphic>FALSE</anamorphic>
                  </samplecharacteristics>
                </video>
              </media>
            </file>
            <sourcetrack>
              <mediatype>video</mediatype>
            </sourcetrack>
            <fielddominance>none</fielddominance>
          </clipitem>
          <clipitem id="C.png463">
            <name>C.png</name>
            <duration>5.63</duration>
            <rate>
              <ntsc>FALSE</ntsc>
              <timebase>25</timebase>
            </rate>
            <in>91591.88</in>
            <out>91597.516</out>
            <start>1591.88</start>
            <end>1597.51</end>
            <pixelaspectratio>Square</pixelaspectratio>
            <stillframe>TRUE</stillframe>
            <anamorphic>FALSE</anamorphic>
            <alphatype>straight</alphatype>
            <masterclipid>C.png463</masterclipid>
            <file id="C">
              <name>C.png</name>
              <pathurl>D:/Codes/SynthLip/SynthLipN/bin/Release/net6.0-windows8.0/publish/Skin/template/C.png</pathurl>
              <rate>
                <ntsc>FALSE</ntsc>
                <timebase>25</timebase>
              </rate>
              <duration>2</duration>
              <width>1920</width>
              <height>1080</height>
              <media>
                <video>
                  <duration>2</duration>
                  <stillframe>TRUE</stillframe>
                  <samplecharacteristics>
                    <rate>
                      <ntsc>FALSE</ntsc>
                      <timebase>25</timebase>
                    </rate>
                    <width>1920</width>
                    <height>1080</height>
                    <pixelaspectratio>Square</pixelaspectratio>
                    <anamorphic>FALSE</anamorphic>
                  </samplecharacteristics>
                </video>
              </media>
            </file>
            <sourcetrack>
              <mediatype>video</mediatype>
            </sourcetrack>
            <fielddominance>none</fielddominance>
          </clipitem>
          <clipitem id="C.png462">
            <name>C.png</name>
            <duration>1.41</duration>
            <rate>
              <ntsc>FALSE</ntsc>
              <timebase>25</timebase>
            </rate>
            <in>91590.47</in>
            <out>91591.875</out>
            <start>1590.47</start>
            <end>1591.88</end>
            <pixelaspectratio>Square</pixelaspectratio>
            <stillframe>TRUE</stillframe>
            <anamorphic>FALSE</anamorphic>
            <alphatype>straight</alphatype>
            <masterclipid>C.png462</masterclipid>
            <file id="C">
              <name>C.png</name>
              <pathurl>D:/Codes/SynthLip/SynthLipN/bin/Release/net6.0-windows8.0/publish/Skin/template/C.png</pathurl>
              <rate>
                <ntsc>FALSE</ntsc>
                <timebase>25</timebase>
              </rate>
              <duration>2</duration>
              <width>1920</width>
              <height>1080</height>
              <media>
                <video>
                  <duration>2</duration>
                  <stillframe>TRUE</stillframe>
                  <samplecharacteristics>
                    <rate>
                      <ntsc>FALSE</ntsc>
                      <timebase>25</timebase>
                    </rate>
                    <width>1920</width>
                    <height>1080</height>
                    <pixelaspectratio>Square</pixelaspectratio>
                    <anamorphic>FALSE</anamorphic>
                  </samplecharacteristics>
                </video>
              </media>
            </file>
            <sourcetrack>
              <mediatype>video</mediatype>
            </sourcetrack>
            <fielddominance>none</fielddominance>
          </clipitem>
          <clipitem id="A.png461">
            <name>A.png</name>
            <duration>0.47</duration>
            <rate>
              <ntsc>FALSE</ntsc>
              <timebase>25</timebase>
            </rate>
            <in>91590</in>
            <out>91590.47</out>
            <start>1590</start>
            <end>1590.47</end>
            <pixelaspectratio>Square</pixelaspectratio>
            <stillframe>TRUE</stillframe>
            <anamorphic>FALSE</anamorphic>
            <alphatype>straight</alphatype>
            <masterclipid>A.png461</masterclipid>
            <file id="A">
              <name>A.png</name>
              <pathurl>D:/Codes/SynthLip/SynthLipN/bin/Release/net6.0-windows8.0/publish/Skin/template/A.png</pathurl>
              <rate>
                <ntsc>FALSE</ntsc>
                <timebase>25</timebase>
              </rate>
              <duration>2</duration>
              <width>1920</width>
              <height>1080</height>
              <media>
                <video>
                  <duration>2</duration>
                  <stillframe>TRUE</stillframe>
                  <samplecharacteristics>
                    <rate>
                      <ntsc>FALSE</ntsc>
                      <timebase>25</timebase>
                    </rate>
                    <width>1920</width>
                    <height>1080</height>
                    <pixelaspectratio>Square</pixelaspectratio>
                    <anamorphic>FALSE</anamorphic>
                  </samplecharacteristics>
                </video>
              </media>
            </file>
            <sourcetrack>
              <mediatype>video</mediatype>
            </sourcetrack>
            <fielddominance>none</fielddominance>
          </clipitem>
          <clipitem id="C.png460">
            <name>C.png</name>
            <duration>5.62</duration>
            <rate>
              <ntsc>FALSE</ntsc>
              <timebase>25</timebase>
            </rate>
            <in>91584.38</in>
            <out>91590</out>
            <start>1584.38</start>
            <end>1590</end>
            <pixelaspectratio>Square</pixelaspectratio>
            <stillframe>TRUE</stillframe>
            <anamorphic>FALSE</anamorphic>
            <alphatype>straight</alphatype>
            <masterclipid>C.png460</masterclipid>
            <file id="C">
              <name>C.png</name>
              <pathurl>D:/Codes/SynthLip/SynthLipN/bin/Release/net6.0-windows8.0/publish/Skin/template/C.png</pathurl>
              <rate>
                <ntsc>FALSE</ntsc>
                <timebase>25</timebase>
              </rate>
              <duration>2</duration>
              <width>1920</width>
              <height>1080</height>
              <media>
                <video>
                  <duration>2</duration>
                  <stillframe>TRUE</stillframe>
                  <samplecharacteristics>
                    <rate>
                      <ntsc>FALSE</ntsc>
                      <timebase>25</timebase>
                    </rate>
                    <width>1920</width>
                    <height>1080</height>
                    <pixelaspectratio>Square</pixelaspectratio>
                    <anamorphic>FALSE</anamorphic>
                  </samplecharacteristics>
                </video>
              </media>
            </file>
            <sourcetrack>
              <mediatype>video</mediatype>
            </sourcetrack>
            <fielddominance>none</fielddominance>
          </clipitem>
          <clipitem id="B.png459">
            <name>B.png</name>
            <duration>1.88</duration>
            <rate>
              <ntsc>FALSE</ntsc>
              <timebase>25</timebase>
            </rate>
            <in>91582.5</in>
            <out>91584.38</out>
            <start>1582.5</start>
            <end>1584.38</end>
            <pixelaspectratio>Square</pixelaspectratio>
            <stillframe>TRUE</stillframe>
            <anamorphic>FALSE</anamorphic>
            <alphatype>straight</alphatype>
            <masterclipid>B.png459</masterclipid>
            <file id="B">
              <name>B.png</name>
              <pathurl>D:/Codes/SynthLip/SynthLipN/bin/Release/net6.0-windows8.0/publish/Skin/template/B.png</pathurl>
              <rate>
                <ntsc>FALSE</ntsc>
                <timebase>25</timebase>
              </rate>
              <duration>2</duration>
              <width>1920</width>
              <height>1080</height>
              <media>
                <video>
                  <duration>2</duration>
                  <stillframe>TRUE</stillframe>
                  <samplecharacteristics>
                    <rate>
                      <ntsc>FALSE</ntsc>
                      <timebase>25</timebase>
                    </rate>
                    <width>1920</width>
                    <height>1080</height>
                    <pixelaspectratio>Square</pixelaspectratio>
                    <anamorphic>FALSE</anamorphic>
                  </samplecharacteristics>
                </video>
              </media>
            </file>
            <sourcetrack>
              <mediatype>video</mediatype>
            </sourcetrack>
            <fielddominance>none</fielddominance>
          </clipitem>
          <clipitem id="C.png458">
            <name>C.png</name>
            <duration>5.94</duration>
            <rate>
              <ntsc>FALSE</ntsc>
              <timebase>25</timebase>
            </rate>
            <in>91576.56</in>
            <out>91582.5</out>
            <start>1576.56</start>
            <end>1582.5</end>
            <pixelaspectratio>Square</pixelaspectratio>
            <stillframe>TRUE</stillframe>
            <anamorphic>FALSE</anamorphic>
            <alphatype>straight</alphatype>
            <masterclipid>C.png458</masterclipid>
            <file id="C">
              <name>C.png</name>
              <pathurl>D:/Codes/SynthLip/SynthLipN/bin/Release/net6.0-windows8.0/publish/Skin/template/C.png</pathurl>
              <rate>
                <ntsc>FALSE</ntsc>
                <timebase>25</timebase>
              </rate>
              <duration>2</duration>
              <width>1920</width>
              <height>1080</height>
              <media>
                <video>
                  <duration>2</duration>
                  <stillframe>TRUE</stillframe>
                  <samplecharacteristics>
                    <rate>
                      <ntsc>FALSE</ntsc>
                      <timebase>25</timebase>
                    </rate>
                    <width>1920</width>
                    <height>1080</height>
                    <pixelaspectratio>Square</pixelaspectratio>
                    <anamorphic>FALSE</anamorphic>
                  </samplecharacteristics>
                </video>
              </media>
            </file>
            <sourcetrack>
              <mediatype>video</mediatype>
            </sourcetrack>
            <fielddominance>none</fielddominance>
          </clipitem>
          <clipitem id="C.png457">
            <name>C.png</name>
            <duration>0.31</duration>
            <rate>
              <ntsc>FALSE</ntsc>
              <timebase>25</timebase>
            </rate>
            <in>91576.25</in>
            <out>91576.56</out>
            <start>1576.25</start>
            <end>1576.56</end>
            <pixelaspectratio>Square</pixelaspectratio>
            <stillframe>TRUE</stillframe>
            <anamorphic>FALSE</anamorphic>
            <alphatype>straight</alphatype>
            <masterclipid>C.png457</masterclipid>
            <file id="C">
              <name>C.png</name>
              <pathurl>D:/Codes/SynthLip/SynthLipN/bin/Release/net6.0-windows8.0/publish/Skin/template/C.png</pathurl>
              <rate>
                <ntsc>FALSE</ntsc>
                <timebase>25</timebase>
              </rate>
              <duration>2</duration>
              <width>1920</width>
              <height>1080</height>
              <media>
                <video>
                  <duration>2</duration>
                  <stillframe>TRUE</stillframe>
                  <samplecharacteristics>
                    <rate>
                      <ntsc>FALSE</ntsc>
                      <timebase>25</timebase>
                    </rate>
                    <width>1920</width>
                    <height>1080</height>
                    <pixelaspectratio>Square</pixelaspectratio>
                    <anamorphic>FALSE</anamorphic>
                  </samplecharacteristics>
                </video>
              </media>
            </file>
            <sourcetrack>
              <mediatype>video</mediatype>
            </sourcetrack>
            <fielddominance>none</fielddominance>
          </clipitem>
          <clipitem id="C.png456">
            <name>C.png</name>
            <duration>1.87</duration>
            <rate>
              <ntsc>FALSE</ntsc>
              <timebase>25</timebase>
            </rate>
            <in>91574.38</in>
            <out>91576.25</out>
            <start>1574.38</start>
            <end>1576.25</end>
            <pixelaspectratio>Square</pixelaspectratio>
            <stillframe>TRUE</stillframe>
            <anamorphic>FALSE</anamorphic>
            <alphatype>straight</alphatype>
            <masterclipid>C.png456</masterclipid>
            <file id="C">
              <name>C.png</name>
              <pathurl>D:/Codes/SynthLip/SynthLipN/bin/Release/net6.0-windows8.0/publish/Skin/template/C.png</pathurl>
              <rate>
                <ntsc>FALSE</ntsc>
                <timebase>25</timebase>
              </rate>
              <duration>2</duration>
              <width>1920</width>
              <height>1080</height>
              <media>
                <video>
                  <duration>2</duration>
                  <stillframe>TRUE</stillframe>
                  <samplecharacteristics>
                    <rate>
                      <ntsc>FALSE</ntsc>
                      <timebase>25</timebase>
                    </rate>
                    <width>1920</width>
                    <height>1080</height>
                    <pixelaspectratio>Square</pixelaspectratio>
                    <anamorphic>FALSE</anamorphic>
                  </samplecharacteristics>
                </video>
              </media>
            </file>
            <sourcetrack>
              <mediatype>video</mediatype>
            </sourcetrack>
            <fielddominance>none</fielddominance>
          </clipitem>
          <clipitem id="G.png455">
            <name>G.png</name>
            <duration>1.25</duration>
            <rate>
              <ntsc>FALSE</ntsc>
              <timebase>25</timebase>
            </rate>
            <in>91573.13</in>
            <out>91574.38</out>
            <start>1573.13</start>
            <end>1574.38</end>
            <pixelaspectratio>Square</pixelaspectratio>
            <stillframe>TRUE</stillframe>
            <anamorphic>FALSE</anamorphic>
            <alphatype>straight</alphatype>
            <masterclipid>G.png455</masterclipid>
            <file id="G">
              <name>G.png</name>
              <pathurl>D:/Codes/SynthLip/SynthLipN/bin/Release/net6.0-windows8.0/publish/Skin/template/G.png</pathurl>
              <rate>
                <ntsc>FALSE</ntsc>
                <timebase>25</timebase>
              </rate>
              <duration>2</duration>
              <width>1920</width>
              <height>1080</height>
              <media>
                <video>
                  <duration>2</duration>
                  <stillframe>TRUE</stillframe>
                  <samplecharacteristics>
                    <rate>
                      <ntsc>FALSE</ntsc>
                      <timebase>25</timebase>
                    </rate>
                    <width>1920</width>
                    <height>1080</height>
                    <pixelaspectratio>Square</pixelaspectratio>
                    <anamorphic>FALSE</anamorphic>
                  </samplecharacteristics>
                </video>
              </media>
            </file>
            <sourcetrack>
              <mediatype>video</mediatype>
            </sourcetrack>
            <fielddominance>none</fielddominance>
          </clipitem>
          <clipitem id="C.png454">
            <name>C.png</name>
            <duration>1.87</duration>
            <rate>
              <ntsc>FALSE</ntsc>
              <timebase>25</timebase>
            </rate>
            <in>91571.25</in>
            <out>91573.12</out>
            <start>1571.25</start>
            <end>1573.12</end>
            <pixelaspectratio>Square</pixelaspectratio>
            <stillframe>TRUE</stillframe>
            <anamorphic>FALSE</anamorphic>
            <alphatype>straight</alphatype>
            <masterclipid>C.png454</masterclipid>
            <file id="C">
              <name>C.png</name>
              <pathurl>D:/Codes/SynthLip/SynthLipN/bin/Release/net6.0-windows8.0/publish/Skin/template/C.png</pathurl>
              <rate>
                <ntsc>FALSE</ntsc>
                <timebase>25</timebase>
              </rate>
              <duration>2</duration>
              <width>1920</width>
              <height>1080</height>
              <media>
                <video>
                  <duration>2</duration>
                  <stillframe>TRUE</stillframe>
                  <samplecharacteristics>
                    <rate>
                      <ntsc>FALSE</ntsc>
                      <timebase>25</timebase>
                    </rate>
                    <width>1920</width>
                    <height>1080</height>
                    <pixelaspectratio>Square</pixelaspectratio>
                    <anamorphic>FALSE</anamorphic>
                  </samplecharacteristics>
                </video>
              </media>
            </file>
            <sourcetrack>
              <mediatype>video</mediatype>
            </sourcetrack>
            <fielddominance>none</fielddominance>
          </clipitem>
          <clipitem id="C.png453">
            <name>C.png</name>
            <duration>3.75</duration>
            <rate>
              <ntsc>FALSE</ntsc>
              <timebase>25</timebase>
            </rate>
            <in>91567.5</in>
            <out>91571.25</out>
            <start>1567.5</start>
            <end>1571.25</end>
            <pixelaspectratio>Square</pixelaspectratio>
            <stillframe>TRUE</stillframe>
            <anamorphic>FALSE</anamorphic>
            <alphatype>straight</alphatype>
            <masterclipid>C.png453</masterclipid>
            <file id="C">
              <name>C.png</name>
              <pathurl>D:/Codes/SynthLip/SynthLipN/bin/Release/net6.0-windows8.0/publish/Skin/template/C.png</pathurl>
              <rate>
                <ntsc>FALSE</ntsc>
                <timebase>25</timebase>
              </rate>
              <duration>2</duration>
              <width>1920</width>
              <height>1080</height>
              <media>
                <video>
                  <duration>2</duration>
                  <stillframe>TRUE</stillframe>
                  <samplecharacteristics>
                    <rate>
                      <ntsc>FALSE</ntsc>
                      <timebase>25</timebase>
                    </rate>
                    <width>1920</width>
                    <height>1080</height>
                    <pixelaspectratio>Square</pixelaspectratio>
                    <anamorphic>FALSE</anamorphic>
                  </samplecharacteristics>
                </video>
              </media>
            </file>
            <sourcetrack>
              <mediatype>video</mediatype>
            </sourcetrack>
            <fielddominance>none</fielddominance>
          </clipitem>
          <clipitem id="B.png452">
            <name>B.png</name>
            <duration>5.94</duration>
            <rate>
              <ntsc>FALSE</ntsc>
              <timebase>25</timebase>
            </rate>
            <in>91561.56</in>
            <out>91567.5</out>
            <start>1561.56</start>
            <end>1567.5</end>
            <pixelaspectratio>Square</pixelaspectratio>
            <stillframe>TRUE</stillframe>
            <anamorphic>FALSE</anamorphic>
            <alphatype>straight</alphatype>
            <masterclipid>B.png452</masterclipid>
            <file id="B">
              <name>B.png</name>
              <pathurl>D:/Codes/SynthLip/SynthLipN/bin/Release/net6.0-windows8.0/publish/Skin/template/B.png</pathurl>
              <rate>
                <ntsc>FALSE</ntsc>
                <timebase>25</timebase>
              </rate>
              <duration>2</duration>
              <width>1920</width>
              <height>1080</height>
              <media>
                <video>
                  <duration>2</duration>
                  <stillframe>TRUE</stillframe>
                  <samplecharacteristics>
                    <rate>
                      <ntsc>FALSE</ntsc>
                      <timebase>25</timebase>
                    </rate>
                    <width>1920</width>
                    <height>1080</height>
                    <pixelaspectratio>Square</pixelaspectratio>
                    <anamorphic>FALSE</anamorphic>
                  </samplecharacteristics>
                </video>
              </media>
            </file>
            <sourcetrack>
              <mediatype>video</mediatype>
            </sourcetrack>
            <fielddominance>none</fielddominance>
          </clipitem>
          <clipitem id="B.png451">
            <name>B.png</name>
            <duration>0.31</duration>
            <rate>
              <ntsc>FALSE</ntsc>
              <timebase>25</timebase>
            </rate>
            <in>91561.25</in>
            <out>91561.56</out>
            <start>1561.25</start>
            <end>1561.56</end>
            <pixelaspectratio>Square</pixelaspectratio>
            <stillframe>TRUE</stillframe>
            <anamorphic>FALSE</anamorphic>
            <alphatype>straight</alphatype>
            <masterclipid>B.png451</masterclipid>
            <file id="B">
              <name>B.png</name>
              <pathurl>D:/Codes/SynthLip/SynthLipN/bin/Release/net6.0-windows8.0/publish/Skin/template/B.png</pathurl>
              <rate>
                <ntsc>FALSE</ntsc>
                <timebase>25</timebase>
              </rate>
              <duration>2</duration>
              <width>1920</width>
              <height>1080</height>
              <media>
                <video>
                  <duration>2</duration>
                  <stillframe>TRUE</stillframe>
                  <samplecharacteristics>
                    <rate>
                      <ntsc>FALSE</ntsc>
                      <timebase>25</timebase>
                    </rate>
                    <width>1920</width>
                    <height>1080</height>
                    <pixelaspectratio>Square</pixelaspectratio>
                    <anamorphic>FALSE</anamorphic>
                  </samplecharacteristics>
                </video>
              </media>
            </file>
            <sourcetrack>
              <mediatype>video</mediatype>
            </sourcetrack>
            <fielddominance>none</fielddominance>
          </clipitem>
          <clipitem id="C.png450">
            <name>C.png</name>
            <duration>0.94</duration>
            <rate>
              <ntsc>FALSE</ntsc>
              <timebase>25</timebase>
            </rate>
            <in>91560.31</in>
            <out>91561.25</out>
            <start>1560.31</start>
            <end>1561.25</end>
            <pixelaspectratio>Square</pixelaspectratio>
            <stillframe>TRUE</stillframe>
            <anamorphic>FALSE</anamorphic>
            <alphatype>straight</alphatype>
            <masterclipid>C.png450</masterclipid>
            <file id="C">
              <name>C.png</name>
              <pathurl>D:/Codes/SynthLip/SynthLipN/bin/Release/net6.0-windows8.0/publish/Skin/template/C.png</pathurl>
              <rate>
                <ntsc>FALSE</ntsc>
                <timebase>25</timebase>
              </rate>
              <duration>2</duration>
              <width>1920</width>
              <height>1080</height>
              <media>
                <video>
                  <duration>2</duration>
                  <stillframe>TRUE</stillframe>
                  <samplecharacteristics>
                    <rate>
                      <ntsc>FALSE</ntsc>
                      <timebase>25</timebase>
                    </rate>
                    <width>1920</width>
                    <height>1080</height>
                    <pixelaspectratio>Square</pixelaspectratio>
                    <anamorphic>FALSE</anamorphic>
                  </samplecharacteristics>
                </video>
              </media>
            </file>
            <sourcetrack>
              <mediatype>video</mediatype>
            </sourcetrack>
            <fielddominance>none</fielddominance>
          </clipitem>
          <clipitem id="C.png449">
            <name>C.png</name>
            <duration>0.31</duration>
            <rate>
              <ntsc>FALSE</ntsc>
              <timebase>25</timebase>
            </rate>
            <in>91560</in>
            <out>91560.31</out>
            <start>1560</start>
            <end>1560.31</end>
            <pixelaspectratio>Square</pixelaspectratio>
            <stillframe>TRUE</stillframe>
            <anamorphic>FALSE</anamorphic>
            <alphatype>straight</alphatype>
            <masterclipid>C.png449</masterclipid>
            <file id="C">
              <name>C.png</name>
              <pathurl>D:/Codes/SynthLip/SynthLipN/bin/Release/net6.0-windows8.0/publish/Skin/template/C.png</pathurl>
              <rate>
                <ntsc>FALSE</ntsc>
                <timebase>25</timebase>
              </rate>
              <duration>2</duration>
              <width>1920</width>
              <height>1080</height>
              <media>
                <video>
                  <duration>2</duration>
                  <stillframe>TRUE</stillframe>
                  <samplecharacteristics>
                    <rate>
                      <ntsc>FALSE</ntsc>
                      <timebase>25</timebase>
                    </rate>
                    <width>1920</width>
                    <height>1080</height>
                    <pixelaspectratio>Square</pixelaspectratio>
                    <anamorphic>FALSE</anamorphic>
                  </samplecharacteristics>
                </video>
              </media>
            </file>
            <sourcetrack>
              <mediatype>video</mediatype>
            </sourcetrack>
            <fielddominance>none</fielddominance>
          </clipitem>
          <clipitem id="C.png448">
            <name>C.png</name>
            <duration>7.5</duration>
            <rate>
              <ntsc>FALSE</ntsc>
              <timebase>25</timebase>
            </rate>
            <in>91552.5</in>
            <out>91560</out>
            <start>1552.5</start>
            <end>1560</end>
            <pixelaspectratio>Square</pixelaspectratio>
            <stillframe>TRUE</stillframe>
            <anamorphic>FALSE</anamorphic>
            <alphatype>straight</alphatype>
            <masterclipid>C.png448</masterclipid>
            <file id="C">
              <name>C.png</name>
              <pathurl>D:/Codes/SynthLip/SynthLipN/bin/Release/net6.0-windows8.0/publish/Skin/template/C.png</pathurl>
              <rate>
                <ntsc>FALSE</ntsc>
                <timebase>25</timebase>
              </rate>
              <duration>2</duration>
              <width>1920</width>
              <height>1080</height>
              <media>
                <video>
                  <duration>2</duration>
                  <stillframe>TRUE</stillframe>
                  <samplecharacteristics>
                    <rate>
                      <ntsc>FALSE</ntsc>
                      <timebase>25</timebase>
                    </rate>
                    <width>1920</width>
                    <height>1080</height>
                    <pixelaspectratio>Square</pixelaspectratio>
                    <anamorphic>FALSE</anamorphic>
                  </samplecharacteristics>
                </video>
              </media>
            </file>
            <sourcetrack>
              <mediatype>video</mediatype>
            </sourcetrack>
            <fielddominance>none</fielddominance>
          </clipitem>
          <clipitem id="B.png447">
            <name>B.png</name>
            <duration>4.22</duration>
            <rate>
              <ntsc>FALSE</ntsc>
              <timebase>25</timebase>
            </rate>
            <in>91548.28</in>
            <out>91552.5</out>
            <start>1548.28</start>
            <end>1552.5</end>
            <pixelaspectratio>Square</pixelaspectratio>
            <stillframe>TRUE</stillframe>
            <anamorphic>FALSE</anamorphic>
            <alphatype>straight</alphatype>
            <masterclipid>B.png447</masterclipid>
            <file id="B">
              <name>B.png</name>
              <pathurl>D:/Codes/SynthLip/SynthLipN/bin/Release/net6.0-windows8.0/publish/Skin/template/B.png</pathurl>
              <rate>
                <ntsc>FALSE</ntsc>
                <timebase>25</timebase>
              </rate>
              <duration>2</duration>
              <width>1920</width>
              <height>1080</height>
              <media>
                <video>
                  <duration>2</duration>
                  <stillframe>TRUE</stillframe>
                  <samplecharacteristics>
                    <rate>
                      <ntsc>FALSE</ntsc>
                      <timebase>25</timebase>
                    </rate>
                    <width>1920</width>
                    <height>1080</height>
                    <pixelaspectratio>Square</pixelaspectratio>
                    <anamorphic>FALSE</anamorphic>
                  </samplecharacteristics>
                </video>
              </media>
            </file>
            <sourcetrack>
              <mediatype>video</mediatype>
            </sourcetrack>
            <fielddominance>none</fielddominance>
          </clipitem>
          <clipitem id="B.png446">
            <name>B.png</name>
            <duration>0.47</duration>
            <rate>
              <ntsc>FALSE</ntsc>
              <timebase>25</timebase>
            </rate>
            <in>91547.81</in>
            <out>91548.28</out>
            <start>1547.81</start>
            <end>1548.28</end>
            <pixelaspectratio>Square</pixelaspectratio>
            <stillframe>TRUE</stillframe>
            <anamorphic>FALSE</anamorphic>
            <alphatype>straight</alphatype>
            <masterclipid>B.png446</masterclipid>
            <file id="B">
              <name>B.png</name>
              <pathurl>D:/Codes/SynthLip/SynthLipN/bin/Release/net6.0-windows8.0/publish/Skin/template/B.png</pathurl>
              <rate>
                <ntsc>FALSE</ntsc>
                <timebase>25</timebase>
              </rate>
              <duration>2</duration>
              <width>1920</width>
              <height>1080</height>
              <media>
                <video>
                  <duration>2</duration>
                  <stillframe>TRUE</stillframe>
                  <samplecharacteristics>
                    <rate>
                      <ntsc>FALSE</ntsc>
                      <timebase>25</timebase>
                    </rate>
                    <width>1920</width>
                    <height>1080</height>
                    <pixelaspectratio>Square</pixelaspectratio>
                    <anamorphic>FALSE</anamorphic>
                  </samplecharacteristics>
                </video>
              </media>
            </file>
            <sourcetrack>
              <mediatype>video</mediatype>
            </sourcetrack>
            <fielddominance>none</fielddominance>
          </clipitem>
          <clipitem id="D.png445">
            <name>D.png</name>
            <duration>2.11</duration>
            <rate>
              <ntsc>FALSE</ntsc>
              <timebase>25</timebase>
            </rate>
            <in>91545.7</in>
            <out>91547.81</out>
            <start>1545.7</start>
            <end>1547.8099</end>
            <pixelaspectratio>Square</pixelaspectratio>
            <stillframe>TRUE</stillframe>
            <anamorphic>FALSE</anamorphic>
            <alphatype>straight</alphatype>
            <masterclipid>D.png445</masterclipid>
            <file id="D">
              <name>D.png</name>
              <pathurl>D:/Codes/SynthLip/SynthLipN/bin/Release/net6.0-windows8.0/publish/Skin/template/D.png</pathurl>
              <rate>
                <ntsc>FALSE</ntsc>
                <timebase>25</timebase>
              </rate>
              <duration>2</duration>
              <width>1920</width>
              <height>1080</height>
              <media>
                <video>
                  <duration>2</duration>
                  <stillframe>TRUE</stillframe>
                  <samplecharacteristics>
                    <rate>
                      <ntsc>FALSE</ntsc>
                      <timebase>25</timebase>
                    </rate>
                    <width>1920</width>
                    <height>1080</height>
                    <pixelaspectratio>Square</pixelaspectratio>
                    <anamorphic>FALSE</anamorphic>
                  </samplecharacteristics>
                </video>
              </media>
            </file>
            <sourcetrack>
              <mediatype>video</mediatype>
            </sourcetrack>
            <fielddominance>none</fielddominance>
          </clipitem>
          <clipitem id="B.png444">
            <name>B.png</name>
            <duration>1.17</duration>
            <rate>
              <ntsc>FALSE</ntsc>
              <timebase>25</timebase>
            </rate>
            <in>91544.53</in>
            <out>91545.7</out>
            <start>1544.53</start>
            <end>1545.7001</end>
            <pixelaspectratio>Square</pixelaspectratio>
            <stillframe>TRUE</stillframe>
            <anamorphic>FALSE</anamorphic>
            <alphatype>straight</alphatype>
            <masterclipid>B.png444</masterclipid>
            <file id="B">
              <name>B.png</name>
              <pathurl>D:/Codes/SynthLip/SynthLipN/bin/Release/net6.0-windows8.0/publish/Skin/template/B.png</pathurl>
              <rate>
                <ntsc>FALSE</ntsc>
                <timebase>25</timebase>
              </rate>
              <duration>2</duration>
              <width>1920</width>
              <height>1080</height>
              <media>
                <video>
                  <duration>2</duration>
                  <stillframe>TRUE</stillframe>
                  <samplecharacteristics>
                    <rate>
                      <ntsc>FALSE</ntsc>
                      <timebase>25</timebase>
                    </rate>
                    <width>1920</width>
                    <height>1080</height>
                    <pixelaspectratio>Square</pixelaspectratio>
                    <anamorphic>FALSE</anamorphic>
                  </samplecharacteristics>
                </video>
              </media>
            </file>
            <sourcetrack>
              <mediatype>video</mediatype>
            </sourcetrack>
            <fielddominance>none</fielddominance>
          </clipitem>
          <clipitem id="B.png443">
            <name>B.png</name>
            <duration>1.41</duration>
            <rate>
              <ntsc>FALSE</ntsc>
              <timebase>25</timebase>
            </rate>
            <in>91543.13</in>
            <out>91544.54</out>
            <start>1543.13</start>
            <end>1544.54</end>
            <pixelaspectratio>Square</pixelaspectratio>
            <stillframe>TRUE</stillframe>
            <anamorphic>FALSE</anamorphic>
            <alphatype>straight</alphatype>
            <masterclipid>B.png443</masterclipid>
            <file id="B">
              <name>B.png</name>
              <pathurl>D:/Codes/SynthLip/SynthLipN/bin/Release/net6.0-windows8.0/publish/Skin/template/B.png</pathurl>
              <rate>
                <ntsc>FALSE</ntsc>
                <timebase>25</timebase>
              </rate>
              <duration>2</duration>
              <width>1920</width>
              <height>1080</height>
              <media>
                <video>
                  <duration>2</duration>
                  <stillframe>TRUE</stillframe>
                  <samplecharacteristics>
                    <rate>
                      <ntsc>FALSE</ntsc>
                      <timebase>25</timebase>
                    </rate>
                    <width>1920</width>
                    <height>1080</height>
                    <pixelaspectratio>Square</pixelaspectratio>
                    <anamorphic>FALSE</anamorphic>
                  </samplecharacteristics>
                </video>
              </media>
            </file>
            <sourcetrack>
              <mediatype>video</mediatype>
            </sourcetrack>
            <fielddominance>none</fielddominance>
          </clipitem>
          <clipitem id="C.png442">
            <name>C.png</name>
            <duration>1.87</duration>
            <rate>
              <ntsc>FALSE</ntsc>
              <timebase>25</timebase>
            </rate>
            <in>91541.25</in>
            <out>91543.12</out>
            <start>1541.25</start>
            <end>1543.12</end>
            <pixelaspectratio>Square</pixelaspectratio>
            <stillframe>TRUE</stillframe>
            <anamorphic>FALSE</anamorphic>
            <alphatype>straight</alphatype>
            <masterclipid>C.png442</masterclipid>
            <file id="C">
              <name>C.png</name>
              <pathurl>D:/Codes/SynthLip/SynthLipN/bin/Release/net6.0-windows8.0/publish/Skin/template/C.png</pathurl>
              <rate>
                <ntsc>FALSE</ntsc>
                <timebase>25</timebase>
              </rate>
              <duration>2</duration>
              <width>1920</width>
              <height>1080</height>
              <media>
                <video>
                  <duration>2</duration>
                  <stillframe>TRUE</stillframe>
                  <samplecharacteristics>
                    <rate>
                      <ntsc>FALSE</ntsc>
                      <timebase>25</timebase>
                    </rate>
                    <width>1920</width>
                    <height>1080</height>
                    <pixelaspectratio>Square</pixelaspectratio>
                    <anamorphic>FALSE</anamorphic>
                  </samplecharacteristics>
                </video>
              </media>
            </file>
            <sourcetrack>
              <mediatype>video</mediatype>
            </sourcetrack>
            <fielddominance>none</fielddominance>
          </clipitem>
          <clipitem id="C.png441">
            <name>C.png</name>
            <duration>3.75</duration>
            <rate>
              <ntsc>FALSE</ntsc>
              <timebase>25</timebase>
            </rate>
            <in>91537.5</in>
            <out>91541.25</out>
            <start>1537.5</start>
            <end>1541.25</end>
            <pixelaspectratio>Square</pixelaspectratio>
            <stillframe>TRUE</stillframe>
            <anamorphic>FALSE</anamorphic>
            <alphatype>straight</alphatype>
            <masterclipid>C.png441</masterclipid>
            <file id="C">
              <name>C.png</name>
              <pathurl>D:/Codes/SynthLip/SynthLipN/bin/Release/net6.0-windows8.0/publish/Skin/template/C.png</pathurl>
              <rate>
                <ntsc>FALSE</ntsc>
                <timebase>25</timebase>
              </rate>
              <duration>2</duration>
              <width>1920</width>
              <height>1080</height>
              <media>
                <video>
                  <duration>2</duration>
                  <stillframe>TRUE</stillframe>
                  <samplecharacteristics>
                    <rate>
                      <ntsc>FALSE</ntsc>
                      <timebase>25</timebase>
                    </rate>
                    <width>1920</width>
                    <height>1080</height>
                    <pixelaspectratio>Square</pixelaspectratio>
                    <anamorphic>FALSE</anamorphic>
                  </samplecharacteristics>
                </video>
              </media>
            </file>
            <sourcetrack>
              <mediatype>video</mediatype>
            </sourcetrack>
            <fielddominance>none</fielddominance>
          </clipitem>
          <clipitem id="B.png440">
            <name>B.png</name>
            <duration>5.86</duration>
            <rate>
              <ntsc>FALSE</ntsc>
              <timebase>25</timebase>
            </rate>
            <in>91531.64</in>
            <out>91537.5</out>
            <start>1531.64</start>
            <end>1537.5</end>
            <pixelaspectratio>Square</pixelaspectratio>
            <stillframe>TRUE</stillframe>
            <anamorphic>FALSE</anamorphic>
            <alphatype>straight</alphatype>
            <masterclipid>B.png440</masterclipid>
            <file id="B">
              <name>B.png</name>
              <pathurl>D:/Codes/SynthLip/SynthLipN/bin/Release/net6.0-windows8.0/publish/Skin/template/B.png</pathurl>
              <rate>
                <ntsc>FALSE</ntsc>
                <timebase>25</timebase>
              </rate>
              <duration>2</duration>
              <width>1920</width>
              <height>1080</height>
              <media>
                <video>
                  <duration>2</duration>
                  <stillframe>TRUE</stillframe>
                  <samplecharacteristics>
                    <rate>
                      <ntsc>FALSE</ntsc>
                      <timebase>25</timebase>
                    </rate>
                    <width>1920</width>
                    <height>1080</height>
                    <pixelaspectratio>Square</pixelaspectratio>
                    <anamorphic>FALSE</anamorphic>
                  </samplecharacteristics>
                </video>
              </media>
            </file>
            <sourcetrack>
              <mediatype>video</mediatype>
            </sourcetrack>
            <fielddominance>none</fielddominance>
          </clipitem>
          <clipitem id="B.png439">
            <name>B.png</name>
            <duration>0.23</duration>
            <rate>
              <ntsc>FALSE</ntsc>
              <timebase>25</timebase>
            </rate>
            <in>91531.41</in>
            <out>91531.63</out>
            <start>1531.41</start>
            <end>1531.64</end>
            <pixelaspectratio>Square</pixelaspectratio>
            <stillframe>TRUE</stillframe>
            <anamorphic>FALSE</anamorphic>
            <alphatype>straight</alphatype>
            <masterclipid>B.png439</masterclipid>
            <file id="B">
              <name>B.png</name>
              <pathurl>D:/Codes/SynthLip/SynthLipN/bin/Release/net6.0-windows8.0/publish/Skin/template/B.png</pathurl>
              <rate>
                <ntsc>FALSE</ntsc>
                <timebase>25</timebase>
              </rate>
              <duration>2</duration>
              <width>1920</width>
              <height>1080</height>
              <media>
                <video>
                  <duration>2</duration>
                  <stillframe>TRUE</stillframe>
                  <samplecharacteristics>
                    <rate>
                      <ntsc>FALSE</ntsc>
                      <timebase>25</timebase>
                    </rate>
                    <width>1920</width>
                    <height>1080</height>
                    <pixelaspectratio>Square</pixelaspectratio>
                    <anamorphic>FALSE</anamorphic>
                  </samplecharacteristics>
                </video>
              </media>
            </file>
            <sourcetrack>
              <mediatype>video</mediatype>
            </sourcetrack>
            <fielddominance>none</fielddominance>
          </clipitem>
          <clipitem id="C.png438">
            <name>C.png</name>
            <duration>0.82</duration>
            <rate>
              <ntsc>FALSE</ntsc>
              <timebase>25</timebase>
            </rate>
            <in>91530.59</in>
            <out>91531.414</out>
            <start>1530.59</start>
            <end>1531.4099</end>
            <pixelaspectratio>Square</pixelaspectratio>
            <stillframe>TRUE</stillframe>
            <anamorphic>FALSE</anamorphic>
            <alphatype>straight</alphatype>
            <masterclipid>C.png438</masterclipid>
            <file id="C">
              <name>C.png</name>
              <pathurl>D:/Codes/SynthLip/SynthLipN/bin/Release/net6.0-windows8.0/publish/Skin/template/C.png</pathurl>
              <rate>
                <ntsc>FALSE</ntsc>
                <timebase>25</timebase>
              </rate>
              <duration>2</duration>
              <width>1920</width>
              <height>1080</height>
              <media>
                <video>
                  <duration>2</duration>
                  <stillframe>TRUE</stillframe>
                  <samplecharacteristics>
                    <rate>
                      <ntsc>FALSE</ntsc>
                      <timebase>25</timebase>
                    </rate>
                    <width>1920</width>
                    <height>1080</height>
                    <pixelaspectratio>Square</pixelaspectratio>
                    <anamorphic>FALSE</anamorphic>
                  </samplecharacteristics>
                </video>
              </media>
            </file>
            <sourcetrack>
              <mediatype>video</mediatype>
            </sourcetrack>
            <fielddominance>none</fielddominance>
          </clipitem>
          <clipitem id="A.png437">
            <name>A.png</name>
            <duration>0.35</duration>
            <rate>
              <ntsc>FALSE</ntsc>
              <timebase>25</timebase>
            </rate>
            <in>91530.23</in>
            <out>91530.58</out>
            <start>1530.23</start>
            <end>1530.58</end>
            <pixelaspectratio>Square</pixelaspectratio>
            <stillframe>TRUE</stillframe>
            <anamorphic>FALSE</anamorphic>
            <alphatype>straight</alphatype>
            <masterclipid>A.png437</masterclipid>
            <file id="A">
              <name>A.png</name>
              <pathurl>D:/Codes/SynthLip/SynthLipN/bin/Release/net6.0-windows8.0/publish/Skin/template/A.png</pathurl>
              <rate>
                <ntsc>FALSE</ntsc>
                <timebase>25</timebase>
              </rate>
              <duration>2</duration>
              <width>1920</width>
              <height>1080</height>
              <media>
                <video>
                  <duration>2</duration>
                  <stillframe>TRUE</stillframe>
                  <samplecharacteristics>
                    <rate>
                      <ntsc>FALSE</ntsc>
                      <timebase>25</timebase>
                    </rate>
                    <width>1920</width>
                    <height>1080</height>
                    <pixelaspectratio>Square</pixelaspectratio>
                    <anamorphic>FALSE</anamorphic>
                  </samplecharacteristics>
                </video>
              </media>
            </file>
            <sourcetrack>
              <mediatype>video</mediatype>
            </sourcetrack>
            <fielddominance>none</fielddominance>
          </clipitem>
          <clipitem id="A.png436">
            <name>A.png</name>
            <duration>0.23</duration>
            <rate>
              <ntsc>FALSE</ntsc>
              <timebase>25</timebase>
            </rate>
            <in>91530</in>
            <out>91530.23</out>
            <start>1530</start>
            <end>1530.23</end>
            <pixelaspectratio>Square</pixelaspectratio>
            <stillframe>TRUE</stillframe>
            <anamorphic>FALSE</anamorphic>
            <alphatype>straight</alphatype>
            <masterclipid>A.png436</masterclipid>
            <file id="A">
              <name>A.png</name>
              <pathurl>D:/Codes/SynthLip/SynthLipN/bin/Release/net6.0-windows8.0/publish/Skin/template/A.png</pathurl>
              <rate>
                <ntsc>FALSE</ntsc>
                <timebase>25</timebase>
              </rate>
              <duration>2</duration>
              <width>1920</width>
              <height>1080</height>
              <media>
                <video>
                  <duration>2</duration>
                  <stillframe>TRUE</stillframe>
                  <samplecharacteristics>
                    <rate>
                      <ntsc>FALSE</ntsc>
                      <timebase>25</timebase>
                    </rate>
                    <width>1920</width>
                    <height>1080</height>
                    <pixelaspectratio>Square</pixelaspectratio>
                    <anamorphic>FALSE</anamorphic>
                  </samplecharacteristics>
                </video>
              </media>
            </file>
            <sourcetrack>
              <mediatype>video</mediatype>
            </sourcetrack>
            <fielddominance>none</fielddominance>
          </clipitem>
          <clipitem id="A.png435">
            <name>A.png</name>
            <duration>7.5</duration>
            <rate>
              <ntsc>FALSE</ntsc>
              <timebase>25</timebase>
            </rate>
            <in>91522.5</in>
            <out>91530</out>
            <start>1522.5</start>
            <end>1530</end>
            <pixelaspectratio>Square</pixelaspectratio>
            <stillframe>TRUE</stillframe>
            <anamorphic>FALSE</anamorphic>
            <alphatype>straight</alphatype>
            <masterclipid>A.png435</masterclipid>
            <file id="A">
              <name>A.png</name>
              <pathurl>D:/Codes/SynthLip/SynthLipN/bin/Release/net6.0-windows8.0/publish/Skin/template/A.png</pathurl>
              <rate>
                <ntsc>FALSE</ntsc>
                <timebase>25</timebase>
              </rate>
              <duration>2</duration>
              <width>1920</width>
              <height>1080</height>
              <media>
                <video>
                  <duration>2</duration>
                  <stillframe>TRUE</stillframe>
                  <samplecharacteristics>
                    <rate>
                      <ntsc>FALSE</ntsc>
                      <timebase>25</timebase>
                    </rate>
                    <width>1920</width>
                    <height>1080</height>
                    <pixelaspectratio>Square</pixelaspectratio>
                    <anamorphic>FALSE</anamorphic>
                  </samplecharacteristics>
                </video>
              </media>
            </file>
            <sourcetrack>
              <mediatype>video</mediatype>
            </sourcetrack>
            <fielddominance>none</fielddominance>
          </clipitem>
          <clipitem id="F.png434">
            <name>F.png</name>
            <duration>4.37</duration>
            <rate>
              <ntsc>FALSE</ntsc>
              <timebase>25</timebase>
            </rate>
            <in>91518.13</in>
            <out>91522.5</out>
            <start>1518.13</start>
            <end>1522.5</end>
            <pixelaspectratio>Square</pixelaspectratio>
            <stillframe>TRUE</stillframe>
            <anamorphic>FALSE</anamorphic>
            <alphatype>straight</alphatype>
            <masterclipid>F.png434</masterclipid>
            <file id="F">
              <name>F.png</name>
              <pathurl>D:/Codes/SynthLip/SynthLipN/bin/Release/net6.0-windows8.0/publish/Skin/template/F.png</pathurl>
              <rate>
                <ntsc>FALSE</ntsc>
                <timebase>25</timebase>
              </rate>
              <duration>2</duration>
              <width>1920</width>
              <height>1080</height>
              <media>
                <video>
                  <duration>2</duration>
                  <stillframe>TRUE</stillframe>
                  <samplecharacteristics>
                    <rate>
                      <ntsc>FALSE</ntsc>
                      <timebase>25</timebase>
                    </rate>
                    <width>1920</width>
                    <height>1080</height>
                    <pixelaspectratio>Square</pixelaspectratio>
                    <anamorphic>FALSE</anamorphic>
                  </samplecharacteristics>
                </video>
              </media>
            </file>
            <sourcetrack>
              <mediatype>video</mediatype>
            </sourcetrack>
            <fielddominance>none</fielddominance>
          </clipitem>
          <clipitem id="G.png433">
            <name>G.png</name>
            <duration>1.88</duration>
            <rate>
              <ntsc>FALSE</ntsc>
              <timebase>25</timebase>
            </rate>
            <in>91516.25</in>
            <out>91518.13</out>
            <start>1516.25</start>
            <end>1518.13</end>
            <pixelaspectratio>Square</pixelaspectratio>
            <stillframe>TRUE</stillframe>
            <anamorphic>FALSE</anamorphic>
            <alphatype>straight</alphatype>
            <masterclipid>G.png433</masterclipid>
            <file id="G">
              <name>G.png</name>
              <pathurl>D:/Codes/SynthLip/SynthLipN/bin/Release/net6.0-windows8.0/publish/Skin/template/G.png</pathurl>
              <rate>
                <ntsc>FALSE</ntsc>
                <timebase>25</timebase>
              </rate>
              <duration>2</duration>
              <width>1920</width>
              <height>1080</height>
              <media>
                <video>
                  <duration>2</duration>
                  <stillframe>TRUE</stillframe>
                  <samplecharacteristics>
                    <rate>
                      <ntsc>FALSE</ntsc>
                      <timebase>25</timebase>
                    </rate>
                    <width>1920</width>
                    <height>1080</height>
                    <pixelaspectratio>Square</pixelaspectratio>
                    <anamorphic>FALSE</anamorphic>
                  </samplecharacteristics>
                </video>
              </media>
            </file>
            <sourcetrack>
              <mediatype>video</mediatype>
            </sourcetrack>
            <fielddominance>none</fielddominance>
          </clipitem>
          <clipitem id="G.png432">
            <name>G.png</name>
            <duration>1.25</duration>
            <rate>
              <ntsc>FALSE</ntsc>
              <timebase>25</timebase>
            </rate>
            <in>91515</in>
            <out>91516.25</out>
            <start>1515</start>
            <end>1516.25</end>
            <pixelaspectratio>Square</pixelaspectratio>
            <stillframe>TRUE</stillframe>
            <anamorphic>FALSE</anamorphic>
            <alphatype>straight</alphatype>
            <masterclipid>G.png432</masterclipid>
            <file id="G">
              <name>G.png</name>
              <pathurl>D:/Codes/SynthLip/SynthLipN/bin/Release/net6.0-windows8.0/publish/Skin/template/G.png</pathurl>
              <rate>
                <ntsc>FALSE</ntsc>
                <timebase>25</timebase>
              </rate>
              <duration>2</duration>
              <width>1920</width>
              <height>1080</height>
              <media>
                <video>
                  <duration>2</duration>
                  <stillframe>TRUE</stillframe>
                  <samplecharacteristics>
                    <rate>
                      <ntsc>FALSE</ntsc>
                      <timebase>25</timebase>
                    </rate>
                    <width>1920</width>
                    <height>1080</height>
                    <pixelaspectratio>Square</pixelaspectratio>
                    <anamorphic>FALSE</anamorphic>
                  </samplecharacteristics>
                </video>
              </media>
            </file>
            <sourcetrack>
              <mediatype>video</mediatype>
            </sourcetrack>
            <fielddominance>none</fielddominance>
          </clipitem>
          <clipitem id="C.png431">
            <name>C.png</name>
            <duration>5.62</duration>
            <rate>
              <ntsc>FALSE</ntsc>
              <timebase>25</timebase>
            </rate>
            <in>91509.38</in>
            <out>91515</out>
            <start>1509.38</start>
            <end>1515</end>
            <pixelaspectratio>Square</pixelaspectratio>
            <stillframe>TRUE</stillframe>
            <anamorphic>FALSE</anamorphic>
            <alphatype>straight</alphatype>
            <masterclipid>C.png431</masterclipid>
            <file id="C">
              <name>C.png</name>
              <pathurl>D:/Codes/SynthLip/SynthLipN/bin/Release/net6.0-windows8.0/publish/Skin/template/C.png</pathurl>
              <rate>
                <ntsc>FALSE</ntsc>
                <timebase>25</timebase>
              </rate>
              <duration>2</duration>
              <width>1920</width>
              <height>1080</height>
              <media>
                <video>
                  <duration>2</duration>
                  <stillframe>TRUE</stillframe>
                  <samplecharacteristics>
                    <rate>
                      <ntsc>FALSE</ntsc>
                      <timebase>25</timebase>
                    </rate>
                    <width>1920</width>
                    <height>1080</height>
                    <pixelaspectratio>Square</pixelaspectratio>
                    <anamorphic>FALSE</anamorphic>
                  </samplecharacteristics>
                </video>
              </media>
            </file>
            <sourcetrack>
              <mediatype>video</mediatype>
            </sourcetrack>
            <fielddominance>none</fielddominance>
          </clipitem>
          <clipitem id="F.png430">
            <name>F.png</name>
            <duration>1.88</duration>
            <rate>
              <ntsc>FALSE</ntsc>
              <timebase>25</timebase>
            </rate>
            <in>91507.5</in>
            <out>91509.38</out>
            <start>1507.5</start>
            <end>1509.38</end>
            <pixelaspectratio>Square</pixelaspectratio>
            <stillframe>TRUE</stillframe>
            <anamorphic>FALSE</anamorphic>
            <alphatype>straight</alphatype>
            <masterclipid>F.png430</masterclipid>
            <file id="F">
              <name>F.png</name>
              <pathurl>D:/Codes/SynthLip/SynthLipN/bin/Release/net6.0-windows8.0/publish/Skin/template/F.png</pathurl>
              <rate>
                <ntsc>FALSE</ntsc>
                <timebase>25</timebase>
              </rate>
              <duration>2</duration>
              <width>1920</width>
              <height>1080</height>
              <media>
                <video>
                  <duration>2</duration>
                  <stillframe>TRUE</stillframe>
                  <samplecharacteristics>
                    <rate>
                      <ntsc>FALSE</ntsc>
                      <timebase>25</timebase>
                    </rate>
                    <width>1920</width>
                    <height>1080</height>
                    <pixelaspectratio>Square</pixelaspectratio>
                    <anamorphic>FALSE</anamorphic>
                  </samplecharacteristics>
                </video>
              </media>
            </file>
            <sourcetrack>
              <mediatype>video</mediatype>
            </sourcetrack>
            <fielddominance>none</fielddominance>
          </clipitem>
          <clipitem id="G.png429">
            <name>G.png</name>
            <duration>5.94</duration>
            <rate>
              <ntsc>FALSE</ntsc>
              <timebase>25</timebase>
            </rate>
            <in>91501.56</in>
            <out>91507.5</out>
            <start>1501.56</start>
            <end>1507.5</end>
            <pixelaspectratio>Square</pixelaspectratio>
            <stillframe>TRUE</stillframe>
            <anamorphic>FALSE</anamorphic>
            <alphatype>straight</alphatype>
            <masterclipid>G.png429</masterclipid>
            <file id="G">
              <name>G.png</name>
              <pathurl>D:/Codes/SynthLip/SynthLipN/bin/Release/net6.0-windows8.0/publish/Skin/template/G.png</pathurl>
              <rate>
                <ntsc>FALSE</ntsc>
                <timebase>25</timebase>
              </rate>
              <duration>2</duration>
              <width>1920</width>
              <height>1080</height>
              <media>
                <video>
                  <duration>2</duration>
                  <stillframe>TRUE</stillframe>
                  <samplecharacteristics>
                    <rate>
                      <ntsc>FALSE</ntsc>
                      <timebase>25</timebase>
                    </rate>
                    <width>1920</width>
                    <height>1080</height>
                    <pixelaspectratio>Square</pixelaspectratio>
                    <anamorphic>FALSE</anamorphic>
                  </samplecharacteristics>
                </video>
              </media>
            </file>
            <sourcetrack>
              <mediatype>video</mediatype>
            </sourcetrack>
            <fielddominance>none</fielddominance>
          </clipitem>
          <clipitem id="G.png428">
            <name>G.png</name>
            <duration>0.31</duration>
            <rate>
              <ntsc>FALSE</ntsc>
              <timebase>25</timebase>
            </rate>
            <in>91501.25</in>
            <out>91501.56</out>
            <start>1501.25</start>
            <end>1501.56</end>
            <pixelaspectratio>Square</pixelaspectratio>
            <stillframe>TRUE</stillframe>
            <anamorphic>FALSE</anamorphic>
            <alphatype>straight</alphatype>
            <masterclipid>G.png428</masterclipid>
            <file id="G">
              <name>G.png</name>
              <pathurl>D:/Codes/SynthLip/SynthLipN/bin/Release/net6.0-windows8.0/publish/Skin/template/G.png</pathurl>
              <rate>
                <ntsc>FALSE</ntsc>
                <timebase>25</timebase>
              </rate>
              <duration>2</duration>
              <width>1920</width>
              <height>1080</height>
              <media>
                <video>
                  <duration>2</duration>
                  <stillframe>TRUE</stillframe>
                  <samplecharacteristics>
                    <rate>
                      <ntsc>FALSE</ntsc>
                      <timebase>25</timebase>
                    </rate>
                    <width>1920</width>
                    <height>1080</height>
                    <pixelaspectratio>Square</pixelaspectratio>
                    <anamorphic>FALSE</anamorphic>
                  </samplecharacteristics>
                </video>
              </media>
            </file>
            <sourcetrack>
              <mediatype>video</mediatype>
            </sourcetrack>
            <fielddominance>none</fielddominance>
          </clipitem>
          <clipitem id="D.png427">
            <name>D.png</name>
            <duration>1.25</duration>
            <rate>
              <ntsc>FALSE</ntsc>
              <timebase>25</timebase>
            </rate>
            <in>91500</in>
            <out>91501.25</out>
            <start>1500</start>
            <end>1501.25</end>
            <pixelaspectratio>Square</pixelaspectratio>
            <stillframe>TRUE</stillframe>
            <anamorphic>FALSE</anamorphic>
            <alphatype>straight</alphatype>
            <masterclipid>D.png427</masterclipid>
            <file id="D">
              <name>D.png</name>
              <pathurl>D:/Codes/SynthLip/SynthLipN/bin/Release/net6.0-windows8.0/publish/Skin/template/D.png</pathurl>
              <rate>
                <ntsc>FALSE</ntsc>
                <timebase>25</timebase>
              </rate>
              <duration>2</duration>
              <width>1920</width>
              <height>1080</height>
              <media>
                <video>
                  <duration>2</duration>
                  <stillframe>TRUE</stillframe>
                  <samplecharacteristics>
                    <rate>
                      <ntsc>FALSE</ntsc>
                      <timebase>25</timebase>
                    </rate>
                    <width>1920</width>
                    <height>1080</height>
                    <pixelaspectratio>Square</pixelaspectratio>
                    <anamorphic>FALSE</anamorphic>
                  </samplecharacteristics>
                </video>
              </media>
            </file>
            <sourcetrack>
              <mediatype>video</mediatype>
            </sourcetrack>
            <fielddominance>none</fielddominance>
          </clipitem>
          <clipitem id="C.png426">
            <name>C.png</name>
            <duration>0.63</duration>
            <rate>
              <ntsc>FALSE</ntsc>
              <timebase>25</timebase>
            </rate>
            <in>91499.38</in>
            <out>91500.016</out>
            <start>1499.38</start>
            <end>1500.01</end>
            <pixelaspectratio>Square</pixelaspectratio>
            <stillframe>TRUE</stillframe>
            <anamorphic>FALSE</anamorphic>
            <alphatype>straight</alphatype>
            <masterclipid>C.png426</masterclipid>
            <file id="C">
              <name>C.png</name>
              <pathurl>D:/Codes/SynthLip/SynthLipN/bin/Release/net6.0-windows8.0/publish/Skin/template/C.png</pathurl>
              <rate>
                <ntsc>FALSE</ntsc>
                <timebase>25</timebase>
              </rate>
              <duration>2</duration>
              <width>1920</width>
              <height>1080</height>
              <media>
                <video>
                  <duration>2</duration>
                  <stillframe>TRUE</stillframe>
                  <samplecharacteristics>
                    <rate>
                      <ntsc>FALSE</ntsc>
                      <timebase>25</timebase>
                    </rate>
                    <width>1920</width>
                    <height>1080</height>
                    <pixelaspectratio>Square</pixelaspectratio>
                    <anamorphic>FALSE</anamorphic>
                  </samplecharacteristics>
                </video>
              </media>
            </file>
            <sourcetrack>
              <mediatype>video</mediatype>
            </sourcetrack>
            <fielddominance>none</fielddominance>
          </clipitem>
          <clipitem id="F.png425">
            <name>F.png</name>
            <duration>0.63</duration>
            <rate>
              <ntsc>FALSE</ntsc>
              <timebase>25</timebase>
            </rate>
            <in>91498.75</in>
            <out>91499.38</out>
            <start>1498.75</start>
            <end>1499.38</end>
            <pixelaspectratio>Square</pixelaspectratio>
            <stillframe>TRUE</stillframe>
            <anamorphic>FALSE</anamorphic>
            <alphatype>straight</alphatype>
            <masterclipid>F.png425</masterclipid>
            <file id="F">
              <name>F.png</name>
              <pathurl>D:/Codes/SynthLip/SynthLipN/bin/Release/net6.0-windows8.0/publish/Skin/template/F.png</pathurl>
              <rate>
                <ntsc>FALSE</ntsc>
                <timebase>25</timebase>
              </rate>
              <duration>2</duration>
              <width>1920</width>
              <height>1080</height>
              <media>
                <video>
                  <duration>2</duration>
                  <stillframe>TRUE</stillframe>
                  <samplecharacteristics>
                    <rate>
                      <ntsc>FALSE</ntsc>
                      <timebase>25</timebase>
                    </rate>
                    <width>1920</width>
                    <height>1080</height>
                    <pixelaspectratio>Square</pixelaspectratio>
                    <anamorphic>FALSE</anamorphic>
                  </samplecharacteristics>
                </video>
              </media>
            </file>
            <sourcetrack>
              <mediatype>video</mediatype>
            </sourcetrack>
            <fielddominance>none</fielddominance>
          </clipitem>
          <clipitem id="F.png424">
            <name>F.png</name>
            <duration>3.52</duration>
            <rate>
              <ntsc>FALSE</ntsc>
              <timebase>25</timebase>
            </rate>
            <in>91495.23</in>
            <out>91498.75</out>
            <start>1495.23</start>
            <end>1498.75</end>
            <pixelaspectratio>Square</pixelaspectratio>
            <stillframe>TRUE</stillframe>
            <anamorphic>FALSE</anamorphic>
            <alphatype>straight</alphatype>
            <masterclipid>F.png424</masterclipid>
            <file id="F">
              <name>F.png</name>
              <pathurl>D:/Codes/SynthLip/SynthLipN/bin/Release/net6.0-windows8.0/publish/Skin/template/F.png</pathurl>
              <rate>
                <ntsc>FALSE</ntsc>
                <timebase>25</timebase>
              </rate>
              <duration>2</duration>
              <width>1920</width>
              <height>1080</height>
              <media>
                <video>
                  <duration>2</duration>
                  <stillframe>TRUE</stillframe>
                  <samplecharacteristics>
                    <rate>
                      <ntsc>FALSE</ntsc>
                      <timebase>25</timebase>
                    </rate>
                    <width>1920</width>
                    <height>1080</height>
                    <pixelaspectratio>Square</pixelaspectratio>
                    <anamorphic>FALSE</anamorphic>
                  </samplecharacteristics>
                </video>
              </media>
            </file>
            <sourcetrack>
              <mediatype>video</mediatype>
            </sourcetrack>
            <fielddominance>none</fielddominance>
          </clipitem>
          <clipitem id="B.png423">
            <name>B.png</name>
            <duration>2.27</duration>
            <rate>
              <ntsc>FALSE</ntsc>
              <timebase>25</timebase>
            </rate>
            <in>91492.97</in>
            <out>91495.24</out>
            <start>1492.97</start>
            <end>1495.24</end>
            <pixelaspectratio>Square</pixelaspectratio>
            <stillframe>TRUE</stillframe>
            <anamorphic>FALSE</anamorphic>
            <alphatype>straight</alphatype>
            <masterclipid>B.png423</masterclipid>
            <file id="B">
              <name>B.png</name>
              <pathurl>D:/Codes/SynthLip/SynthLipN/bin/Release/net6.0-windows8.0/publish/Skin/template/B.png</pathurl>
              <rate>
                <ntsc>FALSE</ntsc>
                <timebase>25</timebase>
              </rate>
              <duration>2</duration>
              <width>1920</width>
              <height>1080</height>
              <media>
                <video>
                  <duration>2</duration>
                  <stillframe>TRUE</stillframe>
                  <samplecharacteristics>
                    <rate>
                      <ntsc>FALSE</ntsc>
                      <timebase>25</timebase>
                    </rate>
                    <width>1920</width>
                    <height>1080</height>
                    <pixelaspectratio>Square</pixelaspectratio>
                    <anamorphic>FALSE</anamorphic>
                  </samplecharacteristics>
                </video>
              </media>
            </file>
            <sourcetrack>
              <mediatype>video</mediatype>
            </sourcetrack>
            <fielddominance>none</fielddominance>
          </clipitem>
          <clipitem id="B.png422">
            <name>B.png</name>
            <duration>3.28</duration>
            <rate>
              <ntsc>FALSE</ntsc>
              <timebase>25</timebase>
            </rate>
            <in>91489.69</in>
            <out>91492.97</out>
            <start>1489.69</start>
            <end>1492.97</end>
            <pixelaspectratio>Square</pixelaspectratio>
            <stillframe>TRUE</stillframe>
            <anamorphic>FALSE</anamorphic>
            <alphatype>straight</alphatype>
            <masterclipid>B.png422</masterclipid>
            <file id="B">
              <name>B.png</name>
              <pathurl>D:/Codes/SynthLip/SynthLipN/bin/Release/net6.0-windows8.0/publish/Skin/template/B.png</pathurl>
              <rate>
                <ntsc>FALSE</ntsc>
                <timebase>25</timebase>
              </rate>
              <duration>2</duration>
              <width>1920</width>
              <height>1080</height>
              <media>
                <video>
                  <duration>2</duration>
                  <stillframe>TRUE</stillframe>
                  <samplecharacteristics>
                    <rate>
                      <ntsc>FALSE</ntsc>
                      <timebase>25</timebase>
                    </rate>
                    <width>1920</width>
                    <height>1080</height>
                    <pixelaspectratio>Square</pixelaspectratio>
                    <anamorphic>FALSE</anamorphic>
                  </samplecharacteristics>
                </video>
              </media>
            </file>
            <sourcetrack>
              <mediatype>video</mediatype>
            </sourcetrack>
            <fielddominance>none</fielddominance>
          </clipitem>
          <clipitem id="B.png421">
            <name>B.png</name>
            <duration>0.94</duration>
            <rate>
              <ntsc>FALSE</ntsc>
              <timebase>25</timebase>
            </rate>
            <in>91488.75</in>
            <out>91489.69</out>
            <start>1488.75</start>
            <end>1489.69</end>
            <pixelaspectratio>Square</pixelaspectratio>
            <stillframe>TRUE</stillframe>
            <anamorphic>FALSE</anamorphic>
            <alphatype>straight</alphatype>
            <masterclipid>B.png421</masterclipid>
            <file id="B">
              <name>B.png</name>
              <pathurl>D:/Codes/SynthLip/SynthLipN/bin/Release/net6.0-windows8.0/publish/Skin/template/B.png</pathurl>
              <rate>
                <ntsc>FALSE</ntsc>
                <timebase>25</timebase>
              </rate>
              <duration>2</duration>
              <width>1920</width>
              <height>1080</height>
              <media>
                <video>
                  <duration>2</duration>
                  <stillframe>TRUE</stillframe>
                  <samplecharacteristics>
                    <rate>
                      <ntsc>FALSE</ntsc>
                      <timebase>25</timebase>
                    </rate>
                    <width>1920</width>
                    <height>1080</height>
                    <pixelaspectratio>Square</pixelaspectratio>
                    <anamorphic>FALSE</anamorphic>
                  </samplecharacteristics>
                </video>
              </media>
            </file>
            <sourcetrack>
              <mediatype>video</mediatype>
            </sourcetrack>
            <fielddominance>none</fielddominance>
          </clipitem>
          <clipitem id="F.png420">
            <name>F.png</name>
            <duration>2.81</duration>
            <rate>
              <ntsc>FALSE</ntsc>
              <timebase>25</timebase>
            </rate>
            <in>91485.94</in>
            <out>91488.75</out>
            <start>1485.94</start>
            <end>1488.75</end>
            <pixelaspectratio>Square</pixelaspectratio>
            <stillframe>TRUE</stillframe>
            <anamorphic>FALSE</anamorphic>
            <alphatype>straight</alphatype>
            <masterclipid>F.png420</masterclipid>
            <file id="F">
              <name>F.png</name>
              <pathurl>D:/Codes/SynthLip/SynthLipN/bin/Release/net6.0-windows8.0/publish/Skin/template/F.png</pathurl>
              <rate>
                <ntsc>FALSE</ntsc>
                <timebase>25</timebase>
              </rate>
              <duration>2</duration>
              <width>1920</width>
              <height>1080</height>
              <media>
                <video>
                  <duration>2</duration>
                  <stillframe>TRUE</stillframe>
                  <samplecharacteristics>
                    <rate>
                      <ntsc>FALSE</ntsc>
                      <timebase>25</timebase>
                    </rate>
                    <width>1920</width>
                    <height>1080</height>
                    <pixelaspectratio>Square</pixelaspectratio>
                    <anamorphic>FALSE</anamorphic>
                  </samplecharacteristics>
                </video>
              </media>
            </file>
            <sourcetrack>
              <mediatype>video</mediatype>
            </sourcetrack>
            <fielddominance>none</fielddominance>
          </clipitem>
          <clipitem id="C.png419">
            <name>C.png</name>
            <duration>0.94</duration>
            <rate>
              <ntsc>FALSE</ntsc>
              <timebase>25</timebase>
            </rate>
            <in>91485</in>
            <out>91485.94</out>
            <start>1485</start>
            <end>1485.94</end>
            <pixelaspectratio>Square</pixelaspectratio>
            <stillframe>TRUE</stillframe>
            <anamorphic>FALSE</anamorphic>
            <alphatype>straight</alphatype>
            <masterclipid>C.png419</masterclipid>
            <file id="C">
              <name>C.png</name>
              <pathurl>D:/Codes/SynthLip/SynthLipN/bin/Release/net6.0-windows8.0/publish/Skin/template/C.png</pathurl>
              <rate>
                <ntsc>FALSE</ntsc>
                <timebase>25</timebase>
              </rate>
              <duration>2</duration>
              <width>1920</width>
              <height>1080</height>
              <media>
                <video>
                  <duration>2</duration>
                  <stillframe>TRUE</stillframe>
                  <samplecharacteristics>
                    <rate>
                      <ntsc>FALSE</ntsc>
                      <timebase>25</timebase>
                    </rate>
                    <width>1920</width>
                    <height>1080</height>
                    <pixelaspectratio>Square</pixelaspectratio>
                    <anamorphic>FALSE</anamorphic>
                  </samplecharacteristics>
                </video>
              </media>
            </file>
            <sourcetrack>
              <mediatype>video</mediatype>
            </sourcetrack>
            <fielddominance>none</fielddominance>
          </clipitem>
          <clipitem id="C.png418">
            <name>C.png</name>
            <duration>2.19</duration>
            <rate>
              <ntsc>FALSE</ntsc>
              <timebase>25</timebase>
            </rate>
            <in>91482.81</in>
            <out>91485</out>
            <start>1482.81</start>
            <end>1485</end>
            <pixelaspectratio>Square</pixelaspectratio>
            <stillframe>TRUE</stillframe>
            <anamorphic>FALSE</anamorphic>
            <alphatype>straight</alphatype>
            <masterclipid>C.png418</masterclipid>
            <file id="C">
              <name>C.png</name>
              <pathurl>D:/Codes/SynthLip/SynthLipN/bin/Release/net6.0-windows8.0/publish/Skin/template/C.png</pathurl>
              <rate>
                <ntsc>FALSE</ntsc>
                <timebase>25</timebase>
              </rate>
              <duration>2</duration>
              <width>1920</width>
              <height>1080</height>
              <media>
                <video>
                  <duration>2</duration>
                  <stillframe>TRUE</stillframe>
                  <samplecharacteristics>
                    <rate>
                      <ntsc>FALSE</ntsc>
                      <timebase>25</timebase>
                    </rate>
                    <width>1920</width>
                    <height>1080</height>
                    <pixelaspectratio>Square</pixelaspectratio>
                    <anamorphic>FALSE</anamorphic>
                  </samplecharacteristics>
                </video>
              </media>
            </file>
            <sourcetrack>
              <mediatype>video</mediatype>
            </sourcetrack>
            <fielddominance>none</fielddominance>
          </clipitem>
          <clipitem id="B.png417">
            <name>B.png</name>
            <duration>0.94</duration>
            <rate>
              <ntsc>FALSE</ntsc>
              <timebase>25</timebase>
            </rate>
            <in>91481.88</in>
            <out>91482.82</out>
            <start>1481.88</start>
            <end>1482.82</end>
            <pixelaspectratio>Square</pixelaspectratio>
            <stillframe>TRUE</stillframe>
            <anamorphic>FALSE</anamorphic>
            <alphatype>straight</alphatype>
            <masterclipid>B.png417</masterclipid>
            <file id="B">
              <name>B.png</name>
              <pathurl>D:/Codes/SynthLip/SynthLipN/bin/Release/net6.0-windows8.0/publish/Skin/template/B.png</pathurl>
              <rate>
                <ntsc>FALSE</ntsc>
                <timebase>25</timebase>
              </rate>
              <duration>2</duration>
              <width>1920</width>
              <height>1080</height>
              <media>
                <video>
                  <duration>2</duration>
                  <stillframe>TRUE</stillframe>
                  <samplecharacteristics>
                    <rate>
                      <ntsc>FALSE</ntsc>
                      <timebase>25</timebase>
                    </rate>
                    <width>1920</width>
                    <height>1080</height>
                    <pixelaspectratio>Square</pixelaspectratio>
                    <anamorphic>FALSE</anamorphic>
                  </samplecharacteristics>
                </video>
              </media>
            </file>
            <sourcetrack>
              <mediatype>video</mediatype>
            </sourcetrack>
            <fielddominance>none</fielddominance>
          </clipitem>
          <clipitem id="B.png416">
            <name>B.png</name>
            <duration>0.62</duration>
            <rate>
              <ntsc>FALSE</ntsc>
              <timebase>25</timebase>
            </rate>
            <in>91481.25</in>
            <out>91481.87</out>
            <start>1481.25</start>
            <end>1481.87</end>
            <pixelaspectratio>Square</pixelaspectratio>
            <stillframe>TRUE</stillframe>
            <anamorphic>FALSE</anamorphic>
            <alphatype>straight</alphatype>
            <masterclipid>B.png416</masterclipid>
            <file id="B">
              <name>B.png</name>
              <pathurl>D:/Codes/SynthLip/SynthLipN/bin/Release/net6.0-windows8.0/publish/Skin/template/B.png</pathurl>
              <rate>
                <ntsc>FALSE</ntsc>
                <timebase>25</timebase>
              </rate>
              <duration>2</duration>
              <width>1920</width>
              <height>1080</height>
              <media>
                <video>
                  <duration>2</duration>
                  <stillframe>TRUE</stillframe>
                  <samplecharacteristics>
                    <rate>
                      <ntsc>FALSE</ntsc>
                      <timebase>25</timebase>
                    </rate>
                    <width>1920</width>
                    <height>1080</height>
                    <pixelaspectratio>Square</pixelaspectratio>
                    <anamorphic>FALSE</anamorphic>
                  </samplecharacteristics>
                </video>
              </media>
            </file>
            <sourcetrack>
              <mediatype>video</mediatype>
            </sourcetrack>
            <fielddominance>none</fielddominance>
          </clipitem>
          <clipitem id="E.png415">
            <name>E.png</name>
            <duration>9.84</duration>
            <rate>
              <ntsc>FALSE</ntsc>
              <timebase>25</timebase>
            </rate>
            <in>91471.41</in>
            <out>91481.25</out>
            <start>1471.41</start>
            <end>1481.25</end>
            <pixelaspectratio>Square</pixelaspectratio>
            <stillframe>TRUE</stillframe>
            <anamorphic>FALSE</anamorphic>
            <alphatype>straight</alphatype>
            <masterclipid>E.png415</masterclipid>
            <file id="E">
              <name>E.png</name>
              <pathurl>D:/Codes/SynthLip/SynthLipN/bin/Release/net6.0-windows8.0/publish/Skin/template/E.png</pathurl>
              <rate>
                <ntsc>FALSE</ntsc>
                <timebase>25</timebase>
              </rate>
              <duration>2</duration>
              <width>1920</width>
              <height>1080</height>
              <media>
                <video>
                  <duration>2</duration>
                  <stillframe>TRUE</stillframe>
                  <samplecharacteristics>
                    <rate>
                      <ntsc>FALSE</ntsc>
                      <timebase>25</timebase>
                    </rate>
                    <width>1920</width>
                    <height>1080</height>
                    <pixelaspectratio>Square</pixelaspectratio>
                    <anamorphic>FALSE</anamorphic>
                  </samplecharacteristics>
                </video>
              </media>
            </file>
            <sourcetrack>
              <mediatype>video</mediatype>
            </sourcetrack>
            <fielddominance>none</fielddominance>
          </clipitem>
          <clipitem id="B.png414">
            <name>B.png</name>
            <duration>2.34</duration>
            <rate>
              <ntsc>FALSE</ntsc>
              <timebase>25</timebase>
            </rate>
            <in>91469.06</in>
            <out>91471.41</out>
            <start>1469.06</start>
            <end>1471.4</end>
            <pixelaspectratio>Square</pixelaspectratio>
            <stillframe>TRUE</stillframe>
            <anamorphic>FALSE</anamorphic>
            <alphatype>straight</alphatype>
            <masterclipid>B.png414</masterclipid>
            <file id="B">
              <name>B.png</name>
              <pathurl>D:/Codes/SynthLip/SynthLipN/bin/Release/net6.0-windows8.0/publish/Skin/template/B.png</pathurl>
              <rate>
                <ntsc>FALSE</ntsc>
                <timebase>25</timebase>
              </rate>
              <duration>2</duration>
              <width>1920</width>
              <height>1080</height>
              <media>
                <video>
                  <duration>2</duration>
                  <stillframe>TRUE</stillframe>
                  <samplecharacteristics>
                    <rate>
                      <ntsc>FALSE</ntsc>
                      <timebase>25</timebase>
                    </rate>
                    <width>1920</width>
                    <height>1080</height>
                    <pixelaspectratio>Square</pixelaspectratio>
                    <anamorphic>FALSE</anamorphic>
                  </samplecharacteristics>
                </video>
              </media>
            </file>
            <sourcetrack>
              <mediatype>video</mediatype>
            </sourcetrack>
            <fielddominance>none</fielddominance>
          </clipitem>
          <clipitem id="A.png413">
            <name>A.png</name>
            <duration>0.94</duration>
            <rate>
              <ntsc>FALSE</ntsc>
              <timebase>25</timebase>
            </rate>
            <in>91468.13</in>
            <out>91469.07</out>
            <start>1468.13</start>
            <end>1469.07</end>
            <pixelaspectratio>Square</pixelaspectratio>
            <stillframe>TRUE</stillframe>
            <anamorphic>FALSE</anamorphic>
            <alphatype>straight</alphatype>
            <masterclipid>A.png413</masterclipid>
            <file id="A">
              <name>A.png</name>
              <pathurl>D:/Codes/SynthLip/SynthLipN/bin/Release/net6.0-windows8.0/publish/Skin/template/A.png</pathurl>
              <rate>
                <ntsc>FALSE</ntsc>
                <timebase>25</timebase>
              </rate>
              <duration>2</duration>
              <width>1920</width>
              <height>1080</height>
              <media>
                <video>
                  <duration>2</duration>
                  <stillframe>TRUE</stillframe>
                  <samplecharacteristics>
                    <rate>
                      <ntsc>FALSE</ntsc>
                      <timebase>25</timebase>
                    </rate>
                    <width>1920</width>
                    <height>1080</height>
                    <pixelaspectratio>Square</pixelaspectratio>
                    <anamorphic>FALSE</anamorphic>
                  </samplecharacteristics>
                </video>
              </media>
            </file>
            <sourcetrack>
              <mediatype>video</mediatype>
            </sourcetrack>
            <fielddominance>none</fielddominance>
          </clipitem>
          <clipitem id="D.png412">
            <name>D.png</name>
            <duration>3.28</duration>
            <rate>
              <ntsc>FALSE</ntsc>
              <timebase>25</timebase>
            </rate>
            <in>91464.84</in>
            <out>91468.125</out>
            <start>1464.84</start>
            <end>1468.12</end>
            <pixelaspectratio>Square</pixelaspectratio>
            <stillframe>TRUE</stillframe>
            <anamorphic>FALSE</anamorphic>
            <alphatype>straight</alphatype>
            <masterclipid>D.png412</masterclipid>
            <file id="D">
              <name>D.png</name>
              <pathurl>D:/Codes/SynthLip/SynthLipN/bin/Release/net6.0-windows8.0/publish/Skin/template/D.png</pathurl>
              <rate>
                <ntsc>FALSE</ntsc>
                <timebase>25</timebase>
              </rate>
              <duration>2</duration>
              <width>1920</width>
              <height>1080</height>
              <media>
                <video>
                  <duration>2</duration>
                  <stillframe>TRUE</stillframe>
                  <samplecharacteristics>
                    <rate>
                      <ntsc>FALSE</ntsc>
                      <timebase>25</timebase>
                    </rate>
                    <width>1920</width>
                    <height>1080</height>
                    <pixelaspectratio>Square</pixelaspectratio>
                    <anamorphic>FALSE</anamorphic>
                  </samplecharacteristics>
                </video>
              </media>
            </file>
            <sourcetrack>
              <mediatype>video</mediatype>
            </sourcetrack>
            <fielddominance>none</fielddominance>
          </clipitem>
          <clipitem id="G.png411">
            <name>G.png</name>
            <duration>1.41</duration>
            <rate>
              <ntsc>FALSE</ntsc>
              <timebase>25</timebase>
            </rate>
            <in>91463.44</in>
            <out>91464.84</out>
            <start>1463.44</start>
            <end>1464.85</end>
            <pixelaspectratio>Square</pixelaspectratio>
            <stillframe>TRUE</stillframe>
            <anamorphic>FALSE</anamorphic>
            <alphatype>straight</alphatype>
            <masterclipid>G.png411</masterclipid>
            <file id="G">
              <name>G.png</name>
              <pathurl>D:/Codes/SynthLip/SynthLipN/bin/Release/net6.0-windows8.0/publish/Skin/template/G.png</pathurl>
              <rate>
                <ntsc>FALSE</ntsc>
                <timebase>25</timebase>
              </rate>
              <duration>2</duration>
              <width>1920</width>
              <height>1080</height>
              <media>
                <video>
                  <duration>2</duration>
                  <stillframe>TRUE</stillframe>
                  <samplecharacteristics>
                    <rate>
                      <ntsc>FALSE</ntsc>
                      <timebase>25</timebase>
                    </rate>
                    <width>1920</width>
                    <height>1080</height>
                    <pixelaspectratio>Square</pixelaspectratio>
                    <anamorphic>FALSE</anamorphic>
                  </samplecharacteristics>
                </video>
              </media>
            </file>
            <sourcetrack>
              <mediatype>video</mediatype>
            </sourcetrack>
            <fielddominance>none</fielddominance>
          </clipitem>
          <clipitem id="G.png410">
            <name>G.png</name>
            <duration>0.94</duration>
            <rate>
              <ntsc>FALSE</ntsc>
              <timebase>25</timebase>
            </rate>
            <in>91462.5</in>
            <out>91463.44</out>
            <start>1462.5</start>
            <end>1463.44</end>
            <pixelaspectratio>Square</pixelaspectratio>
            <stillframe>TRUE</stillframe>
            <anamorphic>FALSE</anamorphic>
            <alphatype>straight</alphatype>
            <masterclipid>G.png410</masterclipid>
            <file id="G">
              <name>G.png</name>
              <pathurl>D:/Codes/SynthLip/SynthLipN/bin/Release/net6.0-windows8.0/publish/Skin/template/G.png</pathurl>
              <rate>
                <ntsc>FALSE</ntsc>
                <timebase>25</timebase>
              </rate>
              <duration>2</duration>
              <width>1920</width>
              <height>1080</height>
              <media>
                <video>
                  <duration>2</duration>
                  <stillframe>TRUE</stillframe>
                  <samplecharacteristics>
                    <rate>
                      <ntsc>FALSE</ntsc>
                      <timebase>25</timebase>
                    </rate>
                    <width>1920</width>
                    <height>1080</height>
                    <pixelaspectratio>Square</pixelaspectratio>
                    <anamorphic>FALSE</anamorphic>
                  </samplecharacteristics>
                </video>
              </media>
            </file>
            <sourcetrack>
              <mediatype>video</mediatype>
            </sourcetrack>
            <fielddominance>none</fielddominance>
          </clipitem>
          <clipitem id="C.png409">
            <name>C.png</name>
            <duration>5.91</duration>
            <rate>
              <ntsc>FALSE</ntsc>
              <timebase>25</timebase>
            </rate>
            <in>91456.59</in>
            <out>91462.5</out>
            <start>1456.59</start>
            <end>1462.5</end>
            <pixelaspectratio>Square</pixelaspectratio>
            <stillframe>TRUE</stillframe>
            <anamorphic>FALSE</anamorphic>
            <alphatype>straight</alphatype>
            <masterclipid>C.png409</masterclipid>
            <file id="C">
              <name>C.png</name>
              <pathurl>D:/Codes/SynthLip/SynthLipN/bin/Release/net6.0-windows8.0/publish/Skin/template/C.png</pathurl>
              <rate>
                <ntsc>FALSE</ntsc>
                <timebase>25</timebase>
              </rate>
              <duration>2</duration>
              <width>1920</width>
              <height>1080</height>
              <media>
                <video>
                  <duration>2</duration>
                  <stillframe>TRUE</stillframe>
                  <samplecharacteristics>
                    <rate>
                      <ntsc>FALSE</ntsc>
                      <timebase>25</timebase>
                    </rate>
                    <width>1920</width>
                    <height>1080</height>
                    <pixelaspectratio>Square</pixelaspectratio>
                    <anamorphic>FALSE</anamorphic>
                  </samplecharacteristics>
                </video>
              </media>
            </file>
            <sourcetrack>
              <mediatype>video</mediatype>
            </sourcetrack>
            <fielddominance>none</fielddominance>
          </clipitem>
          <clipitem id="C.png408">
            <name>C.png</name>
            <duration>0.28</duration>
            <rate>
              <ntsc>FALSE</ntsc>
              <timebase>25</timebase>
            </rate>
            <in>91456.31</in>
            <out>91456.59</out>
            <start>1456.31</start>
            <end>1456.5901</end>
            <pixelaspectratio>Square</pixelaspectratio>
            <stillframe>TRUE</stillframe>
            <anamorphic>FALSE</anamorphic>
            <alphatype>straight</alphatype>
            <masterclipid>C.png408</masterclipid>
            <file id="C">
              <name>C.png</name>
              <pathurl>D:/Codes/SynthLip/SynthLipN/bin/Release/net6.0-windows8.0/publish/Skin/template/C.png</pathurl>
              <rate>
                <ntsc>FALSE</ntsc>
                <timebase>25</timebase>
              </rate>
              <duration>2</duration>
              <width>1920</width>
              <height>1080</height>
              <media>
                <video>
                  <duration>2</duration>
                  <stillframe>TRUE</stillframe>
                  <samplecharacteristics>
                    <rate>
                      <ntsc>FALSE</ntsc>
                      <timebase>25</timebase>
                    </rate>
                    <width>1920</width>
                    <height>1080</height>
                    <pixelaspectratio>Square</pixelaspectratio>
                    <anamorphic>FALSE</anamorphic>
                  </samplecharacteristics>
                </video>
              </media>
            </file>
            <sourcetrack>
              <mediatype>video</mediatype>
            </sourcetrack>
            <fielddominance>none</fielddominance>
          </clipitem>
          <clipitem id="C.png407">
            <name>C.png</name>
            <duration>0.19</duration>
            <rate>
              <ntsc>FALSE</ntsc>
              <timebase>25</timebase>
            </rate>
            <in>91456.13</in>
            <out>91456.32</out>
            <start>1456.13</start>
            <end>1456.32</end>
            <pixelaspectratio>Square</pixelaspectratio>
            <stillframe>TRUE</stillframe>
            <anamorphic>FALSE</anamorphic>
            <alphatype>straight</alphatype>
            <masterclipid>C.png407</masterclipid>
            <file id="C">
              <name>C.png</name>
              <pathurl>D:/Codes/SynthLip/SynthLipN/bin/Release/net6.0-windows8.0/publish/Skin/template/C.png</pathurl>
              <rate>
                <ntsc>FALSE</ntsc>
                <timebase>25</timebase>
              </rate>
              <duration>2</duration>
              <width>1920</width>
              <height>1080</height>
              <media>
                <video>
                  <duration>2</duration>
                  <stillframe>TRUE</stillframe>
                  <samplecharacteristics>
                    <rate>
                      <ntsc>FALSE</ntsc>
                      <timebase>25</timebase>
                    </rate>
                    <width>1920</width>
                    <height>1080</height>
                    <pixelaspectratio>Square</pixelaspectratio>
                    <anamorphic>FALSE</anamorphic>
                  </samplecharacteristics>
                </video>
              </media>
            </file>
            <sourcetrack>
              <mediatype>video</mediatype>
            </sourcetrack>
            <fielddominance>none</fielddominance>
          </clipitem>
          <clipitem id="C.png406">
            <name>C.png</name>
            <duration>1.01</duration>
            <rate>
              <ntsc>FALSE</ntsc>
              <timebase>25</timebase>
            </rate>
            <in>91455.12</in>
            <out>91456.125</out>
            <start>1455.12</start>
            <end>1456.13</end>
            <pixelaspectratio>Square</pixelaspectratio>
            <stillframe>TRUE</stillframe>
            <anamorphic>FALSE</anamorphic>
            <alphatype>straight</alphatype>
            <masterclipid>C.png406</masterclipid>
            <file id="C">
              <name>C.png</name>
              <pathurl>D:/Codes/SynthLip/SynthLipN/bin/Release/net6.0-windows8.0/publish/Skin/template/C.png</pathurl>
              <rate>
                <ntsc>FALSE</ntsc>
                <timebase>25</timebase>
              </rate>
              <duration>2</duration>
              <width>1920</width>
              <height>1080</height>
              <media>
                <video>
                  <duration>2</duration>
                  <stillframe>TRUE</stillframe>
                  <samplecharacteristics>
                    <rate>
                      <ntsc>FALSE</ntsc>
                      <timebase>25</timebase>
                    </rate>
                    <width>1920</width>
                    <height>1080</height>
                    <pixelaspectratio>Square</pixelaspectratio>
                    <anamorphic>FALSE</anamorphic>
                  </samplecharacteristics>
                </video>
              </media>
            </file>
            <sourcetrack>
              <mediatype>video</mediatype>
            </sourcetrack>
            <fielddominance>none</fielddominance>
          </clipitem>
          <clipitem id="B.png405">
            <name>B.png</name>
            <duration>0.63</duration>
            <rate>
              <ntsc>FALSE</ntsc>
              <timebase>25</timebase>
            </rate>
            <in>91454.48</in>
            <out>91455.11</out>
            <start>1454.48</start>
            <end>1455.11</end>
            <pixelaspectratio>Square</pixelaspectratio>
            <stillframe>TRUE</stillframe>
            <anamorphic>FALSE</anamorphic>
            <alphatype>straight</alphatype>
            <masterclipid>B.png405</masterclipid>
            <file id="B">
              <name>B.png</name>
              <pathurl>D:/Codes/SynthLip/SynthLipN/bin/Release/net6.0-windows8.0/publish/Skin/template/B.png</pathurl>
              <rate>
                <ntsc>FALSE</ntsc>
                <timebase>25</timebase>
              </rate>
              <duration>2</duration>
              <width>1920</width>
              <height>1080</height>
              <media>
                <video>
                  <duration>2</duration>
                  <stillframe>TRUE</stillframe>
                  <samplecharacteristics>
                    <rate>
                      <ntsc>FALSE</ntsc>
                      <timebase>25</timebase>
                    </rate>
                    <width>1920</width>
                    <height>1080</height>
                    <pixelaspectratio>Square</pixelaspectratio>
                    <anamorphic>FALSE</anamorphic>
                  </samplecharacteristics>
                </video>
              </media>
            </file>
            <sourcetrack>
              <mediatype>video</mediatype>
            </sourcetrack>
            <fielddominance>none</fielddominance>
          </clipitem>
          <clipitem id="B.png404">
            <name>B.png</name>
            <duration>0.89</duration>
            <rate>
              <ntsc>FALSE</ntsc>
              <timebase>25</timebase>
            </rate>
            <in>91453.59</in>
            <out>91454.484</out>
            <start>1453.59</start>
            <end>1454.48</end>
            <pixelaspectratio>Square</pixelaspectratio>
            <stillframe>TRUE</stillframe>
            <anamorphic>FALSE</anamorphic>
            <alphatype>straight</alphatype>
            <masterclipid>B.png404</masterclipid>
            <file id="B">
              <name>B.png</name>
              <pathurl>D:/Codes/SynthLip/SynthLipN/bin/Release/net6.0-windows8.0/publish/Skin/template/B.png</pathurl>
              <rate>
                <ntsc>FALSE</ntsc>
                <timebase>25</timebase>
              </rate>
              <duration>2</duration>
              <width>1920</width>
              <height>1080</height>
              <media>
                <video>
                  <duration>2</duration>
                  <stillframe>TRUE</stillframe>
                  <samplecharacteristics>
                    <rate>
                      <ntsc>FALSE</ntsc>
                      <timebase>25</timebase>
                    </rate>
                    <width>1920</width>
                    <height>1080</height>
                    <pixelaspectratio>Square</pixelaspectratio>
                    <anamorphic>FALSE</anamorphic>
                  </samplecharacteristics>
                </video>
              </media>
            </file>
            <sourcetrack>
              <mediatype>video</mediatype>
            </sourcetrack>
            <fielddominance>none</fielddominance>
          </clipitem>
          <clipitem id="B.png403">
            <name>B.png</name>
            <duration>1.41</duration>
            <rate>
              <ntsc>FALSE</ntsc>
              <timebase>25</timebase>
            </rate>
            <in>91452.19</in>
            <out>91453.59</out>
            <start>1452.19</start>
            <end>1453.6</end>
            <pixelaspectratio>Square</pixelaspectratio>
            <stillframe>TRUE</stillframe>
            <anamorphic>FALSE</anamorphic>
            <alphatype>straight</alphatype>
            <masterclipid>B.png403</masterclipid>
            <file id="B">
              <name>B.png</name>
              <pathurl>D:/Codes/SynthLip/SynthLipN/bin/Release/net6.0-windows8.0/publish/Skin/template/B.png</pathurl>
              <rate>
                <ntsc>FALSE</ntsc>
                <timebase>25</timebase>
              </rate>
              <duration>2</duration>
              <width>1920</width>
              <height>1080</height>
              <media>
                <video>
                  <duration>2</duration>
                  <stillframe>TRUE</stillframe>
                  <samplecharacteristics>
                    <rate>
                      <ntsc>FALSE</ntsc>
                      <timebase>25</timebase>
                    </rate>
                    <width>1920</width>
                    <height>1080</height>
                    <pixelaspectratio>Square</pixelaspectratio>
                    <anamorphic>FALSE</anamorphic>
                  </samplecharacteristics>
                </video>
              </media>
            </file>
            <sourcetrack>
              <mediatype>video</mediatype>
            </sourcetrack>
            <fielddominance>none</fielddominance>
          </clipitem>
          <clipitem id="C.png402">
            <name>C.png</name>
            <duration>0.94</duration>
            <rate>
              <ntsc>FALSE</ntsc>
              <timebase>25</timebase>
            </rate>
            <in>91451.25</in>
            <out>91452.19</out>
            <start>1451.25</start>
            <end>1452.19</end>
            <pixelaspectratio>Square</pixelaspectratio>
            <stillframe>TRUE</stillframe>
            <anamorphic>FALSE</anamorphic>
            <alphatype>straight</alphatype>
            <masterclipid>C.png402</masterclipid>
            <file id="C">
              <name>C.png</name>
              <pathurl>D:/Codes/SynthLip/SynthLipN/bin/Release/net6.0-windows8.0/publish/Skin/template/C.png</pathurl>
              <rate>
                <ntsc>FALSE</ntsc>
                <timebase>25</timebase>
              </rate>
              <duration>2</duration>
              <width>1920</width>
              <height>1080</height>
              <media>
                <video>
                  <duration>2</duration>
                  <stillframe>TRUE</stillframe>
                  <samplecharacteristics>
                    <rate>
                      <ntsc>FALSE</ntsc>
                      <timebase>25</timebase>
                    </rate>
                    <width>1920</width>
                    <height>1080</height>
                    <pixelaspectratio>Square</pixelaspectratio>
                    <anamorphic>FALSE</anamorphic>
                  </samplecharacteristics>
                </video>
              </media>
            </file>
            <sourcetrack>
              <mediatype>video</mediatype>
            </sourcetrack>
            <fielddominance>none</fielddominance>
          </clipitem>
          <clipitem id="C.png401">
            <name>C.png</name>
            <duration>2.81</duration>
            <rate>
              <ntsc>FALSE</ntsc>
              <timebase>25</timebase>
            </rate>
            <in>91448.44</in>
            <out>91451.25</out>
            <start>1448.44</start>
            <end>1451.25</end>
            <pixelaspectratio>Square</pixelaspectratio>
            <stillframe>TRUE</stillframe>
            <anamorphic>FALSE</anamorphic>
            <alphatype>straight</alphatype>
            <masterclipid>C.png401</masterclipid>
            <file id="C">
              <name>C.png</name>
              <pathurl>D:/Codes/SynthLip/SynthLipN/bin/Release/net6.0-windows8.0/publish/Skin/template/C.png</pathurl>
              <rate>
                <ntsc>FALSE</ntsc>
                <timebase>25</timebase>
              </rate>
              <duration>2</duration>
              <width>1920</width>
              <height>1080</height>
              <media>
                <video>
                  <duration>2</duration>
                  <stillframe>TRUE</stillframe>
                  <samplecharacteristics>
                    <rate>
                      <ntsc>FALSE</ntsc>
                      <timebase>25</timebase>
                    </rate>
                    <width>1920</width>
                    <height>1080</height>
                    <pixelaspectratio>Square</pixelaspectratio>
                    <anamorphic>FALSE</anamorphic>
                  </samplecharacteristics>
                </video>
              </media>
            </file>
            <sourcetrack>
              <mediatype>video</mediatype>
            </sourcetrack>
            <fielddominance>none</fielddominance>
          </clipitem>
          <clipitem id="H.png400">
            <name>H.png</name>
            <duration>0.94</duration>
            <rate>
              <ntsc>FALSE</ntsc>
              <timebase>25</timebase>
            </rate>
            <in>91447.5</in>
            <out>91448.44</out>
            <start>1447.5</start>
            <end>1448.44</end>
            <pixelaspectratio>Square</pixelaspectratio>
            <stillframe>TRUE</stillframe>
            <anamorphic>FALSE</anamorphic>
            <alphatype>straight</alphatype>
            <masterclipid>H.png400</masterclipid>
            <file id="H">
              <name>H.png</name>
              <pathurl>D:/Codes/SynthLip/SynthLipN/bin/Release/net6.0-windows8.0/publish/Skin/template/H.png</pathurl>
              <rate>
                <ntsc>FALSE</ntsc>
                <timebase>25</timebase>
              </rate>
              <duration>2</duration>
              <width>1920</width>
              <height>1080</height>
              <media>
                <video>
                  <duration>2</duration>
                  <stillframe>TRUE</stillframe>
                  <samplecharacteristics>
                    <rate>
                      <ntsc>FALSE</ntsc>
                      <timebase>25</timebase>
                    </rate>
                    <width>1920</width>
                    <height>1080</height>
                    <pixelaspectratio>Square</pixelaspectratio>
                    <anamorphic>FALSE</anamorphic>
                  </samplecharacteristics>
                </video>
              </media>
            </file>
            <sourcetrack>
              <mediatype>video</mediatype>
            </sourcetrack>
            <fielddominance>none</fielddominance>
          </clipitem>
          <clipitem id="A.png399">
            <name>A.png</name>
            <duration>28.13</duration>
            <rate>
              <ntsc>FALSE</ntsc>
              <timebase>25</timebase>
            </rate>
            <in>91419.38</in>
            <out>91447.516</out>
            <start>1419.38</start>
            <end>1447.51</end>
            <pixelaspectratio>Square</pixelaspectratio>
            <stillframe>TRUE</stillframe>
            <anamorphic>FALSE</anamorphic>
            <alphatype>straight</alphatype>
            <masterclipid>A.png399</masterclipid>
            <file id="A">
              <name>A.png</name>
              <pathurl>D:/Codes/SynthLip/SynthLipN/bin/Release/net6.0-windows8.0/publish/Skin/template/A.png</pathurl>
              <rate>
                <ntsc>FALSE</ntsc>
                <timebase>25</timebase>
              </rate>
              <duration>2</duration>
              <width>1920</width>
              <height>1080</height>
              <media>
                <video>
                  <duration>2</duration>
                  <stillframe>TRUE</stillframe>
                  <samplecharacteristics>
                    <rate>
                      <ntsc>FALSE</ntsc>
                      <timebase>25</timebase>
                    </rate>
                    <width>1920</width>
                    <height>1080</height>
                    <pixelaspectratio>Square</pixelaspectratio>
                    <anamorphic>FALSE</anamorphic>
                  </samplecharacteristics>
                </video>
              </media>
            </file>
            <sourcetrack>
              <mediatype>video</mediatype>
            </sourcetrack>
            <fielddominance>none</fielddominance>
          </clipitem>
          <clipitem id="B.png398">
            <name>B.png</name>
            <duration>1.88</duration>
            <rate>
              <ntsc>FALSE</ntsc>
              <timebase>25</timebase>
            </rate>
            <in>91417.5</in>
            <out>91419.38</out>
            <start>1417.5</start>
            <end>1419.38</end>
            <pixelaspectratio>Square</pixelaspectratio>
            <stillframe>TRUE</stillframe>
            <anamorphic>FALSE</anamorphic>
            <alphatype>straight</alphatype>
            <masterclipid>B.png398</masterclipid>
            <file id="B">
              <name>B.png</name>
              <pathurl>D:/Codes/SynthLip/SynthLipN/bin/Release/net6.0-windows8.0/publish/Skin/template/B.png</pathurl>
              <rate>
                <ntsc>FALSE</ntsc>
                <timebase>25</timebase>
              </rate>
              <duration>2</duration>
              <width>1920</width>
              <height>1080</height>
              <media>
                <video>
                  <duration>2</duration>
                  <stillframe>TRUE</stillframe>
                  <samplecharacteristics>
                    <rate>
                      <ntsc>FALSE</ntsc>
                      <timebase>25</timebase>
                    </rate>
                    <width>1920</width>
                    <height>1080</height>
                    <pixelaspectratio>Square</pixelaspectratio>
                    <anamorphic>FALSE</anamorphic>
                  </samplecharacteristics>
                </video>
              </media>
            </file>
            <sourcetrack>
              <mediatype>video</mediatype>
            </sourcetrack>
            <fielddominance>none</fielddominance>
          </clipitem>
          <clipitem id="C.png397">
            <name>C.png</name>
            <duration>5.62</duration>
            <rate>
              <ntsc>FALSE</ntsc>
              <timebase>25</timebase>
            </rate>
            <in>91411.88</in>
            <out>91417.5</out>
            <start>1411.88</start>
            <end>1417.5</end>
            <pixelaspectratio>Square</pixelaspectratio>
            <stillframe>TRUE</stillframe>
            <anamorphic>FALSE</anamorphic>
            <alphatype>straight</alphatype>
            <masterclipid>C.png397</masterclipid>
            <file id="C">
              <name>C.png</name>
              <pathurl>D:/Codes/SynthLip/SynthLipN/bin/Release/net6.0-windows8.0/publish/Skin/template/C.png</pathurl>
              <rate>
                <ntsc>FALSE</ntsc>
                <timebase>25</timebase>
              </rate>
              <duration>2</duration>
              <width>1920</width>
              <height>1080</height>
              <media>
                <video>
                  <duration>2</duration>
                  <stillframe>TRUE</stillframe>
                  <samplecharacteristics>
                    <rate>
                      <ntsc>FALSE</ntsc>
                      <timebase>25</timebase>
                    </rate>
                    <width>1920</width>
                    <height>1080</height>
                    <pixelaspectratio>Square</pixelaspectratio>
                    <anamorphic>FALSE</anamorphic>
                  </samplecharacteristics>
                </video>
              </media>
            </file>
            <sourcetrack>
              <mediatype>video</mediatype>
            </sourcetrack>
            <fielddominance>none</fielddominance>
          </clipitem>
          <clipitem id="F.png396">
            <name>F.png</name>
            <duration>1.88</duration>
            <rate>
              <ntsc>FALSE</ntsc>
              <timebase>25</timebase>
            </rate>
            <in>91410</in>
            <out>91411.88</out>
            <start>1410</start>
            <end>1411.88</end>
            <pixelaspectratio>Square</pixelaspectratio>
            <stillframe>TRUE</stillframe>
            <anamorphic>FALSE</anamorphic>
            <alphatype>straight</alphatype>
            <masterclipid>F.png396</masterclipid>
            <file id="F">
              <name>F.png</name>
              <pathurl>D:/Codes/SynthLip/SynthLipN/bin/Release/net6.0-windows8.0/publish/Skin/template/F.png</pathurl>
              <rate>
                <ntsc>FALSE</ntsc>
                <timebase>25</timebase>
              </rate>
              <duration>2</duration>
              <width>1920</width>
              <height>1080</height>
              <media>
                <video>
                  <duration>2</duration>
                  <stillframe>TRUE</stillframe>
                  <samplecharacteristics>
                    <rate>
                      <ntsc>FALSE</ntsc>
                      <timebase>25</timebase>
                    </rate>
                    <width>1920</width>
                    <height>1080</height>
                    <pixelaspectratio>Square</pixelaspectratio>
                    <anamorphic>FALSE</anamorphic>
                  </samplecharacteristics>
                </video>
              </media>
            </file>
            <sourcetrack>
              <mediatype>video</mediatype>
            </sourcetrack>
            <fielddominance>none</fielddominance>
          </clipitem>
          <clipitem id="F.png395">
            <name>F.png</name>
            <duration>3.75</duration>
            <rate>
              <ntsc>FALSE</ntsc>
              <timebase>25</timebase>
            </rate>
            <in>91406.25</in>
            <out>91410</out>
            <start>1406.25</start>
            <end>1410</end>
            <pixelaspectratio>Square</pixelaspectratio>
            <stillframe>TRUE</stillframe>
            <anamorphic>FALSE</anamorphic>
            <alphatype>straight</alphatype>
            <masterclipid>F.png395</masterclipid>
            <file id="F">
              <name>F.png</name>
              <pathurl>D:/Codes/SynthLip/SynthLipN/bin/Release/net6.0-windows8.0/publish/Skin/template/F.png</pathurl>
              <rate>
                <ntsc>FALSE</ntsc>
                <timebase>25</timebase>
              </rate>
              <duration>2</duration>
              <width>1920</width>
              <height>1080</height>
              <media>
                <video>
                  <duration>2</duration>
                  <stillframe>TRUE</stillframe>
                  <samplecharacteristics>
                    <rate>
                      <ntsc>FALSE</ntsc>
                      <timebase>25</timebase>
                    </rate>
                    <width>1920</width>
                    <height>1080</height>
                    <pixelaspectratio>Square</pixelaspectratio>
                    <anamorphic>FALSE</anamorphic>
                  </samplecharacteristics>
                </video>
              </media>
            </file>
            <sourcetrack>
              <mediatype>video</mediatype>
            </sourcetrack>
            <fielddominance>none</fielddominance>
          </clipitem>
          <clipitem id="F.png394">
            <name>F.png</name>
            <duration>1.88</duration>
            <rate>
              <ntsc>FALSE</ntsc>
              <timebase>25</timebase>
            </rate>
            <in>91404.38</in>
            <out>91406.266</out>
            <start>1404.38</start>
            <end>1406.26</end>
            <pixelaspectratio>Square</pixelaspectratio>
            <stillframe>TRUE</stillframe>
            <anamorphic>FALSE</anamorphic>
            <alphatype>straight</alphatype>
            <masterclipid>F.png394</masterclipid>
            <file id="F">
              <name>F.png</name>
              <pathurl>D:/Codes/SynthLip/SynthLipN/bin/Release/net6.0-windows8.0/publish/Skin/template/F.png</pathurl>
              <rate>
                <ntsc>FALSE</ntsc>
                <timebase>25</timebase>
              </rate>
              <duration>2</duration>
              <width>1920</width>
              <height>1080</height>
              <media>
                <video>
                  <duration>2</duration>
                  <stillframe>TRUE</stillframe>
                  <samplecharacteristics>
                    <rate>
                      <ntsc>FALSE</ntsc>
                      <timebase>25</timebase>
                    </rate>
                    <width>1920</width>
                    <height>1080</height>
                    <pixelaspectratio>Square</pixelaspectratio>
                    <anamorphic>FALSE</anamorphic>
                  </samplecharacteristics>
                </video>
              </media>
            </file>
            <sourcetrack>
              <mediatype>video</mediatype>
            </sourcetrack>
            <fielddominance>none</fielddominance>
          </clipitem>
          <clipitem id="F.png393">
            <name>F.png</name>
            <duration>1.41</duration>
            <rate>
              <ntsc>FALSE</ntsc>
              <timebase>25</timebase>
            </rate>
            <in>91402.97</in>
            <out>91404.375</out>
            <start>1402.97</start>
            <end>1404.38</end>
            <pixelaspectratio>Square</pixelaspectratio>
            <stillframe>TRUE</stillframe>
            <anamorphic>FALSE</anamorphic>
            <alphatype>straight</alphatype>
            <masterclipid>F.png393</masterclipid>
            <file id="F">
              <name>F.png</name>
              <pathurl>D:/Codes/SynthLip/SynthLipN/bin/Release/net6.0-windows8.0/publish/Skin/template/F.png</pathurl>
              <rate>
                <ntsc>FALSE</ntsc>
                <timebase>25</timebase>
              </rate>
              <duration>2</duration>
              <width>1920</width>
              <height>1080</height>
              <media>
                <video>
                  <duration>2</duration>
                  <stillframe>TRUE</stillframe>
                  <samplecharacteristics>
                    <rate>
                      <ntsc>FALSE</ntsc>
                      <timebase>25</timebase>
                    </rate>
                    <width>1920</width>
                    <height>1080</height>
                    <pixelaspectratio>Square</pixelaspectratio>
                    <anamorphic>FALSE</anamorphic>
                  </samplecharacteristics>
                </video>
              </media>
            </file>
            <sourcetrack>
              <mediatype>video</mediatype>
            </sourcetrack>
            <fielddominance>none</fielddominance>
          </clipitem>
          <clipitem id="B.png392">
            <name>B.png</name>
            <duration>0.47</duration>
            <rate>
              <ntsc>FALSE</ntsc>
              <timebase>25</timebase>
            </rate>
            <in>91402.5</in>
            <out>91402.97</out>
            <start>1402.5</start>
            <end>1402.97</end>
            <pixelaspectratio>Square</pixelaspectratio>
            <stillframe>TRUE</stillframe>
            <anamorphic>FALSE</anamorphic>
            <alphatype>straight</alphatype>
            <masterclipid>B.png392</masterclipid>
            <file id="B">
              <name>B.png</name>
              <pathurl>D:/Codes/SynthLip/SynthLipN/bin/Release/net6.0-windows8.0/publish/Skin/template/B.png</pathurl>
              <rate>
                <ntsc>FALSE</ntsc>
                <timebase>25</timebase>
              </rate>
              <duration>2</duration>
              <width>1920</width>
              <height>1080</height>
              <media>
                <video>
                  <duration>2</duration>
                  <stillframe>TRUE</stillframe>
                  <samplecharacteristics>
                    <rate>
                      <ntsc>FALSE</ntsc>
                      <timebase>25</timebase>
                    </rate>
                    <width>1920</width>
                    <height>1080</height>
                    <pixelaspectratio>Square</pixelaspectratio>
                    <anamorphic>FALSE</anamorphic>
                  </samplecharacteristics>
                </video>
              </media>
            </file>
            <sourcetrack>
              <mediatype>video</mediatype>
            </sourcetrack>
            <fielddominance>none</fielddominance>
          </clipitem>
          <clipitem id="B.png391">
            <name>B.png</name>
            <duration>6.09</duration>
            <rate>
              <ntsc>FALSE</ntsc>
              <timebase>25</timebase>
            </rate>
            <in>91396.41</in>
            <out>91402.5</out>
            <start>1396.41</start>
            <end>1402.5</end>
            <pixelaspectratio>Square</pixelaspectratio>
            <stillframe>TRUE</stillframe>
            <anamorphic>FALSE</anamorphic>
            <alphatype>straight</alphatype>
            <masterclipid>B.png391</masterclipid>
            <file id="B">
              <name>B.png</name>
              <pathurl>D:/Codes/SynthLip/SynthLipN/bin/Release/net6.0-windows8.0/publish/Skin/template/B.png</pathurl>
              <rate>
                <ntsc>FALSE</ntsc>
                <timebase>25</timebase>
              </rate>
              <duration>2</duration>
              <width>1920</width>
              <height>1080</height>
              <media>
                <video>
                  <duration>2</duration>
                  <stillframe>TRUE</stillframe>
                  <samplecharacteristics>
                    <rate>
                      <ntsc>FALSE</ntsc>
                      <timebase>25</timebase>
                    </rate>
                    <width>1920</width>
                    <height>1080</height>
                    <pixelaspectratio>Square</pixelaspectratio>
                    <anamorphic>FALSE</anamorphic>
                  </samplecharacteristics>
                </video>
              </media>
            </file>
            <sourcetrack>
              <mediatype>video</mediatype>
            </sourcetrack>
            <fielddominance>none</fielddominance>
          </clipitem>
          <clipitem id="B.png390">
            <name>B.png</name>
            <duration>0.47</duration>
            <rate>
              <ntsc>FALSE</ntsc>
              <timebase>25</timebase>
            </rate>
            <in>91395.94</in>
            <out>91396.41</out>
            <start>1395.94</start>
            <end>1396.4099</end>
            <pixelaspectratio>Square</pixelaspectratio>
            <stillframe>TRUE</stillframe>
            <anamorphic>FALSE</anamorphic>
            <alphatype>straight</alphatype>
            <masterclipid>B.png390</masterclipid>
            <file id="B">
              <name>B.png</name>
              <pathurl>D:/Codes/SynthLip/SynthLipN/bin/Release/net6.0-windows8.0/publish/Skin/template/B.png</pathurl>
              <rate>
                <ntsc>FALSE</ntsc>
                <timebase>25</timebase>
              </rate>
              <duration>2</duration>
              <width>1920</width>
              <height>1080</height>
              <media>
                <video>
                  <duration>2</duration>
                  <stillframe>TRUE</stillframe>
                  <samplecharacteristics>
                    <rate>
                      <ntsc>FALSE</ntsc>
                      <timebase>25</timebase>
                    </rate>
                    <width>1920</width>
                    <height>1080</height>
                    <pixelaspectratio>Square</pixelaspectratio>
                    <anamorphic>FALSE</anamorphic>
                  </samplecharacteristics>
                </video>
              </media>
            </file>
            <sourcetrack>
              <mediatype>video</mediatype>
            </sourcetrack>
            <fielddominance>none</fielddominance>
          </clipitem>
          <clipitem id="C.png389">
            <name>C.png</name>
            <duration>0.94</duration>
            <rate>
              <ntsc>FALSE</ntsc>
              <timebase>25</timebase>
            </rate>
            <in>91395</in>
            <out>91395.94</out>
            <start>1395</start>
            <end>1395.94</end>
            <pixelaspectratio>Square</pixelaspectratio>
            <stillframe>TRUE</stillframe>
            <anamorphic>FALSE</anamorphic>
            <alphatype>straight</alphatype>
            <masterclipid>C.png389</masterclipid>
            <file id="C">
              <name>C.png</name>
              <pathurl>D:/Codes/SynthLip/SynthLipN/bin/Release/net6.0-windows8.0/publish/Skin/template/C.png</pathurl>
              <rate>
                <ntsc>FALSE</ntsc>
                <timebase>25</timebase>
              </rate>
              <duration>2</duration>
              <width>1920</width>
              <height>1080</height>
              <media>
                <video>
                  <duration>2</duration>
                  <stillframe>TRUE</stillframe>
                  <samplecharacteristics>
                    <rate>
                      <ntsc>FALSE</ntsc>
                      <timebase>25</timebase>
                    </rate>
                    <width>1920</width>
                    <height>1080</height>
                    <pixelaspectratio>Square</pixelaspectratio>
                    <anamorphic>FALSE</anamorphic>
                  </samplecharacteristics>
                </video>
              </media>
            </file>
            <sourcetrack>
              <mediatype>video</mediatype>
            </sourcetrack>
            <fielddominance>none</fielddominance>
          </clipitem>
          <clipitem id="F.png388">
            <name>F.png</name>
            <duration>11.25</duration>
            <rate>
              <ntsc>FALSE</ntsc>
              <timebase>25</timebase>
            </rate>
            <in>91383.75</in>
            <out>91395</out>
            <start>1383.75</start>
            <end>1395</end>
            <pixelaspectratio>Square</pixelaspectratio>
            <stillframe>TRUE</stillframe>
            <anamorphic>FALSE</anamorphic>
            <alphatype>straight</alphatype>
            <masterclipid>F.png388</masterclipid>
            <file id="F">
              <name>F.png</name>
              <pathurl>D:/Codes/SynthLip/SynthLipN/bin/Release/net6.0-windows8.0/publish/Skin/template/F.png</pathurl>
              <rate>
                <ntsc>FALSE</ntsc>
                <timebase>25</timebase>
              </rate>
              <duration>2</duration>
              <width>1920</width>
              <height>1080</height>
              <media>
                <video>
                  <duration>2</duration>
                  <stillframe>TRUE</stillframe>
                  <samplecharacteristics>
                    <rate>
                      <ntsc>FALSE</ntsc>
                      <timebase>25</timebase>
                    </rate>
                    <width>1920</width>
                    <height>1080</height>
                    <pixelaspectratio>Square</pixelaspectratio>
                    <anamorphic>FALSE</anamorphic>
                  </samplecharacteristics>
                </video>
              </media>
            </file>
            <sourcetrack>
              <mediatype>video</mediatype>
            </sourcetrack>
            <fielddominance>none</fielddominance>
          </clipitem>
          <clipitem id="F.png387">
            <name>F.png</name>
            <duration>2.81</duration>
            <rate>
              <ntsc>FALSE</ntsc>
              <timebase>25</timebase>
            </rate>
            <in>91380.94</in>
            <out>91383.75</out>
            <start>1380.94</start>
            <end>1383.75</end>
            <pixelaspectratio>Square</pixelaspectratio>
            <stillframe>TRUE</stillframe>
            <anamorphic>FALSE</anamorphic>
            <alphatype>straight</alphatype>
            <masterclipid>F.png387</masterclipid>
            <file id="F">
              <name>F.png</name>
              <pathurl>D:/Codes/SynthLip/SynthLipN/bin/Release/net6.0-windows8.0/publish/Skin/template/F.png</pathurl>
              <rate>
                <ntsc>FALSE</ntsc>
                <timebase>25</timebase>
              </rate>
              <duration>2</duration>
              <width>1920</width>
              <height>1080</height>
              <media>
                <video>
                  <duration>2</duration>
                  <stillframe>TRUE</stillframe>
                  <samplecharacteristics>
                    <rate>
                      <ntsc>FALSE</ntsc>
                      <timebase>25</timebase>
                    </rate>
                    <width>1920</width>
                    <height>1080</height>
                    <pixelaspectratio>Square</pixelaspectratio>
                    <anamorphic>FALSE</anamorphic>
                  </samplecharacteristics>
                </video>
              </media>
            </file>
            <sourcetrack>
              <mediatype>video</mediatype>
            </sourcetrack>
            <fielddominance>none</fielddominance>
          </clipitem>
          <clipitem id="B.png386">
            <name>B.png</name>
            <duration>0.94</duration>
            <rate>
              <ntsc>FALSE</ntsc>
              <timebase>25</timebase>
            </rate>
            <in>91380</in>
            <out>91380.94</out>
            <start>1380</start>
            <end>1380.94</end>
            <pixelaspectratio>Square</pixelaspectratio>
            <stillframe>TRUE</stillframe>
            <anamorphic>FALSE</anamorphic>
            <alphatype>straight</alphatype>
            <masterclipid>B.png386</masterclipid>
            <file id="B">
              <name>B.png</name>
              <pathurl>D:/Codes/SynthLip/SynthLipN/bin/Release/net6.0-windows8.0/publish/Skin/template/B.png</pathurl>
              <rate>
                <ntsc>FALSE</ntsc>
                <timebase>25</timebase>
              </rate>
              <duration>2</duration>
              <width>1920</width>
              <height>1080</height>
              <media>
                <video>
                  <duration>2</duration>
                  <stillframe>TRUE</stillframe>
                  <samplecharacteristics>
                    <rate>
                      <ntsc>FALSE</ntsc>
                      <timebase>25</timebase>
                    </rate>
                    <width>1920</width>
                    <height>1080</height>
                    <pixelaspectratio>Square</pixelaspectratio>
                    <anamorphic>FALSE</anamorphic>
                  </samplecharacteristics>
                </video>
              </media>
            </file>
            <sourcetrack>
              <mediatype>video</mediatype>
            </sourcetrack>
            <fielddominance>none</fielddominance>
          </clipitem>
          <clipitem id="B.png385">
            <name>B.png</name>
            <duration>4.69</duration>
            <rate>
              <ntsc>FALSE</ntsc>
              <timebase>25</timebase>
            </rate>
            <in>91375.31</in>
            <out>91380</out>
            <start>1375.31</start>
            <end>1380</end>
            <pixelaspectratio>Square</pixelaspectratio>
            <stillframe>TRUE</stillframe>
            <anamorphic>FALSE</anamorphic>
            <alphatype>straight</alphatype>
            <masterclipid>B.png385</masterclipid>
            <file id="B">
              <name>B.png</name>
              <pathurl>D:/Codes/SynthLip/SynthLipN/bin/Release/net6.0-windows8.0/publish/Skin/template/B.png</pathurl>
              <rate>
                <ntsc>FALSE</ntsc>
                <timebase>25</timebase>
              </rate>
              <duration>2</duration>
              <width>1920</width>
              <height>1080</height>
              <media>
                <video>
                  <duration>2</duration>
                  <stillframe>TRUE</stillframe>
                  <samplecharacteristics>
                    <rate>
                      <ntsc>FALSE</ntsc>
                      <timebase>25</timebase>
                    </rate>
                    <width>1920</width>
                    <height>1080</height>
                    <pixelaspectratio>Square</pixelaspectratio>
                    <anamorphic>FALSE</anamorphic>
                  </samplecharacteristics>
                </video>
              </media>
            </file>
            <sourcetrack>
              <mediatype>video</mediatype>
            </sourcetrack>
            <fielddominance>none</fielddominance>
          </clipitem>
          <clipitem id="B.png384">
            <name>B.png</name>
            <duration>0.94</duration>
            <rate>
              <ntsc>FALSE</ntsc>
              <timebase>25</timebase>
            </rate>
            <in>91374.38</in>
            <out>91375.32</out>
            <start>1374.38</start>
            <end>1375.32</end>
            <pixelaspectratio>Square</pixelaspectratio>
            <stillframe>TRUE</stillframe>
            <anamorphic>FALSE</anamorphic>
            <alphatype>straight</alphatype>
            <masterclipid>B.png384</masterclipid>
            <file id="B">
              <name>B.png</name>
              <pathurl>D:/Codes/SynthLip/SynthLipN/bin/Release/net6.0-windows8.0/publish/Skin/template/B.png</pathurl>
              <rate>
                <ntsc>FALSE</ntsc>
                <timebase>25</timebase>
              </rate>
              <duration>2</duration>
              <width>1920</width>
              <height>1080</height>
              <media>
                <video>
                  <duration>2</duration>
                  <stillframe>TRUE</stillframe>
                  <samplecharacteristics>
                    <rate>
                      <ntsc>FALSE</ntsc>
                      <timebase>25</timebase>
                    </rate>
                    <width>1920</width>
                    <height>1080</height>
                    <pixelaspectratio>Square</pixelaspectratio>
                    <anamorphic>FALSE</anamorphic>
                  </samplecharacteristics>
                </video>
              </media>
            </file>
            <sourcetrack>
              <mediatype>video</mediatype>
            </sourcetrack>
            <fielddominance>none</fielddominance>
          </clipitem>
          <clipitem id="C.png383">
            <name>C.png</name>
            <duration>1.88</duration>
            <rate>
              <ntsc>FALSE</ntsc>
              <timebase>25</timebase>
            </rate>
            <in>91372.5</in>
            <out>91374.38</out>
            <start>1372.5</start>
            <end>1374.38</end>
            <pixelaspectratio>Square</pixelaspectratio>
            <stillframe>TRUE</stillframe>
            <anamorphic>FALSE</anamorphic>
            <alphatype>straight</alphatype>
            <masterclipid>C.png383</masterclipid>
            <file id="C">
              <name>C.png</name>
              <pathurl>D:/Codes/SynthLip/SynthLipN/bin/Release/net6.0-windows8.0/publish/Skin/template/C.png</pathurl>
              <rate>
                <ntsc>FALSE</ntsc>
                <timebase>25</timebase>
              </rate>
              <duration>2</duration>
              <width>1920</width>
              <height>1080</height>
              <media>
                <video>
                  <duration>2</duration>
                  <stillframe>TRUE</stillframe>
                  <samplecharacteristics>
                    <rate>
                      <ntsc>FALSE</ntsc>
                      <timebase>25</timebase>
                    </rate>
                    <width>1920</width>
                    <height>1080</height>
                    <pixelaspectratio>Square</pixelaspectratio>
                    <anamorphic>FALSE</anamorphic>
                  </samplecharacteristics>
                </video>
              </media>
            </file>
            <sourcetrack>
              <mediatype>video</mediatype>
            </sourcetrack>
            <fielddominance>none</fielddominance>
          </clipitem>
          <clipitem id="B.png382">
            <name>B.png</name>
            <duration>6.09</duration>
            <rate>
              <ntsc>FALSE</ntsc>
              <timebase>25</timebase>
            </rate>
            <in>91366.41</in>
            <out>91372.5</out>
            <start>1366.41</start>
            <end>1372.5</end>
            <pixelaspectratio>Square</pixelaspectratio>
            <stillframe>TRUE</stillframe>
            <anamorphic>FALSE</anamorphic>
            <alphatype>straight</alphatype>
            <masterclipid>B.png382</masterclipid>
            <file id="B">
              <name>B.png</name>
              <pathurl>D:/Codes/SynthLip/SynthLipN/bin/Release/net6.0-windows8.0/publish/Skin/template/B.png</pathurl>
              <rate>
                <ntsc>FALSE</ntsc>
                <timebase>25</timebase>
              </rate>
              <duration>2</duration>
              <width>1920</width>
              <height>1080</height>
              <media>
                <video>
                  <duration>2</duration>
                  <stillframe>TRUE</stillframe>
                  <samplecharacteristics>
                    <rate>
                      <ntsc>FALSE</ntsc>
                      <timebase>25</timebase>
                    </rate>
                    <width>1920</width>
                    <height>1080</height>
                    <pixelaspectratio>Square</pixelaspectratio>
                    <anamorphic>FALSE</anamorphic>
                  </samplecharacteristics>
                </video>
              </media>
            </file>
            <sourcetrack>
              <mediatype>video</mediatype>
            </sourcetrack>
            <fielddominance>none</fielddominance>
          </clipitem>
          <clipitem id="B.png381">
            <name>B.png</name>
            <duration>0.47</duration>
            <rate>
              <ntsc>FALSE</ntsc>
              <timebase>25</timebase>
            </rate>
            <in>91365.94</in>
            <out>91366.41</out>
            <start>1365.94</start>
            <end>1366.4099</end>
            <pixelaspectratio>Square</pixelaspectratio>
            <stillframe>TRUE</stillframe>
            <anamorphic>FALSE</anamorphic>
            <alphatype>straight</alphatype>
            <masterclipid>B.png381</masterclipid>
            <file id="B">
              <name>B.png</name>
              <pathurl>D:/Codes/SynthLip/SynthLipN/bin/Release/net6.0-windows8.0/publish/Skin/template/B.png</pathurl>
              <rate>
                <ntsc>FALSE</ntsc>
                <timebase>25</timebase>
              </rate>
              <duration>2</duration>
              <width>1920</width>
              <height>1080</height>
              <media>
                <video>
                  <duration>2</duration>
                  <stillframe>TRUE</stillframe>
                  <samplecharacteristics>
                    <rate>
                      <ntsc>FALSE</ntsc>
                      <timebase>25</timebase>
                    </rate>
                    <width>1920</width>
                    <height>1080</height>
                    <pixelaspectratio>Square</pixelaspectratio>
                    <anamorphic>FALSE</anamorphic>
                  </samplecharacteristics>
                </video>
              </media>
            </file>
            <sourcetrack>
              <mediatype>video</mediatype>
            </sourcetrack>
            <fielddominance>none</fielddominance>
          </clipitem>
          <clipitem id="C.png380">
            <name>C.png</name>
            <duration>0.94</duration>
            <rate>
              <ntsc>FALSE</ntsc>
              <timebase>25</timebase>
            </rate>
            <in>91365</in>
            <out>91365.94</out>
            <start>1365</start>
            <end>1365.94</end>
            <pixelaspectratio>Square</pixelaspectratio>
            <stillframe>TRUE</stillframe>
            <anamorphic>FALSE</anamorphic>
            <alphatype>straight</alphatype>
            <masterclipid>C.png380</masterclipid>
            <file id="C">
              <name>C.png</name>
              <pathurl>D:/Codes/SynthLip/SynthLipN/bin/Release/net6.0-windows8.0/publish/Skin/template/C.png</pathurl>
              <rate>
                <ntsc>FALSE</ntsc>
                <timebase>25</timebase>
              </rate>
              <duration>2</duration>
              <width>1920</width>
              <height>1080</height>
              <media>
                <video>
                  <duration>2</duration>
                  <stillframe>TRUE</stillframe>
                  <samplecharacteristics>
                    <rate>
                      <ntsc>FALSE</ntsc>
                      <timebase>25</timebase>
                    </rate>
                    <width>1920</width>
                    <height>1080</height>
                    <pixelaspectratio>Square</pixelaspectratio>
                    <anamorphic>FALSE</anamorphic>
                  </samplecharacteristics>
                </video>
              </media>
            </file>
            <sourcetrack>
              <mediatype>video</mediatype>
            </sourcetrack>
            <fielddominance>none</fielddominance>
          </clipitem>
          <clipitem id="F.png379">
            <name>F.png</name>
            <duration>6.56</duration>
            <rate>
              <ntsc>FALSE</ntsc>
              <timebase>25</timebase>
            </rate>
            <in>91358.44</in>
            <out>91365</out>
            <start>1358.44</start>
            <end>1365</end>
            <pixelaspectratio>Square</pixelaspectratio>
            <stillframe>TRUE</stillframe>
            <anamorphic>FALSE</anamorphic>
            <alphatype>straight</alphatype>
            <masterclipid>F.png379</masterclipid>
            <file id="F">
              <name>F.png</name>
              <pathurl>D:/Codes/SynthLip/SynthLipN/bin/Release/net6.0-windows8.0/publish/Skin/template/F.png</pathurl>
              <rate>
                <ntsc>FALSE</ntsc>
                <timebase>25</timebase>
              </rate>
              <duration>2</duration>
              <width>1920</width>
              <height>1080</height>
              <media>
                <video>
                  <duration>2</duration>
                  <stillframe>TRUE</stillframe>
                  <samplecharacteristics>
                    <rate>
                      <ntsc>FALSE</ntsc>
                      <timebase>25</timebase>
                    </rate>
                    <width>1920</width>
                    <height>1080</height>
                    <pixelaspectratio>Square</pixelaspectratio>
                    <anamorphic>FALSE</anamorphic>
                  </samplecharacteristics>
                </video>
              </media>
            </file>
            <sourcetrack>
              <mediatype>video</mediatype>
            </sourcetrack>
            <fielddominance>none</fielddominance>
          </clipitem>
          <clipitem id="B.png378">
            <name>B.png</name>
            <duration>2.81</duration>
            <rate>
              <ntsc>FALSE</ntsc>
              <timebase>25</timebase>
            </rate>
            <in>91355.63</in>
            <out>91358.445</out>
            <start>1355.63</start>
            <end>1358.4401</end>
            <pixelaspectratio>Square</pixelaspectratio>
            <stillframe>TRUE</stillframe>
            <anamorphic>FALSE</anamorphic>
            <alphatype>straight</alphatype>
            <masterclipid>B.png378</masterclipid>
            <file id="B">
              <name>B.png</name>
              <pathurl>D:/Codes/SynthLip/SynthLipN/bin/Release/net6.0-windows8.0/publish/Skin/template/B.png</pathurl>
              <rate>
                <ntsc>FALSE</ntsc>
                <timebase>25</timebase>
              </rate>
              <duration>2</duration>
              <width>1920</width>
              <height>1080</height>
              <media>
                <video>
                  <duration>2</duration>
                  <stillframe>TRUE</stillframe>
                  <samplecharacteristics>
                    <rate>
                      <ntsc>FALSE</ntsc>
                      <timebase>25</timebase>
                    </rate>
                    <width>1920</width>
                    <height>1080</height>
                    <pixelaspectratio>Square</pixelaspectratio>
                    <anamorphic>FALSE</anamorphic>
                  </samplecharacteristics>
                </video>
              </media>
            </file>
            <sourcetrack>
              <mediatype>video</mediatype>
            </sourcetrack>
            <fielddominance>none</fielddominance>
          </clipitem>
          <clipitem id="B.png377">
            <name>B.png</name>
            <duration>1.87</duration>
            <rate>
              <ntsc>FALSE</ntsc>
              <timebase>25</timebase>
            </rate>
            <in>91353.75</in>
            <out>91355.62</out>
            <start>1353.75</start>
            <end>1355.62</end>
            <pixelaspectratio>Square</pixelaspectratio>
            <stillframe>TRUE</stillframe>
            <anamorphic>FALSE</anamorphic>
            <alphatype>straight</alphatype>
            <masterclipid>B.png377</masterclipid>
            <file id="B">
              <name>B.png</name>
              <pathurl>D:/Codes/SynthLip/SynthLipN/bin/Release/net6.0-windows8.0/publish/Skin/template/B.png</pathurl>
              <rate>
                <ntsc>FALSE</ntsc>
                <timebase>25</timebase>
              </rate>
              <duration>2</duration>
              <width>1920</width>
              <height>1080</height>
              <media>
                <video>
                  <duration>2</duration>
                  <stillframe>TRUE</stillframe>
                  <samplecharacteristics>
                    <rate>
                      <ntsc>FALSE</ntsc>
                      <timebase>25</timebase>
                    </rate>
                    <width>1920</width>
                    <height>1080</height>
                    <pixelaspectratio>Square</pixelaspectratio>
                    <anamorphic>FALSE</anamorphic>
                  </samplecharacteristics>
                </video>
              </media>
            </file>
            <sourcetrack>
              <mediatype>video</mediatype>
            </sourcetrack>
            <fielddominance>none</fielddominance>
          </clipitem>
          <clipitem id="F.png376">
            <name>F.png</name>
            <duration>5.63</duration>
            <rate>
              <ntsc>FALSE</ntsc>
              <timebase>25</timebase>
            </rate>
            <in>91348.13</in>
            <out>91353.766</out>
            <start>1348.13</start>
            <end>1353.76</end>
            <pixelaspectratio>Square</pixelaspectratio>
            <stillframe>TRUE</stillframe>
            <anamorphic>FALSE</anamorphic>
            <alphatype>straight</alphatype>
            <masterclipid>F.png376</masterclipid>
            <file id="F">
              <name>F.png</name>
              <pathurl>D:/Codes/SynthLip/SynthLipN/bin/Release/net6.0-windows8.0/publish/Skin/template/F.png</pathurl>
              <rate>
                <ntsc>FALSE</ntsc>
                <timebase>25</timebase>
              </rate>
              <duration>2</duration>
              <width>1920</width>
              <height>1080</height>
              <media>
                <video>
                  <duration>2</duration>
                  <stillframe>TRUE</stillframe>
                  <samplecharacteristics>
                    <rate>
                      <ntsc>FALSE</ntsc>
                      <timebase>25</timebase>
                    </rate>
                    <width>1920</width>
                    <height>1080</height>
                    <pixelaspectratio>Square</pixelaspectratio>
                    <anamorphic>FALSE</anamorphic>
                  </samplecharacteristics>
                </video>
              </media>
            </file>
            <sourcetrack>
              <mediatype>video</mediatype>
            </sourcetrack>
            <fielddominance>none</fielddominance>
          </clipitem>
          <clipitem id="F.png375">
            <name>F.png</name>
            <duration>1.72</duration>
            <rate>
              <ntsc>FALSE</ntsc>
              <timebase>25</timebase>
            </rate>
            <in>91346.41</in>
            <out>91348.125</out>
            <start>1346.41</start>
            <end>1348.13</end>
            <pixelaspectratio>Square</pixelaspectratio>
            <stillframe>TRUE</stillframe>
            <anamorphic>FALSE</anamorphic>
            <alphatype>straight</alphatype>
            <masterclipid>F.png375</masterclipid>
            <file id="F">
              <name>F.png</name>
              <pathurl>D:/Codes/SynthLip/SynthLipN/bin/Release/net6.0-windows8.0/publish/Skin/template/F.png</pathurl>
              <rate>
                <ntsc>FALSE</ntsc>
                <timebase>25</timebase>
              </rate>
              <duration>2</duration>
              <width>1920</width>
              <height>1080</height>
              <media>
                <video>
                  <duration>2</duration>
                  <stillframe>TRUE</stillframe>
                  <samplecharacteristics>
                    <rate>
                      <ntsc>FALSE</ntsc>
                      <timebase>25</timebase>
                    </rate>
                    <width>1920</width>
                    <height>1080</height>
                    <pixelaspectratio>Square</pixelaspectratio>
                    <anamorphic>FALSE</anamorphic>
                  </samplecharacteristics>
                </video>
              </media>
            </file>
            <sourcetrack>
              <mediatype>video</mediatype>
            </sourcetrack>
            <fielddominance>none</fielddominance>
          </clipitem>
          <clipitem id="B.png374">
            <name>B.png</name>
            <duration>0.78</duration>
            <rate>
              <ntsc>FALSE</ntsc>
              <timebase>25</timebase>
            </rate>
            <in>91345.62</in>
            <out>91346.4</out>
            <start>1345.62</start>
            <end>1346.4</end>
            <pixelaspectratio>Square</pixelaspectratio>
            <stillframe>TRUE</stillframe>
            <anamorphic>FALSE</anamorphic>
            <alphatype>straight</alphatype>
            <masterclipid>B.png374</masterclipid>
            <file id="B">
              <name>B.png</name>
              <pathurl>D:/Codes/SynthLip/SynthLipN/bin/Release/net6.0-windows8.0/publish/Skin/template/B.png</pathurl>
              <rate>
                <ntsc>FALSE</ntsc>
                <timebase>25</timebase>
              </rate>
              <duration>2</duration>
              <width>1920</width>
              <height>1080</height>
              <media>
                <video>
                  <duration>2</duration>
                  <stillframe>TRUE</stillframe>
                  <samplecharacteristics>
                    <rate>
                      <ntsc>FALSE</ntsc>
                      <timebase>25</timebase>
                    </rate>
                    <width>1920</width>
                    <height>1080</height>
                    <pixelaspectratio>Square</pixelaspectratio>
                    <anamorphic>FALSE</anamorphic>
                  </samplecharacteristics>
                </video>
              </media>
            </file>
            <sourcetrack>
              <mediatype>video</mediatype>
            </sourcetrack>
            <fielddominance>none</fielddominance>
          </clipitem>
          <clipitem id="B.png373">
            <name>B.png</name>
            <duration>0.62</duration>
            <rate>
              <ntsc>FALSE</ntsc>
              <timebase>25</timebase>
            </rate>
            <in>91345</in>
            <out>91345.62</out>
            <start>1345</start>
            <end>1345.62</end>
            <pixelaspectratio>Square</pixelaspectratio>
            <stillframe>TRUE</stillframe>
            <anamorphic>FALSE</anamorphic>
            <alphatype>straight</alphatype>
            <masterclipid>B.png373</masterclipid>
            <file id="B">
              <name>B.png</name>
              <pathurl>D:/Codes/SynthLip/SynthLipN/bin/Release/net6.0-windows8.0/publish/Skin/template/B.png</pathurl>
              <rate>
                <ntsc>FALSE</ntsc>
                <timebase>25</timebase>
              </rate>
              <duration>2</duration>
              <width>1920</width>
              <height>1080</height>
              <media>
                <video>
                  <duration>2</duration>
                  <stillframe>TRUE</stillframe>
                  <samplecharacteristics>
                    <rate>
                      <ntsc>FALSE</ntsc>
                      <timebase>25</timebase>
                    </rate>
                    <width>1920</width>
                    <height>1080</height>
                    <pixelaspectratio>Square</pixelaspectratio>
                    <anamorphic>FALSE</anamorphic>
                  </samplecharacteristics>
                </video>
              </media>
            </file>
            <sourcetrack>
              <mediatype>video</mediatype>
            </sourcetrack>
            <fielddominance>none</fielddominance>
          </clipitem>
          <clipitem id="C.png372">
            <name>C.png</name>
            <duration>1.88</duration>
            <rate>
              <ntsc>FALSE</ntsc>
              <timebase>25</timebase>
            </rate>
            <in>91343.13</in>
            <out>91345.016</out>
            <start>1343.13</start>
            <end>1345.01</end>
            <pixelaspectratio>Square</pixelaspectratio>
            <stillframe>TRUE</stillframe>
            <anamorphic>FALSE</anamorphic>
            <alphatype>straight</alphatype>
            <masterclipid>C.png372</masterclipid>
            <file id="C">
              <name>C.png</name>
              <pathurl>D:/Codes/SynthLip/SynthLipN/bin/Release/net6.0-windows8.0/publish/Skin/template/C.png</pathurl>
              <rate>
                <ntsc>FALSE</ntsc>
                <timebase>25</timebase>
              </rate>
              <duration>2</duration>
              <width>1920</width>
              <height>1080</height>
              <media>
                <video>
                  <duration>2</duration>
                  <stillframe>TRUE</stillframe>
                  <samplecharacteristics>
                    <rate>
                      <ntsc>FALSE</ntsc>
                      <timebase>25</timebase>
                    </rate>
                    <width>1920</width>
                    <height>1080</height>
                    <pixelaspectratio>Square</pixelaspectratio>
                    <anamorphic>FALSE</anamorphic>
                  </samplecharacteristics>
                </video>
              </media>
            </file>
            <sourcetrack>
              <mediatype>video</mediatype>
            </sourcetrack>
            <fielddominance>none</fielddominance>
          </clipitem>
          <clipitem id="B.png371">
            <name>B.png</name>
            <duration>0.62</duration>
            <rate>
              <ntsc>FALSE</ntsc>
              <timebase>25</timebase>
            </rate>
            <in>91342.5</in>
            <out>91343.12</out>
            <start>1342.5</start>
            <end>1343.12</end>
            <pixelaspectratio>Square</pixelaspectratio>
            <stillframe>TRUE</stillframe>
            <anamorphic>FALSE</anamorphic>
            <alphatype>straight</alphatype>
            <masterclipid>B.png371</masterclipid>
            <file id="B">
              <name>B.png</name>
              <pathurl>D:/Codes/SynthLip/SynthLipN/bin/Release/net6.0-windows8.0/publish/Skin/template/B.png</pathurl>
              <rate>
                <ntsc>FALSE</ntsc>
                <timebase>25</timebase>
              </rate>
              <duration>2</duration>
              <width>1920</width>
              <height>1080</height>
              <media>
                <video>
                  <duration>2</duration>
                  <stillframe>TRUE</stillframe>
                  <samplecharacteristics>
                    <rate>
                      <ntsc>FALSE</ntsc>
                      <timebase>25</timebase>
                    </rate>
                    <width>1920</width>
                    <height>1080</height>
                    <pixelaspectratio>Square</pixelaspectratio>
                    <anamorphic>FALSE</anamorphic>
                  </samplecharacteristics>
                </video>
              </media>
            </file>
            <sourcetrack>
              <mediatype>video</mediatype>
            </sourcetrack>
            <fielddominance>none</fielddominance>
          </clipitem>
          <clipitem id="A.png370">
            <name>A.png</name>
            <duration>11.02</duration>
            <rate>
              <ntsc>FALSE</ntsc>
              <timebase>25</timebase>
            </rate>
            <in>91331.48</in>
            <out>91342.5</out>
            <start>1331.48</start>
            <end>1342.5</end>
            <pixelaspectratio>Square</pixelaspectratio>
            <stillframe>TRUE</stillframe>
            <anamorphic>FALSE</anamorphic>
            <alphatype>straight</alphatype>
            <masterclipid>A.png370</masterclipid>
            <file id="A">
              <name>A.png</name>
              <pathurl>D:/Codes/SynthLip/SynthLipN/bin/Release/net6.0-windows8.0/publish/Skin/template/A.png</pathurl>
              <rate>
                <ntsc>FALSE</ntsc>
                <timebase>25</timebase>
              </rate>
              <duration>2</duration>
              <width>1920</width>
              <height>1080</height>
              <media>
                <video>
                  <duration>2</duration>
                  <stillframe>TRUE</stillframe>
                  <samplecharacteristics>
                    <rate>
                      <ntsc>FALSE</ntsc>
                      <timebase>25</timebase>
                    </rate>
                    <width>1920</width>
                    <height>1080</height>
                    <pixelaspectratio>Square</pixelaspectratio>
                    <anamorphic>FALSE</anamorphic>
                  </samplecharacteristics>
                </video>
              </media>
            </file>
            <sourcetrack>
              <mediatype>video</mediatype>
            </sourcetrack>
            <fielddominance>none</fielddominance>
          </clipitem>
          <clipitem id="B.png369">
            <name>B.png</name>
            <duration>3.52</duration>
            <rate>
              <ntsc>FALSE</ntsc>
              <timebase>25</timebase>
            </rate>
            <in>91327.97</in>
            <out>91331.49</out>
            <start>1327.97</start>
            <end>1331.49</end>
            <pixelaspectratio>Square</pixelaspectratio>
            <stillframe>TRUE</stillframe>
            <anamorphic>FALSE</anamorphic>
            <alphatype>straight</alphatype>
            <masterclipid>B.png369</masterclipid>
            <file id="B">
              <name>B.png</name>
              <pathurl>D:/Codes/SynthLip/SynthLipN/bin/Release/net6.0-windows8.0/publish/Skin/template/B.png</pathurl>
              <rate>
                <ntsc>FALSE</ntsc>
                <timebase>25</timebase>
              </rate>
              <duration>2</duration>
              <width>1920</width>
              <height>1080</height>
              <media>
                <video>
                  <duration>2</duration>
                  <stillframe>TRUE</stillframe>
                  <samplecharacteristics>
                    <rate>
                      <ntsc>FALSE</ntsc>
                      <timebase>25</timebase>
                    </rate>
                    <width>1920</width>
                    <height>1080</height>
                    <pixelaspectratio>Square</pixelaspectratio>
                    <anamorphic>FALSE</anamorphic>
                  </samplecharacteristics>
                </video>
              </media>
            </file>
            <sourcetrack>
              <mediatype>video</mediatype>
            </sourcetrack>
            <fielddominance>none</fielddominance>
          </clipitem>
          <clipitem id="F.png368">
            <name>F.png</name>
            <duration>2.34</duration>
            <rate>
              <ntsc>FALSE</ntsc>
              <timebase>25</timebase>
            </rate>
            <in>91325.63</in>
            <out>91327.98</out>
            <start>1325.63</start>
            <end>1327.97</end>
            <pixelaspectratio>Square</pixelaspectratio>
            <stillframe>TRUE</stillframe>
            <anamorphic>FALSE</anamorphic>
            <alphatype>straight</alphatype>
            <masterclipid>F.png368</masterclipid>
            <file id="F">
              <name>F.png</name>
              <pathurl>D:/Codes/SynthLip/SynthLipN/bin/Release/net6.0-windows8.0/publish/Skin/template/F.png</pathurl>
              <rate>
                <ntsc>FALSE</ntsc>
                <timebase>25</timebase>
              </rate>
              <duration>2</duration>
              <width>1920</width>
              <height>1080</height>
              <media>
                <video>
                  <duration>2</duration>
                  <stillframe>TRUE</stillframe>
                  <samplecharacteristics>
                    <rate>
                      <ntsc>FALSE</ntsc>
                      <timebase>25</timebase>
                    </rate>
                    <width>1920</width>
                    <height>1080</height>
                    <pixelaspectratio>Square</pixelaspectratio>
                    <anamorphic>FALSE</anamorphic>
                  </samplecharacteristics>
                </video>
              </media>
            </file>
            <sourcetrack>
              <mediatype>video</mediatype>
            </sourcetrack>
            <fielddominance>none</fielddominance>
          </clipitem>
          <clipitem id="F.png367">
            <name>F.png</name>
            <duration>8.44</duration>
            <rate>
              <ntsc>FALSE</ntsc>
              <timebase>25</timebase>
            </rate>
            <in>91317.19</in>
            <out>91325.625</out>
            <start>1317.19</start>
            <end>1325.6299</end>
            <pixelaspectratio>Square</pixelaspectratio>
            <stillframe>TRUE</stillframe>
            <anamorphic>FALSE</anamorphic>
            <alphatype>straight</alphatype>
            <masterclipid>F.png367</masterclipid>
            <file id="F">
              <name>F.png</name>
              <pathurl>D:/Codes/SynthLip/SynthLipN/bin/Release/net6.0-windows8.0/publish/Skin/template/F.png</pathurl>
              <rate>
                <ntsc>FALSE</ntsc>
                <timebase>25</timebase>
              </rate>
              <duration>2</duration>
              <width>1920</width>
              <height>1080</height>
              <media>
                <video>
                  <duration>2</duration>
                  <stillframe>TRUE</stillframe>
                  <samplecharacteristics>
                    <rate>
                      <ntsc>FALSE</ntsc>
                      <timebase>25</timebase>
                    </rate>
                    <width>1920</width>
                    <height>1080</height>
                    <pixelaspectratio>Square</pixelaspectratio>
                    <anamorphic>FALSE</anamorphic>
                  </samplecharacteristics>
                </video>
              </media>
            </file>
            <sourcetrack>
              <mediatype>video</mediatype>
            </sourcetrack>
            <fielddominance>none</fielddominance>
          </clipitem>
          <clipitem id="B.png366">
            <name>B.png</name>
            <duration>3.75</duration>
            <rate>
              <ntsc>FALSE</ntsc>
              <timebase>25</timebase>
            </rate>
            <in>91313.44</in>
            <out>91317.19</out>
            <start>1313.44</start>
            <end>1317.19</end>
            <pixelaspectratio>Square</pixelaspectratio>
            <stillframe>TRUE</stillframe>
            <anamorphic>FALSE</anamorphic>
            <alphatype>straight</alphatype>
            <masterclipid>B.png366</masterclipid>
            <file id="B">
              <name>B.png</name>
              <pathurl>D:/Codes/SynthLip/SynthLipN/bin/Release/net6.0-windows8.0/publish/Skin/template/B.png</pathurl>
              <rate>
                <ntsc>FALSE</ntsc>
                <timebase>25</timebase>
              </rate>
              <duration>2</duration>
              <width>1920</width>
              <height>1080</height>
              <media>
                <video>
                  <duration>2</duration>
                  <stillframe>TRUE</stillframe>
                  <samplecharacteristics>
                    <rate>
                      <ntsc>FALSE</ntsc>
                      <timebase>25</timebase>
                    </rate>
                    <width>1920</width>
                    <height>1080</height>
                    <pixelaspectratio>Square</pixelaspectratio>
                    <anamorphic>FALSE</anamorphic>
                  </samplecharacteristics>
                </video>
              </media>
            </file>
            <sourcetrack>
              <mediatype>video</mediatype>
            </sourcetrack>
            <fielddominance>none</fielddominance>
          </clipitem>
          <clipitem id="G.png365">
            <name>G.png</name>
            <duration>2.81</duration>
            <rate>
              <ntsc>FALSE</ntsc>
              <timebase>25</timebase>
            </rate>
            <in>91310.63</in>
            <out>91313.445</out>
            <start>1310.63</start>
            <end>1313.4401</end>
            <pixelaspectratio>Square</pixelaspectratio>
            <stillframe>TRUE</stillframe>
            <anamorphic>FALSE</anamorphic>
            <alphatype>straight</alphatype>
            <masterclipid>G.png365</masterclipid>
            <file id="G">
              <name>G.png</name>
              <pathurl>D:/Codes/SynthLip/SynthLipN/bin/Release/net6.0-windows8.0/publish/Skin/template/G.png</pathurl>
              <rate>
                <ntsc>FALSE</ntsc>
                <timebase>25</timebase>
              </rate>
              <duration>2</duration>
              <width>1920</width>
              <height>1080</height>
              <media>
                <video>
                  <duration>2</duration>
                  <stillframe>TRUE</stillframe>
                  <samplecharacteristics>
                    <rate>
                      <ntsc>FALSE</ntsc>
                      <timebase>25</timebase>
                    </rate>
                    <width>1920</width>
                    <height>1080</height>
                    <pixelaspectratio>Square</pixelaspectratio>
                    <anamorphic>FALSE</anamorphic>
                  </samplecharacteristics>
                </video>
              </media>
            </file>
            <sourcetrack>
              <mediatype>video</mediatype>
            </sourcetrack>
            <fielddominance>none</fielddominance>
          </clipitem>
          <clipitem id="D.png364">
            <name>D.png</name>
            <duration>5.62</duration>
            <rate>
              <ntsc>FALSE</ntsc>
              <timebase>25</timebase>
            </rate>
            <in>91305</in>
            <out>91310.62</out>
            <start>1305</start>
            <end>1310.62</end>
            <pixelaspectratio>Square</pixelaspectratio>
            <stillframe>TRUE</stillframe>
            <anamorphic>FALSE</anamorphic>
            <alphatype>straight</alphatype>
            <masterclipid>D.png364</masterclipid>
            <file id="D">
              <name>D.png</name>
              <pathurl>D:/Codes/SynthLip/SynthLipN/bin/Release/net6.0-windows8.0/publish/Skin/template/D.png</pathurl>
              <rate>
                <ntsc>FALSE</ntsc>
                <timebase>25</timebase>
              </rate>
              <duration>2</duration>
              <width>1920</width>
              <height>1080</height>
              <media>
                <video>
                  <duration>2</duration>
                  <stillframe>TRUE</stillframe>
                  <samplecharacteristics>
                    <rate>
                      <ntsc>FALSE</ntsc>
                      <timebase>25</timebase>
                    </rate>
                    <width>1920</width>
                    <height>1080</height>
                    <pixelaspectratio>Square</pixelaspectratio>
                    <anamorphic>FALSE</anamorphic>
                  </samplecharacteristics>
                </video>
              </media>
            </file>
            <sourcetrack>
              <mediatype>video</mediatype>
            </sourcetrack>
            <fielddominance>none</fielddominance>
          </clipitem>
          <clipitem id="C.png363">
            <name>C.png</name>
            <duration>3.75</duration>
            <rate>
              <ntsc>FALSE</ntsc>
              <timebase>25</timebase>
            </rate>
            <in>91301.25</in>
            <out>91305</out>
            <start>1301.25</start>
            <end>1305</end>
            <pixelaspectratio>Square</pixelaspectratio>
            <stillframe>TRUE</stillframe>
            <anamorphic>FALSE</anamorphic>
            <alphatype>straight</alphatype>
            <masterclipid>C.png363</masterclipid>
            <file id="C">
              <name>C.png</name>
              <pathurl>D:/Codes/SynthLip/SynthLipN/bin/Release/net6.0-windows8.0/publish/Skin/template/C.png</pathurl>
              <rate>
                <ntsc>FALSE</ntsc>
                <timebase>25</timebase>
              </rate>
              <duration>2</duration>
              <width>1920</width>
              <height>1080</height>
              <media>
                <video>
                  <duration>2</duration>
                  <stillframe>TRUE</stillframe>
                  <samplecharacteristics>
                    <rate>
                      <ntsc>FALSE</ntsc>
                      <timebase>25</timebase>
                    </rate>
                    <width>1920</width>
                    <height>1080</height>
                    <pixelaspectratio>Square</pixelaspectratio>
                    <anamorphic>FALSE</anamorphic>
                  </samplecharacteristics>
                </video>
              </media>
            </file>
            <sourcetrack>
              <mediatype>video</mediatype>
            </sourcetrack>
            <fielddominance>none</fielddominance>
          </clipitem>
          <clipitem id="C.png362">
            <name>C.png</name>
            <duration>9.69</duration>
            <rate>
              <ntsc>FALSE</ntsc>
              <timebase>25</timebase>
            </rate>
            <in>91291.56</in>
            <out>91301.25</out>
            <start>1291.56</start>
            <end>1301.25</end>
            <pixelaspectratio>Square</pixelaspectratio>
            <stillframe>TRUE</stillframe>
            <anamorphic>FALSE</anamorphic>
            <alphatype>straight</alphatype>
            <masterclipid>C.png362</masterclipid>
            <file id="C">
              <name>C.png</name>
              <pathurl>D:/Codes/SynthLip/SynthLipN/bin/Release/net6.0-windows8.0/publish/Skin/template/C.png</pathurl>
              <rate>
                <ntsc>FALSE</ntsc>
                <timebase>25</timebase>
              </rate>
              <duration>2</duration>
              <width>1920</width>
              <height>1080</height>
              <media>
                <video>
                  <duration>2</duration>
                  <stillframe>TRUE</stillframe>
                  <samplecharacteristics>
                    <rate>
                      <ntsc>FALSE</ntsc>
                      <timebase>25</timebase>
                    </rate>
                    <width>1920</width>
                    <height>1080</height>
                    <pixelaspectratio>Square</pixelaspectratio>
                    <anamorphic>FALSE</anamorphic>
                  </samplecharacteristics>
                </video>
              </media>
            </file>
            <sourcetrack>
              <mediatype>video</mediatype>
            </sourcetrack>
            <fielddominance>none</fielddominance>
          </clipitem>
          <clipitem id="C.png361">
            <name>C.png</name>
            <duration>0.31</duration>
            <rate>
              <ntsc>FALSE</ntsc>
              <timebase>25</timebase>
            </rate>
            <in>91291.25</in>
            <out>91291.56</out>
            <start>1291.25</start>
            <end>1291.56</end>
            <pixelaspectratio>Square</pixelaspectratio>
            <stillframe>TRUE</stillframe>
            <anamorphic>FALSE</anamorphic>
            <alphatype>straight</alphatype>
            <masterclipid>C.png361</masterclipid>
            <file id="C">
              <name>C.png</name>
              <pathurl>D:/Codes/SynthLip/SynthLipN/bin/Release/net6.0-windows8.0/publish/Skin/template/C.png</pathurl>
              <rate>
                <ntsc>FALSE</ntsc>
                <timebase>25</timebase>
              </rate>
              <duration>2</duration>
              <width>1920</width>
              <height>1080</height>
              <media>
                <video>
                  <duration>2</duration>
                  <stillframe>TRUE</stillframe>
                  <samplecharacteristics>
                    <rate>
                      <ntsc>FALSE</ntsc>
                      <timebase>25</timebase>
                    </rate>
                    <width>1920</width>
                    <height>1080</height>
                    <pixelaspectratio>Square</pixelaspectratio>
                    <anamorphic>FALSE</anamorphic>
                  </samplecharacteristics>
                </video>
              </media>
            </file>
            <sourcetrack>
              <mediatype>video</mediatype>
            </sourcetrack>
            <fielddominance>none</fielddominance>
          </clipitem>
          <clipitem id="C.png360">
            <name>C.png</name>
            <duration>1.56</duration>
            <rate>
              <ntsc>FALSE</ntsc>
              <timebase>25</timebase>
            </rate>
            <in>91289.69</in>
            <out>91291.25</out>
            <start>1289.69</start>
            <end>1291.25</end>
            <pixelaspectratio>Square</pixelaspectratio>
            <stillframe>TRUE</stillframe>
            <anamorphic>FALSE</anamorphic>
            <alphatype>straight</alphatype>
            <masterclipid>C.png360</masterclipid>
            <file id="C">
              <name>C.png</name>
              <pathurl>D:/Codes/SynthLip/SynthLipN/bin/Release/net6.0-windows8.0/publish/Skin/template/C.png</pathurl>
              <rate>
                <ntsc>FALSE</ntsc>
                <timebase>25</timebase>
              </rate>
              <duration>2</duration>
              <width>1920</width>
              <height>1080</height>
              <media>
                <video>
                  <duration>2</duration>
                  <stillframe>TRUE</stillframe>
                  <samplecharacteristics>
                    <rate>
                      <ntsc>FALSE</ntsc>
                      <timebase>25</timebase>
                    </rate>
                    <width>1920</width>
                    <height>1080</height>
                    <pixelaspectratio>Square</pixelaspectratio>
                    <anamorphic>FALSE</anamorphic>
                  </samplecharacteristics>
                </video>
              </media>
            </file>
            <sourcetrack>
              <mediatype>video</mediatype>
            </sourcetrack>
            <fielddominance>none</fielddominance>
          </clipitem>
          <clipitem id="G.png359">
            <name>G.png</name>
            <duration>0.94</duration>
            <rate>
              <ntsc>FALSE</ntsc>
              <timebase>25</timebase>
            </rate>
            <in>91288.75</in>
            <out>91289.69</out>
            <start>1288.75</start>
            <end>1289.69</end>
            <pixelaspectratio>Square</pixelaspectratio>
            <stillframe>TRUE</stillframe>
            <anamorphic>FALSE</anamorphic>
            <alphatype>straight</alphatype>
            <masterclipid>G.png359</masterclipid>
            <file id="G">
              <name>G.png</name>
              <pathurl>D:/Codes/SynthLip/SynthLipN/bin/Release/net6.0-windows8.0/publish/Skin/template/G.png</pathurl>
              <rate>
                <ntsc>FALSE</ntsc>
                <timebase>25</timebase>
              </rate>
              <duration>2</duration>
              <width>1920</width>
              <height>1080</height>
              <media>
                <video>
                  <duration>2</duration>
                  <stillframe>TRUE</stillframe>
                  <samplecharacteristics>
                    <rate>
                      <ntsc>FALSE</ntsc>
                      <timebase>25</timebase>
                    </rate>
                    <width>1920</width>
                    <height>1080</height>
                    <pixelaspectratio>Square</pixelaspectratio>
                    <anamorphic>FALSE</anamorphic>
                  </samplecharacteristics>
                </video>
              </media>
            </file>
            <sourcetrack>
              <mediatype>video</mediatype>
            </sourcetrack>
            <fielddominance>none</fielddominance>
          </clipitem>
          <clipitem id="D.png358">
            <name>D.png</name>
            <duration>1.25</duration>
            <rate>
              <ntsc>FALSE</ntsc>
              <timebase>25</timebase>
            </rate>
            <in>91287.5</in>
            <out>91288.75</out>
            <start>1287.5</start>
            <end>1288.75</end>
            <pixelaspectratio>Square</pixelaspectratio>
            <stillframe>TRUE</stillframe>
            <anamorphic>FALSE</anamorphic>
            <alphatype>straight</alphatype>
            <masterclipid>D.png358</masterclipid>
            <file id="D">
              <name>D.png</name>
              <pathurl>D:/Codes/SynthLip/SynthLipN/bin/Release/net6.0-windows8.0/publish/Skin/template/D.png</pathurl>
              <rate>
                <ntsc>FALSE</ntsc>
                <timebase>25</timebase>
              </rate>
              <duration>2</duration>
              <width>1920</width>
              <height>1080</height>
              <media>
                <video>
                  <duration>2</duration>
                  <stillframe>TRUE</stillframe>
                  <samplecharacteristics>
                    <rate>
                      <ntsc>FALSE</ntsc>
                      <timebase>25</timebase>
                    </rate>
                    <width>1920</width>
                    <height>1080</height>
                    <pixelaspectratio>Square</pixelaspectratio>
                    <anamorphic>FALSE</anamorphic>
                  </samplecharacteristics>
                </video>
              </media>
            </file>
            <sourcetrack>
              <mediatype>video</mediatype>
            </sourcetrack>
            <fielddominance>none</fielddominance>
          </clipitem>
          <clipitem id="D.png357">
            <name>D.png</name>
            <duration>3.75</duration>
            <rate>
              <ntsc>FALSE</ntsc>
              <timebase>25</timebase>
            </rate>
            <in>91283.75</in>
            <out>91287.5</out>
            <start>1283.75</start>
            <end>1287.5</end>
            <pixelaspectratio>Square</pixelaspectratio>
            <stillframe>TRUE</stillframe>
            <anamorphic>FALSE</anamorphic>
            <alphatype>straight</alphatype>
            <masterclipid>D.png357</masterclipid>
            <file id="D">
              <name>D.png</name>
              <pathurl>D:/Codes/SynthLip/SynthLipN/bin/Release/net6.0-windows8.0/publish/Skin/template/D.png</pathurl>
              <rate>
                <ntsc>FALSE</ntsc>
                <timebase>25</timebase>
              </rate>
              <duration>2</duration>
              <width>1920</width>
              <height>1080</height>
              <media>
                <video>
                  <duration>2</duration>
                  <stillframe>TRUE</stillframe>
                  <samplecharacteristics>
                    <rate>
                      <ntsc>FALSE</ntsc>
                      <timebase>25</timebase>
                    </rate>
                    <width>1920</width>
                    <height>1080</height>
                    <pixelaspectratio>Square</pixelaspectratio>
                    <anamorphic>FALSE</anamorphic>
                  </samplecharacteristics>
                </video>
              </media>
            </file>
            <sourcetrack>
              <mediatype>video</mediatype>
            </sourcetrack>
            <fielddominance>none</fielddominance>
          </clipitem>
          <clipitem id="B.png356">
            <name>B.png</name>
            <duration>1.25</duration>
            <rate>
              <ntsc>FALSE</ntsc>
              <timebase>25</timebase>
            </rate>
            <in>91282.5</in>
            <out>91283.75</out>
            <start>1282.5</start>
            <end>1283.75</end>
            <pixelaspectratio>Square</pixelaspectratio>
            <stillframe>TRUE</stillframe>
            <anamorphic>FALSE</anamorphic>
            <alphatype>straight</alphatype>
            <masterclipid>B.png356</masterclipid>
            <file id="B">
              <name>B.png</name>
              <pathurl>D:/Codes/SynthLip/SynthLipN/bin/Release/net6.0-windows8.0/publish/Skin/template/B.png</pathurl>
              <rate>
                <ntsc>FALSE</ntsc>
                <timebase>25</timebase>
              </rate>
              <duration>2</duration>
              <width>1920</width>
              <height>1080</height>
              <media>
                <video>
                  <duration>2</duration>
                  <stillframe>TRUE</stillframe>
                  <samplecharacteristics>
                    <rate>
                      <ntsc>FALSE</ntsc>
                      <timebase>25</timebase>
                    </rate>
                    <width>1920</width>
                    <height>1080</height>
                    <pixelaspectratio>Square</pixelaspectratio>
                    <anamorphic>FALSE</anamorphic>
                  </samplecharacteristics>
                </video>
              </media>
            </file>
            <sourcetrack>
              <mediatype>video</mediatype>
            </sourcetrack>
            <fielddominance>none</fielddominance>
          </clipitem>
          <clipitem id="B.png355">
            <name>B.png</name>
            <duration>5.94</duration>
            <rate>
              <ntsc>FALSE</ntsc>
              <timebase>25</timebase>
            </rate>
            <in>91276.56</in>
            <out>91282.5</out>
            <start>1276.56</start>
            <end>1282.5</end>
            <pixelaspectratio>Square</pixelaspectratio>
            <stillframe>TRUE</stillframe>
            <anamorphic>FALSE</anamorphic>
            <alphatype>straight</alphatype>
            <masterclipid>B.png355</masterclipid>
            <file id="B">
              <name>B.png</name>
              <pathurl>D:/Codes/SynthLip/SynthLipN/bin/Release/net6.0-windows8.0/publish/Skin/template/B.png</pathurl>
              <rate>
                <ntsc>FALSE</ntsc>
                <timebase>25</timebase>
              </rate>
              <duration>2</duration>
              <width>1920</width>
              <height>1080</height>
              <media>
                <video>
                  <duration>2</duration>
                  <stillframe>TRUE</stillframe>
                  <samplecharacteristics>
                    <rate>
                      <ntsc>FALSE</ntsc>
                      <timebase>25</timebase>
                    </rate>
                    <width>1920</width>
                    <height>1080</height>
                    <pixelaspectratio>Square</pixelaspectratio>
                    <anamorphic>FALSE</anamorphic>
                  </samplecharacteristics>
                </video>
              </media>
            </file>
            <sourcetrack>
              <mediatype>video</mediatype>
            </sourcetrack>
            <fielddominance>none</fielddominance>
          </clipitem>
          <clipitem id="B.png354">
            <name>B.png</name>
            <duration>0.31</duration>
            <rate>
              <ntsc>FALSE</ntsc>
              <timebase>25</timebase>
            </rate>
            <in>91276.25</in>
            <out>91276.56</out>
            <start>1276.25</start>
            <end>1276.56</end>
            <pixelaspectratio>Square</pixelaspectratio>
            <stillframe>TRUE</stillframe>
            <anamorphic>FALSE</anamorphic>
            <alphatype>straight</alphatype>
            <masterclipid>B.png354</masterclipid>
            <file id="B">
              <name>B.png</name>
              <pathurl>D:/Codes/SynthLip/SynthLipN/bin/Release/net6.0-windows8.0/publish/Skin/template/B.png</pathurl>
              <rate>
                <ntsc>FALSE</ntsc>
                <timebase>25</timebase>
              </rate>
              <duration>2</duration>
              <width>1920</width>
              <height>1080</height>
              <media>
                <video>
                  <duration>2</duration>
                  <stillframe>TRUE</stillframe>
                  <samplecharacteristics>
                    <rate>
                      <ntsc>FALSE</ntsc>
                      <timebase>25</timebase>
                    </rate>
                    <width>1920</width>
                    <height>1080</height>
                    <pixelaspectratio>Square</pixelaspectratio>
                    <anamorphic>FALSE</anamorphic>
                  </samplecharacteristics>
                </video>
              </media>
            </file>
            <sourcetrack>
              <mediatype>video</mediatype>
            </sourcetrack>
            <fielddominance>none</fielddominance>
          </clipitem>
          <clipitem id="D.png353">
            <name>D.png</name>
            <duration>0.94</duration>
            <rate>
              <ntsc>FALSE</ntsc>
              <timebase>25</timebase>
            </rate>
            <in>91275.31</in>
            <out>91276.25</out>
            <start>1275.31</start>
            <end>1276.25</end>
            <pixelaspectratio>Square</pixelaspectratio>
            <stillframe>TRUE</stillframe>
            <anamorphic>FALSE</anamorphic>
            <alphatype>straight</alphatype>
            <masterclipid>D.png353</masterclipid>
            <file id="D">
              <name>D.png</name>
              <pathurl>D:/Codes/SynthLip/SynthLipN/bin/Release/net6.0-windows8.0/publish/Skin/template/D.png</pathurl>
              <rate>
                <ntsc>FALSE</ntsc>
                <timebase>25</timebase>
              </rate>
              <duration>2</duration>
              <width>1920</width>
              <height>1080</height>
              <media>
                <video>
                  <duration>2</duration>
                  <stillframe>TRUE</stillframe>
                  <samplecharacteristics>
                    <rate>
                      <ntsc>FALSE</ntsc>
                      <timebase>25</timebase>
                    </rate>
                    <width>1920</width>
                    <height>1080</height>
                    <pixelaspectratio>Square</pixelaspectratio>
                    <anamorphic>FALSE</anamorphic>
                  </samplecharacteristics>
                </video>
              </media>
            </file>
            <sourcetrack>
              <mediatype>video</mediatype>
            </sourcetrack>
            <fielddominance>none</fielddominance>
          </clipitem>
          <clipitem id="F.png352">
            <name>F.png</name>
            <duration>0.31</duration>
            <rate>
              <ntsc>FALSE</ntsc>
              <timebase>25</timebase>
            </rate>
            <in>91275</in>
            <out>91275.31</out>
            <start>1275</start>
            <end>1275.31</end>
            <pixelaspectratio>Square</pixelaspectratio>
            <stillframe>TRUE</stillframe>
            <anamorphic>FALSE</anamorphic>
            <alphatype>straight</alphatype>
            <masterclipid>F.png352</masterclipid>
            <file id="F">
              <name>F.png</name>
              <pathurl>D:/Codes/SynthLip/SynthLipN/bin/Release/net6.0-windows8.0/publish/Skin/template/F.png</pathurl>
              <rate>
                <ntsc>FALSE</ntsc>
                <timebase>25</timebase>
              </rate>
              <duration>2</duration>
              <width>1920</width>
              <height>1080</height>
              <media>
                <video>
                  <duration>2</duration>
                  <stillframe>TRUE</stillframe>
                  <samplecharacteristics>
                    <rate>
                      <ntsc>FALSE</ntsc>
                      <timebase>25</timebase>
                    </rate>
                    <width>1920</width>
                    <height>1080</height>
                    <pixelaspectratio>Square</pixelaspectratio>
                    <anamorphic>FALSE</anamorphic>
                  </samplecharacteristics>
                </video>
              </media>
            </file>
            <sourcetrack>
              <mediatype>video</mediatype>
            </sourcetrack>
            <fielddominance>none</fielddominance>
          </clipitem>
          <clipitem id="C.png351">
            <name>C.png</name>
            <duration>5.62</duration>
            <rate>
              <ntsc>FALSE</ntsc>
              <timebase>25</timebase>
            </rate>
            <in>91269.38</in>
            <out>91275</out>
            <start>1269.38</start>
            <end>1275</end>
            <pixelaspectratio>Square</pixelaspectratio>
            <stillframe>TRUE</stillframe>
            <anamorphic>FALSE</anamorphic>
            <alphatype>straight</alphatype>
            <masterclipid>C.png351</masterclipid>
            <file id="C">
              <name>C.png</name>
              <pathurl>D:/Codes/SynthLip/SynthLipN/bin/Release/net6.0-windows8.0/publish/Skin/template/C.png</pathurl>
              <rate>
                <ntsc>FALSE</ntsc>
                <timebase>25</timebase>
              </rate>
              <duration>2</duration>
              <width>1920</width>
              <height>1080</height>
              <media>
                <video>
                  <duration>2</duration>
                  <stillframe>TRUE</stillframe>
                  <samplecharacteristics>
                    <rate>
                      <ntsc>FALSE</ntsc>
                      <timebase>25</timebase>
                    </rate>
                    <width>1920</width>
                    <height>1080</height>
                    <pixelaspectratio>Square</pixelaspectratio>
                    <anamorphic>FALSE</anamorphic>
                  </samplecharacteristics>
                </video>
              </media>
            </file>
            <sourcetrack>
              <mediatype>video</mediatype>
            </sourcetrack>
            <fielddominance>none</fielddominance>
          </clipitem>
          <clipitem id="A.png350">
            <name>A.png</name>
            <duration>1.88</duration>
            <rate>
              <ntsc>FALSE</ntsc>
              <timebase>25</timebase>
            </rate>
            <in>91267.5</in>
            <out>91269.38</out>
            <start>1267.5</start>
            <end>1269.38</end>
            <pixelaspectratio>Square</pixelaspectratio>
            <stillframe>TRUE</stillframe>
            <anamorphic>FALSE</anamorphic>
            <alphatype>straight</alphatype>
            <masterclipid>A.png350</masterclipid>
            <file id="A">
              <name>A.png</name>
              <pathurl>D:/Codes/SynthLip/SynthLipN/bin/Release/net6.0-windows8.0/publish/Skin/template/A.png</pathurl>
              <rate>
                <ntsc>FALSE</ntsc>
                <timebase>25</timebase>
              </rate>
              <duration>2</duration>
              <width>1920</width>
              <height>1080</height>
              <media>
                <video>
                  <duration>2</duration>
                  <stillframe>TRUE</stillframe>
                  <samplecharacteristics>
                    <rate>
                      <ntsc>FALSE</ntsc>
                      <timebase>25</timebase>
                    </rate>
                    <width>1920</width>
                    <height>1080</height>
                    <pixelaspectratio>Square</pixelaspectratio>
                    <anamorphic>FALSE</anamorphic>
                  </samplecharacteristics>
                </video>
              </media>
            </file>
            <sourcetrack>
              <mediatype>video</mediatype>
            </sourcetrack>
            <fielddominance>none</fielddominance>
          </clipitem>
          <clipitem id="H.png349">
            <name>H.png</name>
            <duration>5.94</duration>
            <rate>
              <ntsc>FALSE</ntsc>
              <timebase>25</timebase>
            </rate>
            <in>91261.56</in>
            <out>91267.5</out>
            <start>1261.56</start>
            <end>1267.5</end>
            <pixelaspectratio>Square</pixelaspectratio>
            <stillframe>TRUE</stillframe>
            <anamorphic>FALSE</anamorphic>
            <alphatype>straight</alphatype>
            <masterclipid>H.png349</masterclipid>
            <file id="H">
              <name>H.png</name>
              <pathurl>D:/Codes/SynthLip/SynthLipN/bin/Release/net6.0-windows8.0/publish/Skin/template/H.png</pathurl>
              <rate>
                <ntsc>FALSE</ntsc>
                <timebase>25</timebase>
              </rate>
              <duration>2</duration>
              <width>1920</width>
              <height>1080</height>
              <media>
                <video>
                  <duration>2</duration>
                  <stillframe>TRUE</stillframe>
                  <samplecharacteristics>
                    <rate>
                      <ntsc>FALSE</ntsc>
                      <timebase>25</timebase>
                    </rate>
                    <width>1920</width>
                    <height>1080</height>
                    <pixelaspectratio>Square</pixelaspectratio>
                    <anamorphic>FALSE</anamorphic>
                  </samplecharacteristics>
                </video>
              </media>
            </file>
            <sourcetrack>
              <mediatype>video</mediatype>
            </sourcetrack>
            <fielddominance>none</fielddominance>
          </clipitem>
          <clipitem id="H.png348">
            <name>H.png</name>
            <duration>0.31</duration>
            <rate>
              <ntsc>FALSE</ntsc>
              <timebase>25</timebase>
            </rate>
            <in>91261.25</in>
            <out>91261.56</out>
            <start>1261.25</start>
            <end>1261.56</end>
            <pixelaspectratio>Square</pixelaspectratio>
            <stillframe>TRUE</stillframe>
            <anamorphic>FALSE</anamorphic>
            <alphatype>straight</alphatype>
            <masterclipid>H.png348</masterclipid>
            <file id="H">
              <name>H.png</name>
              <pathurl>D:/Codes/SynthLip/SynthLipN/bin/Release/net6.0-windows8.0/publish/Skin/template/H.png</pathurl>
              <rate>
                <ntsc>FALSE</ntsc>
                <timebase>25</timebase>
              </rate>
              <duration>2</duration>
              <width>1920</width>
              <height>1080</height>
              <media>
                <video>
                  <duration>2</duration>
                  <stillframe>TRUE</stillframe>
                  <samplecharacteristics>
                    <rate>
                      <ntsc>FALSE</ntsc>
                      <timebase>25</timebase>
                    </rate>
                    <width>1920</width>
                    <height>1080</height>
                    <pixelaspectratio>Square</pixelaspectratio>
                    <anamorphic>FALSE</anamorphic>
                  </samplecharacteristics>
                </video>
              </media>
            </file>
            <sourcetrack>
              <mediatype>video</mediatype>
            </sourcetrack>
            <fielddominance>none</fielddominance>
          </clipitem>
          <clipitem id="C.png347">
            <name>C.png</name>
            <duration>0.94</duration>
            <rate>
              <ntsc>FALSE</ntsc>
              <timebase>25</timebase>
            </rate>
            <in>91260.31</in>
            <out>91261.25</out>
            <start>1260.31</start>
            <end>1261.25</end>
            <pixelaspectratio>Square</pixelaspectratio>
            <stillframe>TRUE</stillframe>
            <anamorphic>FALSE</anamorphic>
            <alphatype>straight</alphatype>
            <masterclipid>C.png347</masterclipid>
            <file id="C">
              <name>C.png</name>
              <pathurl>D:/Codes/SynthLip/SynthLipN/bin/Release/net6.0-windows8.0/publish/Skin/template/C.png</pathurl>
              <rate>
                <ntsc>FALSE</ntsc>
                <timebase>25</timebase>
              </rate>
              <duration>2</duration>
              <width>1920</width>
              <height>1080</height>
              <media>
                <video>
                  <duration>2</duration>
                  <stillframe>TRUE</stillframe>
                  <samplecharacteristics>
                    <rate>
                      <ntsc>FALSE</ntsc>
                      <timebase>25</timebase>
                    </rate>
                    <width>1920</width>
                    <height>1080</height>
                    <pixelaspectratio>Square</pixelaspectratio>
                    <anamorphic>FALSE</anamorphic>
                  </samplecharacteristics>
                </video>
              </media>
            </file>
            <sourcetrack>
              <mediatype>video</mediatype>
            </sourcetrack>
            <fielddominance>none</fielddominance>
          </clipitem>
          <clipitem id="D.png346">
            <name>D.png</name>
            <duration>0.31</duration>
            <rate>
              <ntsc>FALSE</ntsc>
              <timebase>25</timebase>
            </rate>
            <in>91260</in>
            <out>91260.31</out>
            <start>1260</start>
            <end>1260.31</end>
            <pixelaspectratio>Square</pixelaspectratio>
            <stillframe>TRUE</stillframe>
            <anamorphic>FALSE</anamorphic>
            <alphatype>straight</alphatype>
            <masterclipid>D.png346</masterclipid>
            <file id="D">
              <name>D.png</name>
              <pathurl>D:/Codes/SynthLip/SynthLipN/bin/Release/net6.0-windows8.0/publish/Skin/template/D.png</pathurl>
              <rate>
                <ntsc>FALSE</ntsc>
                <timebase>25</timebase>
              </rate>
              <duration>2</duration>
              <width>1920</width>
              <height>1080</height>
              <media>
                <video>
                  <duration>2</duration>
                  <stillframe>TRUE</stillframe>
                  <samplecharacteristics>
                    <rate>
                      <ntsc>FALSE</ntsc>
                      <timebase>25</timebase>
                    </rate>
                    <width>1920</width>
                    <height>1080</height>
                    <pixelaspectratio>Square</pixelaspectratio>
                    <anamorphic>FALSE</anamorphic>
                  </samplecharacteristics>
                </video>
              </media>
            </file>
            <sourcetrack>
              <mediatype>video</mediatype>
            </sourcetrack>
            <fielddominance>none</fielddominance>
          </clipitem>
          <clipitem id="D.png345">
            <name>D.png</name>
            <duration>5.63</duration>
            <rate>
              <ntsc>FALSE</ntsc>
              <timebase>25</timebase>
            </rate>
            <in>91254.38</in>
            <out>91260.016</out>
            <start>1254.38</start>
            <end>1260.01</end>
            <pixelaspectratio>Square</pixelaspectratio>
            <stillframe>TRUE</stillframe>
            <anamorphic>FALSE</anamorphic>
            <alphatype>straight</alphatype>
            <masterclipid>D.png345</masterclipid>
            <file id="D">
              <name>D.png</name>
              <pathurl>D:/Codes/SynthLip/SynthLipN/bin/Release/net6.0-windows8.0/publish/Skin/template/D.png</pathurl>
              <rate>
                <ntsc>FALSE</ntsc>
                <timebase>25</timebase>
              </rate>
              <duration>2</duration>
              <width>1920</width>
              <height>1080</height>
              <media>
                <video>
                  <duration>2</duration>
                  <stillframe>TRUE</stillframe>
                  <samplecharacteristics>
                    <rate>
                      <ntsc>FALSE</ntsc>
                      <timebase>25</timebase>
                    </rate>
                    <width>1920</width>
                    <height>1080</height>
                    <pixelaspectratio>Square</pixelaspectratio>
                    <anamorphic>FALSE</anamorphic>
                  </samplecharacteristics>
                </video>
              </media>
            </file>
            <sourcetrack>
              <mediatype>video</mediatype>
            </sourcetrack>
            <fielddominance>none</fielddominance>
          </clipitem>
          <clipitem id="A.png344">
            <name>A.png</name>
            <duration>1.88</duration>
            <rate>
              <ntsc>FALSE</ntsc>
              <timebase>25</timebase>
            </rate>
            <in>91252.5</in>
            <out>91254.38</out>
            <start>1252.5</start>
            <end>1254.38</end>
            <pixelaspectratio>Square</pixelaspectratio>
            <stillframe>TRUE</stillframe>
            <anamorphic>FALSE</anamorphic>
            <alphatype>straight</alphatype>
            <masterclipid>A.png344</masterclipid>
            <file id="A">
              <name>A.png</name>
              <pathurl>D:/Codes/SynthLip/SynthLipN/bin/Release/net6.0-windows8.0/publish/Skin/template/A.png</pathurl>
              <rate>
                <ntsc>FALSE</ntsc>
                <timebase>25</timebase>
              </rate>
              <duration>2</duration>
              <width>1920</width>
              <height>1080</height>
              <media>
                <video>
                  <duration>2</duration>
                  <stillframe>TRUE</stillframe>
                  <samplecharacteristics>
                    <rate>
                      <ntsc>FALSE</ntsc>
                      <timebase>25</timebase>
                    </rate>
                    <width>1920</width>
                    <height>1080</height>
                    <pixelaspectratio>Square</pixelaspectratio>
                    <anamorphic>FALSE</anamorphic>
                  </samplecharacteristics>
                </video>
              </media>
            </file>
            <sourcetrack>
              <mediatype>video</mediatype>
            </sourcetrack>
            <fielddominance>none</fielddominance>
          </clipitem>
          <clipitem id="A.png343">
            <name>A.png</name>
            <duration>10.31</duration>
            <rate>
              <ntsc>FALSE</ntsc>
              <timebase>25</timebase>
            </rate>
            <in>91242.19</in>
            <out>91252.5</out>
            <start>1242.19</start>
            <end>1252.5</end>
            <pixelaspectratio>Square</pixelaspectratio>
            <stillframe>TRUE</stillframe>
            <anamorphic>FALSE</anamorphic>
            <alphatype>straight</alphatype>
            <masterclipid>A.png343</masterclipid>
            <file id="A">
              <name>A.png</name>
              <pathurl>D:/Codes/SynthLip/SynthLipN/bin/Release/net6.0-windows8.0/publish/Skin/template/A.png</pathurl>
              <rate>
                <ntsc>FALSE</ntsc>
                <timebase>25</timebase>
              </rate>
              <duration>2</duration>
              <width>1920</width>
              <height>1080</height>
              <media>
                <video>
                  <duration>2</duration>
                  <stillframe>TRUE</stillframe>
                  <samplecharacteristics>
                    <rate>
                      <ntsc>FALSE</ntsc>
                      <timebase>25</timebase>
                    </rate>
                    <width>1920</width>
                    <height>1080</height>
                    <pixelaspectratio>Square</pixelaspectratio>
                    <anamorphic>FALSE</anamorphic>
                  </samplecharacteristics>
                </video>
              </media>
            </file>
            <sourcetrack>
              <mediatype>video</mediatype>
            </sourcetrack>
            <fielddominance>none</fielddominance>
          </clipitem>
          <clipitem id="B.png342">
            <name>B.png</name>
            <duration>2.81</duration>
            <rate>
              <ntsc>FALSE</ntsc>
              <timebase>25</timebase>
            </rate>
            <in>91239.38</in>
            <out>91242.195</out>
            <start>1239.38</start>
            <end>1242.1901</end>
            <pixelaspectratio>Square</pixelaspectratio>
            <stillframe>TRUE</stillframe>
            <anamorphic>FALSE</anamorphic>
            <alphatype>straight</alphatype>
            <masterclipid>B.png342</masterclipid>
            <file id="B">
              <name>B.png</name>
              <pathurl>D:/Codes/SynthLip/SynthLipN/bin/Release/net6.0-windows8.0/publish/Skin/template/B.png</pathurl>
              <rate>
                <ntsc>FALSE</ntsc>
                <timebase>25</timebase>
              </rate>
              <duration>2</duration>
              <width>1920</width>
              <height>1080</height>
              <media>
                <video>
                  <duration>2</duration>
                  <stillframe>TRUE</stillframe>
                  <samplecharacteristics>
                    <rate>
                      <ntsc>FALSE</ntsc>
                      <timebase>25</timebase>
                    </rate>
                    <width>1920</width>
                    <height>1080</height>
                    <pixelaspectratio>Square</pixelaspectratio>
                    <anamorphic>FALSE</anamorphic>
                  </samplecharacteristics>
                </video>
              </media>
            </file>
            <sourcetrack>
              <mediatype>video</mediatype>
            </sourcetrack>
            <fielddominance>none</fielddominance>
          </clipitem>
          <clipitem id="A.png341">
            <name>A.png</name>
            <duration>1.88</duration>
            <rate>
              <ntsc>FALSE</ntsc>
              <timebase>25</timebase>
            </rate>
            <in>91237.5</in>
            <out>91239.38</out>
            <start>1237.5</start>
            <end>1239.38</end>
            <pixelaspectratio>Square</pixelaspectratio>
            <stillframe>TRUE</stillframe>
            <anamorphic>FALSE</anamorphic>
            <alphatype>straight</alphatype>
            <masterclipid>A.png341</masterclipid>
            <file id="A">
              <name>A.png</name>
              <pathurl>D:/Codes/SynthLip/SynthLipN/bin/Release/net6.0-windows8.0/publish/Skin/template/A.png</pathurl>
              <rate>
                <ntsc>FALSE</ntsc>
                <timebase>25</timebase>
              </rate>
              <duration>2</duration>
              <width>1920</width>
              <height>1080</height>
              <media>
                <video>
                  <duration>2</duration>
                  <stillframe>TRUE</stillframe>
                  <samplecharacteristics>
                    <rate>
                      <ntsc>FALSE</ntsc>
                      <timebase>25</timebase>
                    </rate>
                    <width>1920</width>
                    <height>1080</height>
                    <pixelaspectratio>Square</pixelaspectratio>
                    <anamorphic>FALSE</anamorphic>
                  </samplecharacteristics>
                </video>
              </media>
            </file>
            <sourcetrack>
              <mediatype>video</mediatype>
            </sourcetrack>
            <fielddominance>none</fielddominance>
          </clipitem>
          <clipitem id="C.png340">
            <name>C.png</name>
            <duration>6.25</duration>
            <rate>
              <ntsc>FALSE</ntsc>
              <timebase>25</timebase>
            </rate>
            <in>91231.25</in>
            <out>91237.5</out>
            <start>1231.25</start>
            <end>1237.5</end>
            <pixelaspectratio>Square</pixelaspectratio>
            <stillframe>TRUE</stillframe>
            <anamorphic>FALSE</anamorphic>
            <alphatype>straight</alphatype>
            <masterclipid>C.png340</masterclipid>
            <file id="C">
              <name>C.png</name>
              <pathurl>D:/Codes/SynthLip/SynthLipN/bin/Release/net6.0-windows8.0/publish/Skin/template/C.png</pathurl>
              <rate>
                <ntsc>FALSE</ntsc>
                <timebase>25</timebase>
              </rate>
              <duration>2</duration>
              <width>1920</width>
              <height>1080</height>
              <media>
                <video>
                  <duration>2</duration>
                  <stillframe>TRUE</stillframe>
                  <samplecharacteristics>
                    <rate>
                      <ntsc>FALSE</ntsc>
                      <timebase>25</timebase>
                    </rate>
                    <width>1920</width>
                    <height>1080</height>
                    <pixelaspectratio>Square</pixelaspectratio>
                    <anamorphic>FALSE</anamorphic>
                  </samplecharacteristics>
                </video>
              </media>
            </file>
            <sourcetrack>
              <mediatype>video</mediatype>
            </sourcetrack>
            <fielddominance>none</fielddominance>
          </clipitem>
          <clipitem id="B.png339">
            <name>B.png</name>
            <duration>2.5</duration>
            <rate>
              <ntsc>FALSE</ntsc>
              <timebase>25</timebase>
            </rate>
            <in>91228.75</in>
            <out>91231.25</out>
            <start>1228.75</start>
            <end>1231.25</end>
            <pixelaspectratio>Square</pixelaspectratio>
            <stillframe>TRUE</stillframe>
            <anamorphic>FALSE</anamorphic>
            <alphatype>straight</alphatype>
            <masterclipid>B.png339</masterclipid>
            <file id="B">
              <name>B.png</name>
              <pathurl>D:/Codes/SynthLip/SynthLipN/bin/Release/net6.0-windows8.0/publish/Skin/template/B.png</pathurl>
              <rate>
                <ntsc>FALSE</ntsc>
                <timebase>25</timebase>
              </rate>
              <duration>2</duration>
              <width>1920</width>
              <height>1080</height>
              <media>
                <video>
                  <duration>2</duration>
                  <stillframe>TRUE</stillframe>
                  <samplecharacteristics>
                    <rate>
                      <ntsc>FALSE</ntsc>
                      <timebase>25</timebase>
                    </rate>
                    <width>1920</width>
                    <height>1080</height>
                    <pixelaspectratio>Square</pixelaspectratio>
                    <anamorphic>FALSE</anamorphic>
                  </samplecharacteristics>
                </video>
              </media>
            </file>
            <sourcetrack>
              <mediatype>video</mediatype>
            </sourcetrack>
            <fielddominance>none</fielddominance>
          </clipitem>
          <clipitem id="B.png338">
            <name>B.png</name>
            <duration>1.25</duration>
            <rate>
              <ntsc>FALSE</ntsc>
              <timebase>25</timebase>
            </rate>
            <in>91227.5</in>
            <out>91228.75</out>
            <start>1227.5</start>
            <end>1228.75</end>
            <pixelaspectratio>Square</pixelaspectratio>
            <stillframe>TRUE</stillframe>
            <anamorphic>FALSE</anamorphic>
            <alphatype>straight</alphatype>
            <masterclipid>B.png338</masterclipid>
            <file id="B">
              <name>B.png</name>
              <pathurl>D:/Codes/SynthLip/SynthLipN/bin/Release/net6.0-windows8.0/publish/Skin/template/B.png</pathurl>
              <rate>
                <ntsc>FALSE</ntsc>
                <timebase>25</timebase>
              </rate>
              <duration>2</duration>
              <width>1920</width>
              <height>1080</height>
              <media>
                <video>
                  <duration>2</duration>
                  <stillframe>TRUE</stillframe>
                  <samplecharacteristics>
                    <rate>
                      <ntsc>FALSE</ntsc>
                      <timebase>25</timebase>
                    </rate>
                    <width>1920</width>
                    <height>1080</height>
                    <pixelaspectratio>Square</pixelaspectratio>
                    <anamorphic>FALSE</anamorphic>
                  </samplecharacteristics>
                </video>
              </media>
            </file>
            <sourcetrack>
              <mediatype>video</mediatype>
            </sourcetrack>
            <fielddominance>none</fielddominance>
          </clipitem>
          <clipitem id="C.png337">
            <name>C.png</name>
            <duration>3.75</duration>
            <rate>
              <ntsc>FALSE</ntsc>
              <timebase>25</timebase>
            </rate>
            <in>91223.75</in>
            <out>91227.5</out>
            <start>1223.75</start>
            <end>1227.5</end>
            <pixelaspectratio>Square</pixelaspectratio>
            <stillframe>TRUE</stillframe>
            <anamorphic>FALSE</anamorphic>
            <alphatype>straight</alphatype>
            <masterclipid>C.png337</masterclipid>
            <file id="C">
              <name>C.png</name>
              <pathurl>D:/Codes/SynthLip/SynthLipN/bin/Release/net6.0-windows8.0/publish/Skin/template/C.png</pathurl>
              <rate>
                <ntsc>FALSE</ntsc>
                <timebase>25</timebase>
              </rate>
              <duration>2</duration>
              <width>1920</width>
              <height>1080</height>
              <media>
                <video>
                  <duration>2</duration>
                  <stillframe>TRUE</stillframe>
                  <samplecharacteristics>
                    <rate>
                      <ntsc>FALSE</ntsc>
                      <timebase>25</timebase>
                    </rate>
                    <width>1920</width>
                    <height>1080</height>
                    <pixelaspectratio>Square</pixelaspectratio>
                    <anamorphic>FALSE</anamorphic>
                  </samplecharacteristics>
                </video>
              </media>
            </file>
            <sourcetrack>
              <mediatype>video</mediatype>
            </sourcetrack>
            <fielddominance>none</fielddominance>
          </clipitem>
          <clipitem id="F.png336">
            <name>F.png</name>
            <duration>1.25</duration>
            <rate>
              <ntsc>FALSE</ntsc>
              <timebase>25</timebase>
            </rate>
            <in>91222.5</in>
            <out>91223.75</out>
            <start>1222.5</start>
            <end>1223.75</end>
            <pixelaspectratio>Square</pixelaspectratio>
            <stillframe>TRUE</stillframe>
            <anamorphic>FALSE</anamorphic>
            <alphatype>straight</alphatype>
            <masterclipid>F.png336</masterclipid>
            <file id="F">
              <name>F.png</name>
              <pathurl>D:/Codes/SynthLip/SynthLipN/bin/Release/net6.0-windows8.0/publish/Skin/template/F.png</pathurl>
              <rate>
                <ntsc>FALSE</ntsc>
                <timebase>25</timebase>
              </rate>
              <duration>2</duration>
              <width>1920</width>
              <height>1080</height>
              <media>
                <video>
                  <duration>2</duration>
                  <stillframe>TRUE</stillframe>
                  <samplecharacteristics>
                    <rate>
                      <ntsc>FALSE</ntsc>
                      <timebase>25</timebase>
                    </rate>
                    <width>1920</width>
                    <height>1080</height>
                    <pixelaspectratio>Square</pixelaspectratio>
                    <anamorphic>FALSE</anamorphic>
                  </samplecharacteristics>
                </video>
              </media>
            </file>
            <sourcetrack>
              <mediatype>video</mediatype>
            </sourcetrack>
            <fielddominance>none</fielddominance>
          </clipitem>
          <clipitem id="G.png335">
            <name>G.png</name>
            <duration>6.09</duration>
            <rate>
              <ntsc>FALSE</ntsc>
              <timebase>25</timebase>
            </rate>
            <in>91216.41</in>
            <out>91222.5</out>
            <start>1216.41</start>
            <end>1222.5</end>
            <pixelaspectratio>Square</pixelaspectratio>
            <stillframe>TRUE</stillframe>
            <anamorphic>FALSE</anamorphic>
            <alphatype>straight</alphatype>
            <masterclipid>G.png335</masterclipid>
            <file id="G">
              <name>G.png</name>
              <pathurl>D:/Codes/SynthLip/SynthLipN/bin/Release/net6.0-windows8.0/publish/Skin/template/G.png</pathurl>
              <rate>
                <ntsc>FALSE</ntsc>
                <timebase>25</timebase>
              </rate>
              <duration>2</duration>
              <width>1920</width>
              <height>1080</height>
              <media>
                <video>
                  <duration>2</duration>
                  <stillframe>TRUE</stillframe>
                  <samplecharacteristics>
                    <rate>
                      <ntsc>FALSE</ntsc>
                      <timebase>25</timebase>
                    </rate>
                    <width>1920</width>
                    <height>1080</height>
                    <pixelaspectratio>Square</pixelaspectratio>
                    <anamorphic>FALSE</anamorphic>
                  </samplecharacteristics>
                </video>
              </media>
            </file>
            <sourcetrack>
              <mediatype>video</mediatype>
            </sourcetrack>
            <fielddominance>none</fielddominance>
          </clipitem>
          <clipitem id="G.png334">
            <name>G.png</name>
            <duration>0.47</duration>
            <rate>
              <ntsc>FALSE</ntsc>
              <timebase>25</timebase>
            </rate>
            <in>91215.94</in>
            <out>91216.41</out>
            <start>1215.94</start>
            <end>1216.4099</end>
            <pixelaspectratio>Square</pixelaspectratio>
            <stillframe>TRUE</stillframe>
            <anamorphic>FALSE</anamorphic>
            <alphatype>straight</alphatype>
            <masterclipid>G.png334</masterclipid>
            <file id="G">
              <name>G.png</name>
              <pathurl>D:/Codes/SynthLip/SynthLipN/bin/Release/net6.0-windows8.0/publish/Skin/template/G.png</pathurl>
              <rate>
                <ntsc>FALSE</ntsc>
                <timebase>25</timebase>
              </rate>
              <duration>2</duration>
              <width>1920</width>
              <height>1080</height>
              <media>
                <video>
                  <duration>2</duration>
                  <stillframe>TRUE</stillframe>
                  <samplecharacteristics>
                    <rate>
                      <ntsc>FALSE</ntsc>
                      <timebase>25</timebase>
                    </rate>
                    <width>1920</width>
                    <height>1080</height>
                    <pixelaspectratio>Square</pixelaspectratio>
                    <anamorphic>FALSE</anamorphic>
                  </samplecharacteristics>
                </video>
              </media>
            </file>
            <sourcetrack>
              <mediatype>video</mediatype>
            </sourcetrack>
            <fielddominance>none</fielddominance>
          </clipitem>
          <clipitem id="D.png333">
            <name>D.png</name>
            <duration>2.34</duration>
            <rate>
              <ntsc>FALSE</ntsc>
              <timebase>25</timebase>
            </rate>
            <in>91213.59</in>
            <out>91215.94</out>
            <start>1213.59</start>
            <end>1215.9299</end>
            <pixelaspectratio>Square</pixelaspectratio>
            <stillframe>TRUE</stillframe>
            <anamorphic>FALSE</anamorphic>
            <alphatype>straight</alphatype>
            <masterclipid>D.png333</masterclipid>
            <file id="D">
              <name>D.png</name>
              <pathurl>D:/Codes/SynthLip/SynthLipN/bin/Release/net6.0-windows8.0/publish/Skin/template/D.png</pathurl>
              <rate>
                <ntsc>FALSE</ntsc>
                <timebase>25</timebase>
              </rate>
              <duration>2</duration>
              <width>1920</width>
              <height>1080</height>
              <media>
                <video>
                  <duration>2</duration>
                  <stillframe>TRUE</stillframe>
                  <samplecharacteristics>
                    <rate>
                      <ntsc>FALSE</ntsc>
                      <timebase>25</timebase>
                    </rate>
                    <width>1920</width>
                    <height>1080</height>
                    <pixelaspectratio>Square</pixelaspectratio>
                    <anamorphic>FALSE</anamorphic>
                  </samplecharacteristics>
                </video>
              </media>
            </file>
            <sourcetrack>
              <mediatype>video</mediatype>
            </sourcetrack>
            <fielddominance>none</fielddominance>
          </clipitem>
          <clipitem id="B.png332">
            <name>B.png</name>
            <duration>1.41</duration>
            <rate>
              <ntsc>FALSE</ntsc>
              <timebase>25</timebase>
            </rate>
            <in>91212.19</in>
            <out>91213.59</out>
            <start>1212.19</start>
            <end>1213.6</end>
            <pixelaspectratio>Square</pixelaspectratio>
            <stillframe>TRUE</stillframe>
            <anamorphic>FALSE</anamorphic>
            <alphatype>straight</alphatype>
            <masterclipid>B.png332</masterclipid>
            <file id="B">
              <name>B.png</name>
              <pathurl>D:/Codes/SynthLip/SynthLipN/bin/Release/net6.0-windows8.0/publish/Skin/template/B.png</pathurl>
              <rate>
                <ntsc>FALSE</ntsc>
                <timebase>25</timebase>
              </rate>
              <duration>2</duration>
              <width>1920</width>
              <height>1080</height>
              <media>
                <video>
                  <duration>2</duration>
                  <stillframe>TRUE</stillframe>
                  <samplecharacteristics>
                    <rate>
                      <ntsc>FALSE</ntsc>
                      <timebase>25</timebase>
                    </rate>
                    <width>1920</width>
                    <height>1080</height>
                    <pixelaspectratio>Square</pixelaspectratio>
                    <anamorphic>FALSE</anamorphic>
                  </samplecharacteristics>
                </video>
              </media>
            </file>
            <sourcetrack>
              <mediatype>video</mediatype>
            </sourcetrack>
            <fielddominance>none</fielddominance>
          </clipitem>
          <clipitem id="B.png331">
            <name>B.png</name>
            <duration>0.94</duration>
            <rate>
              <ntsc>FALSE</ntsc>
              <timebase>25</timebase>
            </rate>
            <in>91211.25</in>
            <out>91212.19</out>
            <start>1211.25</start>
            <end>1212.19</end>
            <pixelaspectratio>Square</pixelaspectratio>
            <stillframe>TRUE</stillframe>
            <anamorphic>FALSE</anamorphic>
            <alphatype>straight</alphatype>
            <masterclipid>B.png331</masterclipid>
            <file id="B">
              <name>B.png</name>
              <pathurl>D:/Codes/SynthLip/SynthLipN/bin/Release/net6.0-windows8.0/publish/Skin/template/B.png</pathurl>
              <rate>
                <ntsc>FALSE</ntsc>
                <timebase>25</timebase>
              </rate>
              <duration>2</duration>
              <width>1920</width>
              <height>1080</height>
              <media>
                <video>
                  <duration>2</duration>
                  <stillframe>TRUE</stillframe>
                  <samplecharacteristics>
                    <rate>
                      <ntsc>FALSE</ntsc>
                      <timebase>25</timebase>
                    </rate>
                    <width>1920</width>
                    <height>1080</height>
                    <pixelaspectratio>Square</pixelaspectratio>
                    <anamorphic>FALSE</anamorphic>
                  </samplecharacteristics>
                </video>
              </media>
            </file>
            <sourcetrack>
              <mediatype>video</mediatype>
            </sourcetrack>
            <fielddominance>none</fielddominance>
          </clipitem>
          <clipitem id="C.png330">
            <name>C.png</name>
            <duration>2.81</duration>
            <rate>
              <ntsc>FALSE</ntsc>
              <timebase>25</timebase>
            </rate>
            <in>91208.44</in>
            <out>91211.25</out>
            <start>1208.44</start>
            <end>1211.25</end>
            <pixelaspectratio>Square</pixelaspectratio>
            <stillframe>TRUE</stillframe>
            <anamorphic>FALSE</anamorphic>
            <alphatype>straight</alphatype>
            <masterclipid>C.png330</masterclipid>
            <file id="C">
              <name>C.png</name>
              <pathurl>D:/Codes/SynthLip/SynthLipN/bin/Release/net6.0-windows8.0/publish/Skin/template/C.png</pathurl>
              <rate>
                <ntsc>FALSE</ntsc>
                <timebase>25</timebase>
              </rate>
              <duration>2</duration>
              <width>1920</width>
              <height>1080</height>
              <media>
                <video>
                  <duration>2</duration>
                  <stillframe>TRUE</stillframe>
                  <samplecharacteristics>
                    <rate>
                      <ntsc>FALSE</ntsc>
                      <timebase>25</timebase>
                    </rate>
                    <width>1920</width>
                    <height>1080</height>
                    <pixelaspectratio>Square</pixelaspectratio>
                    <anamorphic>FALSE</anamorphic>
                  </samplecharacteristics>
                </video>
              </media>
            </file>
            <sourcetrack>
              <mediatype>video</mediatype>
            </sourcetrack>
            <fielddominance>none</fielddominance>
          </clipitem>
          <clipitem id="B.png329">
            <name>B.png</name>
            <duration>0.94</duration>
            <rate>
              <ntsc>FALSE</ntsc>
              <timebase>25</timebase>
            </rate>
            <in>91207.5</in>
            <out>91208.44</out>
            <start>1207.5</start>
            <end>1208.44</end>
            <pixelaspectratio>Square</pixelaspectratio>
            <stillframe>TRUE</stillframe>
            <anamorphic>FALSE</anamorphic>
            <alphatype>straight</alphatype>
            <masterclipid>B.png329</masterclipid>
            <file id="B">
              <name>B.png</name>
              <pathurl>D:/Codes/SynthLip/SynthLipN/bin/Release/net6.0-windows8.0/publish/Skin/template/B.png</pathurl>
              <rate>
                <ntsc>FALSE</ntsc>
                <timebase>25</timebase>
              </rate>
              <duration>2</duration>
              <width>1920</width>
              <height>1080</height>
              <media>
                <video>
                  <duration>2</duration>
                  <stillframe>TRUE</stillframe>
                  <samplecharacteristics>
                    <rate>
                      <ntsc>FALSE</ntsc>
                      <timebase>25</timebase>
                    </rate>
                    <width>1920</width>
                    <height>1080</height>
                    <pixelaspectratio>Square</pixelaspectratio>
                    <anamorphic>FALSE</anamorphic>
                  </samplecharacteristics>
                </video>
              </media>
            </file>
            <sourcetrack>
              <mediatype>video</mediatype>
            </sourcetrack>
            <fielddominance>none</fielddominance>
          </clipitem>
          <clipitem id="C.png328">
            <name>C.png</name>
            <duration>7.5</duration>
            <rate>
              <ntsc>FALSE</ntsc>
              <timebase>25</timebase>
            </rate>
            <in>91200</in>
            <out>91207.5</out>
            <start>1200</start>
            <end>1207.5</end>
            <pixelaspectratio>Square</pixelaspectratio>
            <stillframe>TRUE</stillframe>
            <anamorphic>FALSE</anamorphic>
            <alphatype>straight</alphatype>
            <masterclipid>C.png328</masterclipid>
            <file id="C">
              <name>C.png</name>
              <pathurl>D:/Codes/SynthLip/SynthLipN/bin/Release/net6.0-windows8.0/publish/Skin/template/C.png</pathurl>
              <rate>
                <ntsc>FALSE</ntsc>
                <timebase>25</timebase>
              </rate>
              <duration>2</duration>
              <width>1920</width>
              <height>1080</height>
              <media>
                <video>
                  <duration>2</duration>
                  <stillframe>TRUE</stillframe>
                  <samplecharacteristics>
                    <rate>
                      <ntsc>FALSE</ntsc>
                      <timebase>25</timebase>
                    </rate>
                    <width>1920</width>
                    <height>1080</height>
                    <pixelaspectratio>Square</pixelaspectratio>
                    <anamorphic>FALSE</anamorphic>
                  </samplecharacteristics>
                </video>
              </media>
            </file>
            <sourcetrack>
              <mediatype>video</mediatype>
            </sourcetrack>
            <fielddominance>none</fielddominance>
          </clipitem>
          <clipitem id="C.png327">
            <name>C.png</name>
            <duration>5.62</duration>
            <rate>
              <ntsc>FALSE</ntsc>
              <timebase>25</timebase>
            </rate>
            <in>91194.38</in>
            <out>91200</out>
            <start>1194.38</start>
            <end>1200</end>
            <pixelaspectratio>Square</pixelaspectratio>
            <stillframe>TRUE</stillframe>
            <anamorphic>FALSE</anamorphic>
            <alphatype>straight</alphatype>
            <masterclipid>C.png327</masterclipid>
            <file id="C">
              <name>C.png</name>
              <pathurl>D:/Codes/SynthLip/SynthLipN/bin/Release/net6.0-windows8.0/publish/Skin/template/C.png</pathurl>
              <rate>
                <ntsc>FALSE</ntsc>
                <timebase>25</timebase>
              </rate>
              <duration>2</duration>
              <width>1920</width>
              <height>1080</height>
              <media>
                <video>
                  <duration>2</duration>
                  <stillframe>TRUE</stillframe>
                  <samplecharacteristics>
                    <rate>
                      <ntsc>FALSE</ntsc>
                      <timebase>25</timebase>
                    </rate>
                    <width>1920</width>
                    <height>1080</height>
                    <pixelaspectratio>Square</pixelaspectratio>
                    <anamorphic>FALSE</anamorphic>
                  </samplecharacteristics>
                </video>
              </media>
            </file>
            <sourcetrack>
              <mediatype>video</mediatype>
            </sourcetrack>
            <fielddominance>none</fielddominance>
          </clipitem>
          <clipitem id="B.png326">
            <name>B.png</name>
            <duration>1.88</duration>
            <rate>
              <ntsc>FALSE</ntsc>
              <timebase>25</timebase>
            </rate>
            <in>91192.5</in>
            <out>91194.38</out>
            <start>1192.5</start>
            <end>1194.38</end>
            <pixelaspectratio>Square</pixelaspectratio>
            <stillframe>TRUE</stillframe>
            <anamorphic>FALSE</anamorphic>
            <alphatype>straight</alphatype>
            <masterclipid>B.png326</masterclipid>
            <file id="B">
              <name>B.png</name>
              <pathurl>D:/Codes/SynthLip/SynthLipN/bin/Release/net6.0-windows8.0/publish/Skin/template/B.png</pathurl>
              <rate>
                <ntsc>FALSE</ntsc>
                <timebase>25</timebase>
              </rate>
              <duration>2</duration>
              <width>1920</width>
              <height>1080</height>
              <media>
                <video>
                  <duration>2</duration>
                  <stillframe>TRUE</stillframe>
                  <samplecharacteristics>
                    <rate>
                      <ntsc>FALSE</ntsc>
                      <timebase>25</timebase>
                    </rate>
                    <width>1920</width>
                    <height>1080</height>
                    <pixelaspectratio>Square</pixelaspectratio>
                    <anamorphic>FALSE</anamorphic>
                  </samplecharacteristics>
                </video>
              </media>
            </file>
            <sourcetrack>
              <mediatype>video</mediatype>
            </sourcetrack>
            <fielddominance>none</fielddominance>
          </clipitem>
          <clipitem id="C.png325">
            <name>C.png</name>
            <duration>5.63</duration>
            <rate>
              <ntsc>FALSE</ntsc>
              <timebase>25</timebase>
            </rate>
            <in>91186.88</in>
            <out>91192.516</out>
            <start>1186.88</start>
            <end>1192.51</end>
            <pixelaspectratio>Square</pixelaspectratio>
            <stillframe>TRUE</stillframe>
            <anamorphic>FALSE</anamorphic>
            <alphatype>straight</alphatype>
            <masterclipid>C.png325</masterclipid>
            <file id="C">
              <name>C.png</name>
              <pathurl>D:/Codes/SynthLip/SynthLipN/bin/Release/net6.0-windows8.0/publish/Skin/template/C.png</pathurl>
              <rate>
                <ntsc>FALSE</ntsc>
                <timebase>25</timebase>
              </rate>
              <duration>2</duration>
              <width>1920</width>
              <height>1080</height>
              <media>
                <video>
                  <duration>2</duration>
                  <stillframe>TRUE</stillframe>
                  <samplecharacteristics>
                    <rate>
                      <ntsc>FALSE</ntsc>
                      <timebase>25</timebase>
                    </rate>
                    <width>1920</width>
                    <height>1080</height>
                    <pixelaspectratio>Square</pixelaspectratio>
                    <anamorphic>FALSE</anamorphic>
                  </samplecharacteristics>
                </video>
              </media>
            </file>
            <sourcetrack>
              <mediatype>video</mediatype>
            </sourcetrack>
            <fielddominance>none</fielddominance>
          </clipitem>
          <clipitem id="C.png324">
            <name>C.png</name>
            <duration>1.41</duration>
            <rate>
              <ntsc>FALSE</ntsc>
              <timebase>25</timebase>
            </rate>
            <in>91185.47</in>
            <out>91186.875</out>
            <start>1185.47</start>
            <end>1186.88</end>
            <pixelaspectratio>Square</pixelaspectratio>
            <stillframe>TRUE</stillframe>
            <anamorphic>FALSE</anamorphic>
            <alphatype>straight</alphatype>
            <masterclipid>C.png324</masterclipid>
            <file id="C">
              <name>C.png</name>
              <pathurl>D:/Codes/SynthLip/SynthLipN/bin/Release/net6.0-windows8.0/publish/Skin/template/C.png</pathurl>
              <rate>
                <ntsc>FALSE</ntsc>
                <timebase>25</timebase>
              </rate>
              <duration>2</duration>
              <width>1920</width>
              <height>1080</height>
              <media>
                <video>
                  <duration>2</duration>
                  <stillframe>TRUE</stillframe>
                  <samplecharacteristics>
                    <rate>
                      <ntsc>FALSE</ntsc>
                      <timebase>25</timebase>
                    </rate>
                    <width>1920</width>
                    <height>1080</height>
                    <pixelaspectratio>Square</pixelaspectratio>
                    <anamorphic>FALSE</anamorphic>
                  </samplecharacteristics>
                </video>
              </media>
            </file>
            <sourcetrack>
              <mediatype>video</mediatype>
            </sourcetrack>
            <fielddominance>none</fielddominance>
          </clipitem>
          <clipitem id="B.png323">
            <name>B.png</name>
            <duration>0.47</duration>
            <rate>
              <ntsc>FALSE</ntsc>
              <timebase>25</timebase>
            </rate>
            <in>91185</in>
            <out>91185.47</out>
            <start>1185</start>
            <end>1185.47</end>
            <pixelaspectratio>Square</pixelaspectratio>
            <stillframe>TRUE</stillframe>
            <anamorphic>FALSE</anamorphic>
            <alphatype>straight</alphatype>
            <masterclipid>B.png323</masterclipid>
            <file id="B">
              <name>B.png</name>
              <pathurl>D:/Codes/SynthLip/SynthLipN/bin/Release/net6.0-windows8.0/publish/Skin/template/B.png</pathurl>
              <rate>
                <ntsc>FALSE</ntsc>
                <timebase>25</timebase>
              </rate>
              <duration>2</duration>
              <width>1920</width>
              <height>1080</height>
              <media>
                <video>
                  <duration>2</duration>
                  <stillframe>TRUE</stillframe>
                  <samplecharacteristics>
                    <rate>
                      <ntsc>FALSE</ntsc>
                      <timebase>25</timebase>
                    </rate>
                    <width>1920</width>
                    <height>1080</height>
                    <pixelaspectratio>Square</pixelaspectratio>
                    <anamorphic>FALSE</anamorphic>
                  </samplecharacteristics>
                </video>
              </media>
            </file>
            <sourcetrack>
              <mediatype>video</mediatype>
            </sourcetrack>
            <fielddominance>none</fielddominance>
          </clipitem>
          <clipitem id="C.png322">
            <name>C.png</name>
            <duration>5.63</duration>
            <rate>
              <ntsc>FALSE</ntsc>
              <timebase>25</timebase>
            </rate>
            <in>91179.38</in>
            <out>91185.016</out>
            <start>1179.38</start>
            <end>1185.01</end>
            <pixelaspectratio>Square</pixelaspectratio>
            <stillframe>TRUE</stillframe>
            <anamorphic>FALSE</anamorphic>
            <alphatype>straight</alphatype>
            <masterclipid>C.png322</masterclipid>
            <file id="C">
              <name>C.png</name>
              <pathurl>D:/Codes/SynthLip/SynthLipN/bin/Release/net6.0-windows8.0/publish/Skin/template/C.png</pathurl>
              <rate>
                <ntsc>FALSE</ntsc>
                <timebase>25</timebase>
              </rate>
              <duration>2</duration>
              <width>1920</width>
              <height>1080</height>
              <media>
                <video>
                  <duration>2</duration>
                  <stillframe>TRUE</stillframe>
                  <samplecharacteristics>
                    <rate>
                      <ntsc>FALSE</ntsc>
                      <timebase>25</timebase>
                    </rate>
                    <width>1920</width>
                    <height>1080</height>
                    <pixelaspectratio>Square</pixelaspectratio>
                    <anamorphic>FALSE</anamorphic>
                  </samplecharacteristics>
                </video>
              </media>
            </file>
            <sourcetrack>
              <mediatype>video</mediatype>
            </sourcetrack>
            <fielddominance>none</fielddominance>
          </clipitem>
          <clipitem id="B.png321">
            <name>B.png</name>
            <duration>1.88</duration>
            <rate>
              <ntsc>FALSE</ntsc>
              <timebase>25</timebase>
            </rate>
            <in>91177.5</in>
            <out>91179.38</out>
            <start>1177.5</start>
            <end>1179.38</end>
            <pixelaspectratio>Square</pixelaspectratio>
            <stillframe>TRUE</stillframe>
            <anamorphic>FALSE</anamorphic>
            <alphatype>straight</alphatype>
            <masterclipid>B.png321</masterclipid>
            <file id="B">
              <name>B.png</name>
              <pathurl>D:/Codes/SynthLip/SynthLipN/bin/Release/net6.0-windows8.0/publish/Skin/template/B.png</pathurl>
              <rate>
                <ntsc>FALSE</ntsc>
                <timebase>25</timebase>
              </rate>
              <duration>2</duration>
              <width>1920</width>
              <height>1080</height>
              <media>
                <video>
                  <duration>2</duration>
                  <stillframe>TRUE</stillframe>
                  <samplecharacteristics>
                    <rate>
                      <ntsc>FALSE</ntsc>
                      <timebase>25</timebase>
                    </rate>
                    <width>1920</width>
                    <height>1080</height>
                    <pixelaspectratio>Square</pixelaspectratio>
                    <anamorphic>FALSE</anamorphic>
                  </samplecharacteristics>
                </video>
              </media>
            </file>
            <sourcetrack>
              <mediatype>video</mediatype>
            </sourcetrack>
            <fielddominance>none</fielddominance>
          </clipitem>
          <clipitem id="F.png320">
            <name>F.png</name>
            <duration>5.62</duration>
            <rate>
              <ntsc>FALSE</ntsc>
              <timebase>25</timebase>
            </rate>
            <in>91171.88</in>
            <out>91177.5</out>
            <start>1171.88</start>
            <end>1177.5</end>
            <pixelaspectratio>Square</pixelaspectratio>
            <stillframe>TRUE</stillframe>
            <anamorphic>FALSE</anamorphic>
            <alphatype>straight</alphatype>
            <masterclipid>F.png320</masterclipid>
            <file id="F">
              <name>F.png</name>
              <pathurl>D:/Codes/SynthLip/SynthLipN/bin/Release/net6.0-windows8.0/publish/Skin/template/F.png</pathurl>
              <rate>
                <ntsc>FALSE</ntsc>
                <timebase>25</timebase>
              </rate>
              <duration>2</duration>
              <width>1920</width>
              <height>1080</height>
              <media>
                <video>
                  <duration>2</duration>
                  <stillframe>TRUE</stillframe>
                  <samplecharacteristics>
                    <rate>
                      <ntsc>FALSE</ntsc>
                      <timebase>25</timebase>
                    </rate>
                    <width>1920</width>
                    <height>1080</height>
                    <pixelaspectratio>Square</pixelaspectratio>
                    <anamorphic>FALSE</anamorphic>
                  </samplecharacteristics>
                </video>
              </media>
            </file>
            <sourcetrack>
              <mediatype>video</mediatype>
            </sourcetrack>
            <fielddominance>none</fielddominance>
          </clipitem>
          <clipitem id="F.png319">
            <name>F.png</name>
            <duration>1.09</duration>
            <rate>
              <ntsc>FALSE</ntsc>
              <timebase>25</timebase>
            </rate>
            <in>91170.78</in>
            <out>91171.875</out>
            <start>1170.78</start>
            <end>1171.87</end>
            <pixelaspectratio>Square</pixelaspectratio>
            <stillframe>TRUE</stillframe>
            <anamorphic>FALSE</anamorphic>
            <alphatype>straight</alphatype>
            <masterclipid>F.png319</masterclipid>
            <file id="F">
              <name>F.png</name>
              <pathurl>D:/Codes/SynthLip/SynthLipN/bin/Release/net6.0-windows8.0/publish/Skin/template/F.png</pathurl>
              <rate>
                <ntsc>FALSE</ntsc>
                <timebase>25</timebase>
              </rate>
              <duration>2</duration>
              <width>1920</width>
              <height>1080</height>
              <media>
                <video>
                  <duration>2</duration>
                  <stillframe>TRUE</stillframe>
                  <samplecharacteristics>
                    <rate>
                      <ntsc>FALSE</ntsc>
                      <timebase>25</timebase>
                    </rate>
                    <width>1920</width>
                    <height>1080</height>
                    <pixelaspectratio>Square</pixelaspectratio>
                    <anamorphic>FALSE</anamorphic>
                  </samplecharacteristics>
                </video>
              </media>
            </file>
            <sourcetrack>
              <mediatype>video</mediatype>
            </sourcetrack>
            <fielddominance>none</fielddominance>
          </clipitem>
          <clipitem id="B.png318">
            <name>B.png</name>
            <duration>0.47</duration>
            <rate>
              <ntsc>FALSE</ntsc>
              <timebase>25</timebase>
            </rate>
            <in>91170.31</in>
            <out>91170.78</out>
            <start>1170.31</start>
            <end>1170.78</end>
            <pixelaspectratio>Square</pixelaspectratio>
            <stillframe>TRUE</stillframe>
            <anamorphic>FALSE</anamorphic>
            <alphatype>straight</alphatype>
            <masterclipid>B.png318</masterclipid>
            <file id="B">
              <name>B.png</name>
              <pathurl>D:/Codes/SynthLip/SynthLipN/bin/Release/net6.0-windows8.0/publish/Skin/template/B.png</pathurl>
              <rate>
                <ntsc>FALSE</ntsc>
                <timebase>25</timebase>
              </rate>
              <duration>2</duration>
              <width>1920</width>
              <height>1080</height>
              <media>
                <video>
                  <duration>2</duration>
                  <stillframe>TRUE</stillframe>
                  <samplecharacteristics>
                    <rate>
                      <ntsc>FALSE</ntsc>
                      <timebase>25</timebase>
                    </rate>
                    <width>1920</width>
                    <height>1080</height>
                    <pixelaspectratio>Square</pixelaspectratio>
                    <anamorphic>FALSE</anamorphic>
                  </samplecharacteristics>
                </video>
              </media>
            </file>
            <sourcetrack>
              <mediatype>video</mediatype>
            </sourcetrack>
            <fielddominance>none</fielddominance>
          </clipitem>
          <clipitem id="G.png317">
            <name>G.png</name>
            <duration>0.31</duration>
            <rate>
              <ntsc>FALSE</ntsc>
              <timebase>25</timebase>
            </rate>
            <in>91170</in>
            <out>91170.31</out>
            <start>1170</start>
            <end>1170.31</end>
            <pixelaspectratio>Square</pixelaspectratio>
            <stillframe>TRUE</stillframe>
            <anamorphic>FALSE</anamorphic>
            <alphatype>straight</alphatype>
            <masterclipid>G.png317</masterclipid>
            <file id="G">
              <name>G.png</name>
              <pathurl>D:/Codes/SynthLip/SynthLipN/bin/Release/net6.0-windows8.0/publish/Skin/template/G.png</pathurl>
              <rate>
                <ntsc>FALSE</ntsc>
                <timebase>25</timebase>
              </rate>
              <duration>2</duration>
              <width>1920</width>
              <height>1080</height>
              <media>
                <video>
                  <duration>2</duration>
                  <stillframe>TRUE</stillframe>
                  <samplecharacteristics>
                    <rate>
                      <ntsc>FALSE</ntsc>
                      <timebase>25</timebase>
                    </rate>
                    <width>1920</width>
                    <height>1080</height>
                    <pixelaspectratio>Square</pixelaspectratio>
                    <anamorphic>FALSE</anamorphic>
                  </samplecharacteristics>
                </video>
              </media>
            </file>
            <sourcetrack>
              <mediatype>video</mediatype>
            </sourcetrack>
            <fielddominance>none</fielddominance>
          </clipitem>
          <clipitem id="G.png316">
            <name>G.png</name>
            <duration>4.45</duration>
            <rate>
              <ntsc>FALSE</ntsc>
              <timebase>25</timebase>
            </rate>
            <in>91165.55</in>
            <out>91170</out>
            <start>1165.55</start>
            <end>1170</end>
            <pixelaspectratio>Square</pixelaspectratio>
            <stillframe>TRUE</stillframe>
            <anamorphic>FALSE</anamorphic>
            <alphatype>straight</alphatype>
            <masterclipid>G.png316</masterclipid>
            <file id="G">
              <name>G.png</name>
              <pathurl>D:/Codes/SynthLip/SynthLipN/bin/Release/net6.0-windows8.0/publish/Skin/template/G.png</pathurl>
              <rate>
                <ntsc>FALSE</ntsc>
                <timebase>25</timebase>
              </rate>
              <duration>2</duration>
              <width>1920</width>
              <height>1080</height>
              <media>
                <video>
                  <duration>2</duration>
                  <stillframe>TRUE</stillframe>
                  <samplecharacteristics>
                    <rate>
                      <ntsc>FALSE</ntsc>
                      <timebase>25</timebase>
                    </rate>
                    <width>1920</width>
                    <height>1080</height>
                    <pixelaspectratio>Square</pixelaspectratio>
                    <anamorphic>FALSE</anamorphic>
                  </samplecharacteristics>
                </video>
              </media>
            </file>
            <sourcetrack>
              <mediatype>video</mediatype>
            </sourcetrack>
            <fielddominance>none</fielddominance>
          </clipitem>
          <clipitem id="G.png315">
            <name>G.png</name>
            <duration>0.7</duration>
            <rate>
              <ntsc>FALSE</ntsc>
              <timebase>25</timebase>
            </rate>
            <in>91164.84</in>
            <out>91165.55</out>
            <start>1164.84</start>
            <end>1165.5399</end>
            <pixelaspectratio>Square</pixelaspectratio>
            <stillframe>TRUE</stillframe>
            <anamorphic>FALSE</anamorphic>
            <alphatype>straight</alphatype>
            <masterclipid>G.png315</masterclipid>
            <file id="G">
              <name>G.png</name>
              <pathurl>D:/Codes/SynthLip/SynthLipN/bin/Release/net6.0-windows8.0/publish/Skin/template/G.png</pathurl>
              <rate>
                <ntsc>FALSE</ntsc>
                <timebase>25</timebase>
              </rate>
              <duration>2</duration>
              <width>1920</width>
              <height>1080</height>
              <media>
                <video>
                  <duration>2</duration>
                  <stillframe>TRUE</stillframe>
                  <samplecharacteristics>
                    <rate>
                      <ntsc>FALSE</ntsc>
                      <timebase>25</timebase>
                    </rate>
                    <width>1920</width>
                    <height>1080</height>
                    <pixelaspectratio>Square</pixelaspectratio>
                    <anamorphic>FALSE</anamorphic>
                  </samplecharacteristics>
                </video>
              </media>
            </file>
            <sourcetrack>
              <mediatype>video</mediatype>
            </sourcetrack>
            <fielddominance>none</fielddominance>
          </clipitem>
          <clipitem id="H.png314">
            <name>H.png</name>
            <duration>0.47</duration>
            <rate>
              <ntsc>FALSE</ntsc>
              <timebase>25</timebase>
            </rate>
            <in>91164.38</in>
            <out>91164.85</out>
            <start>1164.38</start>
            <end>1164.85</end>
            <pixelaspectratio>Square</pixelaspectratio>
            <stillframe>TRUE</stillframe>
            <anamorphic>FALSE</anamorphic>
            <alphatype>straight</alphatype>
            <masterclipid>H.png314</masterclipid>
            <file id="H">
              <name>H.png</name>
              <pathurl>D:/Codes/SynthLip/SynthLipN/bin/Release/net6.0-windows8.0/publish/Skin/template/H.png</pathurl>
              <rate>
                <ntsc>FALSE</ntsc>
                <timebase>25</timebase>
              </rate>
              <duration>2</duration>
              <width>1920</width>
              <height>1080</height>
              <media>
                <video>
                  <duration>2</duration>
                  <stillframe>TRUE</stillframe>
                  <samplecharacteristics>
                    <rate>
                      <ntsc>FALSE</ntsc>
                      <timebase>25</timebase>
                    </rate>
                    <width>1920</width>
                    <height>1080</height>
                    <pixelaspectratio>Square</pixelaspectratio>
                    <anamorphic>FALSE</anamorphic>
                  </samplecharacteristics>
                </video>
              </media>
            </file>
            <sourcetrack>
              <mediatype>video</mediatype>
            </sourcetrack>
            <fielddominance>none</fielddominance>
          </clipitem>
          <clipitem id="C.png313">
            <name>C.png</name>
            <duration>1.41</duration>
            <rate>
              <ntsc>FALSE</ntsc>
              <timebase>25</timebase>
            </rate>
            <in>91162.97</in>
            <out>91164.375</out>
            <start>1162.97</start>
            <end>1164.38</end>
            <pixelaspectratio>Square</pixelaspectratio>
            <stillframe>TRUE</stillframe>
            <anamorphic>FALSE</anamorphic>
            <alphatype>straight</alphatype>
            <masterclipid>C.png313</masterclipid>
            <file id="C">
              <name>C.png</name>
              <pathurl>D:/Codes/SynthLip/SynthLipN/bin/Release/net6.0-windows8.0/publish/Skin/template/C.png</pathurl>
              <rate>
                <ntsc>FALSE</ntsc>
                <timebase>25</timebase>
              </rate>
              <duration>2</duration>
              <width>1920</width>
              <height>1080</height>
              <media>
                <video>
                  <duration>2</duration>
                  <stillframe>TRUE</stillframe>
                  <samplecharacteristics>
                    <rate>
                      <ntsc>FALSE</ntsc>
                      <timebase>25</timebase>
                    </rate>
                    <width>1920</width>
                    <height>1080</height>
                    <pixelaspectratio>Square</pixelaspectratio>
                    <anamorphic>FALSE</anamorphic>
                  </samplecharacteristics>
                </video>
              </media>
            </file>
            <sourcetrack>
              <mediatype>video</mediatype>
            </sourcetrack>
            <fielddominance>none</fielddominance>
          </clipitem>
          <clipitem id="G.png312">
            <name>G.png</name>
            <duration>0.47</duration>
            <rate>
              <ntsc>FALSE</ntsc>
              <timebase>25</timebase>
            </rate>
            <in>91162.5</in>
            <out>91162.97</out>
            <start>1162.5</start>
            <end>1162.97</end>
            <pixelaspectratio>Square</pixelaspectratio>
            <stillframe>TRUE</stillframe>
            <anamorphic>FALSE</anamorphic>
            <alphatype>straight</alphatype>
            <masterclipid>G.png312</masterclipid>
            <file id="G">
              <name>G.png</name>
              <pathurl>D:/Codes/SynthLip/SynthLipN/bin/Release/net6.0-windows8.0/publish/Skin/template/G.png</pathurl>
              <rate>
                <ntsc>FALSE</ntsc>
                <timebase>25</timebase>
              </rate>
              <duration>2</duration>
              <width>1920</width>
              <height>1080</height>
              <media>
                <video>
                  <duration>2</duration>
                  <stillframe>TRUE</stillframe>
                  <samplecharacteristics>
                    <rate>
                      <ntsc>FALSE</ntsc>
                      <timebase>25</timebase>
                    </rate>
                    <width>1920</width>
                    <height>1080</height>
                    <pixelaspectratio>Square</pixelaspectratio>
                    <anamorphic>FALSE</anamorphic>
                  </samplecharacteristics>
                </video>
              </media>
            </file>
            <sourcetrack>
              <mediatype>video</mediatype>
            </sourcetrack>
            <fielddominance>none</fielddominance>
          </clipitem>
          <clipitem id="C.png311">
            <name>C.png</name>
            <duration>5.62</duration>
            <rate>
              <ntsc>FALSE</ntsc>
              <timebase>25</timebase>
            </rate>
            <in>91156.88</in>
            <out>91162.5</out>
            <start>1156.88</start>
            <end>1162.5</end>
            <pixelaspectratio>Square</pixelaspectratio>
            <stillframe>TRUE</stillframe>
            <anamorphic>FALSE</anamorphic>
            <alphatype>straight</alphatype>
            <masterclipid>C.png311</masterclipid>
            <file id="C">
              <name>C.png</name>
              <pathurl>D:/Codes/SynthLip/SynthLipN/bin/Release/net6.0-windows8.0/publish/Skin/template/C.png</pathurl>
              <rate>
                <ntsc>FALSE</ntsc>
                <timebase>25</timebase>
              </rate>
              <duration>2</duration>
              <width>1920</width>
              <height>1080</height>
              <media>
                <video>
                  <duration>2</duration>
                  <stillframe>TRUE</stillframe>
                  <samplecharacteristics>
                    <rate>
                      <ntsc>FALSE</ntsc>
                      <timebase>25</timebase>
                    </rate>
                    <width>1920</width>
                    <height>1080</height>
                    <pixelaspectratio>Square</pixelaspectratio>
                    <anamorphic>FALSE</anamorphic>
                  </samplecharacteristics>
                </video>
              </media>
            </file>
            <sourcetrack>
              <mediatype>video</mediatype>
            </sourcetrack>
            <fielddominance>none</fielddominance>
          </clipitem>
          <clipitem id="C.png310">
            <name>C.png</name>
            <duration>1.88</duration>
            <rate>
              <ntsc>FALSE</ntsc>
              <timebase>25</timebase>
            </rate>
            <in>91155</in>
            <out>91156.88</out>
            <start>1155</start>
            <end>1156.88</end>
            <pixelaspectratio>Square</pixelaspectratio>
            <stillframe>TRUE</stillframe>
            <anamorphic>FALSE</anamorphic>
            <alphatype>straight</alphatype>
            <masterclipid>C.png310</masterclipid>
            <file id="C">
              <name>C.png</name>
              <pathurl>D:/Codes/SynthLip/SynthLipN/bin/Release/net6.0-windows8.0/publish/Skin/template/C.png</pathurl>
              <rate>
                <ntsc>FALSE</ntsc>
                <timebase>25</timebase>
              </rate>
              <duration>2</duration>
              <width>1920</width>
              <height>1080</height>
              <media>
                <video>
                  <duration>2</duration>
                  <stillframe>TRUE</stillframe>
                  <samplecharacteristics>
                    <rate>
                      <ntsc>FALSE</ntsc>
                      <timebase>25</timebase>
                    </rate>
                    <width>1920</width>
                    <height>1080</height>
                    <pixelaspectratio>Square</pixelaspectratio>
                    <anamorphic>FALSE</anamorphic>
                  </samplecharacteristics>
                </video>
              </media>
            </file>
            <sourcetrack>
              <mediatype>video</mediatype>
            </sourcetrack>
            <fielddominance>none</fielddominance>
          </clipitem>
          <clipitem id="A.png309">
            <name>A.png</name>
            <duration>32.81</duration>
            <rate>
              <ntsc>FALSE</ntsc>
              <timebase>25</timebase>
            </rate>
            <in>91122.19</in>
            <out>91155</out>
            <start>1122.19</start>
            <end>1155</end>
            <pixelaspectratio>Square</pixelaspectratio>
            <stillframe>TRUE</stillframe>
            <anamorphic>FALSE</anamorphic>
            <alphatype>straight</alphatype>
            <masterclipid>A.png309</masterclipid>
            <file id="A">
              <name>A.png</name>
              <pathurl>D:/Codes/SynthLip/SynthLipN/bin/Release/net6.0-windows8.0/publish/Skin/template/A.png</pathurl>
              <rate>
                <ntsc>FALSE</ntsc>
                <timebase>25</timebase>
              </rate>
              <duration>2</duration>
              <width>1920</width>
              <height>1080</height>
              <media>
                <video>
                  <duration>2</duration>
                  <stillframe>TRUE</stillframe>
                  <samplecharacteristics>
                    <rate>
                      <ntsc>FALSE</ntsc>
                      <timebase>25</timebase>
                    </rate>
                    <width>1920</width>
                    <height>1080</height>
                    <pixelaspectratio>Square</pixelaspectratio>
                    <anamorphic>FALSE</anamorphic>
                  </samplecharacteristics>
                </video>
              </media>
            </file>
            <sourcetrack>
              <mediatype>video</mediatype>
            </sourcetrack>
            <fielddominance>none</fielddominance>
          </clipitem>
          <clipitem id="B.png308">
            <name>B.png</name>
            <duration>2.81</duration>
            <rate>
              <ntsc>FALSE</ntsc>
              <timebase>25</timebase>
            </rate>
            <in>91119.38</in>
            <out>91122.195</out>
            <start>1119.38</start>
            <end>1122.1901</end>
            <pixelaspectratio>Square</pixelaspectratio>
            <stillframe>TRUE</stillframe>
            <anamorphic>FALSE</anamorphic>
            <alphatype>straight</alphatype>
            <masterclipid>B.png308</masterclipid>
            <file id="B">
              <name>B.png</name>
              <pathurl>D:/Codes/SynthLip/SynthLipN/bin/Release/net6.0-windows8.0/publish/Skin/template/B.png</pathurl>
              <rate>
                <ntsc>FALSE</ntsc>
                <timebase>25</timebase>
              </rate>
              <duration>2</duration>
              <width>1920</width>
              <height>1080</height>
              <media>
                <video>
                  <duration>2</duration>
                  <stillframe>TRUE</stillframe>
                  <samplecharacteristics>
                    <rate>
                      <ntsc>FALSE</ntsc>
                      <timebase>25</timebase>
                    </rate>
                    <width>1920</width>
                    <height>1080</height>
                    <pixelaspectratio>Square</pixelaspectratio>
                    <anamorphic>FALSE</anamorphic>
                  </samplecharacteristics>
                </video>
              </media>
            </file>
            <sourcetrack>
              <mediatype>video</mediatype>
            </sourcetrack>
            <fielddominance>none</fielddominance>
          </clipitem>
          <clipitem id="B.png307">
            <name>B.png</name>
            <duration>1.88</duration>
            <rate>
              <ntsc>FALSE</ntsc>
              <timebase>25</timebase>
            </rate>
            <in>91117.5</in>
            <out>91119.38</out>
            <start>1117.5</start>
            <end>1119.38</end>
            <pixelaspectratio>Square</pixelaspectratio>
            <stillframe>TRUE</stillframe>
            <anamorphic>FALSE</anamorphic>
            <alphatype>straight</alphatype>
            <masterclipid>B.png307</masterclipid>
            <file id="B">
              <name>B.png</name>
              <pathurl>D:/Codes/SynthLip/SynthLipN/bin/Release/net6.0-windows8.0/publish/Skin/template/B.png</pathurl>
              <rate>
                <ntsc>FALSE</ntsc>
                <timebase>25</timebase>
              </rate>
              <duration>2</duration>
              <width>1920</width>
              <height>1080</height>
              <media>
                <video>
                  <duration>2</duration>
                  <stillframe>TRUE</stillframe>
                  <samplecharacteristics>
                    <rate>
                      <ntsc>FALSE</ntsc>
                      <timebase>25</timebase>
                    </rate>
                    <width>1920</width>
                    <height>1080</height>
                    <pixelaspectratio>Square</pixelaspectratio>
                    <anamorphic>FALSE</anamorphic>
                  </samplecharacteristics>
                </video>
              </media>
            </file>
            <sourcetrack>
              <mediatype>video</mediatype>
            </sourcetrack>
            <fielddominance>none</fielddominance>
          </clipitem>
          <clipitem id="C.png306">
            <name>C.png</name>
            <duration>5.62</duration>
            <rate>
              <ntsc>FALSE</ntsc>
              <timebase>25</timebase>
            </rate>
            <in>91111.88</in>
            <out>91117.5</out>
            <start>1111.88</start>
            <end>1117.5</end>
            <pixelaspectratio>Square</pixelaspectratio>
            <stillframe>TRUE</stillframe>
            <anamorphic>FALSE</anamorphic>
            <alphatype>straight</alphatype>
            <masterclipid>C.png306</masterclipid>
            <file id="C">
              <name>C.png</name>
              <pathurl>D:/Codes/SynthLip/SynthLipN/bin/Release/net6.0-windows8.0/publish/Skin/template/C.png</pathurl>
              <rate>
                <ntsc>FALSE</ntsc>
                <timebase>25</timebase>
              </rate>
              <duration>2</duration>
              <width>1920</width>
              <height>1080</height>
              <media>
                <video>
                  <duration>2</duration>
                  <stillframe>TRUE</stillframe>
                  <samplecharacteristics>
                    <rate>
                      <ntsc>FALSE</ntsc>
                      <timebase>25</timebase>
                    </rate>
                    <width>1920</width>
                    <height>1080</height>
                    <pixelaspectratio>Square</pixelaspectratio>
                    <anamorphic>FALSE</anamorphic>
                  </samplecharacteristics>
                </video>
              </media>
            </file>
            <sourcetrack>
              <mediatype>video</mediatype>
            </sourcetrack>
            <fielddominance>none</fielddominance>
          </clipitem>
          <clipitem id="G.png305">
            <name>G.png</name>
            <duration>1.88</duration>
            <rate>
              <ntsc>FALSE</ntsc>
              <timebase>25</timebase>
            </rate>
            <in>91110</in>
            <out>91111.88</out>
            <start>1110</start>
            <end>1111.88</end>
            <pixelaspectratio>Square</pixelaspectratio>
            <stillframe>TRUE</stillframe>
            <anamorphic>FALSE</anamorphic>
            <alphatype>straight</alphatype>
            <masterclipid>G.png305</masterclipid>
            <file id="G">
              <name>G.png</name>
              <pathurl>D:/Codes/SynthLip/SynthLipN/bin/Release/net6.0-windows8.0/publish/Skin/template/G.png</pathurl>
              <rate>
                <ntsc>FALSE</ntsc>
                <timebase>25</timebase>
              </rate>
              <duration>2</duration>
              <width>1920</width>
              <height>1080</height>
              <media>
                <video>
                  <duration>2</duration>
                  <stillframe>TRUE</stillframe>
                  <samplecharacteristics>
                    <rate>
                      <ntsc>FALSE</ntsc>
                      <timebase>25</timebase>
                    </rate>
                    <width>1920</width>
                    <height>1080</height>
                    <pixelaspectratio>Square</pixelaspectratio>
                    <anamorphic>FALSE</anamorphic>
                  </samplecharacteristics>
                </video>
              </media>
            </file>
            <sourcetrack>
              <mediatype>video</mediatype>
            </sourcetrack>
            <fielddominance>none</fielddominance>
          </clipitem>
          <clipitem id="B.png304">
            <name>B.png</name>
            <duration>4.38</duration>
            <rate>
              <ntsc>FALSE</ntsc>
              <timebase>25</timebase>
            </rate>
            <in>91105.63</in>
            <out>91110.016</out>
            <start>1105.63</start>
            <end>1110.01</end>
            <pixelaspectratio>Square</pixelaspectratio>
            <stillframe>TRUE</stillframe>
            <anamorphic>FALSE</anamorphic>
            <alphatype>straight</alphatype>
            <masterclipid>B.png304</masterclipid>
            <file id="B">
              <name>B.png</name>
              <pathurl>D:/Codes/SynthLip/SynthLipN/bin/Release/net6.0-windows8.0/publish/Skin/template/B.png</pathurl>
              <rate>
                <ntsc>FALSE</ntsc>
                <timebase>25</timebase>
              </rate>
              <duration>2</duration>
              <width>1920</width>
              <height>1080</height>
              <media>
                <video>
                  <duration>2</duration>
                  <stillframe>TRUE</stillframe>
                  <samplecharacteristics>
                    <rate>
                      <ntsc>FALSE</ntsc>
                      <timebase>25</timebase>
                    </rate>
                    <width>1920</width>
                    <height>1080</height>
                    <pixelaspectratio>Square</pixelaspectratio>
                    <anamorphic>FALSE</anamorphic>
                  </samplecharacteristics>
                </video>
              </media>
            </file>
            <sourcetrack>
              <mediatype>video</mediatype>
            </sourcetrack>
            <fielddominance>none</fielddominance>
          </clipitem>
          <clipitem id="B.png303">
            <name>B.png</name>
            <duration>0.63</duration>
            <rate>
              <ntsc>FALSE</ntsc>
              <timebase>25</timebase>
            </rate>
            <in>91105</in>
            <out>91105.63</out>
            <start>1105</start>
            <end>1105.63</end>
            <pixelaspectratio>Square</pixelaspectratio>
            <stillframe>TRUE</stillframe>
            <anamorphic>FALSE</anamorphic>
            <alphatype>straight</alphatype>
            <masterclipid>B.png303</masterclipid>
            <file id="B">
              <name>B.png</name>
              <pathurl>D:/Codes/SynthLip/SynthLipN/bin/Release/net6.0-windows8.0/publish/Skin/template/B.png</pathurl>
              <rate>
                <ntsc>FALSE</ntsc>
                <timebase>25</timebase>
              </rate>
              <duration>2</duration>
              <width>1920</width>
              <height>1080</height>
              <media>
                <video>
                  <duration>2</duration>
                  <stillframe>TRUE</stillframe>
                  <samplecharacteristics>
                    <rate>
                      <ntsc>FALSE</ntsc>
                      <timebase>25</timebase>
                    </rate>
                    <width>1920</width>
                    <height>1080</height>
                    <pixelaspectratio>Square</pixelaspectratio>
                    <anamorphic>FALSE</anamorphic>
                  </samplecharacteristics>
                </video>
              </media>
            </file>
            <sourcetrack>
              <mediatype>video</mediatype>
            </sourcetrack>
            <fielddominance>none</fielddominance>
          </clipitem>
          <clipitem id="F.png302">
            <name>F.png</name>
            <duration>1.87</duration>
            <rate>
              <ntsc>FALSE</ntsc>
              <timebase>25</timebase>
            </rate>
            <in>91103.13</in>
            <out>91105</out>
            <start>1103.13</start>
            <end>1105</end>
            <pixelaspectratio>Square</pixelaspectratio>
            <stillframe>TRUE</stillframe>
            <anamorphic>FALSE</anamorphic>
            <alphatype>straight</alphatype>
            <masterclipid>F.png302</masterclipid>
            <file id="F">
              <name>F.png</name>
              <pathurl>D:/Codes/SynthLip/SynthLipN/bin/Release/net6.0-windows8.0/publish/Skin/template/F.png</pathurl>
              <rate>
                <ntsc>FALSE</ntsc>
                <timebase>25</timebase>
              </rate>
              <duration>2</duration>
              <width>1920</width>
              <height>1080</height>
              <media>
                <video>
                  <duration>2</duration>
                  <stillframe>TRUE</stillframe>
                  <samplecharacteristics>
                    <rate>
                      <ntsc>FALSE</ntsc>
                      <timebase>25</timebase>
                    </rate>
                    <width>1920</width>
                    <height>1080</height>
                    <pixelaspectratio>Square</pixelaspectratio>
                    <anamorphic>FALSE</anamorphic>
                  </samplecharacteristics>
                </video>
              </media>
            </file>
            <sourcetrack>
              <mediatype>video</mediatype>
            </sourcetrack>
            <fielddominance>none</fielddominance>
          </clipitem>
          <clipitem id="H.png301">
            <name>H.png</name>
            <duration>0.62</duration>
            <rate>
              <ntsc>FALSE</ntsc>
              <timebase>25</timebase>
            </rate>
            <in>91102.5</in>
            <out>91103.12</out>
            <start>1102.5</start>
            <end>1103.12</end>
            <pixelaspectratio>Square</pixelaspectratio>
            <stillframe>TRUE</stillframe>
            <anamorphic>FALSE</anamorphic>
            <alphatype>straight</alphatype>
            <masterclipid>H.png301</masterclipid>
            <file id="H">
              <name>H.png</name>
              <pathurl>D:/Codes/SynthLip/SynthLipN/bin/Release/net6.0-windows8.0/publish/Skin/template/H.png</pathurl>
              <rate>
                <ntsc>FALSE</ntsc>
                <timebase>25</timebase>
              </rate>
              <duration>2</duration>
              <width>1920</width>
              <height>1080</height>
              <media>
                <video>
                  <duration>2</duration>
                  <stillframe>TRUE</stillframe>
                  <samplecharacteristics>
                    <rate>
                      <ntsc>FALSE</ntsc>
                      <timebase>25</timebase>
                    </rate>
                    <width>1920</width>
                    <height>1080</height>
                    <pixelaspectratio>Square</pixelaspectratio>
                    <anamorphic>FALSE</anamorphic>
                  </samplecharacteristics>
                </video>
              </media>
            </file>
            <sourcetrack>
              <mediatype>video</mediatype>
            </sourcetrack>
            <fielddominance>none</fielddominance>
          </clipitem>
          <clipitem id="H.png300">
            <name>H.png</name>
            <duration>6.09</duration>
            <rate>
              <ntsc>FALSE</ntsc>
              <timebase>25</timebase>
            </rate>
            <in>91096.41</in>
            <out>91102.5</out>
            <start>1096.41</start>
            <end>1102.5</end>
            <pixelaspectratio>Square</pixelaspectratio>
            <stillframe>TRUE</stillframe>
            <anamorphic>FALSE</anamorphic>
            <alphatype>straight</alphatype>
            <masterclipid>H.png300</masterclipid>
            <file id="H">
              <name>H.png</name>
              <pathurl>D:/Codes/SynthLip/SynthLipN/bin/Release/net6.0-windows8.0/publish/Skin/template/H.png</pathurl>
              <rate>
                <ntsc>FALSE</ntsc>
                <timebase>25</timebase>
              </rate>
              <duration>2</duration>
              <width>1920</width>
              <height>1080</height>
              <media>
                <video>
                  <duration>2</duration>
                  <stillframe>TRUE</stillframe>
                  <samplecharacteristics>
                    <rate>
                      <ntsc>FALSE</ntsc>
                      <timebase>25</timebase>
                    </rate>
                    <width>1920</width>
                    <height>1080</height>
                    <pixelaspectratio>Square</pixelaspectratio>
                    <anamorphic>FALSE</anamorphic>
                  </samplecharacteristics>
                </video>
              </media>
            </file>
            <sourcetrack>
              <mediatype>video</mediatype>
            </sourcetrack>
            <fielddominance>none</fielddominance>
          </clipitem>
          <clipitem id="H.png299">
            <name>H.png</name>
            <duration>0.47</duration>
            <rate>
              <ntsc>FALSE</ntsc>
              <timebase>25</timebase>
            </rate>
            <in>91095.94</in>
            <out>91096.41</out>
            <start>1095.94</start>
            <end>1096.4099</end>
            <pixelaspectratio>Square</pixelaspectratio>
            <stillframe>TRUE</stillframe>
            <anamorphic>FALSE</anamorphic>
            <alphatype>straight</alphatype>
            <masterclipid>H.png299</masterclipid>
            <file id="H">
              <name>H.png</name>
              <pathurl>D:/Codes/SynthLip/SynthLipN/bin/Release/net6.0-windows8.0/publish/Skin/template/H.png</pathurl>
              <rate>
                <ntsc>FALSE</ntsc>
                <timebase>25</timebase>
              </rate>
              <duration>2</duration>
              <width>1920</width>
              <height>1080</height>
              <media>
                <video>
                  <duration>2</duration>
                  <stillframe>TRUE</stillframe>
                  <samplecharacteristics>
                    <rate>
                      <ntsc>FALSE</ntsc>
                      <timebase>25</timebase>
                    </rate>
                    <width>1920</width>
                    <height>1080</height>
                    <pixelaspectratio>Square</pixelaspectratio>
                    <anamorphic>FALSE</anamorphic>
                  </samplecharacteristics>
                </video>
              </media>
            </file>
            <sourcetrack>
              <mediatype>video</mediatype>
            </sourcetrack>
            <fielddominance>none</fielddominance>
          </clipitem>
          <clipitem id="F.png298">
            <name>F.png</name>
            <duration>0.94</duration>
            <rate>
              <ntsc>FALSE</ntsc>
              <timebase>25</timebase>
            </rate>
            <in>91095</in>
            <out>91095.94</out>
            <start>1095</start>
            <end>1095.94</end>
            <pixelaspectratio>Square</pixelaspectratio>
            <stillframe>TRUE</stillframe>
            <anamorphic>FALSE</anamorphic>
            <alphatype>straight</alphatype>
            <masterclipid>F.png298</masterclipid>
            <file id="F">
              <name>F.png</name>
              <pathurl>D:/Codes/SynthLip/SynthLipN/bin/Release/net6.0-windows8.0/publish/Skin/template/F.png</pathurl>
              <rate>
                <ntsc>FALSE</ntsc>
                <timebase>25</timebase>
              </rate>
              <duration>2</duration>
              <width>1920</width>
              <height>1080</height>
              <media>
                <video>
                  <duration>2</duration>
                  <stillframe>TRUE</stillframe>
                  <samplecharacteristics>
                    <rate>
                      <ntsc>FALSE</ntsc>
                      <timebase>25</timebase>
                    </rate>
                    <width>1920</width>
                    <height>1080</height>
                    <pixelaspectratio>Square</pixelaspectratio>
                    <anamorphic>FALSE</anamorphic>
                  </samplecharacteristics>
                </video>
              </media>
            </file>
            <sourcetrack>
              <mediatype>video</mediatype>
            </sourcetrack>
            <fielddominance>none</fielddominance>
          </clipitem>
          <clipitem id="A.png297">
            <name>A.png</name>
            <duration>2.93</duration>
            <rate>
              <ntsc>FALSE</ntsc>
              <timebase>25</timebase>
            </rate>
            <in>91092.07</in>
            <out>91095</out>
            <start>1092.07</start>
            <end>1095</end>
            <pixelaspectratio>Square</pixelaspectratio>
            <stillframe>TRUE</stillframe>
            <anamorphic>FALSE</anamorphic>
            <alphatype>straight</alphatype>
            <masterclipid>A.png297</masterclipid>
            <file id="A">
              <name>A.png</name>
              <pathurl>D:/Codes/SynthLip/SynthLipN/bin/Release/net6.0-windows8.0/publish/Skin/template/A.png</pathurl>
              <rate>
                <ntsc>FALSE</ntsc>
                <timebase>25</timebase>
              </rate>
              <duration>2</duration>
              <width>1920</width>
              <height>1080</height>
              <media>
                <video>
                  <duration>2</duration>
                  <stillframe>TRUE</stillframe>
                  <samplecharacteristics>
                    <rate>
                      <ntsc>FALSE</ntsc>
                      <timebase>25</timebase>
                    </rate>
                    <width>1920</width>
                    <height>1080</height>
                    <pixelaspectratio>Square</pixelaspectratio>
                    <anamorphic>FALSE</anamorphic>
                  </samplecharacteristics>
                </video>
              </media>
            </file>
            <sourcetrack>
              <mediatype>video</mediatype>
            </sourcetrack>
            <fielddominance>none</fielddominance>
          </clipitem>
          <clipitem id="B.png296">
            <name>B.png</name>
            <duration>1.05</duration>
            <rate>
              <ntsc>FALSE</ntsc>
              <timebase>25</timebase>
            </rate>
            <in>91091.02</in>
            <out>91092.07</out>
            <start>1091.02</start>
            <end>1092.0701</end>
            <pixelaspectratio>Square</pixelaspectratio>
            <stillframe>TRUE</stillframe>
            <anamorphic>FALSE</anamorphic>
            <alphatype>straight</alphatype>
            <masterclipid>B.png296</masterclipid>
            <file id="B">
              <name>B.png</name>
              <pathurl>D:/Codes/SynthLip/SynthLipN/bin/Release/net6.0-windows8.0/publish/Skin/template/B.png</pathurl>
              <rate>
                <ntsc>FALSE</ntsc>
                <timebase>25</timebase>
              </rate>
              <duration>2</duration>
              <width>1920</width>
              <height>1080</height>
              <media>
                <video>
                  <duration>2</duration>
                  <stillframe>TRUE</stillframe>
                  <samplecharacteristics>
                    <rate>
                      <ntsc>FALSE</ntsc>
                      <timebase>25</timebase>
                    </rate>
                    <width>1920</width>
                    <height>1080</height>
                    <pixelaspectratio>Square</pixelaspectratio>
                    <anamorphic>FALSE</anamorphic>
                  </samplecharacteristics>
                </video>
              </media>
            </file>
            <sourcetrack>
              <mediatype>video</mediatype>
            </sourcetrack>
            <fielddominance>none</fielddominance>
          </clipitem>
          <clipitem id="B.png295">
            <name>B.png</name>
            <duration>0.7</duration>
            <rate>
              <ntsc>FALSE</ntsc>
              <timebase>25</timebase>
            </rate>
            <in>91090.31</in>
            <out>91091.016</out>
            <start>1090.31</start>
            <end>1091.01</end>
            <pixelaspectratio>Square</pixelaspectratio>
            <stillframe>TRUE</stillframe>
            <anamorphic>FALSE</anamorphic>
            <alphatype>straight</alphatype>
            <masterclipid>B.png295</masterclipid>
            <file id="B">
              <name>B.png</name>
              <pathurl>D:/Codes/SynthLip/SynthLipN/bin/Release/net6.0-windows8.0/publish/Skin/template/B.png</pathurl>
              <rate>
                <ntsc>FALSE</ntsc>
                <timebase>25</timebase>
              </rate>
              <duration>2</duration>
              <width>1920</width>
              <height>1080</height>
              <media>
                <video>
                  <duration>2</duration>
                  <stillframe>TRUE</stillframe>
                  <samplecharacteristics>
                    <rate>
                      <ntsc>FALSE</ntsc>
                      <timebase>25</timebase>
                    </rate>
                    <width>1920</width>
                    <height>1080</height>
                    <pixelaspectratio>Square</pixelaspectratio>
                    <anamorphic>FALSE</anamorphic>
                  </samplecharacteristics>
                </video>
              </media>
            </file>
            <sourcetrack>
              <mediatype>video</mediatype>
            </sourcetrack>
            <fielddominance>none</fielddominance>
          </clipitem>
          <clipitem id="C.png294">
            <name>C.png</name>
            <duration>2.11</duration>
            <rate>
              <ntsc>FALSE</ntsc>
              <timebase>25</timebase>
            </rate>
            <in>91088.2</in>
            <out>91090.31</out>
            <start>1088.2</start>
            <end>1090.3099</end>
            <pixelaspectratio>Square</pixelaspectratio>
            <stillframe>TRUE</stillframe>
            <anamorphic>FALSE</anamorphic>
            <alphatype>straight</alphatype>
            <masterclipid>C.png294</masterclipid>
            <file id="C">
              <name>C.png</name>
              <pathurl>D:/Codes/SynthLip/SynthLipN/bin/Release/net6.0-windows8.0/publish/Skin/template/C.png</pathurl>
              <rate>
                <ntsc>FALSE</ntsc>
                <timebase>25</timebase>
              </rate>
              <duration>2</duration>
              <width>1920</width>
              <height>1080</height>
              <media>
                <video>
                  <duration>2</duration>
                  <stillframe>TRUE</stillframe>
                  <samplecharacteristics>
                    <rate>
                      <ntsc>FALSE</ntsc>
                      <timebase>25</timebase>
                    </rate>
                    <width>1920</width>
                    <height>1080</height>
                    <pixelaspectratio>Square</pixelaspectratio>
                    <anamorphic>FALSE</anamorphic>
                  </samplecharacteristics>
                </video>
              </media>
            </file>
            <sourcetrack>
              <mediatype>video</mediatype>
            </sourcetrack>
            <fielddominance>none</fielddominance>
          </clipitem>
          <clipitem id="G.png293">
            <name>G.png</name>
            <duration>0.7</duration>
            <rate>
              <ntsc>FALSE</ntsc>
              <timebase>25</timebase>
            </rate>
            <in>91087.5</in>
            <out>91088.2</out>
            <start>1087.5</start>
            <end>1088.2</end>
            <pixelaspectratio>Square</pixelaspectratio>
            <stillframe>TRUE</stillframe>
            <anamorphic>FALSE</anamorphic>
            <alphatype>straight</alphatype>
            <masterclipid>G.png293</masterclipid>
            <file id="G">
              <name>G.png</name>
              <pathurl>D:/Codes/SynthLip/SynthLipN/bin/Release/net6.0-windows8.0/publish/Skin/template/G.png</pathurl>
              <rate>
                <ntsc>FALSE</ntsc>
                <timebase>25</timebase>
              </rate>
              <duration>2</duration>
              <width>1920</width>
              <height>1080</height>
              <media>
                <video>
                  <duration>2</duration>
                  <stillframe>TRUE</stillframe>
                  <samplecharacteristics>
                    <rate>
                      <ntsc>FALSE</ntsc>
                      <timebase>25</timebase>
                    </rate>
                    <width>1920</width>
                    <height>1080</height>
                    <pixelaspectratio>Square</pixelaspectratio>
                    <anamorphic>FALSE</anamorphic>
                  </samplecharacteristics>
                </video>
              </media>
            </file>
            <sourcetrack>
              <mediatype>video</mediatype>
            </sourcetrack>
            <fielddominance>none</fielddominance>
          </clipitem>
          <clipitem id="F.png292">
            <name>F.png</name>
            <duration>5.62</duration>
            <rate>
              <ntsc>FALSE</ntsc>
              <timebase>25</timebase>
            </rate>
            <in>91081.88</in>
            <out>91087.5</out>
            <start>1081.88</start>
            <end>1087.5</end>
            <pixelaspectratio>Square</pixelaspectratio>
            <stillframe>TRUE</stillframe>
            <anamorphic>FALSE</anamorphic>
            <alphatype>straight</alphatype>
            <masterclipid>F.png292</masterclipid>
            <file id="F">
              <name>F.png</name>
              <pathurl>D:/Codes/SynthLip/SynthLipN/bin/Release/net6.0-windows8.0/publish/Skin/template/F.png</pathurl>
              <rate>
                <ntsc>FALSE</ntsc>
                <timebase>25</timebase>
              </rate>
              <duration>2</duration>
              <width>1920</width>
              <height>1080</height>
              <media>
                <video>
                  <duration>2</duration>
                  <stillframe>TRUE</stillframe>
                  <samplecharacteristics>
                    <rate>
                      <ntsc>FALSE</ntsc>
                      <timebase>25</timebase>
                    </rate>
                    <width>1920</width>
                    <height>1080</height>
                    <pixelaspectratio>Square</pixelaspectratio>
                    <anamorphic>FALSE</anamorphic>
                  </samplecharacteristics>
                </video>
              </media>
            </file>
            <sourcetrack>
              <mediatype>video</mediatype>
            </sourcetrack>
            <fielddominance>none</fielddominance>
          </clipitem>
          <clipitem id="F.png291">
            <name>F.png</name>
            <duration>1.41</duration>
            <rate>
              <ntsc>FALSE</ntsc>
              <timebase>25</timebase>
            </rate>
            <in>91080.47</in>
            <out>91081.875</out>
            <start>1080.47</start>
            <end>1081.88</end>
            <pixelaspectratio>Square</pixelaspectratio>
            <stillframe>TRUE</stillframe>
            <anamorphic>FALSE</anamorphic>
            <alphatype>straight</alphatype>
            <masterclipid>F.png291</masterclipid>
            <file id="F">
              <name>F.png</name>
              <pathurl>D:/Codes/SynthLip/SynthLipN/bin/Release/net6.0-windows8.0/publish/Skin/template/F.png</pathurl>
              <rate>
                <ntsc>FALSE</ntsc>
                <timebase>25</timebase>
              </rate>
              <duration>2</duration>
              <width>1920</width>
              <height>1080</height>
              <media>
                <video>
                  <duration>2</duration>
                  <stillframe>TRUE</stillframe>
                  <samplecharacteristics>
                    <rate>
                      <ntsc>FALSE</ntsc>
                      <timebase>25</timebase>
                    </rate>
                    <width>1920</width>
                    <height>1080</height>
                    <pixelaspectratio>Square</pixelaspectratio>
                    <anamorphic>FALSE</anamorphic>
                  </samplecharacteristics>
                </video>
              </media>
            </file>
            <sourcetrack>
              <mediatype>video</mediatype>
            </sourcetrack>
            <fielddominance>none</fielddominance>
          </clipitem>
          <clipitem id="B.png290">
            <name>B.png</name>
            <duration>0.47</duration>
            <rate>
              <ntsc>FALSE</ntsc>
              <timebase>25</timebase>
            </rate>
            <in>91080</in>
            <out>91080.47</out>
            <start>1080</start>
            <end>1080.47</end>
            <pixelaspectratio>Square</pixelaspectratio>
            <stillframe>TRUE</stillframe>
            <anamorphic>FALSE</anamorphic>
            <alphatype>straight</alphatype>
            <masterclipid>B.png290</masterclipid>
            <file id="B">
              <name>B.png</name>
              <pathurl>D:/Codes/SynthLip/SynthLipN/bin/Release/net6.0-windows8.0/publish/Skin/template/B.png</pathurl>
              <rate>
                <ntsc>FALSE</ntsc>
                <timebase>25</timebase>
              </rate>
              <duration>2</duration>
              <width>1920</width>
              <height>1080</height>
              <media>
                <video>
                  <duration>2</duration>
                  <stillframe>TRUE</stillframe>
                  <samplecharacteristics>
                    <rate>
                      <ntsc>FALSE</ntsc>
                      <timebase>25</timebase>
                    </rate>
                    <width>1920</width>
                    <height>1080</height>
                    <pixelaspectratio>Square</pixelaspectratio>
                    <anamorphic>FALSE</anamorphic>
                  </samplecharacteristics>
                </video>
              </media>
            </file>
            <sourcetrack>
              <mediatype>video</mediatype>
            </sourcetrack>
            <fielddominance>none</fielddominance>
          </clipitem>
          <clipitem id="C.png289">
            <name>C.png</name>
            <duration>5.62</duration>
            <rate>
              <ntsc>FALSE</ntsc>
              <timebase>25</timebase>
            </rate>
            <in>91074.38</in>
            <out>91080</out>
            <start>1074.38</start>
            <end>1080</end>
            <pixelaspectratio>Square</pixelaspectratio>
            <stillframe>TRUE</stillframe>
            <anamorphic>FALSE</anamorphic>
            <alphatype>straight</alphatype>
            <masterclipid>C.png289</masterclipid>
            <file id="C">
              <name>C.png</name>
              <pathurl>D:/Codes/SynthLip/SynthLipN/bin/Release/net6.0-windows8.0/publish/Skin/template/C.png</pathurl>
              <rate>
                <ntsc>FALSE</ntsc>
                <timebase>25</timebase>
              </rate>
              <duration>2</duration>
              <width>1920</width>
              <height>1080</height>
              <media>
                <video>
                  <duration>2</duration>
                  <stillframe>TRUE</stillframe>
                  <samplecharacteristics>
                    <rate>
                      <ntsc>FALSE</ntsc>
                      <timebase>25</timebase>
                    </rate>
                    <width>1920</width>
                    <height>1080</height>
                    <pixelaspectratio>Square</pixelaspectratio>
                    <anamorphic>FALSE</anamorphic>
                  </samplecharacteristics>
                </video>
              </media>
            </file>
            <sourcetrack>
              <mediatype>video</mediatype>
            </sourcetrack>
            <fielddominance>none</fielddominance>
          </clipitem>
          <clipitem id="F.png288">
            <name>F.png</name>
            <duration>1.88</duration>
            <rate>
              <ntsc>FALSE</ntsc>
              <timebase>25</timebase>
            </rate>
            <in>91072.5</in>
            <out>91074.38</out>
            <start>1072.5</start>
            <end>1074.38</end>
            <pixelaspectratio>Square</pixelaspectratio>
            <stillframe>TRUE</stillframe>
            <anamorphic>FALSE</anamorphic>
            <alphatype>straight</alphatype>
            <masterclipid>F.png288</masterclipid>
            <file id="F">
              <name>F.png</name>
              <pathurl>D:/Codes/SynthLip/SynthLipN/bin/Release/net6.0-windows8.0/publish/Skin/template/F.png</pathurl>
              <rate>
                <ntsc>FALSE</ntsc>
                <timebase>25</timebase>
              </rate>
              <duration>2</duration>
              <width>1920</width>
              <height>1080</height>
              <media>
                <video>
                  <duration>2</duration>
                  <stillframe>TRUE</stillframe>
                  <samplecharacteristics>
                    <rate>
                      <ntsc>FALSE</ntsc>
                      <timebase>25</timebase>
                    </rate>
                    <width>1920</width>
                    <height>1080</height>
                    <pixelaspectratio>Square</pixelaspectratio>
                    <anamorphic>FALSE</anamorphic>
                  </samplecharacteristics>
                </video>
              </media>
            </file>
            <sourcetrack>
              <mediatype>video</mediatype>
            </sourcetrack>
            <fielddominance>none</fielddominance>
          </clipitem>
          <clipitem id="H.png287">
            <name>H.png</name>
            <duration>5.94</duration>
            <rate>
              <ntsc>FALSE</ntsc>
              <timebase>25</timebase>
            </rate>
            <in>91066.56</in>
            <out>91072.5</out>
            <start>1066.56</start>
            <end>1072.5</end>
            <pixelaspectratio>Square</pixelaspectratio>
            <stillframe>TRUE</stillframe>
            <anamorphic>FALSE</anamorphic>
            <alphatype>straight</alphatype>
            <masterclipid>H.png287</masterclipid>
            <file id="H">
              <name>H.png</name>
              <pathurl>D:/Codes/SynthLip/SynthLipN/bin/Release/net6.0-windows8.0/publish/Skin/template/H.png</pathurl>
              <rate>
                <ntsc>FALSE</ntsc>
                <timebase>25</timebase>
              </rate>
              <duration>2</duration>
              <width>1920</width>
              <height>1080</height>
              <media>
                <video>
                  <duration>2</duration>
                  <stillframe>TRUE</stillframe>
                  <samplecharacteristics>
                    <rate>
                      <ntsc>FALSE</ntsc>
                      <timebase>25</timebase>
                    </rate>
                    <width>1920</width>
                    <height>1080</height>
                    <pixelaspectratio>Square</pixelaspectratio>
                    <anamorphic>FALSE</anamorphic>
                  </samplecharacteristics>
                </video>
              </media>
            </file>
            <sourcetrack>
              <mediatype>video</mediatype>
            </sourcetrack>
            <fielddominance>none</fielddominance>
          </clipitem>
          <clipitem id="H.png286">
            <name>H.png</name>
            <duration>0.31</duration>
            <rate>
              <ntsc>FALSE</ntsc>
              <timebase>25</timebase>
            </rate>
            <in>91066.25</in>
            <out>91066.56</out>
            <start>1066.25</start>
            <end>1066.56</end>
            <pixelaspectratio>Square</pixelaspectratio>
            <stillframe>TRUE</stillframe>
            <anamorphic>FALSE</anamorphic>
            <alphatype>straight</alphatype>
            <masterclipid>H.png286</masterclipid>
            <file id="H">
              <name>H.png</name>
              <pathurl>D:/Codes/SynthLip/SynthLipN/bin/Release/net6.0-windows8.0/publish/Skin/template/H.png</pathurl>
              <rate>
                <ntsc>FALSE</ntsc>
                <timebase>25</timebase>
              </rate>
              <duration>2</duration>
              <width>1920</width>
              <height>1080</height>
              <media>
                <video>
                  <duration>2</duration>
                  <stillframe>TRUE</stillframe>
                  <samplecharacteristics>
                    <rate>
                      <ntsc>FALSE</ntsc>
                      <timebase>25</timebase>
                    </rate>
                    <width>1920</width>
                    <height>1080</height>
                    <pixelaspectratio>Square</pixelaspectratio>
                    <anamorphic>FALSE</anamorphic>
                  </samplecharacteristics>
                </video>
              </media>
            </file>
            <sourcetrack>
              <mediatype>video</mediatype>
            </sourcetrack>
            <fielddominance>none</fielddominance>
          </clipitem>
          <clipitem id="C.png285">
            <name>C.png</name>
            <duration>0.94</duration>
            <rate>
              <ntsc>FALSE</ntsc>
              <timebase>25</timebase>
            </rate>
            <in>91065.31</in>
            <out>91066.25</out>
            <start>1065.31</start>
            <end>1066.25</end>
            <pixelaspectratio>Square</pixelaspectratio>
            <stillframe>TRUE</stillframe>
            <anamorphic>FALSE</anamorphic>
            <alphatype>straight</alphatype>
            <masterclipid>C.png285</masterclipid>
            <file id="C">
              <name>C.png</name>
              <pathurl>D:/Codes/SynthLip/SynthLipN/bin/Release/net6.0-windows8.0/publish/Skin/template/C.png</pathurl>
              <rate>
                <ntsc>FALSE</ntsc>
                <timebase>25</timebase>
              </rate>
              <duration>2</duration>
              <width>1920</width>
              <height>1080</height>
              <media>
                <video>
                  <duration>2</duration>
                  <stillframe>TRUE</stillframe>
                  <samplecharacteristics>
                    <rate>
                      <ntsc>FALSE</ntsc>
                      <timebase>25</timebase>
                    </rate>
                    <width>1920</width>
                    <height>1080</height>
                    <pixelaspectratio>Square</pixelaspectratio>
                    <anamorphic>FALSE</anamorphic>
                  </samplecharacteristics>
                </video>
              </media>
            </file>
            <sourcetrack>
              <mediatype>video</mediatype>
            </sourcetrack>
            <fielddominance>none</fielddominance>
          </clipitem>
          <clipitem id="G.png284">
            <name>G.png</name>
            <duration>0.31</duration>
            <rate>
              <ntsc>FALSE</ntsc>
              <timebase>25</timebase>
            </rate>
            <in>91065</in>
            <out>91065.31</out>
            <start>1065</start>
            <end>1065.31</end>
            <pixelaspectratio>Square</pixelaspectratio>
            <stillframe>TRUE</stillframe>
            <anamorphic>FALSE</anamorphic>
            <alphatype>straight</alphatype>
            <masterclipid>G.png284</masterclipid>
            <file id="G">
              <name>G.png</name>
              <pathurl>D:/Codes/SynthLip/SynthLipN/bin/Release/net6.0-windows8.0/publish/Skin/template/G.png</pathurl>
              <rate>
                <ntsc>FALSE</ntsc>
                <timebase>25</timebase>
              </rate>
              <duration>2</duration>
              <width>1920</width>
              <height>1080</height>
              <media>
                <video>
                  <duration>2</duration>
                  <stillframe>TRUE</stillframe>
                  <samplecharacteristics>
                    <rate>
                      <ntsc>FALSE</ntsc>
                      <timebase>25</timebase>
                    </rate>
                    <width>1920</width>
                    <height>1080</height>
                    <pixelaspectratio>Square</pixelaspectratio>
                    <anamorphic>FALSE</anamorphic>
                  </samplecharacteristics>
                </video>
              </media>
            </file>
            <sourcetrack>
              <mediatype>video</mediatype>
            </sourcetrack>
            <fielddominance>none</fielddominance>
          </clipitem>
          <clipitem id="C.png283">
            <name>C.png</name>
            <duration>5.62</duration>
            <rate>
              <ntsc>FALSE</ntsc>
              <timebase>25</timebase>
            </rate>
            <in>91059.38</in>
            <out>91065</out>
            <start>1059.38</start>
            <end>1065</end>
            <pixelaspectratio>Square</pixelaspectratio>
            <stillframe>TRUE</stillframe>
            <anamorphic>FALSE</anamorphic>
            <alphatype>straight</alphatype>
            <masterclipid>C.png283</masterclipid>
            <file id="C">
              <name>C.png</name>
              <pathurl>D:/Codes/SynthLip/SynthLipN/bin/Release/net6.0-windows8.0/publish/Skin/template/C.png</pathurl>
              <rate>
                <ntsc>FALSE</ntsc>
                <timebase>25</timebase>
              </rate>
              <duration>2</duration>
              <width>1920</width>
              <height>1080</height>
              <media>
                <video>
                  <duration>2</duration>
                  <stillframe>TRUE</stillframe>
                  <samplecharacteristics>
                    <rate>
                      <ntsc>FALSE</ntsc>
                      <timebase>25</timebase>
                    </rate>
                    <width>1920</width>
                    <height>1080</height>
                    <pixelaspectratio>Square</pixelaspectratio>
                    <anamorphic>FALSE</anamorphic>
                  </samplecharacteristics>
                </video>
              </media>
            </file>
            <sourcetrack>
              <mediatype>video</mediatype>
            </sourcetrack>
            <fielddominance>none</fielddominance>
          </clipitem>
          <clipitem id="B.png282">
            <name>B.png</name>
            <duration>1.88</duration>
            <rate>
              <ntsc>FALSE</ntsc>
              <timebase>25</timebase>
            </rate>
            <in>91057.5</in>
            <out>91059.38</out>
            <start>1057.5</start>
            <end>1059.38</end>
            <pixelaspectratio>Square</pixelaspectratio>
            <stillframe>TRUE</stillframe>
            <anamorphic>FALSE</anamorphic>
            <alphatype>straight</alphatype>
            <masterclipid>B.png282</masterclipid>
            <file id="B">
              <name>B.png</name>
              <pathurl>D:/Codes/SynthLip/SynthLipN/bin/Release/net6.0-windows8.0/publish/Skin/template/B.png</pathurl>
              <rate>
                <ntsc>FALSE</ntsc>
                <timebase>25</timebase>
              </rate>
              <duration>2</duration>
              <width>1920</width>
              <height>1080</height>
              <media>
                <video>
                  <duration>2</duration>
                  <stillframe>TRUE</stillframe>
                  <samplecharacteristics>
                    <rate>
                      <ntsc>FALSE</ntsc>
                      <timebase>25</timebase>
                    </rate>
                    <width>1920</width>
                    <height>1080</height>
                    <pixelaspectratio>Square</pixelaspectratio>
                    <anamorphic>FALSE</anamorphic>
                  </samplecharacteristics>
                </video>
              </media>
            </file>
            <sourcetrack>
              <mediatype>video</mediatype>
            </sourcetrack>
            <fielddominance>none</fielddominance>
          </clipitem>
          <clipitem id="F.png281">
            <name>F.png</name>
            <duration>5.62</duration>
            <rate>
              <ntsc>FALSE</ntsc>
              <timebase>25</timebase>
            </rate>
            <in>91051.88</in>
            <out>91057.5</out>
            <start>1051.88</start>
            <end>1057.5</end>
            <pixelaspectratio>Square</pixelaspectratio>
            <stillframe>TRUE</stillframe>
            <anamorphic>FALSE</anamorphic>
            <alphatype>straight</alphatype>
            <masterclipid>F.png281</masterclipid>
            <file id="F">
              <name>F.png</name>
              <pathurl>D:/Codes/SynthLip/SynthLipN/bin/Release/net6.0-windows8.0/publish/Skin/template/F.png</pathurl>
              <rate>
                <ntsc>FALSE</ntsc>
                <timebase>25</timebase>
              </rate>
              <duration>2</duration>
              <width>1920</width>
              <height>1080</height>
              <media>
                <video>
                  <duration>2</duration>
                  <stillframe>TRUE</stillframe>
                  <samplecharacteristics>
                    <rate>
                      <ntsc>FALSE</ntsc>
                      <timebase>25</timebase>
                    </rate>
                    <width>1920</width>
                    <height>1080</height>
                    <pixelaspectratio>Square</pixelaspectratio>
                    <anamorphic>FALSE</anamorphic>
                  </samplecharacteristics>
                </video>
              </media>
            </file>
            <sourcetrack>
              <mediatype>video</mediatype>
            </sourcetrack>
            <fielddominance>none</fielddominance>
          </clipitem>
          <clipitem id="F.png280">
            <name>F.png</name>
            <duration>1.09</duration>
            <rate>
              <ntsc>FALSE</ntsc>
              <timebase>25</timebase>
            </rate>
            <in>91050.78</in>
            <out>91051.875</out>
            <start>1050.78</start>
            <end>1051.87</end>
            <pixelaspectratio>Square</pixelaspectratio>
            <stillframe>TRUE</stillframe>
            <anamorphic>FALSE</anamorphic>
            <alphatype>straight</alphatype>
            <masterclipid>F.png280</masterclipid>
            <file id="F">
              <name>F.png</name>
              <pathurl>D:/Codes/SynthLip/SynthLipN/bin/Release/net6.0-windows8.0/publish/Skin/template/F.png</pathurl>
              <rate>
                <ntsc>FALSE</ntsc>
                <timebase>25</timebase>
              </rate>
              <duration>2</duration>
              <width>1920</width>
              <height>1080</height>
              <media>
                <video>
                  <duration>2</duration>
                  <stillframe>TRUE</stillframe>
                  <samplecharacteristics>
                    <rate>
                      <ntsc>FALSE</ntsc>
                      <timebase>25</timebase>
                    </rate>
                    <width>1920</width>
                    <height>1080</height>
                    <pixelaspectratio>Square</pixelaspectratio>
                    <anamorphic>FALSE</anamorphic>
                  </samplecharacteristics>
                </video>
              </media>
            </file>
            <sourcetrack>
              <mediatype>video</mediatype>
            </sourcetrack>
            <fielddominance>none</fielddominance>
          </clipitem>
          <clipitem id="B.png279">
            <name>B.png</name>
            <duration>0.47</duration>
            <rate>
              <ntsc>FALSE</ntsc>
              <timebase>25</timebase>
            </rate>
            <in>91050.31</in>
            <out>91050.78</out>
            <start>1050.31</start>
            <end>1050.78</end>
            <pixelaspectratio>Square</pixelaspectratio>
            <stillframe>TRUE</stillframe>
            <anamorphic>FALSE</anamorphic>
            <alphatype>straight</alphatype>
            <masterclipid>B.png279</masterclipid>
            <file id="B">
              <name>B.png</name>
              <pathurl>D:/Codes/SynthLip/SynthLipN/bin/Release/net6.0-windows8.0/publish/Skin/template/B.png</pathurl>
              <rate>
                <ntsc>FALSE</ntsc>
                <timebase>25</timebase>
              </rate>
              <duration>2</duration>
              <width>1920</width>
              <height>1080</height>
              <media>
                <video>
                  <duration>2</duration>
                  <stillframe>TRUE</stillframe>
                  <samplecharacteristics>
                    <rate>
                      <ntsc>FALSE</ntsc>
                      <timebase>25</timebase>
                    </rate>
                    <width>1920</width>
                    <height>1080</height>
                    <pixelaspectratio>Square</pixelaspectratio>
                    <anamorphic>FALSE</anamorphic>
                  </samplecharacteristics>
                </video>
              </media>
            </file>
            <sourcetrack>
              <mediatype>video</mediatype>
            </sourcetrack>
            <fielddominance>none</fielddominance>
          </clipitem>
          <clipitem id="A.png278">
            <name>A.png</name>
            <duration>0.31</duration>
            <rate>
              <ntsc>FALSE</ntsc>
              <timebase>25</timebase>
            </rate>
            <in>91050</in>
            <out>91050.31</out>
            <start>1050</start>
            <end>1050.31</end>
            <pixelaspectratio>Square</pixelaspectratio>
            <stillframe>TRUE</stillframe>
            <anamorphic>FALSE</anamorphic>
            <alphatype>straight</alphatype>
            <masterclipid>A.png278</masterclipid>
            <file id="A">
              <name>A.png</name>
              <pathurl>D:/Codes/SynthLip/SynthLipN/bin/Release/net6.0-windows8.0/publish/Skin/template/A.png</pathurl>
              <rate>
                <ntsc>FALSE</ntsc>
                <timebase>25</timebase>
              </rate>
              <duration>2</duration>
              <width>1920</width>
              <height>1080</height>
              <media>
                <video>
                  <duration>2</duration>
                  <stillframe>TRUE</stillframe>
                  <samplecharacteristics>
                    <rate>
                      <ntsc>FALSE</ntsc>
                      <timebase>25</timebase>
                    </rate>
                    <width>1920</width>
                    <height>1080</height>
                    <pixelaspectratio>Square</pixelaspectratio>
                    <anamorphic>FALSE</anamorphic>
                  </samplecharacteristics>
                </video>
              </media>
            </file>
            <sourcetrack>
              <mediatype>video</mediatype>
            </sourcetrack>
            <fielddominance>none</fielddominance>
          </clipitem>
          <clipitem id="C.png277">
            <name>C.png</name>
            <duration>4.38</duration>
            <rate>
              <ntsc>FALSE</ntsc>
              <timebase>25</timebase>
            </rate>
            <in>91045.62</in>
            <out>91050</out>
            <start>1045.62</start>
            <end>1050</end>
            <pixelaspectratio>Square</pixelaspectratio>
            <stillframe>TRUE</stillframe>
            <anamorphic>FALSE</anamorphic>
            <alphatype>straight</alphatype>
            <masterclipid>C.png277</masterclipid>
            <file id="C">
              <name>C.png</name>
              <pathurl>D:/Codes/SynthLip/SynthLipN/bin/Release/net6.0-windows8.0/publish/Skin/template/C.png</pathurl>
              <rate>
                <ntsc>FALSE</ntsc>
                <timebase>25</timebase>
              </rate>
              <duration>2</duration>
              <width>1920</width>
              <height>1080</height>
              <media>
                <video>
                  <duration>2</duration>
                  <stillframe>TRUE</stillframe>
                  <samplecharacteristics>
                    <rate>
                      <ntsc>FALSE</ntsc>
                      <timebase>25</timebase>
                    </rate>
                    <width>1920</width>
                    <height>1080</height>
                    <pixelaspectratio>Square</pixelaspectratio>
                    <anamorphic>FALSE</anamorphic>
                  </samplecharacteristics>
                </video>
              </media>
            </file>
            <sourcetrack>
              <mediatype>video</mediatype>
            </sourcetrack>
            <fielddominance>none</fielddominance>
          </clipitem>
          <clipitem id="B.png276">
            <name>B.png</name>
            <duration>0.62</duration>
            <rate>
              <ntsc>FALSE</ntsc>
              <timebase>25</timebase>
            </rate>
            <in>91045</in>
            <out>91045.62</out>
            <start>1045</start>
            <end>1045.62</end>
            <pixelaspectratio>Square</pixelaspectratio>
            <stillframe>TRUE</stillframe>
            <anamorphic>FALSE</anamorphic>
            <alphatype>straight</alphatype>
            <masterclipid>B.png276</masterclipid>
            <file id="B">
              <name>B.png</name>
              <pathurl>D:/Codes/SynthLip/SynthLipN/bin/Release/net6.0-windows8.0/publish/Skin/template/B.png</pathurl>
              <rate>
                <ntsc>FALSE</ntsc>
                <timebase>25</timebase>
              </rate>
              <duration>2</duration>
              <width>1920</width>
              <height>1080</height>
              <media>
                <video>
                  <duration>2</duration>
                  <stillframe>TRUE</stillframe>
                  <samplecharacteristics>
                    <rate>
                      <ntsc>FALSE</ntsc>
                      <timebase>25</timebase>
                    </rate>
                    <width>1920</width>
                    <height>1080</height>
                    <pixelaspectratio>Square</pixelaspectratio>
                    <anamorphic>FALSE</anamorphic>
                  </samplecharacteristics>
                </video>
              </media>
            </file>
            <sourcetrack>
              <mediatype>video</mediatype>
            </sourcetrack>
            <fielddominance>none</fielddominance>
          </clipitem>
          <clipitem id="D.png275">
            <name>D.png</name>
            <duration>1.88</duration>
            <rate>
              <ntsc>FALSE</ntsc>
              <timebase>25</timebase>
            </rate>
            <in>91043.13</in>
            <out>91045.016</out>
            <start>1043.13</start>
            <end>1045.01</end>
            <pixelaspectratio>Square</pixelaspectratio>
            <stillframe>TRUE</stillframe>
            <anamorphic>FALSE</anamorphic>
            <alphatype>straight</alphatype>
            <masterclipid>D.png275</masterclipid>
            <file id="D">
              <name>D.png</name>
              <pathurl>D:/Codes/SynthLip/SynthLipN/bin/Release/net6.0-windows8.0/publish/Skin/template/D.png</pathurl>
              <rate>
                <ntsc>FALSE</ntsc>
                <timebase>25</timebase>
              </rate>
              <duration>2</duration>
              <width>1920</width>
              <height>1080</height>
              <media>
                <video>
                  <duration>2</duration>
                  <stillframe>TRUE</stillframe>
                  <samplecharacteristics>
                    <rate>
                      <ntsc>FALSE</ntsc>
                      <timebase>25</timebase>
                    </rate>
                    <width>1920</width>
                    <height>1080</height>
                    <pixelaspectratio>Square</pixelaspectratio>
                    <anamorphic>FALSE</anamorphic>
                  </samplecharacteristics>
                </video>
              </media>
            </file>
            <sourcetrack>
              <mediatype>video</mediatype>
            </sourcetrack>
            <fielddominance>none</fielddominance>
          </clipitem>
          <clipitem id="F.png274">
            <name>F.png</name>
            <duration>0.62</duration>
            <rate>
              <ntsc>FALSE</ntsc>
              <timebase>25</timebase>
            </rate>
            <in>91042.5</in>
            <out>91043.12</out>
            <start>1042.5</start>
            <end>1043.12</end>
            <pixelaspectratio>Square</pixelaspectratio>
            <stillframe>TRUE</stillframe>
            <anamorphic>FALSE</anamorphic>
            <alphatype>straight</alphatype>
            <masterclipid>F.png274</masterclipid>
            <file id="F">
              <name>F.png</name>
              <pathurl>D:/Codes/SynthLip/SynthLipN/bin/Release/net6.0-windows8.0/publish/Skin/template/F.png</pathurl>
              <rate>
                <ntsc>FALSE</ntsc>
                <timebase>25</timebase>
              </rate>
              <duration>2</duration>
              <width>1920</width>
              <height>1080</height>
              <media>
                <video>
                  <duration>2</duration>
                  <stillframe>TRUE</stillframe>
                  <samplecharacteristics>
                    <rate>
                      <ntsc>FALSE</ntsc>
                      <timebase>25</timebase>
                    </rate>
                    <width>1920</width>
                    <height>1080</height>
                    <pixelaspectratio>Square</pixelaspectratio>
                    <anamorphic>FALSE</anamorphic>
                  </samplecharacteristics>
                </video>
              </media>
            </file>
            <sourcetrack>
              <mediatype>video</mediatype>
            </sourcetrack>
            <fielddominance>none</fielddominance>
          </clipitem>
          <clipitem id="A.png273">
            <name>A.png</name>
            <duration>43.13</duration>
            <rate>
              <ntsc>FALSE</ntsc>
              <timebase>25</timebase>
            </rate>
            <in>90999.37</in>
            <out>91042.5</out>
            <start>999.37</start>
            <end>1042.5</end>
            <pixelaspectratio>Square</pixelaspectratio>
            <stillframe>TRUE</stillframe>
            <anamorphic>FALSE</anamorphic>
            <alphatype>straight</alphatype>
            <masterclipid>A.png273</masterclipid>
            <file id="A">
              <name>A.png</name>
              <pathurl>D:/Codes/SynthLip/SynthLipN/bin/Release/net6.0-windows8.0/publish/Skin/template/A.png</pathurl>
              <rate>
                <ntsc>FALSE</ntsc>
                <timebase>25</timebase>
              </rate>
              <duration>2</duration>
              <width>1920</width>
              <height>1080</height>
              <media>
                <video>
                  <duration>2</duration>
                  <stillframe>TRUE</stillframe>
                  <samplecharacteristics>
                    <rate>
                      <ntsc>FALSE</ntsc>
                      <timebase>25</timebase>
                    </rate>
                    <width>1920</width>
                    <height>1080</height>
                    <pixelaspectratio>Square</pixelaspectratio>
                    <anamorphic>FALSE</anamorphic>
                  </samplecharacteristics>
                </video>
              </media>
            </file>
            <sourcetrack>
              <mediatype>video</mediatype>
            </sourcetrack>
            <fielddominance>none</fielddominance>
          </clipitem>
          <clipitem id="E.png272">
            <name>E.png</name>
            <duration>7.5</duration>
            <rate>
              <ntsc>FALSE</ntsc>
              <timebase>25</timebase>
            </rate>
            <in>90991.88</in>
            <out>90999.38</out>
            <start>991.88</start>
            <end>999.38</end>
            <pixelaspectratio>Square</pixelaspectratio>
            <stillframe>TRUE</stillframe>
            <anamorphic>FALSE</anamorphic>
            <alphatype>straight</alphatype>
            <masterclipid>E.png272</masterclipid>
            <file id="E">
              <name>E.png</name>
              <pathurl>D:/Codes/SynthLip/SynthLipN/bin/Release/net6.0-windows8.0/publish/Skin/template/E.png</pathurl>
              <rate>
                <ntsc>FALSE</ntsc>
                <timebase>25</timebase>
              </rate>
              <duration>2</duration>
              <width>1920</width>
              <height>1080</height>
              <media>
                <video>
                  <duration>2</duration>
                  <stillframe>TRUE</stillframe>
                  <samplecharacteristics>
                    <rate>
                      <ntsc>FALSE</ntsc>
                      <timebase>25</timebase>
                    </rate>
                    <width>1920</width>
                    <height>1080</height>
                    <pixelaspectratio>Square</pixelaspectratio>
                    <anamorphic>FALSE</anamorphic>
                  </samplecharacteristics>
                </video>
              </media>
            </file>
            <sourcetrack>
              <mediatype>video</mediatype>
            </sourcetrack>
            <fielddominance>none</fielddominance>
          </clipitem>
          <clipitem id="E.png271">
            <name>E.png</name>
            <duration>2.03</duration>
            <rate>
              <ntsc>FALSE</ntsc>
              <timebase>25</timebase>
            </rate>
            <in>90989.84</in>
            <out>90991.875</out>
            <start>989.84</start>
            <end>991.87006</end>
            <pixelaspectratio>Square</pixelaspectratio>
            <stillframe>TRUE</stillframe>
            <anamorphic>FALSE</anamorphic>
            <alphatype>straight</alphatype>
            <masterclipid>E.png271</masterclipid>
            <file id="E">
              <name>E.png</name>
              <pathurl>D:/Codes/SynthLip/SynthLipN/bin/Release/net6.0-windows8.0/publish/Skin/template/E.png</pathurl>
              <rate>
                <ntsc>FALSE</ntsc>
                <timebase>25</timebase>
              </rate>
              <duration>2</duration>
              <width>1920</width>
              <height>1080</height>
              <media>
                <video>
                  <duration>2</duration>
                  <stillframe>TRUE</stillframe>
                  <samplecharacteristics>
                    <rate>
                      <ntsc>FALSE</ntsc>
                      <timebase>25</timebase>
                    </rate>
                    <width>1920</width>
                    <height>1080</height>
                    <pixelaspectratio>Square</pixelaspectratio>
                    <anamorphic>FALSE</anamorphic>
                  </samplecharacteristics>
                </video>
              </media>
            </file>
            <sourcetrack>
              <mediatype>video</mediatype>
            </sourcetrack>
            <fielddominance>none</fielddominance>
          </clipitem>
          <clipitem id="B.png270">
            <name>B.png</name>
            <duration>1.09</duration>
            <rate>
              <ntsc>FALSE</ntsc>
              <timebase>25</timebase>
            </rate>
            <in>90988.75</in>
            <out>90989.84</out>
            <start>988.75</start>
            <end>989.84</end>
            <pixelaspectratio>Square</pixelaspectratio>
            <stillframe>TRUE</stillframe>
            <anamorphic>FALSE</anamorphic>
            <alphatype>straight</alphatype>
            <masterclipid>B.png270</masterclipid>
            <file id="B">
              <name>B.png</name>
              <pathurl>D:/Codes/SynthLip/SynthLipN/bin/Release/net6.0-windows8.0/publish/Skin/template/B.png</pathurl>
              <rate>
                <ntsc>FALSE</ntsc>
                <timebase>25</timebase>
              </rate>
              <duration>2</duration>
              <width>1920</width>
              <height>1080</height>
              <media>
                <video>
                  <duration>2</duration>
                  <stillframe>TRUE</stillframe>
                  <samplecharacteristics>
                    <rate>
                      <ntsc>FALSE</ntsc>
                      <timebase>25</timebase>
                    </rate>
                    <width>1920</width>
                    <height>1080</height>
                    <pixelaspectratio>Square</pixelaspectratio>
                    <anamorphic>FALSE</anamorphic>
                  </samplecharacteristics>
                </video>
              </media>
            </file>
            <sourcetrack>
              <mediatype>video</mediatype>
            </sourcetrack>
            <fielddominance>none</fielddominance>
          </clipitem>
          <clipitem id="F.png269">
            <name>F.png</name>
            <duration>1.25</duration>
            <rate>
              <ntsc>FALSE</ntsc>
              <timebase>25</timebase>
            </rate>
            <in>90987.5</in>
            <out>90988.75</out>
            <start>987.5</start>
            <end>988.75</end>
            <pixelaspectratio>Square</pixelaspectratio>
            <stillframe>TRUE</stillframe>
            <anamorphic>FALSE</anamorphic>
            <alphatype>straight</alphatype>
            <masterclipid>F.png269</masterclipid>
            <file id="F">
              <name>F.png</name>
              <pathurl>D:/Codes/SynthLip/SynthLipN/bin/Release/net6.0-windows8.0/publish/Skin/template/F.png</pathurl>
              <rate>
                <ntsc>FALSE</ntsc>
                <timebase>25</timebase>
              </rate>
              <duration>2</duration>
              <width>1920</width>
              <height>1080</height>
              <media>
                <video>
                  <duration>2</duration>
                  <stillframe>TRUE</stillframe>
                  <samplecharacteristics>
                    <rate>
                      <ntsc>FALSE</ntsc>
                      <timebase>25</timebase>
                    </rate>
                    <width>1920</width>
                    <height>1080</height>
                    <pixelaspectratio>Square</pixelaspectratio>
                    <anamorphic>FALSE</anamorphic>
                  </samplecharacteristics>
                </video>
              </media>
            </file>
            <sourcetrack>
              <mediatype>video</mediatype>
            </sourcetrack>
            <fielddominance>none</fielddominance>
          </clipitem>
          <clipitem id="F.png268">
            <name>F.png</name>
            <duration>3.75</duration>
            <rate>
              <ntsc>FALSE</ntsc>
              <timebase>25</timebase>
            </rate>
            <in>90983.75</in>
            <out>90987.5</out>
            <start>983.75</start>
            <end>987.5</end>
            <pixelaspectratio>Square</pixelaspectratio>
            <stillframe>TRUE</stillframe>
            <anamorphic>FALSE</anamorphic>
            <alphatype>straight</alphatype>
            <masterclipid>F.png268</masterclipid>
            <file id="F">
              <name>F.png</name>
              <pathurl>D:/Codes/SynthLip/SynthLipN/bin/Release/net6.0-windows8.0/publish/Skin/template/F.png</pathurl>
              <rate>
                <ntsc>FALSE</ntsc>
                <timebase>25</timebase>
              </rate>
              <duration>2</duration>
              <width>1920</width>
              <height>1080</height>
              <media>
                <video>
                  <duration>2</duration>
                  <stillframe>TRUE</stillframe>
                  <samplecharacteristics>
                    <rate>
                      <ntsc>FALSE</ntsc>
                      <timebase>25</timebase>
                    </rate>
                    <width>1920</width>
                    <height>1080</height>
                    <pixelaspectratio>Square</pixelaspectratio>
                    <anamorphic>FALSE</anamorphic>
                  </samplecharacteristics>
                </video>
              </media>
            </file>
            <sourcetrack>
              <mediatype>video</mediatype>
            </sourcetrack>
            <fielddominance>none</fielddominance>
          </clipitem>
          <clipitem id="G.png267">
            <name>G.png</name>
            <duration>1.25</duration>
            <rate>
              <ntsc>FALSE</ntsc>
              <timebase>25</timebase>
            </rate>
            <in>90982.5</in>
            <out>90983.75</out>
            <start>982.5</start>
            <end>983.75</end>
            <pixelaspectratio>Square</pixelaspectratio>
            <stillframe>TRUE</stillframe>
            <anamorphic>FALSE</anamorphic>
            <alphatype>straight</alphatype>
            <masterclipid>G.png267</masterclipid>
            <file id="G">
              <name>G.png</name>
              <pathurl>D:/Codes/SynthLip/SynthLipN/bin/Release/net6.0-windows8.0/publish/Skin/template/G.png</pathurl>
              <rate>
                <ntsc>FALSE</ntsc>
                <timebase>25</timebase>
              </rate>
              <duration>2</duration>
              <width>1920</width>
              <height>1080</height>
              <media>
                <video>
                  <duration>2</duration>
                  <stillframe>TRUE</stillframe>
                  <samplecharacteristics>
                    <rate>
                      <ntsc>FALSE</ntsc>
                      <timebase>25</timebase>
                    </rate>
                    <width>1920</width>
                    <height>1080</height>
                    <pixelaspectratio>Square</pixelaspectratio>
                    <anamorphic>FALSE</anamorphic>
                  </samplecharacteristics>
                </video>
              </media>
            </file>
            <sourcetrack>
              <mediatype>video</mediatype>
            </sourcetrack>
            <fielddominance>none</fielddominance>
          </clipitem>
          <clipitem id="F.png266">
            <name>F.png</name>
            <duration>5.62</duration>
            <rate>
              <ntsc>FALSE</ntsc>
              <timebase>25</timebase>
            </rate>
            <in>90976.88</in>
            <out>90982.5</out>
            <start>976.88</start>
            <end>982.5</end>
            <pixelaspectratio>Square</pixelaspectratio>
            <stillframe>TRUE</stillframe>
            <anamorphic>FALSE</anamorphic>
            <alphatype>straight</alphatype>
            <masterclipid>F.png266</masterclipid>
            <file id="F">
              <name>F.png</name>
              <pathurl>D:/Codes/SynthLip/SynthLipN/bin/Release/net6.0-windows8.0/publish/Skin/template/F.png</pathurl>
              <rate>
                <ntsc>FALSE</ntsc>
                <timebase>25</timebase>
              </rate>
              <duration>2</duration>
              <width>1920</width>
              <height>1080</height>
              <media>
                <video>
                  <duration>2</duration>
                  <stillframe>TRUE</stillframe>
                  <samplecharacteristics>
                    <rate>
                      <ntsc>FALSE</ntsc>
                      <timebase>25</timebase>
                    </rate>
                    <width>1920</width>
                    <height>1080</height>
                    <pixelaspectratio>Square</pixelaspectratio>
                    <anamorphic>FALSE</anamorphic>
                  </samplecharacteristics>
                </video>
              </media>
            </file>
            <sourcetrack>
              <mediatype>video</mediatype>
            </sourcetrack>
            <fielddominance>none</fielddominance>
          </clipitem>
          <clipitem id="F.png265">
            <name>F.png</name>
            <duration>2.11</duration>
            <rate>
              <ntsc>FALSE</ntsc>
              <timebase>25</timebase>
            </rate>
            <in>90974.77</in>
            <out>90976.88</out>
            <start>974.77</start>
            <end>976.88</end>
            <pixelaspectratio>Square</pixelaspectratio>
            <stillframe>TRUE</stillframe>
            <anamorphic>FALSE</anamorphic>
            <alphatype>straight</alphatype>
            <masterclipid>F.png265</masterclipid>
            <file id="F">
              <name>F.png</name>
              <pathurl>D:/Codes/SynthLip/SynthLipN/bin/Release/net6.0-windows8.0/publish/Skin/template/F.png</pathurl>
              <rate>
                <ntsc>FALSE</ntsc>
                <timebase>25</timebase>
              </rate>
              <duration>2</duration>
              <width>1920</width>
              <height>1080</height>
              <media>
                <video>
                  <duration>2</duration>
                  <stillframe>TRUE</stillframe>
                  <samplecharacteristics>
                    <rate>
                      <ntsc>FALSE</ntsc>
                      <timebase>25</timebase>
                    </rate>
                    <width>1920</width>
                    <height>1080</height>
                    <pixelaspectratio>Square</pixelaspectratio>
                    <anamorphic>FALSE</anamorphic>
                  </samplecharacteristics>
                </video>
              </media>
            </file>
            <sourcetrack>
              <mediatype>video</mediatype>
            </sourcetrack>
            <fielddominance>none</fielddominance>
          </clipitem>
          <clipitem id="B.png264">
            <name>B.png</name>
            <duration>1.17</duration>
            <rate>
              <ntsc>FALSE</ntsc>
              <timebase>25</timebase>
            </rate>
            <in>90973.59</in>
            <out>90974.766</out>
            <start>973.59</start>
            <end>974.76</end>
            <pixelaspectratio>Square</pixelaspectratio>
            <stillframe>TRUE</stillframe>
            <anamorphic>FALSE</anamorphic>
            <alphatype>straight</alphatype>
            <masterclipid>B.png264</masterclipid>
            <file id="B">
              <name>B.png</name>
              <pathurl>D:/Codes/SynthLip/SynthLipN/bin/Release/net6.0-windows8.0/publish/Skin/template/B.png</pathurl>
              <rate>
                <ntsc>FALSE</ntsc>
                <timebase>25</timebase>
              </rate>
              <duration>2</duration>
              <width>1920</width>
              <height>1080</height>
              <media>
                <video>
                  <duration>2</duration>
                  <stillframe>TRUE</stillframe>
                  <samplecharacteristics>
                    <rate>
                      <ntsc>FALSE</ntsc>
                      <timebase>25</timebase>
                    </rate>
                    <width>1920</width>
                    <height>1080</height>
                    <pixelaspectratio>Square</pixelaspectratio>
                    <anamorphic>FALSE</anamorphic>
                  </samplecharacteristics>
                </video>
              </media>
            </file>
            <sourcetrack>
              <mediatype>video</mediatype>
            </sourcetrack>
            <fielddominance>none</fielddominance>
          </clipitem>
          <clipitem id="B.png263">
            <name>B.png</name>
            <duration>1.41</duration>
            <rate>
              <ntsc>FALSE</ntsc>
              <timebase>25</timebase>
            </rate>
            <in>90972.19</in>
            <out>90973.59</out>
            <start>972.19</start>
            <end>973.6</end>
            <pixelaspectratio>Square</pixelaspectratio>
            <stillframe>TRUE</stillframe>
            <anamorphic>FALSE</anamorphic>
            <alphatype>straight</alphatype>
            <masterclipid>B.png263</masterclipid>
            <file id="B">
              <name>B.png</name>
              <pathurl>D:/Codes/SynthLip/SynthLipN/bin/Release/net6.0-windows8.0/publish/Skin/template/B.png</pathurl>
              <rate>
                <ntsc>FALSE</ntsc>
                <timebase>25</timebase>
              </rate>
              <duration>2</duration>
              <width>1920</width>
              <height>1080</height>
              <media>
                <video>
                  <duration>2</duration>
                  <stillframe>TRUE</stillframe>
                  <samplecharacteristics>
                    <rate>
                      <ntsc>FALSE</ntsc>
                      <timebase>25</timebase>
                    </rate>
                    <width>1920</width>
                    <height>1080</height>
                    <pixelaspectratio>Square</pixelaspectratio>
                    <anamorphic>FALSE</anamorphic>
                  </samplecharacteristics>
                </video>
              </media>
            </file>
            <sourcetrack>
              <mediatype>video</mediatype>
            </sourcetrack>
            <fielddominance>none</fielddominance>
          </clipitem>
          <clipitem id="B.png262">
            <name>B.png</name>
            <duration>0.94</duration>
            <rate>
              <ntsc>FALSE</ntsc>
              <timebase>25</timebase>
            </rate>
            <in>90971.25</in>
            <out>90972.19</out>
            <start>971.25</start>
            <end>972.19</end>
            <pixelaspectratio>Square</pixelaspectratio>
            <stillframe>TRUE</stillframe>
            <anamorphic>FALSE</anamorphic>
            <alphatype>straight</alphatype>
            <masterclipid>B.png262</masterclipid>
            <file id="B">
              <name>B.png</name>
              <pathurl>D:/Codes/SynthLip/SynthLipN/bin/Release/net6.0-windows8.0/publish/Skin/template/B.png</pathurl>
              <rate>
                <ntsc>FALSE</ntsc>
                <timebase>25</timebase>
              </rate>
              <duration>2</duration>
              <width>1920</width>
              <height>1080</height>
              <media>
                <video>
                  <duration>2</duration>
                  <stillframe>TRUE</stillframe>
                  <samplecharacteristics>
                    <rate>
                      <ntsc>FALSE</ntsc>
                      <timebase>25</timebase>
                    </rate>
                    <width>1920</width>
                    <height>1080</height>
                    <pixelaspectratio>Square</pixelaspectratio>
                    <anamorphic>FALSE</anamorphic>
                  </samplecharacteristics>
                </video>
              </media>
            </file>
            <sourcetrack>
              <mediatype>video</mediatype>
            </sourcetrack>
            <fielddominance>none</fielddominance>
          </clipitem>
          <clipitem id="D.png261">
            <name>D.png</name>
            <duration>2.81</duration>
            <rate>
              <ntsc>FALSE</ntsc>
              <timebase>25</timebase>
            </rate>
            <in>90968.44</in>
            <out>90971.25</out>
            <start>968.44</start>
            <end>971.25</end>
            <pixelaspectratio>Square</pixelaspectratio>
            <stillframe>TRUE</stillframe>
            <anamorphic>FALSE</anamorphic>
            <alphatype>straight</alphatype>
            <masterclipid>D.png261</masterclipid>
            <file id="D">
              <name>D.png</name>
              <pathurl>D:/Codes/SynthLip/SynthLipN/bin/Release/net6.0-windows8.0/publish/Skin/template/D.png</pathurl>
              <rate>
                <ntsc>FALSE</ntsc>
                <timebase>25</timebase>
              </rate>
              <duration>2</duration>
              <width>1920</width>
              <height>1080</height>
              <media>
                <video>
                  <duration>2</duration>
                  <stillframe>TRUE</stillframe>
                  <samplecharacteristics>
                    <rate>
                      <ntsc>FALSE</ntsc>
                      <timebase>25</timebase>
                    </rate>
                    <width>1920</width>
                    <height>1080</height>
                    <pixelaspectratio>Square</pixelaspectratio>
                    <anamorphic>FALSE</anamorphic>
                  </samplecharacteristics>
                </video>
              </media>
            </file>
            <sourcetrack>
              <mediatype>video</mediatype>
            </sourcetrack>
            <fielddominance>none</fielddominance>
          </clipitem>
          <clipitem id="B.png260">
            <name>B.png</name>
            <duration>0.94</duration>
            <rate>
              <ntsc>FALSE</ntsc>
              <timebase>25</timebase>
            </rate>
            <in>90967.5</in>
            <out>90968.44</out>
            <start>967.5</start>
            <end>968.44</end>
            <pixelaspectratio>Square</pixelaspectratio>
            <stillframe>TRUE</stillframe>
            <anamorphic>FALSE</anamorphic>
            <alphatype>straight</alphatype>
            <masterclipid>B.png260</masterclipid>
            <file id="B">
              <name>B.png</name>
              <pathurl>D:/Codes/SynthLip/SynthLipN/bin/Release/net6.0-windows8.0/publish/Skin/template/B.png</pathurl>
              <rate>
                <ntsc>FALSE</ntsc>
                <timebase>25</timebase>
              </rate>
              <duration>2</duration>
              <width>1920</width>
              <height>1080</height>
              <media>
                <video>
                  <duration>2</duration>
                  <stillframe>TRUE</stillframe>
                  <samplecharacteristics>
                    <rate>
                      <ntsc>FALSE</ntsc>
                      <timebase>25</timebase>
                    </rate>
                    <width>1920</width>
                    <height>1080</height>
                    <pixelaspectratio>Square</pixelaspectratio>
                    <anamorphic>FALSE</anamorphic>
                  </samplecharacteristics>
                </video>
              </media>
            </file>
            <sourcetrack>
              <mediatype>video</mediatype>
            </sourcetrack>
            <fielddominance>none</fielddominance>
          </clipitem>
          <clipitem id="B.png259">
            <name>B.png</name>
            <duration>5.94</duration>
            <rate>
              <ntsc>FALSE</ntsc>
              <timebase>25</timebase>
            </rate>
            <in>90961.56</in>
            <out>90967.5</out>
            <start>961.56</start>
            <end>967.5</end>
            <pixelaspectratio>Square</pixelaspectratio>
            <stillframe>TRUE</stillframe>
            <anamorphic>FALSE</anamorphic>
            <alphatype>straight</alphatype>
            <masterclipid>B.png259</masterclipid>
            <file id="B">
              <name>B.png</name>
              <pathurl>D:/Codes/SynthLip/SynthLipN/bin/Release/net6.0-windows8.0/publish/Skin/template/B.png</pathurl>
              <rate>
                <ntsc>FALSE</ntsc>
                <timebase>25</timebase>
              </rate>
              <duration>2</duration>
              <width>1920</width>
              <height>1080</height>
              <media>
                <video>
                  <duration>2</duration>
                  <stillframe>TRUE</stillframe>
                  <samplecharacteristics>
                    <rate>
                      <ntsc>FALSE</ntsc>
                      <timebase>25</timebase>
                    </rate>
                    <width>1920</width>
                    <height>1080</height>
                    <pixelaspectratio>Square</pixelaspectratio>
                    <anamorphic>FALSE</anamorphic>
                  </samplecharacteristics>
                </video>
              </media>
            </file>
            <sourcetrack>
              <mediatype>video</mediatype>
            </sourcetrack>
            <fielddominance>none</fielddominance>
          </clipitem>
          <clipitem id="B.png258">
            <name>B.png</name>
            <duration>0.31</duration>
            <rate>
              <ntsc>FALSE</ntsc>
              <timebase>25</timebase>
            </rate>
            <in>90961.25</in>
            <out>90961.56</out>
            <start>961.25</start>
            <end>961.56</end>
            <pixelaspectratio>Square</pixelaspectratio>
            <stillframe>TRUE</stillframe>
            <anamorphic>FALSE</anamorphic>
            <alphatype>straight</alphatype>
            <masterclipid>B.png258</masterclipid>
            <file id="B">
              <name>B.png</name>
              <pathurl>D:/Codes/SynthLip/SynthLipN/bin/Release/net6.0-windows8.0/publish/Skin/template/B.png</pathurl>
              <rate>
                <ntsc>FALSE</ntsc>
                <timebase>25</timebase>
              </rate>
              <duration>2</duration>
              <width>1920</width>
              <height>1080</height>
              <media>
                <video>
                  <duration>2</duration>
                  <stillframe>TRUE</stillframe>
                  <samplecharacteristics>
                    <rate>
                      <ntsc>FALSE</ntsc>
                      <timebase>25</timebase>
                    </rate>
                    <width>1920</width>
                    <height>1080</height>
                    <pixelaspectratio>Square</pixelaspectratio>
                    <anamorphic>FALSE</anamorphic>
                  </samplecharacteristics>
                </video>
              </media>
            </file>
            <sourcetrack>
              <mediatype>video</mediatype>
            </sourcetrack>
            <fielddominance>none</fielddominance>
          </clipitem>
          <clipitem id="C.png257">
            <name>C.png</name>
            <duration>0.94</duration>
            <rate>
              <ntsc>FALSE</ntsc>
              <timebase>25</timebase>
            </rate>
            <in>90960.31</in>
            <out>90961.25</out>
            <start>960.31</start>
            <end>961.25</end>
            <pixelaspectratio>Square</pixelaspectratio>
            <stillframe>TRUE</stillframe>
            <anamorphic>FALSE</anamorphic>
            <alphatype>straight</alphatype>
            <masterclipid>C.png257</masterclipid>
            <file id="C">
              <name>C.png</name>
              <pathurl>D:/Codes/SynthLip/SynthLipN/bin/Release/net6.0-windows8.0/publish/Skin/template/C.png</pathurl>
              <rate>
                <ntsc>FALSE</ntsc>
                <timebase>25</timebase>
              </rate>
              <duration>2</duration>
              <width>1920</width>
              <height>1080</height>
              <media>
                <video>
                  <duration>2</duration>
                  <stillframe>TRUE</stillframe>
                  <samplecharacteristics>
                    <rate>
                      <ntsc>FALSE</ntsc>
                      <timebase>25</timebase>
                    </rate>
                    <width>1920</width>
                    <height>1080</height>
                    <pixelaspectratio>Square</pixelaspectratio>
                    <anamorphic>FALSE</anamorphic>
                  </samplecharacteristics>
                </video>
              </media>
            </file>
            <sourcetrack>
              <mediatype>video</mediatype>
            </sourcetrack>
            <fielddominance>none</fielddominance>
          </clipitem>
          <clipitem id="B.png256">
            <name>B.png</name>
            <duration>0.31</duration>
            <rate>
              <ntsc>FALSE</ntsc>
              <timebase>25</timebase>
            </rate>
            <in>90960</in>
            <out>90960.31</out>
            <start>960</start>
            <end>960.31</end>
            <pixelaspectratio>Square</pixelaspectratio>
            <stillframe>TRUE</stillframe>
            <anamorphic>FALSE</anamorphic>
            <alphatype>straight</alphatype>
            <masterclipid>B.png256</masterclipid>
            <file id="B">
              <name>B.png</name>
              <pathurl>D:/Codes/SynthLip/SynthLipN/bin/Release/net6.0-windows8.0/publish/Skin/template/B.png</pathurl>
              <rate>
                <ntsc>FALSE</ntsc>
                <timebase>25</timebase>
              </rate>
              <duration>2</duration>
              <width>1920</width>
              <height>1080</height>
              <media>
                <video>
                  <duration>2</duration>
                  <stillframe>TRUE</stillframe>
                  <samplecharacteristics>
                    <rate>
                      <ntsc>FALSE</ntsc>
                      <timebase>25</timebase>
                    </rate>
                    <width>1920</width>
                    <height>1080</height>
                    <pixelaspectratio>Square</pixelaspectratio>
                    <anamorphic>FALSE</anamorphic>
                  </samplecharacteristics>
                </video>
              </media>
            </file>
            <sourcetrack>
              <mediatype>video</mediatype>
            </sourcetrack>
            <fielddominance>none</fielddominance>
          </clipitem>
          <clipitem id="D.png255">
            <name>D.png</name>
            <duration>7.5</duration>
            <rate>
              <ntsc>FALSE</ntsc>
              <timebase>25</timebase>
            </rate>
            <in>90952.5</in>
            <out>90960</out>
            <start>952.5</start>
            <end>960</end>
            <pixelaspectratio>Square</pixelaspectratio>
            <stillframe>TRUE</stillframe>
            <anamorphic>FALSE</anamorphic>
            <alphatype>straight</alphatype>
            <masterclipid>D.png255</masterclipid>
            <file id="D">
              <name>D.png</name>
              <pathurl>D:/Codes/SynthLip/SynthLipN/bin/Release/net6.0-windows8.0/publish/Skin/template/D.png</pathurl>
              <rate>
                <ntsc>FALSE</ntsc>
                <timebase>25</timebase>
              </rate>
              <duration>2</duration>
              <width>1920</width>
              <height>1080</height>
              <media>
                <video>
                  <duration>2</duration>
                  <stillframe>TRUE</stillframe>
                  <samplecharacteristics>
                    <rate>
                      <ntsc>FALSE</ntsc>
                      <timebase>25</timebase>
                    </rate>
                    <width>1920</width>
                    <height>1080</height>
                    <pixelaspectratio>Square</pixelaspectratio>
                    <anamorphic>FALSE</anamorphic>
                  </samplecharacteristics>
                </video>
              </media>
            </file>
            <sourcetrack>
              <mediatype>video</mediatype>
            </sourcetrack>
            <fielddominance>none</fielddominance>
          </clipitem>
          <clipitem id="A.png254">
            <name>A.png</name>
            <duration>10</duration>
            <rate>
              <ntsc>FALSE</ntsc>
              <timebase>25</timebase>
            </rate>
            <in>90942.5</in>
            <out>90952.5</out>
            <start>942.5</start>
            <end>952.5</end>
            <pixelaspectratio>Square</pixelaspectratio>
            <stillframe>TRUE</stillframe>
            <anamorphic>FALSE</anamorphic>
            <alphatype>straight</alphatype>
            <masterclipid>A.png254</masterclipid>
            <file id="A">
              <name>A.png</name>
              <pathurl>D:/Codes/SynthLip/SynthLipN/bin/Release/net6.0-windows8.0/publish/Skin/template/A.png</pathurl>
              <rate>
                <ntsc>FALSE</ntsc>
                <timebase>25</timebase>
              </rate>
              <duration>2</duration>
              <width>1920</width>
              <height>1080</height>
              <media>
                <video>
                  <duration>2</duration>
                  <stillframe>TRUE</stillframe>
                  <samplecharacteristics>
                    <rate>
                      <ntsc>FALSE</ntsc>
                      <timebase>25</timebase>
                    </rate>
                    <width>1920</width>
                    <height>1080</height>
                    <pixelaspectratio>Square</pixelaspectratio>
                    <anamorphic>FALSE</anamorphic>
                  </samplecharacteristics>
                </video>
              </media>
            </file>
            <sourcetrack>
              <mediatype>video</mediatype>
            </sourcetrack>
            <fielddominance>none</fielddominance>
          </clipitem>
          <clipitem id="D.png253">
            <name>D.png</name>
            <duration>2.5</duration>
            <rate>
              <ntsc>FALSE</ntsc>
              <timebase>25</timebase>
            </rate>
            <in>90940</in>
            <out>90942.5</out>
            <start>940</start>
            <end>942.5</end>
            <pixelaspectratio>Square</pixelaspectratio>
            <stillframe>TRUE</stillframe>
            <anamorphic>FALSE</anamorphic>
            <alphatype>straight</alphatype>
            <masterclipid>D.png253</masterclipid>
            <file id="D">
              <name>D.png</name>
              <pathurl>D:/Codes/SynthLip/SynthLipN/bin/Release/net6.0-windows8.0/publish/Skin/template/D.png</pathurl>
              <rate>
                <ntsc>FALSE</ntsc>
                <timebase>25</timebase>
              </rate>
              <duration>2</duration>
              <width>1920</width>
              <height>1080</height>
              <media>
                <video>
                  <duration>2</duration>
                  <stillframe>TRUE</stillframe>
                  <samplecharacteristics>
                    <rate>
                      <ntsc>FALSE</ntsc>
                      <timebase>25</timebase>
                    </rate>
                    <width>1920</width>
                    <height>1080</height>
                    <pixelaspectratio>Square</pixelaspectratio>
                    <anamorphic>FALSE</anamorphic>
                  </samplecharacteristics>
                </video>
              </media>
            </file>
            <sourcetrack>
              <mediatype>video</mediatype>
            </sourcetrack>
            <fielddominance>none</fielddominance>
          </clipitem>
          <clipitem id="D.png252">
            <name>D.png</name>
            <duration>7.5</duration>
            <rate>
              <ntsc>FALSE</ntsc>
              <timebase>25</timebase>
            </rate>
            <in>90932.5</in>
            <out>90940</out>
            <start>932.5</start>
            <end>940</end>
            <pixelaspectratio>Square</pixelaspectratio>
            <stillframe>TRUE</stillframe>
            <anamorphic>FALSE</anamorphic>
            <alphatype>straight</alphatype>
            <masterclipid>D.png252</masterclipid>
            <file id="D">
              <name>D.png</name>
              <pathurl>D:/Codes/SynthLip/SynthLipN/bin/Release/net6.0-windows8.0/publish/Skin/template/D.png</pathurl>
              <rate>
                <ntsc>FALSE</ntsc>
                <timebase>25</timebase>
              </rate>
              <duration>2</duration>
              <width>1920</width>
              <height>1080</height>
              <media>
                <video>
                  <duration>2</duration>
                  <stillframe>TRUE</stillframe>
                  <samplecharacteristics>
                    <rate>
                      <ntsc>FALSE</ntsc>
                      <timebase>25</timebase>
                    </rate>
                    <width>1920</width>
                    <height>1080</height>
                    <pixelaspectratio>Square</pixelaspectratio>
                    <anamorphic>FALSE</anamorphic>
                  </samplecharacteristics>
                </video>
              </media>
            </file>
            <sourcetrack>
              <mediatype>video</mediatype>
            </sourcetrack>
            <fielddominance>none</fielddominance>
          </clipitem>
          <clipitem id="F.png251">
            <name>F.png</name>
            <duration>2.5</duration>
            <rate>
              <ntsc>FALSE</ntsc>
              <timebase>25</timebase>
            </rate>
            <in>90930</in>
            <out>90932.5</out>
            <start>930</start>
            <end>932.5</end>
            <pixelaspectratio>Square</pixelaspectratio>
            <stillframe>TRUE</stillframe>
            <anamorphic>FALSE</anamorphic>
            <alphatype>straight</alphatype>
            <masterclipid>F.png251</masterclipid>
            <file id="F">
              <name>F.png</name>
              <pathurl>D:/Codes/SynthLip/SynthLipN/bin/Release/net6.0-windows8.0/publish/Skin/template/F.png</pathurl>
              <rate>
                <ntsc>FALSE</ntsc>
                <timebase>25</timebase>
              </rate>
              <duration>2</duration>
              <width>1920</width>
              <height>1080</height>
              <media>
                <video>
                  <duration>2</duration>
                  <stillframe>TRUE</stillframe>
                  <samplecharacteristics>
                    <rate>
                      <ntsc>FALSE</ntsc>
                      <timebase>25</timebase>
                    </rate>
                    <width>1920</width>
                    <height>1080</height>
                    <pixelaspectratio>Square</pixelaspectratio>
                    <anamorphic>FALSE</anamorphic>
                  </samplecharacteristics>
                </video>
              </media>
            </file>
            <sourcetrack>
              <mediatype>video</mediatype>
            </sourcetrack>
            <fielddominance>none</fielddominance>
          </clipitem>
          <clipitem id="G.png250">
            <name>G.png</name>
            <duration>3.75</duration>
            <rate>
              <ntsc>FALSE</ntsc>
              <timebase>25</timebase>
            </rate>
            <in>90926.25</in>
            <out>90930</out>
            <start>926.25</start>
            <end>930</end>
            <pixelaspectratio>Square</pixelaspectratio>
            <stillframe>TRUE</stillframe>
            <anamorphic>FALSE</anamorphic>
            <alphatype>straight</alphatype>
            <masterclipid>G.png250</masterclipid>
            <file id="G">
              <name>G.png</name>
              <pathurl>D:/Codes/SynthLip/SynthLipN/bin/Release/net6.0-windows8.0/publish/Skin/template/G.png</pathurl>
              <rate>
                <ntsc>FALSE</ntsc>
                <timebase>25</timebase>
              </rate>
              <duration>2</duration>
              <width>1920</width>
              <height>1080</height>
              <media>
                <video>
                  <duration>2</duration>
                  <stillframe>TRUE</stillframe>
                  <samplecharacteristics>
                    <rate>
                      <ntsc>FALSE</ntsc>
                      <timebase>25</timebase>
                    </rate>
                    <width>1920</width>
                    <height>1080</height>
                    <pixelaspectratio>Square</pixelaspectratio>
                    <anamorphic>FALSE</anamorphic>
                  </samplecharacteristics>
                </video>
              </media>
            </file>
            <sourcetrack>
              <mediatype>video</mediatype>
            </sourcetrack>
            <fielddominance>none</fielddominance>
          </clipitem>
          <clipitem id="G.png249">
            <name>G.png</name>
            <duration>2.23</duration>
            <rate>
              <ntsc>FALSE</ntsc>
              <timebase>25</timebase>
            </rate>
            <in>90924.02</in>
            <out>90926.25</out>
            <start>924.02</start>
            <end>926.25</end>
            <pixelaspectratio>Square</pixelaspectratio>
            <stillframe>TRUE</stillframe>
            <anamorphic>FALSE</anamorphic>
            <alphatype>straight</alphatype>
            <masterclipid>G.png249</masterclipid>
            <file id="G">
              <name>G.png</name>
              <pathurl>D:/Codes/SynthLip/SynthLipN/bin/Release/net6.0-windows8.0/publish/Skin/template/G.png</pathurl>
              <rate>
                <ntsc>FALSE</ntsc>
                <timebase>25</timebase>
              </rate>
              <duration>2</duration>
              <width>1920</width>
              <height>1080</height>
              <media>
                <video>
                  <duration>2</duration>
                  <stillframe>TRUE</stillframe>
                  <samplecharacteristics>
                    <rate>
                      <ntsc>FALSE</ntsc>
                      <timebase>25</timebase>
                    </rate>
                    <width>1920</width>
                    <height>1080</height>
                    <pixelaspectratio>Square</pixelaspectratio>
                    <anamorphic>FALSE</anamorphic>
                  </samplecharacteristics>
                </video>
              </media>
            </file>
            <sourcetrack>
              <mediatype>video</mediatype>
            </sourcetrack>
            <fielddominance>none</fielddominance>
          </clipitem>
          <clipitem id="G.png248">
            <name>G.png</name>
            <duration>0.35</duration>
            <rate>
              <ntsc>FALSE</ntsc>
              <timebase>25</timebase>
            </rate>
            <in>90923.67</in>
            <out>90924.02</out>
            <start>923.67</start>
            <end>924.01996</end>
            <pixelaspectratio>Square</pixelaspectratio>
            <stillframe>TRUE</stillframe>
            <anamorphic>FALSE</anamorphic>
            <alphatype>straight</alphatype>
            <masterclipid>G.png248</masterclipid>
            <file id="G">
              <name>G.png</name>
              <pathurl>D:/Codes/SynthLip/SynthLipN/bin/Release/net6.0-windows8.0/publish/Skin/template/G.png</pathurl>
              <rate>
                <ntsc>FALSE</ntsc>
                <timebase>25</timebase>
              </rate>
              <duration>2</duration>
              <width>1920</width>
              <height>1080</height>
              <media>
                <video>
                  <duration>2</duration>
                  <stillframe>TRUE</stillframe>
                  <samplecharacteristics>
                    <rate>
                      <ntsc>FALSE</ntsc>
                      <timebase>25</timebase>
                    </rate>
                    <width>1920</width>
                    <height>1080</height>
                    <pixelaspectratio>Square</pixelaspectratio>
                    <anamorphic>FALSE</anamorphic>
                  </samplecharacteristics>
                </video>
              </media>
            </file>
            <sourcetrack>
              <mediatype>video</mediatype>
            </sourcetrack>
            <fielddominance>none</fielddominance>
          </clipitem>
          <clipitem id="H.png247">
            <name>H.png</name>
            <duration>0.23</duration>
            <rate>
              <ntsc>FALSE</ntsc>
              <timebase>25</timebase>
            </rate>
            <in>90923.44</in>
            <out>90923.664</out>
            <start>923.44</start>
            <end>923.67</end>
            <pixelaspectratio>Square</pixelaspectratio>
            <stillframe>TRUE</stillframe>
            <anamorphic>FALSE</anamorphic>
            <alphatype>straight</alphatype>
            <masterclipid>H.png247</masterclipid>
            <file id="H">
              <name>H.png</name>
              <pathurl>D:/Codes/SynthLip/SynthLipN/bin/Release/net6.0-windows8.0/publish/Skin/template/H.png</pathurl>
              <rate>
                <ntsc>FALSE</ntsc>
                <timebase>25</timebase>
              </rate>
              <duration>2</duration>
              <width>1920</width>
              <height>1080</height>
              <media>
                <video>
                  <duration>2</duration>
                  <stillframe>TRUE</stillframe>
                  <samplecharacteristics>
                    <rate>
                      <ntsc>FALSE</ntsc>
                      <timebase>25</timebase>
                    </rate>
                    <width>1920</width>
                    <height>1080</height>
                    <pixelaspectratio>Square</pixelaspectratio>
                    <anamorphic>FALSE</anamorphic>
                  </samplecharacteristics>
                </video>
              </media>
            </file>
            <sourcetrack>
              <mediatype>video</mediatype>
            </sourcetrack>
            <fielddominance>none</fielddominance>
          </clipitem>
          <clipitem id="C.png246">
            <name>C.png</name>
            <duration>0.7</duration>
            <rate>
              <ntsc>FALSE</ntsc>
              <timebase>25</timebase>
            </rate>
            <in>90922.73</in>
            <out>90923.43</out>
            <start>922.73</start>
            <end>923.43</end>
            <pixelaspectratio>Square</pixelaspectratio>
            <stillframe>TRUE</stillframe>
            <anamorphic>FALSE</anamorphic>
            <alphatype>straight</alphatype>
            <masterclipid>C.png246</masterclipid>
            <file id="C">
              <name>C.png</name>
              <pathurl>D:/Codes/SynthLip/SynthLipN/bin/Release/net6.0-windows8.0/publish/Skin/template/C.png</pathurl>
              <rate>
                <ntsc>FALSE</ntsc>
                <timebase>25</timebase>
              </rate>
              <duration>2</duration>
              <width>1920</width>
              <height>1080</height>
              <media>
                <video>
                  <duration>2</duration>
                  <stillframe>TRUE</stillframe>
                  <samplecharacteristics>
                    <rate>
                      <ntsc>FALSE</ntsc>
                      <timebase>25</timebase>
                    </rate>
                    <width>1920</width>
                    <height>1080</height>
                    <pixelaspectratio>Square</pixelaspectratio>
                    <anamorphic>FALSE</anamorphic>
                  </samplecharacteristics>
                </video>
              </media>
            </file>
            <sourcetrack>
              <mediatype>video</mediatype>
            </sourcetrack>
            <fielddominance>none</fielddominance>
          </clipitem>
          <clipitem id="B.png245">
            <name>B.png</name>
            <duration>0.23</duration>
            <rate>
              <ntsc>FALSE</ntsc>
              <timebase>25</timebase>
            </rate>
            <in>90922.5</in>
            <out>90922.73</out>
            <start>922.5</start>
            <end>922.73</end>
            <pixelaspectratio>Square</pixelaspectratio>
            <stillframe>TRUE</stillframe>
            <anamorphic>FALSE</anamorphic>
            <alphatype>straight</alphatype>
            <masterclipid>B.png245</masterclipid>
            <file id="B">
              <name>B.png</name>
              <pathurl>D:/Codes/SynthLip/SynthLipN/bin/Release/net6.0-windows8.0/publish/Skin/template/B.png</pathurl>
              <rate>
                <ntsc>FALSE</ntsc>
                <timebase>25</timebase>
              </rate>
              <duration>2</duration>
              <width>1920</width>
              <height>1080</height>
              <media>
                <video>
                  <duration>2</duration>
                  <stillframe>TRUE</stillframe>
                  <samplecharacteristics>
                    <rate>
                      <ntsc>FALSE</ntsc>
                      <timebase>25</timebase>
                    </rate>
                    <width>1920</width>
                    <height>1080</height>
                    <pixelaspectratio>Square</pixelaspectratio>
                    <anamorphic>FALSE</anamorphic>
                  </samplecharacteristics>
                </video>
              </media>
            </file>
            <sourcetrack>
              <mediatype>video</mediatype>
            </sourcetrack>
            <fielddominance>none</fielddominance>
          </clipitem>
          <clipitem id="C.png244">
            <name>C.png</name>
            <duration>5.63</duration>
            <rate>
              <ntsc>FALSE</ntsc>
              <timebase>25</timebase>
            </rate>
            <in>90916.88</in>
            <out>90922.516</out>
            <start>916.88</start>
            <end>922.51</end>
            <pixelaspectratio>Square</pixelaspectratio>
            <stillframe>TRUE</stillframe>
            <anamorphic>FALSE</anamorphic>
            <alphatype>straight</alphatype>
            <masterclipid>C.png244</masterclipid>
            <file id="C">
              <name>C.png</name>
              <pathurl>D:/Codes/SynthLip/SynthLipN/bin/Release/net6.0-windows8.0/publish/Skin/template/C.png</pathurl>
              <rate>
                <ntsc>FALSE</ntsc>
                <timebase>25</timebase>
              </rate>
              <duration>2</duration>
              <width>1920</width>
              <height>1080</height>
              <media>
                <video>
                  <duration>2</duration>
                  <stillframe>TRUE</stillframe>
                  <samplecharacteristics>
                    <rate>
                      <ntsc>FALSE</ntsc>
                      <timebase>25</timebase>
                    </rate>
                    <width>1920</width>
                    <height>1080</height>
                    <pixelaspectratio>Square</pixelaspectratio>
                    <anamorphic>FALSE</anamorphic>
                  </samplecharacteristics>
                </video>
              </media>
            </file>
            <sourcetrack>
              <mediatype>video</mediatype>
            </sourcetrack>
            <fielddominance>none</fielddominance>
          </clipitem>
          <clipitem id="C.png243">
            <name>C.png</name>
            <duration>1.41</duration>
            <rate>
              <ntsc>FALSE</ntsc>
              <timebase>25</timebase>
            </rate>
            <in>90915.47</in>
            <out>90916.875</out>
            <start>915.47</start>
            <end>916.87994</end>
            <pixelaspectratio>Square</pixelaspectratio>
            <stillframe>TRUE</stillframe>
            <anamorphic>FALSE</anamorphic>
            <alphatype>straight</alphatype>
            <masterclipid>C.png243</masterclipid>
            <file id="C">
              <name>C.png</name>
              <pathurl>D:/Codes/SynthLip/SynthLipN/bin/Release/net6.0-windows8.0/publish/Skin/template/C.png</pathurl>
              <rate>
                <ntsc>FALSE</ntsc>
                <timebase>25</timebase>
              </rate>
              <duration>2</duration>
              <width>1920</width>
              <height>1080</height>
              <media>
                <video>
                  <duration>2</duration>
                  <stillframe>TRUE</stillframe>
                  <samplecharacteristics>
                    <rate>
                      <ntsc>FALSE</ntsc>
                      <timebase>25</timebase>
                    </rate>
                    <width>1920</width>
                    <height>1080</height>
                    <pixelaspectratio>Square</pixelaspectratio>
                    <anamorphic>FALSE</anamorphic>
                  </samplecharacteristics>
                </video>
              </media>
            </file>
            <sourcetrack>
              <mediatype>video</mediatype>
            </sourcetrack>
            <fielddominance>none</fielddominance>
          </clipitem>
          <clipitem id="B.png242">
            <name>B.png</name>
            <duration>0.47</duration>
            <rate>
              <ntsc>FALSE</ntsc>
              <timebase>25</timebase>
            </rate>
            <in>90915</in>
            <out>90915.47</out>
            <start>915</start>
            <end>915.47</end>
            <pixelaspectratio>Square</pixelaspectratio>
            <stillframe>TRUE</stillframe>
            <anamorphic>FALSE</anamorphic>
            <alphatype>straight</alphatype>
            <masterclipid>B.png242</masterclipid>
            <file id="B">
              <name>B.png</name>
              <pathurl>D:/Codes/SynthLip/SynthLipN/bin/Release/net6.0-windows8.0/publish/Skin/template/B.png</pathurl>
              <rate>
                <ntsc>FALSE</ntsc>
                <timebase>25</timebase>
              </rate>
              <duration>2</duration>
              <width>1920</width>
              <height>1080</height>
              <media>
                <video>
                  <duration>2</duration>
                  <stillframe>TRUE</stillframe>
                  <samplecharacteristics>
                    <rate>
                      <ntsc>FALSE</ntsc>
                      <timebase>25</timebase>
                    </rate>
                    <width>1920</width>
                    <height>1080</height>
                    <pixelaspectratio>Square</pixelaspectratio>
                    <anamorphic>FALSE</anamorphic>
                  </samplecharacteristics>
                </video>
              </media>
            </file>
            <sourcetrack>
              <mediatype>video</mediatype>
            </sourcetrack>
            <fielddominance>none</fielddominance>
          </clipitem>
          <clipitem id="B.png241">
            <name>B.png</name>
            <duration>13.44</duration>
            <rate>
              <ntsc>FALSE</ntsc>
              <timebase>25</timebase>
            </rate>
            <in>90901.56</in>
            <out>90915</out>
            <start>901.56</start>
            <end>915</end>
            <pixelaspectratio>Square</pixelaspectratio>
            <stillframe>TRUE</stillframe>
            <anamorphic>FALSE</anamorphic>
            <alphatype>straight</alphatype>
            <masterclipid>B.png241</masterclipid>
            <file id="B">
              <name>B.png</name>
              <pathurl>D:/Codes/SynthLip/SynthLipN/bin/Release/net6.0-windows8.0/publish/Skin/template/B.png</pathurl>
              <rate>
                <ntsc>FALSE</ntsc>
                <timebase>25</timebase>
              </rate>
              <duration>2</duration>
              <width>1920</width>
              <height>1080</height>
              <media>
                <video>
                  <duration>2</duration>
                  <stillframe>TRUE</stillframe>
                  <samplecharacteristics>
                    <rate>
                      <ntsc>FALSE</ntsc>
                      <timebase>25</timebase>
                    </rate>
                    <width>1920</width>
                    <height>1080</height>
                    <pixelaspectratio>Square</pixelaspectratio>
                    <anamorphic>FALSE</anamorphic>
                  </samplecharacteristics>
                </video>
              </media>
            </file>
            <sourcetrack>
              <mediatype>video</mediatype>
            </sourcetrack>
            <fielddominance>none</fielddominance>
          </clipitem>
          <clipitem id="B.png240">
            <name>B.png</name>
            <duration>0.31</duration>
            <rate>
              <ntsc>FALSE</ntsc>
              <timebase>25</timebase>
            </rate>
            <in>90901.25</in>
            <out>90901.56</out>
            <start>901.25</start>
            <end>901.56</end>
            <pixelaspectratio>Square</pixelaspectratio>
            <stillframe>TRUE</stillframe>
            <anamorphic>FALSE</anamorphic>
            <alphatype>straight</alphatype>
            <masterclipid>B.png240</masterclipid>
            <file id="B">
              <name>B.png</name>
              <pathurl>D:/Codes/SynthLip/SynthLipN/bin/Release/net6.0-windows8.0/publish/Skin/template/B.png</pathurl>
              <rate>
                <ntsc>FALSE</ntsc>
                <timebase>25</timebase>
              </rate>
              <duration>2</duration>
              <width>1920</width>
              <height>1080</height>
              <media>
                <video>
                  <duration>2</duration>
                  <stillframe>TRUE</stillframe>
                  <samplecharacteristics>
                    <rate>
                      <ntsc>FALSE</ntsc>
                      <timebase>25</timebase>
                    </rate>
                    <width>1920</width>
                    <height>1080</height>
                    <pixelaspectratio>Square</pixelaspectratio>
                    <anamorphic>FALSE</anamorphic>
                  </samplecharacteristics>
                </video>
              </media>
            </file>
            <sourcetrack>
              <mediatype>video</mediatype>
            </sourcetrack>
            <fielddominance>none</fielddominance>
          </clipitem>
          <clipitem id="D.png239">
            <name>D.png</name>
            <duration>1.56</duration>
            <rate>
              <ntsc>FALSE</ntsc>
              <timebase>25</timebase>
            </rate>
            <in>90899.69</in>
            <out>90901.25</out>
            <start>899.69</start>
            <end>901.25</end>
            <pixelaspectratio>Square</pixelaspectratio>
            <stillframe>TRUE</stillframe>
            <anamorphic>FALSE</anamorphic>
            <alphatype>straight</alphatype>
            <masterclipid>D.png239</masterclipid>
            <file id="D">
              <name>D.png</name>
              <pathurl>D:/Codes/SynthLip/SynthLipN/bin/Release/net6.0-windows8.0/publish/Skin/template/D.png</pathurl>
              <rate>
                <ntsc>FALSE</ntsc>
                <timebase>25</timebase>
              </rate>
              <duration>2</duration>
              <width>1920</width>
              <height>1080</height>
              <media>
                <video>
                  <duration>2</duration>
                  <stillframe>TRUE</stillframe>
                  <samplecharacteristics>
                    <rate>
                      <ntsc>FALSE</ntsc>
                      <timebase>25</timebase>
                    </rate>
                    <width>1920</width>
                    <height>1080</height>
                    <pixelaspectratio>Square</pixelaspectratio>
                    <anamorphic>FALSE</anamorphic>
                  </samplecharacteristics>
                </video>
              </media>
            </file>
            <sourcetrack>
              <mediatype>video</mediatype>
            </sourcetrack>
            <fielddominance>none</fielddominance>
          </clipitem>
          <clipitem id="A.png238">
            <name>A.png</name>
            <duration>0.94</duration>
            <rate>
              <ntsc>FALSE</ntsc>
              <timebase>25</timebase>
            </rate>
            <in>90898.75</in>
            <out>90899.69</out>
            <start>898.75</start>
            <end>899.69</end>
            <pixelaspectratio>Square</pixelaspectratio>
            <stillframe>TRUE</stillframe>
            <anamorphic>FALSE</anamorphic>
            <alphatype>straight</alphatype>
            <masterclipid>A.png238</masterclipid>
            <file id="A">
              <name>A.png</name>
              <pathurl>D:/Codes/SynthLip/SynthLipN/bin/Release/net6.0-windows8.0/publish/Skin/template/A.png</pathurl>
              <rate>
                <ntsc>FALSE</ntsc>
                <timebase>25</timebase>
              </rate>
              <duration>2</duration>
              <width>1920</width>
              <height>1080</height>
              <media>
                <video>
                  <duration>2</duration>
                  <stillframe>TRUE</stillframe>
                  <samplecharacteristics>
                    <rate>
                      <ntsc>FALSE</ntsc>
                      <timebase>25</timebase>
                    </rate>
                    <width>1920</width>
                    <height>1080</height>
                    <pixelaspectratio>Square</pixelaspectratio>
                    <anamorphic>FALSE</anamorphic>
                  </samplecharacteristics>
                </video>
              </media>
            </file>
            <sourcetrack>
              <mediatype>video</mediatype>
            </sourcetrack>
            <fielddominance>none</fielddominance>
          </clipitem>
          <clipitem id="B.png237">
            <name>B.png</name>
            <duration>1.25</duration>
            <rate>
              <ntsc>FALSE</ntsc>
              <timebase>25</timebase>
            </rate>
            <in>90897.5</in>
            <out>90898.75</out>
            <start>897.5</start>
            <end>898.75</end>
            <pixelaspectratio>Square</pixelaspectratio>
            <stillframe>TRUE</stillframe>
            <anamorphic>FALSE</anamorphic>
            <alphatype>straight</alphatype>
            <masterclipid>B.png237</masterclipid>
            <file id="B">
              <name>B.png</name>
              <pathurl>D:/Codes/SynthLip/SynthLipN/bin/Release/net6.0-windows8.0/publish/Skin/template/B.png</pathurl>
              <rate>
                <ntsc>FALSE</ntsc>
                <timebase>25</timebase>
              </rate>
              <duration>2</duration>
              <width>1920</width>
              <height>1080</height>
              <media>
                <video>
                  <duration>2</duration>
                  <stillframe>TRUE</stillframe>
                  <samplecharacteristics>
                    <rate>
                      <ntsc>FALSE</ntsc>
                      <timebase>25</timebase>
                    </rate>
                    <width>1920</width>
                    <height>1080</height>
                    <pixelaspectratio>Square</pixelaspectratio>
                    <anamorphic>FALSE</anamorphic>
                  </samplecharacteristics>
                </video>
              </media>
            </file>
            <sourcetrack>
              <mediatype>video</mediatype>
            </sourcetrack>
            <fielddominance>none</fielddominance>
          </clipitem>
          <clipitem id="F.png236">
            <name>F.png</name>
            <duration>3.75</duration>
            <rate>
              <ntsc>FALSE</ntsc>
              <timebase>25</timebase>
            </rate>
            <in>90893.75</in>
            <out>90897.5</out>
            <start>893.75</start>
            <end>897.5</end>
            <pixelaspectratio>Square</pixelaspectratio>
            <stillframe>TRUE</stillframe>
            <anamorphic>FALSE</anamorphic>
            <alphatype>straight</alphatype>
            <masterclipid>F.png236</masterclipid>
            <file id="F">
              <name>F.png</name>
              <pathurl>D:/Codes/SynthLip/SynthLipN/bin/Release/net6.0-windows8.0/publish/Skin/template/F.png</pathurl>
              <rate>
                <ntsc>FALSE</ntsc>
                <timebase>25</timebase>
              </rate>
              <duration>2</duration>
              <width>1920</width>
              <height>1080</height>
              <media>
                <video>
                  <duration>2</duration>
                  <stillframe>TRUE</stillframe>
                  <samplecharacteristics>
                    <rate>
                      <ntsc>FALSE</ntsc>
                      <timebase>25</timebase>
                    </rate>
                    <width>1920</width>
                    <height>1080</height>
                    <pixelaspectratio>Square</pixelaspectratio>
                    <anamorphic>FALSE</anamorphic>
                  </samplecharacteristics>
                </video>
              </media>
            </file>
            <sourcetrack>
              <mediatype>video</mediatype>
            </sourcetrack>
            <fielddominance>none</fielddominance>
          </clipitem>
          <clipitem id="H.png235">
            <name>H.png</name>
            <duration>1.25</duration>
            <rate>
              <ntsc>FALSE</ntsc>
              <timebase>25</timebase>
            </rate>
            <in>90892.5</in>
            <out>90893.75</out>
            <start>892.5</start>
            <end>893.75</end>
            <pixelaspectratio>Square</pixelaspectratio>
            <stillframe>TRUE</stillframe>
            <anamorphic>FALSE</anamorphic>
            <alphatype>straight</alphatype>
            <masterclipid>H.png235</masterclipid>
            <file id="H">
              <name>H.png</name>
              <pathurl>D:/Codes/SynthLip/SynthLipN/bin/Release/net6.0-windows8.0/publish/Skin/template/H.png</pathurl>
              <rate>
                <ntsc>FALSE</ntsc>
                <timebase>25</timebase>
              </rate>
              <duration>2</duration>
              <width>1920</width>
              <height>1080</height>
              <media>
                <video>
                  <duration>2</duration>
                  <stillframe>TRUE</stillframe>
                  <samplecharacteristics>
                    <rate>
                      <ntsc>FALSE</ntsc>
                      <timebase>25</timebase>
                    </rate>
                    <width>1920</width>
                    <height>1080</height>
                    <pixelaspectratio>Square</pixelaspectratio>
                    <anamorphic>FALSE</anamorphic>
                  </samplecharacteristics>
                </video>
              </media>
            </file>
            <sourcetrack>
              <mediatype>video</mediatype>
            </sourcetrack>
            <fielddominance>none</fielddominance>
          </clipitem>
          <clipitem id="F.png234">
            <name>F.png</name>
            <duration>5.62</duration>
            <rate>
              <ntsc>FALSE</ntsc>
              <timebase>25</timebase>
            </rate>
            <in>90886.88</in>
            <out>90892.5</out>
            <start>886.88</start>
            <end>892.5</end>
            <pixelaspectratio>Square</pixelaspectratio>
            <stillframe>TRUE</stillframe>
            <anamorphic>FALSE</anamorphic>
            <alphatype>straight</alphatype>
            <masterclipid>F.png234</masterclipid>
            <file id="F">
              <name>F.png</name>
              <pathurl>D:/Codes/SynthLip/SynthLipN/bin/Release/net6.0-windows8.0/publish/Skin/template/F.png</pathurl>
              <rate>
                <ntsc>FALSE</ntsc>
                <timebase>25</timebase>
              </rate>
              <duration>2</duration>
              <width>1920</width>
              <height>1080</height>
              <media>
                <video>
                  <duration>2</duration>
                  <stillframe>TRUE</stillframe>
                  <samplecharacteristics>
                    <rate>
                      <ntsc>FALSE</ntsc>
                      <timebase>25</timebase>
                    </rate>
                    <width>1920</width>
                    <height>1080</height>
                    <pixelaspectratio>Square</pixelaspectratio>
                    <anamorphic>FALSE</anamorphic>
                  </samplecharacteristics>
                </video>
              </media>
            </file>
            <sourcetrack>
              <mediatype>video</mediatype>
            </sourcetrack>
            <fielddominance>none</fielddominance>
          </clipitem>
          <clipitem id="B.png233">
            <name>B.png</name>
            <duration>1.88</duration>
            <rate>
              <ntsc>FALSE</ntsc>
              <timebase>25</timebase>
            </rate>
            <in>90885</in>
            <out>90886.88</out>
            <start>885</start>
            <end>886.88</end>
            <pixelaspectratio>Square</pixelaspectratio>
            <stillframe>TRUE</stillframe>
            <anamorphic>FALSE</anamorphic>
            <alphatype>straight</alphatype>
            <masterclipid>B.png233</masterclipid>
            <file id="B">
              <name>B.png</name>
              <pathurl>D:/Codes/SynthLip/SynthLipN/bin/Release/net6.0-windows8.0/publish/Skin/template/B.png</pathurl>
              <rate>
                <ntsc>FALSE</ntsc>
                <timebase>25</timebase>
              </rate>
              <duration>2</duration>
              <width>1920</width>
              <height>1080</height>
              <media>
                <video>
                  <duration>2</duration>
                  <stillframe>TRUE</stillframe>
                  <samplecharacteristics>
                    <rate>
                      <ntsc>FALSE</ntsc>
                      <timebase>25</timebase>
                    </rate>
                    <width>1920</width>
                    <height>1080</height>
                    <pixelaspectratio>Square</pixelaspectratio>
                    <anamorphic>FALSE</anamorphic>
                  </samplecharacteristics>
                </video>
              </media>
            </file>
            <sourcetrack>
              <mediatype>video</mediatype>
            </sourcetrack>
            <fielddominance>none</fielddominance>
          </clipitem>
          <clipitem id="C.png232">
            <name>C.png</name>
            <duration>5.94</duration>
            <rate>
              <ntsc>FALSE</ntsc>
              <timebase>25</timebase>
            </rate>
            <in>90879.06</in>
            <out>90885</out>
            <start>879.06</start>
            <end>885</end>
            <pixelaspectratio>Square</pixelaspectratio>
            <stillframe>TRUE</stillframe>
            <anamorphic>FALSE</anamorphic>
            <alphatype>straight</alphatype>
            <masterclipid>C.png232</masterclipid>
            <file id="C">
              <name>C.png</name>
              <pathurl>D:/Codes/SynthLip/SynthLipN/bin/Release/net6.0-windows8.0/publish/Skin/template/C.png</pathurl>
              <rate>
                <ntsc>FALSE</ntsc>
                <timebase>25</timebase>
              </rate>
              <duration>2</duration>
              <width>1920</width>
              <height>1080</height>
              <media>
                <video>
                  <duration>2</duration>
                  <stillframe>TRUE</stillframe>
                  <samplecharacteristics>
                    <rate>
                      <ntsc>FALSE</ntsc>
                      <timebase>25</timebase>
                    </rate>
                    <width>1920</width>
                    <height>1080</height>
                    <pixelaspectratio>Square</pixelaspectratio>
                    <anamorphic>FALSE</anamorphic>
                  </samplecharacteristics>
                </video>
              </media>
            </file>
            <sourcetrack>
              <mediatype>video</mediatype>
            </sourcetrack>
            <fielddominance>none</fielddominance>
          </clipitem>
          <clipitem id="C.png231">
            <name>C.png</name>
            <duration>0.31</duration>
            <rate>
              <ntsc>FALSE</ntsc>
              <timebase>25</timebase>
            </rate>
            <in>90878.75</in>
            <out>90879.06</out>
            <start>878.75</start>
            <end>879.06</end>
            <pixelaspectratio>Square</pixelaspectratio>
            <stillframe>TRUE</stillframe>
            <anamorphic>FALSE</anamorphic>
            <alphatype>straight</alphatype>
            <masterclipid>C.png231</masterclipid>
            <file id="C">
              <name>C.png</name>
              <pathurl>D:/Codes/SynthLip/SynthLipN/bin/Release/net6.0-windows8.0/publish/Skin/template/C.png</pathurl>
              <rate>
                <ntsc>FALSE</ntsc>
                <timebase>25</timebase>
              </rate>
              <duration>2</duration>
              <width>1920</width>
              <height>1080</height>
              <media>
                <video>
                  <duration>2</duration>
                  <stillframe>TRUE</stillframe>
                  <samplecharacteristics>
                    <rate>
                      <ntsc>FALSE</ntsc>
                      <timebase>25</timebase>
                    </rate>
                    <width>1920</width>
                    <height>1080</height>
                    <pixelaspectratio>Square</pixelaspectratio>
                    <anamorphic>FALSE</anamorphic>
                  </samplecharacteristics>
                </video>
              </media>
            </file>
            <sourcetrack>
              <mediatype>video</mediatype>
            </sourcetrack>
            <fielddominance>none</fielddominance>
          </clipitem>
          <clipitem id="C.png230">
            <name>C.png</name>
            <duration>1.56</duration>
            <rate>
              <ntsc>FALSE</ntsc>
              <timebase>25</timebase>
            </rate>
            <in>90877.19</in>
            <out>90878.75</out>
            <start>877.19</start>
            <end>878.75</end>
            <pixelaspectratio>Square</pixelaspectratio>
            <stillframe>TRUE</stillframe>
            <anamorphic>FALSE</anamorphic>
            <alphatype>straight</alphatype>
            <masterclipid>C.png230</masterclipid>
            <file id="C">
              <name>C.png</name>
              <pathurl>D:/Codes/SynthLip/SynthLipN/bin/Release/net6.0-windows8.0/publish/Skin/template/C.png</pathurl>
              <rate>
                <ntsc>FALSE</ntsc>
                <timebase>25</timebase>
              </rate>
              <duration>2</duration>
              <width>1920</width>
              <height>1080</height>
              <media>
                <video>
                  <duration>2</duration>
                  <stillframe>TRUE</stillframe>
                  <samplecharacteristics>
                    <rate>
                      <ntsc>FALSE</ntsc>
                      <timebase>25</timebase>
                    </rate>
                    <width>1920</width>
                    <height>1080</height>
                    <pixelaspectratio>Square</pixelaspectratio>
                    <anamorphic>FALSE</anamorphic>
                  </samplecharacteristics>
                </video>
              </media>
            </file>
            <sourcetrack>
              <mediatype>video</mediatype>
            </sourcetrack>
            <fielddominance>none</fielddominance>
          </clipitem>
          <clipitem id="F.png229">
            <name>F.png</name>
            <duration>0.94</duration>
            <rate>
              <ntsc>FALSE</ntsc>
              <timebase>25</timebase>
            </rate>
            <in>90876.25</in>
            <out>90877.19</out>
            <start>876.25</start>
            <end>877.19</end>
            <pixelaspectratio>Square</pixelaspectratio>
            <stillframe>TRUE</stillframe>
            <anamorphic>FALSE</anamorphic>
            <alphatype>straight</alphatype>
            <masterclipid>F.png229</masterclipid>
            <file id="F">
              <name>F.png</name>
              <pathurl>D:/Codes/SynthLip/SynthLipN/bin/Release/net6.0-windows8.0/publish/Skin/template/F.png</pathurl>
              <rate>
                <ntsc>FALSE</ntsc>
                <timebase>25</timebase>
              </rate>
              <duration>2</duration>
              <width>1920</width>
              <height>1080</height>
              <media>
                <video>
                  <duration>2</duration>
                  <stillframe>TRUE</stillframe>
                  <samplecharacteristics>
                    <rate>
                      <ntsc>FALSE</ntsc>
                      <timebase>25</timebase>
                    </rate>
                    <width>1920</width>
                    <height>1080</height>
                    <pixelaspectratio>Square</pixelaspectratio>
                    <anamorphic>FALSE</anamorphic>
                  </samplecharacteristics>
                </video>
              </media>
            </file>
            <sourcetrack>
              <mediatype>video</mediatype>
            </sourcetrack>
            <fielddominance>none</fielddominance>
          </clipitem>
          <clipitem id="B.png228">
            <name>B.png</name>
            <duration>1.25</duration>
            <rate>
              <ntsc>FALSE</ntsc>
              <timebase>25</timebase>
            </rate>
            <in>90875</in>
            <out>90876.25</out>
            <start>875</start>
            <end>876.25</end>
            <pixelaspectratio>Square</pixelaspectratio>
            <stillframe>TRUE</stillframe>
            <anamorphic>FALSE</anamorphic>
            <alphatype>straight</alphatype>
            <masterclipid>B.png228</masterclipid>
            <file id="B">
              <name>B.png</name>
              <pathurl>D:/Codes/SynthLip/SynthLipN/bin/Release/net6.0-windows8.0/publish/Skin/template/B.png</pathurl>
              <rate>
                <ntsc>FALSE</ntsc>
                <timebase>25</timebase>
              </rate>
              <duration>2</duration>
              <width>1920</width>
              <height>1080</height>
              <media>
                <video>
                  <duration>2</duration>
                  <stillframe>TRUE</stillframe>
                  <samplecharacteristics>
                    <rate>
                      <ntsc>FALSE</ntsc>
                      <timebase>25</timebase>
                    </rate>
                    <width>1920</width>
                    <height>1080</height>
                    <pixelaspectratio>Square</pixelaspectratio>
                    <anamorphic>FALSE</anamorphic>
                  </samplecharacteristics>
                </video>
              </media>
            </file>
            <sourcetrack>
              <mediatype>video</mediatype>
            </sourcetrack>
            <fielddominance>none</fielddominance>
          </clipitem>
          <clipitem id="F.png227">
            <name>F.png</name>
            <duration>3.75</duration>
            <rate>
              <ntsc>FALSE</ntsc>
              <timebase>25</timebase>
            </rate>
            <in>90871.25</in>
            <out>90875</out>
            <start>871.25</start>
            <end>875</end>
            <pixelaspectratio>Square</pixelaspectratio>
            <stillframe>TRUE</stillframe>
            <anamorphic>FALSE</anamorphic>
            <alphatype>straight</alphatype>
            <masterclipid>F.png227</masterclipid>
            <file id="F">
              <name>F.png</name>
              <pathurl>D:/Codes/SynthLip/SynthLipN/bin/Release/net6.0-windows8.0/publish/Skin/template/F.png</pathurl>
              <rate>
                <ntsc>FALSE</ntsc>
                <timebase>25</timebase>
              </rate>
              <duration>2</duration>
              <width>1920</width>
              <height>1080</height>
              <media>
                <video>
                  <duration>2</duration>
                  <stillframe>TRUE</stillframe>
                  <samplecharacteristics>
                    <rate>
                      <ntsc>FALSE</ntsc>
                      <timebase>25</timebase>
                    </rate>
                    <width>1920</width>
                    <height>1080</height>
                    <pixelaspectratio>Square</pixelaspectratio>
                    <anamorphic>FALSE</anamorphic>
                  </samplecharacteristics>
                </video>
              </media>
            </file>
            <sourcetrack>
              <mediatype>video</mediatype>
            </sourcetrack>
            <fielddominance>none</fielddominance>
          </clipitem>
          <clipitem id="B.png226">
            <name>B.png</name>
            <duration>1.25</duration>
            <rate>
              <ntsc>FALSE</ntsc>
              <timebase>25</timebase>
            </rate>
            <in>90870</in>
            <out>90871.25</out>
            <start>870</start>
            <end>871.25</end>
            <pixelaspectratio>Square</pixelaspectratio>
            <stillframe>TRUE</stillframe>
            <anamorphic>FALSE</anamorphic>
            <alphatype>straight</alphatype>
            <masterclipid>B.png226</masterclipid>
            <file id="B">
              <name>B.png</name>
              <pathurl>D:/Codes/SynthLip/SynthLipN/bin/Release/net6.0-windows8.0/publish/Skin/template/B.png</pathurl>
              <rate>
                <ntsc>FALSE</ntsc>
                <timebase>25</timebase>
              </rate>
              <duration>2</duration>
              <width>1920</width>
              <height>1080</height>
              <media>
                <video>
                  <duration>2</duration>
                  <stillframe>TRUE</stillframe>
                  <samplecharacteristics>
                    <rate>
                      <ntsc>FALSE</ntsc>
                      <timebase>25</timebase>
                    </rate>
                    <width>1920</width>
                    <height>1080</height>
                    <pixelaspectratio>Square</pixelaspectratio>
                    <anamorphic>FALSE</anamorphic>
                  </samplecharacteristics>
                </video>
              </media>
            </file>
            <sourcetrack>
              <mediatype>video</mediatype>
            </sourcetrack>
            <fielddominance>none</fielddominance>
          </clipitem>
          <clipitem id="C.png225">
            <name>C.png</name>
            <duration>1.88</duration>
            <rate>
              <ntsc>FALSE</ntsc>
              <timebase>25</timebase>
            </rate>
            <in>90868.12</in>
            <out>90870</out>
            <start>868.12</start>
            <end>870</end>
            <pixelaspectratio>Square</pixelaspectratio>
            <stillframe>TRUE</stillframe>
            <anamorphic>FALSE</anamorphic>
            <alphatype>straight</alphatype>
            <masterclipid>C.png225</masterclipid>
            <file id="C">
              <name>C.png</name>
              <pathurl>D:/Codes/SynthLip/SynthLipN/bin/Release/net6.0-windows8.0/publish/Skin/template/C.png</pathurl>
              <rate>
                <ntsc>FALSE</ntsc>
                <timebase>25</timebase>
              </rate>
              <duration>2</duration>
              <width>1920</width>
              <height>1080</height>
              <media>
                <video>
                  <duration>2</duration>
                  <stillframe>TRUE</stillframe>
                  <samplecharacteristics>
                    <rate>
                      <ntsc>FALSE</ntsc>
                      <timebase>25</timebase>
                    </rate>
                    <width>1920</width>
                    <height>1080</height>
                    <pixelaspectratio>Square</pixelaspectratio>
                    <anamorphic>FALSE</anamorphic>
                  </samplecharacteristics>
                </video>
              </media>
            </file>
            <sourcetrack>
              <mediatype>video</mediatype>
            </sourcetrack>
            <fielddominance>none</fielddominance>
          </clipitem>
          <clipitem id="C.png224">
            <name>C.png</name>
            <duration>1.87</duration>
            <rate>
              <ntsc>FALSE</ntsc>
              <timebase>25</timebase>
            </rate>
            <in>90866.25</in>
            <out>90868.12</out>
            <start>866.25</start>
            <end>868.12</end>
            <pixelaspectratio>Square</pixelaspectratio>
            <stillframe>TRUE</stillframe>
            <anamorphic>FALSE</anamorphic>
            <alphatype>straight</alphatype>
            <masterclipid>C.png224</masterclipid>
            <file id="C">
              <name>C.png</name>
              <pathurl>D:/Codes/SynthLip/SynthLipN/bin/Release/net6.0-windows8.0/publish/Skin/template/C.png</pathurl>
              <rate>
                <ntsc>FALSE</ntsc>
                <timebase>25</timebase>
              </rate>
              <duration>2</duration>
              <width>1920</width>
              <height>1080</height>
              <media>
                <video>
                  <duration>2</duration>
                  <stillframe>TRUE</stillframe>
                  <samplecharacteristics>
                    <rate>
                      <ntsc>FALSE</ntsc>
                      <timebase>25</timebase>
                    </rate>
                    <width>1920</width>
                    <height>1080</height>
                    <pixelaspectratio>Square</pixelaspectratio>
                    <anamorphic>FALSE</anamorphic>
                  </samplecharacteristics>
                </video>
              </media>
            </file>
            <sourcetrack>
              <mediatype>video</mediatype>
            </sourcetrack>
            <fielddominance>none</fielddominance>
          </clipitem>
          <clipitem id="B.png223">
            <name>B.png</name>
            <duration>2.19</duration>
            <rate>
              <ntsc>FALSE</ntsc>
              <timebase>25</timebase>
            </rate>
            <in>90864.06</in>
            <out>90866.25</out>
            <start>864.06</start>
            <end>866.25</end>
            <pixelaspectratio>Square</pixelaspectratio>
            <stillframe>TRUE</stillframe>
            <anamorphic>FALSE</anamorphic>
            <alphatype>straight</alphatype>
            <masterclipid>B.png223</masterclipid>
            <file id="B">
              <name>B.png</name>
              <pathurl>D:/Codes/SynthLip/SynthLipN/bin/Release/net6.0-windows8.0/publish/Skin/template/B.png</pathurl>
              <rate>
                <ntsc>FALSE</ntsc>
                <timebase>25</timebase>
              </rate>
              <duration>2</duration>
              <width>1920</width>
              <height>1080</height>
              <media>
                <video>
                  <duration>2</duration>
                  <stillframe>TRUE</stillframe>
                  <samplecharacteristics>
                    <rate>
                      <ntsc>FALSE</ntsc>
                      <timebase>25</timebase>
                    </rate>
                    <width>1920</width>
                    <height>1080</height>
                    <pixelaspectratio>Square</pixelaspectratio>
                    <anamorphic>FALSE</anamorphic>
                  </samplecharacteristics>
                </video>
              </media>
            </file>
            <sourcetrack>
              <mediatype>video</mediatype>
            </sourcetrack>
            <fielddominance>none</fielddominance>
          </clipitem>
          <clipitem id="B.png222">
            <name>B.png</name>
            <duration>0.31</duration>
            <rate>
              <ntsc>FALSE</ntsc>
              <timebase>25</timebase>
            </rate>
            <in>90863.75</in>
            <out>90864.06</out>
            <start>863.75</start>
            <end>864.06</end>
            <pixelaspectratio>Square</pixelaspectratio>
            <stillframe>TRUE</stillframe>
            <anamorphic>FALSE</anamorphic>
            <alphatype>straight</alphatype>
            <masterclipid>B.png222</masterclipid>
            <file id="B">
              <name>B.png</name>
              <pathurl>D:/Codes/SynthLip/SynthLipN/bin/Release/net6.0-windows8.0/publish/Skin/template/B.png</pathurl>
              <rate>
                <ntsc>FALSE</ntsc>
                <timebase>25</timebase>
              </rate>
              <duration>2</duration>
              <width>1920</width>
              <height>1080</height>
              <media>
                <video>
                  <duration>2</duration>
                  <stillframe>TRUE</stillframe>
                  <samplecharacteristics>
                    <rate>
                      <ntsc>FALSE</ntsc>
                      <timebase>25</timebase>
                    </rate>
                    <width>1920</width>
                    <height>1080</height>
                    <pixelaspectratio>Square</pixelaspectratio>
                    <anamorphic>FALSE</anamorphic>
                  </samplecharacteristics>
                </video>
              </media>
            </file>
            <sourcetrack>
              <mediatype>video</mediatype>
            </sourcetrack>
            <fielddominance>none</fielddominance>
          </clipitem>
          <clipitem id="C.png221">
            <name>C.png</name>
            <duration>0.94</duration>
            <rate>
              <ntsc>FALSE</ntsc>
              <timebase>25</timebase>
            </rate>
            <in>90862.81</in>
            <out>90863.75</out>
            <start>862.81</start>
            <end>863.75</end>
            <pixelaspectratio>Square</pixelaspectratio>
            <stillframe>TRUE</stillframe>
            <anamorphic>FALSE</anamorphic>
            <alphatype>straight</alphatype>
            <masterclipid>C.png221</masterclipid>
            <file id="C">
              <name>C.png</name>
              <pathurl>D:/Codes/SynthLip/SynthLipN/bin/Release/net6.0-windows8.0/publish/Skin/template/C.png</pathurl>
              <rate>
                <ntsc>FALSE</ntsc>
                <timebase>25</timebase>
              </rate>
              <duration>2</duration>
              <width>1920</width>
              <height>1080</height>
              <media>
                <video>
                  <duration>2</duration>
                  <stillframe>TRUE</stillframe>
                  <samplecharacteristics>
                    <rate>
                      <ntsc>FALSE</ntsc>
                      <timebase>25</timebase>
                    </rate>
                    <width>1920</width>
                    <height>1080</height>
                    <pixelaspectratio>Square</pixelaspectratio>
                    <anamorphic>FALSE</anamorphic>
                  </samplecharacteristics>
                </video>
              </media>
            </file>
            <sourcetrack>
              <mediatype>video</mediatype>
            </sourcetrack>
            <fielddominance>none</fielddominance>
          </clipitem>
          <clipitem id="B.png220">
            <name>B.png</name>
            <duration>0.31</duration>
            <rate>
              <ntsc>FALSE</ntsc>
              <timebase>25</timebase>
            </rate>
            <in>90862.5</in>
            <out>90862.81</out>
            <start>862.5</start>
            <end>862.81</end>
            <pixelaspectratio>Square</pixelaspectratio>
            <stillframe>TRUE</stillframe>
            <anamorphic>FALSE</anamorphic>
            <alphatype>straight</alphatype>
            <masterclipid>B.png220</masterclipid>
            <file id="B">
              <name>B.png</name>
              <pathurl>D:/Codes/SynthLip/SynthLipN/bin/Release/net6.0-windows8.0/publish/Skin/template/B.png</pathurl>
              <rate>
                <ntsc>FALSE</ntsc>
                <timebase>25</timebase>
              </rate>
              <duration>2</duration>
              <width>1920</width>
              <height>1080</height>
              <media>
                <video>
                  <duration>2</duration>
                  <stillframe>TRUE</stillframe>
                  <samplecharacteristics>
                    <rate>
                      <ntsc>FALSE</ntsc>
                      <timebase>25</timebase>
                    </rate>
                    <width>1920</width>
                    <height>1080</height>
                    <pixelaspectratio>Square</pixelaspectratio>
                    <anamorphic>FALSE</anamorphic>
                  </samplecharacteristics>
                </video>
              </media>
            </file>
            <sourcetrack>
              <mediatype>video</mediatype>
            </sourcetrack>
            <fielddominance>none</fielddominance>
          </clipitem>
          <clipitem id="B.png219">
            <name>B.png</name>
            <duration>5.94</duration>
            <rate>
              <ntsc>FALSE</ntsc>
              <timebase>25</timebase>
            </rate>
            <in>90856.56</in>
            <out>90862.5</out>
            <start>856.56</start>
            <end>862.5</end>
            <pixelaspectratio>Square</pixelaspectratio>
            <stillframe>TRUE</stillframe>
            <anamorphic>FALSE</anamorphic>
            <alphatype>straight</alphatype>
            <masterclipid>B.png219</masterclipid>
            <file id="B">
              <name>B.png</name>
              <pathurl>D:/Codes/SynthLip/SynthLipN/bin/Release/net6.0-windows8.0/publish/Skin/template/B.png</pathurl>
              <rate>
                <ntsc>FALSE</ntsc>
                <timebase>25</timebase>
              </rate>
              <duration>2</duration>
              <width>1920</width>
              <height>1080</height>
              <media>
                <video>
                  <duration>2</duration>
                  <stillframe>TRUE</stillframe>
                  <samplecharacteristics>
                    <rate>
                      <ntsc>FALSE</ntsc>
                      <timebase>25</timebase>
                    </rate>
                    <width>1920</width>
                    <height>1080</height>
                    <pixelaspectratio>Square</pixelaspectratio>
                    <anamorphic>FALSE</anamorphic>
                  </samplecharacteristics>
                </video>
              </media>
            </file>
            <sourcetrack>
              <mediatype>video</mediatype>
            </sourcetrack>
            <fielddominance>none</fielddominance>
          </clipitem>
          <clipitem id="B.png218">
            <name>B.png</name>
            <duration>0.31</duration>
            <rate>
              <ntsc>FALSE</ntsc>
              <timebase>25</timebase>
            </rate>
            <in>90856.25</in>
            <out>90856.56</out>
            <start>856.25</start>
            <end>856.56</end>
            <pixelaspectratio>Square</pixelaspectratio>
            <stillframe>TRUE</stillframe>
            <anamorphic>FALSE</anamorphic>
            <alphatype>straight</alphatype>
            <masterclipid>B.png218</masterclipid>
            <file id="B">
              <name>B.png</name>
              <pathurl>D:/Codes/SynthLip/SynthLipN/bin/Release/net6.0-windows8.0/publish/Skin/template/B.png</pathurl>
              <rate>
                <ntsc>FALSE</ntsc>
                <timebase>25</timebase>
              </rate>
              <duration>2</duration>
              <width>1920</width>
              <height>1080</height>
              <media>
                <video>
                  <duration>2</duration>
                  <stillframe>TRUE</stillframe>
                  <samplecharacteristics>
                    <rate>
                      <ntsc>FALSE</ntsc>
                      <timebase>25</timebase>
                    </rate>
                    <width>1920</width>
                    <height>1080</height>
                    <pixelaspectratio>Square</pixelaspectratio>
                    <anamorphic>FALSE</anamorphic>
                  </samplecharacteristics>
                </video>
              </media>
            </file>
            <sourcetrack>
              <mediatype>video</mediatype>
            </sourcetrack>
            <fielddominance>none</fielddominance>
          </clipitem>
          <clipitem id="D.png217">
            <name>D.png</name>
            <duration>0.94</duration>
            <rate>
              <ntsc>FALSE</ntsc>
              <timebase>25</timebase>
            </rate>
            <in>90855.31</in>
            <out>90856.25</out>
            <start>855.31</start>
            <end>856.25</end>
            <pixelaspectratio>Square</pixelaspectratio>
            <stillframe>TRUE</stillframe>
            <anamorphic>FALSE</anamorphic>
            <alphatype>straight</alphatype>
            <masterclipid>D.png217</masterclipid>
            <file id="D">
              <name>D.png</name>
              <pathurl>D:/Codes/SynthLip/SynthLipN/bin/Release/net6.0-windows8.0/publish/Skin/template/D.png</pathurl>
              <rate>
                <ntsc>FALSE</ntsc>
                <timebase>25</timebase>
              </rate>
              <duration>2</duration>
              <width>1920</width>
              <height>1080</height>
              <media>
                <video>
                  <duration>2</duration>
                  <stillframe>TRUE</stillframe>
                  <samplecharacteristics>
                    <rate>
                      <ntsc>FALSE</ntsc>
                      <timebase>25</timebase>
                    </rate>
                    <width>1920</width>
                    <height>1080</height>
                    <pixelaspectratio>Square</pixelaspectratio>
                    <anamorphic>FALSE</anamorphic>
                  </samplecharacteristics>
                </video>
              </media>
            </file>
            <sourcetrack>
              <mediatype>video</mediatype>
            </sourcetrack>
            <fielddominance>none</fielddominance>
          </clipitem>
          <clipitem id="B.png216">
            <name>B.png</name>
            <duration>0.31</duration>
            <rate>
              <ntsc>FALSE</ntsc>
              <timebase>25</timebase>
            </rate>
            <in>90855</in>
            <out>90855.31</out>
            <start>855</start>
            <end>855.31</end>
            <pixelaspectratio>Square</pixelaspectratio>
            <stillframe>TRUE</stillframe>
            <anamorphic>FALSE</anamorphic>
            <alphatype>straight</alphatype>
            <masterclipid>B.png216</masterclipid>
            <file id="B">
              <name>B.png</name>
              <pathurl>D:/Codes/SynthLip/SynthLipN/bin/Release/net6.0-windows8.0/publish/Skin/template/B.png</pathurl>
              <rate>
                <ntsc>FALSE</ntsc>
                <timebase>25</timebase>
              </rate>
              <duration>2</duration>
              <width>1920</width>
              <height>1080</height>
              <media>
                <video>
                  <duration>2</duration>
                  <stillframe>TRUE</stillframe>
                  <samplecharacteristics>
                    <rate>
                      <ntsc>FALSE</ntsc>
                      <timebase>25</timebase>
                    </rate>
                    <width>1920</width>
                    <height>1080</height>
                    <pixelaspectratio>Square</pixelaspectratio>
                    <anamorphic>FALSE</anamorphic>
                  </samplecharacteristics>
                </video>
              </media>
            </file>
            <sourcetrack>
              <mediatype>video</mediatype>
            </sourcetrack>
            <fielddominance>none</fielddominance>
          </clipitem>
          <clipitem id="B.png215">
            <name>B.png</name>
            <duration>6.09</duration>
            <rate>
              <ntsc>FALSE</ntsc>
              <timebase>25</timebase>
            </rate>
            <in>90848.91</in>
            <out>90855</out>
            <start>848.91</start>
            <end>855</end>
            <pixelaspectratio>Square</pixelaspectratio>
            <stillframe>TRUE</stillframe>
            <anamorphic>FALSE</anamorphic>
            <alphatype>straight</alphatype>
            <masterclipid>B.png215</masterclipid>
            <file id="B">
              <name>B.png</name>
              <pathurl>D:/Codes/SynthLip/SynthLipN/bin/Release/net6.0-windows8.0/publish/Skin/template/B.png</pathurl>
              <rate>
                <ntsc>FALSE</ntsc>
                <timebase>25</timebase>
              </rate>
              <duration>2</duration>
              <width>1920</width>
              <height>1080</height>
              <media>
                <video>
                  <duration>2</duration>
                  <stillframe>TRUE</stillframe>
                  <samplecharacteristics>
                    <rate>
                      <ntsc>FALSE</ntsc>
                      <timebase>25</timebase>
                    </rate>
                    <width>1920</width>
                    <height>1080</height>
                    <pixelaspectratio>Square</pixelaspectratio>
                    <anamorphic>FALSE</anamorphic>
                  </samplecharacteristics>
                </video>
              </media>
            </file>
            <sourcetrack>
              <mediatype>video</mediatype>
            </sourcetrack>
            <fielddominance>none</fielddominance>
          </clipitem>
          <clipitem id="B.png214">
            <name>B.png</name>
            <duration>0.47</duration>
            <rate>
              <ntsc>FALSE</ntsc>
              <timebase>25</timebase>
            </rate>
            <in>90848.44</in>
            <out>90848.91</out>
            <start>848.44</start>
            <end>848.91</end>
            <pixelaspectratio>Square</pixelaspectratio>
            <stillframe>TRUE</stillframe>
            <anamorphic>FALSE</anamorphic>
            <alphatype>straight</alphatype>
            <masterclipid>B.png214</masterclipid>
            <file id="B">
              <name>B.png</name>
              <pathurl>D:/Codes/SynthLip/SynthLipN/bin/Release/net6.0-windows8.0/publish/Skin/template/B.png</pathurl>
              <rate>
                <ntsc>FALSE</ntsc>
                <timebase>25</timebase>
              </rate>
              <duration>2</duration>
              <width>1920</width>
              <height>1080</height>
              <media>
                <video>
                  <duration>2</duration>
                  <stillframe>TRUE</stillframe>
                  <samplecharacteristics>
                    <rate>
                      <ntsc>FALSE</ntsc>
                      <timebase>25</timebase>
                    </rate>
                    <width>1920</width>
                    <height>1080</height>
                    <pixelaspectratio>Square</pixelaspectratio>
                    <anamorphic>FALSE</anamorphic>
                  </samplecharacteristics>
                </video>
              </media>
            </file>
            <sourcetrack>
              <mediatype>video</mediatype>
            </sourcetrack>
            <fielddominance>none</fielddominance>
          </clipitem>
          <clipitem id="B.png213">
            <name>B.png</name>
            <duration>0.31</duration>
            <rate>
              <ntsc>FALSE</ntsc>
              <timebase>25</timebase>
            </rate>
            <in>90848.13</in>
            <out>90848.445</out>
            <start>848.13</start>
            <end>848.44</end>
            <pixelaspectratio>Square</pixelaspectratio>
            <stillframe>TRUE</stillframe>
            <anamorphic>FALSE</anamorphic>
            <alphatype>straight</alphatype>
            <masterclipid>B.png213</masterclipid>
            <file id="B">
              <name>B.png</name>
              <pathurl>D:/Codes/SynthLip/SynthLipN/bin/Release/net6.0-windows8.0/publish/Skin/template/B.png</pathurl>
              <rate>
                <ntsc>FALSE</ntsc>
                <timebase>25</timebase>
              </rate>
              <duration>2</duration>
              <width>1920</width>
              <height>1080</height>
              <media>
                <video>
                  <duration>2</duration>
                  <stillframe>TRUE</stillframe>
                  <samplecharacteristics>
                    <rate>
                      <ntsc>FALSE</ntsc>
                      <timebase>25</timebase>
                    </rate>
                    <width>1920</width>
                    <height>1080</height>
                    <pixelaspectratio>Square</pixelaspectratio>
                    <anamorphic>FALSE</anamorphic>
                  </samplecharacteristics>
                </video>
              </media>
            </file>
            <sourcetrack>
              <mediatype>video</mediatype>
            </sourcetrack>
            <fielddominance>none</fielddominance>
          </clipitem>
          <clipitem id="C.png212">
            <name>C.png</name>
            <duration>0.63</duration>
            <rate>
              <ntsc>FALSE</ntsc>
              <timebase>25</timebase>
            </rate>
            <in>90847.5</in>
            <out>90848.13</out>
            <start>847.5</start>
            <end>848.13</end>
            <pixelaspectratio>Square</pixelaspectratio>
            <stillframe>TRUE</stillframe>
            <anamorphic>FALSE</anamorphic>
            <alphatype>straight</alphatype>
            <masterclipid>C.png212</masterclipid>
            <file id="C">
              <name>C.png</name>
              <pathurl>D:/Codes/SynthLip/SynthLipN/bin/Release/net6.0-windows8.0/publish/Skin/template/C.png</pathurl>
              <rate>
                <ntsc>FALSE</ntsc>
                <timebase>25</timebase>
              </rate>
              <duration>2</duration>
              <width>1920</width>
              <height>1080</height>
              <media>
                <video>
                  <duration>2</duration>
                  <stillframe>TRUE</stillframe>
                  <samplecharacteristics>
                    <rate>
                      <ntsc>FALSE</ntsc>
                      <timebase>25</timebase>
                    </rate>
                    <width>1920</width>
                    <height>1080</height>
                    <pixelaspectratio>Square</pixelaspectratio>
                    <anamorphic>FALSE</anamorphic>
                  </samplecharacteristics>
                </video>
              </media>
            </file>
            <sourcetrack>
              <mediatype>video</mediatype>
            </sourcetrack>
            <fielddominance>none</fielddominance>
          </clipitem>
          <clipitem id="C.png211">
            <name>C.png</name>
            <duration>4.38</duration>
            <rate>
              <ntsc>FALSE</ntsc>
              <timebase>25</timebase>
            </rate>
            <in>90843.12</in>
            <out>90847.5</out>
            <start>843.12</start>
            <end>847.5</end>
            <pixelaspectratio>Square</pixelaspectratio>
            <stillframe>TRUE</stillframe>
            <anamorphic>FALSE</anamorphic>
            <alphatype>straight</alphatype>
            <masterclipid>C.png211</masterclipid>
            <file id="C">
              <name>C.png</name>
              <pathurl>D:/Codes/SynthLip/SynthLipN/bin/Release/net6.0-windows8.0/publish/Skin/template/C.png</pathurl>
              <rate>
                <ntsc>FALSE</ntsc>
                <timebase>25</timebase>
              </rate>
              <duration>2</duration>
              <width>1920</width>
              <height>1080</height>
              <media>
                <video>
                  <duration>2</duration>
                  <stillframe>TRUE</stillframe>
                  <samplecharacteristics>
                    <rate>
                      <ntsc>FALSE</ntsc>
                      <timebase>25</timebase>
                    </rate>
                    <width>1920</width>
                    <height>1080</height>
                    <pixelaspectratio>Square</pixelaspectratio>
                    <anamorphic>FALSE</anamorphic>
                  </samplecharacteristics>
                </video>
              </media>
            </file>
            <sourcetrack>
              <mediatype>video</mediatype>
            </sourcetrack>
            <fielddominance>none</fielddominance>
          </clipitem>
          <clipitem id="G.png210">
            <name>G.png</name>
            <duration>0.63</duration>
            <rate>
              <ntsc>FALSE</ntsc>
              <timebase>25</timebase>
            </rate>
            <in>90842.5</in>
            <out>90843.13</out>
            <start>842.5</start>
            <end>843.13</end>
            <pixelaspectratio>Square</pixelaspectratio>
            <stillframe>TRUE</stillframe>
            <anamorphic>FALSE</anamorphic>
            <alphatype>straight</alphatype>
            <masterclipid>G.png210</masterclipid>
            <file id="G">
              <name>G.png</name>
              <pathurl>D:/Codes/SynthLip/SynthLipN/bin/Release/net6.0-windows8.0/publish/Skin/template/G.png</pathurl>
              <rate>
                <ntsc>FALSE</ntsc>
                <timebase>25</timebase>
              </rate>
              <duration>2</duration>
              <width>1920</width>
              <height>1080</height>
              <media>
                <video>
                  <duration>2</duration>
                  <stillframe>TRUE</stillframe>
                  <samplecharacteristics>
                    <rate>
                      <ntsc>FALSE</ntsc>
                      <timebase>25</timebase>
                    </rate>
                    <width>1920</width>
                    <height>1080</height>
                    <pixelaspectratio>Square</pixelaspectratio>
                    <anamorphic>FALSE</anamorphic>
                  </samplecharacteristics>
                </video>
              </media>
            </file>
            <sourcetrack>
              <mediatype>video</mediatype>
            </sourcetrack>
            <fielddominance>none</fielddominance>
          </clipitem>
          <clipitem id="C.png209">
            <name>C.png</name>
            <duration>1.87</duration>
            <rate>
              <ntsc>FALSE</ntsc>
              <timebase>25</timebase>
            </rate>
            <in>90840.63</in>
            <out>90842.5</out>
            <start>840.63</start>
            <end>842.5</end>
            <pixelaspectratio>Square</pixelaspectratio>
            <stillframe>TRUE</stillframe>
            <anamorphic>FALSE</anamorphic>
            <alphatype>straight</alphatype>
            <masterclipid>C.png209</masterclipid>
            <file id="C">
              <name>C.png</name>
              <pathurl>D:/Codes/SynthLip/SynthLipN/bin/Release/net6.0-windows8.0/publish/Skin/template/C.png</pathurl>
              <rate>
                <ntsc>FALSE</ntsc>
                <timebase>25</timebase>
              </rate>
              <duration>2</duration>
              <width>1920</width>
              <height>1080</height>
              <media>
                <video>
                  <duration>2</duration>
                  <stillframe>TRUE</stillframe>
                  <samplecharacteristics>
                    <rate>
                      <ntsc>FALSE</ntsc>
                      <timebase>25</timebase>
                    </rate>
                    <width>1920</width>
                    <height>1080</height>
                    <pixelaspectratio>Square</pixelaspectratio>
                    <anamorphic>FALSE</anamorphic>
                  </samplecharacteristics>
                </video>
              </media>
            </file>
            <sourcetrack>
              <mediatype>video</mediatype>
            </sourcetrack>
            <fielddominance>none</fielddominance>
          </clipitem>
          <clipitem id="B.png208">
            <name>B.png</name>
            <duration>0.62</duration>
            <rate>
              <ntsc>FALSE</ntsc>
              <timebase>25</timebase>
            </rate>
            <in>90840</in>
            <out>90840.62</out>
            <start>840</start>
            <end>840.62</end>
            <pixelaspectratio>Square</pixelaspectratio>
            <stillframe>TRUE</stillframe>
            <anamorphic>FALSE</anamorphic>
            <alphatype>straight</alphatype>
            <masterclipid>B.png208</masterclipid>
            <file id="B">
              <name>B.png</name>
              <pathurl>D:/Codes/SynthLip/SynthLipN/bin/Release/net6.0-windows8.0/publish/Skin/template/B.png</pathurl>
              <rate>
                <ntsc>FALSE</ntsc>
                <timebase>25</timebase>
              </rate>
              <duration>2</duration>
              <width>1920</width>
              <height>1080</height>
              <media>
                <video>
                  <duration>2</duration>
                  <stillframe>TRUE</stillframe>
                  <samplecharacteristics>
                    <rate>
                      <ntsc>FALSE</ntsc>
                      <timebase>25</timebase>
                    </rate>
                    <width>1920</width>
                    <height>1080</height>
                    <pixelaspectratio>Square</pixelaspectratio>
                    <anamorphic>FALSE</anamorphic>
                  </samplecharacteristics>
                </video>
              </media>
            </file>
            <sourcetrack>
              <mediatype>video</mediatype>
            </sourcetrack>
            <fielddominance>none</fielddominance>
          </clipitem>
          <clipitem id="C.png207">
            <name>C.png</name>
            <duration>2.81</duration>
            <rate>
              <ntsc>FALSE</ntsc>
              <timebase>25</timebase>
            </rate>
            <in>90837.19</in>
            <out>90840</out>
            <start>837.19</start>
            <end>840</end>
            <pixelaspectratio>Square</pixelaspectratio>
            <stillframe>TRUE</stillframe>
            <anamorphic>FALSE</anamorphic>
            <alphatype>straight</alphatype>
            <masterclipid>C.png207</masterclipid>
            <file id="C">
              <name>C.png</name>
              <pathurl>D:/Codes/SynthLip/SynthLipN/bin/Release/net6.0-windows8.0/publish/Skin/template/C.png</pathurl>
              <rate>
                <ntsc>FALSE</ntsc>
                <timebase>25</timebase>
              </rate>
              <duration>2</duration>
              <width>1920</width>
              <height>1080</height>
              <media>
                <video>
                  <duration>2</duration>
                  <stillframe>TRUE</stillframe>
                  <samplecharacteristics>
                    <rate>
                      <ntsc>FALSE</ntsc>
                      <timebase>25</timebase>
                    </rate>
                    <width>1920</width>
                    <height>1080</height>
                    <pixelaspectratio>Square</pixelaspectratio>
                    <anamorphic>FALSE</anamorphic>
                  </samplecharacteristics>
                </video>
              </media>
            </file>
            <sourcetrack>
              <mediatype>video</mediatype>
            </sourcetrack>
            <fielddominance>none</fielddominance>
          </clipitem>
          <clipitem id="A.png206">
            <name>A.png</name>
            <duration>0.94</duration>
            <rate>
              <ntsc>FALSE</ntsc>
              <timebase>25</timebase>
            </rate>
            <in>90836.25</in>
            <out>90837.19</out>
            <start>836.25</start>
            <end>837.19</end>
            <pixelaspectratio>Square</pixelaspectratio>
            <stillframe>TRUE</stillframe>
            <anamorphic>FALSE</anamorphic>
            <alphatype>straight</alphatype>
            <masterclipid>A.png206</masterclipid>
            <file id="A">
              <name>A.png</name>
              <pathurl>D:/Codes/SynthLip/SynthLipN/bin/Release/net6.0-windows8.0/publish/Skin/template/A.png</pathurl>
              <rate>
                <ntsc>FALSE</ntsc>
                <timebase>25</timebase>
              </rate>
              <duration>2</duration>
              <width>1920</width>
              <height>1080</height>
              <media>
                <video>
                  <duration>2</duration>
                  <stillframe>TRUE</stillframe>
                  <samplecharacteristics>
                    <rate>
                      <ntsc>FALSE</ntsc>
                      <timebase>25</timebase>
                    </rate>
                    <width>1920</width>
                    <height>1080</height>
                    <pixelaspectratio>Square</pixelaspectratio>
                    <anamorphic>FALSE</anamorphic>
                  </samplecharacteristics>
                </video>
              </media>
            </file>
            <sourcetrack>
              <mediatype>video</mediatype>
            </sourcetrack>
            <fielddominance>none</fielddominance>
          </clipitem>
          <clipitem id="D.png205">
            <name>D.png</name>
            <duration>1.88</duration>
            <rate>
              <ntsc>FALSE</ntsc>
              <timebase>25</timebase>
            </rate>
            <in>90834.38</in>
            <out>90836.266</out>
            <start>834.38</start>
            <end>836.26</end>
            <pixelaspectratio>Square</pixelaspectratio>
            <stillframe>TRUE</stillframe>
            <anamorphic>FALSE</anamorphic>
            <alphatype>straight</alphatype>
            <masterclipid>D.png205</masterclipid>
            <file id="D">
              <name>D.png</name>
              <pathurl>D:/Codes/SynthLip/SynthLipN/bin/Release/net6.0-windows8.0/publish/Skin/template/D.png</pathurl>
              <rate>
                <ntsc>FALSE</ntsc>
                <timebase>25</timebase>
              </rate>
              <duration>2</duration>
              <width>1920</width>
              <height>1080</height>
              <media>
                <video>
                  <duration>2</duration>
                  <stillframe>TRUE</stillframe>
                  <samplecharacteristics>
                    <rate>
                      <ntsc>FALSE</ntsc>
                      <timebase>25</timebase>
                    </rate>
                    <width>1920</width>
                    <height>1080</height>
                    <pixelaspectratio>Square</pixelaspectratio>
                    <anamorphic>FALSE</anamorphic>
                  </samplecharacteristics>
                </video>
              </media>
            </file>
            <sourcetrack>
              <mediatype>video</mediatype>
            </sourcetrack>
            <fielddominance>none</fielddominance>
          </clipitem>
          <clipitem id="D.png204">
            <name>D.png</name>
            <duration>1.09</duration>
            <rate>
              <ntsc>FALSE</ntsc>
              <timebase>25</timebase>
            </rate>
            <in>90833.28</in>
            <out>90834.375</out>
            <start>833.28</start>
            <end>834.37006</end>
            <pixelaspectratio>Square</pixelaspectratio>
            <stillframe>TRUE</stillframe>
            <anamorphic>FALSE</anamorphic>
            <alphatype>straight</alphatype>
            <masterclipid>D.png204</masterclipid>
            <file id="D">
              <name>D.png</name>
              <pathurl>D:/Codes/SynthLip/SynthLipN/bin/Release/net6.0-windows8.0/publish/Skin/template/D.png</pathurl>
              <rate>
                <ntsc>FALSE</ntsc>
                <timebase>25</timebase>
              </rate>
              <duration>2</duration>
              <width>1920</width>
              <height>1080</height>
              <media>
                <video>
                  <duration>2</duration>
                  <stillframe>TRUE</stillframe>
                  <samplecharacteristics>
                    <rate>
                      <ntsc>FALSE</ntsc>
                      <timebase>25</timebase>
                    </rate>
                    <width>1920</width>
                    <height>1080</height>
                    <pixelaspectratio>Square</pixelaspectratio>
                    <anamorphic>FALSE</anamorphic>
                  </samplecharacteristics>
                </video>
              </media>
            </file>
            <sourcetrack>
              <mediatype>video</mediatype>
            </sourcetrack>
            <fielddominance>none</fielddominance>
          </clipitem>
          <clipitem id="G.png203">
            <name>G.png</name>
            <duration>0.47</duration>
            <rate>
              <ntsc>FALSE</ntsc>
              <timebase>25</timebase>
            </rate>
            <in>90832.81</in>
            <out>90833.28</out>
            <start>832.81</start>
            <end>833.27997</end>
            <pixelaspectratio>Square</pixelaspectratio>
            <stillframe>TRUE</stillframe>
            <anamorphic>FALSE</anamorphic>
            <alphatype>straight</alphatype>
            <masterclipid>G.png203</masterclipid>
            <file id="G">
              <name>G.png</name>
              <pathurl>D:/Codes/SynthLip/SynthLipN/bin/Release/net6.0-windows8.0/publish/Skin/template/G.png</pathurl>
              <rate>
                <ntsc>FALSE</ntsc>
                <timebase>25</timebase>
              </rate>
              <duration>2</duration>
              <width>1920</width>
              <height>1080</height>
              <media>
                <video>
                  <duration>2</duration>
                  <stillframe>TRUE</stillframe>
                  <samplecharacteristics>
                    <rate>
                      <ntsc>FALSE</ntsc>
                      <timebase>25</timebase>
                    </rate>
                    <width>1920</width>
                    <height>1080</height>
                    <pixelaspectratio>Square</pixelaspectratio>
                    <anamorphic>FALSE</anamorphic>
                  </samplecharacteristics>
                </video>
              </media>
            </file>
            <sourcetrack>
              <mediatype>video</mediatype>
            </sourcetrack>
            <fielddominance>none</fielddominance>
          </clipitem>
          <clipitem id="G.png202">
            <name>G.png</name>
            <duration>0.31</duration>
            <rate>
              <ntsc>FALSE</ntsc>
              <timebase>25</timebase>
            </rate>
            <in>90832.5</in>
            <out>90832.81</out>
            <start>832.5</start>
            <end>832.81</end>
            <pixelaspectratio>Square</pixelaspectratio>
            <stillframe>TRUE</stillframe>
            <anamorphic>FALSE</anamorphic>
            <alphatype>straight</alphatype>
            <masterclipid>G.png202</masterclipid>
            <file id="G">
              <name>G.png</name>
              <pathurl>D:/Codes/SynthLip/SynthLipN/bin/Release/net6.0-windows8.0/publish/Skin/template/G.png</pathurl>
              <rate>
                <ntsc>FALSE</ntsc>
                <timebase>25</timebase>
              </rate>
              <duration>2</duration>
              <width>1920</width>
              <height>1080</height>
              <media>
                <video>
                  <duration>2</duration>
                  <stillframe>TRUE</stillframe>
                  <samplecharacteristics>
                    <rate>
                      <ntsc>FALSE</ntsc>
                      <timebase>25</timebase>
                    </rate>
                    <width>1920</width>
                    <height>1080</height>
                    <pixelaspectratio>Square</pixelaspectratio>
                    <anamorphic>FALSE</anamorphic>
                  </samplecharacteristics>
                </video>
              </media>
            </file>
            <sourcetrack>
              <mediatype>video</mediatype>
            </sourcetrack>
            <fielddominance>none</fielddominance>
          </clipitem>
          <clipitem id="B.png201">
            <name>B.png</name>
            <duration>5.98</duration>
            <rate>
              <ntsc>FALSE</ntsc>
              <timebase>25</timebase>
            </rate>
            <in>90826.52</in>
            <out>90832.5</out>
            <start>826.52</start>
            <end>832.5</end>
            <pixelaspectratio>Square</pixelaspectratio>
            <stillframe>TRUE</stillframe>
            <anamorphic>FALSE</anamorphic>
            <alphatype>straight</alphatype>
            <masterclipid>B.png201</masterclipid>
            <file id="B">
              <name>B.png</name>
              <pathurl>D:/Codes/SynthLip/SynthLipN/bin/Release/net6.0-windows8.0/publish/Skin/template/B.png</pathurl>
              <rate>
                <ntsc>FALSE</ntsc>
                <timebase>25</timebase>
              </rate>
              <duration>2</duration>
              <width>1920</width>
              <height>1080</height>
              <media>
                <video>
                  <duration>2</duration>
                  <stillframe>TRUE</stillframe>
                  <samplecharacteristics>
                    <rate>
                      <ntsc>FALSE</ntsc>
                      <timebase>25</timebase>
                    </rate>
                    <width>1920</width>
                    <height>1080</height>
                    <pixelaspectratio>Square</pixelaspectratio>
                    <anamorphic>FALSE</anamorphic>
                  </samplecharacteristics>
                </video>
              </media>
            </file>
            <sourcetrack>
              <mediatype>video</mediatype>
            </sourcetrack>
            <fielddominance>none</fielddominance>
          </clipitem>
          <clipitem id="B.png200">
            <name>B.png</name>
            <duration>0.35</duration>
            <rate>
              <ntsc>FALSE</ntsc>
              <timebase>25</timebase>
            </rate>
            <in>90826.17</in>
            <out>90826.52</out>
            <start>826.17</start>
            <end>826.51996</end>
            <pixelaspectratio>Square</pixelaspectratio>
            <stillframe>TRUE</stillframe>
            <anamorphic>FALSE</anamorphic>
            <alphatype>straight</alphatype>
            <masterclipid>B.png200</masterclipid>
            <file id="B">
              <name>B.png</name>
              <pathurl>D:/Codes/SynthLip/SynthLipN/bin/Release/net6.0-windows8.0/publish/Skin/template/B.png</pathurl>
              <rate>
                <ntsc>FALSE</ntsc>
                <timebase>25</timebase>
              </rate>
              <duration>2</duration>
              <width>1920</width>
              <height>1080</height>
              <media>
                <video>
                  <duration>2</duration>
                  <stillframe>TRUE</stillframe>
                  <samplecharacteristics>
                    <rate>
                      <ntsc>FALSE</ntsc>
                      <timebase>25</timebase>
                    </rate>
                    <width>1920</width>
                    <height>1080</height>
                    <pixelaspectratio>Square</pixelaspectratio>
                    <anamorphic>FALSE</anamorphic>
                  </samplecharacteristics>
                </video>
              </media>
            </file>
            <sourcetrack>
              <mediatype>video</mediatype>
            </sourcetrack>
            <fielddominance>none</fielddominance>
          </clipitem>
          <clipitem id="B.png199">
            <name>B.png</name>
            <duration>0.23</duration>
            <rate>
              <ntsc>FALSE</ntsc>
              <timebase>25</timebase>
            </rate>
            <in>90825.94</in>
            <out>90826.164</out>
            <start>825.94</start>
            <end>826.17</end>
            <pixelaspectratio>Square</pixelaspectratio>
            <stillframe>TRUE</stillframe>
            <anamorphic>FALSE</anamorphic>
            <alphatype>straight</alphatype>
            <masterclipid>B.png199</masterclipid>
            <file id="B">
              <name>B.png</name>
              <pathurl>D:/Codes/SynthLip/SynthLipN/bin/Release/net6.0-windows8.0/publish/Skin/template/B.png</pathurl>
              <rate>
                <ntsc>FALSE</ntsc>
                <timebase>25</timebase>
              </rate>
              <duration>2</duration>
              <width>1920</width>
              <height>1080</height>
              <media>
                <video>
                  <duration>2</duration>
                  <stillframe>TRUE</stillframe>
                  <samplecharacteristics>
                    <rate>
                      <ntsc>FALSE</ntsc>
                      <timebase>25</timebase>
                    </rate>
                    <width>1920</width>
                    <height>1080</height>
                    <pixelaspectratio>Square</pixelaspectratio>
                    <anamorphic>FALSE</anamorphic>
                  </samplecharacteristics>
                </video>
              </media>
            </file>
            <sourcetrack>
              <mediatype>video</mediatype>
            </sourcetrack>
            <fielddominance>none</fielddominance>
          </clipitem>
          <clipitem id="D.png198">
            <name>D.png</name>
            <duration>0.7</duration>
            <rate>
              <ntsc>FALSE</ntsc>
              <timebase>25</timebase>
            </rate>
            <in>90825.23</in>
            <out>90825.93</out>
            <start>825.23</start>
            <end>825.93</end>
            <pixelaspectratio>Square</pixelaspectratio>
            <stillframe>TRUE</stillframe>
            <anamorphic>FALSE</anamorphic>
            <alphatype>straight</alphatype>
            <masterclipid>D.png198</masterclipid>
            <file id="D">
              <name>D.png</name>
              <pathurl>D:/Codes/SynthLip/SynthLipN/bin/Release/net6.0-windows8.0/publish/Skin/template/D.png</pathurl>
              <rate>
                <ntsc>FALSE</ntsc>
                <timebase>25</timebase>
              </rate>
              <duration>2</duration>
              <width>1920</width>
              <height>1080</height>
              <media>
                <video>
                  <duration>2</duration>
                  <stillframe>TRUE</stillframe>
                  <samplecharacteristics>
                    <rate>
                      <ntsc>FALSE</ntsc>
                      <timebase>25</timebase>
                    </rate>
                    <width>1920</width>
                    <height>1080</height>
                    <pixelaspectratio>Square</pixelaspectratio>
                    <anamorphic>FALSE</anamorphic>
                  </samplecharacteristics>
                </video>
              </media>
            </file>
            <sourcetrack>
              <mediatype>video</mediatype>
            </sourcetrack>
            <fielddominance>none</fielddominance>
          </clipitem>
          <clipitem id="G.png197">
            <name>G.png</name>
            <duration>0.23</duration>
            <rate>
              <ntsc>FALSE</ntsc>
              <timebase>25</timebase>
            </rate>
            <in>90825</in>
            <out>90825.23</out>
            <start>825</start>
            <end>825.23</end>
            <pixelaspectratio>Square</pixelaspectratio>
            <stillframe>TRUE</stillframe>
            <anamorphic>FALSE</anamorphic>
            <alphatype>straight</alphatype>
            <masterclipid>G.png197</masterclipid>
            <file id="G">
              <name>G.png</name>
              <pathurl>D:/Codes/SynthLip/SynthLipN/bin/Release/net6.0-windows8.0/publish/Skin/template/G.png</pathurl>
              <rate>
                <ntsc>FALSE</ntsc>
                <timebase>25</timebase>
              </rate>
              <duration>2</duration>
              <width>1920</width>
              <height>1080</height>
              <media>
                <video>
                  <duration>2</duration>
                  <stillframe>TRUE</stillframe>
                  <samplecharacteristics>
                    <rate>
                      <ntsc>FALSE</ntsc>
                      <timebase>25</timebase>
                    </rate>
                    <width>1920</width>
                    <height>1080</height>
                    <pixelaspectratio>Square</pixelaspectratio>
                    <anamorphic>FALSE</anamorphic>
                  </samplecharacteristics>
                </video>
              </media>
            </file>
            <sourcetrack>
              <mediatype>video</mediatype>
            </sourcetrack>
            <fielddominance>none</fielddominance>
          </clipitem>
          <clipitem id="F.png196">
            <name>F.png</name>
            <duration>5.62</duration>
            <rate>
              <ntsc>FALSE</ntsc>
              <timebase>25</timebase>
            </rate>
            <in>90819.38</in>
            <out>90825</out>
            <start>819.38</start>
            <end>825</end>
            <pixelaspectratio>Square</pixelaspectratio>
            <stillframe>TRUE</stillframe>
            <anamorphic>FALSE</anamorphic>
            <alphatype>straight</alphatype>
            <masterclipid>F.png196</masterclipid>
            <file id="F">
              <name>F.png</name>
              <pathurl>D:/Codes/SynthLip/SynthLipN/bin/Release/net6.0-windows8.0/publish/Skin/template/F.png</pathurl>
              <rate>
                <ntsc>FALSE</ntsc>
                <timebase>25</timebase>
              </rate>
              <duration>2</duration>
              <width>1920</width>
              <height>1080</height>
              <media>
                <video>
                  <duration>2</duration>
                  <stillframe>TRUE</stillframe>
                  <samplecharacteristics>
                    <rate>
                      <ntsc>FALSE</ntsc>
                      <timebase>25</timebase>
                    </rate>
                    <width>1920</width>
                    <height>1080</height>
                    <pixelaspectratio>Square</pixelaspectratio>
                    <anamorphic>FALSE</anamorphic>
                  </samplecharacteristics>
                </video>
              </media>
            </file>
            <sourcetrack>
              <mediatype>video</mediatype>
            </sourcetrack>
            <fielddominance>none</fielddominance>
          </clipitem>
          <clipitem id="B.png195">
            <name>B.png</name>
            <duration>1.88</duration>
            <rate>
              <ntsc>FALSE</ntsc>
              <timebase>25</timebase>
            </rate>
            <in>90817.5</in>
            <out>90819.38</out>
            <start>817.5</start>
            <end>819.38</end>
            <pixelaspectratio>Square</pixelaspectratio>
            <stillframe>TRUE</stillframe>
            <anamorphic>FALSE</anamorphic>
            <alphatype>straight</alphatype>
            <masterclipid>B.png195</masterclipid>
            <file id="B">
              <name>B.png</name>
              <pathurl>D:/Codes/SynthLip/SynthLipN/bin/Release/net6.0-windows8.0/publish/Skin/template/B.png</pathurl>
              <rate>
                <ntsc>FALSE</ntsc>
                <timebase>25</timebase>
              </rate>
              <duration>2</duration>
              <width>1920</width>
              <height>1080</height>
              <media>
                <video>
                  <duration>2</duration>
                  <stillframe>TRUE</stillframe>
                  <samplecharacteristics>
                    <rate>
                      <ntsc>FALSE</ntsc>
                      <timebase>25</timebase>
                    </rate>
                    <width>1920</width>
                    <height>1080</height>
                    <pixelaspectratio>Square</pixelaspectratio>
                    <anamorphic>FALSE</anamorphic>
                  </samplecharacteristics>
                </video>
              </media>
            </file>
            <sourcetrack>
              <mediatype>video</mediatype>
            </sourcetrack>
            <fielddominance>none</fielddominance>
          </clipitem>
          <clipitem id="D.png194">
            <name>D.png</name>
            <duration>5.63</duration>
            <rate>
              <ntsc>FALSE</ntsc>
              <timebase>25</timebase>
            </rate>
            <in>90811.87</in>
            <out>90817.5</out>
            <start>811.87</start>
            <end>817.5</end>
            <pixelaspectratio>Square</pixelaspectratio>
            <stillframe>TRUE</stillframe>
            <anamorphic>FALSE</anamorphic>
            <alphatype>straight</alphatype>
            <masterclipid>D.png194</masterclipid>
            <file id="D">
              <name>D.png</name>
              <pathurl>D:/Codes/SynthLip/SynthLipN/bin/Release/net6.0-windows8.0/publish/Skin/template/D.png</pathurl>
              <rate>
                <ntsc>FALSE</ntsc>
                <timebase>25</timebase>
              </rate>
              <duration>2</duration>
              <width>1920</width>
              <height>1080</height>
              <media>
                <video>
                  <duration>2</duration>
                  <stillframe>TRUE</stillframe>
                  <samplecharacteristics>
                    <rate>
                      <ntsc>FALSE</ntsc>
                      <timebase>25</timebase>
                    </rate>
                    <width>1920</width>
                    <height>1080</height>
                    <pixelaspectratio>Square</pixelaspectratio>
                    <anamorphic>FALSE</anamorphic>
                  </samplecharacteristics>
                </video>
              </media>
            </file>
            <sourcetrack>
              <mediatype>video</mediatype>
            </sourcetrack>
            <fielddominance>none</fielddominance>
          </clipitem>
          <clipitem id="D.png193">
            <name>D.png</name>
            <duration>1.41</duration>
            <rate>
              <ntsc>FALSE</ntsc>
              <timebase>25</timebase>
            </rate>
            <in>90810.47</in>
            <out>90811.875</out>
            <start>810.47</start>
            <end>811.87994</end>
            <pixelaspectratio>Square</pixelaspectratio>
            <stillframe>TRUE</stillframe>
            <anamorphic>FALSE</anamorphic>
            <alphatype>straight</alphatype>
            <masterclipid>D.png193</masterclipid>
            <file id="D">
              <name>D.png</name>
              <pathurl>D:/Codes/SynthLip/SynthLipN/bin/Release/net6.0-windows8.0/publish/Skin/template/D.png</pathurl>
              <rate>
                <ntsc>FALSE</ntsc>
                <timebase>25</timebase>
              </rate>
              <duration>2</duration>
              <width>1920</width>
              <height>1080</height>
              <media>
                <video>
                  <duration>2</duration>
                  <stillframe>TRUE</stillframe>
                  <samplecharacteristics>
                    <rate>
                      <ntsc>FALSE</ntsc>
                      <timebase>25</timebase>
                    </rate>
                    <width>1920</width>
                    <height>1080</height>
                    <pixelaspectratio>Square</pixelaspectratio>
                    <anamorphic>FALSE</anamorphic>
                  </samplecharacteristics>
                </video>
              </media>
            </file>
            <sourcetrack>
              <mediatype>video</mediatype>
            </sourcetrack>
            <fielddominance>none</fielddominance>
          </clipitem>
          <clipitem id="B.png192">
            <name>B.png</name>
            <duration>0.47</duration>
            <rate>
              <ntsc>FALSE</ntsc>
              <timebase>25</timebase>
            </rate>
            <in>90810</in>
            <out>90810.47</out>
            <start>810</start>
            <end>810.47</end>
            <pixelaspectratio>Square</pixelaspectratio>
            <stillframe>TRUE</stillframe>
            <anamorphic>FALSE</anamorphic>
            <alphatype>straight</alphatype>
            <masterclipid>B.png192</masterclipid>
            <file id="B">
              <name>B.png</name>
              <pathurl>D:/Codes/SynthLip/SynthLipN/bin/Release/net6.0-windows8.0/publish/Skin/template/B.png</pathurl>
              <rate>
                <ntsc>FALSE</ntsc>
                <timebase>25</timebase>
              </rate>
              <duration>2</duration>
              <width>1920</width>
              <height>1080</height>
              <media>
                <video>
                  <duration>2</duration>
                  <stillframe>TRUE</stillframe>
                  <samplecharacteristics>
                    <rate>
                      <ntsc>FALSE</ntsc>
                      <timebase>25</timebase>
                    </rate>
                    <width>1920</width>
                    <height>1080</height>
                    <pixelaspectratio>Square</pixelaspectratio>
                    <anamorphic>FALSE</anamorphic>
                  </samplecharacteristics>
                </video>
              </media>
            </file>
            <sourcetrack>
              <mediatype>video</mediatype>
            </sourcetrack>
            <fielddominance>none</fielddominance>
          </clipitem>
          <clipitem id="A.png191">
            <name>A.png</name>
            <duration>248.44</duration>
            <rate>
              <ntsc>FALSE</ntsc>
              <timebase>25</timebase>
            </rate>
            <in>90561.56</in>
            <out>90810</out>
            <start>561.56</start>
            <end>810</end>
            <pixelaspectratio>Square</pixelaspectratio>
            <stillframe>TRUE</stillframe>
            <anamorphic>FALSE</anamorphic>
            <alphatype>straight</alphatype>
            <masterclipid>A.png191</masterclipid>
            <file id="A">
              <name>A.png</name>
              <pathurl>D:/Codes/SynthLip/SynthLipN/bin/Release/net6.0-windows8.0/publish/Skin/template/A.png</pathurl>
              <rate>
                <ntsc>FALSE</ntsc>
                <timebase>25</timebase>
              </rate>
              <duration>2</duration>
              <width>1920</width>
              <height>1080</height>
              <media>
                <video>
                  <duration>2</duration>
                  <stillframe>TRUE</stillframe>
                  <samplecharacteristics>
                    <rate>
                      <ntsc>FALSE</ntsc>
                      <timebase>25</timebase>
                    </rate>
                    <width>1920</width>
                    <height>1080</height>
                    <pixelaspectratio>Square</pixelaspectratio>
                    <anamorphic>FALSE</anamorphic>
                  </samplecharacteristics>
                </video>
              </media>
            </file>
            <sourcetrack>
              <mediatype>video</mediatype>
            </sourcetrack>
            <fielddominance>none</fielddominance>
          </clipitem>
          <clipitem id="H.png190">
            <name>H.png</name>
            <duration>0.94</duration>
            <rate>
              <ntsc>FALSE</ntsc>
              <timebase>25</timebase>
            </rate>
            <in>90560.63</in>
            <out>90561.57</out>
            <start>560.63</start>
            <end>561.57</end>
            <pixelaspectratio>Square</pixelaspectratio>
            <stillframe>TRUE</stillframe>
            <anamorphic>FALSE</anamorphic>
            <alphatype>straight</alphatype>
            <masterclipid>H.png190</masterclipid>
            <file id="H">
              <name>H.png</name>
              <pathurl>D:/Codes/SynthLip/SynthLipN/bin/Release/net6.0-windows8.0/publish/Skin/template/H.png</pathurl>
              <rate>
                <ntsc>FALSE</ntsc>
                <timebase>25</timebase>
              </rate>
              <duration>2</duration>
              <width>1920</width>
              <height>1080</height>
              <media>
                <video>
                  <duration>2</duration>
                  <stillframe>TRUE</stillframe>
                  <samplecharacteristics>
                    <rate>
                      <ntsc>FALSE</ntsc>
                      <timebase>25</timebase>
                    </rate>
                    <width>1920</width>
                    <height>1080</height>
                    <pixelaspectratio>Square</pixelaspectratio>
                    <anamorphic>FALSE</anamorphic>
                  </samplecharacteristics>
                </video>
              </media>
            </file>
            <sourcetrack>
              <mediatype>video</mediatype>
            </sourcetrack>
            <fielddominance>none</fielddominance>
          </clipitem>
          <clipitem id="F.png189">
            <name>F.png</name>
            <duration>3.28</duration>
            <rate>
              <ntsc>FALSE</ntsc>
              <timebase>25</timebase>
            </rate>
            <in>90557.34</in>
            <out>90560.625</out>
            <start>557.34</start>
            <end>560.62006</end>
            <pixelaspectratio>Square</pixelaspectratio>
            <stillframe>TRUE</stillframe>
            <anamorphic>FALSE</anamorphic>
            <alphatype>straight</alphatype>
            <masterclipid>F.png189</masterclipid>
            <file id="F">
              <name>F.png</name>
              <pathurl>D:/Codes/SynthLip/SynthLipN/bin/Release/net6.0-windows8.0/publish/Skin/template/F.png</pathurl>
              <rate>
                <ntsc>FALSE</ntsc>
                <timebase>25</timebase>
              </rate>
              <duration>2</duration>
              <width>1920</width>
              <height>1080</height>
              <media>
                <video>
                  <duration>2</duration>
                  <stillframe>TRUE</stillframe>
                  <samplecharacteristics>
                    <rate>
                      <ntsc>FALSE</ntsc>
                      <timebase>25</timebase>
                    </rate>
                    <width>1920</width>
                    <height>1080</height>
                    <pixelaspectratio>Square</pixelaspectratio>
                    <anamorphic>FALSE</anamorphic>
                  </samplecharacteristics>
                </video>
              </media>
            </file>
            <sourcetrack>
              <mediatype>video</mediatype>
            </sourcetrack>
            <fielddominance>none</fielddominance>
          </clipitem>
          <clipitem id="B.png188">
            <name>B.png</name>
            <duration>1.41</duration>
            <rate>
              <ntsc>FALSE</ntsc>
              <timebase>25</timebase>
            </rate>
            <in>90555.94</in>
            <out>90557.34</out>
            <start>555.94</start>
            <end>557.35</end>
            <pixelaspectratio>Square</pixelaspectratio>
            <stillframe>TRUE</stillframe>
            <anamorphic>FALSE</anamorphic>
            <alphatype>straight</alphatype>
            <masterclipid>B.png188</masterclipid>
            <file id="B">
              <name>B.png</name>
              <pathurl>D:/Codes/SynthLip/SynthLipN/bin/Release/net6.0-windows8.0/publish/Skin/template/B.png</pathurl>
              <rate>
                <ntsc>FALSE</ntsc>
                <timebase>25</timebase>
              </rate>
              <duration>2</duration>
              <width>1920</width>
              <height>1080</height>
              <media>
                <video>
                  <duration>2</duration>
                  <stillframe>TRUE</stillframe>
                  <samplecharacteristics>
                    <rate>
                      <ntsc>FALSE</ntsc>
                      <timebase>25</timebase>
                    </rate>
                    <width>1920</width>
                    <height>1080</height>
                    <pixelaspectratio>Square</pixelaspectratio>
                    <anamorphic>FALSE</anamorphic>
                  </samplecharacteristics>
                </video>
              </media>
            </file>
            <sourcetrack>
              <mediatype>video</mediatype>
            </sourcetrack>
            <fielddominance>none</fielddominance>
          </clipitem>
          <clipitem id="B.png187">
            <name>B.png</name>
            <duration>0.94</duration>
            <rate>
              <ntsc>FALSE</ntsc>
              <timebase>25</timebase>
            </rate>
            <in>90555</in>
            <out>90555.94</out>
            <start>555</start>
            <end>555.94</end>
            <pixelaspectratio>Square</pixelaspectratio>
            <stillframe>TRUE</stillframe>
            <anamorphic>FALSE</anamorphic>
            <alphatype>straight</alphatype>
            <masterclipid>B.png187</masterclipid>
            <file id="B">
              <name>B.png</name>
              <pathurl>D:/Codes/SynthLip/SynthLipN/bin/Release/net6.0-windows8.0/publish/Skin/template/B.png</pathurl>
              <rate>
                <ntsc>FALSE</ntsc>
                <timebase>25</timebase>
              </rate>
              <duration>2</duration>
              <width>1920</width>
              <height>1080</height>
              <media>
                <video>
                  <duration>2</duration>
                  <stillframe>TRUE</stillframe>
                  <samplecharacteristics>
                    <rate>
                      <ntsc>FALSE</ntsc>
                      <timebase>25</timebase>
                    </rate>
                    <width>1920</width>
                    <height>1080</height>
                    <pixelaspectratio>Square</pixelaspectratio>
                    <anamorphic>FALSE</anamorphic>
                  </samplecharacteristics>
                </video>
              </media>
            </file>
            <sourcetrack>
              <mediatype>video</mediatype>
            </sourcetrack>
            <fielddominance>none</fielddominance>
          </clipitem>
          <clipitem id="F.png186">
            <name>F.png</name>
            <duration>3.75</duration>
            <rate>
              <ntsc>FALSE</ntsc>
              <timebase>25</timebase>
            </rate>
            <in>90551.25</in>
            <out>90555</out>
            <start>551.25</start>
            <end>555</end>
            <pixelaspectratio>Square</pixelaspectratio>
            <stillframe>TRUE</stillframe>
            <anamorphic>FALSE</anamorphic>
            <alphatype>straight</alphatype>
            <masterclipid>F.png186</masterclipid>
            <file id="F">
              <name>F.png</name>
              <pathurl>D:/Codes/SynthLip/SynthLipN/bin/Release/net6.0-windows8.0/publish/Skin/template/F.png</pathurl>
              <rate>
                <ntsc>FALSE</ntsc>
                <timebase>25</timebase>
              </rate>
              <duration>2</duration>
              <width>1920</width>
              <height>1080</height>
              <media>
                <video>
                  <duration>2</duration>
                  <stillframe>TRUE</stillframe>
                  <samplecharacteristics>
                    <rate>
                      <ntsc>FALSE</ntsc>
                      <timebase>25</timebase>
                    </rate>
                    <width>1920</width>
                    <height>1080</height>
                    <pixelaspectratio>Square</pixelaspectratio>
                    <anamorphic>FALSE</anamorphic>
                  </samplecharacteristics>
                </video>
              </media>
            </file>
            <sourcetrack>
              <mediatype>video</mediatype>
            </sourcetrack>
            <fielddominance>none</fielddominance>
          </clipitem>
          <clipitem id="F.png185">
            <name>F.png</name>
            <duration>1.87</duration>
            <rate>
              <ntsc>FALSE</ntsc>
              <timebase>25</timebase>
            </rate>
            <in>90549.38</in>
            <out>90551.25</out>
            <start>549.38</start>
            <end>551.25</end>
            <pixelaspectratio>Square</pixelaspectratio>
            <stillframe>TRUE</stillframe>
            <anamorphic>FALSE</anamorphic>
            <alphatype>straight</alphatype>
            <masterclipid>F.png185</masterclipid>
            <file id="F">
              <name>F.png</name>
              <pathurl>D:/Codes/SynthLip/SynthLipN/bin/Release/net6.0-windows8.0/publish/Skin/template/F.png</pathurl>
              <rate>
                <ntsc>FALSE</ntsc>
                <timebase>25</timebase>
              </rate>
              <duration>2</duration>
              <width>1920</width>
              <height>1080</height>
              <media>
                <video>
                  <duration>2</duration>
                  <stillframe>TRUE</stillframe>
                  <samplecharacteristics>
                    <rate>
                      <ntsc>FALSE</ntsc>
                      <timebase>25</timebase>
                    </rate>
                    <width>1920</width>
                    <height>1080</height>
                    <pixelaspectratio>Square</pixelaspectratio>
                    <anamorphic>FALSE</anamorphic>
                  </samplecharacteristics>
                </video>
              </media>
            </file>
            <sourcetrack>
              <mediatype>video</mediatype>
            </sourcetrack>
            <fielddominance>none</fielddominance>
          </clipitem>
          <clipitem id="F.png184">
            <name>F.png</name>
            <duration>2.03</duration>
            <rate>
              <ntsc>FALSE</ntsc>
              <timebase>25</timebase>
            </rate>
            <in>90547.34</in>
            <out>90549.375</out>
            <start>547.34</start>
            <end>549.37006</end>
            <pixelaspectratio>Square</pixelaspectratio>
            <stillframe>TRUE</stillframe>
            <anamorphic>FALSE</anamorphic>
            <alphatype>straight</alphatype>
            <masterclipid>F.png184</masterclipid>
            <file id="F">
              <name>F.png</name>
              <pathurl>D:/Codes/SynthLip/SynthLipN/bin/Release/net6.0-windows8.0/publish/Skin/template/F.png</pathurl>
              <rate>
                <ntsc>FALSE</ntsc>
                <timebase>25</timebase>
              </rate>
              <duration>2</duration>
              <width>1920</width>
              <height>1080</height>
              <media>
                <video>
                  <duration>2</duration>
                  <stillframe>TRUE</stillframe>
                  <samplecharacteristics>
                    <rate>
                      <ntsc>FALSE</ntsc>
                      <timebase>25</timebase>
                    </rate>
                    <width>1920</width>
                    <height>1080</height>
                    <pixelaspectratio>Square</pixelaspectratio>
                    <anamorphic>FALSE</anamorphic>
                  </samplecharacteristics>
                </video>
              </media>
            </file>
            <sourcetrack>
              <mediatype>video</mediatype>
            </sourcetrack>
            <fielddominance>none</fielddominance>
          </clipitem>
          <clipitem id="B.png183">
            <name>B.png</name>
            <duration>1.09</duration>
            <rate>
              <ntsc>FALSE</ntsc>
              <timebase>25</timebase>
            </rate>
            <in>90546.25</in>
            <out>90547.34</out>
            <start>546.25</start>
            <end>547.34</end>
            <pixelaspectratio>Square</pixelaspectratio>
            <stillframe>TRUE</stillframe>
            <anamorphic>FALSE</anamorphic>
            <alphatype>straight</alphatype>
            <masterclipid>B.png183</masterclipid>
            <file id="B">
              <name>B.png</name>
              <pathurl>D:/Codes/SynthLip/SynthLipN/bin/Release/net6.0-windows8.0/publish/Skin/template/B.png</pathurl>
              <rate>
                <ntsc>FALSE</ntsc>
                <timebase>25</timebase>
              </rate>
              <duration>2</duration>
              <width>1920</width>
              <height>1080</height>
              <media>
                <video>
                  <duration>2</duration>
                  <stillframe>TRUE</stillframe>
                  <samplecharacteristics>
                    <rate>
                      <ntsc>FALSE</ntsc>
                      <timebase>25</timebase>
                    </rate>
                    <width>1920</width>
                    <height>1080</height>
                    <pixelaspectratio>Square</pixelaspectratio>
                    <anamorphic>FALSE</anamorphic>
                  </samplecharacteristics>
                </video>
              </media>
            </file>
            <sourcetrack>
              <mediatype>video</mediatype>
            </sourcetrack>
            <fielddominance>none</fielddominance>
          </clipitem>
          <clipitem id="C.png182">
            <name>C.png</name>
            <duration>1.25</duration>
            <rate>
              <ntsc>FALSE</ntsc>
              <timebase>25</timebase>
            </rate>
            <in>90545</in>
            <out>90546.25</out>
            <start>545</start>
            <end>546.25</end>
            <pixelaspectratio>Square</pixelaspectratio>
            <stillframe>TRUE</stillframe>
            <anamorphic>FALSE</anamorphic>
            <alphatype>straight</alphatype>
            <masterclipid>C.png182</masterclipid>
            <file id="C">
              <name>C.png</name>
              <pathurl>D:/Codes/SynthLip/SynthLipN/bin/Release/net6.0-windows8.0/publish/Skin/template/C.png</pathurl>
              <rate>
                <ntsc>FALSE</ntsc>
                <timebase>25</timebase>
              </rate>
              <duration>2</duration>
              <width>1920</width>
              <height>1080</height>
              <media>
                <video>
                  <duration>2</duration>
                  <stillframe>TRUE</stillframe>
                  <samplecharacteristics>
                    <rate>
                      <ntsc>FALSE</ntsc>
                      <timebase>25</timebase>
                    </rate>
                    <width>1920</width>
                    <height>1080</height>
                    <pixelaspectratio>Square</pixelaspectratio>
                    <anamorphic>FALSE</anamorphic>
                  </samplecharacteristics>
                </video>
              </media>
            </file>
            <sourcetrack>
              <mediatype>video</mediatype>
            </sourcetrack>
            <fielddominance>none</fielddominance>
          </clipitem>
          <clipitem id="C.png181">
            <name>C.png</name>
            <duration>3.75</duration>
            <rate>
              <ntsc>FALSE</ntsc>
              <timebase>25</timebase>
            </rate>
            <in>90541.25</in>
            <out>90545</out>
            <start>541.25</start>
            <end>545</end>
            <pixelaspectratio>Square</pixelaspectratio>
            <stillframe>TRUE</stillframe>
            <anamorphic>FALSE</anamorphic>
            <alphatype>straight</alphatype>
            <masterclipid>C.png181</masterclipid>
            <file id="C">
              <name>C.png</name>
              <pathurl>D:/Codes/SynthLip/SynthLipN/bin/Release/net6.0-windows8.0/publish/Skin/template/C.png</pathurl>
              <rate>
                <ntsc>FALSE</ntsc>
                <timebase>25</timebase>
              </rate>
              <duration>2</duration>
              <width>1920</width>
              <height>1080</height>
              <media>
                <video>
                  <duration>2</duration>
                  <stillframe>TRUE</stillframe>
                  <samplecharacteristics>
                    <rate>
                      <ntsc>FALSE</ntsc>
                      <timebase>25</timebase>
                    </rate>
                    <width>1920</width>
                    <height>1080</height>
                    <pixelaspectratio>Square</pixelaspectratio>
                    <anamorphic>FALSE</anamorphic>
                  </samplecharacteristics>
                </video>
              </media>
            </file>
            <sourcetrack>
              <mediatype>video</mediatype>
            </sourcetrack>
            <fielddominance>none</fielddominance>
          </clipitem>
          <clipitem id="B.png180">
            <name>B.png</name>
            <duration>1.25</duration>
            <rate>
              <ntsc>FALSE</ntsc>
              <timebase>25</timebase>
            </rate>
            <in>90540</in>
            <out>90541.25</out>
            <start>540</start>
            <end>541.25</end>
            <pixelaspectratio>Square</pixelaspectratio>
            <stillframe>TRUE</stillframe>
            <anamorphic>FALSE</anamorphic>
            <alphatype>straight</alphatype>
            <masterclipid>B.png180</masterclipid>
            <file id="B">
              <name>B.png</name>
              <pathurl>D:/Codes/SynthLip/SynthLipN/bin/Release/net6.0-windows8.0/publish/Skin/template/B.png</pathurl>
              <rate>
                <ntsc>FALSE</ntsc>
                <timebase>25</timebase>
              </rate>
              <duration>2</duration>
              <width>1920</width>
              <height>1080</height>
              <media>
                <video>
                  <duration>2</duration>
                  <stillframe>TRUE</stillframe>
                  <samplecharacteristics>
                    <rate>
                      <ntsc>FALSE</ntsc>
                      <timebase>25</timebase>
                    </rate>
                    <width>1920</width>
                    <height>1080</height>
                    <pixelaspectratio>Square</pixelaspectratio>
                    <anamorphic>FALSE</anamorphic>
                  </samplecharacteristics>
                </video>
              </media>
            </file>
            <sourcetrack>
              <mediatype>video</mediatype>
            </sourcetrack>
            <fielddominance>none</fielddominance>
          </clipitem>
          <clipitem id="D.png179">
            <name>D.png</name>
            <duration>4.38</duration>
            <rate>
              <ntsc>FALSE</ntsc>
              <timebase>25</timebase>
            </rate>
            <in>90535.63</in>
            <out>90540.016</out>
            <start>535.63</start>
            <end>540.01</end>
            <pixelaspectratio>Square</pixelaspectratio>
            <stillframe>TRUE</stillframe>
            <anamorphic>FALSE</anamorphic>
            <alphatype>straight</alphatype>
            <masterclipid>D.png179</masterclipid>
            <file id="D">
              <name>D.png</name>
              <pathurl>D:/Codes/SynthLip/SynthLipN/bin/Release/net6.0-windows8.0/publish/Skin/template/D.png</pathurl>
              <rate>
                <ntsc>FALSE</ntsc>
                <timebase>25</timebase>
              </rate>
              <duration>2</duration>
              <width>1920</width>
              <height>1080</height>
              <media>
                <video>
                  <duration>2</duration>
                  <stillframe>TRUE</stillframe>
                  <samplecharacteristics>
                    <rate>
                      <ntsc>FALSE</ntsc>
                      <timebase>25</timebase>
                    </rate>
                    <width>1920</width>
                    <height>1080</height>
                    <pixelaspectratio>Square</pixelaspectratio>
                    <anamorphic>FALSE</anamorphic>
                  </samplecharacteristics>
                </video>
              </media>
            </file>
            <sourcetrack>
              <mediatype>video</mediatype>
            </sourcetrack>
            <fielddominance>none</fielddominance>
          </clipitem>
          <clipitem id="D.png178">
            <name>D.png</name>
            <duration>0.63</duration>
            <rate>
              <ntsc>FALSE</ntsc>
              <timebase>25</timebase>
            </rate>
            <in>90535</in>
            <out>90535.63</out>
            <start>535</start>
            <end>535.63</end>
            <pixelaspectratio>Square</pixelaspectratio>
            <stillframe>TRUE</stillframe>
            <anamorphic>FALSE</anamorphic>
            <alphatype>straight</alphatype>
            <masterclipid>D.png178</masterclipid>
            <file id="D">
              <name>D.png</name>
              <pathurl>D:/Codes/SynthLip/SynthLipN/bin/Release/net6.0-windows8.0/publish/Skin/template/D.png</pathurl>
              <rate>
                <ntsc>FALSE</ntsc>
                <timebase>25</timebase>
              </rate>
              <duration>2</duration>
              <width>1920</width>
              <height>1080</height>
              <media>
                <video>
                  <duration>2</duration>
                  <stillframe>TRUE</stillframe>
                  <samplecharacteristics>
                    <rate>
                      <ntsc>FALSE</ntsc>
                      <timebase>25</timebase>
                    </rate>
                    <width>1920</width>
                    <height>1080</height>
                    <pixelaspectratio>Square</pixelaspectratio>
                    <anamorphic>FALSE</anamorphic>
                  </samplecharacteristics>
                </video>
              </media>
            </file>
            <sourcetrack>
              <mediatype>video</mediatype>
            </sourcetrack>
            <fielddominance>none</fielddominance>
          </clipitem>
          <clipitem id="D.png177">
            <name>D.png</name>
            <duration>2.58</duration>
            <rate>
              <ntsc>FALSE</ntsc>
              <timebase>25</timebase>
            </rate>
            <in>90532.42</in>
            <out>90535</out>
            <start>532.42</start>
            <end>535</end>
            <pixelaspectratio>Square</pixelaspectratio>
            <stillframe>TRUE</stillframe>
            <anamorphic>FALSE</anamorphic>
            <alphatype>straight</alphatype>
            <masterclipid>D.png177</masterclipid>
            <file id="D">
              <name>D.png</name>
              <pathurl>D:/Codes/SynthLip/SynthLipN/bin/Release/net6.0-windows8.0/publish/Skin/template/D.png</pathurl>
              <rate>
                <ntsc>FALSE</ntsc>
                <timebase>25</timebase>
              </rate>
              <duration>2</duration>
              <width>1920</width>
              <height>1080</height>
              <media>
                <video>
                  <duration>2</duration>
                  <stillframe>TRUE</stillframe>
                  <samplecharacteristics>
                    <rate>
                      <ntsc>FALSE</ntsc>
                      <timebase>25</timebase>
                    </rate>
                    <width>1920</width>
                    <height>1080</height>
                    <pixelaspectratio>Square</pixelaspectratio>
                    <anamorphic>FALSE</anamorphic>
                  </samplecharacteristics>
                </video>
              </media>
            </file>
            <sourcetrack>
              <mediatype>video</mediatype>
            </sourcetrack>
            <fielddominance>none</fielddominance>
          </clipitem>
          <clipitem id="A.png176">
            <name>A.png</name>
            <duration>1.33</duration>
            <rate>
              <ntsc>FALSE</ntsc>
              <timebase>25</timebase>
            </rate>
            <in>90531.09</in>
            <out>90532.42</out>
            <start>531.09</start>
            <end>532.42004</end>
            <pixelaspectratio>Square</pixelaspectratio>
            <stillframe>TRUE</stillframe>
            <anamorphic>FALSE</anamorphic>
            <alphatype>straight</alphatype>
            <masterclipid>A.png176</masterclipid>
            <file id="A">
              <name>A.png</name>
              <pathurl>D:/Codes/SynthLip/SynthLipN/bin/Release/net6.0-windows8.0/publish/Skin/template/A.png</pathurl>
              <rate>
                <ntsc>FALSE</ntsc>
                <timebase>25</timebase>
              </rate>
              <duration>2</duration>
              <width>1920</width>
              <height>1080</height>
              <media>
                <video>
                  <duration>2</duration>
                  <stillframe>TRUE</stillframe>
                  <samplecharacteristics>
                    <rate>
                      <ntsc>FALSE</ntsc>
                      <timebase>25</timebase>
                    </rate>
                    <width>1920</width>
                    <height>1080</height>
                    <pixelaspectratio>Square</pixelaspectratio>
                    <anamorphic>FALSE</anamorphic>
                  </samplecharacteristics>
                </video>
              </media>
            </file>
            <sourcetrack>
              <mediatype>video</mediatype>
            </sourcetrack>
            <fielddominance>none</fielddominance>
          </clipitem>
          <clipitem id="A.png175">
            <name>A.png</name>
            <duration>1.41</duration>
            <rate>
              <ntsc>FALSE</ntsc>
              <timebase>25</timebase>
            </rate>
            <in>90529.69</in>
            <out>90531.09</out>
            <start>529.69</start>
            <end>531.1</end>
            <pixelaspectratio>Square</pixelaspectratio>
            <stillframe>TRUE</stillframe>
            <anamorphic>FALSE</anamorphic>
            <alphatype>straight</alphatype>
            <masterclipid>A.png175</masterclipid>
            <file id="A">
              <name>A.png</name>
              <pathurl>D:/Codes/SynthLip/SynthLipN/bin/Release/net6.0-windows8.0/publish/Skin/template/A.png</pathurl>
              <rate>
                <ntsc>FALSE</ntsc>
                <timebase>25</timebase>
              </rate>
              <duration>2</duration>
              <width>1920</width>
              <height>1080</height>
              <media>
                <video>
                  <duration>2</duration>
                  <stillframe>TRUE</stillframe>
                  <samplecharacteristics>
                    <rate>
                      <ntsc>FALSE</ntsc>
                      <timebase>25</timebase>
                    </rate>
                    <width>1920</width>
                    <height>1080</height>
                    <pixelaspectratio>Square</pixelaspectratio>
                    <anamorphic>FALSE</anamorphic>
                  </samplecharacteristics>
                </video>
              </media>
            </file>
            <sourcetrack>
              <mediatype>video</mediatype>
            </sourcetrack>
            <fielddominance>none</fielddominance>
          </clipitem>
          <clipitem id="F.png174">
            <name>F.png</name>
            <duration>0.94</duration>
            <rate>
              <ntsc>FALSE</ntsc>
              <timebase>25</timebase>
            </rate>
            <in>90528.75</in>
            <out>90529.69</out>
            <start>528.75</start>
            <end>529.69</end>
            <pixelaspectratio>Square</pixelaspectratio>
            <stillframe>TRUE</stillframe>
            <anamorphic>FALSE</anamorphic>
            <alphatype>straight</alphatype>
            <masterclipid>F.png174</masterclipid>
            <file id="F">
              <name>F.png</name>
              <pathurl>D:/Codes/SynthLip/SynthLipN/bin/Release/net6.0-windows8.0/publish/Skin/template/F.png</pathurl>
              <rate>
                <ntsc>FALSE</ntsc>
                <timebase>25</timebase>
              </rate>
              <duration>2</duration>
              <width>1920</width>
              <height>1080</height>
              <media>
                <video>
                  <duration>2</duration>
                  <stillframe>TRUE</stillframe>
                  <samplecharacteristics>
                    <rate>
                      <ntsc>FALSE</ntsc>
                      <timebase>25</timebase>
                    </rate>
                    <width>1920</width>
                    <height>1080</height>
                    <pixelaspectratio>Square</pixelaspectratio>
                    <anamorphic>FALSE</anamorphic>
                  </samplecharacteristics>
                </video>
              </media>
            </file>
            <sourcetrack>
              <mediatype>video</mediatype>
            </sourcetrack>
            <fielddominance>none</fielddominance>
          </clipitem>
          <clipitem id="F.png173">
            <name>F.png</name>
            <duration>2.81</duration>
            <rate>
              <ntsc>FALSE</ntsc>
              <timebase>25</timebase>
            </rate>
            <in>90525.94</in>
            <out>90528.75</out>
            <start>525.94</start>
            <end>528.75</end>
            <pixelaspectratio>Square</pixelaspectratio>
            <stillframe>TRUE</stillframe>
            <anamorphic>FALSE</anamorphic>
            <alphatype>straight</alphatype>
            <masterclipid>F.png173</masterclipid>
            <file id="F">
              <name>F.png</name>
              <pathurl>D:/Codes/SynthLip/SynthLipN/bin/Release/net6.0-windows8.0/publish/Skin/template/F.png</pathurl>
              <rate>
                <ntsc>FALSE</ntsc>
                <timebase>25</timebase>
              </rate>
              <duration>2</duration>
              <width>1920</width>
              <height>1080</height>
              <media>
                <video>
                  <duration>2</duration>
                  <stillframe>TRUE</stillframe>
                  <samplecharacteristics>
                    <rate>
                      <ntsc>FALSE</ntsc>
                      <timebase>25</timebase>
                    </rate>
                    <width>1920</width>
                    <height>1080</height>
                    <pixelaspectratio>Square</pixelaspectratio>
                    <anamorphic>FALSE</anamorphic>
                  </samplecharacteristics>
                </video>
              </media>
            </file>
            <sourcetrack>
              <mediatype>video</mediatype>
            </sourcetrack>
            <fielddominance>none</fielddominance>
          </clipitem>
          <clipitem id="F.png172">
            <name>F.png</name>
            <duration>0.94</duration>
            <rate>
              <ntsc>FALSE</ntsc>
              <timebase>25</timebase>
            </rate>
            <in>90525</in>
            <out>90525.94</out>
            <start>525</start>
            <end>525.94</end>
            <pixelaspectratio>Square</pixelaspectratio>
            <stillframe>TRUE</stillframe>
            <anamorphic>FALSE</anamorphic>
            <alphatype>straight</alphatype>
            <masterclipid>F.png172</masterclipid>
            <file id="F">
              <name>F.png</name>
              <pathurl>D:/Codes/SynthLip/SynthLipN/bin/Release/net6.0-windows8.0/publish/Skin/template/F.png</pathurl>
              <rate>
                <ntsc>FALSE</ntsc>
                <timebase>25</timebase>
              </rate>
              <duration>2</duration>
              <width>1920</width>
              <height>1080</height>
              <media>
                <video>
                  <duration>2</duration>
                  <stillframe>TRUE</stillframe>
                  <samplecharacteristics>
                    <rate>
                      <ntsc>FALSE</ntsc>
                      <timebase>25</timebase>
                    </rate>
                    <width>1920</width>
                    <height>1080</height>
                    <pixelaspectratio>Square</pixelaspectratio>
                    <anamorphic>FALSE</anamorphic>
                  </samplecharacteristics>
                </video>
              </media>
            </file>
            <sourcetrack>
              <mediatype>video</mediatype>
            </sourcetrack>
            <fielddominance>none</fielddominance>
          </clipitem>
          <clipitem id="F.png171">
            <name>F.png</name>
            <duration>5.63</duration>
            <rate>
              <ntsc>FALSE</ntsc>
              <timebase>25</timebase>
            </rate>
            <in>90519.38</in>
            <out>90525.016</out>
            <start>519.38</start>
            <end>525.01</end>
            <pixelaspectratio>Square</pixelaspectratio>
            <stillframe>TRUE</stillframe>
            <anamorphic>FALSE</anamorphic>
            <alphatype>straight</alphatype>
            <masterclipid>F.png171</masterclipid>
            <file id="F">
              <name>F.png</name>
              <pathurl>D:/Codes/SynthLip/SynthLipN/bin/Release/net6.0-windows8.0/publish/Skin/template/F.png</pathurl>
              <rate>
                <ntsc>FALSE</ntsc>
                <timebase>25</timebase>
              </rate>
              <duration>2</duration>
              <width>1920</width>
              <height>1080</height>
              <media>
                <video>
                  <duration>2</duration>
                  <stillframe>TRUE</stillframe>
                  <samplecharacteristics>
                    <rate>
                      <ntsc>FALSE</ntsc>
                      <timebase>25</timebase>
                    </rate>
                    <width>1920</width>
                    <height>1080</height>
                    <pixelaspectratio>Square</pixelaspectratio>
                    <anamorphic>FALSE</anamorphic>
                  </samplecharacteristics>
                </video>
              </media>
            </file>
            <sourcetrack>
              <mediatype>video</mediatype>
            </sourcetrack>
            <fielddominance>none</fielddominance>
          </clipitem>
          <clipitem id="F.png170">
            <name>F.png</name>
            <duration>2.34</duration>
            <rate>
              <ntsc>FALSE</ntsc>
              <timebase>25</timebase>
            </rate>
            <in>90517.03</in>
            <out>90519.375</out>
            <start>517.03</start>
            <end>519.37006</end>
            <pixelaspectratio>Square</pixelaspectratio>
            <stillframe>TRUE</stillframe>
            <anamorphic>FALSE</anamorphic>
            <alphatype>straight</alphatype>
            <masterclipid>F.png170</masterclipid>
            <file id="F">
              <name>F.png</name>
              <pathurl>D:/Codes/SynthLip/SynthLipN/bin/Release/net6.0-windows8.0/publish/Skin/template/F.png</pathurl>
              <rate>
                <ntsc>FALSE</ntsc>
                <timebase>25</timebase>
              </rate>
              <duration>2</duration>
              <width>1920</width>
              <height>1080</height>
              <media>
                <video>
                  <duration>2</duration>
                  <stillframe>TRUE</stillframe>
                  <samplecharacteristics>
                    <rate>
                      <ntsc>FALSE</ntsc>
                      <timebase>25</timebase>
                    </rate>
                    <width>1920</width>
                    <height>1080</height>
                    <pixelaspectratio>Square</pixelaspectratio>
                    <anamorphic>FALSE</anamorphic>
                  </samplecharacteristics>
                </video>
              </media>
            </file>
            <sourcetrack>
              <mediatype>video</mediatype>
            </sourcetrack>
            <fielddominance>none</fielddominance>
          </clipitem>
          <clipitem id="B.png169">
            <name>B.png</name>
            <duration>1.41</duration>
            <rate>
              <ntsc>FALSE</ntsc>
              <timebase>25</timebase>
            </rate>
            <in>90515.63</in>
            <out>90517.04</out>
            <start>515.63</start>
            <end>517.04</end>
            <pixelaspectratio>Square</pixelaspectratio>
            <stillframe>TRUE</stillframe>
            <anamorphic>FALSE</anamorphic>
            <alphatype>straight</alphatype>
            <masterclipid>B.png169</masterclipid>
            <file id="B">
              <name>B.png</name>
              <pathurl>D:/Codes/SynthLip/SynthLipN/bin/Release/net6.0-windows8.0/publish/Skin/template/B.png</pathurl>
              <rate>
                <ntsc>FALSE</ntsc>
                <timebase>25</timebase>
              </rate>
              <duration>2</duration>
              <width>1920</width>
              <height>1080</height>
              <media>
                <video>
                  <duration>2</duration>
                  <stillframe>TRUE</stillframe>
                  <samplecharacteristics>
                    <rate>
                      <ntsc>FALSE</ntsc>
                      <timebase>25</timebase>
                    </rate>
                    <width>1920</width>
                    <height>1080</height>
                    <pixelaspectratio>Square</pixelaspectratio>
                    <anamorphic>FALSE</anamorphic>
                  </samplecharacteristics>
                </video>
              </media>
            </file>
            <sourcetrack>
              <mediatype>video</mediatype>
            </sourcetrack>
            <fielddominance>none</fielddominance>
          </clipitem>
          <clipitem id="C.png168">
            <name>C.png</name>
            <duration>1.88</duration>
            <rate>
              <ntsc>FALSE</ntsc>
              <timebase>25</timebase>
            </rate>
            <in>90513.75</in>
            <out>90515.63</out>
            <start>513.75</start>
            <end>515.63</end>
            <pixelaspectratio>Square</pixelaspectratio>
            <stillframe>TRUE</stillframe>
            <anamorphic>FALSE</anamorphic>
            <alphatype>straight</alphatype>
            <masterclipid>C.png168</masterclipid>
            <file id="C">
              <name>C.png</name>
              <pathurl>D:/Codes/SynthLip/SynthLipN/bin/Release/net6.0-windows8.0/publish/Skin/template/C.png</pathurl>
              <rate>
                <ntsc>FALSE</ntsc>
                <timebase>25</timebase>
              </rate>
              <duration>2</duration>
              <width>1920</width>
              <height>1080</height>
              <media>
                <video>
                  <duration>2</duration>
                  <stillframe>TRUE</stillframe>
                  <samplecharacteristics>
                    <rate>
                      <ntsc>FALSE</ntsc>
                      <timebase>25</timebase>
                    </rate>
                    <width>1920</width>
                    <height>1080</height>
                    <pixelaspectratio>Square</pixelaspectratio>
                    <anamorphic>FALSE</anamorphic>
                  </samplecharacteristics>
                </video>
              </media>
            </file>
            <sourcetrack>
              <mediatype>video</mediatype>
            </sourcetrack>
            <fielddominance>none</fielddominance>
          </clipitem>
          <clipitem id="C.png167">
            <name>C.png</name>
            <duration>2.81</duration>
            <rate>
              <ntsc>FALSE</ntsc>
              <timebase>25</timebase>
            </rate>
            <in>90510.94</in>
            <out>90513.75</out>
            <start>510.94</start>
            <end>513.75</end>
            <pixelaspectratio>Square</pixelaspectratio>
            <stillframe>TRUE</stillframe>
            <anamorphic>FALSE</anamorphic>
            <alphatype>straight</alphatype>
            <masterclipid>C.png167</masterclipid>
            <file id="C">
              <name>C.png</name>
              <pathurl>D:/Codes/SynthLip/SynthLipN/bin/Release/net6.0-windows8.0/publish/Skin/template/C.png</pathurl>
              <rate>
                <ntsc>FALSE</ntsc>
                <timebase>25</timebase>
              </rate>
              <duration>2</duration>
              <width>1920</width>
              <height>1080</height>
              <media>
                <video>
                  <duration>2</duration>
                  <stillframe>TRUE</stillframe>
                  <samplecharacteristics>
                    <rate>
                      <ntsc>FALSE</ntsc>
                      <timebase>25</timebase>
                    </rate>
                    <width>1920</width>
                    <height>1080</height>
                    <pixelaspectratio>Square</pixelaspectratio>
                    <anamorphic>FALSE</anamorphic>
                  </samplecharacteristics>
                </video>
              </media>
            </file>
            <sourcetrack>
              <mediatype>video</mediatype>
            </sourcetrack>
            <fielddominance>none</fielddominance>
          </clipitem>
          <clipitem id="B.png166">
            <name>B.png</name>
            <duration>0.94</duration>
            <rate>
              <ntsc>FALSE</ntsc>
              <timebase>25</timebase>
            </rate>
            <in>90510</in>
            <out>90510.94</out>
            <start>510</start>
            <end>510.94</end>
            <pixelaspectratio>Square</pixelaspectratio>
            <stillframe>TRUE</stillframe>
            <anamorphic>FALSE</anamorphic>
            <alphatype>straight</alphatype>
            <masterclipid>B.png166</masterclipid>
            <file id="B">
              <name>B.png</name>
              <pathurl>D:/Codes/SynthLip/SynthLipN/bin/Release/net6.0-windows8.0/publish/Skin/template/B.png</pathurl>
              <rate>
                <ntsc>FALSE</ntsc>
                <timebase>25</timebase>
              </rate>
              <duration>2</duration>
              <width>1920</width>
              <height>1080</height>
              <media>
                <video>
                  <duration>2</duration>
                  <stillframe>TRUE</stillframe>
                  <samplecharacteristics>
                    <rate>
                      <ntsc>FALSE</ntsc>
                      <timebase>25</timebase>
                    </rate>
                    <width>1920</width>
                    <height>1080</height>
                    <pixelaspectratio>Square</pixelaspectratio>
                    <anamorphic>FALSE</anamorphic>
                  </samplecharacteristics>
                </video>
              </media>
            </file>
            <sourcetrack>
              <mediatype>video</mediatype>
            </sourcetrack>
            <fielddominance>none</fielddominance>
          </clipitem>
          <clipitem id="A.png165">
            <name>A.png</name>
            <duration>8.44</duration>
            <rate>
              <ntsc>FALSE</ntsc>
              <timebase>25</timebase>
            </rate>
            <in>90501.56</in>
            <out>90510</out>
            <start>501.56</start>
            <end>510</end>
            <pixelaspectratio>Square</pixelaspectratio>
            <stillframe>TRUE</stillframe>
            <anamorphic>FALSE</anamorphic>
            <alphatype>straight</alphatype>
            <masterclipid>A.png165</masterclipid>
            <file id="A">
              <name>A.png</name>
              <pathurl>D:/Codes/SynthLip/SynthLipN/bin/Release/net6.0-windows8.0/publish/Skin/template/A.png</pathurl>
              <rate>
                <ntsc>FALSE</ntsc>
                <timebase>25</timebase>
              </rate>
              <duration>2</duration>
              <width>1920</width>
              <height>1080</height>
              <media>
                <video>
                  <duration>2</duration>
                  <stillframe>TRUE</stillframe>
                  <samplecharacteristics>
                    <rate>
                      <ntsc>FALSE</ntsc>
                      <timebase>25</timebase>
                    </rate>
                    <width>1920</width>
                    <height>1080</height>
                    <pixelaspectratio>Square</pixelaspectratio>
                    <anamorphic>FALSE</anamorphic>
                  </samplecharacteristics>
                </video>
              </media>
            </file>
            <sourcetrack>
              <mediatype>video</mediatype>
            </sourcetrack>
            <fielddominance>none</fielddominance>
          </clipitem>
          <clipitem id="H.png164">
            <name>H.png</name>
            <duration>0.94</duration>
            <rate>
              <ntsc>FALSE</ntsc>
              <timebase>25</timebase>
            </rate>
            <in>90500.63</in>
            <out>90501.57</out>
            <start>500.63</start>
            <end>501.57</end>
            <pixelaspectratio>Square</pixelaspectratio>
            <stillframe>TRUE</stillframe>
            <anamorphic>FALSE</anamorphic>
            <alphatype>straight</alphatype>
            <masterclipid>H.png164</masterclipid>
            <file id="H">
              <name>H.png</name>
              <pathurl>D:/Codes/SynthLip/SynthLipN/bin/Release/net6.0-windows8.0/publish/Skin/template/H.png</pathurl>
              <rate>
                <ntsc>FALSE</ntsc>
                <timebase>25</timebase>
              </rate>
              <duration>2</duration>
              <width>1920</width>
              <height>1080</height>
              <media>
                <video>
                  <duration>2</duration>
                  <stillframe>TRUE</stillframe>
                  <samplecharacteristics>
                    <rate>
                      <ntsc>FALSE</ntsc>
                      <timebase>25</timebase>
                    </rate>
                    <width>1920</width>
                    <height>1080</height>
                    <pixelaspectratio>Square</pixelaspectratio>
                    <anamorphic>FALSE</anamorphic>
                  </samplecharacteristics>
                </video>
              </media>
            </file>
            <sourcetrack>
              <mediatype>video</mediatype>
            </sourcetrack>
            <fielddominance>none</fielddominance>
          </clipitem>
          <clipitem id="F.png163">
            <name>F.png</name>
            <duration>3.28</duration>
            <rate>
              <ntsc>FALSE</ntsc>
              <timebase>25</timebase>
            </rate>
            <in>90497.34</in>
            <out>90500.625</out>
            <start>497.34</start>
            <end>500.62</end>
            <pixelaspectratio>Square</pixelaspectratio>
            <stillframe>TRUE</stillframe>
            <anamorphic>FALSE</anamorphic>
            <alphatype>straight</alphatype>
            <masterclipid>F.png163</masterclipid>
            <file id="F">
              <name>F.png</name>
              <pathurl>D:/Codes/SynthLip/SynthLipN/bin/Release/net6.0-windows8.0/publish/Skin/template/F.png</pathurl>
              <rate>
                <ntsc>FALSE</ntsc>
                <timebase>25</timebase>
              </rate>
              <duration>2</duration>
              <width>1920</width>
              <height>1080</height>
              <media>
                <video>
                  <duration>2</duration>
                  <stillframe>TRUE</stillframe>
                  <samplecharacteristics>
                    <rate>
                      <ntsc>FALSE</ntsc>
                      <timebase>25</timebase>
                    </rate>
                    <width>1920</width>
                    <height>1080</height>
                    <pixelaspectratio>Square</pixelaspectratio>
                    <anamorphic>FALSE</anamorphic>
                  </samplecharacteristics>
                </video>
              </media>
            </file>
            <sourcetrack>
              <mediatype>video</mediatype>
            </sourcetrack>
            <fielddominance>none</fielddominance>
          </clipitem>
          <clipitem id="B.png162">
            <name>B.png</name>
            <duration>1.41</duration>
            <rate>
              <ntsc>FALSE</ntsc>
              <timebase>25</timebase>
            </rate>
            <in>90495.94</in>
            <out>90497.34</out>
            <start>495.94</start>
            <end>497.35</end>
            <pixelaspectratio>Square</pixelaspectratio>
            <stillframe>TRUE</stillframe>
            <anamorphic>FALSE</anamorphic>
            <alphatype>straight</alphatype>
            <masterclipid>B.png162</masterclipid>
            <file id="B">
              <name>B.png</name>
              <pathurl>D:/Codes/SynthLip/SynthLipN/bin/Release/net6.0-windows8.0/publish/Skin/template/B.png</pathurl>
              <rate>
                <ntsc>FALSE</ntsc>
                <timebase>25</timebase>
              </rate>
              <duration>2</duration>
              <width>1920</width>
              <height>1080</height>
              <media>
                <video>
                  <duration>2</duration>
                  <stillframe>TRUE</stillframe>
                  <samplecharacteristics>
                    <rate>
                      <ntsc>FALSE</ntsc>
                      <timebase>25</timebase>
                    </rate>
                    <width>1920</width>
                    <height>1080</height>
                    <pixelaspectratio>Square</pixelaspectratio>
                    <anamorphic>FALSE</anamorphic>
                  </samplecharacteristics>
                </video>
              </media>
            </file>
            <sourcetrack>
              <mediatype>video</mediatype>
            </sourcetrack>
            <fielddominance>none</fielddominance>
          </clipitem>
          <clipitem id="B.png161">
            <name>B.png</name>
            <duration>0.94</duration>
            <rate>
              <ntsc>FALSE</ntsc>
              <timebase>25</timebase>
            </rate>
            <in>90495</in>
            <out>90495.94</out>
            <start>495</start>
            <end>495.94</end>
            <pixelaspectratio>Square</pixelaspectratio>
            <stillframe>TRUE</stillframe>
            <anamorphic>FALSE</anamorphic>
            <alphatype>straight</alphatype>
            <masterclipid>B.png161</masterclipid>
            <file id="B">
              <name>B.png</name>
              <pathurl>D:/Codes/SynthLip/SynthLipN/bin/Release/net6.0-windows8.0/publish/Skin/template/B.png</pathurl>
              <rate>
                <ntsc>FALSE</ntsc>
                <timebase>25</timebase>
              </rate>
              <duration>2</duration>
              <width>1920</width>
              <height>1080</height>
              <media>
                <video>
                  <duration>2</duration>
                  <stillframe>TRUE</stillframe>
                  <samplecharacteristics>
                    <rate>
                      <ntsc>FALSE</ntsc>
                      <timebase>25</timebase>
                    </rate>
                    <width>1920</width>
                    <height>1080</height>
                    <pixelaspectratio>Square</pixelaspectratio>
                    <anamorphic>FALSE</anamorphic>
                  </samplecharacteristics>
                </video>
              </media>
            </file>
            <sourcetrack>
              <mediatype>video</mediatype>
            </sourcetrack>
            <fielddominance>none</fielddominance>
          </clipitem>
          <clipitem id="F.png160">
            <name>F.png</name>
            <duration>3.75</duration>
            <rate>
              <ntsc>FALSE</ntsc>
              <timebase>25</timebase>
            </rate>
            <in>90491.25</in>
            <out>90495</out>
            <start>491.25</start>
            <end>495</end>
            <pixelaspectratio>Square</pixelaspectratio>
            <stillframe>TRUE</stillframe>
            <anamorphic>FALSE</anamorphic>
            <alphatype>straight</alphatype>
            <masterclipid>F.png160</masterclipid>
            <file id="F">
              <name>F.png</name>
              <pathurl>D:/Codes/SynthLip/SynthLipN/bin/Release/net6.0-windows8.0/publish/Skin/template/F.png</pathurl>
              <rate>
                <ntsc>FALSE</ntsc>
                <timebase>25</timebase>
              </rate>
              <duration>2</duration>
              <width>1920</width>
              <height>1080</height>
              <media>
                <video>
                  <duration>2</duration>
                  <stillframe>TRUE</stillframe>
                  <samplecharacteristics>
                    <rate>
                      <ntsc>FALSE</ntsc>
                      <timebase>25</timebase>
                    </rate>
                    <width>1920</width>
                    <height>1080</height>
                    <pixelaspectratio>Square</pixelaspectratio>
                    <anamorphic>FALSE</anamorphic>
                  </samplecharacteristics>
                </video>
              </media>
            </file>
            <sourcetrack>
              <mediatype>video</mediatype>
            </sourcetrack>
            <fielddominance>none</fielddominance>
          </clipitem>
          <clipitem id="F.png159">
            <name>F.png</name>
            <duration>1.87</duration>
            <rate>
              <ntsc>FALSE</ntsc>
              <timebase>25</timebase>
            </rate>
            <in>90489.38</in>
            <out>90491.25</out>
            <start>489.38</start>
            <end>491.25</end>
            <pixelaspectratio>Square</pixelaspectratio>
            <stillframe>TRUE</stillframe>
            <anamorphic>FALSE</anamorphic>
            <alphatype>straight</alphatype>
            <masterclipid>F.png159</masterclipid>
            <file id="F">
              <name>F.png</name>
              <pathurl>D:/Codes/SynthLip/SynthLipN/bin/Release/net6.0-windows8.0/publish/Skin/template/F.png</pathurl>
              <rate>
                <ntsc>FALSE</ntsc>
                <timebase>25</timebase>
              </rate>
              <duration>2</duration>
              <width>1920</width>
              <height>1080</height>
              <media>
                <video>
                  <duration>2</duration>
                  <stillframe>TRUE</stillframe>
                  <samplecharacteristics>
                    <rate>
                      <ntsc>FALSE</ntsc>
                      <timebase>25</timebase>
                    </rate>
                    <width>1920</width>
                    <height>1080</height>
                    <pixelaspectratio>Square</pixelaspectratio>
                    <anamorphic>FALSE</anamorphic>
                  </samplecharacteristics>
                </video>
              </media>
            </file>
            <sourcetrack>
              <mediatype>video</mediatype>
            </sourcetrack>
            <fielddominance>none</fielddominance>
          </clipitem>
          <clipitem id="F.png158">
            <name>F.png</name>
            <duration>1.41</duration>
            <rate>
              <ntsc>FALSE</ntsc>
              <timebase>25</timebase>
            </rate>
            <in>90487.97</in>
            <out>90489.375</out>
            <start>487.97</start>
            <end>489.38</end>
            <pixelaspectratio>Square</pixelaspectratio>
            <stillframe>TRUE</stillframe>
            <anamorphic>FALSE</anamorphic>
            <alphatype>straight</alphatype>
            <masterclipid>F.png158</masterclipid>
            <file id="F">
              <name>F.png</name>
              <pathurl>D:/Codes/SynthLip/SynthLipN/bin/Release/net6.0-windows8.0/publish/Skin/template/F.png</pathurl>
              <rate>
                <ntsc>FALSE</ntsc>
                <timebase>25</timebase>
              </rate>
              <duration>2</duration>
              <width>1920</width>
              <height>1080</height>
              <media>
                <video>
                  <duration>2</duration>
                  <stillframe>TRUE</stillframe>
                  <samplecharacteristics>
                    <rate>
                      <ntsc>FALSE</ntsc>
                      <timebase>25</timebase>
                    </rate>
                    <width>1920</width>
                    <height>1080</height>
                    <pixelaspectratio>Square</pixelaspectratio>
                    <anamorphic>FALSE</anamorphic>
                  </samplecharacteristics>
                </video>
              </media>
            </file>
            <sourcetrack>
              <mediatype>video</mediatype>
            </sourcetrack>
            <fielddominance>none</fielddominance>
          </clipitem>
          <clipitem id="B.png157">
            <name>B.png</name>
            <duration>0.47</duration>
            <rate>
              <ntsc>FALSE</ntsc>
              <timebase>25</timebase>
            </rate>
            <in>90487.5</in>
            <out>90487.97</out>
            <start>487.5</start>
            <end>487.97</end>
            <pixelaspectratio>Square</pixelaspectratio>
            <stillframe>TRUE</stillframe>
            <anamorphic>FALSE</anamorphic>
            <alphatype>straight</alphatype>
            <masterclipid>B.png157</masterclipid>
            <file id="B">
              <name>B.png</name>
              <pathurl>D:/Codes/SynthLip/SynthLipN/bin/Release/net6.0-windows8.0/publish/Skin/template/B.png</pathurl>
              <rate>
                <ntsc>FALSE</ntsc>
                <timebase>25</timebase>
              </rate>
              <duration>2</duration>
              <width>1920</width>
              <height>1080</height>
              <media>
                <video>
                  <duration>2</duration>
                  <stillframe>TRUE</stillframe>
                  <samplecharacteristics>
                    <rate>
                      <ntsc>FALSE</ntsc>
                      <timebase>25</timebase>
                    </rate>
                    <width>1920</width>
                    <height>1080</height>
                    <pixelaspectratio>Square</pixelaspectratio>
                    <anamorphic>FALSE</anamorphic>
                  </samplecharacteristics>
                </video>
              </media>
            </file>
            <sourcetrack>
              <mediatype>video</mediatype>
            </sourcetrack>
            <fielddominance>none</fielddominance>
          </clipitem>
          <clipitem id="C.png156">
            <name>C.png</name>
            <duration>5.62</duration>
            <rate>
              <ntsc>FALSE</ntsc>
              <timebase>25</timebase>
            </rate>
            <in>90481.88</in>
            <out>90487.5</out>
            <start>481.88</start>
            <end>487.5</end>
            <pixelaspectratio>Square</pixelaspectratio>
            <stillframe>TRUE</stillframe>
            <anamorphic>FALSE</anamorphic>
            <alphatype>straight</alphatype>
            <masterclipid>C.png156</masterclipid>
            <file id="C">
              <name>C.png</name>
              <pathurl>D:/Codes/SynthLip/SynthLipN/bin/Release/net6.0-windows8.0/publish/Skin/template/C.png</pathurl>
              <rate>
                <ntsc>FALSE</ntsc>
                <timebase>25</timebase>
              </rate>
              <duration>2</duration>
              <width>1920</width>
              <height>1080</height>
              <media>
                <video>
                  <duration>2</duration>
                  <stillframe>TRUE</stillframe>
                  <samplecharacteristics>
                    <rate>
                      <ntsc>FALSE</ntsc>
                      <timebase>25</timebase>
                    </rate>
                    <width>1920</width>
                    <height>1080</height>
                    <pixelaspectratio>Square</pixelaspectratio>
                    <anamorphic>FALSE</anamorphic>
                  </samplecharacteristics>
                </video>
              </media>
            </file>
            <sourcetrack>
              <mediatype>video</mediatype>
            </sourcetrack>
            <fielddominance>none</fielddominance>
          </clipitem>
          <clipitem id="A.png155">
            <name>A.png</name>
            <duration>1.87</duration>
            <rate>
              <ntsc>FALSE</ntsc>
              <timebase>25</timebase>
            </rate>
            <in>90480</in>
            <out>90481.87</out>
            <start>480</start>
            <end>481.87</end>
            <pixelaspectratio>Square</pixelaspectratio>
            <stillframe>TRUE</stillframe>
            <anamorphic>FALSE</anamorphic>
            <alphatype>straight</alphatype>
            <masterclipid>A.png155</masterclipid>
            <file id="A">
              <name>A.png</name>
              <pathurl>D:/Codes/SynthLip/SynthLipN/bin/Release/net6.0-windows8.0/publish/Skin/template/A.png</pathurl>
              <rate>
                <ntsc>FALSE</ntsc>
                <timebase>25</timebase>
              </rate>
              <duration>2</duration>
              <width>1920</width>
              <height>1080</height>
              <media>
                <video>
                  <duration>2</duration>
                  <stillframe>TRUE</stillframe>
                  <samplecharacteristics>
                    <rate>
                      <ntsc>FALSE</ntsc>
                      <timebase>25</timebase>
                    </rate>
                    <width>1920</width>
                    <height>1080</height>
                    <pixelaspectratio>Square</pixelaspectratio>
                    <anamorphic>FALSE</anamorphic>
                  </samplecharacteristics>
                </video>
              </media>
            </file>
            <sourcetrack>
              <mediatype>video</mediatype>
            </sourcetrack>
            <fielddominance>none</fielddominance>
          </clipitem>
          <clipitem id="B.png154">
            <name>B.png</name>
            <duration>4.38</duration>
            <rate>
              <ntsc>FALSE</ntsc>
              <timebase>25</timebase>
            </rate>
            <in>90475.63</in>
            <out>90480.016</out>
            <start>475.63</start>
            <end>480.01</end>
            <pixelaspectratio>Square</pixelaspectratio>
            <stillframe>TRUE</stillframe>
            <anamorphic>FALSE</anamorphic>
            <alphatype>straight</alphatype>
            <masterclipid>B.png154</masterclipid>
            <file id="B">
              <name>B.png</name>
              <pathurl>D:/Codes/SynthLip/SynthLipN/bin/Release/net6.0-windows8.0/publish/Skin/template/B.png</pathurl>
              <rate>
                <ntsc>FALSE</ntsc>
                <timebase>25</timebase>
              </rate>
              <duration>2</duration>
              <width>1920</width>
              <height>1080</height>
              <media>
                <video>
                  <duration>2</duration>
                  <stillframe>TRUE</stillframe>
                  <samplecharacteristics>
                    <rate>
                      <ntsc>FALSE</ntsc>
                      <timebase>25</timebase>
                    </rate>
                    <width>1920</width>
                    <height>1080</height>
                    <pixelaspectratio>Square</pixelaspectratio>
                    <anamorphic>FALSE</anamorphic>
                  </samplecharacteristics>
                </video>
              </media>
            </file>
            <sourcetrack>
              <mediatype>video</mediatype>
            </sourcetrack>
            <fielddominance>none</fielddominance>
          </clipitem>
          <clipitem id="B.png153">
            <name>B.png</name>
            <duration>0.62</duration>
            <rate>
              <ntsc>FALSE</ntsc>
              <timebase>25</timebase>
            </rate>
            <in>90475</in>
            <out>90475.62</out>
            <start>475</start>
            <end>475.62</end>
            <pixelaspectratio>Square</pixelaspectratio>
            <stillframe>TRUE</stillframe>
            <anamorphic>FALSE</anamorphic>
            <alphatype>straight</alphatype>
            <masterclipid>B.png153</masterclipid>
            <file id="B">
              <name>B.png</name>
              <pathurl>D:/Codes/SynthLip/SynthLipN/bin/Release/net6.0-windows8.0/publish/Skin/template/B.png</pathurl>
              <rate>
                <ntsc>FALSE</ntsc>
                <timebase>25</timebase>
              </rate>
              <duration>2</duration>
              <width>1920</width>
              <height>1080</height>
              <media>
                <video>
                  <duration>2</duration>
                  <stillframe>TRUE</stillframe>
                  <samplecharacteristics>
                    <rate>
                      <ntsc>FALSE</ntsc>
                      <timebase>25</timebase>
                    </rate>
                    <width>1920</width>
                    <height>1080</height>
                    <pixelaspectratio>Square</pixelaspectratio>
                    <anamorphic>FALSE</anamorphic>
                  </samplecharacteristics>
                </video>
              </media>
            </file>
            <sourcetrack>
              <mediatype>video</mediatype>
            </sourcetrack>
            <fielddominance>none</fielddominance>
          </clipitem>
          <clipitem id="C.png152">
            <name>C.png</name>
            <duration>2.5</duration>
            <rate>
              <ntsc>FALSE</ntsc>
              <timebase>25</timebase>
            </rate>
            <in>90472.5</in>
            <out>90475</out>
            <start>472.5</start>
            <end>475</end>
            <pixelaspectratio>Square</pixelaspectratio>
            <stillframe>TRUE</stillframe>
            <anamorphic>FALSE</anamorphic>
            <alphatype>straight</alphatype>
            <masterclipid>C.png152</masterclipid>
            <file id="C">
              <name>C.png</name>
              <pathurl>D:/Codes/SynthLip/SynthLipN/bin/Release/net6.0-windows8.0/publish/Skin/template/C.png</pathurl>
              <rate>
                <ntsc>FALSE</ntsc>
                <timebase>25</timebase>
              </rate>
              <duration>2</duration>
              <width>1920</width>
              <height>1080</height>
              <media>
                <video>
                  <duration>2</duration>
                  <stillframe>TRUE</stillframe>
                  <samplecharacteristics>
                    <rate>
                      <ntsc>FALSE</ntsc>
                      <timebase>25</timebase>
                    </rate>
                    <width>1920</width>
                    <height>1080</height>
                    <pixelaspectratio>Square</pixelaspectratio>
                    <anamorphic>FALSE</anamorphic>
                  </samplecharacteristics>
                </video>
              </media>
            </file>
            <sourcetrack>
              <mediatype>video</mediatype>
            </sourcetrack>
            <fielddominance>none</fielddominance>
          </clipitem>
          <clipitem id="G.png151">
            <name>G.png</name>
            <duration>1.25</duration>
            <rate>
              <ntsc>FALSE</ntsc>
              <timebase>25</timebase>
            </rate>
            <in>90471.25</in>
            <out>90472.5</out>
            <start>471.25</start>
            <end>472.5</end>
            <pixelaspectratio>Square</pixelaspectratio>
            <stillframe>TRUE</stillframe>
            <anamorphic>FALSE</anamorphic>
            <alphatype>straight</alphatype>
            <masterclipid>G.png151</masterclipid>
            <file id="G">
              <name>G.png</name>
              <pathurl>D:/Codes/SynthLip/SynthLipN/bin/Release/net6.0-windows8.0/publish/Skin/template/G.png</pathurl>
              <rate>
                <ntsc>FALSE</ntsc>
                <timebase>25</timebase>
              </rate>
              <duration>2</duration>
              <width>1920</width>
              <height>1080</height>
              <media>
                <video>
                  <duration>2</duration>
                  <stillframe>TRUE</stillframe>
                  <samplecharacteristics>
                    <rate>
                      <ntsc>FALSE</ntsc>
                      <timebase>25</timebase>
                    </rate>
                    <width>1920</width>
                    <height>1080</height>
                    <pixelaspectratio>Square</pixelaspectratio>
                    <anamorphic>FALSE</anamorphic>
                  </samplecharacteristics>
                </video>
              </media>
            </file>
            <sourcetrack>
              <mediatype>video</mediatype>
            </sourcetrack>
            <fielddominance>none</fielddominance>
          </clipitem>
          <clipitem id="A.png150">
            <name>A.png</name>
            <duration>1.25</duration>
            <rate>
              <ntsc>FALSE</ntsc>
              <timebase>25</timebase>
            </rate>
            <in>90470</in>
            <out>90471.25</out>
            <start>470</start>
            <end>471.25</end>
            <pixelaspectratio>Square</pixelaspectratio>
            <stillframe>TRUE</stillframe>
            <anamorphic>FALSE</anamorphic>
            <alphatype>straight</alphatype>
            <masterclipid>A.png150</masterclipid>
            <file id="A">
              <name>A.png</name>
              <pathurl>D:/Codes/SynthLip/SynthLipN/bin/Release/net6.0-windows8.0/publish/Skin/template/A.png</pathurl>
              <rate>
                <ntsc>FALSE</ntsc>
                <timebase>25</timebase>
              </rate>
              <duration>2</duration>
              <width>1920</width>
              <height>1080</height>
              <media>
                <video>
                  <duration>2</duration>
                  <stillframe>TRUE</stillframe>
                  <samplecharacteristics>
                    <rate>
                      <ntsc>FALSE</ntsc>
                      <timebase>25</timebase>
                    </rate>
                    <width>1920</width>
                    <height>1080</height>
                    <pixelaspectratio>Square</pixelaspectratio>
                    <anamorphic>FALSE</anamorphic>
                  </samplecharacteristics>
                </video>
              </media>
            </file>
            <sourcetrack>
              <mediatype>video</mediatype>
            </sourcetrack>
            <fielddominance>none</fielddominance>
          </clipitem>
          <clipitem id="D.png149">
            <name>D.png</name>
            <duration>4.38</duration>
            <rate>
              <ntsc>FALSE</ntsc>
              <timebase>25</timebase>
            </rate>
            <in>90465.63</in>
            <out>90470.016</out>
            <start>465.63</start>
            <end>470.01</end>
            <pixelaspectratio>Square</pixelaspectratio>
            <stillframe>TRUE</stillframe>
            <anamorphic>FALSE</anamorphic>
            <alphatype>straight</alphatype>
            <masterclipid>D.png149</masterclipid>
            <file id="D">
              <name>D.png</name>
              <pathurl>D:/Codes/SynthLip/SynthLipN/bin/Release/net6.0-windows8.0/publish/Skin/template/D.png</pathurl>
              <rate>
                <ntsc>FALSE</ntsc>
                <timebase>25</timebase>
              </rate>
              <duration>2</duration>
              <width>1920</width>
              <height>1080</height>
              <media>
                <video>
                  <duration>2</duration>
                  <stillframe>TRUE</stillframe>
                  <samplecharacteristics>
                    <rate>
                      <ntsc>FALSE</ntsc>
                      <timebase>25</timebase>
                    </rate>
                    <width>1920</width>
                    <height>1080</height>
                    <pixelaspectratio>Square</pixelaspectratio>
                    <anamorphic>FALSE</anamorphic>
                  </samplecharacteristics>
                </video>
              </media>
            </file>
            <sourcetrack>
              <mediatype>video</mediatype>
            </sourcetrack>
            <fielddominance>none</fielddominance>
          </clipitem>
          <clipitem id="B.png148">
            <name>B.png</name>
            <duration>1.88</duration>
            <rate>
              <ntsc>FALSE</ntsc>
              <timebase>25</timebase>
            </rate>
            <in>90463.75</in>
            <out>90465.63</out>
            <start>463.75</start>
            <end>465.63</end>
            <pixelaspectratio>Square</pixelaspectratio>
            <stillframe>TRUE</stillframe>
            <anamorphic>FALSE</anamorphic>
            <alphatype>straight</alphatype>
            <masterclipid>B.png148</masterclipid>
            <file id="B">
              <name>B.png</name>
              <pathurl>D:/Codes/SynthLip/SynthLipN/bin/Release/net6.0-windows8.0/publish/Skin/template/B.png</pathurl>
              <rate>
                <ntsc>FALSE</ntsc>
                <timebase>25</timebase>
              </rate>
              <duration>2</duration>
              <width>1920</width>
              <height>1080</height>
              <media>
                <video>
                  <duration>2</duration>
                  <stillframe>TRUE</stillframe>
                  <samplecharacteristics>
                    <rate>
                      <ntsc>FALSE</ntsc>
                      <timebase>25</timebase>
                    </rate>
                    <width>1920</width>
                    <height>1080</height>
                    <pixelaspectratio>Square</pixelaspectratio>
                    <anamorphic>FALSE</anamorphic>
                  </samplecharacteristics>
                </video>
              </media>
            </file>
            <sourcetrack>
              <mediatype>video</mediatype>
            </sourcetrack>
            <fielddominance>none</fielddominance>
          </clipitem>
          <clipitem id="B.png147">
            <name>B.png</name>
            <duration>1.25</duration>
            <rate>
              <ntsc>FALSE</ntsc>
              <timebase>25</timebase>
            </rate>
            <in>90462.5</in>
            <out>90463.75</out>
            <start>462.5</start>
            <end>463.75</end>
            <pixelaspectratio>Square</pixelaspectratio>
            <stillframe>TRUE</stillframe>
            <anamorphic>FALSE</anamorphic>
            <alphatype>straight</alphatype>
            <masterclipid>B.png147</masterclipid>
            <file id="B">
              <name>B.png</name>
              <pathurl>D:/Codes/SynthLip/SynthLipN/bin/Release/net6.0-windows8.0/publish/Skin/template/B.png</pathurl>
              <rate>
                <ntsc>FALSE</ntsc>
                <timebase>25</timebase>
              </rate>
              <duration>2</duration>
              <width>1920</width>
              <height>1080</height>
              <media>
                <video>
                  <duration>2</duration>
                  <stillframe>TRUE</stillframe>
                  <samplecharacteristics>
                    <rate>
                      <ntsc>FALSE</ntsc>
                      <timebase>25</timebase>
                    </rate>
                    <width>1920</width>
                    <height>1080</height>
                    <pixelaspectratio>Square</pixelaspectratio>
                    <anamorphic>FALSE</anamorphic>
                  </samplecharacteristics>
                </video>
              </media>
            </file>
            <sourcetrack>
              <mediatype>video</mediatype>
            </sourcetrack>
            <fielddominance>none</fielddominance>
          </clipitem>
          <clipitem id="D.png146">
            <name>D.png</name>
            <duration>3.75</duration>
            <rate>
              <ntsc>FALSE</ntsc>
              <timebase>25</timebase>
            </rate>
            <in>90458.75</in>
            <out>90462.5</out>
            <start>458.75</start>
            <end>462.5</end>
            <pixelaspectratio>Square</pixelaspectratio>
            <stillframe>TRUE</stillframe>
            <anamorphic>FALSE</anamorphic>
            <alphatype>straight</alphatype>
            <masterclipid>D.png146</masterclipid>
            <file id="D">
              <name>D.png</name>
              <pathurl>D:/Codes/SynthLip/SynthLipN/bin/Release/net6.0-windows8.0/publish/Skin/template/D.png</pathurl>
              <rate>
                <ntsc>FALSE</ntsc>
                <timebase>25</timebase>
              </rate>
              <duration>2</duration>
              <width>1920</width>
              <height>1080</height>
              <media>
                <video>
                  <duration>2</duration>
                  <stillframe>TRUE</stillframe>
                  <samplecharacteristics>
                    <rate>
                      <ntsc>FALSE</ntsc>
                      <timebase>25</timebase>
                    </rate>
                    <width>1920</width>
                    <height>1080</height>
                    <pixelaspectratio>Square</pixelaspectratio>
                    <anamorphic>FALSE</anamorphic>
                  </samplecharacteristics>
                </video>
              </media>
            </file>
            <sourcetrack>
              <mediatype>video</mediatype>
            </sourcetrack>
            <fielddominance>none</fielddominance>
          </clipitem>
          <clipitem id="B.png145">
            <name>B.png</name>
            <duration>1.25</duration>
            <rate>
              <ntsc>FALSE</ntsc>
              <timebase>25</timebase>
            </rate>
            <in>90457.5</in>
            <out>90458.75</out>
            <start>457.5</start>
            <end>458.75</end>
            <pixelaspectratio>Square</pixelaspectratio>
            <stillframe>TRUE</stillframe>
            <anamorphic>FALSE</anamorphic>
            <alphatype>straight</alphatype>
            <masterclipid>B.png145</masterclipid>
            <file id="B">
              <name>B.png</name>
              <pathurl>D:/Codes/SynthLip/SynthLipN/bin/Release/net6.0-windows8.0/publish/Skin/template/B.png</pathurl>
              <rate>
                <ntsc>FALSE</ntsc>
                <timebase>25</timebase>
              </rate>
              <duration>2</duration>
              <width>1920</width>
              <height>1080</height>
              <media>
                <video>
                  <duration>2</duration>
                  <stillframe>TRUE</stillframe>
                  <samplecharacteristics>
                    <rate>
                      <ntsc>FALSE</ntsc>
                      <timebase>25</timebase>
                    </rate>
                    <width>1920</width>
                    <height>1080</height>
                    <pixelaspectratio>Square</pixelaspectratio>
                    <anamorphic>FALSE</anamorphic>
                  </samplecharacteristics>
                </video>
              </media>
            </file>
            <sourcetrack>
              <mediatype>video</mediatype>
            </sourcetrack>
            <fielddominance>none</fielddominance>
          </clipitem>
          <clipitem id="E.png144">
            <name>E.png</name>
            <duration>5.62</duration>
            <rate>
              <ntsc>FALSE</ntsc>
              <timebase>25</timebase>
            </rate>
            <in>90451.88</in>
            <out>90457.5</out>
            <start>451.88</start>
            <end>457.5</end>
            <pixelaspectratio>Square</pixelaspectratio>
            <stillframe>TRUE</stillframe>
            <anamorphic>FALSE</anamorphic>
            <alphatype>straight</alphatype>
            <masterclipid>E.png144</masterclipid>
            <file id="E">
              <name>E.png</name>
              <pathurl>D:/Codes/SynthLip/SynthLipN/bin/Release/net6.0-windows8.0/publish/Skin/template/E.png</pathurl>
              <rate>
                <ntsc>FALSE</ntsc>
                <timebase>25</timebase>
              </rate>
              <duration>2</duration>
              <width>1920</width>
              <height>1080</height>
              <media>
                <video>
                  <duration>2</duration>
                  <stillframe>TRUE</stillframe>
                  <samplecharacteristics>
                    <rate>
                      <ntsc>FALSE</ntsc>
                      <timebase>25</timebase>
                    </rate>
                    <width>1920</width>
                    <height>1080</height>
                    <pixelaspectratio>Square</pixelaspectratio>
                    <anamorphic>FALSE</anamorphic>
                  </samplecharacteristics>
                </video>
              </media>
            </file>
            <sourcetrack>
              <mediatype>video</mediatype>
            </sourcetrack>
            <fielddominance>none</fielddominance>
          </clipitem>
          <clipitem id="E.png143">
            <name>E.png</name>
            <duration>1.41</duration>
            <rate>
              <ntsc>FALSE</ntsc>
              <timebase>25</timebase>
            </rate>
            <in>90450.47</in>
            <out>90451.875</out>
            <start>450.47</start>
            <end>451.88</end>
            <pixelaspectratio>Square</pixelaspectratio>
            <stillframe>TRUE</stillframe>
            <anamorphic>FALSE</anamorphic>
            <alphatype>straight</alphatype>
            <masterclipid>E.png143</masterclipid>
            <file id="E">
              <name>E.png</name>
              <pathurl>D:/Codes/SynthLip/SynthLipN/bin/Release/net6.0-windows8.0/publish/Skin/template/E.png</pathurl>
              <rate>
                <ntsc>FALSE</ntsc>
                <timebase>25</timebase>
              </rate>
              <duration>2</duration>
              <width>1920</width>
              <height>1080</height>
              <media>
                <video>
                  <duration>2</duration>
                  <stillframe>TRUE</stillframe>
                  <samplecharacteristics>
                    <rate>
                      <ntsc>FALSE</ntsc>
                      <timebase>25</timebase>
                    </rate>
                    <width>1920</width>
                    <height>1080</height>
                    <pixelaspectratio>Square</pixelaspectratio>
                    <anamorphic>FALSE</anamorphic>
                  </samplecharacteristics>
                </video>
              </media>
            </file>
            <sourcetrack>
              <mediatype>video</mediatype>
            </sourcetrack>
            <fielddominance>none</fielddominance>
          </clipitem>
          <clipitem id="C.png142">
            <name>C.png</name>
            <duration>0.47</duration>
            <rate>
              <ntsc>FALSE</ntsc>
              <timebase>25</timebase>
            </rate>
            <in>90450</in>
            <out>90450.47</out>
            <start>450</start>
            <end>450.47</end>
            <pixelaspectratio>Square</pixelaspectratio>
            <stillframe>TRUE</stillframe>
            <anamorphic>FALSE</anamorphic>
            <alphatype>straight</alphatype>
            <masterclipid>C.png142</masterclipid>
            <file id="C">
              <name>C.png</name>
              <pathurl>D:/Codes/SynthLip/SynthLipN/bin/Release/net6.0-windows8.0/publish/Skin/template/C.png</pathurl>
              <rate>
                <ntsc>FALSE</ntsc>
                <timebase>25</timebase>
              </rate>
              <duration>2</duration>
              <width>1920</width>
              <height>1080</height>
              <media>
                <video>
                  <duration>2</duration>
                  <stillframe>TRUE</stillframe>
                  <samplecharacteristics>
                    <rate>
                      <ntsc>FALSE</ntsc>
                      <timebase>25</timebase>
                    </rate>
                    <width>1920</width>
                    <height>1080</height>
                    <pixelaspectratio>Square</pixelaspectratio>
                    <anamorphic>FALSE</anamorphic>
                  </samplecharacteristics>
                </video>
              </media>
            </file>
            <sourcetrack>
              <mediatype>video</mediatype>
            </sourcetrack>
            <fielddominance>none</fielddominance>
          </clipitem>
          <clipitem id="A.png141">
            <name>A.png</name>
            <duration>8.75</duration>
            <rate>
              <ntsc>FALSE</ntsc>
              <timebase>25</timebase>
            </rate>
            <in>90441.25</in>
            <out>90450</out>
            <start>441.25</start>
            <end>450</end>
            <pixelaspectratio>Square</pixelaspectratio>
            <stillframe>TRUE</stillframe>
            <anamorphic>FALSE</anamorphic>
            <alphatype>straight</alphatype>
            <masterclipid>A.png141</masterclipid>
            <file id="A">
              <name>A.png</name>
              <pathurl>D:/Codes/SynthLip/SynthLipN/bin/Release/net6.0-windows8.0/publish/Skin/template/A.png</pathurl>
              <rate>
                <ntsc>FALSE</ntsc>
                <timebase>25</timebase>
              </rate>
              <duration>2</duration>
              <width>1920</width>
              <height>1080</height>
              <media>
                <video>
                  <duration>2</duration>
                  <stillframe>TRUE</stillframe>
                  <samplecharacteristics>
                    <rate>
                      <ntsc>FALSE</ntsc>
                      <timebase>25</timebase>
                    </rate>
                    <width>1920</width>
                    <height>1080</height>
                    <pixelaspectratio>Square</pixelaspectratio>
                    <anamorphic>FALSE</anamorphic>
                  </samplecharacteristics>
                </video>
              </media>
            </file>
            <sourcetrack>
              <mediatype>video</mediatype>
            </sourcetrack>
            <fielddominance>none</fielddominance>
          </clipitem>
          <clipitem id="B.png140">
            <name>B.png</name>
            <duration>1.25</duration>
            <rate>
              <ntsc>FALSE</ntsc>
              <timebase>25</timebase>
            </rate>
            <in>90440</in>
            <out>90441.25</out>
            <start>440</start>
            <end>441.25</end>
            <pixelaspectratio>Square</pixelaspectratio>
            <stillframe>TRUE</stillframe>
            <anamorphic>FALSE</anamorphic>
            <alphatype>straight</alphatype>
            <masterclipid>B.png140</masterclipid>
            <file id="B">
              <name>B.png</name>
              <pathurl>D:/Codes/SynthLip/SynthLipN/bin/Release/net6.0-windows8.0/publish/Skin/template/B.png</pathurl>
              <rate>
                <ntsc>FALSE</ntsc>
                <timebase>25</timebase>
              </rate>
              <duration>2</duration>
              <width>1920</width>
              <height>1080</height>
              <media>
                <video>
                  <duration>2</duration>
                  <stillframe>TRUE</stillframe>
                  <samplecharacteristics>
                    <rate>
                      <ntsc>FALSE</ntsc>
                      <timebase>25</timebase>
                    </rate>
                    <width>1920</width>
                    <height>1080</height>
                    <pixelaspectratio>Square</pixelaspectratio>
                    <anamorphic>FALSE</anamorphic>
                  </samplecharacteristics>
                </video>
              </media>
            </file>
            <sourcetrack>
              <mediatype>video</mediatype>
            </sourcetrack>
            <fielddominance>none</fielddominance>
          </clipitem>
          <clipitem id="C.png139">
            <name>C.png</name>
            <duration>3.75</duration>
            <rate>
              <ntsc>FALSE</ntsc>
              <timebase>25</timebase>
            </rate>
            <in>90436.25</in>
            <out>90440</out>
            <start>436.25</start>
            <end>440</end>
            <pixelaspectratio>Square</pixelaspectratio>
            <stillframe>TRUE</stillframe>
            <anamorphic>FALSE</anamorphic>
            <alphatype>straight</alphatype>
            <masterclipid>C.png139</masterclipid>
            <file id="C">
              <name>C.png</name>
              <pathurl>D:/Codes/SynthLip/SynthLipN/bin/Release/net6.0-windows8.0/publish/Skin/template/C.png</pathurl>
              <rate>
                <ntsc>FALSE</ntsc>
                <timebase>25</timebase>
              </rate>
              <duration>2</duration>
              <width>1920</width>
              <height>1080</height>
              <media>
                <video>
                  <duration>2</duration>
                  <stillframe>TRUE</stillframe>
                  <samplecharacteristics>
                    <rate>
                      <ntsc>FALSE</ntsc>
                      <timebase>25</timebase>
                    </rate>
                    <width>1920</width>
                    <height>1080</height>
                    <pixelaspectratio>Square</pixelaspectratio>
                    <anamorphic>FALSE</anamorphic>
                  </samplecharacteristics>
                </video>
              </media>
            </file>
            <sourcetrack>
              <mediatype>video</mediatype>
            </sourcetrack>
            <fielddominance>none</fielddominance>
          </clipitem>
          <clipitem id="B.png138">
            <name>B.png</name>
            <duration>1.25</duration>
            <rate>
              <ntsc>FALSE</ntsc>
              <timebase>25</timebase>
            </rate>
            <in>90435</in>
            <out>90436.25</out>
            <start>435</start>
            <end>436.25</end>
            <pixelaspectratio>Square</pixelaspectratio>
            <stillframe>TRUE</stillframe>
            <anamorphic>FALSE</anamorphic>
            <alphatype>straight</alphatype>
            <masterclipid>B.png138</masterclipid>
            <file id="B">
              <name>B.png</name>
              <pathurl>D:/Codes/SynthLip/SynthLipN/bin/Release/net6.0-windows8.0/publish/Skin/template/B.png</pathurl>
              <rate>
                <ntsc>FALSE</ntsc>
                <timebase>25</timebase>
              </rate>
              <duration>2</duration>
              <width>1920</width>
              <height>1080</height>
              <media>
                <video>
                  <duration>2</duration>
                  <stillframe>TRUE</stillframe>
                  <samplecharacteristics>
                    <rate>
                      <ntsc>FALSE</ntsc>
                      <timebase>25</timebase>
                    </rate>
                    <width>1920</width>
                    <height>1080</height>
                    <pixelaspectratio>Square</pixelaspectratio>
                    <anamorphic>FALSE</anamorphic>
                  </samplecharacteristics>
                </video>
              </media>
            </file>
            <sourcetrack>
              <mediatype>video</mediatype>
            </sourcetrack>
            <fielddominance>none</fielddominance>
          </clipitem>
          <clipitem id="B.png137">
            <name>B.png</name>
            <duration>3.75</duration>
            <rate>
              <ntsc>FALSE</ntsc>
              <timebase>25</timebase>
            </rate>
            <in>90431.25</in>
            <out>90435</out>
            <start>431.25</start>
            <end>435</end>
            <pixelaspectratio>Square</pixelaspectratio>
            <stillframe>TRUE</stillframe>
            <anamorphic>FALSE</anamorphic>
            <alphatype>straight</alphatype>
            <masterclipid>B.png137</masterclipid>
            <file id="B">
              <name>B.png</name>
              <pathurl>D:/Codes/SynthLip/SynthLipN/bin/Release/net6.0-windows8.0/publish/Skin/template/B.png</pathurl>
              <rate>
                <ntsc>FALSE</ntsc>
                <timebase>25</timebase>
              </rate>
              <duration>2</duration>
              <width>1920</width>
              <height>1080</height>
              <media>
                <video>
                  <duration>2</duration>
                  <stillframe>TRUE</stillframe>
                  <samplecharacteristics>
                    <rate>
                      <ntsc>FALSE</ntsc>
                      <timebase>25</timebase>
                    </rate>
                    <width>1920</width>
                    <height>1080</height>
                    <pixelaspectratio>Square</pixelaspectratio>
                    <anamorphic>FALSE</anamorphic>
                  </samplecharacteristics>
                </video>
              </media>
            </file>
            <sourcetrack>
              <mediatype>video</mediatype>
            </sourcetrack>
            <fielddominance>none</fielddominance>
          </clipitem>
          <clipitem id="B.png136">
            <name>B.png</name>
            <duration>2.34</duration>
            <rate>
              <ntsc>FALSE</ntsc>
              <timebase>25</timebase>
            </rate>
            <in>90428.91</in>
            <out>90431.25</out>
            <start>428.91</start>
            <end>431.25</end>
            <pixelaspectratio>Square</pixelaspectratio>
            <stillframe>TRUE</stillframe>
            <anamorphic>FALSE</anamorphic>
            <alphatype>straight</alphatype>
            <masterclipid>B.png136</masterclipid>
            <file id="B">
              <name>B.png</name>
              <pathurl>D:/Codes/SynthLip/SynthLipN/bin/Release/net6.0-windows8.0/publish/Skin/template/B.png</pathurl>
              <rate>
                <ntsc>FALSE</ntsc>
                <timebase>25</timebase>
              </rate>
              <duration>2</duration>
              <width>1920</width>
              <height>1080</height>
              <media>
                <video>
                  <duration>2</duration>
                  <stillframe>TRUE</stillframe>
                  <samplecharacteristics>
                    <rate>
                      <ntsc>FALSE</ntsc>
                      <timebase>25</timebase>
                    </rate>
                    <width>1920</width>
                    <height>1080</height>
                    <pixelaspectratio>Square</pixelaspectratio>
                    <anamorphic>FALSE</anamorphic>
                  </samplecharacteristics>
                </video>
              </media>
            </file>
            <sourcetrack>
              <mediatype>video</mediatype>
            </sourcetrack>
            <fielddominance>none</fielddominance>
          </clipitem>
          <clipitem id="B.png135">
            <name>B.png</name>
            <duration>0.47</duration>
            <rate>
              <ntsc>FALSE</ntsc>
              <timebase>25</timebase>
            </rate>
            <in>90428.44</in>
            <out>90428.91</out>
            <start>428.44</start>
            <end>428.91</end>
            <pixelaspectratio>Square</pixelaspectratio>
            <stillframe>TRUE</stillframe>
            <anamorphic>FALSE</anamorphic>
            <alphatype>straight</alphatype>
            <masterclipid>B.png135</masterclipid>
            <file id="B">
              <name>B.png</name>
              <pathurl>D:/Codes/SynthLip/SynthLipN/bin/Release/net6.0-windows8.0/publish/Skin/template/B.png</pathurl>
              <rate>
                <ntsc>FALSE</ntsc>
                <timebase>25</timebase>
              </rate>
              <duration>2</duration>
              <width>1920</width>
              <height>1080</height>
              <media>
                <video>
                  <duration>2</duration>
                  <stillframe>TRUE</stillframe>
                  <samplecharacteristics>
                    <rate>
                      <ntsc>FALSE</ntsc>
                      <timebase>25</timebase>
                    </rate>
                    <width>1920</width>
                    <height>1080</height>
                    <pixelaspectratio>Square</pixelaspectratio>
                    <anamorphic>FALSE</anamorphic>
                  </samplecharacteristics>
                </video>
              </media>
            </file>
            <sourcetrack>
              <mediatype>video</mediatype>
            </sourcetrack>
            <fielddominance>none</fielddominance>
          </clipitem>
          <clipitem id="C.png134">
            <name>C.png</name>
            <duration>2.34</duration>
            <rate>
              <ntsc>FALSE</ntsc>
              <timebase>25</timebase>
            </rate>
            <in>90426.09</in>
            <out>90428.44</out>
            <start>426.09</start>
            <end>428.43</end>
            <pixelaspectratio>Square</pixelaspectratio>
            <stillframe>TRUE</stillframe>
            <anamorphic>FALSE</anamorphic>
            <alphatype>straight</alphatype>
            <masterclipid>C.png134</masterclipid>
            <file id="C">
              <name>C.png</name>
              <pathurl>D:/Codes/SynthLip/SynthLipN/bin/Release/net6.0-windows8.0/publish/Skin/template/C.png</pathurl>
              <rate>
                <ntsc>FALSE</ntsc>
                <timebase>25</timebase>
              </rate>
              <duration>2</duration>
              <width>1920</width>
              <height>1080</height>
              <media>
                <video>
                  <duration>2</duration>
                  <stillframe>TRUE</stillframe>
                  <samplecharacteristics>
                    <rate>
                      <ntsc>FALSE</ntsc>
                      <timebase>25</timebase>
                    </rate>
                    <width>1920</width>
                    <height>1080</height>
                    <pixelaspectratio>Square</pixelaspectratio>
                    <anamorphic>FALSE</anamorphic>
                  </samplecharacteristics>
                </video>
              </media>
            </file>
            <sourcetrack>
              <mediatype>video</mediatype>
            </sourcetrack>
            <fielddominance>none</fielddominance>
          </clipitem>
          <clipitem id="B.png133">
            <name>B.png</name>
            <duration>1.41</duration>
            <rate>
              <ntsc>FALSE</ntsc>
              <timebase>25</timebase>
            </rate>
            <in>90424.69</in>
            <out>90426.09</out>
            <start>424.69</start>
            <end>426.1</end>
            <pixelaspectratio>Square</pixelaspectratio>
            <stillframe>TRUE</stillframe>
            <anamorphic>FALSE</anamorphic>
            <alphatype>straight</alphatype>
            <masterclipid>B.png133</masterclipid>
            <file id="B">
              <name>B.png</name>
              <pathurl>D:/Codes/SynthLip/SynthLipN/bin/Release/net6.0-windows8.0/publish/Skin/template/B.png</pathurl>
              <rate>
                <ntsc>FALSE</ntsc>
                <timebase>25</timebase>
              </rate>
              <duration>2</duration>
              <width>1920</width>
              <height>1080</height>
              <media>
                <video>
                  <duration>2</duration>
                  <stillframe>TRUE</stillframe>
                  <samplecharacteristics>
                    <rate>
                      <ntsc>FALSE</ntsc>
                      <timebase>25</timebase>
                    </rate>
                    <width>1920</width>
                    <height>1080</height>
                    <pixelaspectratio>Square</pixelaspectratio>
                    <anamorphic>FALSE</anamorphic>
                  </samplecharacteristics>
                </video>
              </media>
            </file>
            <sourcetrack>
              <mediatype>video</mediatype>
            </sourcetrack>
            <fielddominance>none</fielddominance>
          </clipitem>
          <clipitem id="B.png132">
            <name>B.png</name>
            <duration>0.94</duration>
            <rate>
              <ntsc>FALSE</ntsc>
              <timebase>25</timebase>
            </rate>
            <in>90423.75</in>
            <out>90424.69</out>
            <start>423.75</start>
            <end>424.69</end>
            <pixelaspectratio>Square</pixelaspectratio>
            <stillframe>TRUE</stillframe>
            <anamorphic>FALSE</anamorphic>
            <alphatype>straight</alphatype>
            <masterclipid>B.png132</masterclipid>
            <file id="B">
              <name>B.png</name>
              <pathurl>D:/Codes/SynthLip/SynthLipN/bin/Release/net6.0-windows8.0/publish/Skin/template/B.png</pathurl>
              <rate>
                <ntsc>FALSE</ntsc>
                <timebase>25</timebase>
              </rate>
              <duration>2</duration>
              <width>1920</width>
              <height>1080</height>
              <media>
                <video>
                  <duration>2</duration>
                  <stillframe>TRUE</stillframe>
                  <samplecharacteristics>
                    <rate>
                      <ntsc>FALSE</ntsc>
                      <timebase>25</timebase>
                    </rate>
                    <width>1920</width>
                    <height>1080</height>
                    <pixelaspectratio>Square</pixelaspectratio>
                    <anamorphic>FALSE</anamorphic>
                  </samplecharacteristics>
                </video>
              </media>
            </file>
            <sourcetrack>
              <mediatype>video</mediatype>
            </sourcetrack>
            <fielddominance>none</fielddominance>
          </clipitem>
          <clipitem id="C.png131">
            <name>C.png</name>
            <duration>2.81</duration>
            <rate>
              <ntsc>FALSE</ntsc>
              <timebase>25</timebase>
            </rate>
            <in>90420.94</in>
            <out>90423.75</out>
            <start>420.94</start>
            <end>423.75</end>
            <pixelaspectratio>Square</pixelaspectratio>
            <stillframe>TRUE</stillframe>
            <anamorphic>FALSE</anamorphic>
            <alphatype>straight</alphatype>
            <masterclipid>C.png131</masterclipid>
            <file id="C">
              <name>C.png</name>
              <pathurl>D:/Codes/SynthLip/SynthLipN/bin/Release/net6.0-windows8.0/publish/Skin/template/C.png</pathurl>
              <rate>
                <ntsc>FALSE</ntsc>
                <timebase>25</timebase>
              </rate>
              <duration>2</duration>
              <width>1920</width>
              <height>1080</height>
              <media>
                <video>
                  <duration>2</duration>
                  <stillframe>TRUE</stillframe>
                  <samplecharacteristics>
                    <rate>
                      <ntsc>FALSE</ntsc>
                      <timebase>25</timebase>
                    </rate>
                    <width>1920</width>
                    <height>1080</height>
                    <pixelaspectratio>Square</pixelaspectratio>
                    <anamorphic>FALSE</anamorphic>
                  </samplecharacteristics>
                </video>
              </media>
            </file>
            <sourcetrack>
              <mediatype>video</mediatype>
            </sourcetrack>
            <fielddominance>none</fielddominance>
          </clipitem>
          <clipitem id="G.png130">
            <name>G.png</name>
            <duration>0.94</duration>
            <rate>
              <ntsc>FALSE</ntsc>
              <timebase>25</timebase>
            </rate>
            <in>90420</in>
            <out>90420.94</out>
            <start>420</start>
            <end>420.94</end>
            <pixelaspectratio>Square</pixelaspectratio>
            <stillframe>TRUE</stillframe>
            <anamorphic>FALSE</anamorphic>
            <alphatype>straight</alphatype>
            <masterclipid>G.png130</masterclipid>
            <file id="G">
              <name>G.png</name>
              <pathurl>D:/Codes/SynthLip/SynthLipN/bin/Release/net6.0-windows8.0/publish/Skin/template/G.png</pathurl>
              <rate>
                <ntsc>FALSE</ntsc>
                <timebase>25</timebase>
              </rate>
              <duration>2</duration>
              <width>1920</width>
              <height>1080</height>
              <media>
                <video>
                  <duration>2</duration>
                  <stillframe>TRUE</stillframe>
                  <samplecharacteristics>
                    <rate>
                      <ntsc>FALSE</ntsc>
                      <timebase>25</timebase>
                    </rate>
                    <width>1920</width>
                    <height>1080</height>
                    <pixelaspectratio>Square</pixelaspectratio>
                    <anamorphic>FALSE</anamorphic>
                  </samplecharacteristics>
                </video>
              </media>
            </file>
            <sourcetrack>
              <mediatype>video</mediatype>
            </sourcetrack>
            <fielddominance>none</fielddominance>
          </clipitem>
          <clipitem id="B.png129">
            <name>B.png</name>
            <duration>4.37</duration>
            <rate>
              <ntsc>FALSE</ntsc>
              <timebase>25</timebase>
            </rate>
            <in>90415.63</in>
            <out>90420</out>
            <start>415.63</start>
            <end>420</end>
            <pixelaspectratio>Square</pixelaspectratio>
            <stillframe>TRUE</stillframe>
            <anamorphic>FALSE</anamorphic>
            <alphatype>straight</alphatype>
            <masterclipid>B.png129</masterclipid>
            <file id="B">
              <name>B.png</name>
              <pathurl>D:/Codes/SynthLip/SynthLipN/bin/Release/net6.0-windows8.0/publish/Skin/template/B.png</pathurl>
              <rate>
                <ntsc>FALSE</ntsc>
                <timebase>25</timebase>
              </rate>
              <duration>2</duration>
              <width>1920</width>
              <height>1080</height>
              <media>
                <video>
                  <duration>2</duration>
                  <stillframe>TRUE</stillframe>
                  <samplecharacteristics>
                    <rate>
                      <ntsc>FALSE</ntsc>
                      <timebase>25</timebase>
                    </rate>
                    <width>1920</width>
                    <height>1080</height>
                    <pixelaspectratio>Square</pixelaspectratio>
                    <anamorphic>FALSE</anamorphic>
                  </samplecharacteristics>
                </video>
              </media>
            </file>
            <sourcetrack>
              <mediatype>video</mediatype>
            </sourcetrack>
            <fielddominance>none</fielddominance>
          </clipitem>
          <clipitem id="B.png128">
            <name>B.png</name>
            <duration>0.62</duration>
            <rate>
              <ntsc>FALSE</ntsc>
              <timebase>25</timebase>
            </rate>
            <in>90415</in>
            <out>90415.62</out>
            <start>415</start>
            <end>415.62</end>
            <pixelaspectratio>Square</pixelaspectratio>
            <stillframe>TRUE</stillframe>
            <anamorphic>FALSE</anamorphic>
            <alphatype>straight</alphatype>
            <masterclipid>B.png128</masterclipid>
            <file id="B">
              <name>B.png</name>
              <pathurl>D:/Codes/SynthLip/SynthLipN/bin/Release/net6.0-windows8.0/publish/Skin/template/B.png</pathurl>
              <rate>
                <ntsc>FALSE</ntsc>
                <timebase>25</timebase>
              </rate>
              <duration>2</duration>
              <width>1920</width>
              <height>1080</height>
              <media>
                <video>
                  <duration>2</duration>
                  <stillframe>TRUE</stillframe>
                  <samplecharacteristics>
                    <rate>
                      <ntsc>FALSE</ntsc>
                      <timebase>25</timebase>
                    </rate>
                    <width>1920</width>
                    <height>1080</height>
                    <pixelaspectratio>Square</pixelaspectratio>
                    <anamorphic>FALSE</anamorphic>
                  </samplecharacteristics>
                </video>
              </media>
            </file>
            <sourcetrack>
              <mediatype>video</mediatype>
            </sourcetrack>
            <fielddominance>none</fielddominance>
          </clipitem>
          <clipitem id="C.png127">
            <name>C.png</name>
            <duration>1.88</duration>
            <rate>
              <ntsc>FALSE</ntsc>
              <timebase>25</timebase>
            </rate>
            <in>90413.13</in>
            <out>90415.016</out>
            <start>413.13</start>
            <end>415.01</end>
            <pixelaspectratio>Square</pixelaspectratio>
            <stillframe>TRUE</stillframe>
            <anamorphic>FALSE</anamorphic>
            <alphatype>straight</alphatype>
            <masterclipid>C.png127</masterclipid>
            <file id="C">
              <name>C.png</name>
              <pathurl>D:/Codes/SynthLip/SynthLipN/bin/Release/net6.0-windows8.0/publish/Skin/template/C.png</pathurl>
              <rate>
                <ntsc>FALSE</ntsc>
                <timebase>25</timebase>
              </rate>
              <duration>2</duration>
              <width>1920</width>
              <height>1080</height>
              <media>
                <video>
                  <duration>2</duration>
                  <stillframe>TRUE</stillframe>
                  <samplecharacteristics>
                    <rate>
                      <ntsc>FALSE</ntsc>
                      <timebase>25</timebase>
                    </rate>
                    <width>1920</width>
                    <height>1080</height>
                    <pixelaspectratio>Square</pixelaspectratio>
                    <anamorphic>FALSE</anamorphic>
                  </samplecharacteristics>
                </video>
              </media>
            </file>
            <sourcetrack>
              <mediatype>video</mediatype>
            </sourcetrack>
            <fielddominance>none</fielddominance>
          </clipitem>
          <clipitem id="B.png126">
            <name>B.png</name>
            <duration>0.62</duration>
            <rate>
              <ntsc>FALSE</ntsc>
              <timebase>25</timebase>
            </rate>
            <in>90412.5</in>
            <out>90413.12</out>
            <start>412.5</start>
            <end>413.12</end>
            <pixelaspectratio>Square</pixelaspectratio>
            <stillframe>TRUE</stillframe>
            <anamorphic>FALSE</anamorphic>
            <alphatype>straight</alphatype>
            <masterclipid>B.png126</masterclipid>
            <file id="B">
              <name>B.png</name>
              <pathurl>D:/Codes/SynthLip/SynthLipN/bin/Release/net6.0-windows8.0/publish/Skin/template/B.png</pathurl>
              <rate>
                <ntsc>FALSE</ntsc>
                <timebase>25</timebase>
              </rate>
              <duration>2</duration>
              <width>1920</width>
              <height>1080</height>
              <media>
                <video>
                  <duration>2</duration>
                  <stillframe>TRUE</stillframe>
                  <samplecharacteristics>
                    <rate>
                      <ntsc>FALSE</ntsc>
                      <timebase>25</timebase>
                    </rate>
                    <width>1920</width>
                    <height>1080</height>
                    <pixelaspectratio>Square</pixelaspectratio>
                    <anamorphic>FALSE</anamorphic>
                  </samplecharacteristics>
                </video>
              </media>
            </file>
            <sourcetrack>
              <mediatype>video</mediatype>
            </sourcetrack>
            <fielddominance>none</fielddominance>
          </clipitem>
          <clipitem id="D.png125">
            <name>D.png</name>
            <duration>5.62</duration>
            <rate>
              <ntsc>FALSE</ntsc>
              <timebase>25</timebase>
            </rate>
            <in>90406.88</in>
            <out>90412.5</out>
            <start>406.88</start>
            <end>412.5</end>
            <pixelaspectratio>Square</pixelaspectratio>
            <stillframe>TRUE</stillframe>
            <anamorphic>FALSE</anamorphic>
            <alphatype>straight</alphatype>
            <masterclipid>D.png125</masterclipid>
            <file id="D">
              <name>D.png</name>
              <pathurl>D:/Codes/SynthLip/SynthLipN/bin/Release/net6.0-windows8.0/publish/Skin/template/D.png</pathurl>
              <rate>
                <ntsc>FALSE</ntsc>
                <timebase>25</timebase>
              </rate>
              <duration>2</duration>
              <width>1920</width>
              <height>1080</height>
              <media>
                <video>
                  <duration>2</duration>
                  <stillframe>TRUE</stillframe>
                  <samplecharacteristics>
                    <rate>
                      <ntsc>FALSE</ntsc>
                      <timebase>25</timebase>
                    </rate>
                    <width>1920</width>
                    <height>1080</height>
                    <pixelaspectratio>Square</pixelaspectratio>
                    <anamorphic>FALSE</anamorphic>
                  </samplecharacteristics>
                </video>
              </media>
            </file>
            <sourcetrack>
              <mediatype>video</mediatype>
            </sourcetrack>
            <fielddominance>none</fielddominance>
          </clipitem>
          <clipitem id="A.png124">
            <name>A.png</name>
            <duration>1.87</duration>
            <rate>
              <ntsc>FALSE</ntsc>
              <timebase>25</timebase>
            </rate>
            <in>90405</in>
            <out>90406.87</out>
            <start>405</start>
            <end>406.87</end>
            <pixelaspectratio>Square</pixelaspectratio>
            <stillframe>TRUE</stillframe>
            <anamorphic>FALSE</anamorphic>
            <alphatype>straight</alphatype>
            <masterclipid>A.png124</masterclipid>
            <file id="A">
              <name>A.png</name>
              <pathurl>D:/Codes/SynthLip/SynthLipN/bin/Release/net6.0-windows8.0/publish/Skin/template/A.png</pathurl>
              <rate>
                <ntsc>FALSE</ntsc>
                <timebase>25</timebase>
              </rate>
              <duration>2</duration>
              <width>1920</width>
              <height>1080</height>
              <media>
                <video>
                  <duration>2</duration>
                  <stillframe>TRUE</stillframe>
                  <samplecharacteristics>
                    <rate>
                      <ntsc>FALSE</ntsc>
                      <timebase>25</timebase>
                    </rate>
                    <width>1920</width>
                    <height>1080</height>
                    <pixelaspectratio>Square</pixelaspectratio>
                    <anamorphic>FALSE</anamorphic>
                  </samplecharacteristics>
                </video>
              </media>
            </file>
            <sourcetrack>
              <mediatype>video</mediatype>
            </sourcetrack>
            <fielddominance>none</fielddominance>
          </clipitem>
          <clipitem id="C.png123">
            <name>C.png</name>
            <duration>5.63</duration>
            <rate>
              <ntsc>FALSE</ntsc>
              <timebase>25</timebase>
            </rate>
            <in>90399.38</in>
            <out>90405.016</out>
            <start>399.38</start>
            <end>405.01</end>
            <pixelaspectratio>Square</pixelaspectratio>
            <stillframe>TRUE</stillframe>
            <anamorphic>FALSE</anamorphic>
            <alphatype>straight</alphatype>
            <masterclipid>C.png123</masterclipid>
            <file id="C">
              <name>C.png</name>
              <pathurl>D:/Codes/SynthLip/SynthLipN/bin/Release/net6.0-windows8.0/publish/Skin/template/C.png</pathurl>
              <rate>
                <ntsc>FALSE</ntsc>
                <timebase>25</timebase>
              </rate>
              <duration>2</duration>
              <width>1920</width>
              <height>1080</height>
              <media>
                <video>
                  <duration>2</duration>
                  <stillframe>TRUE</stillframe>
                  <samplecharacteristics>
                    <rate>
                      <ntsc>FALSE</ntsc>
                      <timebase>25</timebase>
                    </rate>
                    <width>1920</width>
                    <height>1080</height>
                    <pixelaspectratio>Square</pixelaspectratio>
                    <anamorphic>FALSE</anamorphic>
                  </samplecharacteristics>
                </video>
              </media>
            </file>
            <sourcetrack>
              <mediatype>video</mediatype>
            </sourcetrack>
            <fielddominance>none</fielddominance>
          </clipitem>
          <clipitem id="H.png122">
            <name>H.png</name>
            <duration>1.87</duration>
            <rate>
              <ntsc>FALSE</ntsc>
              <timebase>25</timebase>
            </rate>
            <in>90397.5</in>
            <out>90399.37</out>
            <start>397.5</start>
            <end>399.37</end>
            <pixelaspectratio>Square</pixelaspectratio>
            <stillframe>TRUE</stillframe>
            <anamorphic>FALSE</anamorphic>
            <alphatype>straight</alphatype>
            <masterclipid>H.png122</masterclipid>
            <file id="H">
              <name>H.png</name>
              <pathurl>D:/Codes/SynthLip/SynthLipN/bin/Release/net6.0-windows8.0/publish/Skin/template/H.png</pathurl>
              <rate>
                <ntsc>FALSE</ntsc>
                <timebase>25</timebase>
              </rate>
              <duration>2</duration>
              <width>1920</width>
              <height>1080</height>
              <media>
                <video>
                  <duration>2</duration>
                  <stillframe>TRUE</stillframe>
                  <samplecharacteristics>
                    <rate>
                      <ntsc>FALSE</ntsc>
                      <timebase>25</timebase>
                    </rate>
                    <width>1920</width>
                    <height>1080</height>
                    <pixelaspectratio>Square</pixelaspectratio>
                    <anamorphic>FALSE</anamorphic>
                  </samplecharacteristics>
                </video>
              </media>
            </file>
            <sourcetrack>
              <mediatype>video</mediatype>
            </sourcetrack>
            <fielddominance>none</fielddominance>
          </clipitem>
          <clipitem id="A.png121">
            <name>A.png</name>
            <duration>5.86</duration>
            <rate>
              <ntsc>FALSE</ntsc>
              <timebase>25</timebase>
            </rate>
            <in>90391.64</in>
            <out>90397.5</out>
            <start>391.64</start>
            <end>397.5</end>
            <pixelaspectratio>Square</pixelaspectratio>
            <stillframe>TRUE</stillframe>
            <anamorphic>FALSE</anamorphic>
            <alphatype>straight</alphatype>
            <masterclipid>A.png121</masterclipid>
            <file id="A">
              <name>A.png</name>
              <pathurl>D:/Codes/SynthLip/SynthLipN/bin/Release/net6.0-windows8.0/publish/Skin/template/A.png</pathurl>
              <rate>
                <ntsc>FALSE</ntsc>
                <timebase>25</timebase>
              </rate>
              <duration>2</duration>
              <width>1920</width>
              <height>1080</height>
              <media>
                <video>
                  <duration>2</duration>
                  <stillframe>TRUE</stillframe>
                  <samplecharacteristics>
                    <rate>
                      <ntsc>FALSE</ntsc>
                      <timebase>25</timebase>
                    </rate>
                    <width>1920</width>
                    <height>1080</height>
                    <pixelaspectratio>Square</pixelaspectratio>
                    <anamorphic>FALSE</anamorphic>
                  </samplecharacteristics>
                </video>
              </media>
            </file>
            <sourcetrack>
              <mediatype>video</mediatype>
            </sourcetrack>
            <fielddominance>none</fielddominance>
          </clipitem>
          <clipitem id="A.png120">
            <name>A.png</name>
            <duration>0.23</duration>
            <rate>
              <ntsc>FALSE</ntsc>
              <timebase>25</timebase>
            </rate>
            <in>90391.41</in>
            <out>90391.63</out>
            <start>391.41</start>
            <end>391.64</end>
            <pixelaspectratio>Square</pixelaspectratio>
            <stillframe>TRUE</stillframe>
            <anamorphic>FALSE</anamorphic>
            <alphatype>straight</alphatype>
            <masterclipid>A.png120</masterclipid>
            <file id="A">
              <name>A.png</name>
              <pathurl>D:/Codes/SynthLip/SynthLipN/bin/Release/net6.0-windows8.0/publish/Skin/template/A.png</pathurl>
              <rate>
                <ntsc>FALSE</ntsc>
                <timebase>25</timebase>
              </rate>
              <duration>2</duration>
              <width>1920</width>
              <height>1080</height>
              <media>
                <video>
                  <duration>2</duration>
                  <stillframe>TRUE</stillframe>
                  <samplecharacteristics>
                    <rate>
                      <ntsc>FALSE</ntsc>
                      <timebase>25</timebase>
                    </rate>
                    <width>1920</width>
                    <height>1080</height>
                    <pixelaspectratio>Square</pixelaspectratio>
                    <anamorphic>FALSE</anamorphic>
                  </samplecharacteristics>
                </video>
              </media>
            </file>
            <sourcetrack>
              <mediatype>video</mediatype>
            </sourcetrack>
            <fielddominance>none</fielddominance>
          </clipitem>
          <clipitem id="C.png119">
            <name>C.png</name>
            <duration>0.82</duration>
            <rate>
              <ntsc>FALSE</ntsc>
              <timebase>25</timebase>
            </rate>
            <in>90390.59</in>
            <out>90391.414</out>
            <start>390.59</start>
            <end>391.41</end>
            <pixelaspectratio>Square</pixelaspectratio>
            <stillframe>TRUE</stillframe>
            <anamorphic>FALSE</anamorphic>
            <alphatype>straight</alphatype>
            <masterclipid>C.png119</masterclipid>
            <file id="C">
              <name>C.png</name>
              <pathurl>D:/Codes/SynthLip/SynthLipN/bin/Release/net6.0-windows8.0/publish/Skin/template/C.png</pathurl>
              <rate>
                <ntsc>FALSE</ntsc>
                <timebase>25</timebase>
              </rate>
              <duration>2</duration>
              <width>1920</width>
              <height>1080</height>
              <media>
                <video>
                  <duration>2</duration>
                  <stillframe>TRUE</stillframe>
                  <samplecharacteristics>
                    <rate>
                      <ntsc>FALSE</ntsc>
                      <timebase>25</timebase>
                    </rate>
                    <width>1920</width>
                    <height>1080</height>
                    <pixelaspectratio>Square</pixelaspectratio>
                    <anamorphic>FALSE</anamorphic>
                  </samplecharacteristics>
                </video>
              </media>
            </file>
            <sourcetrack>
              <mediatype>video</mediatype>
            </sourcetrack>
            <fielddominance>none</fielddominance>
          </clipitem>
          <clipitem id="A.png118">
            <name>A.png</name>
            <duration>0.35</duration>
            <rate>
              <ntsc>FALSE</ntsc>
              <timebase>25</timebase>
            </rate>
            <in>90390.23</in>
            <out>90390.58</out>
            <start>390.23</start>
            <end>390.58002</end>
            <pixelaspectratio>Square</pixelaspectratio>
            <stillframe>TRUE</stillframe>
            <anamorphic>FALSE</anamorphic>
            <alphatype>straight</alphatype>
            <masterclipid>A.png118</masterclipid>
            <file id="A">
              <name>A.png</name>
              <pathurl>D:/Codes/SynthLip/SynthLipN/bin/Release/net6.0-windows8.0/publish/Skin/template/A.png</pathurl>
              <rate>
                <ntsc>FALSE</ntsc>
                <timebase>25</timebase>
              </rate>
              <duration>2</duration>
              <width>1920</width>
              <height>1080</height>
              <media>
                <video>
                  <duration>2</duration>
                  <stillframe>TRUE</stillframe>
                  <samplecharacteristics>
                    <rate>
                      <ntsc>FALSE</ntsc>
                      <timebase>25</timebase>
                    </rate>
                    <width>1920</width>
                    <height>1080</height>
                    <pixelaspectratio>Square</pixelaspectratio>
                    <anamorphic>FALSE</anamorphic>
                  </samplecharacteristics>
                </video>
              </media>
            </file>
            <sourcetrack>
              <mediatype>video</mediatype>
            </sourcetrack>
            <fielddominance>none</fielddominance>
          </clipitem>
          <clipitem id="A.png117">
            <name>A.png</name>
            <duration>0.23</duration>
            <rate>
              <ntsc>FALSE</ntsc>
              <timebase>25</timebase>
            </rate>
            <in>90390</in>
            <out>90390.23</out>
            <start>390</start>
            <end>390.23</end>
            <pixelaspectratio>Square</pixelaspectratio>
            <stillframe>TRUE</stillframe>
            <anamorphic>FALSE</anamorphic>
            <alphatype>straight</alphatype>
            <masterclipid>A.png117</masterclipid>
            <file id="A">
              <name>A.png</name>
              <pathurl>D:/Codes/SynthLip/SynthLipN/bin/Release/net6.0-windows8.0/publish/Skin/template/A.png</pathurl>
              <rate>
                <ntsc>FALSE</ntsc>
                <timebase>25</timebase>
              </rate>
              <duration>2</duration>
              <width>1920</width>
              <height>1080</height>
              <media>
                <video>
                  <duration>2</duration>
                  <stillframe>TRUE</stillframe>
                  <samplecharacteristics>
                    <rate>
                      <ntsc>FALSE</ntsc>
                      <timebase>25</timebase>
                    </rate>
                    <width>1920</width>
                    <height>1080</height>
                    <pixelaspectratio>Square</pixelaspectratio>
                    <anamorphic>FALSE</anamorphic>
                  </samplecharacteristics>
                </video>
              </media>
            </file>
            <sourcetrack>
              <mediatype>video</mediatype>
            </sourcetrack>
            <fielddominance>none</fielddominance>
          </clipitem>
          <clipitem id="A.png116">
            <name>A.png</name>
            <duration>8.75</duration>
            <rate>
              <ntsc>FALSE</ntsc>
              <timebase>25</timebase>
            </rate>
            <in>90381.25</in>
            <out>90390</out>
            <start>381.25</start>
            <end>390</end>
            <pixelaspectratio>Square</pixelaspectratio>
            <stillframe>TRUE</stillframe>
            <anamorphic>FALSE</anamorphic>
            <alphatype>straight</alphatype>
            <masterclipid>A.png116</masterclipid>
            <file id="A">
              <name>A.png</name>
              <pathurl>D:/Codes/SynthLip/SynthLipN/bin/Release/net6.0-windows8.0/publish/Skin/template/A.png</pathurl>
              <rate>
                <ntsc>FALSE</ntsc>
                <timebase>25</timebase>
              </rate>
              <duration>2</duration>
              <width>1920</width>
              <height>1080</height>
              <media>
                <video>
                  <duration>2</duration>
                  <stillframe>TRUE</stillframe>
                  <samplecharacteristics>
                    <rate>
                      <ntsc>FALSE</ntsc>
                      <timebase>25</timebase>
                    </rate>
                    <width>1920</width>
                    <height>1080</height>
                    <pixelaspectratio>Square</pixelaspectratio>
                    <anamorphic>FALSE</anamorphic>
                  </samplecharacteristics>
                </video>
              </media>
            </file>
            <sourcetrack>
              <mediatype>video</mediatype>
            </sourcetrack>
            <fielddominance>none</fielddominance>
          </clipitem>
          <clipitem id="B.png115">
            <name>B.png</name>
            <duration>1.25</duration>
            <rate>
              <ntsc>FALSE</ntsc>
              <timebase>25</timebase>
            </rate>
            <in>90380</in>
            <out>90381.25</out>
            <start>380</start>
            <end>381.25</end>
            <pixelaspectratio>Square</pixelaspectratio>
            <stillframe>TRUE</stillframe>
            <anamorphic>FALSE</anamorphic>
            <alphatype>straight</alphatype>
            <masterclipid>B.png115</masterclipid>
            <file id="B">
              <name>B.png</name>
              <pathurl>D:/Codes/SynthLip/SynthLipN/bin/Release/net6.0-windows8.0/publish/Skin/template/B.png</pathurl>
              <rate>
                <ntsc>FALSE</ntsc>
                <timebase>25</timebase>
              </rate>
              <duration>2</duration>
              <width>1920</width>
              <height>1080</height>
              <media>
                <video>
                  <duration>2</duration>
                  <stillframe>TRUE</stillframe>
                  <samplecharacteristics>
                    <rate>
                      <ntsc>FALSE</ntsc>
                      <timebase>25</timebase>
                    </rate>
                    <width>1920</width>
                    <height>1080</height>
                    <pixelaspectratio>Square</pixelaspectratio>
                    <anamorphic>FALSE</anamorphic>
                  </samplecharacteristics>
                </video>
              </media>
            </file>
            <sourcetrack>
              <mediatype>video</mediatype>
            </sourcetrack>
            <fielddominance>none</fielddominance>
          </clipitem>
          <clipitem id="C.png114">
            <name>C.png</name>
            <duration>3.75</duration>
            <rate>
              <ntsc>FALSE</ntsc>
              <timebase>25</timebase>
            </rate>
            <in>90376.25</in>
            <out>90380</out>
            <start>376.25</start>
            <end>380</end>
            <pixelaspectratio>Square</pixelaspectratio>
            <stillframe>TRUE</stillframe>
            <anamorphic>FALSE</anamorphic>
            <alphatype>straight</alphatype>
            <masterclipid>C.png114</masterclipid>
            <file id="C">
              <name>C.png</name>
              <pathurl>D:/Codes/SynthLip/SynthLipN/bin/Release/net6.0-windows8.0/publish/Skin/template/C.png</pathurl>
              <rate>
                <ntsc>FALSE</ntsc>
                <timebase>25</timebase>
              </rate>
              <duration>2</duration>
              <width>1920</width>
              <height>1080</height>
              <media>
                <video>
                  <duration>2</duration>
                  <stillframe>TRUE</stillframe>
                  <samplecharacteristics>
                    <rate>
                      <ntsc>FALSE</ntsc>
                      <timebase>25</timebase>
                    </rate>
                    <width>1920</width>
                    <height>1080</height>
                    <pixelaspectratio>Square</pixelaspectratio>
                    <anamorphic>FALSE</anamorphic>
                  </samplecharacteristics>
                </video>
              </media>
            </file>
            <sourcetrack>
              <mediatype>video</mediatype>
            </sourcetrack>
            <fielddominance>none</fielddominance>
          </clipitem>
          <clipitem id="B.png113">
            <name>B.png</name>
            <duration>1.25</duration>
            <rate>
              <ntsc>FALSE</ntsc>
              <timebase>25</timebase>
            </rate>
            <in>90375</in>
            <out>90376.25</out>
            <start>375</start>
            <end>376.25</end>
            <pixelaspectratio>Square</pixelaspectratio>
            <stillframe>TRUE</stillframe>
            <anamorphic>FALSE</anamorphic>
            <alphatype>straight</alphatype>
            <masterclipid>B.png113</masterclipid>
            <file id="B">
              <name>B.png</name>
              <pathurl>D:/Codes/SynthLip/SynthLipN/bin/Release/net6.0-windows8.0/publish/Skin/template/B.png</pathurl>
              <rate>
                <ntsc>FALSE</ntsc>
                <timebase>25</timebase>
              </rate>
              <duration>2</duration>
              <width>1920</width>
              <height>1080</height>
              <media>
                <video>
                  <duration>2</duration>
                  <stillframe>TRUE</stillframe>
                  <samplecharacteristics>
                    <rate>
                      <ntsc>FALSE</ntsc>
                      <timebase>25</timebase>
                    </rate>
                    <width>1920</width>
                    <height>1080</height>
                    <pixelaspectratio>Square</pixelaspectratio>
                    <anamorphic>FALSE</anamorphic>
                  </samplecharacteristics>
                </video>
              </media>
            </file>
            <sourcetrack>
              <mediatype>video</mediatype>
            </sourcetrack>
            <fielddominance>none</fielddominance>
          </clipitem>
          <clipitem id="B.png112">
            <name>B.png</name>
            <duration>4.37</duration>
            <rate>
              <ntsc>FALSE</ntsc>
              <timebase>25</timebase>
            </rate>
            <in>90370.63</in>
            <out>90375</out>
            <start>370.63</start>
            <end>375</end>
            <pixelaspectratio>Square</pixelaspectratio>
            <stillframe>TRUE</stillframe>
            <anamorphic>FALSE</anamorphic>
            <alphatype>straight</alphatype>
            <masterclipid>B.png112</masterclipid>
            <file id="B">
              <name>B.png</name>
              <pathurl>D:/Codes/SynthLip/SynthLipN/bin/Release/net6.0-windows8.0/publish/Skin/template/B.png</pathurl>
              <rate>
                <ntsc>FALSE</ntsc>
                <timebase>25</timebase>
              </rate>
              <duration>2</duration>
              <width>1920</width>
              <height>1080</height>
              <media>
                <video>
                  <duration>2</duration>
                  <stillframe>TRUE</stillframe>
                  <samplecharacteristics>
                    <rate>
                      <ntsc>FALSE</ntsc>
                      <timebase>25</timebase>
                    </rate>
                    <width>1920</width>
                    <height>1080</height>
                    <pixelaspectratio>Square</pixelaspectratio>
                    <anamorphic>FALSE</anamorphic>
                  </samplecharacteristics>
                </video>
              </media>
            </file>
            <sourcetrack>
              <mediatype>video</mediatype>
            </sourcetrack>
            <fielddominance>none</fielddominance>
          </clipitem>
          <clipitem id="B.png111">
            <name>B.png</name>
            <duration>0.63</duration>
            <rate>
              <ntsc>FALSE</ntsc>
              <timebase>25</timebase>
            </rate>
            <in>90370</in>
            <out>90370.63</out>
            <start>370</start>
            <end>370.63</end>
            <pixelaspectratio>Square</pixelaspectratio>
            <stillframe>TRUE</stillframe>
            <anamorphic>FALSE</anamorphic>
            <alphatype>straight</alphatype>
            <masterclipid>B.png111</masterclipid>
            <file id="B">
              <name>B.png</name>
              <pathurl>D:/Codes/SynthLip/SynthLipN/bin/Release/net6.0-windows8.0/publish/Skin/template/B.png</pathurl>
              <rate>
                <ntsc>FALSE</ntsc>
                <timebase>25</timebase>
              </rate>
              <duration>2</duration>
              <width>1920</width>
              <height>1080</height>
              <media>
                <video>
                  <duration>2</duration>
                  <stillframe>TRUE</stillframe>
                  <samplecharacteristics>
                    <rate>
                      <ntsc>FALSE</ntsc>
                      <timebase>25</timebase>
                    </rate>
                    <width>1920</width>
                    <height>1080</height>
                    <pixelaspectratio>Square</pixelaspectratio>
                    <anamorphic>FALSE</anamorphic>
                  </samplecharacteristics>
                </video>
              </media>
            </file>
            <sourcetrack>
              <mediatype>video</mediatype>
            </sourcetrack>
            <fielddominance>none</fielddominance>
          </clipitem>
          <clipitem id="D.png110">
            <name>D.png</name>
            <duration>2.5</duration>
            <rate>
              <ntsc>FALSE</ntsc>
              <timebase>25</timebase>
            </rate>
            <in>90367.5</in>
            <out>90370</out>
            <start>367.5</start>
            <end>370</end>
            <pixelaspectratio>Square</pixelaspectratio>
            <stillframe>TRUE</stillframe>
            <anamorphic>FALSE</anamorphic>
            <alphatype>straight</alphatype>
            <masterclipid>D.png110</masterclipid>
            <file id="D">
              <name>D.png</name>
              <pathurl>D:/Codes/SynthLip/SynthLipN/bin/Release/net6.0-windows8.0/publish/Skin/template/D.png</pathurl>
              <rate>
                <ntsc>FALSE</ntsc>
                <timebase>25</timebase>
              </rate>
              <duration>2</duration>
              <width>1920</width>
              <height>1080</height>
              <media>
                <video>
                  <duration>2</duration>
                  <stillframe>TRUE</stillframe>
                  <samplecharacteristics>
                    <rate>
                      <ntsc>FALSE</ntsc>
                      <timebase>25</timebase>
                    </rate>
                    <width>1920</width>
                    <height>1080</height>
                    <pixelaspectratio>Square</pixelaspectratio>
                    <anamorphic>FALSE</anamorphic>
                  </samplecharacteristics>
                </video>
              </media>
            </file>
            <sourcetrack>
              <mediatype>video</mediatype>
            </sourcetrack>
            <fielddominance>none</fielddominance>
          </clipitem>
          <clipitem id="C.png109">
            <name>C.png</name>
            <duration>1.25</duration>
            <rate>
              <ntsc>FALSE</ntsc>
              <timebase>25</timebase>
            </rate>
            <in>90366.25</in>
            <out>90367.5</out>
            <start>366.25</start>
            <end>367.5</end>
            <pixelaspectratio>Square</pixelaspectratio>
            <stillframe>TRUE</stillframe>
            <anamorphic>FALSE</anamorphic>
            <alphatype>straight</alphatype>
            <masterclipid>C.png109</masterclipid>
            <file id="C">
              <name>C.png</name>
              <pathurl>D:/Codes/SynthLip/SynthLipN/bin/Release/net6.0-windows8.0/publish/Skin/template/C.png</pathurl>
              <rate>
                <ntsc>FALSE</ntsc>
                <timebase>25</timebase>
              </rate>
              <duration>2</duration>
              <width>1920</width>
              <height>1080</height>
              <media>
                <video>
                  <duration>2</duration>
                  <stillframe>TRUE</stillframe>
                  <samplecharacteristics>
                    <rate>
                      <ntsc>FALSE</ntsc>
                      <timebase>25</timebase>
                    </rate>
                    <width>1920</width>
                    <height>1080</height>
                    <pixelaspectratio>Square</pixelaspectratio>
                    <anamorphic>FALSE</anamorphic>
                  </samplecharacteristics>
                </video>
              </media>
            </file>
            <sourcetrack>
              <mediatype>video</mediatype>
            </sourcetrack>
            <fielddominance>none</fielddominance>
          </clipitem>
          <clipitem id="A.png108">
            <name>A.png</name>
            <duration>1.25</duration>
            <rate>
              <ntsc>FALSE</ntsc>
              <timebase>25</timebase>
            </rate>
            <in>90365</in>
            <out>90366.25</out>
            <start>365</start>
            <end>366.25</end>
            <pixelaspectratio>Square</pixelaspectratio>
            <stillframe>TRUE</stillframe>
            <anamorphic>FALSE</anamorphic>
            <alphatype>straight</alphatype>
            <masterclipid>A.png108</masterclipid>
            <file id="A">
              <name>A.png</name>
              <pathurl>D:/Codes/SynthLip/SynthLipN/bin/Release/net6.0-windows8.0/publish/Skin/template/A.png</pathurl>
              <rate>
                <ntsc>FALSE</ntsc>
                <timebase>25</timebase>
              </rate>
              <duration>2</duration>
              <width>1920</width>
              <height>1080</height>
              <media>
                <video>
                  <duration>2</duration>
                  <stillframe>TRUE</stillframe>
                  <samplecharacteristics>
                    <rate>
                      <ntsc>FALSE</ntsc>
                      <timebase>25</timebase>
                    </rate>
                    <width>1920</width>
                    <height>1080</height>
                    <pixelaspectratio>Square</pixelaspectratio>
                    <anamorphic>FALSE</anamorphic>
                  </samplecharacteristics>
                </video>
              </media>
            </file>
            <sourcetrack>
              <mediatype>video</mediatype>
            </sourcetrack>
            <fielddominance>none</fielddominance>
          </clipitem>
          <clipitem id="D.png107">
            <name>D.png</name>
            <duration>3.75</duration>
            <rate>
              <ntsc>FALSE</ntsc>
              <timebase>25</timebase>
            </rate>
            <in>90361.25</in>
            <out>90365</out>
            <start>361.25</start>
            <end>365</end>
            <pixelaspectratio>Square</pixelaspectratio>
            <stillframe>TRUE</stillframe>
            <anamorphic>FALSE</anamorphic>
            <alphatype>straight</alphatype>
            <masterclipid>D.png107</masterclipid>
            <file id="D">
              <name>D.png</name>
              <pathurl>D:/Codes/SynthLip/SynthLipN/bin/Release/net6.0-windows8.0/publish/Skin/template/D.png</pathurl>
              <rate>
                <ntsc>FALSE</ntsc>
                <timebase>25</timebase>
              </rate>
              <duration>2</duration>
              <width>1920</width>
              <height>1080</height>
              <media>
                <video>
                  <duration>2</duration>
                  <stillframe>TRUE</stillframe>
                  <samplecharacteristics>
                    <rate>
                      <ntsc>FALSE</ntsc>
                      <timebase>25</timebase>
                    </rate>
                    <width>1920</width>
                    <height>1080</height>
                    <pixelaspectratio>Square</pixelaspectratio>
                    <anamorphic>FALSE</anamorphic>
                  </samplecharacteristics>
                </video>
              </media>
            </file>
            <sourcetrack>
              <mediatype>video</mediatype>
            </sourcetrack>
            <fielddominance>none</fielddominance>
          </clipitem>
          <clipitem id="C.png106">
            <name>C.png</name>
            <duration>1.25</duration>
            <rate>
              <ntsc>FALSE</ntsc>
              <timebase>25</timebase>
            </rate>
            <in>90360</in>
            <out>90361.25</out>
            <start>360</start>
            <end>361.25</end>
            <pixelaspectratio>Square</pixelaspectratio>
            <stillframe>TRUE</stillframe>
            <anamorphic>FALSE</anamorphic>
            <alphatype>straight</alphatype>
            <masterclipid>C.png106</masterclipid>
            <file id="C">
              <name>C.png</name>
              <pathurl>D:/Codes/SynthLip/SynthLipN/bin/Release/net6.0-windows8.0/publish/Skin/template/C.png</pathurl>
              <rate>
                <ntsc>FALSE</ntsc>
                <timebase>25</timebase>
              </rate>
              <duration>2</duration>
              <width>1920</width>
              <height>1080</height>
              <media>
                <video>
                  <duration>2</duration>
                  <stillframe>TRUE</stillframe>
                  <samplecharacteristics>
                    <rate>
                      <ntsc>FALSE</ntsc>
                      <timebase>25</timebase>
                    </rate>
                    <width>1920</width>
                    <height>1080</height>
                    <pixelaspectratio>Square</pixelaspectratio>
                    <anamorphic>FALSE</anamorphic>
                  </samplecharacteristics>
                </video>
              </media>
            </file>
            <sourcetrack>
              <mediatype>video</mediatype>
            </sourcetrack>
            <fielddominance>none</fielddominance>
          </clipitem>
          <clipitem id="C.png105">
            <name>C.png</name>
            <duration>5.62</duration>
            <rate>
              <ntsc>FALSE</ntsc>
              <timebase>25</timebase>
            </rate>
            <in>90354.38</in>
            <out>90360</out>
            <start>354.38</start>
            <end>360</end>
            <pixelaspectratio>Square</pixelaspectratio>
            <stillframe>TRUE</stillframe>
            <anamorphic>FALSE</anamorphic>
            <alphatype>straight</alphatype>
            <masterclipid>C.png105</masterclipid>
            <file id="C">
              <name>C.png</name>
              <pathurl>D:/Codes/SynthLip/SynthLipN/bin/Release/net6.0-windows8.0/publish/Skin/template/C.png</pathurl>
              <rate>
                <ntsc>FALSE</ntsc>
                <timebase>25</timebase>
              </rate>
              <duration>2</duration>
              <width>1920</width>
              <height>1080</height>
              <media>
                <video>
                  <duration>2</duration>
                  <stillframe>TRUE</stillframe>
                  <samplecharacteristics>
                    <rate>
                      <ntsc>FALSE</ntsc>
                      <timebase>25</timebase>
                    </rate>
                    <width>1920</width>
                    <height>1080</height>
                    <pixelaspectratio>Square</pixelaspectratio>
                    <anamorphic>FALSE</anamorphic>
                  </samplecharacteristics>
                </video>
              </media>
            </file>
            <sourcetrack>
              <mediatype>video</mediatype>
            </sourcetrack>
            <fielddominance>none</fielddominance>
          </clipitem>
          <clipitem id="C.png104">
            <name>C.png</name>
            <duration>1.41</duration>
            <rate>
              <ntsc>FALSE</ntsc>
              <timebase>25</timebase>
            </rate>
            <in>90352.97</in>
            <out>90354.375</out>
            <start>352.97</start>
            <end>354.38</end>
            <pixelaspectratio>Square</pixelaspectratio>
            <stillframe>TRUE</stillframe>
            <anamorphic>FALSE</anamorphic>
            <alphatype>straight</alphatype>
            <masterclipid>C.png104</masterclipid>
            <file id="C">
              <name>C.png</name>
              <pathurl>D:/Codes/SynthLip/SynthLipN/bin/Release/net6.0-windows8.0/publish/Skin/template/C.png</pathurl>
              <rate>
                <ntsc>FALSE</ntsc>
                <timebase>25</timebase>
              </rate>
              <duration>2</duration>
              <width>1920</width>
              <height>1080</height>
              <media>
                <video>
                  <duration>2</duration>
                  <stillframe>TRUE</stillframe>
                  <samplecharacteristics>
                    <rate>
                      <ntsc>FALSE</ntsc>
                      <timebase>25</timebase>
                    </rate>
                    <width>1920</width>
                    <height>1080</height>
                    <pixelaspectratio>Square</pixelaspectratio>
                    <anamorphic>FALSE</anamorphic>
                  </samplecharacteristics>
                </video>
              </media>
            </file>
            <sourcetrack>
              <mediatype>video</mediatype>
            </sourcetrack>
            <fielddominance>none</fielddominance>
          </clipitem>
          <clipitem id="B.png103">
            <name>B.png</name>
            <duration>0.47</duration>
            <rate>
              <ntsc>FALSE</ntsc>
              <timebase>25</timebase>
            </rate>
            <in>90352.5</in>
            <out>90352.97</out>
            <start>352.5</start>
            <end>352.97</end>
            <pixelaspectratio>Square</pixelaspectratio>
            <stillframe>TRUE</stillframe>
            <anamorphic>FALSE</anamorphic>
            <alphatype>straight</alphatype>
            <masterclipid>B.png103</masterclipid>
            <file id="B">
              <name>B.png</name>
              <pathurl>D:/Codes/SynthLip/SynthLipN/bin/Release/net6.0-windows8.0/publish/Skin/template/B.png</pathurl>
              <rate>
                <ntsc>FALSE</ntsc>
                <timebase>25</timebase>
              </rate>
              <duration>2</duration>
              <width>1920</width>
              <height>1080</height>
              <media>
                <video>
                  <duration>2</duration>
                  <stillframe>TRUE</stillframe>
                  <samplecharacteristics>
                    <rate>
                      <ntsc>FALSE</ntsc>
                      <timebase>25</timebase>
                    </rate>
                    <width>1920</width>
                    <height>1080</height>
                    <pixelaspectratio>Square</pixelaspectratio>
                    <anamorphic>FALSE</anamorphic>
                  </samplecharacteristics>
                </video>
              </media>
            </file>
            <sourcetrack>
              <mediatype>video</mediatype>
            </sourcetrack>
            <fielddominance>none</fielddominance>
          </clipitem>
          <clipitem id="C.png102">
            <name>C.png</name>
            <duration>5.63</duration>
            <rate>
              <ntsc>FALSE</ntsc>
              <timebase>25</timebase>
            </rate>
            <in>90346.88</in>
            <out>90352.516</out>
            <start>346.88</start>
            <end>352.51</end>
            <pixelaspectratio>Square</pixelaspectratio>
            <stillframe>TRUE</stillframe>
            <anamorphic>FALSE</anamorphic>
            <alphatype>straight</alphatype>
            <masterclipid>C.png102</masterclipid>
            <file id="C">
              <name>C.png</name>
              <pathurl>D:/Codes/SynthLip/SynthLipN/bin/Release/net6.0-windows8.0/publish/Skin/template/C.png</pathurl>
              <rate>
                <ntsc>FALSE</ntsc>
                <timebase>25</timebase>
              </rate>
              <duration>2</duration>
              <width>1920</width>
              <height>1080</height>
              <media>
                <video>
                  <duration>2</duration>
                  <stillframe>TRUE</stillframe>
                  <samplecharacteristics>
                    <rate>
                      <ntsc>FALSE</ntsc>
                      <timebase>25</timebase>
                    </rate>
                    <width>1920</width>
                    <height>1080</height>
                    <pixelaspectratio>Square</pixelaspectratio>
                    <anamorphic>FALSE</anamorphic>
                  </samplecharacteristics>
                </video>
              </media>
            </file>
            <sourcetrack>
              <mediatype>video</mediatype>
            </sourcetrack>
            <fielddominance>none</fielddominance>
          </clipitem>
          <clipitem id="C.png101">
            <name>C.png</name>
            <duration>1.09</duration>
            <rate>
              <ntsc>FALSE</ntsc>
              <timebase>25</timebase>
            </rate>
            <in>90345.78</in>
            <out>90346.875</out>
            <start>345.78</start>
            <end>346.87</end>
            <pixelaspectratio>Square</pixelaspectratio>
            <stillframe>TRUE</stillframe>
            <anamorphic>FALSE</anamorphic>
            <alphatype>straight</alphatype>
            <masterclipid>C.png101</masterclipid>
            <file id="C">
              <name>C.png</name>
              <pathurl>D:/Codes/SynthLip/SynthLipN/bin/Release/net6.0-windows8.0/publish/Skin/template/C.png</pathurl>
              <rate>
                <ntsc>FALSE</ntsc>
                <timebase>25</timebase>
              </rate>
              <duration>2</duration>
              <width>1920</width>
              <height>1080</height>
              <media>
                <video>
                  <duration>2</duration>
                  <stillframe>TRUE</stillframe>
                  <samplecharacteristics>
                    <rate>
                      <ntsc>FALSE</ntsc>
                      <timebase>25</timebase>
                    </rate>
                    <width>1920</width>
                    <height>1080</height>
                    <pixelaspectratio>Square</pixelaspectratio>
                    <anamorphic>FALSE</anamorphic>
                  </samplecharacteristics>
                </video>
              </media>
            </file>
            <sourcetrack>
              <mediatype>video</mediatype>
            </sourcetrack>
            <fielddominance>none</fielddominance>
          </clipitem>
          <clipitem id="G.png100">
            <name>G.png</name>
            <duration>0.47</duration>
            <rate>
              <ntsc>FALSE</ntsc>
              <timebase>25</timebase>
            </rate>
            <in>90345.31</in>
            <out>90345.78</out>
            <start>345.31</start>
            <end>345.78</end>
            <pixelaspectratio>Square</pixelaspectratio>
            <stillframe>TRUE</stillframe>
            <anamorphic>FALSE</anamorphic>
            <alphatype>straight</alphatype>
            <masterclipid>G.png100</masterclipid>
            <file id="G">
              <name>G.png</name>
              <pathurl>D:/Codes/SynthLip/SynthLipN/bin/Release/net6.0-windows8.0/publish/Skin/template/G.png</pathurl>
              <rate>
                <ntsc>FALSE</ntsc>
                <timebase>25</timebase>
              </rate>
              <duration>2</duration>
              <width>1920</width>
              <height>1080</height>
              <media>
                <video>
                  <duration>2</duration>
                  <stillframe>TRUE</stillframe>
                  <samplecharacteristics>
                    <rate>
                      <ntsc>FALSE</ntsc>
                      <timebase>25</timebase>
                    </rate>
                    <width>1920</width>
                    <height>1080</height>
                    <pixelaspectratio>Square</pixelaspectratio>
                    <anamorphic>FALSE</anamorphic>
                  </samplecharacteristics>
                </video>
              </media>
            </file>
            <sourcetrack>
              <mediatype>video</mediatype>
            </sourcetrack>
            <fielddominance>none</fielddominance>
          </clipitem>
          <clipitem id="G.png99">
            <name>G.png</name>
            <duration>0.31</duration>
            <rate>
              <ntsc>FALSE</ntsc>
              <timebase>25</timebase>
            </rate>
            <in>90345</in>
            <out>90345.31</out>
            <start>345</start>
            <end>345.31</end>
            <pixelaspectratio>Square</pixelaspectratio>
            <stillframe>TRUE</stillframe>
            <anamorphic>FALSE</anamorphic>
            <alphatype>straight</alphatype>
            <masterclipid>G.png99</masterclipid>
            <file id="G">
              <name>G.png</name>
              <pathurl>D:/Codes/SynthLip/SynthLipN/bin/Release/net6.0-windows8.0/publish/Skin/template/G.png</pathurl>
              <rate>
                <ntsc>FALSE</ntsc>
                <timebase>25</timebase>
              </rate>
              <duration>2</duration>
              <width>1920</width>
              <height>1080</height>
              <media>
                <video>
                  <duration>2</duration>
                  <stillframe>TRUE</stillframe>
                  <samplecharacteristics>
                    <rate>
                      <ntsc>FALSE</ntsc>
                      <timebase>25</timebase>
                    </rate>
                    <width>1920</width>
                    <height>1080</height>
                    <pixelaspectratio>Square</pixelaspectratio>
                    <anamorphic>FALSE</anamorphic>
                  </samplecharacteristics>
                </video>
              </media>
            </file>
            <sourcetrack>
              <mediatype>video</mediatype>
            </sourcetrack>
            <fielddominance>none</fielddominance>
          </clipitem>
          <clipitem id="F.png98">
            <name>F.png</name>
            <duration>5.63</duration>
            <rate>
              <ntsc>FALSE</ntsc>
              <timebase>25</timebase>
            </rate>
            <in>90339.38</in>
            <out>90345.016</out>
            <start>339.38</start>
            <end>345.01</end>
            <pixelaspectratio>Square</pixelaspectratio>
            <stillframe>TRUE</stillframe>
            <anamorphic>FALSE</anamorphic>
            <alphatype>straight</alphatype>
            <masterclipid>F.png98</masterclipid>
            <file id="F">
              <name>F.png</name>
              <pathurl>D:/Codes/SynthLip/SynthLipN/bin/Release/net6.0-windows8.0/publish/Skin/template/F.png</pathurl>
              <rate>
                <ntsc>FALSE</ntsc>
                <timebase>25</timebase>
              </rate>
              <duration>2</duration>
              <width>1920</width>
              <height>1080</height>
              <media>
                <video>
                  <duration>2</duration>
                  <stillframe>TRUE</stillframe>
                  <samplecharacteristics>
                    <rate>
                      <ntsc>FALSE</ntsc>
                      <timebase>25</timebase>
                    </rate>
                    <width>1920</width>
                    <height>1080</height>
                    <pixelaspectratio>Square</pixelaspectratio>
                    <anamorphic>FALSE</anamorphic>
                  </samplecharacteristics>
                </video>
              </media>
            </file>
            <sourcetrack>
              <mediatype>video</mediatype>
            </sourcetrack>
            <fielddominance>none</fielddominance>
          </clipitem>
          <clipitem id="B.png97">
            <name>B.png</name>
            <duration>1.87</duration>
            <rate>
              <ntsc>FALSE</ntsc>
              <timebase>25</timebase>
            </rate>
            <in>90337.5</in>
            <out>90339.37</out>
            <start>337.5</start>
            <end>339.37</end>
            <pixelaspectratio>Square</pixelaspectratio>
            <stillframe>TRUE</stillframe>
            <anamorphic>FALSE</anamorphic>
            <alphatype>straight</alphatype>
            <masterclipid>B.png97</masterclipid>
            <file id="B">
              <name>B.png</name>
              <pathurl>D:/Codes/SynthLip/SynthLipN/bin/Release/net6.0-windows8.0/publish/Skin/template/B.png</pathurl>
              <rate>
                <ntsc>FALSE</ntsc>
                <timebase>25</timebase>
              </rate>
              <duration>2</duration>
              <width>1920</width>
              <height>1080</height>
              <media>
                <video>
                  <duration>2</duration>
                  <stillframe>TRUE</stillframe>
                  <samplecharacteristics>
                    <rate>
                      <ntsc>FALSE</ntsc>
                      <timebase>25</timebase>
                    </rate>
                    <width>1920</width>
                    <height>1080</height>
                    <pixelaspectratio>Square</pixelaspectratio>
                    <anamorphic>FALSE</anamorphic>
                  </samplecharacteristics>
                </video>
              </media>
            </file>
            <sourcetrack>
              <mediatype>video</mediatype>
            </sourcetrack>
            <fielddominance>none</fielddominance>
          </clipitem>
          <clipitem id="B.png96">
            <name>B.png</name>
            <duration>5.94</duration>
            <rate>
              <ntsc>FALSE</ntsc>
              <timebase>25</timebase>
            </rate>
            <in>90331.56</in>
            <out>90337.5</out>
            <start>331.56</start>
            <end>337.5</end>
            <pixelaspectratio>Square</pixelaspectratio>
            <stillframe>TRUE</stillframe>
            <anamorphic>FALSE</anamorphic>
            <alphatype>straight</alphatype>
            <masterclipid>B.png96</masterclipid>
            <file id="B">
              <name>B.png</name>
              <pathurl>D:/Codes/SynthLip/SynthLipN/bin/Release/net6.0-windows8.0/publish/Skin/template/B.png</pathurl>
              <rate>
                <ntsc>FALSE</ntsc>
                <timebase>25</timebase>
              </rate>
              <duration>2</duration>
              <width>1920</width>
              <height>1080</height>
              <media>
                <video>
                  <duration>2</duration>
                  <stillframe>TRUE</stillframe>
                  <samplecharacteristics>
                    <rate>
                      <ntsc>FALSE</ntsc>
                      <timebase>25</timebase>
                    </rate>
                    <width>1920</width>
                    <height>1080</height>
                    <pixelaspectratio>Square</pixelaspectratio>
                    <anamorphic>FALSE</anamorphic>
                  </samplecharacteristics>
                </video>
              </media>
            </file>
            <sourcetrack>
              <mediatype>video</mediatype>
            </sourcetrack>
            <fielddominance>none</fielddominance>
          </clipitem>
          <clipitem id="B.png95">
            <name>B.png</name>
            <duration>0.31</duration>
            <rate>
              <ntsc>FALSE</ntsc>
              <timebase>25</timebase>
            </rate>
            <in>90331.25</in>
            <out>90331.56</out>
            <start>331.25</start>
            <end>331.56</end>
            <pixelaspectratio>Square</pixelaspectratio>
            <stillframe>TRUE</stillframe>
            <anamorphic>FALSE</anamorphic>
            <alphatype>straight</alphatype>
            <masterclipid>B.png95</masterclipid>
            <file id="B">
              <name>B.png</name>
              <pathurl>D:/Codes/SynthLip/SynthLipN/bin/Release/net6.0-windows8.0/publish/Skin/template/B.png</pathurl>
              <rate>
                <ntsc>FALSE</ntsc>
                <timebase>25</timebase>
              </rate>
              <duration>2</duration>
              <width>1920</width>
              <height>1080</height>
              <media>
                <video>
                  <duration>2</duration>
                  <stillframe>TRUE</stillframe>
                  <samplecharacteristics>
                    <rate>
                      <ntsc>FALSE</ntsc>
                      <timebase>25</timebase>
                    </rate>
                    <width>1920</width>
                    <height>1080</height>
                    <pixelaspectratio>Square</pixelaspectratio>
                    <anamorphic>FALSE</anamorphic>
                  </samplecharacteristics>
                </video>
              </media>
            </file>
            <sourcetrack>
              <mediatype>video</mediatype>
            </sourcetrack>
            <fielddominance>none</fielddominance>
          </clipitem>
          <clipitem id="D.png94">
            <name>D.png</name>
            <duration>0.94</duration>
            <rate>
              <ntsc>FALSE</ntsc>
              <timebase>25</timebase>
            </rate>
            <in>90330.31</in>
            <out>90331.25</out>
            <start>330.31</start>
            <end>331.25</end>
            <pixelaspectratio>Square</pixelaspectratio>
            <stillframe>TRUE</stillframe>
            <anamorphic>FALSE</anamorphic>
            <alphatype>straight</alphatype>
            <masterclipid>D.png94</masterclipid>
            <file id="D">
              <name>D.png</name>
              <pathurl>D:/Codes/SynthLip/SynthLipN/bin/Release/net6.0-windows8.0/publish/Skin/template/D.png</pathurl>
              <rate>
                <ntsc>FALSE</ntsc>
                <timebase>25</timebase>
              </rate>
              <duration>2</duration>
              <width>1920</width>
              <height>1080</height>
              <media>
                <video>
                  <duration>2</duration>
                  <stillframe>TRUE</stillframe>
                  <samplecharacteristics>
                    <rate>
                      <ntsc>FALSE</ntsc>
                      <timebase>25</timebase>
                    </rate>
                    <width>1920</width>
                    <height>1080</height>
                    <pixelaspectratio>Square</pixelaspectratio>
                    <anamorphic>FALSE</anamorphic>
                  </samplecharacteristics>
                </video>
              </media>
            </file>
            <sourcetrack>
              <mediatype>video</mediatype>
            </sourcetrack>
            <fielddominance>none</fielddominance>
          </clipitem>
          <clipitem id="F.png93">
            <name>F.png</name>
            <duration>0.31</duration>
            <rate>
              <ntsc>FALSE</ntsc>
              <timebase>25</timebase>
            </rate>
            <in>90330</in>
            <out>90330.31</out>
            <start>330</start>
            <end>330.31</end>
            <pixelaspectratio>Square</pixelaspectratio>
            <stillframe>TRUE</stillframe>
            <anamorphic>FALSE</anamorphic>
            <alphatype>straight</alphatype>
            <masterclipid>F.png93</masterclipid>
            <file id="F">
              <name>F.png</name>
              <pathurl>D:/Codes/SynthLip/SynthLipN/bin/Release/net6.0-windows8.0/publish/Skin/template/F.png</pathurl>
              <rate>
                <ntsc>FALSE</ntsc>
                <timebase>25</timebase>
              </rate>
              <duration>2</duration>
              <width>1920</width>
              <height>1080</height>
              <media>
                <video>
                  <duration>2</duration>
                  <stillframe>TRUE</stillframe>
                  <samplecharacteristics>
                    <rate>
                      <ntsc>FALSE</ntsc>
                      <timebase>25</timebase>
                    </rate>
                    <width>1920</width>
                    <height>1080</height>
                    <pixelaspectratio>Square</pixelaspectratio>
                    <anamorphic>FALSE</anamorphic>
                  </samplecharacteristics>
                </video>
              </media>
            </file>
            <sourcetrack>
              <mediatype>video</mediatype>
            </sourcetrack>
            <fielddominance>none</fielddominance>
          </clipitem>
          <clipitem id="F.png92">
            <name>F.png</name>
            <duration>7.5</duration>
            <rate>
              <ntsc>FALSE</ntsc>
              <timebase>25</timebase>
            </rate>
            <in>90322.5</in>
            <out>90330</out>
            <start>322.5</start>
            <end>330</end>
            <pixelaspectratio>Square</pixelaspectratio>
            <stillframe>TRUE</stillframe>
            <anamorphic>FALSE</anamorphic>
            <alphatype>straight</alphatype>
            <masterclipid>F.png92</masterclipid>
            <file id="F">
              <name>F.png</name>
              <pathurl>D:/Codes/SynthLip/SynthLipN/bin/Release/net6.0-windows8.0/publish/Skin/template/F.png</pathurl>
              <rate>
                <ntsc>FALSE</ntsc>
                <timebase>25</timebase>
              </rate>
              <duration>2</duration>
              <width>1920</width>
              <height>1080</height>
              <media>
                <video>
                  <duration>2</duration>
                  <stillframe>TRUE</stillframe>
                  <samplecharacteristics>
                    <rate>
                      <ntsc>FALSE</ntsc>
                      <timebase>25</timebase>
                    </rate>
                    <width>1920</width>
                    <height>1080</height>
                    <pixelaspectratio>Square</pixelaspectratio>
                    <anamorphic>FALSE</anamorphic>
                  </samplecharacteristics>
                </video>
              </media>
            </file>
            <sourcetrack>
              <mediatype>video</mediatype>
            </sourcetrack>
            <fielddominance>none</fielddominance>
          </clipitem>
          <clipitem id="F.png91">
            <name>F.png</name>
            <duration>6.09</duration>
            <rate>
              <ntsc>FALSE</ntsc>
              <timebase>25</timebase>
            </rate>
            <in>90316.41</in>
            <out>90322.5</out>
            <start>316.41</start>
            <end>322.5</end>
            <pixelaspectratio>Square</pixelaspectratio>
            <stillframe>TRUE</stillframe>
            <anamorphic>FALSE</anamorphic>
            <alphatype>straight</alphatype>
            <masterclipid>F.png91</masterclipid>
            <file id="F">
              <name>F.png</name>
              <pathurl>D:/Codes/SynthLip/SynthLipN/bin/Release/net6.0-windows8.0/publish/Skin/template/F.png</pathurl>
              <rate>
                <ntsc>FALSE</ntsc>
                <timebase>25</timebase>
              </rate>
              <duration>2</duration>
              <width>1920</width>
              <height>1080</height>
              <media>
                <video>
                  <duration>2</duration>
                  <stillframe>TRUE</stillframe>
                  <samplecharacteristics>
                    <rate>
                      <ntsc>FALSE</ntsc>
                      <timebase>25</timebase>
                    </rate>
                    <width>1920</width>
                    <height>1080</height>
                    <pixelaspectratio>Square</pixelaspectratio>
                    <anamorphic>FALSE</anamorphic>
                  </samplecharacteristics>
                </video>
              </media>
            </file>
            <sourcetrack>
              <mediatype>video</mediatype>
            </sourcetrack>
            <fielddominance>none</fielddominance>
          </clipitem>
          <clipitem id="B.png90">
            <name>B.png</name>
            <duration>1.41</duration>
            <rate>
              <ntsc>FALSE</ntsc>
              <timebase>25</timebase>
            </rate>
            <in>90315</in>
            <out>90316.41</out>
            <start>315</start>
            <end>316.41</end>
            <pixelaspectratio>Square</pixelaspectratio>
            <stillframe>TRUE</stillframe>
            <anamorphic>FALSE</anamorphic>
            <alphatype>straight</alphatype>
            <masterclipid>B.png90</masterclipid>
            <file id="B">
              <name>B.png</name>
              <pathurl>D:/Codes/SynthLip/SynthLipN/bin/Release/net6.0-windows8.0/publish/Skin/template/B.png</pathurl>
              <rate>
                <ntsc>FALSE</ntsc>
                <timebase>25</timebase>
              </rate>
              <duration>2</duration>
              <width>1920</width>
              <height>1080</height>
              <media>
                <video>
                  <duration>2</duration>
                  <stillframe>TRUE</stillframe>
                  <samplecharacteristics>
                    <rate>
                      <ntsc>FALSE</ntsc>
                      <timebase>25</timebase>
                    </rate>
                    <width>1920</width>
                    <height>1080</height>
                    <pixelaspectratio>Square</pixelaspectratio>
                    <anamorphic>FALSE</anamorphic>
                  </samplecharacteristics>
                </video>
              </media>
            </file>
            <sourcetrack>
              <mediatype>video</mediatype>
            </sourcetrack>
            <fielddominance>none</fielddominance>
          </clipitem>
          <clipitem id="F.png89">
            <name>F.png</name>
            <duration>3.75</duration>
            <rate>
              <ntsc>FALSE</ntsc>
              <timebase>25</timebase>
            </rate>
            <in>90311.25</in>
            <out>90315</out>
            <start>311.25</start>
            <end>315</end>
            <pixelaspectratio>Square</pixelaspectratio>
            <stillframe>TRUE</stillframe>
            <anamorphic>FALSE</anamorphic>
            <alphatype>straight</alphatype>
            <masterclipid>F.png89</masterclipid>
            <file id="F">
              <name>F.png</name>
              <pathurl>D:/Codes/SynthLip/SynthLipN/bin/Release/net6.0-windows8.0/publish/Skin/template/F.png</pathurl>
              <rate>
                <ntsc>FALSE</ntsc>
                <timebase>25</timebase>
              </rate>
              <duration>2</duration>
              <width>1920</width>
              <height>1080</height>
              <media>
                <video>
                  <duration>2</duration>
                  <stillframe>TRUE</stillframe>
                  <samplecharacteristics>
                    <rate>
                      <ntsc>FALSE</ntsc>
                      <timebase>25</timebase>
                    </rate>
                    <width>1920</width>
                    <height>1080</height>
                    <pixelaspectratio>Square</pixelaspectratio>
                    <anamorphic>FALSE</anamorphic>
                  </samplecharacteristics>
                </video>
              </media>
            </file>
            <sourcetrack>
              <mediatype>video</mediatype>
            </sourcetrack>
            <fielddominance>none</fielddominance>
          </clipitem>
          <clipitem id="F.png88">
            <name>F.png</name>
            <duration>1.87</duration>
            <rate>
              <ntsc>FALSE</ntsc>
              <timebase>25</timebase>
            </rate>
            <in>90309.38</in>
            <out>90311.25</out>
            <start>309.38</start>
            <end>311.25</end>
            <pixelaspectratio>Square</pixelaspectratio>
            <stillframe>TRUE</stillframe>
            <anamorphic>FALSE</anamorphic>
            <alphatype>straight</alphatype>
            <masterclipid>F.png88</masterclipid>
            <file id="F">
              <name>F.png</name>
              <pathurl>D:/Codes/SynthLip/SynthLipN/bin/Release/net6.0-windows8.0/publish/Skin/template/F.png</pathurl>
              <rate>
                <ntsc>FALSE</ntsc>
                <timebase>25</timebase>
              </rate>
              <duration>2</duration>
              <width>1920</width>
              <height>1080</height>
              <media>
                <video>
                  <duration>2</duration>
                  <stillframe>TRUE</stillframe>
                  <samplecharacteristics>
                    <rate>
                      <ntsc>FALSE</ntsc>
                      <timebase>25</timebase>
                    </rate>
                    <width>1920</width>
                    <height>1080</height>
                    <pixelaspectratio>Square</pixelaspectratio>
                    <anamorphic>FALSE</anamorphic>
                  </samplecharacteristics>
                </video>
              </media>
            </file>
            <sourcetrack>
              <mediatype>video</mediatype>
            </sourcetrack>
            <fielddominance>none</fielddominance>
          </clipitem>
          <clipitem id="F.png87">
            <name>F.png</name>
            <duration>2.03</duration>
            <rate>
              <ntsc>FALSE</ntsc>
              <timebase>25</timebase>
            </rate>
            <in>90307.34</in>
            <out>90309.375</out>
            <start>307.34</start>
            <end>309.37</end>
            <pixelaspectratio>Square</pixelaspectratio>
            <stillframe>TRUE</stillframe>
            <anamorphic>FALSE</anamorphic>
            <alphatype>straight</alphatype>
            <masterclipid>F.png87</masterclipid>
            <file id="F">
              <name>F.png</name>
              <pathurl>D:/Codes/SynthLip/SynthLipN/bin/Release/net6.0-windows8.0/publish/Skin/template/F.png</pathurl>
              <rate>
                <ntsc>FALSE</ntsc>
                <timebase>25</timebase>
              </rate>
              <duration>2</duration>
              <width>1920</width>
              <height>1080</height>
              <media>
                <video>
                  <duration>2</duration>
                  <stillframe>TRUE</stillframe>
                  <samplecharacteristics>
                    <rate>
                      <ntsc>FALSE</ntsc>
                      <timebase>25</timebase>
                    </rate>
                    <width>1920</width>
                    <height>1080</height>
                    <pixelaspectratio>Square</pixelaspectratio>
                    <anamorphic>FALSE</anamorphic>
                  </samplecharacteristics>
                </video>
              </media>
            </file>
            <sourcetrack>
              <mediatype>video</mediatype>
            </sourcetrack>
            <fielddominance>none</fielddominance>
          </clipitem>
          <clipitem id="B.png86">
            <name>B.png</name>
            <duration>1.09</duration>
            <rate>
              <ntsc>FALSE</ntsc>
              <timebase>25</timebase>
            </rate>
            <in>90306.25</in>
            <out>90307.34</out>
            <start>306.25</start>
            <end>307.34</end>
            <pixelaspectratio>Square</pixelaspectratio>
            <stillframe>TRUE</stillframe>
            <anamorphic>FALSE</anamorphic>
            <alphatype>straight</alphatype>
            <masterclipid>B.png86</masterclipid>
            <file id="B">
              <name>B.png</name>
              <pathurl>D:/Codes/SynthLip/SynthLipN/bin/Release/net6.0-windows8.0/publish/Skin/template/B.png</pathurl>
              <rate>
                <ntsc>FALSE</ntsc>
                <timebase>25</timebase>
              </rate>
              <duration>2</duration>
              <width>1920</width>
              <height>1080</height>
              <media>
                <video>
                  <duration>2</duration>
                  <stillframe>TRUE</stillframe>
                  <samplecharacteristics>
                    <rate>
                      <ntsc>FALSE</ntsc>
                      <timebase>25</timebase>
                    </rate>
                    <width>1920</width>
                    <height>1080</height>
                    <pixelaspectratio>Square</pixelaspectratio>
                    <anamorphic>FALSE</anamorphic>
                  </samplecharacteristics>
                </video>
              </media>
            </file>
            <sourcetrack>
              <mediatype>video</mediatype>
            </sourcetrack>
            <fielddominance>none</fielddominance>
          </clipitem>
          <clipitem id="C.png85">
            <name>C.png</name>
            <duration>1.25</duration>
            <rate>
              <ntsc>FALSE</ntsc>
              <timebase>25</timebase>
            </rate>
            <in>90305</in>
            <out>90306.25</out>
            <start>305</start>
            <end>306.25</end>
            <pixelaspectratio>Square</pixelaspectratio>
            <stillframe>TRUE</stillframe>
            <anamorphic>FALSE</anamorphic>
            <alphatype>straight</alphatype>
            <masterclipid>C.png85</masterclipid>
            <file id="C">
              <name>C.png</name>
              <pathurl>D:/Codes/SynthLip/SynthLipN/bin/Release/net6.0-windows8.0/publish/Skin/template/C.png</pathurl>
              <rate>
                <ntsc>FALSE</ntsc>
                <timebase>25</timebase>
              </rate>
              <duration>2</duration>
              <width>1920</width>
              <height>1080</height>
              <media>
                <video>
                  <duration>2</duration>
                  <stillframe>TRUE</stillframe>
                  <samplecharacteristics>
                    <rate>
                      <ntsc>FALSE</ntsc>
                      <timebase>25</timebase>
                    </rate>
                    <width>1920</width>
                    <height>1080</height>
                    <pixelaspectratio>Square</pixelaspectratio>
                    <anamorphic>FALSE</anamorphic>
                  </samplecharacteristics>
                </video>
              </media>
            </file>
            <sourcetrack>
              <mediatype>video</mediatype>
            </sourcetrack>
            <fielddominance>none</fielddominance>
          </clipitem>
          <clipitem id="C.png84">
            <name>C.png</name>
            <duration>3.75</duration>
            <rate>
              <ntsc>FALSE</ntsc>
              <timebase>25</timebase>
            </rate>
            <in>90301.25</in>
            <out>90305</out>
            <start>301.25</start>
            <end>305</end>
            <pixelaspectratio>Square</pixelaspectratio>
            <stillframe>TRUE</stillframe>
            <anamorphic>FALSE</anamorphic>
            <alphatype>straight</alphatype>
            <masterclipid>C.png84</masterclipid>
            <file id="C">
              <name>C.png</name>
              <pathurl>D:/Codes/SynthLip/SynthLipN/bin/Release/net6.0-windows8.0/publish/Skin/template/C.png</pathurl>
              <rate>
                <ntsc>FALSE</ntsc>
                <timebase>25</timebase>
              </rate>
              <duration>2</duration>
              <width>1920</width>
              <height>1080</height>
              <media>
                <video>
                  <duration>2</duration>
                  <stillframe>TRUE</stillframe>
                  <samplecharacteristics>
                    <rate>
                      <ntsc>FALSE</ntsc>
                      <timebase>25</timebase>
                    </rate>
                    <width>1920</width>
                    <height>1080</height>
                    <pixelaspectratio>Square</pixelaspectratio>
                    <anamorphic>FALSE</anamorphic>
                  </samplecharacteristics>
                </video>
              </media>
            </file>
            <sourcetrack>
              <mediatype>video</mediatype>
            </sourcetrack>
            <fielddominance>none</fielddominance>
          </clipitem>
          <clipitem id="B.png83">
            <name>B.png</name>
            <duration>1.25</duration>
            <rate>
              <ntsc>FALSE</ntsc>
              <timebase>25</timebase>
            </rate>
            <in>90300</in>
            <out>90301.25</out>
            <start>300</start>
            <end>301.25</end>
            <pixelaspectratio>Square</pixelaspectratio>
            <stillframe>TRUE</stillframe>
            <anamorphic>FALSE</anamorphic>
            <alphatype>straight</alphatype>
            <masterclipid>B.png83</masterclipid>
            <file id="B">
              <name>B.png</name>
              <pathurl>D:/Codes/SynthLip/SynthLipN/bin/Release/net6.0-windows8.0/publish/Skin/template/B.png</pathurl>
              <rate>
                <ntsc>FALSE</ntsc>
                <timebase>25</timebase>
              </rate>
              <duration>2</duration>
              <width>1920</width>
              <height>1080</height>
              <media>
                <video>
                  <duration>2</duration>
                  <stillframe>TRUE</stillframe>
                  <samplecharacteristics>
                    <rate>
                      <ntsc>FALSE</ntsc>
                      <timebase>25</timebase>
                    </rate>
                    <width>1920</width>
                    <height>1080</height>
                    <pixelaspectratio>Square</pixelaspectratio>
                    <anamorphic>FALSE</anamorphic>
                  </samplecharacteristics>
                </video>
              </media>
            </file>
            <sourcetrack>
              <mediatype>video</mediatype>
            </sourcetrack>
            <fielddominance>none</fielddominance>
          </clipitem>
          <clipitem id="D.png82">
            <name>D.png</name>
            <duration>4.37</duration>
            <rate>
              <ntsc>FALSE</ntsc>
              <timebase>25</timebase>
            </rate>
            <in>90295.63</in>
            <out>90300</out>
            <start>295.63</start>
            <end>300</end>
            <pixelaspectratio>Square</pixelaspectratio>
            <stillframe>TRUE</stillframe>
            <anamorphic>FALSE</anamorphic>
            <alphatype>straight</alphatype>
            <masterclipid>D.png82</masterclipid>
            <file id="D">
              <name>D.png</name>
              <pathurl>D:/Codes/SynthLip/SynthLipN/bin/Release/net6.0-windows8.0/publish/Skin/template/D.png</pathurl>
              <rate>
                <ntsc>FALSE</ntsc>
                <timebase>25</timebase>
              </rate>
              <duration>2</duration>
              <width>1920</width>
              <height>1080</height>
              <media>
                <video>
                  <duration>2</duration>
                  <stillframe>TRUE</stillframe>
                  <samplecharacteristics>
                    <rate>
                      <ntsc>FALSE</ntsc>
                      <timebase>25</timebase>
                    </rate>
                    <width>1920</width>
                    <height>1080</height>
                    <pixelaspectratio>Square</pixelaspectratio>
                    <anamorphic>FALSE</anamorphic>
                  </samplecharacteristics>
                </video>
              </media>
            </file>
            <sourcetrack>
              <mediatype>video</mediatype>
            </sourcetrack>
            <fielddominance>none</fielddominance>
          </clipitem>
          <clipitem id="D.png81">
            <name>D.png</name>
            <duration>0.63</duration>
            <rate>
              <ntsc>FALSE</ntsc>
              <timebase>25</timebase>
            </rate>
            <in>90295</in>
            <out>90295.63</out>
            <start>295</start>
            <end>295.63</end>
            <pixelaspectratio>Square</pixelaspectratio>
            <stillframe>TRUE</stillframe>
            <anamorphic>FALSE</anamorphic>
            <alphatype>straight</alphatype>
            <masterclipid>D.png81</masterclipid>
            <file id="D">
              <name>D.png</name>
              <pathurl>D:/Codes/SynthLip/SynthLipN/bin/Release/net6.0-windows8.0/publish/Skin/template/D.png</pathurl>
              <rate>
                <ntsc>FALSE</ntsc>
                <timebase>25</timebase>
              </rate>
              <duration>2</duration>
              <width>1920</width>
              <height>1080</height>
              <media>
                <video>
                  <duration>2</duration>
                  <stillframe>TRUE</stillframe>
                  <samplecharacteristics>
                    <rate>
                      <ntsc>FALSE</ntsc>
                      <timebase>25</timebase>
                    </rate>
                    <width>1920</width>
                    <height>1080</height>
                    <pixelaspectratio>Square</pixelaspectratio>
                    <anamorphic>FALSE</anamorphic>
                  </samplecharacteristics>
                </video>
              </media>
            </file>
            <sourcetrack>
              <mediatype>video</mediatype>
            </sourcetrack>
            <fielddominance>none</fielddominance>
          </clipitem>
          <clipitem id="D.png80">
            <name>D.png</name>
            <duration>2.5</duration>
            <rate>
              <ntsc>FALSE</ntsc>
              <timebase>25</timebase>
            </rate>
            <in>90292.5</in>
            <out>90295</out>
            <start>292.5</start>
            <end>295</end>
            <pixelaspectratio>Square</pixelaspectratio>
            <stillframe>TRUE</stillframe>
            <anamorphic>FALSE</anamorphic>
            <alphatype>straight</alphatype>
            <masterclipid>D.png80</masterclipid>
            <file id="D">
              <name>D.png</name>
              <pathurl>D:/Codes/SynthLip/SynthLipN/bin/Release/net6.0-windows8.0/publish/Skin/template/D.png</pathurl>
              <rate>
                <ntsc>FALSE</ntsc>
                <timebase>25</timebase>
              </rate>
              <duration>2</duration>
              <width>1920</width>
              <height>1080</height>
              <media>
                <video>
                  <duration>2</duration>
                  <stillframe>TRUE</stillframe>
                  <samplecharacteristics>
                    <rate>
                      <ntsc>FALSE</ntsc>
                      <timebase>25</timebase>
                    </rate>
                    <width>1920</width>
                    <height>1080</height>
                    <pixelaspectratio>Square</pixelaspectratio>
                    <anamorphic>FALSE</anamorphic>
                  </samplecharacteristics>
                </video>
              </media>
            </file>
            <sourcetrack>
              <mediatype>video</mediatype>
            </sourcetrack>
            <fielddominance>none</fielddominance>
          </clipitem>
          <clipitem id="A.png79">
            <name>A.png</name>
            <duration>1.25</duration>
            <rate>
              <ntsc>FALSE</ntsc>
              <timebase>25</timebase>
            </rate>
            <in>90291.25</in>
            <out>90292.5</out>
            <start>291.25</start>
            <end>292.5</end>
            <pixelaspectratio>Square</pixelaspectratio>
            <stillframe>TRUE</stillframe>
            <anamorphic>FALSE</anamorphic>
            <alphatype>straight</alphatype>
            <masterclipid>A.png79</masterclipid>
            <file id="A">
              <name>A.png</name>
              <pathurl>D:/Codes/SynthLip/SynthLipN/bin/Release/net6.0-windows8.0/publish/Skin/template/A.png</pathurl>
              <rate>
                <ntsc>FALSE</ntsc>
                <timebase>25</timebase>
              </rate>
              <duration>2</duration>
              <width>1920</width>
              <height>1080</height>
              <media>
                <video>
                  <duration>2</duration>
                  <stillframe>TRUE</stillframe>
                  <samplecharacteristics>
                    <rate>
                      <ntsc>FALSE</ntsc>
                      <timebase>25</timebase>
                    </rate>
                    <width>1920</width>
                    <height>1080</height>
                    <pixelaspectratio>Square</pixelaspectratio>
                    <anamorphic>FALSE</anamorphic>
                  </samplecharacteristics>
                </video>
              </media>
            </file>
            <sourcetrack>
              <mediatype>video</mediatype>
            </sourcetrack>
            <fielddominance>none</fielddominance>
          </clipitem>
          <clipitem id="B.png78">
            <name>B.png</name>
            <duration>1.25</duration>
            <rate>
              <ntsc>FALSE</ntsc>
              <timebase>25</timebase>
            </rate>
            <in>90290</in>
            <out>90291.25</out>
            <start>290</start>
            <end>291.25</end>
            <pixelaspectratio>Square</pixelaspectratio>
            <stillframe>TRUE</stillframe>
            <anamorphic>FALSE</anamorphic>
            <alphatype>straight</alphatype>
            <masterclipid>B.png78</masterclipid>
            <file id="B">
              <name>B.png</name>
              <pathurl>D:/Codes/SynthLip/SynthLipN/bin/Release/net6.0-windows8.0/publish/Skin/template/B.png</pathurl>
              <rate>
                <ntsc>FALSE</ntsc>
                <timebase>25</timebase>
              </rate>
              <duration>2</duration>
              <width>1920</width>
              <height>1080</height>
              <media>
                <video>
                  <duration>2</duration>
                  <stillframe>TRUE</stillframe>
                  <samplecharacteristics>
                    <rate>
                      <ntsc>FALSE</ntsc>
                      <timebase>25</timebase>
                    </rate>
                    <width>1920</width>
                    <height>1080</height>
                    <pixelaspectratio>Square</pixelaspectratio>
                    <anamorphic>FALSE</anamorphic>
                  </samplecharacteristics>
                </video>
              </media>
            </file>
            <sourcetrack>
              <mediatype>video</mediatype>
            </sourcetrack>
            <fielddominance>none</fielddominance>
          </clipitem>
          <clipitem id="F.png77">
            <name>F.png</name>
            <duration>3.75</duration>
            <rate>
              <ntsc>FALSE</ntsc>
              <timebase>25</timebase>
            </rate>
            <in>90286.25</in>
            <out>90290</out>
            <start>286.25</start>
            <end>290</end>
            <pixelaspectratio>Square</pixelaspectratio>
            <stillframe>TRUE</stillframe>
            <anamorphic>FALSE</anamorphic>
            <alphatype>straight</alphatype>
            <masterclipid>F.png77</masterclipid>
            <file id="F">
              <name>F.png</name>
              <pathurl>D:/Codes/SynthLip/SynthLipN/bin/Release/net6.0-windows8.0/publish/Skin/template/F.png</pathurl>
              <rate>
                <ntsc>FALSE</ntsc>
                <timebase>25</timebase>
              </rate>
              <duration>2</duration>
              <width>1920</width>
              <height>1080</height>
              <media>
                <video>
                  <duration>2</duration>
                  <stillframe>TRUE</stillframe>
                  <samplecharacteristics>
                    <rate>
                      <ntsc>FALSE</ntsc>
                      <timebase>25</timebase>
                    </rate>
                    <width>1920</width>
                    <height>1080</height>
                    <pixelaspectratio>Square</pixelaspectratio>
                    <anamorphic>FALSE</anamorphic>
                  </samplecharacteristics>
                </video>
              </media>
            </file>
            <sourcetrack>
              <mediatype>video</mediatype>
            </sourcetrack>
            <fielddominance>none</fielddominance>
          </clipitem>
          <clipitem id="B.png76">
            <name>B.png</name>
            <duration>1.25</duration>
            <rate>
              <ntsc>FALSE</ntsc>
              <timebase>25</timebase>
            </rate>
            <in>90285</in>
            <out>90286.25</out>
            <start>285</start>
            <end>286.25</end>
            <pixelaspectratio>Square</pixelaspectratio>
            <stillframe>TRUE</stillframe>
            <anamorphic>FALSE</anamorphic>
            <alphatype>straight</alphatype>
            <masterclipid>B.png76</masterclipid>
            <file id="B">
              <name>B.png</name>
              <pathurl>D:/Codes/SynthLip/SynthLipN/bin/Release/net6.0-windows8.0/publish/Skin/template/B.png</pathurl>
              <rate>
                <ntsc>FALSE</ntsc>
                <timebase>25</timebase>
              </rate>
              <duration>2</duration>
              <width>1920</width>
              <height>1080</height>
              <media>
                <video>
                  <duration>2</duration>
                  <stillframe>TRUE</stillframe>
                  <samplecharacteristics>
                    <rate>
                      <ntsc>FALSE</ntsc>
                      <timebase>25</timebase>
                    </rate>
                    <width>1920</width>
                    <height>1080</height>
                    <pixelaspectratio>Square</pixelaspectratio>
                    <anamorphic>FALSE</anamorphic>
                  </samplecharacteristics>
                </video>
              </media>
            </file>
            <sourcetrack>
              <mediatype>video</mediatype>
            </sourcetrack>
            <fielddominance>none</fielddominance>
          </clipitem>
          <clipitem id="F.png75">
            <name>F.png</name>
            <duration>5.62</duration>
            <rate>
              <ntsc>FALSE</ntsc>
              <timebase>25</timebase>
            </rate>
            <in>90279.38</in>
            <out>90285</out>
            <start>279.38</start>
            <end>285</end>
            <pixelaspectratio>Square</pixelaspectratio>
            <stillframe>TRUE</stillframe>
            <anamorphic>FALSE</anamorphic>
            <alphatype>straight</alphatype>
            <masterclipid>F.png75</masterclipid>
            <file id="F">
              <name>F.png</name>
              <pathurl>D:/Codes/SynthLip/SynthLipN/bin/Release/net6.0-windows8.0/publish/Skin/template/F.png</pathurl>
              <rate>
                <ntsc>FALSE</ntsc>
                <timebase>25</timebase>
              </rate>
              <duration>2</duration>
              <width>1920</width>
              <height>1080</height>
              <media>
                <video>
                  <duration>2</duration>
                  <stillframe>TRUE</stillframe>
                  <samplecharacteristics>
                    <rate>
                      <ntsc>FALSE</ntsc>
                      <timebase>25</timebase>
                    </rate>
                    <width>1920</width>
                    <height>1080</height>
                    <pixelaspectratio>Square</pixelaspectratio>
                    <anamorphic>FALSE</anamorphic>
                  </samplecharacteristics>
                </video>
              </media>
            </file>
            <sourcetrack>
              <mediatype>video</mediatype>
            </sourcetrack>
            <fielddominance>none</fielddominance>
          </clipitem>
          <clipitem id="F.png74">
            <name>F.png</name>
            <duration>2.34</duration>
            <rate>
              <ntsc>FALSE</ntsc>
              <timebase>25</timebase>
            </rate>
            <in>90277.03</in>
            <out>90279.375</out>
            <start>277.03</start>
            <end>279.37</end>
            <pixelaspectratio>Square</pixelaspectratio>
            <stillframe>TRUE</stillframe>
            <anamorphic>FALSE</anamorphic>
            <alphatype>straight</alphatype>
            <masterclipid>F.png74</masterclipid>
            <file id="F">
              <name>F.png</name>
              <pathurl>D:/Codes/SynthLip/SynthLipN/bin/Release/net6.0-windows8.0/publish/Skin/template/F.png</pathurl>
              <rate>
                <ntsc>FALSE</ntsc>
                <timebase>25</timebase>
              </rate>
              <duration>2</duration>
              <width>1920</width>
              <height>1080</height>
              <media>
                <video>
                  <duration>2</duration>
                  <stillframe>TRUE</stillframe>
                  <samplecharacteristics>
                    <rate>
                      <ntsc>FALSE</ntsc>
                      <timebase>25</timebase>
                    </rate>
                    <width>1920</width>
                    <height>1080</height>
                    <pixelaspectratio>Square</pixelaspectratio>
                    <anamorphic>FALSE</anamorphic>
                  </samplecharacteristics>
                </video>
              </media>
            </file>
            <sourcetrack>
              <mediatype>video</mediatype>
            </sourcetrack>
            <fielddominance>none</fielddominance>
          </clipitem>
          <clipitem id="B.png73">
            <name>B.png</name>
            <duration>1.41</duration>
            <rate>
              <ntsc>FALSE</ntsc>
              <timebase>25</timebase>
            </rate>
            <in>90275.63</in>
            <out>90277.04</out>
            <start>275.63</start>
            <end>277.04</end>
            <pixelaspectratio>Square</pixelaspectratio>
            <stillframe>TRUE</stillframe>
            <anamorphic>FALSE</anamorphic>
            <alphatype>straight</alphatype>
            <masterclipid>B.png73</masterclipid>
            <file id="B">
              <name>B.png</name>
              <pathurl>D:/Codes/SynthLip/SynthLipN/bin/Release/net6.0-windows8.0/publish/Skin/template/B.png</pathurl>
              <rate>
                <ntsc>FALSE</ntsc>
                <timebase>25</timebase>
              </rate>
              <duration>2</duration>
              <width>1920</width>
              <height>1080</height>
              <media>
                <video>
                  <duration>2</duration>
                  <stillframe>TRUE</stillframe>
                  <samplecharacteristics>
                    <rate>
                      <ntsc>FALSE</ntsc>
                      <timebase>25</timebase>
                    </rate>
                    <width>1920</width>
                    <height>1080</height>
                    <pixelaspectratio>Square</pixelaspectratio>
                    <anamorphic>FALSE</anamorphic>
                  </samplecharacteristics>
                </video>
              </media>
            </file>
            <sourcetrack>
              <mediatype>video</mediatype>
            </sourcetrack>
            <fielddominance>none</fielddominance>
          </clipitem>
          <clipitem id="C.png72">
            <name>C.png</name>
            <duration>1.88</duration>
            <rate>
              <ntsc>FALSE</ntsc>
              <timebase>25</timebase>
            </rate>
            <in>90273.75</in>
            <out>90275.63</out>
            <start>273.75</start>
            <end>275.63</end>
            <pixelaspectratio>Square</pixelaspectratio>
            <stillframe>TRUE</stillframe>
            <anamorphic>FALSE</anamorphic>
            <alphatype>straight</alphatype>
            <masterclipid>C.png72</masterclipid>
            <file id="C">
              <name>C.png</name>
              <pathurl>D:/Codes/SynthLip/SynthLipN/bin/Release/net6.0-windows8.0/publish/Skin/template/C.png</pathurl>
              <rate>
                <ntsc>FALSE</ntsc>
                <timebase>25</timebase>
              </rate>
              <duration>2</duration>
              <width>1920</width>
              <height>1080</height>
              <media>
                <video>
                  <duration>2</duration>
                  <stillframe>TRUE</stillframe>
                  <samplecharacteristics>
                    <rate>
                      <ntsc>FALSE</ntsc>
                      <timebase>25</timebase>
                    </rate>
                    <width>1920</width>
                    <height>1080</height>
                    <pixelaspectratio>Square</pixelaspectratio>
                    <anamorphic>FALSE</anamorphic>
                  </samplecharacteristics>
                </video>
              </media>
            </file>
            <sourcetrack>
              <mediatype>video</mediatype>
            </sourcetrack>
            <fielddominance>none</fielddominance>
          </clipitem>
          <clipitem id="C.png71">
            <name>C.png</name>
            <duration>2.81</duration>
            <rate>
              <ntsc>FALSE</ntsc>
              <timebase>25</timebase>
            </rate>
            <in>90270.94</in>
            <out>90273.75</out>
            <start>270.94</start>
            <end>273.75</end>
            <pixelaspectratio>Square</pixelaspectratio>
            <stillframe>TRUE</stillframe>
            <anamorphic>FALSE</anamorphic>
            <alphatype>straight</alphatype>
            <masterclipid>C.png71</masterclipid>
            <file id="C">
              <name>C.png</name>
              <pathurl>D:/Codes/SynthLip/SynthLipN/bin/Release/net6.0-windows8.0/publish/Skin/template/C.png</pathurl>
              <rate>
                <ntsc>FALSE</ntsc>
                <timebase>25</timebase>
              </rate>
              <duration>2</duration>
              <width>1920</width>
              <height>1080</height>
              <media>
                <video>
                  <duration>2</duration>
                  <stillframe>TRUE</stillframe>
                  <samplecharacteristics>
                    <rate>
                      <ntsc>FALSE</ntsc>
                      <timebase>25</timebase>
                    </rate>
                    <width>1920</width>
                    <height>1080</height>
                    <pixelaspectratio>Square</pixelaspectratio>
                    <anamorphic>FALSE</anamorphic>
                  </samplecharacteristics>
                </video>
              </media>
            </file>
            <sourcetrack>
              <mediatype>video</mediatype>
            </sourcetrack>
            <fielddominance>none</fielddominance>
          </clipitem>
          <clipitem id="B.png70">
            <name>B.png</name>
            <duration>0.94</duration>
            <rate>
              <ntsc>FALSE</ntsc>
              <timebase>25</timebase>
            </rate>
            <in>90270</in>
            <out>90270.94</out>
            <start>270</start>
            <end>270.94</end>
            <pixelaspectratio>Square</pixelaspectratio>
            <stillframe>TRUE</stillframe>
            <anamorphic>FALSE</anamorphic>
            <alphatype>straight</alphatype>
            <masterclipid>B.png70</masterclipid>
            <file id="B">
              <name>B.png</name>
              <pathurl>D:/Codes/SynthLip/SynthLipN/bin/Release/net6.0-windows8.0/publish/Skin/template/B.png</pathurl>
              <rate>
                <ntsc>FALSE</ntsc>
                <timebase>25</timebase>
              </rate>
              <duration>2</duration>
              <width>1920</width>
              <height>1080</height>
              <media>
                <video>
                  <duration>2</duration>
                  <stillframe>TRUE</stillframe>
                  <samplecharacteristics>
                    <rate>
                      <ntsc>FALSE</ntsc>
                      <timebase>25</timebase>
                    </rate>
                    <width>1920</width>
                    <height>1080</height>
                    <pixelaspectratio>Square</pixelaspectratio>
                    <anamorphic>FALSE</anamorphic>
                  </samplecharacteristics>
                </video>
              </media>
            </file>
            <sourcetrack>
              <mediatype>video</mediatype>
            </sourcetrack>
            <fielddominance>none</fielddominance>
          </clipitem>
          <clipitem id="A.png69">
            <name>A.png</name>
            <duration>7.5</duration>
            <rate>
              <ntsc>FALSE</ntsc>
              <timebase>25</timebase>
            </rate>
            <in>90262.5</in>
            <out>90270</out>
            <start>262.5</start>
            <end>270</end>
            <pixelaspectratio>Square</pixelaspectratio>
            <stillframe>TRUE</stillframe>
            <anamorphic>FALSE</anamorphic>
            <alphatype>straight</alphatype>
            <masterclipid>A.png69</masterclipid>
            <file id="A">
              <name>A.png</name>
              <pathurl>D:/Codes/SynthLip/SynthLipN/bin/Release/net6.0-windows8.0/publish/Skin/template/A.png</pathurl>
              <rate>
                <ntsc>FALSE</ntsc>
                <timebase>25</timebase>
              </rate>
              <duration>2</duration>
              <width>1920</width>
              <height>1080</height>
              <media>
                <video>
                  <duration>2</duration>
                  <stillframe>TRUE</stillframe>
                  <samplecharacteristics>
                    <rate>
                      <ntsc>FALSE</ntsc>
                      <timebase>25</timebase>
                    </rate>
                    <width>1920</width>
                    <height>1080</height>
                    <pixelaspectratio>Square</pixelaspectratio>
                    <anamorphic>FALSE</anamorphic>
                  </samplecharacteristics>
                </video>
              </media>
            </file>
            <sourcetrack>
              <mediatype>video</mediatype>
            </sourcetrack>
            <fielddominance>none</fielddominance>
          </clipitem>
          <clipitem id="F.png68">
            <name>F.png</name>
            <duration>5.63</duration>
            <rate>
              <ntsc>FALSE</ntsc>
              <timebase>25</timebase>
            </rate>
            <in>90256.88</in>
            <out>90262.516</out>
            <start>256.88</start>
            <end>262.51</end>
            <pixelaspectratio>Square</pixelaspectratio>
            <stillframe>TRUE</stillframe>
            <anamorphic>FALSE</anamorphic>
            <alphatype>straight</alphatype>
            <masterclipid>F.png68</masterclipid>
            <file id="F">
              <name>F.png</name>
              <pathurl>D:/Codes/SynthLip/SynthLipN/bin/Release/net6.0-windows8.0/publish/Skin/template/F.png</pathurl>
              <rate>
                <ntsc>FALSE</ntsc>
                <timebase>25</timebase>
              </rate>
              <duration>2</duration>
              <width>1920</width>
              <height>1080</height>
              <media>
                <video>
                  <duration>2</duration>
                  <stillframe>TRUE</stillframe>
                  <samplecharacteristics>
                    <rate>
                      <ntsc>FALSE</ntsc>
                      <timebase>25</timebase>
                    </rate>
                    <width>1920</width>
                    <height>1080</height>
                    <pixelaspectratio>Square</pixelaspectratio>
                    <anamorphic>FALSE</anamorphic>
                  </samplecharacteristics>
                </video>
              </media>
            </file>
            <sourcetrack>
              <mediatype>video</mediatype>
            </sourcetrack>
            <fielddominance>none</fielddominance>
          </clipitem>
          <clipitem id="B.png67">
            <name>B.png</name>
            <duration>1.87</duration>
            <rate>
              <ntsc>FALSE</ntsc>
              <timebase>25</timebase>
            </rate>
            <in>90255</in>
            <out>90256.87</out>
            <start>255</start>
            <end>256.87</end>
            <pixelaspectratio>Square</pixelaspectratio>
            <stillframe>TRUE</stillframe>
            <anamorphic>FALSE</anamorphic>
            <alphatype>straight</alphatype>
            <masterclipid>B.png67</masterclipid>
            <file id="B">
              <name>B.png</name>
              <pathurl>D:/Codes/SynthLip/SynthLipN/bin/Release/net6.0-windows8.0/publish/Skin/template/B.png</pathurl>
              <rate>
                <ntsc>FALSE</ntsc>
                <timebase>25</timebase>
              </rate>
              <duration>2</duration>
              <width>1920</width>
              <height>1080</height>
              <media>
                <video>
                  <duration>2</duration>
                  <stillframe>TRUE</stillframe>
                  <samplecharacteristics>
                    <rate>
                      <ntsc>FALSE</ntsc>
                      <timebase>25</timebase>
                    </rate>
                    <width>1920</width>
                    <height>1080</height>
                    <pixelaspectratio>Square</pixelaspectratio>
                    <anamorphic>FALSE</anamorphic>
                  </samplecharacteristics>
                </video>
              </media>
            </file>
            <sourcetrack>
              <mediatype>video</mediatype>
            </sourcetrack>
            <fielddominance>none</fielddominance>
          </clipitem>
          <clipitem id="F.png66">
            <name>F.png</name>
            <duration>3.75</duration>
            <rate>
              <ntsc>FALSE</ntsc>
              <timebase>25</timebase>
            </rate>
            <in>90251.25</in>
            <out>90255</out>
            <start>251.25</start>
            <end>255</end>
            <pixelaspectratio>Square</pixelaspectratio>
            <stillframe>TRUE</stillframe>
            <anamorphic>FALSE</anamorphic>
            <alphatype>straight</alphatype>
            <masterclipid>F.png66</masterclipid>
            <file id="F">
              <name>F.png</name>
              <pathurl>D:/Codes/SynthLip/SynthLipN/bin/Release/net6.0-windows8.0/publish/Skin/template/F.png</pathurl>
              <rate>
                <ntsc>FALSE</ntsc>
                <timebase>25</timebase>
              </rate>
              <duration>2</duration>
              <width>1920</width>
              <height>1080</height>
              <media>
                <video>
                  <duration>2</duration>
                  <stillframe>TRUE</stillframe>
                  <samplecharacteristics>
                    <rate>
                      <ntsc>FALSE</ntsc>
                      <timebase>25</timebase>
                    </rate>
                    <width>1920</width>
                    <height>1080</height>
                    <pixelaspectratio>Square</pixelaspectratio>
                    <anamorphic>FALSE</anamorphic>
                  </samplecharacteristics>
                </video>
              </media>
            </file>
            <sourcetrack>
              <mediatype>video</mediatype>
            </sourcetrack>
            <fielddominance>none</fielddominance>
          </clipitem>
          <clipitem id="F.png65">
            <name>F.png</name>
            <duration>1.87</duration>
            <rate>
              <ntsc>FALSE</ntsc>
              <timebase>25</timebase>
            </rate>
            <in>90249.38</in>
            <out>90251.25</out>
            <start>249.38</start>
            <end>251.25</end>
            <pixelaspectratio>Square</pixelaspectratio>
            <stillframe>TRUE</stillframe>
            <anamorphic>FALSE</anamorphic>
            <alphatype>straight</alphatype>
            <masterclipid>F.png65</masterclipid>
            <file id="F">
              <name>F.png</name>
              <pathurl>D:/Codes/SynthLip/SynthLipN/bin/Release/net6.0-windows8.0/publish/Skin/template/F.png</pathurl>
              <rate>
                <ntsc>FALSE</ntsc>
                <timebase>25</timebase>
              </rate>
              <duration>2</duration>
              <width>1920</width>
              <height>1080</height>
              <media>
                <video>
                  <duration>2</duration>
                  <stillframe>TRUE</stillframe>
                  <samplecharacteristics>
                    <rate>
                      <ntsc>FALSE</ntsc>
                      <timebase>25</timebase>
                    </rate>
                    <width>1920</width>
                    <height>1080</height>
                    <pixelaspectratio>Square</pixelaspectratio>
                    <anamorphic>FALSE</anamorphic>
                  </samplecharacteristics>
                </video>
              </media>
            </file>
            <sourcetrack>
              <mediatype>video</mediatype>
            </sourcetrack>
            <fielddominance>none</fielddominance>
          </clipitem>
          <clipitem id="F.png64">
            <name>F.png</name>
            <duration>1.41</duration>
            <rate>
              <ntsc>FALSE</ntsc>
              <timebase>25</timebase>
            </rate>
            <in>90247.97</in>
            <out>90249.375</out>
            <start>247.97</start>
            <end>249.38</end>
            <pixelaspectratio>Square</pixelaspectratio>
            <stillframe>TRUE</stillframe>
            <anamorphic>FALSE</anamorphic>
            <alphatype>straight</alphatype>
            <masterclipid>F.png64</masterclipid>
            <file id="F">
              <name>F.png</name>
              <pathurl>D:/Codes/SynthLip/SynthLipN/bin/Release/net6.0-windows8.0/publish/Skin/template/F.png</pathurl>
              <rate>
                <ntsc>FALSE</ntsc>
                <timebase>25</timebase>
              </rate>
              <duration>2</duration>
              <width>1920</width>
              <height>1080</height>
              <media>
                <video>
                  <duration>2</duration>
                  <stillframe>TRUE</stillframe>
                  <samplecharacteristics>
                    <rate>
                      <ntsc>FALSE</ntsc>
                      <timebase>25</timebase>
                    </rate>
                    <width>1920</width>
                    <height>1080</height>
                    <pixelaspectratio>Square</pixelaspectratio>
                    <anamorphic>FALSE</anamorphic>
                  </samplecharacteristics>
                </video>
              </media>
            </file>
            <sourcetrack>
              <mediatype>video</mediatype>
            </sourcetrack>
            <fielddominance>none</fielddominance>
          </clipitem>
          <clipitem id="B.png63">
            <name>B.png</name>
            <duration>0.47</duration>
            <rate>
              <ntsc>FALSE</ntsc>
              <timebase>25</timebase>
            </rate>
            <in>90247.5</in>
            <out>90247.97</out>
            <start>247.5</start>
            <end>247.97</end>
            <pixelaspectratio>Square</pixelaspectratio>
            <stillframe>TRUE</stillframe>
            <anamorphic>FALSE</anamorphic>
            <alphatype>straight</alphatype>
            <masterclipid>B.png63</masterclipid>
            <file id="B">
              <name>B.png</name>
              <pathurl>D:/Codes/SynthLip/SynthLipN/bin/Release/net6.0-windows8.0/publish/Skin/template/B.png</pathurl>
              <rate>
                <ntsc>FALSE</ntsc>
                <timebase>25</timebase>
              </rate>
              <duration>2</duration>
              <width>1920</width>
              <height>1080</height>
              <media>
                <video>
                  <duration>2</duration>
                  <stillframe>TRUE</stillframe>
                  <samplecharacteristics>
                    <rate>
                      <ntsc>FALSE</ntsc>
                      <timebase>25</timebase>
                    </rate>
                    <width>1920</width>
                    <height>1080</height>
                    <pixelaspectratio>Square</pixelaspectratio>
                    <anamorphic>FALSE</anamorphic>
                  </samplecharacteristics>
                </video>
              </media>
            </file>
            <sourcetrack>
              <mediatype>video</mediatype>
            </sourcetrack>
            <fielddominance>none</fielddominance>
          </clipitem>
          <clipitem id="C.png62">
            <name>C.png</name>
            <duration>5.62</duration>
            <rate>
              <ntsc>FALSE</ntsc>
              <timebase>25</timebase>
            </rate>
            <in>90241.88</in>
            <out>90247.5</out>
            <start>241.88</start>
            <end>247.5</end>
            <pixelaspectratio>Square</pixelaspectratio>
            <stillframe>TRUE</stillframe>
            <anamorphic>FALSE</anamorphic>
            <alphatype>straight</alphatype>
            <masterclipid>C.png62</masterclipid>
            <file id="C">
              <name>C.png</name>
              <pathurl>D:/Codes/SynthLip/SynthLipN/bin/Release/net6.0-windows8.0/publish/Skin/template/C.png</pathurl>
              <rate>
                <ntsc>FALSE</ntsc>
                <timebase>25</timebase>
              </rate>
              <duration>2</duration>
              <width>1920</width>
              <height>1080</height>
              <media>
                <video>
                  <duration>2</duration>
                  <stillframe>TRUE</stillframe>
                  <samplecharacteristics>
                    <rate>
                      <ntsc>FALSE</ntsc>
                      <timebase>25</timebase>
                    </rate>
                    <width>1920</width>
                    <height>1080</height>
                    <pixelaspectratio>Square</pixelaspectratio>
                    <anamorphic>FALSE</anamorphic>
                  </samplecharacteristics>
                </video>
              </media>
            </file>
            <sourcetrack>
              <mediatype>video</mediatype>
            </sourcetrack>
            <fielddominance>none</fielddominance>
          </clipitem>
          <clipitem id="A.png61">
            <name>A.png</name>
            <duration>1.87</duration>
            <rate>
              <ntsc>FALSE</ntsc>
              <timebase>25</timebase>
            </rate>
            <in>90240</in>
            <out>90241.87</out>
            <start>240</start>
            <end>241.87</end>
            <pixelaspectratio>Square</pixelaspectratio>
            <stillframe>TRUE</stillframe>
            <anamorphic>FALSE</anamorphic>
            <alphatype>straight</alphatype>
            <masterclipid>A.png61</masterclipid>
            <file id="A">
              <name>A.png</name>
              <pathurl>D:/Codes/SynthLip/SynthLipN/bin/Release/net6.0-windows8.0/publish/Skin/template/A.png</pathurl>
              <rate>
                <ntsc>FALSE</ntsc>
                <timebase>25</timebase>
              </rate>
              <duration>2</duration>
              <width>1920</width>
              <height>1080</height>
              <media>
                <video>
                  <duration>2</duration>
                  <stillframe>TRUE</stillframe>
                  <samplecharacteristics>
                    <rate>
                      <ntsc>FALSE</ntsc>
                      <timebase>25</timebase>
                    </rate>
                    <width>1920</width>
                    <height>1080</height>
                    <pixelaspectratio>Square</pixelaspectratio>
                    <anamorphic>FALSE</anamorphic>
                  </samplecharacteristics>
                </video>
              </media>
            </file>
            <sourcetrack>
              <mediatype>video</mediatype>
            </sourcetrack>
            <fielddominance>none</fielddominance>
          </clipitem>
          <clipitem id="B.png60">
            <name>B.png</name>
            <duration>4.38</duration>
            <rate>
              <ntsc>FALSE</ntsc>
              <timebase>25</timebase>
            </rate>
            <in>90235.63</in>
            <out>90240.016</out>
            <start>235.63</start>
            <end>240.01001</end>
            <pixelaspectratio>Square</pixelaspectratio>
            <stillframe>TRUE</stillframe>
            <anamorphic>FALSE</anamorphic>
            <alphatype>straight</alphatype>
            <masterclipid>B.png60</masterclipid>
            <file id="B">
              <name>B.png</name>
              <pathurl>D:/Codes/SynthLip/SynthLipN/bin/Release/net6.0-windows8.0/publish/Skin/template/B.png</pathurl>
              <rate>
                <ntsc>FALSE</ntsc>
                <timebase>25</timebase>
              </rate>
              <duration>2</duration>
              <width>1920</width>
              <height>1080</height>
              <media>
                <video>
                  <duration>2</duration>
                  <stillframe>TRUE</stillframe>
                  <samplecharacteristics>
                    <rate>
                      <ntsc>FALSE</ntsc>
                      <timebase>25</timebase>
                    </rate>
                    <width>1920</width>
                    <height>1080</height>
                    <pixelaspectratio>Square</pixelaspectratio>
                    <anamorphic>FALSE</anamorphic>
                  </samplecharacteristics>
                </video>
              </media>
            </file>
            <sourcetrack>
              <mediatype>video</mediatype>
            </sourcetrack>
            <fielddominance>none</fielddominance>
          </clipitem>
          <clipitem id="B.png59">
            <name>B.png</name>
            <duration>0.62</duration>
            <rate>
              <ntsc>FALSE</ntsc>
              <timebase>25</timebase>
            </rate>
            <in>90235</in>
            <out>90235.62</out>
            <start>235</start>
            <end>235.62</end>
            <pixelaspectratio>Square</pixelaspectratio>
            <stillframe>TRUE</stillframe>
            <anamorphic>FALSE</anamorphic>
            <alphatype>straight</alphatype>
            <masterclipid>B.png59</masterclipid>
            <file id="B">
              <name>B.png</name>
              <pathurl>D:/Codes/SynthLip/SynthLipN/bin/Release/net6.0-windows8.0/publish/Skin/template/B.png</pathurl>
              <rate>
                <ntsc>FALSE</ntsc>
                <timebase>25</timebase>
              </rate>
              <duration>2</duration>
              <width>1920</width>
              <height>1080</height>
              <media>
                <video>
                  <duration>2</duration>
                  <stillframe>TRUE</stillframe>
                  <samplecharacteristics>
                    <rate>
                      <ntsc>FALSE</ntsc>
                      <timebase>25</timebase>
                    </rate>
                    <width>1920</width>
                    <height>1080</height>
                    <pixelaspectratio>Square</pixelaspectratio>
                    <anamorphic>FALSE</anamorphic>
                  </samplecharacteristics>
                </video>
              </media>
            </file>
            <sourcetrack>
              <mediatype>video</mediatype>
            </sourcetrack>
            <fielddominance>none</fielddominance>
          </clipitem>
          <clipitem id="C.png58">
            <name>C.png</name>
            <duration>2.5</duration>
            <rate>
              <ntsc>FALSE</ntsc>
              <timebase>25</timebase>
            </rate>
            <in>90232.5</in>
            <out>90235</out>
            <start>232.5</start>
            <end>235</end>
            <pixelaspectratio>Square</pixelaspectratio>
            <stillframe>TRUE</stillframe>
            <anamorphic>FALSE</anamorphic>
            <alphatype>straight</alphatype>
            <masterclipid>C.png58</masterclipid>
            <file id="C">
              <name>C.png</name>
              <pathurl>D:/Codes/SynthLip/SynthLipN/bin/Release/net6.0-windows8.0/publish/Skin/template/C.png</pathurl>
              <rate>
                <ntsc>FALSE</ntsc>
                <timebase>25</timebase>
              </rate>
              <duration>2</duration>
              <width>1920</width>
              <height>1080</height>
              <media>
                <video>
                  <duration>2</duration>
                  <stillframe>TRUE</stillframe>
                  <samplecharacteristics>
                    <rate>
                      <ntsc>FALSE</ntsc>
                      <timebase>25</timebase>
                    </rate>
                    <width>1920</width>
                    <height>1080</height>
                    <pixelaspectratio>Square</pixelaspectratio>
                    <anamorphic>FALSE</anamorphic>
                  </samplecharacteristics>
                </video>
              </media>
            </file>
            <sourcetrack>
              <mediatype>video</mediatype>
            </sourcetrack>
            <fielddominance>none</fielddominance>
          </clipitem>
          <clipitem id="G.png57">
            <name>G.png</name>
            <duration>1.25</duration>
            <rate>
              <ntsc>FALSE</ntsc>
              <timebase>25</timebase>
            </rate>
            <in>90231.25</in>
            <out>90232.5</out>
            <start>231.25</start>
            <end>232.5</end>
            <pixelaspectratio>Square</pixelaspectratio>
            <stillframe>TRUE</stillframe>
            <anamorphic>FALSE</anamorphic>
            <alphatype>straight</alphatype>
            <masterclipid>G.png57</masterclipid>
            <file id="G">
              <name>G.png</name>
              <pathurl>D:/Codes/SynthLip/SynthLipN/bin/Release/net6.0-windows8.0/publish/Skin/template/G.png</pathurl>
              <rate>
                <ntsc>FALSE</ntsc>
                <timebase>25</timebase>
              </rate>
              <duration>2</duration>
              <width>1920</width>
              <height>1080</height>
              <media>
                <video>
                  <duration>2</duration>
                  <stillframe>TRUE</stillframe>
                  <samplecharacteristics>
                    <rate>
                      <ntsc>FALSE</ntsc>
                      <timebase>25</timebase>
                    </rate>
                    <width>1920</width>
                    <height>1080</height>
                    <pixelaspectratio>Square</pixelaspectratio>
                    <anamorphic>FALSE</anamorphic>
                  </samplecharacteristics>
                </video>
              </media>
            </file>
            <sourcetrack>
              <mediatype>video</mediatype>
            </sourcetrack>
            <fielddominance>none</fielddominance>
          </clipitem>
          <clipitem id="A.png56">
            <name>A.png</name>
            <duration>1.25</duration>
            <rate>
              <ntsc>FALSE</ntsc>
              <timebase>25</timebase>
            </rate>
            <in>90230</in>
            <out>90231.25</out>
            <start>230</start>
            <end>231.25</end>
            <pixelaspectratio>Square</pixelaspectratio>
            <stillframe>TRUE</stillframe>
            <anamorphic>FALSE</anamorphic>
            <alphatype>straight</alphatype>
            <masterclipid>A.png56</masterclipid>
            <file id="A">
              <name>A.png</name>
              <pathurl>D:/Codes/SynthLip/SynthLipN/bin/Release/net6.0-windows8.0/publish/Skin/template/A.png</pathurl>
              <rate>
                <ntsc>FALSE</ntsc>
                <timebase>25</timebase>
              </rate>
              <duration>2</duration>
              <width>1920</width>
              <height>1080</height>
              <media>
                <video>
                  <duration>2</duration>
                  <stillframe>TRUE</stillframe>
                  <samplecharacteristics>
                    <rate>
                      <ntsc>FALSE</ntsc>
                      <timebase>25</timebase>
                    </rate>
                    <width>1920</width>
                    <height>1080</height>
                    <pixelaspectratio>Square</pixelaspectratio>
                    <anamorphic>FALSE</anamorphic>
                  </samplecharacteristics>
                </video>
              </media>
            </file>
            <sourcetrack>
              <mediatype>video</mediatype>
            </sourcetrack>
            <fielddominance>none</fielddominance>
          </clipitem>
          <clipitem id="D.png55">
            <name>D.png</name>
            <duration>4.38</duration>
            <rate>
              <ntsc>FALSE</ntsc>
              <timebase>25</timebase>
            </rate>
            <in>90225.62</in>
            <out>90230</out>
            <start>225.62</start>
            <end>230</end>
            <pixelaspectratio>Square</pixelaspectratio>
            <stillframe>TRUE</stillframe>
            <anamorphic>FALSE</anamorphic>
            <alphatype>straight</alphatype>
            <masterclipid>D.png55</masterclipid>
            <file id="D">
              <name>D.png</name>
              <pathurl>D:/Codes/SynthLip/SynthLipN/bin/Release/net6.0-windows8.0/publish/Skin/template/D.png</pathurl>
              <rate>
                <ntsc>FALSE</ntsc>
                <timebase>25</timebase>
              </rate>
              <duration>2</duration>
              <width>1920</width>
              <height>1080</height>
              <media>
                <video>
                  <duration>2</duration>
                  <stillframe>TRUE</stillframe>
                  <samplecharacteristics>
                    <rate>
                      <ntsc>FALSE</ntsc>
                      <timebase>25</timebase>
                    </rate>
                    <width>1920</width>
                    <height>1080</height>
                    <pixelaspectratio>Square</pixelaspectratio>
                    <anamorphic>FALSE</anamorphic>
                  </samplecharacteristics>
                </video>
              </media>
            </file>
            <sourcetrack>
              <mediatype>video</mediatype>
            </sourcetrack>
            <fielddominance>none</fielddominance>
          </clipitem>
          <clipitem id="B.png54">
            <name>B.png</name>
            <duration>1.88</duration>
            <rate>
              <ntsc>FALSE</ntsc>
              <timebase>25</timebase>
            </rate>
            <in>90223.75</in>
            <out>90225.63</out>
            <start>223.75</start>
            <end>225.63</end>
            <pixelaspectratio>Square</pixelaspectratio>
            <stillframe>TRUE</stillframe>
            <anamorphic>FALSE</anamorphic>
            <alphatype>straight</alphatype>
            <masterclipid>B.png54</masterclipid>
            <file id="B">
              <name>B.png</name>
              <pathurl>D:/Codes/SynthLip/SynthLipN/bin/Release/net6.0-windows8.0/publish/Skin/template/B.png</pathurl>
              <rate>
                <ntsc>FALSE</ntsc>
                <timebase>25</timebase>
              </rate>
              <duration>2</duration>
              <width>1920</width>
              <height>1080</height>
              <media>
                <video>
                  <duration>2</duration>
                  <stillframe>TRUE</stillframe>
                  <samplecharacteristics>
                    <rate>
                      <ntsc>FALSE</ntsc>
                      <timebase>25</timebase>
                    </rate>
                    <width>1920</width>
                    <height>1080</height>
                    <pixelaspectratio>Square</pixelaspectratio>
                    <anamorphic>FALSE</anamorphic>
                  </samplecharacteristics>
                </video>
              </media>
            </file>
            <sourcetrack>
              <mediatype>video</mediatype>
            </sourcetrack>
            <fielddominance>none</fielddominance>
          </clipitem>
          <clipitem id="B.png53">
            <name>B.png</name>
            <duration>1.25</duration>
            <rate>
              <ntsc>FALSE</ntsc>
              <timebase>25</timebase>
            </rate>
            <in>90222.5</in>
            <out>90223.75</out>
            <start>222.5</start>
            <end>223.75</end>
            <pixelaspectratio>Square</pixelaspectratio>
            <stillframe>TRUE</stillframe>
            <anamorphic>FALSE</anamorphic>
            <alphatype>straight</alphatype>
            <masterclipid>B.png53</masterclipid>
            <file id="B">
              <name>B.png</name>
              <pathurl>D:/Codes/SynthLip/SynthLipN/bin/Release/net6.0-windows8.0/publish/Skin/template/B.png</pathurl>
              <rate>
                <ntsc>FALSE</ntsc>
                <timebase>25</timebase>
              </rate>
              <duration>2</duration>
              <width>1920</width>
              <height>1080</height>
              <media>
                <video>
                  <duration>2</duration>
                  <stillframe>TRUE</stillframe>
                  <samplecharacteristics>
                    <rate>
                      <ntsc>FALSE</ntsc>
                      <timebase>25</timebase>
                    </rate>
                    <width>1920</width>
                    <height>1080</height>
                    <pixelaspectratio>Square</pixelaspectratio>
                    <anamorphic>FALSE</anamorphic>
                  </samplecharacteristics>
                </video>
              </media>
            </file>
            <sourcetrack>
              <mediatype>video</mediatype>
            </sourcetrack>
            <fielddominance>none</fielddominance>
          </clipitem>
          <clipitem id="D.png52">
            <name>D.png</name>
            <duration>3.75</duration>
            <rate>
              <ntsc>FALSE</ntsc>
              <timebase>25</timebase>
            </rate>
            <in>90218.75</in>
            <out>90222.5</out>
            <start>218.75</start>
            <end>222.5</end>
            <pixelaspectratio>Square</pixelaspectratio>
            <stillframe>TRUE</stillframe>
            <anamorphic>FALSE</anamorphic>
            <alphatype>straight</alphatype>
            <masterclipid>D.png52</masterclipid>
            <file id="D">
              <name>D.png</name>
              <pathurl>D:/Codes/SynthLip/SynthLipN/bin/Release/net6.0-windows8.0/publish/Skin/template/D.png</pathurl>
              <rate>
                <ntsc>FALSE</ntsc>
                <timebase>25</timebase>
              </rate>
              <duration>2</duration>
              <width>1920</width>
              <height>1080</height>
              <media>
                <video>
                  <duration>2</duration>
                  <stillframe>TRUE</stillframe>
                  <samplecharacteristics>
                    <rate>
                      <ntsc>FALSE</ntsc>
                      <timebase>25</timebase>
                    </rate>
                    <width>1920</width>
                    <height>1080</height>
                    <pixelaspectratio>Square</pixelaspectratio>
                    <anamorphic>FALSE</anamorphic>
                  </samplecharacteristics>
                </video>
              </media>
            </file>
            <sourcetrack>
              <mediatype>video</mediatype>
            </sourcetrack>
            <fielddominance>none</fielddominance>
          </clipitem>
          <clipitem id="B.png51">
            <name>B.png</name>
            <duration>1.25</duration>
            <rate>
              <ntsc>FALSE</ntsc>
              <timebase>25</timebase>
            </rate>
            <in>90217.5</in>
            <out>90218.75</out>
            <start>217.5</start>
            <end>218.75</end>
            <pixelaspectratio>Square</pixelaspectratio>
            <stillframe>TRUE</stillframe>
            <anamorphic>FALSE</anamorphic>
            <alphatype>straight</alphatype>
            <masterclipid>B.png51</masterclipid>
            <file id="B">
              <name>B.png</name>
              <pathurl>D:/Codes/SynthLip/SynthLipN/bin/Release/net6.0-windows8.0/publish/Skin/template/B.png</pathurl>
              <rate>
                <ntsc>FALSE</ntsc>
                <timebase>25</timebase>
              </rate>
              <duration>2</duration>
              <width>1920</width>
              <height>1080</height>
              <media>
                <video>
                  <duration>2</duration>
                  <stillframe>TRUE</stillframe>
                  <samplecharacteristics>
                    <rate>
                      <ntsc>FALSE</ntsc>
                      <timebase>25</timebase>
                    </rate>
                    <width>1920</width>
                    <height>1080</height>
                    <pixelaspectratio>Square</pixelaspectratio>
                    <anamorphic>FALSE</anamorphic>
                  </samplecharacteristics>
                </video>
              </media>
            </file>
            <sourcetrack>
              <mediatype>video</mediatype>
            </sourcetrack>
            <fielddominance>none</fielddominance>
          </clipitem>
          <clipitem id="F.png50">
            <name>F.png</name>
            <duration>3.75</duration>
            <rate>
              <ntsc>FALSE</ntsc>
              <timebase>25</timebase>
            </rate>
            <in>90213.75</in>
            <out>90217.5</out>
            <start>213.75</start>
            <end>217.5</end>
            <pixelaspectratio>Square</pixelaspectratio>
            <stillframe>TRUE</stillframe>
            <anamorphic>FALSE</anamorphic>
            <alphatype>straight</alphatype>
            <masterclipid>F.png50</masterclipid>
            <file id="F">
              <name>F.png</name>
              <pathurl>D:/Codes/SynthLip/SynthLipN/bin/Release/net6.0-windows8.0/publish/Skin/template/F.png</pathurl>
              <rate>
                <ntsc>FALSE</ntsc>
                <timebase>25</timebase>
              </rate>
              <duration>2</duration>
              <width>1920</width>
              <height>1080</height>
              <media>
                <video>
                  <duration>2</duration>
                  <stillframe>TRUE</stillframe>
                  <samplecharacteristics>
                    <rate>
                      <ntsc>FALSE</ntsc>
                      <timebase>25</timebase>
                    </rate>
                    <width>1920</width>
                    <height>1080</height>
                    <pixelaspectratio>Square</pixelaspectratio>
                    <anamorphic>FALSE</anamorphic>
                  </samplecharacteristics>
                </video>
              </media>
            </file>
            <sourcetrack>
              <mediatype>video</mediatype>
            </sourcetrack>
            <fielddominance>none</fielddominance>
          </clipitem>
          <clipitem id="D.png49">
            <name>D.png</name>
            <duration>1.87</duration>
            <rate>
              <ntsc>FALSE</ntsc>
              <timebase>25</timebase>
            </rate>
            <in>90211.88</in>
            <out>90213.75</out>
            <start>211.88</start>
            <end>213.75</end>
            <pixelaspectratio>Square</pixelaspectratio>
            <stillframe>TRUE</stillframe>
            <anamorphic>FALSE</anamorphic>
            <alphatype>straight</alphatype>
            <masterclipid>D.png49</masterclipid>
            <file id="D">
              <name>D.png</name>
              <pathurl>D:/Codes/SynthLip/SynthLipN/bin/Release/net6.0-windows8.0/publish/Skin/template/D.png</pathurl>
              <rate>
                <ntsc>FALSE</ntsc>
                <timebase>25</timebase>
              </rate>
              <duration>2</duration>
              <width>1920</width>
              <height>1080</height>
              <media>
                <video>
                  <duration>2</duration>
                  <stillframe>TRUE</stillframe>
                  <samplecharacteristics>
                    <rate>
                      <ntsc>FALSE</ntsc>
                      <timebase>25</timebase>
                    </rate>
                    <width>1920</width>
                    <height>1080</height>
                    <pixelaspectratio>Square</pixelaspectratio>
                    <anamorphic>FALSE</anamorphic>
                  </samplecharacteristics>
                </video>
              </media>
            </file>
            <sourcetrack>
              <mediatype>video</mediatype>
            </sourcetrack>
            <fielddominance>none</fielddominance>
          </clipitem>
          <clipitem id="D.png48">
            <name>D.png</name>
            <duration>1.41</duration>
            <rate>
              <ntsc>FALSE</ntsc>
              <timebase>25</timebase>
            </rate>
            <in>90210.47</in>
            <out>90211.875</out>
            <start>210.47</start>
            <end>211.88</end>
            <pixelaspectratio>Square</pixelaspectratio>
            <stillframe>TRUE</stillframe>
            <anamorphic>FALSE</anamorphic>
            <alphatype>straight</alphatype>
            <masterclipid>D.png48</masterclipid>
            <file id="D">
              <name>D.png</name>
              <pathurl>D:/Codes/SynthLip/SynthLipN/bin/Release/net6.0-windows8.0/publish/Skin/template/D.png</pathurl>
              <rate>
                <ntsc>FALSE</ntsc>
                <timebase>25</timebase>
              </rate>
              <duration>2</duration>
              <width>1920</width>
              <height>1080</height>
              <media>
                <video>
                  <duration>2</duration>
                  <stillframe>TRUE</stillframe>
                  <samplecharacteristics>
                    <rate>
                      <ntsc>FALSE</ntsc>
                      <timebase>25</timebase>
                    </rate>
                    <width>1920</width>
                    <height>1080</height>
                    <pixelaspectratio>Square</pixelaspectratio>
                    <anamorphic>FALSE</anamorphic>
                  </samplecharacteristics>
                </video>
              </media>
            </file>
            <sourcetrack>
              <mediatype>video</mediatype>
            </sourcetrack>
            <fielddominance>none</fielddominance>
          </clipitem>
          <clipitem id="C.png47">
            <name>C.png</name>
            <duration>0.47</duration>
            <rate>
              <ntsc>FALSE</ntsc>
              <timebase>25</timebase>
            </rate>
            <in>90210</in>
            <out>90210.47</out>
            <start>210</start>
            <end>210.47</end>
            <pixelaspectratio>Square</pixelaspectratio>
            <stillframe>TRUE</stillframe>
            <anamorphic>FALSE</anamorphic>
            <alphatype>straight</alphatype>
            <masterclipid>C.png47</masterclipid>
            <file id="C">
              <name>C.png</name>
              <pathurl>D:/Codes/SynthLip/SynthLipN/bin/Release/net6.0-windows8.0/publish/Skin/template/C.png</pathurl>
              <rate>
                <ntsc>FALSE</ntsc>
                <timebase>25</timebase>
              </rate>
              <duration>2</duration>
              <width>1920</width>
              <height>1080</height>
              <media>
                <video>
                  <duration>2</duration>
                  <stillframe>TRUE</stillframe>
                  <samplecharacteristics>
                    <rate>
                      <ntsc>FALSE</ntsc>
                      <timebase>25</timebase>
                    </rate>
                    <width>1920</width>
                    <height>1080</height>
                    <pixelaspectratio>Square</pixelaspectratio>
                    <anamorphic>FALSE</anamorphic>
                  </samplecharacteristics>
                </video>
              </media>
            </file>
            <sourcetrack>
              <mediatype>video</mediatype>
            </sourcetrack>
            <fielddominance>none</fielddominance>
          </clipitem>
          <clipitem id="A.png46">
            <name>A.png</name>
            <duration>8.75</duration>
            <rate>
              <ntsc>FALSE</ntsc>
              <timebase>25</timebase>
            </rate>
            <in>90201.25</in>
            <out>90210</out>
            <start>201.25</start>
            <end>210</end>
            <pixelaspectratio>Square</pixelaspectratio>
            <stillframe>TRUE</stillframe>
            <anamorphic>FALSE</anamorphic>
            <alphatype>straight</alphatype>
            <masterclipid>A.png46</masterclipid>
            <file id="A">
              <name>A.png</name>
              <pathurl>D:/Codes/SynthLip/SynthLipN/bin/Release/net6.0-windows8.0/publish/Skin/template/A.png</pathurl>
              <rate>
                <ntsc>FALSE</ntsc>
                <timebase>25</timebase>
              </rate>
              <duration>2</duration>
              <width>1920</width>
              <height>1080</height>
              <media>
                <video>
                  <duration>2</duration>
                  <stillframe>TRUE</stillframe>
                  <samplecharacteristics>
                    <rate>
                      <ntsc>FALSE</ntsc>
                      <timebase>25</timebase>
                    </rate>
                    <width>1920</width>
                    <height>1080</height>
                    <pixelaspectratio>Square</pixelaspectratio>
                    <anamorphic>FALSE</anamorphic>
                  </samplecharacteristics>
                </video>
              </media>
            </file>
            <sourcetrack>
              <mediatype>video</mediatype>
            </sourcetrack>
            <fielddominance>none</fielddominance>
          </clipitem>
          <clipitem id="B.png45">
            <name>B.png</name>
            <duration>1.25</duration>
            <rate>
              <ntsc>FALSE</ntsc>
              <timebase>25</timebase>
            </rate>
            <in>90200</in>
            <out>90201.25</out>
            <start>200</start>
            <end>201.25</end>
            <pixelaspectratio>Square</pixelaspectratio>
            <stillframe>TRUE</stillframe>
            <anamorphic>FALSE</anamorphic>
            <alphatype>straight</alphatype>
            <masterclipid>B.png45</masterclipid>
            <file id="B">
              <name>B.png</name>
              <pathurl>D:/Codes/SynthLip/SynthLipN/bin/Release/net6.0-windows8.0/publish/Skin/template/B.png</pathurl>
              <rate>
                <ntsc>FALSE</ntsc>
                <timebase>25</timebase>
              </rate>
              <duration>2</duration>
              <width>1920</width>
              <height>1080</height>
              <media>
                <video>
                  <duration>2</duration>
                  <stillframe>TRUE</stillframe>
                  <samplecharacteristics>
                    <rate>
                      <ntsc>FALSE</ntsc>
                      <timebase>25</timebase>
                    </rate>
                    <width>1920</width>
                    <height>1080</height>
                    <pixelaspectratio>Square</pixelaspectratio>
                    <anamorphic>FALSE</anamorphic>
                  </samplecharacteristics>
                </video>
              </media>
            </file>
            <sourcetrack>
              <mediatype>video</mediatype>
            </sourcetrack>
            <fielddominance>none</fielddominance>
          </clipitem>
          <clipitem id="D.png44">
            <name>D.png</name>
            <duration>3.75</duration>
            <rate>
              <ntsc>FALSE</ntsc>
              <timebase>25</timebase>
            </rate>
            <in>90196.25</in>
            <out>90200</out>
            <start>196.25</start>
            <end>200</end>
            <pixelaspectratio>Square</pixelaspectratio>
            <stillframe>TRUE</stillframe>
            <anamorphic>FALSE</anamorphic>
            <alphatype>straight</alphatype>
            <masterclipid>D.png44</masterclipid>
            <file id="D">
              <name>D.png</name>
              <pathurl>D:/Codes/SynthLip/SynthLipN/bin/Release/net6.0-windows8.0/publish/Skin/template/D.png</pathurl>
              <rate>
                <ntsc>FALSE</ntsc>
                <timebase>25</timebase>
              </rate>
              <duration>2</duration>
              <width>1920</width>
              <height>1080</height>
              <media>
                <video>
                  <duration>2</duration>
                  <stillframe>TRUE</stillframe>
                  <samplecharacteristics>
                    <rate>
                      <ntsc>FALSE</ntsc>
                      <timebase>25</timebase>
                    </rate>
                    <width>1920</width>
                    <height>1080</height>
                    <pixelaspectratio>Square</pixelaspectratio>
                    <anamorphic>FALSE</anamorphic>
                  </samplecharacteristics>
                </video>
              </media>
            </file>
            <sourcetrack>
              <mediatype>video</mediatype>
            </sourcetrack>
            <fielddominance>none</fielddominance>
          </clipitem>
          <clipitem id="B.png43">
            <name>B.png</name>
            <duration>1.25</duration>
            <rate>
              <ntsc>FALSE</ntsc>
              <timebase>25</timebase>
            </rate>
            <in>90195</in>
            <out>90196.25</out>
            <start>195</start>
            <end>196.25</end>
            <pixelaspectratio>Square</pixelaspectratio>
            <stillframe>TRUE</stillframe>
            <anamorphic>FALSE</anamorphic>
            <alphatype>straight</alphatype>
            <masterclipid>B.png43</masterclipid>
            <file id="B">
              <name>B.png</name>
              <pathurl>D:/Codes/SynthLip/SynthLipN/bin/Release/net6.0-windows8.0/publish/Skin/template/B.png</pathurl>
              <rate>
                <ntsc>FALSE</ntsc>
                <timebase>25</timebase>
              </rate>
              <duration>2</duration>
              <width>1920</width>
              <height>1080</height>
              <media>
                <video>
                  <duration>2</duration>
                  <stillframe>TRUE</stillframe>
                  <samplecharacteristics>
                    <rate>
                      <ntsc>FALSE</ntsc>
                      <timebase>25</timebase>
                    </rate>
                    <width>1920</width>
                    <height>1080</height>
                    <pixelaspectratio>Square</pixelaspectratio>
                    <anamorphic>FALSE</anamorphic>
                  </samplecharacteristics>
                </video>
              </media>
            </file>
            <sourcetrack>
              <mediatype>video</mediatype>
            </sourcetrack>
            <fielddominance>none</fielddominance>
          </clipitem>
          <clipitem id="F.png42">
            <name>F.png</name>
            <duration>3.75</duration>
            <rate>
              <ntsc>FALSE</ntsc>
              <timebase>25</timebase>
            </rate>
            <in>90191.25</in>
            <out>90195</out>
            <start>191.25</start>
            <end>195</end>
            <pixelaspectratio>Square</pixelaspectratio>
            <stillframe>TRUE</stillframe>
            <anamorphic>FALSE</anamorphic>
            <alphatype>straight</alphatype>
            <masterclipid>F.png42</masterclipid>
            <file id="F">
              <name>F.png</name>
              <pathurl>D:/Codes/SynthLip/SynthLipN/bin/Release/net6.0-windows8.0/publish/Skin/template/F.png</pathurl>
              <rate>
                <ntsc>FALSE</ntsc>
                <timebase>25</timebase>
              </rate>
              <duration>2</duration>
              <width>1920</width>
              <height>1080</height>
              <media>
                <video>
                  <duration>2</duration>
                  <stillframe>TRUE</stillframe>
                  <samplecharacteristics>
                    <rate>
                      <ntsc>FALSE</ntsc>
                      <timebase>25</timebase>
                    </rate>
                    <width>1920</width>
                    <height>1080</height>
                    <pixelaspectratio>Square</pixelaspectratio>
                    <anamorphic>FALSE</anamorphic>
                  </samplecharacteristics>
                </video>
              </media>
            </file>
            <sourcetrack>
              <mediatype>video</mediatype>
            </sourcetrack>
            <fielddominance>none</fielddominance>
          </clipitem>
          <clipitem id="F.png41">
            <name>F.png</name>
            <duration>1.88</duration>
            <rate>
              <ntsc>FALSE</ntsc>
              <timebase>25</timebase>
            </rate>
            <in>90189.38</in>
            <out>90191.266</out>
            <start>189.38</start>
            <end>191.26001</end>
            <pixelaspectratio>Square</pixelaspectratio>
            <stillframe>TRUE</stillframe>
            <anamorphic>FALSE</anamorphic>
            <alphatype>straight</alphatype>
            <masterclipid>F.png41</masterclipid>
            <file id="F">
              <name>F.png</name>
              <pathurl>D:/Codes/SynthLip/SynthLipN/bin/Release/net6.0-windows8.0/publish/Skin/template/F.png</pathurl>
              <rate>
                <ntsc>FALSE</ntsc>
                <timebase>25</timebase>
              </rate>
              <duration>2</duration>
              <width>1920</width>
              <height>1080</height>
              <media>
                <video>
                  <duration>2</duration>
                  <stillframe>TRUE</stillframe>
                  <samplecharacteristics>
                    <rate>
                      <ntsc>FALSE</ntsc>
                      <timebase>25</timebase>
                    </rate>
                    <width>1920</width>
                    <height>1080</height>
                    <pixelaspectratio>Square</pixelaspectratio>
                    <anamorphic>FALSE</anamorphic>
                  </samplecharacteristics>
                </video>
              </media>
            </file>
            <sourcetrack>
              <mediatype>video</mediatype>
            </sourcetrack>
            <fielddominance>none</fielddominance>
          </clipitem>
          <clipitem id="F.png40">
            <name>F.png</name>
            <duration>2.03</duration>
            <rate>
              <ntsc>FALSE</ntsc>
              <timebase>25</timebase>
            </rate>
            <in>90187.34</in>
            <out>90189.375</out>
            <start>187.34</start>
            <end>189.37</end>
            <pixelaspectratio>Square</pixelaspectratio>
            <stillframe>TRUE</stillframe>
            <anamorphic>FALSE</anamorphic>
            <alphatype>straight</alphatype>
            <masterclipid>F.png40</masterclipid>
            <file id="F">
              <name>F.png</name>
              <pathurl>D:/Codes/SynthLip/SynthLipN/bin/Release/net6.0-windows8.0/publish/Skin/template/F.png</pathurl>
              <rate>
                <ntsc>FALSE</ntsc>
                <timebase>25</timebase>
              </rate>
              <duration>2</duration>
              <width>1920</width>
              <height>1080</height>
              <media>
                <video>
                  <duration>2</duration>
                  <stillframe>TRUE</stillframe>
                  <samplecharacteristics>
                    <rate>
                      <ntsc>FALSE</ntsc>
                      <timebase>25</timebase>
                    </rate>
                    <width>1920</width>
                    <height>1080</height>
                    <pixelaspectratio>Square</pixelaspectratio>
                    <anamorphic>FALSE</anamorphic>
                  </samplecharacteristics>
                </video>
              </media>
            </file>
            <sourcetrack>
              <mediatype>video</mediatype>
            </sourcetrack>
            <fielddominance>none</fielddominance>
          </clipitem>
          <clipitem id="B.png39">
            <name>B.png</name>
            <duration>1.09</duration>
            <rate>
              <ntsc>FALSE</ntsc>
              <timebase>25</timebase>
            </rate>
            <in>90186.25</in>
            <out>90187.34</out>
            <start>186.25</start>
            <end>187.34</end>
            <pixelaspectratio>Square</pixelaspectratio>
            <stillframe>TRUE</stillframe>
            <anamorphic>FALSE</anamorphic>
            <alphatype>straight</alphatype>
            <masterclipid>B.png39</masterclipid>
            <file id="B">
              <name>B.png</name>
              <pathurl>D:/Codes/SynthLip/SynthLipN/bin/Release/net6.0-windows8.0/publish/Skin/template/B.png</pathurl>
              <rate>
                <ntsc>FALSE</ntsc>
                <timebase>25</timebase>
              </rate>
              <duration>2</duration>
              <width>1920</width>
              <height>1080</height>
              <media>
                <video>
                  <duration>2</duration>
                  <stillframe>TRUE</stillframe>
                  <samplecharacteristics>
                    <rate>
                      <ntsc>FALSE</ntsc>
                      <timebase>25</timebase>
                    </rate>
                    <width>1920</width>
                    <height>1080</height>
                    <pixelaspectratio>Square</pixelaspectratio>
                    <anamorphic>FALSE</anamorphic>
                  </samplecharacteristics>
                </video>
              </media>
            </file>
            <sourcetrack>
              <mediatype>video</mediatype>
            </sourcetrack>
            <fielddominance>none</fielddominance>
          </clipitem>
          <clipitem id="C.png38">
            <name>C.png</name>
            <duration>1.25</duration>
            <rate>
              <ntsc>FALSE</ntsc>
              <timebase>25</timebase>
            </rate>
            <in>90185</in>
            <out>90186.25</out>
            <start>185</start>
            <end>186.25</end>
            <pixelaspectratio>Square</pixelaspectratio>
            <stillframe>TRUE</stillframe>
            <anamorphic>FALSE</anamorphic>
            <alphatype>straight</alphatype>
            <masterclipid>C.png38</masterclipid>
            <file id="C">
              <name>C.png</name>
              <pathurl>D:/Codes/SynthLip/SynthLipN/bin/Release/net6.0-windows8.0/publish/Skin/template/C.png</pathurl>
              <rate>
                <ntsc>FALSE</ntsc>
                <timebase>25</timebase>
              </rate>
              <duration>2</duration>
              <width>1920</width>
              <height>1080</height>
              <media>
                <video>
                  <duration>2</duration>
                  <stillframe>TRUE</stillframe>
                  <samplecharacteristics>
                    <rate>
                      <ntsc>FALSE</ntsc>
                      <timebase>25</timebase>
                    </rate>
                    <width>1920</width>
                    <height>1080</height>
                    <pixelaspectratio>Square</pixelaspectratio>
                    <anamorphic>FALSE</anamorphic>
                  </samplecharacteristics>
                </video>
              </media>
            </file>
            <sourcetrack>
              <mediatype>video</mediatype>
            </sourcetrack>
            <fielddominance>none</fielddominance>
          </clipitem>
          <clipitem id="C.png37">
            <name>C.png</name>
            <duration>3.75</duration>
            <rate>
              <ntsc>FALSE</ntsc>
              <timebase>25</timebase>
            </rate>
            <in>90181.25</in>
            <out>90185</out>
            <start>181.25</start>
            <end>185</end>
            <pixelaspectratio>Square</pixelaspectratio>
            <stillframe>TRUE</stillframe>
            <anamorphic>FALSE</anamorphic>
            <alphatype>straight</alphatype>
            <masterclipid>C.png37</masterclipid>
            <file id="C">
              <name>C.png</name>
              <pathurl>D:/Codes/SynthLip/SynthLipN/bin/Release/net6.0-windows8.0/publish/Skin/template/C.png</pathurl>
              <rate>
                <ntsc>FALSE</ntsc>
                <timebase>25</timebase>
              </rate>
              <duration>2</duration>
              <width>1920</width>
              <height>1080</height>
              <media>
                <video>
                  <duration>2</duration>
                  <stillframe>TRUE</stillframe>
                  <samplecharacteristics>
                    <rate>
                      <ntsc>FALSE</ntsc>
                      <timebase>25</timebase>
                    </rate>
                    <width>1920</width>
                    <height>1080</height>
                    <pixelaspectratio>Square</pixelaspectratio>
                    <anamorphic>FALSE</anamorphic>
                  </samplecharacteristics>
                </video>
              </media>
            </file>
            <sourcetrack>
              <mediatype>video</mediatype>
            </sourcetrack>
            <fielddominance>none</fielddominance>
          </clipitem>
          <clipitem id="B.png36">
            <name>B.png</name>
            <duration>1.25</duration>
            <rate>
              <ntsc>FALSE</ntsc>
              <timebase>25</timebase>
            </rate>
            <in>90180</in>
            <out>90181.25</out>
            <start>180</start>
            <end>181.25</end>
            <pixelaspectratio>Square</pixelaspectratio>
            <stillframe>TRUE</stillframe>
            <anamorphic>FALSE</anamorphic>
            <alphatype>straight</alphatype>
            <masterclipid>B.png36</masterclipid>
            <file id="B">
              <name>B.png</name>
              <pathurl>D:/Codes/SynthLip/SynthLipN/bin/Release/net6.0-windows8.0/publish/Skin/template/B.png</pathurl>
              <rate>
                <ntsc>FALSE</ntsc>
                <timebase>25</timebase>
              </rate>
              <duration>2</duration>
              <width>1920</width>
              <height>1080</height>
              <media>
                <video>
                  <duration>2</duration>
                  <stillframe>TRUE</stillframe>
                  <samplecharacteristics>
                    <rate>
                      <ntsc>FALSE</ntsc>
                      <timebase>25</timebase>
                    </rate>
                    <width>1920</width>
                    <height>1080</height>
                    <pixelaspectratio>Square</pixelaspectratio>
                    <anamorphic>FALSE</anamorphic>
                  </samplecharacteristics>
                </video>
              </media>
            </file>
            <sourcetrack>
              <mediatype>video</mediatype>
            </sourcetrack>
            <fielddominance>none</fielddominance>
          </clipitem>
          <clipitem id="B.png35">
            <name>B.png</name>
            <duration>4.37</duration>
            <rate>
              <ntsc>FALSE</ntsc>
              <timebase>25</timebase>
            </rate>
            <in>90175.63</in>
            <out>90180</out>
            <start>175.63</start>
            <end>180</end>
            <pixelaspectratio>Square</pixelaspectratio>
            <stillframe>TRUE</stillframe>
            <anamorphic>FALSE</anamorphic>
            <alphatype>straight</alphatype>
            <masterclipid>B.png35</masterclipid>
            <file id="B">
              <name>B.png</name>
              <pathurl>D:/Codes/SynthLip/SynthLipN/bin/Release/net6.0-windows8.0/publish/Skin/template/B.png</pathurl>
              <rate>
                <ntsc>FALSE</ntsc>
                <timebase>25</timebase>
              </rate>
              <duration>2</duration>
              <width>1920</width>
              <height>1080</height>
              <media>
                <video>
                  <duration>2</duration>
                  <stillframe>TRUE</stillframe>
                  <samplecharacteristics>
                    <rate>
                      <ntsc>FALSE</ntsc>
                      <timebase>25</timebase>
                    </rate>
                    <width>1920</width>
                    <height>1080</height>
                    <pixelaspectratio>Square</pixelaspectratio>
                    <anamorphic>FALSE</anamorphic>
                  </samplecharacteristics>
                </video>
              </media>
            </file>
            <sourcetrack>
              <mediatype>video</mediatype>
            </sourcetrack>
            <fielddominance>none</fielddominance>
          </clipitem>
          <clipitem id="B.png34">
            <name>B.png</name>
            <duration>0.63</duration>
            <rate>
              <ntsc>FALSE</ntsc>
              <timebase>25</timebase>
            </rate>
            <in>90175</in>
            <out>90175.63</out>
            <start>175</start>
            <end>175.63</end>
            <pixelaspectratio>Square</pixelaspectratio>
            <stillframe>TRUE</stillframe>
            <anamorphic>FALSE</anamorphic>
            <alphatype>straight</alphatype>
            <masterclipid>B.png34</masterclipid>
            <file id="B">
              <name>B.png</name>
              <pathurl>D:/Codes/SynthLip/SynthLipN/bin/Release/net6.0-windows8.0/publish/Skin/template/B.png</pathurl>
              <rate>
                <ntsc>FALSE</ntsc>
                <timebase>25</timebase>
              </rate>
              <duration>2</duration>
              <width>1920</width>
              <height>1080</height>
              <media>
                <video>
                  <duration>2</duration>
                  <stillframe>TRUE</stillframe>
                  <samplecharacteristics>
                    <rate>
                      <ntsc>FALSE</ntsc>
                      <timebase>25</timebase>
                    </rate>
                    <width>1920</width>
                    <height>1080</height>
                    <pixelaspectratio>Square</pixelaspectratio>
                    <anamorphic>FALSE</anamorphic>
                  </samplecharacteristics>
                </video>
              </media>
            </file>
            <sourcetrack>
              <mediatype>video</mediatype>
            </sourcetrack>
            <fielddominance>none</fielddominance>
          </clipitem>
          <clipitem id="C.png33">
            <name>C.png</name>
            <duration>1.87</duration>
            <rate>
              <ntsc>FALSE</ntsc>
              <timebase>25</timebase>
            </rate>
            <in>90173.13</in>
            <out>90175</out>
            <start>173.13</start>
            <end>175</end>
            <pixelaspectratio>Square</pixelaspectratio>
            <stillframe>TRUE</stillframe>
            <anamorphic>FALSE</anamorphic>
            <alphatype>straight</alphatype>
            <masterclipid>C.png33</masterclipid>
            <file id="C">
              <name>C.png</name>
              <pathurl>D:/Codes/SynthLip/SynthLipN/bin/Release/net6.0-windows8.0/publish/Skin/template/C.png</pathurl>
              <rate>
                <ntsc>FALSE</ntsc>
                <timebase>25</timebase>
              </rate>
              <duration>2</duration>
              <width>1920</width>
              <height>1080</height>
              <media>
                <video>
                  <duration>2</duration>
                  <stillframe>TRUE</stillframe>
                  <samplecharacteristics>
                    <rate>
                      <ntsc>FALSE</ntsc>
                      <timebase>25</timebase>
                    </rate>
                    <width>1920</width>
                    <height>1080</height>
                    <pixelaspectratio>Square</pixelaspectratio>
                    <anamorphic>FALSE</anamorphic>
                  </samplecharacteristics>
                </video>
              </media>
            </file>
            <sourcetrack>
              <mediatype>video</mediatype>
            </sourcetrack>
            <fielddominance>none</fielddominance>
          </clipitem>
          <clipitem id="B.png32">
            <name>B.png</name>
            <duration>0.63</duration>
            <rate>
              <ntsc>FALSE</ntsc>
              <timebase>25</timebase>
            </rate>
            <in>90172.5</in>
            <out>90173.13</out>
            <start>172.5</start>
            <end>173.13</end>
            <pixelaspectratio>Square</pixelaspectratio>
            <stillframe>TRUE</stillframe>
            <anamorphic>FALSE</anamorphic>
            <alphatype>straight</alphatype>
            <masterclipid>B.png32</masterclipid>
            <file id="B">
              <name>B.png</name>
              <pathurl>D:/Codes/SynthLip/SynthLipN/bin/Release/net6.0-windows8.0/publish/Skin/template/B.png</pathurl>
              <rate>
                <ntsc>FALSE</ntsc>
                <timebase>25</timebase>
              </rate>
              <duration>2</duration>
              <width>1920</width>
              <height>1080</height>
              <media>
                <video>
                  <duration>2</duration>
                  <stillframe>TRUE</stillframe>
                  <samplecharacteristics>
                    <rate>
                      <ntsc>FALSE</ntsc>
                      <timebase>25</timebase>
                    </rate>
                    <width>1920</width>
                    <height>1080</height>
                    <pixelaspectratio>Square</pixelaspectratio>
                    <anamorphic>FALSE</anamorphic>
                  </samplecharacteristics>
                </video>
              </media>
            </file>
            <sourcetrack>
              <mediatype>video</mediatype>
            </sourcetrack>
            <fielddominance>none</fielddominance>
          </clipitem>
          <clipitem id="C.png31">
            <name>C.png</name>
            <duration>5.62</duration>
            <rate>
              <ntsc>FALSE</ntsc>
              <timebase>25</timebase>
            </rate>
            <in>90166.88</in>
            <out>90172.5</out>
            <start>166.88</start>
            <end>172.5</end>
            <pixelaspectratio>Square</pixelaspectratio>
            <stillframe>TRUE</stillframe>
            <anamorphic>FALSE</anamorphic>
            <alphatype>straight</alphatype>
            <masterclipid>C.png31</masterclipid>
            <file id="C">
              <name>C.png</name>
              <pathurl>D:/Codes/SynthLip/SynthLipN/bin/Release/net6.0-windows8.0/publish/Skin/template/C.png</pathurl>
              <rate>
                <ntsc>FALSE</ntsc>
                <timebase>25</timebase>
              </rate>
              <duration>2</duration>
              <width>1920</width>
              <height>1080</height>
              <media>
                <video>
                  <duration>2</duration>
                  <stillframe>TRUE</stillframe>
                  <samplecharacteristics>
                    <rate>
                      <ntsc>FALSE</ntsc>
                      <timebase>25</timebase>
                    </rate>
                    <width>1920</width>
                    <height>1080</height>
                    <pixelaspectratio>Square</pixelaspectratio>
                    <anamorphic>FALSE</anamorphic>
                  </samplecharacteristics>
                </video>
              </media>
            </file>
            <sourcetrack>
              <mediatype>video</mediatype>
            </sourcetrack>
            <fielddominance>none</fielddominance>
          </clipitem>
          <clipitem id="B.png30">
            <name>B.png</name>
            <duration>1.88</duration>
            <rate>
              <ntsc>FALSE</ntsc>
              <timebase>25</timebase>
            </rate>
            <in>90165</in>
            <out>90166.88</out>
            <start>165</start>
            <end>166.88</end>
            <pixelaspectratio>Square</pixelaspectratio>
            <stillframe>TRUE</stillframe>
            <anamorphic>FALSE</anamorphic>
            <alphatype>straight</alphatype>
            <masterclipid>B.png30</masterclipid>
            <file id="B">
              <name>B.png</name>
              <pathurl>D:/Codes/SynthLip/SynthLipN/bin/Release/net6.0-windows8.0/publish/Skin/template/B.png</pathurl>
              <rate>
                <ntsc>FALSE</ntsc>
                <timebase>25</timebase>
              </rate>
              <duration>2</duration>
              <width>1920</width>
              <height>1080</height>
              <media>
                <video>
                  <duration>2</duration>
                  <stillframe>TRUE</stillframe>
                  <samplecharacteristics>
                    <rate>
                      <ntsc>FALSE</ntsc>
                      <timebase>25</timebase>
                    </rate>
                    <width>1920</width>
                    <height>1080</height>
                    <pixelaspectratio>Square</pixelaspectratio>
                    <anamorphic>FALSE</anamorphic>
                  </samplecharacteristics>
                </video>
              </media>
            </file>
            <sourcetrack>
              <mediatype>video</mediatype>
            </sourcetrack>
            <fielddominance>none</fielddominance>
          </clipitem>
          <clipitem id="F.png29">
            <name>F.png</name>
            <duration>5.62</duration>
            <rate>
              <ntsc>FALSE</ntsc>
              <timebase>25</timebase>
            </rate>
            <in>90159.38</in>
            <out>90165</out>
            <start>159.38</start>
            <end>165</end>
            <pixelaspectratio>Square</pixelaspectratio>
            <stillframe>TRUE</stillframe>
            <anamorphic>FALSE</anamorphic>
            <alphatype>straight</alphatype>
            <masterclipid>F.png29</masterclipid>
            <file id="F">
              <name>F.png</name>
              <pathurl>D:/Codes/SynthLip/SynthLipN/bin/Release/net6.0-windows8.0/publish/Skin/template/F.png</pathurl>
              <rate>
                <ntsc>FALSE</ntsc>
                <timebase>25</timebase>
              </rate>
              <duration>2</duration>
              <width>1920</width>
              <height>1080</height>
              <media>
                <video>
                  <duration>2</duration>
                  <stillframe>TRUE</stillframe>
                  <samplecharacteristics>
                    <rate>
                      <ntsc>FALSE</ntsc>
                      <timebase>25</timebase>
                    </rate>
                    <width>1920</width>
                    <height>1080</height>
                    <pixelaspectratio>Square</pixelaspectratio>
                    <anamorphic>FALSE</anamorphic>
                  </samplecharacteristics>
                </video>
              </media>
            </file>
            <sourcetrack>
              <mediatype>video</mediatype>
            </sourcetrack>
            <fielddominance>none</fielddominance>
          </clipitem>
          <clipitem id="F.png28">
            <name>F.png</name>
            <duration>2.34</duration>
            <rate>
              <ntsc>FALSE</ntsc>
              <timebase>25</timebase>
            </rate>
            <in>90157.03</in>
            <out>90159.375</out>
            <start>157.03</start>
            <end>159.37</end>
            <pixelaspectratio>Square</pixelaspectratio>
            <stillframe>TRUE</stillframe>
            <anamorphic>FALSE</anamorphic>
            <alphatype>straight</alphatype>
            <masterclipid>F.png28</masterclipid>
            <file id="F">
              <name>F.png</name>
              <pathurl>D:/Codes/SynthLip/SynthLipN/bin/Release/net6.0-windows8.0/publish/Skin/template/F.png</pathurl>
              <rate>
                <ntsc>FALSE</ntsc>
                <timebase>25</timebase>
              </rate>
              <duration>2</duration>
              <width>1920</width>
              <height>1080</height>
              <media>
                <video>
                  <duration>2</duration>
                  <stillframe>TRUE</stillframe>
                  <samplecharacteristics>
                    <rate>
                      <ntsc>FALSE</ntsc>
                      <timebase>25</timebase>
                    </rate>
                    <width>1920</width>
                    <height>1080</height>
                    <pixelaspectratio>Square</pixelaspectratio>
                    <anamorphic>FALSE</anamorphic>
                  </samplecharacteristics>
                </video>
              </media>
            </file>
            <sourcetrack>
              <mediatype>video</mediatype>
            </sourcetrack>
            <fielddominance>none</fielddominance>
          </clipitem>
          <clipitem id="B.png27">
            <name>B.png</name>
            <duration>1.41</duration>
            <rate>
              <ntsc>FALSE</ntsc>
              <timebase>25</timebase>
            </rate>
            <in>90155.63</in>
            <out>90157.04</out>
            <start>155.63</start>
            <end>157.04001</end>
            <pixelaspectratio>Square</pixelaspectratio>
            <stillframe>TRUE</stillframe>
            <anamorphic>FALSE</anamorphic>
            <alphatype>straight</alphatype>
            <masterclipid>B.png27</masterclipid>
            <file id="B">
              <name>B.png</name>
              <pathurl>D:/Codes/SynthLip/SynthLipN/bin/Release/net6.0-windows8.0/publish/Skin/template/B.png</pathurl>
              <rate>
                <ntsc>FALSE</ntsc>
                <timebase>25</timebase>
              </rate>
              <duration>2</duration>
              <width>1920</width>
              <height>1080</height>
              <media>
                <video>
                  <duration>2</duration>
                  <stillframe>TRUE</stillframe>
                  <samplecharacteristics>
                    <rate>
                      <ntsc>FALSE</ntsc>
                      <timebase>25</timebase>
                    </rate>
                    <width>1920</width>
                    <height>1080</height>
                    <pixelaspectratio>Square</pixelaspectratio>
                    <anamorphic>FALSE</anamorphic>
                  </samplecharacteristics>
                </video>
              </media>
            </file>
            <sourcetrack>
              <mediatype>video</mediatype>
            </sourcetrack>
            <fielddominance>none</fielddominance>
          </clipitem>
          <clipitem id="C.png26">
            <name>C.png</name>
            <duration>1.88</duration>
            <rate>
              <ntsc>FALSE</ntsc>
              <timebase>25</timebase>
            </rate>
            <in>90153.75</in>
            <out>90155.63</out>
            <start>153.75</start>
            <end>155.63</end>
            <pixelaspectratio>Square</pixelaspectratio>
            <stillframe>TRUE</stillframe>
            <anamorphic>FALSE</anamorphic>
            <alphatype>straight</alphatype>
            <masterclipid>C.png26</masterclipid>
            <file id="C">
              <name>C.png</name>
              <pathurl>D:/Codes/SynthLip/SynthLipN/bin/Release/net6.0-windows8.0/publish/Skin/template/C.png</pathurl>
              <rate>
                <ntsc>FALSE</ntsc>
                <timebase>25</timebase>
              </rate>
              <duration>2</duration>
              <width>1920</width>
              <height>1080</height>
              <media>
                <video>
                  <duration>2</duration>
                  <stillframe>TRUE</stillframe>
                  <samplecharacteristics>
                    <rate>
                      <ntsc>FALSE</ntsc>
                      <timebase>25</timebase>
                    </rate>
                    <width>1920</width>
                    <height>1080</height>
                    <pixelaspectratio>Square</pixelaspectratio>
                    <anamorphic>FALSE</anamorphic>
                  </samplecharacteristics>
                </video>
              </media>
            </file>
            <sourcetrack>
              <mediatype>video</mediatype>
            </sourcetrack>
            <fielddominance>none</fielddominance>
          </clipitem>
          <clipitem id="C.png25">
            <name>C.png</name>
            <duration>2.81</duration>
            <rate>
              <ntsc>FALSE</ntsc>
              <timebase>25</timebase>
            </rate>
            <in>90150.94</in>
            <out>90153.75</out>
            <start>150.94</start>
            <end>153.75</end>
            <pixelaspectratio>Square</pixelaspectratio>
            <stillframe>TRUE</stillframe>
            <anamorphic>FALSE</anamorphic>
            <alphatype>straight</alphatype>
            <masterclipid>C.png25</masterclipid>
            <file id="C">
              <name>C.png</name>
              <pathurl>D:/Codes/SynthLip/SynthLipN/bin/Release/net6.0-windows8.0/publish/Skin/template/C.png</pathurl>
              <rate>
                <ntsc>FALSE</ntsc>
                <timebase>25</timebase>
              </rate>
              <duration>2</duration>
              <width>1920</width>
              <height>1080</height>
              <media>
                <video>
                  <duration>2</duration>
                  <stillframe>TRUE</stillframe>
                  <samplecharacteristics>
                    <rate>
                      <ntsc>FALSE</ntsc>
                      <timebase>25</timebase>
                    </rate>
                    <width>1920</width>
                    <height>1080</height>
                    <pixelaspectratio>Square</pixelaspectratio>
                    <anamorphic>FALSE</anamorphic>
                  </samplecharacteristics>
                </video>
              </media>
            </file>
            <sourcetrack>
              <mediatype>video</mediatype>
            </sourcetrack>
            <fielddominance>none</fielddominance>
          </clipitem>
          <clipitem id="B.png24">
            <name>B.png</name>
            <duration>0.94</duration>
            <rate>
              <ntsc>FALSE</ntsc>
              <timebase>25</timebase>
            </rate>
            <in>90150</in>
            <out>90150.94</out>
            <start>150</start>
            <end>150.94</end>
            <pixelaspectratio>Square</pixelaspectratio>
            <stillframe>TRUE</stillframe>
            <anamorphic>FALSE</anamorphic>
            <alphatype>straight</alphatype>
            <masterclipid>B.png24</masterclipid>
            <file id="B">
              <name>B.png</name>
              <pathurl>D:/Codes/SynthLip/SynthLipN/bin/Release/net6.0-windows8.0/publish/Skin/template/B.png</pathurl>
              <rate>
                <ntsc>FALSE</ntsc>
                <timebase>25</timebase>
              </rate>
              <duration>2</duration>
              <width>1920</width>
              <height>1080</height>
              <media>
                <video>
                  <duration>2</duration>
                  <stillframe>TRUE</stillframe>
                  <samplecharacteristics>
                    <rate>
                      <ntsc>FALSE</ntsc>
                      <timebase>25</timebase>
                    </rate>
                    <width>1920</width>
                    <height>1080</height>
                    <pixelaspectratio>Square</pixelaspectratio>
                    <anamorphic>FALSE</anamorphic>
                  </samplecharacteristics>
                </video>
              </media>
            </file>
            <sourcetrack>
              <mediatype>video</mediatype>
            </sourcetrack>
            <fielddominance>none</fielddominance>
          </clipitem>
          <clipitem id="A.png23">
            <name>A.png</name>
            <duration>8.75</duration>
            <rate>
              <ntsc>FALSE</ntsc>
              <timebase>25</timebase>
            </rate>
            <in>90141.25</in>
            <out>90150</out>
            <start>141.25</start>
            <end>150</end>
            <pixelaspectratio>Square</pixelaspectratio>
            <stillframe>TRUE</stillframe>
            <anamorphic>FALSE</anamorphic>
            <alphatype>straight</alphatype>
            <masterclipid>A.png23</masterclipid>
            <file id="A">
              <name>A.png</name>
              <pathurl>D:/Codes/SynthLip/SynthLipN/bin/Release/net6.0-windows8.0/publish/Skin/template/A.png</pathurl>
              <rate>
                <ntsc>FALSE</ntsc>
                <timebase>25</timebase>
              </rate>
              <duration>2</duration>
              <width>1920</width>
              <height>1080</height>
              <media>
                <video>
                  <duration>2</duration>
                  <stillframe>TRUE</stillframe>
                  <samplecharacteristics>
                    <rate>
                      <ntsc>FALSE</ntsc>
                      <timebase>25</timebase>
                    </rate>
                    <width>1920</width>
                    <height>1080</height>
                    <pixelaspectratio>Square</pixelaspectratio>
                    <anamorphic>FALSE</anamorphic>
                  </samplecharacteristics>
                </video>
              </media>
            </file>
            <sourcetrack>
              <mediatype>video</mediatype>
            </sourcetrack>
            <fielddominance>none</fielddominance>
          </clipitem>
          <clipitem id="B.png22">
            <name>B.png</name>
            <duration>1.25</duration>
            <rate>
              <ntsc>FALSE</ntsc>
              <timebase>25</timebase>
            </rate>
            <in>90140</in>
            <out>90141.25</out>
            <start>140</start>
            <end>141.25</end>
            <pixelaspectratio>Square</pixelaspectratio>
            <stillframe>TRUE</stillframe>
            <anamorphic>FALSE</anamorphic>
            <alphatype>straight</alphatype>
            <masterclipid>B.png22</masterclipid>
            <file id="B">
              <name>B.png</name>
              <pathurl>D:/Codes/SynthLip/SynthLipN/bin/Release/net6.0-windows8.0/publish/Skin/template/B.png</pathurl>
              <rate>
                <ntsc>FALSE</ntsc>
                <timebase>25</timebase>
              </rate>
              <duration>2</duration>
              <width>1920</width>
              <height>1080</height>
              <media>
                <video>
                  <duration>2</duration>
                  <stillframe>TRUE</stillframe>
                  <samplecharacteristics>
                    <rate>
                      <ntsc>FALSE</ntsc>
                      <timebase>25</timebase>
                    </rate>
                    <width>1920</width>
                    <height>1080</height>
                    <pixelaspectratio>Square</pixelaspectratio>
                    <anamorphic>FALSE</anamorphic>
                  </samplecharacteristics>
                </video>
              </media>
            </file>
            <sourcetrack>
              <mediatype>video</mediatype>
            </sourcetrack>
            <fielddominance>none</fielddominance>
          </clipitem>
          <clipitem id="D.png21">
            <name>D.png</name>
            <duration>3.75</duration>
            <rate>
              <ntsc>FALSE</ntsc>
              <timebase>25</timebase>
            </rate>
            <in>90136.25</in>
            <out>90140</out>
            <start>136.25</start>
            <end>140</end>
            <pixelaspectratio>Square</pixelaspectratio>
            <stillframe>TRUE</stillframe>
            <anamorphic>FALSE</anamorphic>
            <alphatype>straight</alphatype>
            <masterclipid>D.png21</masterclipid>
            <file id="D">
              <name>D.png</name>
              <pathurl>D:/Codes/SynthLip/SynthLipN/bin/Release/net6.0-windows8.0/publish/Skin/template/D.png</pathurl>
              <rate>
                <ntsc>FALSE</ntsc>
                <timebase>25</timebase>
              </rate>
              <duration>2</duration>
              <width>1920</width>
              <height>1080</height>
              <media>
                <video>
                  <duration>2</duration>
                  <stillframe>TRUE</stillframe>
                  <samplecharacteristics>
                    <rate>
                      <ntsc>FALSE</ntsc>
                      <timebase>25</timebase>
                    </rate>
                    <width>1920</width>
                    <height>1080</height>
                    <pixelaspectratio>Square</pixelaspectratio>
                    <anamorphic>FALSE</anamorphic>
                  </samplecharacteristics>
                </video>
              </media>
            </file>
            <sourcetrack>
              <mediatype>video</mediatype>
            </sourcetrack>
            <fielddominance>none</fielddominance>
          </clipitem>
          <clipitem id="B.png20">
            <name>B.png</name>
            <duration>1.25</duration>
            <rate>
              <ntsc>FALSE</ntsc>
              <timebase>25</timebase>
            </rate>
            <in>90135</in>
            <out>90136.25</out>
            <start>135</start>
            <end>136.25</end>
            <pixelaspectratio>Square</pixelaspectratio>
            <stillframe>TRUE</stillframe>
            <anamorphic>FALSE</anamorphic>
            <alphatype>straight</alphatype>
            <masterclipid>B.png20</masterclipid>
            <file id="B">
              <name>B.png</name>
              <pathurl>D:/Codes/SynthLip/SynthLipN/bin/Release/net6.0-windows8.0/publish/Skin/template/B.png</pathurl>
              <rate>
                <ntsc>FALSE</ntsc>
                <timebase>25</timebase>
              </rate>
              <duration>2</duration>
              <width>1920</width>
              <height>1080</height>
              <media>
                <video>
                  <duration>2</duration>
                  <stillframe>TRUE</stillframe>
                  <samplecharacteristics>
                    <rate>
                      <ntsc>FALSE</ntsc>
                      <timebase>25</timebase>
                    </rate>
                    <width>1920</width>
                    <height>1080</height>
                    <pixelaspectratio>Square</pixelaspectratio>
                    <anamorphic>FALSE</anamorphic>
                  </samplecharacteristics>
                </video>
              </media>
            </file>
            <sourcetrack>
              <mediatype>video</mediatype>
            </sourcetrack>
            <fielddominance>none</fielddominance>
          </clipitem>
          <clipitem id="F.png19">
            <name>F.png</name>
            <duration>3.75</duration>
            <rate>
              <ntsc>FALSE</ntsc>
              <timebase>25</timebase>
            </rate>
            <in>90131.25</in>
            <out>90135</out>
            <start>131.25</start>
            <end>135</end>
            <pixelaspectratio>Square</pixelaspectratio>
            <stillframe>TRUE</stillframe>
            <anamorphic>FALSE</anamorphic>
            <alphatype>straight</alphatype>
            <masterclipid>F.png19</masterclipid>
            <file id="F">
              <name>F.png</name>
              <pathurl>D:/Codes/SynthLip/SynthLipN/bin/Release/net6.0-windows8.0/publish/Skin/template/F.png</pathurl>
              <rate>
                <ntsc>FALSE</ntsc>
                <timebase>25</timebase>
              </rate>
              <duration>2</duration>
              <width>1920</width>
              <height>1080</height>
              <media>
                <video>
                  <duration>2</duration>
                  <stillframe>TRUE</stillframe>
                  <samplecharacteristics>
                    <rate>
                      <ntsc>FALSE</ntsc>
                      <timebase>25</timebase>
                    </rate>
                    <width>1920</width>
                    <height>1080</height>
                    <pixelaspectratio>Square</pixelaspectratio>
                    <anamorphic>FALSE</anamorphic>
                  </samplecharacteristics>
                </video>
              </media>
            </file>
            <sourcetrack>
              <mediatype>video</mediatype>
            </sourcetrack>
            <fielddominance>none</fielddominance>
          </clipitem>
          <clipitem id="F.png18">
            <name>F.png</name>
            <duration>1.87</duration>
            <rate>
              <ntsc>FALSE</ntsc>
              <timebase>25</timebase>
            </rate>
            <in>90129.38</in>
            <out>90131.25</out>
            <start>129.38</start>
            <end>131.25</end>
            <pixelaspectratio>Square</pixelaspectratio>
            <stillframe>TRUE</stillframe>
            <anamorphic>FALSE</anamorphic>
            <alphatype>straight</alphatype>
            <masterclipid>F.png18</masterclipid>
            <file id="F">
              <name>F.png</name>
              <pathurl>D:/Codes/SynthLip/SynthLipN/bin/Release/net6.0-windows8.0/publish/Skin/template/F.png</pathurl>
              <rate>
                <ntsc>FALSE</ntsc>
                <timebase>25</timebase>
              </rate>
              <duration>2</duration>
              <width>1920</width>
              <height>1080</height>
              <media>
                <video>
                  <duration>2</duration>
                  <stillframe>TRUE</stillframe>
                  <samplecharacteristics>
                    <rate>
                      <ntsc>FALSE</ntsc>
                      <timebase>25</timebase>
                    </rate>
                    <width>1920</width>
                    <height>1080</height>
                    <pixelaspectratio>Square</pixelaspectratio>
                    <anamorphic>FALSE</anamorphic>
                  </samplecharacteristics>
                </video>
              </media>
            </file>
            <sourcetrack>
              <mediatype>video</mediatype>
            </sourcetrack>
            <fielddominance>none</fielddominance>
          </clipitem>
          <clipitem id="F.png17">
            <name>F.png</name>
            <duration>1.41</duration>
            <rate>
              <ntsc>FALSE</ntsc>
              <timebase>25</timebase>
            </rate>
            <in>90127.97</in>
            <out>90129.375</out>
            <start>127.97</start>
            <end>129.38</end>
            <pixelaspectratio>Square</pixelaspectratio>
            <stillframe>TRUE</stillframe>
            <anamorphic>FALSE</anamorphic>
            <alphatype>straight</alphatype>
            <masterclipid>F.png17</masterclipid>
            <file id="F">
              <name>F.png</name>
              <pathurl>D:/Codes/SynthLip/SynthLipN/bin/Release/net6.0-windows8.0/publish/Skin/template/F.png</pathurl>
              <rate>
                <ntsc>FALSE</ntsc>
                <timebase>25</timebase>
              </rate>
              <duration>2</duration>
              <width>1920</width>
              <height>1080</height>
              <media>
                <video>
                  <duration>2</duration>
                  <stillframe>TRUE</stillframe>
                  <samplecharacteristics>
                    <rate>
                      <ntsc>FALSE</ntsc>
                      <timebase>25</timebase>
                    </rate>
                    <width>1920</width>
                    <height>1080</height>
                    <pixelaspectratio>Square</pixelaspectratio>
                    <anamorphic>FALSE</anamorphic>
                  </samplecharacteristics>
                </video>
              </media>
            </file>
            <sourcetrack>
              <mediatype>video</mediatype>
            </sourcetrack>
            <fielddominance>none</fielddominance>
          </clipitem>
          <clipitem id="B.png16">
            <name>B.png</name>
            <duration>0.47</duration>
            <rate>
              <ntsc>FALSE</ntsc>
              <timebase>25</timebase>
            </rate>
            <in>90127.5</in>
            <out>90127.97</out>
            <start>127.5</start>
            <end>127.97</end>
            <pixelaspectratio>Square</pixelaspectratio>
            <stillframe>TRUE</stillframe>
            <anamorphic>FALSE</anamorphic>
            <alphatype>straight</alphatype>
            <masterclipid>B.png16</masterclipid>
            <file id="B">
              <name>B.png</name>
              <pathurl>D:/Codes/SynthLip/SynthLipN/bin/Release/net6.0-windows8.0/publish/Skin/template/B.png</pathurl>
              <rate>
                <ntsc>FALSE</ntsc>
                <timebase>25</timebase>
              </rate>
              <duration>2</duration>
              <width>1920</width>
              <height>1080</height>
              <media>
                <video>
                  <duration>2</duration>
                  <stillframe>TRUE</stillframe>
                  <samplecharacteristics>
                    <rate>
                      <ntsc>FALSE</ntsc>
                      <timebase>25</timebase>
                    </rate>
                    <width>1920</width>
                    <height>1080</height>
                    <pixelaspectratio>Square</pixelaspectratio>
                    <anamorphic>FALSE</anamorphic>
                  </samplecharacteristics>
                </video>
              </media>
            </file>
            <sourcetrack>
              <mediatype>video</mediatype>
            </sourcetrack>
            <fielddominance>none</fielddominance>
          </clipitem>
          <clipitem id="C.png15">
            <name>C.png</name>
            <duration>5.62</duration>
            <rate>
              <ntsc>FALSE</ntsc>
              <timebase>25</timebase>
            </rate>
            <in>90121.88</in>
            <out>90127.5</out>
            <start>121.88</start>
            <end>127.5</end>
            <pixelaspectratio>Square</pixelaspectratio>
            <stillframe>TRUE</stillframe>
            <anamorphic>FALSE</anamorphic>
            <alphatype>straight</alphatype>
            <masterclipid>C.png15</masterclipid>
            <file id="C">
              <name>C.png</name>
              <pathurl>D:/Codes/SynthLip/SynthLipN/bin/Release/net6.0-windows8.0/publish/Skin/template/C.png</pathurl>
              <rate>
                <ntsc>FALSE</ntsc>
                <timebase>25</timebase>
              </rate>
              <duration>2</duration>
              <width>1920</width>
              <height>1080</height>
              <media>
                <video>
                  <duration>2</duration>
                  <stillframe>TRUE</stillframe>
                  <samplecharacteristics>
                    <rate>
                      <ntsc>FALSE</ntsc>
                      <timebase>25</timebase>
                    </rate>
                    <width>1920</width>
                    <height>1080</height>
                    <pixelaspectratio>Square</pixelaspectratio>
                    <anamorphic>FALSE</anamorphic>
                  </samplecharacteristics>
                </video>
              </media>
            </file>
            <sourcetrack>
              <mediatype>video</mediatype>
            </sourcetrack>
            <fielddominance>none</fielddominance>
          </clipitem>
          <clipitem id="A.png14">
            <name>A.png</name>
            <duration>1.88</duration>
            <rate>
              <ntsc>FALSE</ntsc>
              <timebase>25</timebase>
            </rate>
            <in>90120</in>
            <out>90121.88</out>
            <start>120</start>
            <end>121.88</end>
            <pixelaspectratio>Square</pixelaspectratio>
            <stillframe>TRUE</stillframe>
            <anamorphic>FALSE</anamorphic>
            <alphatype>straight</alphatype>
            <masterclipid>A.png14</masterclipid>
            <file id="A">
              <name>A.png</name>
              <pathurl>D:/Codes/SynthLip/SynthLipN/bin/Release/net6.0-windows8.0/publish/Skin/template/A.png</pathurl>
              <rate>
                <ntsc>FALSE</ntsc>
                <timebase>25</timebase>
              </rate>
              <duration>2</duration>
              <width>1920</width>
              <height>1080</height>
              <media>
                <video>
                  <duration>2</duration>
                  <stillframe>TRUE</stillframe>
                  <samplecharacteristics>
                    <rate>
                      <ntsc>FALSE</ntsc>
                      <timebase>25</timebase>
                    </rate>
                    <width>1920</width>
                    <height>1080</height>
                    <pixelaspectratio>Square</pixelaspectratio>
                    <anamorphic>FALSE</anamorphic>
                  </samplecharacteristics>
                </video>
              </media>
            </file>
            <sourcetrack>
              <mediatype>video</mediatype>
            </sourcetrack>
            <fielddominance>none</fielddominance>
          </clipitem>
          <clipitem id="B.png13">
            <name>B.png</name>
            <duration>4.38</duration>
            <rate>
              <ntsc>FALSE</ntsc>
              <timebase>25</timebase>
            </rate>
            <in>90115.63</in>
            <out>90120.016</out>
            <start>115.63</start>
            <end>120.009995</end>
            <pixelaspectratio>Square</pixelaspectratio>
            <stillframe>TRUE</stillframe>
            <anamorphic>FALSE</anamorphic>
            <alphatype>straight</alphatype>
            <masterclipid>B.png13</masterclipid>
            <file id="B">
              <name>B.png</name>
              <pathurl>D:/Codes/SynthLip/SynthLipN/bin/Release/net6.0-windows8.0/publish/Skin/template/B.png</pathurl>
              <rate>
                <ntsc>FALSE</ntsc>
                <timebase>25</timebase>
              </rate>
              <duration>2</duration>
              <width>1920</width>
              <height>1080</height>
              <media>
                <video>
                  <duration>2</duration>
                  <stillframe>TRUE</stillframe>
                  <samplecharacteristics>
                    <rate>
                      <ntsc>FALSE</ntsc>
                      <timebase>25</timebase>
                    </rate>
                    <width>1920</width>
                    <height>1080</height>
                    <pixelaspectratio>Square</pixelaspectratio>
                    <anamorphic>FALSE</anamorphic>
                  </samplecharacteristics>
                </video>
              </media>
            </file>
            <sourcetrack>
              <mediatype>video</mediatype>
            </sourcetrack>
            <fielddominance>none</fielddominance>
          </clipitem>
          <clipitem id="B.png12">
            <name>B.png</name>
            <duration>0.63</duration>
            <rate>
              <ntsc>FALSE</ntsc>
              <timebase>25</timebase>
            </rate>
            <in>90115</in>
            <out>90115.63</out>
            <start>115</start>
            <end>115.63</end>
            <pixelaspectratio>Square</pixelaspectratio>
            <stillframe>TRUE</stillframe>
            <anamorphic>FALSE</anamorphic>
            <alphatype>straight</alphatype>
            <masterclipid>B.png12</masterclipid>
            <file id="B">
              <name>B.png</name>
              <pathurl>D:/Codes/SynthLip/SynthLipN/bin/Release/net6.0-windows8.0/publish/Skin/template/B.png</pathurl>
              <rate>
                <ntsc>FALSE</ntsc>
                <timebase>25</timebase>
              </rate>
              <duration>2</duration>
              <width>1920</width>
              <height>1080</height>
              <media>
                <video>
                  <duration>2</duration>
                  <stillframe>TRUE</stillframe>
                  <samplecharacteristics>
                    <rate>
                      <ntsc>FALSE</ntsc>
                      <timebase>25</timebase>
                    </rate>
                    <width>1920</width>
                    <height>1080</height>
                    <pixelaspectratio>Square</pixelaspectratio>
                    <anamorphic>FALSE</anamorphic>
                  </samplecharacteristics>
                </video>
              </media>
            </file>
            <sourcetrack>
              <mediatype>video</mediatype>
            </sourcetrack>
            <fielddominance>none</fielddominance>
          </clipitem>
          <clipitem id="C.png11">
            <name>C.png</name>
            <duration>2.5</duration>
            <rate>
              <ntsc>FALSE</ntsc>
              <timebase>25</timebase>
            </rate>
            <in>90112.5</in>
            <out>90115</out>
            <start>112.5</start>
            <end>115</end>
            <pixelaspectratio>Square</pixelaspectratio>
            <stillframe>TRUE</stillframe>
            <anamorphic>FALSE</anamorphic>
            <alphatype>straight</alphatype>
            <masterclipid>C.png11</masterclipid>
            <file id="C">
              <name>C.png</name>
              <pathurl>D:/Codes/SynthLip/SynthLipN/bin/Release/net6.0-windows8.0/publish/Skin/template/C.png</pathurl>
              <rate>
                <ntsc>FALSE</ntsc>
                <timebase>25</timebase>
              </rate>
              <duration>2</duration>
              <width>1920</width>
              <height>1080</height>
              <media>
                <video>
                  <duration>2</duration>
                  <stillframe>TRUE</stillframe>
                  <samplecharacteristics>
                    <rate>
                      <ntsc>FALSE</ntsc>
                      <timebase>25</timebase>
                    </rate>
                    <width>1920</width>
                    <height>1080</height>
                    <pixelaspectratio>Square</pixelaspectratio>
                    <anamorphic>FALSE</anamorphic>
                  </samplecharacteristics>
                </video>
              </media>
            </file>
            <sourcetrack>
              <mediatype>video</mediatype>
            </sourcetrack>
            <fielddominance>none</fielddominance>
          </clipitem>
          <clipitem id="G.png10">
            <name>G.png</name>
            <duration>1.25</duration>
            <rate>
              <ntsc>FALSE</ntsc>
              <timebase>25</timebase>
            </rate>
            <in>90111.25</in>
            <out>90112.5</out>
            <start>111.25</start>
            <end>112.5</end>
            <pixelaspectratio>Square</pixelaspectratio>
            <stillframe>TRUE</stillframe>
            <anamorphic>FALSE</anamorphic>
            <alphatype>straight</alphatype>
            <masterclipid>G.png10</masterclipid>
            <file id="G">
              <name>G.png</name>
              <pathurl>D:/Codes/SynthLip/SynthLipN/bin/Release/net6.0-windows8.0/publish/Skin/template/G.png</pathurl>
              <rate>
                <ntsc>FALSE</ntsc>
                <timebase>25</timebase>
              </rate>
              <duration>2</duration>
              <width>1920</width>
              <height>1080</height>
              <media>
                <video>
                  <duration>2</duration>
                  <stillframe>TRUE</stillframe>
                  <samplecharacteristics>
                    <rate>
                      <ntsc>FALSE</ntsc>
                      <timebase>25</timebase>
                    </rate>
                    <width>1920</width>
                    <height>1080</height>
                    <pixelaspectratio>Square</pixelaspectratio>
                    <anamorphic>FALSE</anamorphic>
                  </samplecharacteristics>
                </video>
              </media>
            </file>
            <sourcetrack>
              <mediatype>video</mediatype>
            </sourcetrack>
            <fielddominance>none</fielddominance>
          </clipitem>
          <clipitem id="A.png9">
            <name>A.png</name>
            <duration>1.25</duration>
            <rate>
              <ntsc>FALSE</ntsc>
              <timebase>25</timebase>
            </rate>
            <in>90110</in>
            <out>90111.25</out>
            <start>110</start>
            <end>111.25</end>
            <pixelaspectratio>Square</pixelaspectratio>
            <stillframe>TRUE</stillframe>
            <anamorphic>FALSE</anamorphic>
            <alphatype>straight</alphatype>
            <masterclipid>A.png9</masterclipid>
            <file id="A">
              <name>A.png</name>
              <pathurl>D:/Codes/SynthLip/SynthLipN/bin/Release/net6.0-windows8.0/publish/Skin/template/A.png</pathurl>
              <rate>
                <ntsc>FALSE</ntsc>
                <timebase>25</timebase>
              </rate>
              <duration>2</duration>
              <width>1920</width>
              <height>1080</height>
              <media>
                <video>
                  <duration>2</duration>
                  <stillframe>TRUE</stillframe>
                  <samplecharacteristics>
                    <rate>
                      <ntsc>FALSE</ntsc>
                      <timebase>25</timebase>
                    </rate>
                    <width>1920</width>
                    <height>1080</height>
                    <pixelaspectratio>Square</pixelaspectratio>
                    <anamorphic>FALSE</anamorphic>
                  </samplecharacteristics>
                </video>
              </media>
            </file>
            <sourcetrack>
              <mediatype>video</mediatype>
            </sourcetrack>
            <fielddominance>none</fielddominance>
          </clipitem>
          <clipitem id="D.png8">
            <name>D.png</name>
            <duration>4.38</duration>
            <rate>
              <ntsc>FALSE</ntsc>
              <timebase>25</timebase>
            </rate>
            <in>90105.62</in>
            <out>90110</out>
            <start>105.62</start>
            <end>110</end>
            <pixelaspectratio>Square</pixelaspectratio>
            <stillframe>TRUE</stillframe>
            <anamorphic>FALSE</anamorphic>
            <alphatype>straight</alphatype>
            <masterclipid>D.png8</masterclipid>
            <file id="D">
              <name>D.png</name>
              <pathurl>D:/Codes/SynthLip/SynthLipN/bin/Release/net6.0-windows8.0/publish/Skin/template/D.png</pathurl>
              <rate>
                <ntsc>FALSE</ntsc>
                <timebase>25</timebase>
              </rate>
              <duration>2</duration>
              <width>1920</width>
              <height>1080</height>
              <media>
                <video>
                  <duration>2</duration>
                  <stillframe>TRUE</stillframe>
                  <samplecharacteristics>
                    <rate>
                      <ntsc>FALSE</ntsc>
                      <timebase>25</timebase>
                    </rate>
                    <width>1920</width>
                    <height>1080</height>
                    <pixelaspectratio>Square</pixelaspectratio>
                    <anamorphic>FALSE</anamorphic>
                  </samplecharacteristics>
                </video>
              </media>
            </file>
            <sourcetrack>
              <mediatype>video</mediatype>
            </sourcetrack>
            <fielddominance>none</fielddominance>
          </clipitem>
          <clipitem id="B.png7">
            <name>B.png</name>
            <duration>1.88</duration>
            <rate>
              <ntsc>FALSE</ntsc>
              <timebase>25</timebase>
            </rate>
            <in>90103.75</in>
            <out>90105.63</out>
            <start>103.75</start>
            <end>105.63</end>
            <pixelaspectratio>Square</pixelaspectratio>
            <stillframe>TRUE</stillframe>
            <anamorphic>FALSE</anamorphic>
            <alphatype>straight</alphatype>
            <masterclipid>B.png7</masterclipid>
            <file id="B">
              <name>B.png</name>
              <pathurl>D:/Codes/SynthLip/SynthLipN/bin/Release/net6.0-windows8.0/publish/Skin/template/B.png</pathurl>
              <rate>
                <ntsc>FALSE</ntsc>
                <timebase>25</timebase>
              </rate>
              <duration>2</duration>
              <width>1920</width>
              <height>1080</height>
              <media>
                <video>
                  <duration>2</duration>
                  <stillframe>TRUE</stillframe>
                  <samplecharacteristics>
                    <rate>
                      <ntsc>FALSE</ntsc>
                      <timebase>25</timebase>
                    </rate>
                    <width>1920</width>
                    <height>1080</height>
                    <pixelaspectratio>Square</pixelaspectratio>
                    <anamorphic>FALSE</anamorphic>
                  </samplecharacteristics>
                </video>
              </media>
            </file>
            <sourcetrack>
              <mediatype>video</mediatype>
            </sourcetrack>
            <fielddominance>none</fielddominance>
          </clipitem>
          <clipitem id="B.png6">
            <name>B.png</name>
            <duration>1.25</duration>
            <rate>
              <ntsc>FALSE</ntsc>
              <timebase>25</timebase>
            </rate>
            <in>90102.5</in>
            <out>90103.75</out>
            <start>102.5</start>
            <end>103.75</end>
            <pixelaspectratio>Square</pixelaspectratio>
            <stillframe>TRUE</stillframe>
            <anamorphic>FALSE</anamorphic>
            <alphatype>straight</alphatype>
            <masterclipid>B.png6</masterclipid>
            <file id="B">
              <name>B.png</name>
              <pathurl>D:/Codes/SynthLip/SynthLipN/bin/Release/net6.0-windows8.0/publish/Skin/template/B.png</pathurl>
              <rate>
                <ntsc>FALSE</ntsc>
                <timebase>25</timebase>
              </rate>
              <duration>2</duration>
              <width>1920</width>
              <height>1080</height>
              <media>
                <video>
                  <duration>2</duration>
                  <stillframe>TRUE</stillframe>
                  <samplecharacteristics>
                    <rate>
                      <ntsc>FALSE</ntsc>
                      <timebase>25</timebase>
                    </rate>
                    <width>1920</width>
                    <height>1080</height>
                    <pixelaspectratio>Square</pixelaspectratio>
                    <anamorphic>FALSE</anamorphic>
                  </samplecharacteristics>
                </video>
              </media>
            </file>
            <sourcetrack>
              <mediatype>video</mediatype>
            </sourcetrack>
            <fielddominance>none</fielddominance>
          </clipitem>
          <clipitem id="D.png5">
            <name>D.png</name>
            <duration>3.75</duration>
            <rate>
              <ntsc>FALSE</ntsc>
              <timebase>25</timebase>
            </rate>
            <in>90098.75</in>
            <out>90102.5</out>
            <start>98.75</start>
            <end>102.5</end>
            <pixelaspectratio>Square</pixelaspectratio>
            <stillframe>TRUE</stillframe>
            <anamorphic>FALSE</anamorphic>
            <alphatype>straight</alphatype>
            <masterclipid>D.png5</masterclipid>
            <file id="D">
              <name>D.png</name>
              <pathurl>D:/Codes/SynthLip/SynthLipN/bin/Release/net6.0-windows8.0/publish/Skin/template/D.png</pathurl>
              <rate>
                <ntsc>FALSE</ntsc>
                <timebase>25</timebase>
              </rate>
              <duration>2</duration>
              <width>1920</width>
              <height>1080</height>
              <media>
                <video>
                  <duration>2</duration>
                  <stillframe>TRUE</stillframe>
                  <samplecharacteristics>
                    <rate>
                      <ntsc>FALSE</ntsc>
                      <timebase>25</timebase>
                    </rate>
                    <width>1920</width>
                    <height>1080</height>
                    <pixelaspectratio>Square</pixelaspectratio>
                    <anamorphic>FALSE</anamorphic>
                  </samplecharacteristics>
                </video>
              </media>
            </file>
            <sourcetrack>
              <mediatype>video</mediatype>
            </sourcetrack>
            <fielddominance>none</fielddominance>
          </clipitem>
          <clipitem id="B.png4">
            <name>B.png</name>
            <duration>1.25</duration>
            <rate>
              <ntsc>FALSE</ntsc>
              <timebase>25</timebase>
            </rate>
            <in>90097.5</in>
            <out>90098.75</out>
            <start>97.5</start>
            <end>98.75</end>
            <pixelaspectratio>Square</pixelaspectratio>
            <stillframe>TRUE</stillframe>
            <anamorphic>FALSE</anamorphic>
            <alphatype>straight</alphatype>
            <masterclipid>B.png4</masterclipid>
            <file id="B">
              <name>B.png</name>
              <pathurl>D:/Codes/SynthLip/SynthLipN/bin/Release/net6.0-windows8.0/publish/Skin/template/B.png</pathurl>
              <rate>
                <ntsc>FALSE</ntsc>
                <timebase>25</timebase>
              </rate>
              <duration>2</duration>
              <width>1920</width>
              <height>1080</height>
              <media>
                <video>
                  <duration>2</duration>
                  <stillframe>TRUE</stillframe>
                  <samplecharacteristics>
                    <rate>
                      <ntsc>FALSE</ntsc>
                      <timebase>25</timebase>
                    </rate>
                    <width>1920</width>
                    <height>1080</height>
                    <pixelaspectratio>Square</pixelaspectratio>
                    <anamorphic>FALSE</anamorphic>
                  </samplecharacteristics>
                </video>
              </media>
            </file>
            <sourcetrack>
              <mediatype>video</mediatype>
            </sourcetrack>
            <fielddominance>none</fielddominance>
          </clipitem>
          <clipitem id="E.png3">
            <name>E.png</name>
            <duration>5.63</duration>
            <rate>
              <ntsc>FALSE</ntsc>
              <timebase>25</timebase>
            </rate>
            <in>90091.88</in>
            <out>90097.516</out>
            <start>91.88</start>
            <end>97.509995</end>
            <pixelaspectratio>Square</pixelaspectratio>
            <stillframe>TRUE</stillframe>
            <anamorphic>FALSE</anamorphic>
            <alphatype>straight</alphatype>
            <masterclipid>E.png3</masterclipid>
            <file id="E">
              <name>E.png</name>
              <pathurl>D:/Codes/SynthLip/SynthLipN/bin/Release/net6.0-windows8.0/publish/Skin/template/E.png</pathurl>
              <rate>
                <ntsc>FALSE</ntsc>
                <timebase>25</timebase>
              </rate>
              <duration>2</duration>
              <width>1920</width>
              <height>1080</height>
              <media>
                <video>
                  <duration>2</duration>
                  <stillframe>TRUE</stillframe>
                  <samplecharacteristics>
                    <rate>
                      <ntsc>FALSE</ntsc>
                      <timebase>25</timebase>
                    </rate>
                    <width>1920</width>
                    <height>1080</height>
                    <pixelaspectratio>Square</pixelaspectratio>
                    <anamorphic>FALSE</anamorphic>
                  </samplecharacteristics>
                </video>
              </media>
            </file>
            <sourcetrack>
              <mediatype>video</mediatype>
            </sourcetrack>
            <fielddominance>none</fielddominance>
          </clipitem>
          <clipitem id="E.png2">
            <name>E.png</name>
            <duration>1.41</duration>
            <rate>
              <ntsc>FALSE</ntsc>
              <timebase>25</timebase>
            </rate>
            <in>90090.47</in>
            <out>90091.875</out>
            <start>90.47</start>
            <end>91.880005</end>
            <pixelaspectratio>Square</pixelaspectratio>
            <stillframe>TRUE</stillframe>
            <anamorphic>FALSE</anamorphic>
            <alphatype>straight</alphatype>
            <masterclipid>E.png2</masterclipid>
            <file id="E">
              <name>E.png</name>
              <pathurl>D:/Codes/SynthLip/SynthLipN/bin/Release/net6.0-windows8.0/publish/Skin/template/E.png</pathurl>
              <rate>
                <ntsc>FALSE</ntsc>
                <timebase>25</timebase>
              </rate>
              <duration>2</duration>
              <width>1920</width>
              <height>1080</height>
              <media>
                <video>
                  <duration>2</duration>
                  <stillframe>TRUE</stillframe>
                  <samplecharacteristics>
                    <rate>
                      <ntsc>FALSE</ntsc>
                      <timebase>25</timebase>
                    </rate>
                    <width>1920</width>
                    <height>1080</height>
                    <pixelaspectratio>Square</pixelaspectratio>
                    <anamorphic>FALSE</anamorphic>
                  </samplecharacteristics>
                </video>
              </media>
            </file>
            <sourcetrack>
              <mediatype>video</mediatype>
            </sourcetrack>
            <fielddominance>none</fielddominance>
          </clipitem>
          <clipitem id="C.png1">
            <name>C.png</name>
            <duration>0.47</duration>
            <rate>
              <ntsc>FALSE</ntsc>
              <timebase>25</timebase>
            </rate>
            <in>90090</in>
            <out>90090.47</out>
            <start>90</start>
            <end>90.47</end>
            <pixelaspectratio>Square</pixelaspectratio>
            <stillframe>TRUE</stillframe>
            <anamorphic>FALSE</anamorphic>
            <alphatype>straight</alphatype>
            <masterclipid>C.png1</masterclipid>
            <file id="C">
              <name>C.png</name>
              <pathurl>D:/Codes/SynthLip/SynthLipN/bin/Release/net6.0-windows8.0/publish/Skin/template/C.png</pathurl>
              <rate>
                <ntsc>FALSE</ntsc>
                <timebase>25</timebase>
              </rate>
              <duration>2</duration>
              <width>1920</width>
              <height>1080</height>
              <media>
                <video>
                  <duration>2</duration>
                  <stillframe>TRUE</stillframe>
                  <samplecharacteristics>
                    <rate>
                      <ntsc>FALSE</ntsc>
                      <timebase>25</timebase>
                    </rate>
                    <width>1920</width>
                    <height>1080</height>
                    <pixelaspectratio>Square</pixelaspectratio>
                    <anamorphic>FALSE</anamorphic>
                  </samplecharacteristics>
                </video>
              </media>
            </file>
            <sourcetrack>
              <mediatype>video</mediatype>
            </sourcetrack>
            <fielddominance>none</fielddominance>
          </clipitem>
          <clipitem id="A.png0">
            <name>A.png</name>
            <duration>90</duration>
            <rate>
              <ntsc>FALSE</ntsc>
              <timebase>25</timebase>
            </rate>
            <in>90000</in>
            <out>90090</out>
            <start>0</start>
            <end>90</end>
            <pixelaspectratio>Square</pixelaspectratio>
            <stillframe>TRUE</stillframe>
            <anamorphic>FALSE</anamorphic>
            <alphatype>straight</alphatype>
            <masterclipid>A.png0</masterclipid>
            <file id="A">
              <name>A.png</name>
              <pathurl>D:/Codes/SynthLip/SynthLipN/bin/Release/net6.0-windows8.0/publish/Skin/template/A.png</pathurl>
              <rate>
                <ntsc>FALSE</ntsc>
                <timebase>25</timebase>
              </rate>
              <duration>2</duration>
              <width>1920</width>
              <height>1080</height>
              <media>
                <video>
                  <duration>2</duration>
                  <stillframe>TRUE</stillframe>
                  <samplecharacteristics>
                    <rate>
                      <ntsc>FALSE</ntsc>
                      <timebase>25</timebase>
                    </rate>
                    <width>1920</width>
                    <height>1080</height>
                    <pixelaspectratio>Square</pixelaspectratio>
                    <anamorphic>FALSE</anamorphic>
                  </samplecharacteristics>
                </video>
              </media>
            </file>
            <sourcetrack>
              <mediatype>video</mediatype>
            </sourcetrack>
            <fielddominance>none</fielddominance>
          </clipitem>
          <enabled>TRUE</enabled>
          <locked>FALSE</locked>
        </track>
      </video>
    </media>
    <ismasterclip>FALSE</ismasterclip>
  </sequence>
</xmeml>